{
  "header": {
    "keySignatures": [],
    "meta": [],
    "name": "",
    "ppq": 96,
    "tempos": [
      {
        "bpm": 101.00006901671382,
        "ticks": 0
      },
      {
        "bpm": 101.00006901671382,
        "ticks": 2880
      },
      {
        "bpm": 101.00006901671382,
        "ticks": 12960
      },
      {
        "bpm": 101.00006901671382,
        "ticks": 14400
      },
      {
        "bpm": 101.00006901671382,
        "ticks": 33120
      },
      {
        "bpm": 101.00006901671382,
        "ticks": 36000
      }
    ],
    "timeSignatures": [
      {
        "ticks": 0,
        "timeSignature": [
          4,
          4
        ],
        "measures": 0
      }
    ]
  },
  "tracks": [
    {
      "channel": 0,
      "controlChanges": {},
      "pitchBends": [],
      "instrument": {
        "family": "piano",
        "number": 0,
        "name": "acoustic grand piano"
      },
      "name": "Track 03 (01: )",
      "notes": [
        {
          "duration": 2.22772125,
          "durationTicks": 360,
          "midi": 52,
          "name": "E3",
          "ticks": 0,
          "time": 0,
          "velocity": 1
        },
        {
          "duration": 2.22772125,
          "durationTicks": 360,
          "midi": 52,
          "name": "E3",
          "ticks": 24,
          "time": 0.14851475,
          "velocity": 0.09448818897637795
        },
        {
          "duration": 2.22772125,
          "durationTicks": 360,
          "midi": 52,
          "name": "E3",
          "ticks": 48,
          "time": 0.2970295,
          "velocity": 0.06299212598425197
        },
        {
          "duration": 0.5940590000000001,
          "durationTicks": 96,
          "midi": 52,
          "name": "E3",
          "ticks": 360,
          "time": 2.22772125,
          "velocity": 1
        },
        {
          "duration": 0.5940590000000001,
          "durationTicks": 96,
          "midi": 52,
          "name": "E3",
          "ticks": 384,
          "time": 2.376236,
          "velocity": 0.09448818897637795
        },
        {
          "duration": 0.5940590000000001,
          "durationTicks": 96,
          "midi": 52,
          "name": "E3",
          "ticks": 408,
          "time": 2.52475075,
          "velocity": 0.06299212598425197
        },
        {
          "duration": 2.22772125,
          "durationTicks": 360,
          "midi": 52,
          "name": "E3",
          "ticks": 720,
          "time": 4.4554425,
          "velocity": 1
        },
        {
          "duration": 2.22772125,
          "durationTicks": 360,
          "midi": 52,
          "name": "E3",
          "ticks": 744,
          "time": 4.60395725,
          "velocity": 0.09448818897637795
        },
        {
          "duration": 2.22772125,
          "durationTicks": 360,
          "midi": 52,
          "name": "E3",
          "ticks": 768,
          "time": 4.752472,
          "velocity": 0.06299212598425197
        },
        {
          "duration": 0.5940589999999997,
          "durationTicks": 96,
          "midi": 52,
          "name": "E3",
          "ticks": 1080,
          "time": 6.68316375,
          "velocity": 1
        },
        {
          "duration": 0.5940590000000006,
          "durationTicks": 96,
          "midi": 52,
          "name": "E3",
          "ticks": 1104,
          "time": 6.8316785,
          "velocity": 0.09448818897637795
        },
        {
          "duration": 0.5940589999999997,
          "durationTicks": 96,
          "midi": 52,
          "name": "E3",
          "ticks": 1128,
          "time": 6.98019325,
          "velocity": 0.06299212598425197
        },
        {
          "duration": 2.22772125,
          "durationTicks": 360,
          "midi": 52,
          "name": "E3",
          "ticks": 1440,
          "time": 8.910885,
          "velocity": 1
        },
        {
          "duration": 2.22772125,
          "durationTicks": 360,
          "midi": 52,
          "name": "E3",
          "ticks": 1464,
          "time": 9.05939975,
          "velocity": 0.09448818897637795
        },
        {
          "duration": 2.22772125,
          "durationTicks": 360,
          "midi": 52,
          "name": "E3",
          "ticks": 1488,
          "time": 9.2079145,
          "velocity": 0.06299212598425197
        },
        {
          "duration": 0.5940589999999997,
          "durationTicks": 96,
          "midi": 52,
          "name": "E3",
          "ticks": 1800,
          "time": 11.13860625,
          "velocity": 1
        },
        {
          "duration": 0.5940589999999997,
          "durationTicks": 96,
          "midi": 52,
          "name": "E3",
          "ticks": 1824,
          "time": 11.287121,
          "velocity": 0.09448818897637795
        },
        {
          "duration": 0.5940590000000014,
          "durationTicks": 96,
          "midi": 52,
          "name": "E3",
          "ticks": 1848,
          "time": 11.43563575,
          "velocity": 0.06299212598425197
        },
        {
          "duration": 2.22772125,
          "durationTicks": 360,
          "midi": 52,
          "name": "E3",
          "ticks": 2160,
          "time": 13.3663275,
          "velocity": 1
        },
        {
          "duration": 2.2277212499999983,
          "durationTicks": 360,
          "midi": 52,
          "name": "E3",
          "ticks": 2184,
          "time": 13.514842250000001,
          "velocity": 0.09448818897637795
        },
        {
          "duration": 2.22772125,
          "durationTicks": 360,
          "midi": 52,
          "name": "E3",
          "ticks": 2208,
          "time": 13.663357,
          "velocity": 0.06299212598425197
        },
        {
          "duration": 0.5940589999999997,
          "durationTicks": 96,
          "midi": 52,
          "name": "E3",
          "ticks": 2520,
          "time": 15.59404875,
          "velocity": 1
        },
        {
          "duration": 0.5940590000000014,
          "durationTicks": 96,
          "midi": 52,
          "name": "E3",
          "ticks": 2544,
          "time": 15.7425635,
          "velocity": 0.09448818897637795
        },
        {
          "duration": 0.5940590000000014,
          "durationTicks": 96,
          "midi": 52,
          "name": "E3",
          "ticks": 2568,
          "time": 15.89107825,
          "velocity": 0.06299212598425197
        },
        {
          "duration": 2.227721250000002,
          "durationTicks": 360,
          "midi": 52,
          "name": "E3",
          "ticks": 2880,
          "time": 17.82177,
          "velocity": 1
        },
        {
          "duration": 2.2277212499999983,
          "durationTicks": 360,
          "midi": 52,
          "name": "E3",
          "ticks": 2904,
          "time": 17.97028475,
          "velocity": 0.09448818897637795
        },
        {
          "duration": 2.2277212499999983,
          "durationTicks": 360,
          "midi": 52,
          "name": "E3",
          "ticks": 2928,
          "time": 18.1187995,
          "velocity": 0.06299212598425197
        },
        {
          "duration": 0.5940589999999979,
          "durationTicks": 96,
          "midi": 52,
          "name": "E3",
          "ticks": 3240,
          "time": 20.049491250000003,
          "velocity": 1
        },
        {
          "duration": 0.5940590000000014,
          "durationTicks": 96,
          "midi": 52,
          "name": "E3",
          "ticks": 3264,
          "time": 20.198006,
          "velocity": 0.09448818897637795
        },
        {
          "duration": 0.5940590000000014,
          "durationTicks": 96,
          "midi": 52,
          "name": "E3",
          "ticks": 3288,
          "time": 20.34652075,
          "velocity": 0.06299212598425197
        },
        {
          "duration": 2.2277212499999983,
          "durationTicks": 360,
          "midi": 52,
          "name": "E3",
          "ticks": 3600,
          "time": 22.2772125,
          "velocity": 1
        },
        {
          "duration": 2.2277212499999983,
          "durationTicks": 360,
          "midi": 52,
          "name": "E3",
          "ticks": 3624,
          "time": 22.42572725,
          "velocity": 0.09448818897637795
        },
        {
          "duration": 2.2277212499999983,
          "durationTicks": 360,
          "midi": 52,
          "name": "E3",
          "ticks": 3648,
          "time": 22.574242,
          "velocity": 0.06299212598425197
        },
        {
          "duration": 0.5940590000000014,
          "durationTicks": 96,
          "midi": 52,
          "name": "E3",
          "ticks": 3960,
          "time": 24.50493375,
          "velocity": 1
        },
        {
          "duration": 0.5940590000000014,
          "durationTicks": 96,
          "midi": 52,
          "name": "E3",
          "ticks": 3984,
          "time": 24.6534485,
          "velocity": 0.09448818897637795
        },
        {
          "duration": 0.5940590000000014,
          "durationTicks": 96,
          "midi": 52,
          "name": "E3",
          "ticks": 4008,
          "time": 24.80196325,
          "velocity": 0.06299212598425197
        },
        {
          "duration": 2.227721250000002,
          "durationTicks": 360,
          "midi": 52,
          "name": "E3",
          "ticks": 4320,
          "time": 26.732655,
          "velocity": 1
        },
        {
          "duration": 2.2277212499999983,
          "durationTicks": 360,
          "midi": 52,
          "name": "E3",
          "ticks": 4344,
          "time": 26.88116975,
          "velocity": 0.09448818897637795
        },
        {
          "duration": 2.2277212499999983,
          "durationTicks": 360,
          "midi": 52,
          "name": "E3",
          "ticks": 4368,
          "time": 27.029684500000002,
          "velocity": 0.06299212598425197
        },
        {
          "duration": 0.5940589999999979,
          "durationTicks": 96,
          "midi": 52,
          "name": "E3",
          "ticks": 4680,
          "time": 28.960376250000003,
          "velocity": 1
        },
        {
          "duration": 0.5940590000000014,
          "durationTicks": 96,
          "midi": 52,
          "name": "E3",
          "ticks": 4704,
          "time": 29.108891,
          "velocity": 0.09448818897637795
        },
        {
          "duration": 0.5940590000000014,
          "durationTicks": 96,
          "midi": 52,
          "name": "E3",
          "ticks": 4728,
          "time": 29.25740575,
          "velocity": 0.06299212598425197
        },
        {
          "duration": 2.2277212499999983,
          "durationTicks": 360,
          "midi": 52,
          "name": "E3",
          "ticks": 5040,
          "time": 31.1880975,
          "velocity": 1
        },
        {
          "duration": 2.227721250000002,
          "durationTicks": 360,
          "midi": 52,
          "name": "E3",
          "ticks": 5064,
          "time": 31.33661225,
          "velocity": 0.09448818897637795
        },
        {
          "duration": 2.227721250000002,
          "durationTicks": 360,
          "midi": 52,
          "name": "E3",
          "ticks": 5088,
          "time": 31.485127,
          "velocity": 0.06299212598425197
        },
        {
          "duration": 0.5940590000000014,
          "durationTicks": 96,
          "midi": 52,
          "name": "E3",
          "ticks": 5400,
          "time": 33.41581875,
          "velocity": 1
        },
        {
          "duration": 0.5940590000000014,
          "durationTicks": 96,
          "midi": 52,
          "name": "E3",
          "ticks": 5424,
          "time": 33.564333500000004,
          "velocity": 0.09448818897637795
        },
        {
          "duration": 0.5940590000000014,
          "durationTicks": 96,
          "midi": 52,
          "name": "E3",
          "ticks": 5448,
          "time": 33.71284825,
          "velocity": 0.06299212598425197
        },
        {
          "duration": 2.227721250000002,
          "durationTicks": 360,
          "midi": 52,
          "name": "E3",
          "ticks": 5760,
          "time": 35.64354,
          "velocity": 1
        },
        {
          "duration": 2.2277212499999948,
          "durationTicks": 360,
          "midi": 52,
          "name": "E3",
          "ticks": 5784,
          "time": 35.792054750000005,
          "velocity": 0.09448818897637795
        },
        {
          "duration": 2.2277212499999948,
          "durationTicks": 360,
          "midi": 52,
          "name": "E3",
          "ticks": 5808,
          "time": 35.9405695,
          "velocity": 0.06299212598425197
        },
        {
          "duration": 0.5940590000000014,
          "durationTicks": 96,
          "midi": 52,
          "name": "E3",
          "ticks": 6120,
          "time": 37.87126125,
          "velocity": 1
        },
        {
          "duration": 0.5940590000000014,
          "durationTicks": 96,
          "midi": 52,
          "name": "E3",
          "ticks": 6144,
          "time": 38.019776,
          "velocity": 0.09448818897637795
        },
        {
          "duration": 0.5940590000000014,
          "durationTicks": 96,
          "midi": 52,
          "name": "E3",
          "ticks": 6168,
          "time": 38.16829075,
          "velocity": 0.06299212598425197
        },
        {
          "duration": 4.900986749999994,
          "durationTicks": 792,
          "midi": 40,
          "name": "E2",
          "ticks": 6480,
          "time": 40.098982500000005,
          "velocity": 1
        },
        {
          "duration": 5.049501499999998,
          "durationTicks": 816,
          "midi": 40,
          "name": "E2",
          "ticks": 6504,
          "time": 40.24749725,
          "velocity": 0.09448818897637795
        },
        {
          "duration": 5.346530999999999,
          "durationTicks": 864,
          "midi": 40,
          "name": "E2",
          "ticks": 6528,
          "time": 40.396012,
          "velocity": 0.06299212598425197
        },
        {
          "duration": 2.227721250000002,
          "durationTicks": 360,
          "midi": 52,
          "name": "E3",
          "ticks": 12960,
          "time": 80.19796500000001,
          "velocity": 1
        },
        {
          "duration": 2.227721250000002,
          "durationTicks": 360,
          "midi": 52,
          "name": "E3",
          "ticks": 12984,
          "time": 80.34647975000001,
          "velocity": 0.09448818897637795
        },
        {
          "duration": 2.227721250000002,
          "durationTicks": 360,
          "midi": 52,
          "name": "E3",
          "ticks": 13008,
          "time": 80.4949945,
          "velocity": 0.06299212598425197
        },
        {
          "duration": 0.5940590000000014,
          "durationTicks": 96,
          "midi": 52,
          "name": "E3",
          "ticks": 13320,
          "time": 82.42568625000001,
          "velocity": 1
        },
        {
          "duration": 0.5940589999999872,
          "durationTicks": 96,
          "midi": 52,
          "name": "E3",
          "ticks": 13344,
          "time": 82.57420100000002,
          "velocity": 0.09448818897637795
        },
        {
          "duration": 0.5940590000000014,
          "durationTicks": 96,
          "midi": 52,
          "name": "E3",
          "ticks": 13368,
          "time": 82.72271575,
          "velocity": 0.06299212598425197
        },
        {
          "duration": 2.227721250000002,
          "durationTicks": 360,
          "midi": 52,
          "name": "E3",
          "ticks": 13680,
          "time": 84.65340750000001,
          "velocity": 1
        },
        {
          "duration": 2.227721250000002,
          "durationTicks": 360,
          "midi": 52,
          "name": "E3",
          "ticks": 13704,
          "time": 84.80192225,
          "velocity": 0.09448818897637795
        },
        {
          "duration": 2.227721250000002,
          "durationTicks": 360,
          "midi": 52,
          "name": "E3",
          "ticks": 13728,
          "time": 84.95043700000001,
          "velocity": 0.06299212598425197
        },
        {
          "duration": 0.5940589999999872,
          "durationTicks": 96,
          "midi": 52,
          "name": "E3",
          "ticks": 14040,
          "time": 86.88112875000002,
          "velocity": 1
        },
        {
          "duration": 0.5940590000000014,
          "durationTicks": 96,
          "midi": 52,
          "name": "E3",
          "ticks": 14064,
          "time": 87.0296435,
          "velocity": 0.09448818897637795
        },
        {
          "duration": 0.5940590000000014,
          "durationTicks": 96,
          "midi": 52,
          "name": "E3",
          "ticks": 14088,
          "time": 87.17815825000001,
          "velocity": 0.06299212598425197
        },
        {
          "duration": 2.227721250000002,
          "durationTicks": 360,
          "midi": 52,
          "name": "E3",
          "ticks": 14400,
          "time": 89.10885000000002,
          "velocity": 1
        },
        {
          "duration": 2.227721250000002,
          "durationTicks": 360,
          "midi": 52,
          "name": "E3",
          "ticks": 14424,
          "time": 89.25736475000002,
          "velocity": 0.09448818897637795
        },
        {
          "duration": 2.227721250000002,
          "durationTicks": 360,
          "midi": 52,
          "name": "E3",
          "ticks": 14448,
          "time": 89.40587950000001,
          "velocity": 0.06299212598425197
        },
        {
          "duration": 0.5940590000000014,
          "durationTicks": 96,
          "midi": 52,
          "name": "E3",
          "ticks": 14760,
          "time": 91.33657125000002,
          "velocity": 1
        },
        {
          "duration": 0.5940589999999872,
          "durationTicks": 96,
          "midi": 52,
          "name": "E3",
          "ticks": 14784,
          "time": 91.48508600000002,
          "velocity": 0.09448818897637795
        },
        {
          "duration": 0.5940590000000014,
          "durationTicks": 96,
          "midi": 52,
          "name": "E3",
          "ticks": 14808,
          "time": 91.63360075000001,
          "velocity": 0.06299212598425197
        },
        {
          "duration": 2.227721250000002,
          "durationTicks": 360,
          "midi": 52,
          "name": "E3",
          "ticks": 15120,
          "time": 93.56429250000002,
          "velocity": 1
        },
        {
          "duration": 2.227721250000002,
          "durationTicks": 360,
          "midi": 52,
          "name": "E3",
          "ticks": 15144,
          "time": 93.71280725000001,
          "velocity": 0.09448818897637795
        },
        {
          "duration": 2.227721250000002,
          "durationTicks": 360,
          "midi": 52,
          "name": "E3",
          "ticks": 15168,
          "time": 93.86132200000002,
          "velocity": 0.06299212598425197
        },
        {
          "duration": 0.5940589999999872,
          "durationTicks": 96,
          "midi": 52,
          "name": "E3",
          "ticks": 15480,
          "time": 95.79201375000002,
          "velocity": 1
        },
        {
          "duration": 0.5940590000000014,
          "durationTicks": 96,
          "midi": 52,
          "name": "E3",
          "ticks": 15504,
          "time": 95.94052850000001,
          "velocity": 0.09448818897637795
        },
        {
          "duration": 0.5940590000000014,
          "durationTicks": 96,
          "midi": 52,
          "name": "E3",
          "ticks": 15528,
          "time": 96.08904325000002,
          "velocity": 0.06299212598425197
        },
        {
          "duration": 2.227721250000002,
          "durationTicks": 360,
          "midi": 52,
          "name": "E3",
          "ticks": 32400,
          "time": 200.4949125,
          "velocity": 1
        },
        {
          "duration": 2.227721250000002,
          "durationTicks": 360,
          "midi": 52,
          "name": "E3",
          "ticks": 32424,
          "time": 200.64342725,
          "velocity": 0.09448818897637795
        },
        {
          "duration": 2.227721250000002,
          "durationTicks": 360,
          "midi": 52,
          "name": "E3",
          "ticks": 32448,
          "time": 200.791942,
          "velocity": 0.06299212598425197
        },
        {
          "duration": 2.227721250000002,
          "durationTicks": 360,
          "midi": 52,
          "name": "E3",
          "ticks": 32760,
          "time": 202.72263375,
          "velocity": 1
        },
        {
          "duration": 2.227721250000002,
          "durationTicks": 360,
          "midi": 52,
          "name": "E3",
          "ticks": 32784,
          "time": 202.8711485,
          "velocity": 0.09448818897637795
        },
        {
          "duration": 2.227721250000002,
          "durationTicks": 360,
          "midi": 52,
          "name": "E3",
          "ticks": 32808,
          "time": 203.01966325,
          "velocity": 0.06299212598425197
        },
        {
          "duration": 2.227721250000002,
          "durationTicks": 360,
          "midi": 52,
          "name": "E3",
          "ticks": 33120,
          "time": 204.950355,
          "velocity": 1
        },
        {
          "duration": 2.227721250000002,
          "durationTicks": 360,
          "midi": 52,
          "name": "E3",
          "ticks": 33144,
          "time": 205.09886975,
          "velocity": 0.09448818897637795
        },
        {
          "duration": 2.227721250000002,
          "durationTicks": 360,
          "midi": 52,
          "name": "E3",
          "ticks": 33168,
          "time": 205.2473845,
          "velocity": 0.06299212598425197
        },
        {
          "duration": 0.5940589999999872,
          "durationTicks": 96,
          "midi": 52,
          "name": "E3",
          "ticks": 33480,
          "time": 207.17807625,
          "velocity": 1
        },
        {
          "duration": 0.5940589999999872,
          "durationTicks": 96,
          "midi": 52,
          "name": "E3",
          "ticks": 33504,
          "time": 207.326591,
          "velocity": 0.09448818897637795
        },
        {
          "duration": 0.5940589999999872,
          "durationTicks": 96,
          "midi": 52,
          "name": "E3",
          "ticks": 33528,
          "time": 207.47510575,
          "velocity": 0.06299212598425197
        },
        {
          "duration": 2.227721250000002,
          "durationTicks": 360,
          "midi": 52,
          "name": "E3",
          "ticks": 33840,
          "time": 209.4057975,
          "velocity": 1
        },
        {
          "duration": 2.227721250000002,
          "durationTicks": 360,
          "midi": 52,
          "name": "E3",
          "ticks": 33864,
          "time": 209.55431225,
          "velocity": 0.09448818897637795
        },
        {
          "duration": 2.227721250000002,
          "durationTicks": 360,
          "midi": 52,
          "name": "E3",
          "ticks": 33888,
          "time": 209.702827,
          "velocity": 0.06299212598425197
        },
        {
          "duration": 0.5940589999999872,
          "durationTicks": 96,
          "midi": 52,
          "name": "E3",
          "ticks": 34200,
          "time": 211.63351875,
          "velocity": 1
        },
        {
          "duration": 0.5940589999999872,
          "durationTicks": 96,
          "midi": 52,
          "name": "E3",
          "ticks": 34224,
          "time": 211.7820335,
          "velocity": 0.09448818897637795
        },
        {
          "duration": 0.5940589999999872,
          "durationTicks": 96,
          "midi": 52,
          "name": "E3",
          "ticks": 34248,
          "time": 211.93054825000002,
          "velocity": 0.06299212598425197
        },
        {
          "duration": 2.227721250000002,
          "durationTicks": 360,
          "midi": 52,
          "name": "E3",
          "ticks": 34560,
          "time": 213.86124,
          "velocity": 1
        },
        {
          "duration": 2.227721250000002,
          "durationTicks": 360,
          "midi": 52,
          "name": "E3",
          "ticks": 34584,
          "time": 214.00975475,
          "velocity": 0.09448818897637795
        },
        {
          "duration": 2.227721250000002,
          "durationTicks": 360,
          "midi": 52,
          "name": "E3",
          "ticks": 34608,
          "time": 214.1582695,
          "velocity": 0.06299212598425197
        },
        {
          "duration": 0.5940589999999872,
          "durationTicks": 96,
          "midi": 52,
          "name": "E3",
          "ticks": 34920,
          "time": 216.08896125,
          "velocity": 1
        },
        {
          "duration": 0.5940589999999872,
          "durationTicks": 96,
          "midi": 52,
          "name": "E3",
          "ticks": 34944,
          "time": 216.23747600000002,
          "velocity": 0.09448818897637795
        },
        {
          "duration": 0.5940590000000157,
          "durationTicks": 96,
          "midi": 52,
          "name": "E3",
          "ticks": 34968,
          "time": 216.38599075,
          "velocity": 0.06299212598425197
        },
        {
          "duration": 2.227721250000002,
          "durationTicks": 360,
          "midi": 52,
          "name": "E3",
          "ticks": 35280,
          "time": 218.3166825,
          "velocity": 1
        },
        {
          "duration": 2.2277212499999735,
          "durationTicks": 360,
          "midi": 52,
          "name": "E3",
          "ticks": 35304,
          "time": 218.46519725000002,
          "velocity": 0.09448818897637795
        },
        {
          "duration": 2.227721250000002,
          "durationTicks": 360,
          "midi": 52,
          "name": "E3",
          "ticks": 35328,
          "time": 218.613712,
          "velocity": 0.06299212598425197
        },
        {
          "duration": 0.5940589999999872,
          "durationTicks": 96,
          "midi": 52,
          "name": "E3",
          "ticks": 35640,
          "time": 220.54440375000001,
          "velocity": 1
        },
        {
          "duration": 0.5940590000000157,
          "durationTicks": 96,
          "midi": 52,
          "name": "E3",
          "ticks": 35664,
          "time": 220.6929185,
          "velocity": 0.09448818897637795
        },
        {
          "duration": 0.5940590000000157,
          "durationTicks": 96,
          "midi": 52,
          "name": "E3",
          "ticks": 35688,
          "time": 220.84143325,
          "velocity": 0.06299212598425197
        },
        {
          "duration": 2.227721250000002,
          "durationTicks": 360,
          "midi": 52,
          "name": "E3",
          "ticks": 36000,
          "time": 222.77212500000002,
          "velocity": 1
        },
        {
          "duration": 2.227721250000002,
          "durationTicks": 360,
          "midi": 52,
          "name": "E3",
          "ticks": 36024,
          "time": 222.92063975000002,
          "velocity": 0.09448818897637795
        },
        {
          "duration": 2.227721250000002,
          "durationTicks": 360,
          "midi": 52,
          "name": "E3",
          "ticks": 36048,
          "time": 223.06915450000002,
          "velocity": 0.06299212598425197
        },
        {
          "duration": 0.5940589999999872,
          "durationTicks": 96,
          "midi": 52,
          "name": "E3",
          "ticks": 36360,
          "time": 224.99984625000002,
          "velocity": 1
        },
        {
          "duration": 0.5940589999999872,
          "durationTicks": 96,
          "midi": 52,
          "name": "E3",
          "ticks": 36384,
          "time": 225.14836100000002,
          "velocity": 0.09448818897637795
        },
        {
          "duration": 0.5940589999999872,
          "durationTicks": 96,
          "midi": 52,
          "name": "E3",
          "ticks": 36408,
          "time": 225.29687575000003,
          "velocity": 0.06299212598425197
        },
        {
          "duration": 2.227721250000002,
          "durationTicks": 360,
          "midi": 52,
          "name": "E3",
          "ticks": 36720,
          "time": 227.22756750000002,
          "velocity": 1
        },
        {
          "duration": 2.227721250000002,
          "durationTicks": 360,
          "midi": 52,
          "name": "E3",
          "ticks": 36744,
          "time": 227.37608225000002,
          "velocity": 0.09448818897637795
        },
        {
          "duration": 2.227721250000002,
          "durationTicks": 360,
          "midi": 52,
          "name": "E3",
          "ticks": 36768,
          "time": 227.52459700000003,
          "velocity": 0.06299212598425197
        },
        {
          "duration": 0.5940589999999872,
          "durationTicks": 96,
          "midi": 52,
          "name": "E3",
          "ticks": 37080,
          "time": 229.45528875000002,
          "velocity": 1
        },
        {
          "duration": 0.5940589999999872,
          "durationTicks": 96,
          "midi": 52,
          "name": "E3",
          "ticks": 37104,
          "time": 229.60380350000003,
          "velocity": 0.09448818897637795
        },
        {
          "duration": 0.5940589999999872,
          "durationTicks": 96,
          "midi": 52,
          "name": "E3",
          "ticks": 37128,
          "time": 229.75231825000003,
          "velocity": 0.06299212598425197
        },
        {
          "duration": 2.227721250000002,
          "durationTicks": 360,
          "midi": 52,
          "name": "E3",
          "ticks": 37440,
          "time": 231.68301000000002,
          "velocity": 1
        },
        {
          "duration": 2.227721250000002,
          "durationTicks": 360,
          "midi": 52,
          "name": "E3",
          "ticks": 37464,
          "time": 231.83152475000003,
          "velocity": 0.09448818897637795
        },
        {
          "duration": 2.227721250000002,
          "durationTicks": 360,
          "midi": 52,
          "name": "E3",
          "ticks": 37488,
          "time": 231.9800395,
          "velocity": 0.06299212598425197
        },
        {
          "duration": 0.5940589999999872,
          "durationTicks": 96,
          "midi": 52,
          "name": "E3",
          "ticks": 37800,
          "time": 233.91073125000003,
          "velocity": 1
        },
        {
          "duration": 0.5940589999999872,
          "durationTicks": 96,
          "midi": 52,
          "name": "E3",
          "ticks": 37824,
          "time": 234.05924600000003,
          "velocity": 0.09448818897637795
        },
        {
          "duration": 0.5940590000000157,
          "durationTicks": 96,
          "midi": 52,
          "name": "E3",
          "ticks": 37848,
          "time": 234.20776075,
          "velocity": 0.06299212598425197
        },
        {
          "duration": 2.227721250000002,
          "durationTicks": 360,
          "midi": 52,
          "name": "E3",
          "ticks": 38160,
          "time": 236.13845250000003,
          "velocity": 1
        },
        {
          "duration": 2.2277212499999735,
          "durationTicks": 360,
          "midi": 52,
          "name": "E3",
          "ticks": 38184,
          "time": 236.28696725000003,
          "velocity": 0.09448818897637795
        },
        {
          "duration": 2.227721250000002,
          "durationTicks": 360,
          "midi": 52,
          "name": "E3",
          "ticks": 38208,
          "time": 236.435482,
          "velocity": 0.06299212598425197
        },
        {
          "duration": 0.5940589999999872,
          "durationTicks": 96,
          "midi": 52,
          "name": "E3",
          "ticks": 38520,
          "time": 238.36617375000003,
          "velocity": 1
        },
        {
          "duration": 0.5940590000000157,
          "durationTicks": 96,
          "midi": 52,
          "name": "E3",
          "ticks": 38544,
          "time": 238.5146885,
          "velocity": 0.09448818897637795
        },
        {
          "duration": 0.5940590000000157,
          "durationTicks": 96,
          "midi": 52,
          "name": "E3",
          "ticks": 38568,
          "time": 238.66320325,
          "velocity": 0.06299212598425197
        }
      ],
      "endOfTrackTicks": 38664
    },
    {
      "channel": 0,
      "controlChanges": {},
      "pitchBends": [],
      "instrument": {
        "family": "piano",
        "number": 0,
        "name": "acoustic grand piano"
      },
      "name": "Track 15 (02:          Hy-oP)",
      "notes": [
        {
          "duration": 1.63366225,
          "durationTicks": 264,
          "midi": 52,
          "name": "E3",
          "ticks": 456,
          "time": 2.82178025,
          "velocity": 1
        },
        {
          "duration": 1.6336622499999995,
          "durationTicks": 264,
          "midi": 52,
          "name": "E3",
          "ticks": 480,
          "time": 2.970295,
          "velocity": 0.09448818897637795
        },
        {
          "duration": 1.63366225,
          "durationTicks": 264,
          "midi": 52,
          "name": "E3",
          "ticks": 504,
          "time": 3.11880975,
          "velocity": 0.06299212598425197
        },
        {
          "duration": 1.6336622500000004,
          "durationTicks": 264,
          "midi": 52,
          "name": "E3",
          "ticks": 1176,
          "time": 7.27722275,
          "velocity": 1
        },
        {
          "duration": 1.6336622500000004,
          "durationTicks": 264,
          "midi": 52,
          "name": "E3",
          "ticks": 1200,
          "time": 7.4257375,
          "velocity": 0.09448818897637795
        },
        {
          "duration": 1.6336622499999995,
          "durationTicks": 264,
          "midi": 52,
          "name": "E3",
          "ticks": 1224,
          "time": 7.57425225,
          "velocity": 0.06299212598425197
        },
        {
          "duration": 1.6336622500000004,
          "durationTicks": 264,
          "midi": 52,
          "name": "E3",
          "ticks": 1896,
          "time": 11.73266525,
          "velocity": 1
        },
        {
          "duration": 1.6336622500000004,
          "durationTicks": 264,
          "midi": 52,
          "name": "E3",
          "ticks": 1920,
          "time": 11.88118,
          "velocity": 0.09448818897637795
        },
        {
          "duration": 1.6336622499999987,
          "durationTicks": 264,
          "midi": 52,
          "name": "E3",
          "ticks": 1944,
          "time": 12.02969475,
          "velocity": 0.06299212598425197
        },
        {
          "duration": 1.6336622500000004,
          "durationTicks": 264,
          "midi": 52,
          "name": "E3",
          "ticks": 2616,
          "time": 16.18810775,
          "velocity": 1
        },
        {
          "duration": 1.6336622500000004,
          "durationTicks": 264,
          "midi": 52,
          "name": "E3",
          "ticks": 2640,
          "time": 16.3366225,
          "velocity": 0.09448818897637795
        },
        {
          "duration": 1.6336622500000004,
          "durationTicks": 264,
          "midi": 52,
          "name": "E3",
          "ticks": 2664,
          "time": 16.48513725,
          "velocity": 0.06299212598425197
        },
        {
          "duration": 1.6336622500000004,
          "durationTicks": 264,
          "midi": 52,
          "name": "E3",
          "ticks": 3336,
          "time": 20.64355025,
          "velocity": 1
        },
        {
          "duration": 1.6336622500000004,
          "durationTicks": 264,
          "midi": 52,
          "name": "E3",
          "ticks": 3360,
          "time": 20.792065,
          "velocity": 0.09448818897637795
        },
        {
          "duration": 1.6336622500000004,
          "durationTicks": 264,
          "midi": 52,
          "name": "E3",
          "ticks": 3384,
          "time": 20.94057975,
          "velocity": 0.06299212598425197
        },
        {
          "duration": 1.6336622500000004,
          "durationTicks": 264,
          "midi": 52,
          "name": "E3",
          "ticks": 4056,
          "time": 25.09899275,
          "velocity": 1
        },
        {
          "duration": 1.6336622500000004,
          "durationTicks": 264,
          "midi": 52,
          "name": "E3",
          "ticks": 4080,
          "time": 25.2475075,
          "velocity": 0.09448818897637795
        },
        {
          "duration": 1.6336622500000004,
          "durationTicks": 264,
          "midi": 52,
          "name": "E3",
          "ticks": 4104,
          "time": 25.39602225,
          "velocity": 0.06299212598425197
        },
        {
          "duration": 1.6336622500000004,
          "durationTicks": 264,
          "midi": 52,
          "name": "E3",
          "ticks": 4776,
          "time": 29.55443525,
          "velocity": 1
        },
        {
          "duration": 1.6336622500000004,
          "durationTicks": 264,
          "midi": 52,
          "name": "E3",
          "ticks": 4800,
          "time": 29.70295,
          "velocity": 0.09448818897637795
        },
        {
          "duration": 1.6336622499999969,
          "durationTicks": 264,
          "midi": 52,
          "name": "E3",
          "ticks": 4824,
          "time": 29.85146475,
          "velocity": 0.06299212598425197
        },
        {
          "duration": 1.6336622500000004,
          "durationTicks": 264,
          "midi": 52,
          "name": "E3",
          "ticks": 5496,
          "time": 34.00987775,
          "velocity": 1
        },
        {
          "duration": 1.6336622500000004,
          "durationTicks": 264,
          "midi": 52,
          "name": "E3",
          "ticks": 5520,
          "time": 34.158392500000005,
          "velocity": 0.09448818897637795
        },
        {
          "duration": 1.6336622500000004,
          "durationTicks": 264,
          "midi": 52,
          "name": "E3",
          "ticks": 5544,
          "time": 34.30690725,
          "velocity": 0.06299212598425197
        },
        {
          "duration": 1.6336622500000004,
          "durationTicks": 264,
          "midi": 52,
          "name": "E3",
          "ticks": 6216,
          "time": 38.465320250000005,
          "velocity": 1
        },
        {
          "duration": 1.6336622500000004,
          "durationTicks": 264,
          "midi": 52,
          "name": "E3",
          "ticks": 6240,
          "time": 38.613835,
          "velocity": 0.09448818897637795
        },
        {
          "duration": 1.6336622500000004,
          "durationTicks": 264,
          "midi": 52,
          "name": "E3",
          "ticks": 6264,
          "time": 38.76234975,
          "velocity": 0.06299212598425197
        },
        {
          "duration": 1.6336622500000004,
          "durationTicks": 264,
          "midi": 52,
          "name": "E3",
          "ticks": 13416,
          "time": 83.01974525000001,
          "velocity": 1
        },
        {
          "duration": 1.6336622500000004,
          "durationTicks": 264,
          "midi": 52,
          "name": "E3",
          "ticks": 13440,
          "time": 83.16826,
          "velocity": 0.09448818897637795
        },
        {
          "duration": 1.6336622500000004,
          "durationTicks": 264,
          "midi": 52,
          "name": "E3",
          "ticks": 13464,
          "time": 83.31677475000001,
          "velocity": 0.06299212598425197
        },
        {
          "duration": 1.6336622500000146,
          "durationTicks": 264,
          "midi": 52,
          "name": "E3",
          "ticks": 14136,
          "time": 87.47518775,
          "velocity": 1
        },
        {
          "duration": 1.6336622500000146,
          "durationTicks": 264,
          "midi": 52,
          "name": "E3",
          "ticks": 14160,
          "time": 87.62370250000001,
          "velocity": 0.09448818897637795
        },
        {
          "duration": 1.6336622500000004,
          "durationTicks": 264,
          "midi": 52,
          "name": "E3",
          "ticks": 14184,
          "time": 87.77221725000001,
          "velocity": 0.06299212598425197
        },
        {
          "duration": 1.6336622500000004,
          "durationTicks": 264,
          "midi": 52,
          "name": "E3",
          "ticks": 14856,
          "time": 91.93063025000002,
          "velocity": 1
        },
        {
          "duration": 1.6336622500000004,
          "durationTicks": 264,
          "midi": 52,
          "name": "E3",
          "ticks": 14880,
          "time": 92.07914500000001,
          "velocity": 0.09448818897637795
        },
        {
          "duration": 1.6336622500000004,
          "durationTicks": 264,
          "midi": 52,
          "name": "E3",
          "ticks": 14904,
          "time": 92.22765975000002,
          "velocity": 0.06299212598425197
        },
        {
          "duration": 2.5247507500000097,
          "durationTicks": 408,
          "midi": 52,
          "name": "E3",
          "ticks": 15576,
          "time": 96.38607275000001,
          "velocity": 1
        },
        {
          "duration": 3.7128687499999984,
          "durationTicks": 600,
          "midi": 52,
          "name": "E3",
          "ticks": 15600,
          "time": 96.53458750000001,
          "velocity": 0.09448818897637795
        },
        {
          "duration": 28.06928775,
          "durationTicks": 4536,
          "midi": 52,
          "name": "E3",
          "ticks": 15624,
          "time": 96.68310225000002,
          "velocity": 0.06299212598425197
        },
        {
          "duration": 1.6336622500000146,
          "durationTicks": 264,
          "midi": 52,
          "name": "E3",
          "ticks": 33576,
          "time": 207.77213525,
          "velocity": 1
        },
        {
          "duration": 1.6336622500000146,
          "durationTicks": 264,
          "midi": 52,
          "name": "E3",
          "ticks": 33600,
          "time": 207.92065,
          "velocity": 0.09448818897637795
        },
        {
          "duration": 1.6336622500000146,
          "durationTicks": 264,
          "midi": 52,
          "name": "E3",
          "ticks": 33624,
          "time": 208.06916475,
          "velocity": 0.06299212598425197
        },
        {
          "duration": 1.6336622500000146,
          "durationTicks": 264,
          "midi": 52,
          "name": "E3",
          "ticks": 34296,
          "time": 212.22757775,
          "velocity": 1
        },
        {
          "duration": 1.6336622500000146,
          "durationTicks": 264,
          "midi": 52,
          "name": "E3",
          "ticks": 34320,
          "time": 212.3760925,
          "velocity": 0.09448818897637795
        },
        {
          "duration": 1.6336622499999862,
          "durationTicks": 264,
          "midi": 52,
          "name": "E3",
          "ticks": 34344,
          "time": 212.52460725,
          "velocity": 0.06299212598425197
        },
        {
          "duration": 1.6336622500000146,
          "durationTicks": 264,
          "midi": 52,
          "name": "E3",
          "ticks": 35016,
          "time": 216.68302025,
          "velocity": 1
        },
        {
          "duration": 1.6336622500000146,
          "durationTicks": 264,
          "midi": 52,
          "name": "E3",
          "ticks": 35040,
          "time": 216.831535,
          "velocity": 0.09448818897637795
        },
        {
          "duration": 1.6336622499999862,
          "durationTicks": 264,
          "midi": 52,
          "name": "E3",
          "ticks": 35064,
          "time": 216.98004975,
          "velocity": 0.06299212598425197
        },
        {
          "duration": 1.6336622500000146,
          "durationTicks": 264,
          "midi": 52,
          "name": "E3",
          "ticks": 35736,
          "time": 221.13846275,
          "velocity": 1
        },
        {
          "duration": 1.6336622500000146,
          "durationTicks": 264,
          "midi": 52,
          "name": "E3",
          "ticks": 35760,
          "time": 221.2869775,
          "velocity": 0.09448818897637795
        },
        {
          "duration": 1.6336622500000146,
          "durationTicks": 264,
          "midi": 52,
          "name": "E3",
          "ticks": 35784,
          "time": 221.43549225,
          "velocity": 0.06299212598425197
        },
        {
          "duration": 1.6336622500000146,
          "durationTicks": 264,
          "midi": 52,
          "name": "E3",
          "ticks": 36456,
          "time": 225.59390525,
          "velocity": 1
        },
        {
          "duration": 1.6336622500000146,
          "durationTicks": 264,
          "midi": 52,
          "name": "E3",
          "ticks": 36480,
          "time": 225.74242,
          "velocity": 0.09448818897637795
        },
        {
          "duration": 1.6336622500000146,
          "durationTicks": 264,
          "midi": 52,
          "name": "E3",
          "ticks": 36504,
          "time": 225.89093475,
          "velocity": 0.06299212598425197
        },
        {
          "duration": 1.6336622500000146,
          "durationTicks": 264,
          "midi": 52,
          "name": "E3",
          "ticks": 37176,
          "time": 230.04934775,
          "velocity": 1
        },
        {
          "duration": 1.6336622500000146,
          "durationTicks": 264,
          "midi": 52,
          "name": "E3",
          "ticks": 37200,
          "time": 230.1978625,
          "velocity": 0.09448818897637795
        },
        {
          "duration": 1.6336622499999862,
          "durationTicks": 264,
          "midi": 52,
          "name": "E3",
          "ticks": 37224,
          "time": 230.34637725000002,
          "velocity": 0.06299212598425197
        },
        {
          "duration": 1.6336622500000146,
          "durationTicks": 264,
          "midi": 52,
          "name": "E3",
          "ticks": 37896,
          "time": 234.50479025,
          "velocity": 1
        },
        {
          "duration": 1.6336622500000146,
          "durationTicks": 264,
          "midi": 52,
          "name": "E3",
          "ticks": 37920,
          "time": 234.65330500000002,
          "velocity": 0.09448818897637795
        },
        {
          "duration": 1.6336622499999862,
          "durationTicks": 264,
          "midi": 52,
          "name": "E3",
          "ticks": 37944,
          "time": 234.80181975000002,
          "velocity": 0.06299212598425197
        },
        {
          "duration": 2.079206499999998,
          "durationTicks": 336,
          "midi": 52,
          "name": "E3",
          "ticks": 38616,
          "time": 238.96023275000002,
          "velocity": 1
        },
        {
          "duration": 1.930691749999994,
          "durationTicks": 312,
          "midi": 52,
          "name": "E3",
          "ticks": 38640,
          "time": 239.10874750000002,
          "velocity": 0.09448818897637795
        },
        {
          "duration": 1.7821769999999901,
          "durationTicks": 288,
          "midi": 52,
          "name": "E3",
          "ticks": 38664,
          "time": 239.25726225000003,
          "velocity": 0.06299212598425197
        }
      ],
      "endOfTrackTicks": 38952
    },
    {
      "channel": 0,
      "controlChanges": {},
      "pitchBends": [],
      "instrument": {
        "family": "piano",
        "number": 0,
        "name": "acoustic grand piano"
      },
      "name": "Track 04 (03:           by)",
      "notes": [
        {
          "duration": 0.29702949999999895,
          "durationTicks": 48,
          "midi": 56,
          "name": "G#3",
          "ticks": 1440,
          "time": 8.910885,
          "velocity": 1
        },
        {
          "duration": 0.2970295000000007,
          "durationTicks": 48,
          "midi": 44,
          "name": "G#2",
          "ticks": 1488,
          "time": 9.2079145,
          "velocity": 1
        },
        {
          "duration": 0.14851475000000036,
          "durationTicks": 24,
          "midi": 47,
          "name": "B2",
          "ticks": 1536,
          "time": 9.504944,
          "velocity": 1
        },
        {
          "duration": 0.29702949999999895,
          "durationTicks": 48,
          "midi": 49,
          "name": "C#3",
          "ticks": 1560,
          "time": 9.65345875,
          "velocity": 1
        },
        {
          "duration": 0.2970295000000007,
          "durationTicks": 48,
          "midi": 44,
          "name": "G#2",
          "ticks": 1608,
          "time": 9.95048825,
          "velocity": 0.12598425196850394
        },
        {
          "duration": 0.29702949999999895,
          "durationTicks": 48,
          "midi": 49,
          "name": "C#3",
          "ticks": 1704,
          "time": 10.54454725,
          "velocity": 1
        },
        {
          "duration": 0.2970295000000007,
          "durationTicks": 48,
          "midi": 47,
          "name": "B2",
          "ticks": 1752,
          "time": 10.84157675,
          "velocity": 1
        },
        {
          "duration": 0.29702949999999895,
          "durationTicks": 48,
          "midi": 44,
          "name": "G#2",
          "ticks": 1800,
          "time": 11.13860625,
          "velocity": 1
        },
        {
          "duration": 0.14851475000000036,
          "durationTicks": 24,
          "midi": 56,
          "name": "G#3",
          "ticks": 1848,
          "time": 11.43563575,
          "velocity": 1
        },
        {
          "duration": 0.14851475000000036,
          "durationTicks": 24,
          "midi": 47,
          "name": "B2",
          "ticks": 1872,
          "time": 11.5841505,
          "velocity": 0.12598425196850394
        },
        {
          "duration": 0.14851475000000036,
          "durationTicks": 24,
          "midi": 59,
          "name": "B3",
          "ticks": 1896,
          "time": 11.73266525,
          "velocity": 1
        },
        {
          "duration": 0.14851475000000036,
          "durationTicks": 24,
          "midi": 54,
          "name": "F#3",
          "ticks": 1920,
          "time": 11.88118,
          "velocity": 1
        },
        {
          "duration": 0.14851474999999859,
          "durationTicks": 24,
          "midi": 49,
          "name": "C#3",
          "ticks": 1944,
          "time": 12.02969475,
          "velocity": 1
        },
        {
          "duration": 0.14851475000000036,
          "durationTicks": 24,
          "midi": 59,
          "name": "B3",
          "ticks": 1968,
          "time": 12.1782095,
          "velocity": 0.12598425196850394
        },
        {
          "duration": 0.2970295000000007,
          "durationTicks": 48,
          "midi": 44,
          "name": "G#2",
          "ticks": 1992,
          "time": 12.32672425,
          "velocity": 1
        },
        {
          "duration": 0.14851475000000036,
          "durationTicks": 24,
          "midi": 47,
          "name": "B2",
          "ticks": 2040,
          "time": 12.62375375,
          "velocity": 1
        },
        {
          "duration": 0.14851474999999859,
          "durationTicks": 24,
          "midi": 49,
          "name": "C#3",
          "ticks": 2064,
          "time": 12.772268500000001,
          "velocity": 1
        },
        {
          "duration": 0.14851475000000036,
          "durationTicks": 24,
          "midi": 44,
          "name": "G#2",
          "ticks": 2088,
          "time": 12.92078325,
          "velocity": 0.12598425196850394
        },
        {
          "duration": 0.2970295000000007,
          "durationTicks": 48,
          "midi": 44,
          "name": "G#2",
          "ticks": 2112,
          "time": 13.069298,
          "velocity": 1
        },
        {
          "duration": 0.29702949999999895,
          "durationTicks": 48,
          "midi": 56,
          "name": "G#3",
          "ticks": 2160,
          "time": 13.3663275,
          "velocity": 1
        },
        {
          "duration": 0.2970295000000007,
          "durationTicks": 48,
          "midi": 44,
          "name": "G#2",
          "ticks": 2208,
          "time": 13.663357,
          "velocity": 1
        },
        {
          "duration": 0.14851475000000036,
          "durationTicks": 24,
          "midi": 44,
          "name": "G#2",
          "ticks": 2256,
          "time": 13.9603865,
          "velocity": 1
        },
        {
          "duration": 0.29702949999999895,
          "durationTicks": 48,
          "midi": 47,
          "name": "B2",
          "ticks": 2280,
          "time": 14.10890125,
          "velocity": 1
        },
        {
          "duration": 0.2970295000000007,
          "durationTicks": 48,
          "midi": 44,
          "name": "G#2",
          "ticks": 2328,
          "time": 14.40593075,
          "velocity": 0.12598425196850394
        },
        {
          "duration": 0.14851475000000036,
          "durationTicks": 24,
          "midi": 49,
          "name": "C#3",
          "ticks": 2424,
          "time": 14.99998975,
          "velocity": 1
        },
        {
          "duration": 0.14851475000000036,
          "durationTicks": 24,
          "midi": 44,
          "name": "G#2",
          "ticks": 2448,
          "time": 15.1485045,
          "velocity": 0.09448818897637795
        },
        {
          "duration": 0.2970295000000007,
          "durationTicks": 48,
          "midi": 47,
          "name": "B2",
          "ticks": 2472,
          "time": 15.29701925,
          "velocity": 1
        },
        {
          "duration": 0.29702949999999895,
          "durationTicks": 48,
          "midi": 44,
          "name": "G#2",
          "ticks": 2520,
          "time": 15.59404875,
          "velocity": 1
        },
        {
          "duration": 0.14851475000000036,
          "durationTicks": 24,
          "midi": 56,
          "name": "G#3",
          "ticks": 2568,
          "time": 15.89107825,
          "velocity": 1
        },
        {
          "duration": 0.14851475000000036,
          "durationTicks": 24,
          "midi": 47,
          "name": "B2",
          "ticks": 2592,
          "time": 16.039593,
          "velocity": 0.12598425196850394
        },
        {
          "duration": 0.14851475000000036,
          "durationTicks": 24,
          "midi": 59,
          "name": "B3",
          "ticks": 2616,
          "time": 16.18810775,
          "velocity": 1
        },
        {
          "duration": 0.14851475000000036,
          "durationTicks": 24,
          "midi": 54,
          "name": "F#3",
          "ticks": 2640,
          "time": 16.3366225,
          "velocity": 1
        },
        {
          "duration": 0.2970295000000007,
          "durationTicks": 48,
          "midi": 49,
          "name": "C#3",
          "ticks": 2664,
          "time": 16.48513725,
          "velocity": 1
        },
        {
          "duration": 0.29702949999999717,
          "durationTicks": 48,
          "midi": 44,
          "name": "G#2",
          "ticks": 2712,
          "time": 16.782166750000002,
          "velocity": 1
        },
        {
          "duration": 0.14851475000000036,
          "durationTicks": 24,
          "midi": 47,
          "name": "B2",
          "ticks": 2760,
          "time": 17.07919625,
          "velocity": 1
        },
        {
          "duration": 0.14851475000000036,
          "durationTicks": 24,
          "midi": 49,
          "name": "C#3",
          "ticks": 2784,
          "time": 17.227711,
          "velocity": 1
        },
        {
          "duration": 0.14851475000000036,
          "durationTicks": 24,
          "midi": 44,
          "name": "G#2",
          "ticks": 2808,
          "time": 17.37622575,
          "velocity": 0.12598425196850394
        },
        {
          "duration": 0.2970295000000007,
          "durationTicks": 48,
          "midi": 44,
          "name": "G#2",
          "ticks": 2832,
          "time": 17.5247405,
          "velocity": 1
        },
        {
          "duration": 0.2970295000000007,
          "durationTicks": 48,
          "midi": 56,
          "name": "G#3",
          "ticks": 2880,
          "time": 17.82177,
          "velocity": 1
        },
        {
          "duration": 0.2970295000000007,
          "durationTicks": 48,
          "midi": 44,
          "name": "G#2",
          "ticks": 2928,
          "time": 18.1187995,
          "velocity": 1
        },
        {
          "duration": 0.1485147499999968,
          "durationTicks": 24,
          "midi": 47,
          "name": "B2",
          "ticks": 2976,
          "time": 18.415829000000002,
          "velocity": 1
        },
        {
          "duration": 0.2970295000000007,
          "durationTicks": 48,
          "midi": 49,
          "name": "C#3",
          "ticks": 3000,
          "time": 18.56434375,
          "velocity": 1
        },
        {
          "duration": 0.2970295000000007,
          "durationTicks": 48,
          "midi": 44,
          "name": "G#2",
          "ticks": 3048,
          "time": 18.86137325,
          "velocity": 0.09448818897637795
        },
        {
          "duration": 0.2970295000000007,
          "durationTicks": 48,
          "midi": 49,
          "name": "C#3",
          "ticks": 3144,
          "time": 19.45543225,
          "velocity": 1
        },
        {
          "duration": 0.2970295000000007,
          "durationTicks": 48,
          "midi": 47,
          "name": "B2",
          "ticks": 3192,
          "time": 19.752461750000002,
          "velocity": 1
        },
        {
          "duration": 0.29702949999999717,
          "durationTicks": 48,
          "midi": 44,
          "name": "G#2",
          "ticks": 3240,
          "time": 20.049491250000003,
          "velocity": 1
        },
        {
          "duration": 0.14851475000000036,
          "durationTicks": 24,
          "midi": 56,
          "name": "G#3",
          "ticks": 3288,
          "time": 20.34652075,
          "velocity": 1
        },
        {
          "duration": 0.14851475000000036,
          "durationTicks": 24,
          "midi": 47,
          "name": "B2",
          "ticks": 3312,
          "time": 20.4950355,
          "velocity": 0.09448818897637795
        },
        {
          "duration": 0.14851475000000036,
          "durationTicks": 24,
          "midi": 59,
          "name": "B3",
          "ticks": 3336,
          "time": 20.64355025,
          "velocity": 1
        },
        {
          "duration": 0.14851475000000036,
          "durationTicks": 24,
          "midi": 54,
          "name": "F#3",
          "ticks": 3360,
          "time": 20.792065,
          "velocity": 1
        },
        {
          "duration": 0.14851475000000036,
          "durationTicks": 24,
          "midi": 49,
          "name": "C#3",
          "ticks": 3384,
          "time": 20.94057975,
          "velocity": 1
        },
        {
          "duration": 0.14851475000000036,
          "durationTicks": 24,
          "midi": 59,
          "name": "B3",
          "ticks": 3408,
          "time": 21.0890945,
          "velocity": 0.09448818897637795
        },
        {
          "duration": 0.29702949999999717,
          "durationTicks": 48,
          "midi": 44,
          "name": "G#2",
          "ticks": 3432,
          "time": 21.237609250000002,
          "velocity": 1
        },
        {
          "duration": 0.14851475000000036,
          "durationTicks": 24,
          "midi": 47,
          "name": "B2",
          "ticks": 3480,
          "time": 21.53463875,
          "velocity": 1
        },
        {
          "duration": 0.14851475000000036,
          "durationTicks": 24,
          "midi": 49,
          "name": "C#3",
          "ticks": 3504,
          "time": 21.6831535,
          "velocity": 1
        },
        {
          "duration": 0.14851475000000036,
          "durationTicks": 24,
          "midi": 44,
          "name": "G#2",
          "ticks": 3528,
          "time": 21.83166825,
          "velocity": 0.09448818897637795
        },
        {
          "duration": 0.2970295000000007,
          "durationTicks": 48,
          "midi": 44,
          "name": "G#2",
          "ticks": 3552,
          "time": 21.980183,
          "velocity": 1
        },
        {
          "duration": 0.2970295000000007,
          "durationTicks": 48,
          "midi": 56,
          "name": "G#3",
          "ticks": 3600,
          "time": 22.2772125,
          "velocity": 1
        },
        {
          "duration": 0.29702949999999717,
          "durationTicks": 48,
          "midi": 44,
          "name": "G#2",
          "ticks": 3648,
          "time": 22.574242,
          "velocity": 1
        },
        {
          "duration": 0.14851475000000391,
          "durationTicks": 24,
          "midi": 44,
          "name": "G#2",
          "ticks": 3696,
          "time": 22.8712715,
          "velocity": 1
        },
        {
          "duration": 0.29702949999999717,
          "durationTicks": 48,
          "midi": 47,
          "name": "B2",
          "ticks": 3720,
          "time": 23.019786250000003,
          "velocity": 1
        },
        {
          "duration": 0.2970295000000007,
          "durationTicks": 48,
          "midi": 44,
          "name": "G#2",
          "ticks": 3768,
          "time": 23.31681575,
          "velocity": 0.09448818897637795
        },
        {
          "duration": 0.14851475000000036,
          "durationTicks": 24,
          "midi": 49,
          "name": "C#3",
          "ticks": 3864,
          "time": 23.91087475,
          "velocity": 1
        },
        {
          "duration": 0.14851475000000036,
          "durationTicks": 24,
          "midi": 44,
          "name": "G#2",
          "ticks": 3888,
          "time": 24.0593895,
          "velocity": 0.047244094488188976
        },
        {
          "duration": 0.29702949999999717,
          "durationTicks": 48,
          "midi": 47,
          "name": "B2",
          "ticks": 3912,
          "time": 24.207904250000002,
          "velocity": 1
        },
        {
          "duration": 0.2970295000000007,
          "durationTicks": 48,
          "midi": 44,
          "name": "G#2",
          "ticks": 3960,
          "time": 24.50493375,
          "velocity": 1
        },
        {
          "duration": 0.14851475000000036,
          "durationTicks": 24,
          "midi": 56,
          "name": "G#3",
          "ticks": 4008,
          "time": 24.80196325,
          "velocity": 1
        },
        {
          "duration": 0.14851475000000036,
          "durationTicks": 24,
          "midi": 47,
          "name": "B2",
          "ticks": 4032,
          "time": 24.950478,
          "velocity": 0.09448818897637795
        },
        {
          "duration": 0.14851475000000036,
          "durationTicks": 24,
          "midi": 59,
          "name": "B3",
          "ticks": 4056,
          "time": 25.09899275,
          "velocity": 1
        },
        {
          "duration": 0.14851475000000036,
          "durationTicks": 24,
          "midi": 54,
          "name": "F#3",
          "ticks": 4080,
          "time": 25.2475075,
          "velocity": 1
        },
        {
          "duration": 0.2970295000000007,
          "durationTicks": 48,
          "midi": 49,
          "name": "C#3",
          "ticks": 4104,
          "time": 25.39602225,
          "velocity": 1
        },
        {
          "duration": 0.2970295000000007,
          "durationTicks": 48,
          "midi": 44,
          "name": "G#2",
          "ticks": 4152,
          "time": 25.693051750000002,
          "velocity": 1
        },
        {
          "duration": 0.1485147499999968,
          "durationTicks": 24,
          "midi": 47,
          "name": "B2",
          "ticks": 4200,
          "time": 25.990081250000003,
          "velocity": 1
        },
        {
          "duration": 0.14851475000000036,
          "durationTicks": 24,
          "midi": 49,
          "name": "C#3",
          "ticks": 4224,
          "time": 26.138596,
          "velocity": 1
        },
        {
          "duration": 0.14851475000000036,
          "durationTicks": 24,
          "midi": 44,
          "name": "G#2",
          "ticks": 4248,
          "time": 26.28711075,
          "velocity": 0.09448818897637795
        },
        {
          "duration": 0.2970295000000007,
          "durationTicks": 48,
          "midi": 44,
          "name": "G#2",
          "ticks": 4272,
          "time": 26.4356255,
          "velocity": 1
        },
        {
          "duration": 0.2970295000000007,
          "durationTicks": 48,
          "midi": 56,
          "name": "G#3",
          "ticks": 4320,
          "time": 26.732655,
          "velocity": 1
        },
        {
          "duration": 0.2970295000000007,
          "durationTicks": 48,
          "midi": 44,
          "name": "G#2",
          "ticks": 4368,
          "time": 27.029684500000002,
          "velocity": 1
        },
        {
          "duration": 0.1485147499999968,
          "durationTicks": 24,
          "midi": 47,
          "name": "B2",
          "ticks": 4416,
          "time": 27.326714000000003,
          "velocity": 1
        },
        {
          "duration": 0.2970295000000007,
          "durationTicks": 48,
          "midi": 49,
          "name": "C#3",
          "ticks": 4440,
          "time": 27.47522875,
          "velocity": 1
        },
        {
          "duration": 0.2970295000000007,
          "durationTicks": 48,
          "midi": 44,
          "name": "G#2",
          "ticks": 4488,
          "time": 27.77225825,
          "velocity": 0.09448818897637795
        },
        {
          "duration": 0.2970295000000007,
          "durationTicks": 48,
          "midi": 49,
          "name": "C#3",
          "ticks": 4584,
          "time": 28.36631725,
          "velocity": 1
        },
        {
          "duration": 0.2970295000000007,
          "durationTicks": 48,
          "midi": 47,
          "name": "B2",
          "ticks": 4632,
          "time": 28.663346750000002,
          "velocity": 1
        },
        {
          "duration": 0.29702949999999717,
          "durationTicks": 48,
          "midi": 44,
          "name": "G#2",
          "ticks": 4680,
          "time": 28.960376250000003,
          "velocity": 1
        },
        {
          "duration": 0.14851475000000036,
          "durationTicks": 24,
          "midi": 56,
          "name": "G#3",
          "ticks": 4728,
          "time": 29.25740575,
          "velocity": 1
        },
        {
          "duration": 0.14851475000000036,
          "durationTicks": 24,
          "midi": 47,
          "name": "B2",
          "ticks": 4752,
          "time": 29.4059205,
          "velocity": 0.09448818897637795
        },
        {
          "duration": 0.14851475000000036,
          "durationTicks": 24,
          "midi": 59,
          "name": "B3",
          "ticks": 4776,
          "time": 29.55443525,
          "velocity": 1
        },
        {
          "duration": 0.14851475000000036,
          "durationTicks": 24,
          "midi": 54,
          "name": "F#3",
          "ticks": 4800,
          "time": 29.70295,
          "velocity": 1
        },
        {
          "duration": 0.14851475000000036,
          "durationTicks": 24,
          "midi": 49,
          "name": "C#3",
          "ticks": 4824,
          "time": 29.85146475,
          "velocity": 1
        },
        {
          "duration": 0.1485147499999968,
          "durationTicks": 24,
          "midi": 59,
          "name": "B3",
          "ticks": 4848,
          "time": 29.999979500000002,
          "velocity": 0.09448818897637795
        },
        {
          "duration": 0.2970295000000007,
          "durationTicks": 48,
          "midi": 44,
          "name": "G#2",
          "ticks": 4872,
          "time": 30.14849425,
          "velocity": 1
        },
        {
          "duration": 0.14851475000000391,
          "durationTicks": 24,
          "midi": 47,
          "name": "B2",
          "ticks": 4920,
          "time": 30.44552375,
          "velocity": 1
        },
        {
          "duration": 0.1485147499999968,
          "durationTicks": 24,
          "midi": 49,
          "name": "C#3",
          "ticks": 4944,
          "time": 30.594038500000003,
          "velocity": 1
        },
        {
          "duration": 0.14851475000000036,
          "durationTicks": 24,
          "midi": 44,
          "name": "G#2",
          "ticks": 4968,
          "time": 30.74255325,
          "velocity": 0.09448818897637795
        },
        {
          "duration": 0.2970295000000007,
          "durationTicks": 48,
          "midi": 44,
          "name": "G#2",
          "ticks": 4992,
          "time": 30.891068,
          "velocity": 1
        },
        {
          "duration": 0.29702949999999717,
          "durationTicks": 48,
          "midi": 56,
          "name": "G#3",
          "ticks": 5040,
          "time": 31.1880975,
          "velocity": 1
        },
        {
          "duration": 0.2970295000000007,
          "durationTicks": 48,
          "midi": 44,
          "name": "G#2",
          "ticks": 5088,
          "time": 31.485127,
          "velocity": 1
        },
        {
          "duration": 0.14851475000000391,
          "durationTicks": 24,
          "midi": 44,
          "name": "G#2",
          "ticks": 5136,
          "time": 31.7821565,
          "velocity": 1
        },
        {
          "duration": 0.2970294999999936,
          "durationTicks": 48,
          "midi": 47,
          "name": "B2",
          "ticks": 5160,
          "time": 31.930671250000003,
          "velocity": 1
        },
        {
          "duration": 0.29702950000000783,
          "durationTicks": 48,
          "midi": 44,
          "name": "G#2",
          "ticks": 5208,
          "time": 32.22770075,
          "velocity": 0.09448818897637795
        },
        {
          "duration": 0.14851475000000391,
          "durationTicks": 24,
          "midi": 49,
          "name": "C#3",
          "ticks": 5304,
          "time": 32.82175975,
          "velocity": 1
        },
        {
          "duration": 0.1485147499999968,
          "durationTicks": 24,
          "midi": 44,
          "name": "G#2",
          "ticks": 5328,
          "time": 32.9702745,
          "velocity": 0.047244094488188976
        },
        {
          "duration": 0.2970295000000007,
          "durationTicks": 48,
          "midi": 47,
          "name": "B2",
          "ticks": 5352,
          "time": 33.11878925,
          "velocity": 1
        },
        {
          "duration": 0.2970295000000007,
          "durationTicks": 48,
          "midi": 44,
          "name": "G#2",
          "ticks": 5400,
          "time": 33.41581875,
          "velocity": 1
        },
        {
          "duration": 0.1485147499999968,
          "durationTicks": 24,
          "midi": 56,
          "name": "G#3",
          "ticks": 5448,
          "time": 33.71284825,
          "velocity": 1
        },
        {
          "duration": 0.14851475000000391,
          "durationTicks": 24,
          "midi": 47,
          "name": "B2",
          "ticks": 5472,
          "time": 33.861363,
          "velocity": 0.09448818897637795
        },
        {
          "duration": 0.14851475000000391,
          "durationTicks": 24,
          "midi": 59,
          "name": "B3",
          "ticks": 5496,
          "time": 34.00987775,
          "velocity": 1
        },
        {
          "duration": 0.1485147499999968,
          "durationTicks": 24,
          "midi": 54,
          "name": "F#3",
          "ticks": 5520,
          "time": 34.158392500000005,
          "velocity": 1
        },
        {
          "duration": 0.2970295000000007,
          "durationTicks": 48,
          "midi": 49,
          "name": "C#3",
          "ticks": 5544,
          "time": 34.30690725,
          "velocity": 1
        },
        {
          "duration": 0.2970294999999936,
          "durationTicks": 48,
          "midi": 44,
          "name": "G#2",
          "ticks": 5592,
          "time": 34.60393675,
          "velocity": 1
        },
        {
          "duration": 0.14851475000000391,
          "durationTicks": 24,
          "midi": 47,
          "name": "B2",
          "ticks": 5640,
          "time": 34.900966249999996,
          "velocity": 1
        },
        {
          "duration": 0.14851475000000391,
          "durationTicks": 24,
          "midi": 49,
          "name": "C#3",
          "ticks": 5664,
          "time": 35.049481,
          "velocity": 1
        },
        {
          "duration": 0.1485147499999968,
          "durationTicks": 24,
          "midi": 44,
          "name": "G#2",
          "ticks": 5688,
          "time": 35.197995750000004,
          "velocity": 0.09448818897637795
        },
        {
          "duration": 0.2970295000000007,
          "durationTicks": 48,
          "midi": 44,
          "name": "G#2",
          "ticks": 5712,
          "time": 35.3465105,
          "velocity": 1
        },
        {
          "duration": 0.2970295000000007,
          "durationTicks": 48,
          "midi": 56,
          "name": "G#3",
          "ticks": 5760,
          "time": 35.64354,
          "velocity": 1
        },
        {
          "duration": 0.2970295000000007,
          "durationTicks": 48,
          "midi": 44,
          "name": "G#2",
          "ticks": 5808,
          "time": 35.9405695,
          "velocity": 1
        },
        {
          "duration": 0.1485147499999968,
          "durationTicks": 24,
          "midi": 47,
          "name": "B2",
          "ticks": 5856,
          "time": 36.237599,
          "velocity": 1
        },
        {
          "duration": 0.2970295000000007,
          "durationTicks": 48,
          "midi": 49,
          "name": "C#3",
          "ticks": 5880,
          "time": 36.38611375,
          "velocity": 1
        },
        {
          "duration": 0.2970295000000007,
          "durationTicks": 48,
          "midi": 44,
          "name": "G#2",
          "ticks": 5928,
          "time": 36.68314325,
          "velocity": 0.09448818897637795
        },
        {
          "duration": 0.2970294999999936,
          "durationTicks": 48,
          "midi": 49,
          "name": "C#3",
          "ticks": 6024,
          "time": 37.27720225,
          "velocity": 1
        },
        {
          "duration": 0.29702950000000783,
          "durationTicks": 48,
          "midi": 47,
          "name": "B2",
          "ticks": 6072,
          "time": 37.574231749999996,
          "velocity": 1
        },
        {
          "duration": 0.2970294999999936,
          "durationTicks": 48,
          "midi": 44,
          "name": "G#2",
          "ticks": 6120,
          "time": 37.87126125,
          "velocity": 1
        },
        {
          "duration": 0.14851475000000391,
          "durationTicks": 24,
          "midi": 56,
          "name": "G#3",
          "ticks": 6168,
          "time": 38.16829075,
          "velocity": 1
        },
        {
          "duration": 0.14851475000000391,
          "durationTicks": 24,
          "midi": 47,
          "name": "B2",
          "ticks": 6192,
          "time": 38.3168055,
          "velocity": 0.09448818897637795
        },
        {
          "duration": 0.1485147499999968,
          "durationTicks": 24,
          "midi": 59,
          "name": "B3",
          "ticks": 6216,
          "time": 38.465320250000005,
          "velocity": 1
        },
        {
          "duration": 0.1485147499999968,
          "durationTicks": 24,
          "midi": 54,
          "name": "F#3",
          "ticks": 6240,
          "time": 38.613835,
          "velocity": 1
        },
        {
          "duration": 0.14851475000000391,
          "durationTicks": 24,
          "midi": 49,
          "name": "C#3",
          "ticks": 6264,
          "time": 38.76234975,
          "velocity": 1
        },
        {
          "duration": 0.1485147499999968,
          "durationTicks": 24,
          "midi": 59,
          "name": "B3",
          "ticks": 6288,
          "time": 38.9108645,
          "velocity": 0.09448818897637795
        },
        {
          "duration": 0.2970295000000007,
          "durationTicks": 48,
          "midi": 44,
          "name": "G#2",
          "ticks": 6312,
          "time": 39.05937925,
          "velocity": 1
        },
        {
          "duration": 0.14851475000000391,
          "durationTicks": 24,
          "midi": 47,
          "name": "B2",
          "ticks": 6360,
          "time": 39.35640875,
          "velocity": 1
        },
        {
          "duration": 0.1485147499999968,
          "durationTicks": 24,
          "midi": 49,
          "name": "C#3",
          "ticks": 6384,
          "time": 39.504923500000004,
          "velocity": 1
        },
        {
          "duration": 0.1485147499999968,
          "durationTicks": 24,
          "midi": 44,
          "name": "G#2",
          "ticks": 6408,
          "time": 39.65343825,
          "velocity": 0.09448818897637795
        },
        {
          "duration": 0.29702950000000783,
          "durationTicks": 48,
          "midi": 44,
          "name": "G#2",
          "ticks": 6432,
          "time": 39.801953,
          "velocity": 1
        },
        {
          "duration": 0.2970294999999936,
          "durationTicks": 48,
          "midi": 56,
          "name": "G#3",
          "ticks": 6480,
          "time": 40.098982500000005,
          "velocity": 1
        },
        {
          "duration": 0.2970295000000007,
          "durationTicks": 48,
          "midi": 44,
          "name": "G#2",
          "ticks": 6528,
          "time": 40.396012,
          "velocity": 1
        },
        {
          "duration": 0.1485147499999968,
          "durationTicks": 24,
          "midi": 44,
          "name": "G#2",
          "ticks": 6576,
          "time": 40.6930415,
          "velocity": 1
        },
        {
          "duration": 0.29702950000000783,
          "durationTicks": 48,
          "midi": 47,
          "name": "B2",
          "ticks": 6600,
          "time": 40.84155625,
          "velocity": 1
        },
        {
          "duration": 0.2970294999999936,
          "durationTicks": 48,
          "midi": 44,
          "name": "G#2",
          "ticks": 6648,
          "time": 41.138585750000004,
          "velocity": 0.09448818897637795
        },
        {
          "duration": 0.1485147499999968,
          "durationTicks": 24,
          "midi": 49,
          "name": "C#3",
          "ticks": 6744,
          "time": 41.732644750000006,
          "velocity": 1
        },
        {
          "duration": 0.1485147499999968,
          "durationTicks": 24,
          "midi": 44,
          "name": "G#2",
          "ticks": 6768,
          "time": 41.8811595,
          "velocity": 0.047244094488188976
        },
        {
          "duration": 0.2970295000000007,
          "durationTicks": 48,
          "midi": 47,
          "name": "B2",
          "ticks": 6792,
          "time": 42.02967425,
          "velocity": 1
        },
        {
          "duration": 0.2970295000000007,
          "durationTicks": 48,
          "midi": 44,
          "name": "G#2",
          "ticks": 6840,
          "time": 42.32670375,
          "velocity": 1
        },
        {
          "duration": 0.14851475000000391,
          "durationTicks": 24,
          "midi": 56,
          "name": "G#3",
          "ticks": 6888,
          "time": 42.62373325,
          "velocity": 1
        },
        {
          "duration": 0.1485147499999968,
          "durationTicks": 24,
          "midi": 47,
          "name": "B2",
          "ticks": 6912,
          "time": 42.772248000000005,
          "velocity": 0.09448818897637795
        },
        {
          "duration": 0.1485147499999968,
          "durationTicks": 24,
          "midi": 59,
          "name": "B3",
          "ticks": 6936,
          "time": 42.92076275,
          "velocity": 1
        },
        {
          "duration": 0.14851475000000391,
          "durationTicks": 24,
          "midi": 54,
          "name": "F#3",
          "ticks": 6960,
          "time": 43.0692775,
          "velocity": 1
        },
        {
          "duration": 0.2970294999999936,
          "durationTicks": 48,
          "midi": 49,
          "name": "C#3",
          "ticks": 6984,
          "time": 43.21779225,
          "velocity": 1
        },
        {
          "duration": 0.29702950000000783,
          "durationTicks": 48,
          "midi": 44,
          "name": "G#2",
          "ticks": 7032,
          "time": 43.514821749999996,
          "velocity": 1
        },
        {
          "duration": 0.1485147499999968,
          "durationTicks": 24,
          "midi": 47,
          "name": "B2",
          "ticks": 7080,
          "time": 43.811851250000004,
          "velocity": 1
        },
        {
          "duration": 0.1485147499999968,
          "durationTicks": 24,
          "midi": 49,
          "name": "C#3",
          "ticks": 7104,
          "time": 43.960366,
          "velocity": 1
        },
        {
          "duration": 0.14851475000000391,
          "durationTicks": 24,
          "midi": 44,
          "name": "G#2",
          "ticks": 7128,
          "time": 44.10888075,
          "velocity": 0.09448818897637795
        },
        {
          "duration": 0.2970295000000007,
          "durationTicks": 48,
          "midi": 44,
          "name": "G#2",
          "ticks": 7152,
          "time": 44.2573955,
          "velocity": 1
        },
        {
          "duration": 0.2970295000000007,
          "durationTicks": 48,
          "midi": 56,
          "name": "G#3",
          "ticks": 7200,
          "time": 44.554425,
          "velocity": 1
        },
        {
          "duration": 0.2970294999999936,
          "durationTicks": 48,
          "midi": 44,
          "name": "G#2",
          "ticks": 7248,
          "time": 44.8514545,
          "velocity": 1
        },
        {
          "duration": 0.14851475000000391,
          "durationTicks": 24,
          "midi": 47,
          "name": "B2",
          "ticks": 7296,
          "time": 45.148483999999996,
          "velocity": 1
        },
        {
          "duration": 0.2970295000000007,
          "durationTicks": 48,
          "midi": 49,
          "name": "C#3",
          "ticks": 7320,
          "time": 45.29699875,
          "velocity": 1
        },
        {
          "duration": 0.2970295000000007,
          "durationTicks": 48,
          "midi": 44,
          "name": "G#2",
          "ticks": 7368,
          "time": 45.59402825,
          "velocity": 0.09448818897637795
        },
        {
          "duration": 0.2970295000000007,
          "durationTicks": 48,
          "midi": 49,
          "name": "C#3",
          "ticks": 7464,
          "time": 46.18808725,
          "velocity": 1
        },
        {
          "duration": 0.2970294999999936,
          "durationTicks": 48,
          "midi": 47,
          "name": "B2",
          "ticks": 7512,
          "time": 46.48511675,
          "velocity": 1
        },
        {
          "duration": 0.29702950000000783,
          "durationTicks": 48,
          "midi": 44,
          "name": "G#2",
          "ticks": 7560,
          "time": 46.78214625,
          "velocity": 1
        },
        {
          "duration": 0.1485147499999968,
          "durationTicks": 24,
          "midi": 56,
          "name": "G#3",
          "ticks": 7608,
          "time": 47.079175750000005,
          "velocity": 1
        },
        {
          "duration": 0.1485147499999968,
          "durationTicks": 24,
          "midi": 47,
          "name": "B2",
          "ticks": 7632,
          "time": 47.2276905,
          "velocity": 0.09448818897637795
        },
        {
          "duration": 0.14851475000000391,
          "durationTicks": 24,
          "midi": 59,
          "name": "B3",
          "ticks": 7656,
          "time": 47.37620525,
          "velocity": 1
        },
        {
          "duration": 0.14851475000000391,
          "durationTicks": 24,
          "midi": 54,
          "name": "F#3",
          "ticks": 7680,
          "time": 47.52472,
          "velocity": 1
        },
        {
          "duration": 0.1485147499999897,
          "durationTicks": 24,
          "midi": 49,
          "name": "C#3",
          "ticks": 7704,
          "time": 47.673234750000006,
          "velocity": 1
        },
        {
          "duration": 0.14851475000000391,
          "durationTicks": 24,
          "midi": 59,
          "name": "B3",
          "ticks": 7728,
          "time": 47.821749499999996,
          "velocity": 0.09448818897637795
        },
        {
          "duration": 0.2970295000000007,
          "durationTicks": 48,
          "midi": 44,
          "name": "G#2",
          "ticks": 7752,
          "time": 47.97026425,
          "velocity": 1
        },
        {
          "duration": 0.1485147499999968,
          "durationTicks": 24,
          "midi": 47,
          "name": "B2",
          "ticks": 7800,
          "time": 48.26729375,
          "velocity": 1
        },
        {
          "duration": 0.14851475000000391,
          "durationTicks": 24,
          "midi": 49,
          "name": "C#3",
          "ticks": 7824,
          "time": 48.4158085,
          "velocity": 1
        },
        {
          "duration": 0.14851475000000391,
          "durationTicks": 24,
          "midi": 44,
          "name": "G#2",
          "ticks": 7848,
          "time": 48.56432325,
          "velocity": 0.09448818897637795
        },
        {
          "duration": 0.2970294999999936,
          "durationTicks": 48,
          "midi": 44,
          "name": "G#2",
          "ticks": 7872,
          "time": 48.712838000000005,
          "velocity": 1
        },
        {
          "duration": 0.2970295000000007,
          "durationTicks": 48,
          "midi": 37,
          "name": "C#2",
          "ticks": 7920,
          "time": 49.0098675,
          "velocity": 1
        },
        {
          "duration": 0.2970295000000007,
          "durationTicks": 48,
          "midi": 49,
          "name": "C#3",
          "ticks": 7968,
          "time": 49.306897,
          "velocity": 1
        },
        {
          "duration": 0.14851475000000391,
          "durationTicks": 24,
          "midi": 37,
          "name": "C#2",
          "ticks": 8016,
          "time": 49.6039265,
          "velocity": 1
        },
        {
          "duration": 0.2970294999999936,
          "durationTicks": 48,
          "midi": 47,
          "name": "B2",
          "ticks": 8040,
          "time": 49.752441250000004,
          "velocity": 1
        },
        {
          "duration": 0.2970295000000007,
          "durationTicks": 48,
          "midi": 44,
          "name": "G#2",
          "ticks": 8088,
          "time": 50.04947075,
          "velocity": 0.09448818897637795
        },
        {
          "duration": 0.14851475000000391,
          "durationTicks": 24,
          "midi": 49,
          "name": "C#3",
          "ticks": 8184,
          "time": 50.64352975,
          "velocity": 1
        },
        {
          "duration": 0.1485147499999968,
          "durationTicks": 24,
          "midi": 44,
          "name": "G#2",
          "ticks": 8208,
          "time": 50.7920445,
          "velocity": 0.047244094488188976
        },
        {
          "duration": 0.2970295000000007,
          "durationTicks": 48,
          "midi": 47,
          "name": "B2",
          "ticks": 8232,
          "time": 50.94055925,
          "velocity": 1
        },
        {
          "duration": 0.2970295000000007,
          "durationTicks": 48,
          "midi": 44,
          "name": "G#2",
          "ticks": 8280,
          "time": 51.23758875,
          "velocity": 1
        },
        {
          "duration": 0.1485147499999968,
          "durationTicks": 24,
          "midi": 56,
          "name": "G#3",
          "ticks": 8328,
          "time": 51.53461825,
          "velocity": 1
        },
        {
          "duration": 0.14851475000000391,
          "durationTicks": 24,
          "midi": 47,
          "name": "B2",
          "ticks": 8352,
          "time": 51.683133,
          "velocity": 0.09448818897637795
        },
        {
          "duration": 0.1485147499999968,
          "durationTicks": 24,
          "midi": 59,
          "name": "B3",
          "ticks": 8376,
          "time": 51.83164775,
          "velocity": 1
        },
        {
          "duration": 0.14851475000000391,
          "durationTicks": 24,
          "midi": 54,
          "name": "F#3",
          "ticks": 8400,
          "time": 51.9801625,
          "velocity": 1
        },
        {
          "duration": 0.2970295000000007,
          "durationTicks": 48,
          "midi": 49,
          "name": "C#3",
          "ticks": 8424,
          "time": 52.12867725,
          "velocity": 1
        },
        {
          "duration": 0.2970295000000007,
          "durationTicks": 48,
          "midi": 44,
          "name": "G#2",
          "ticks": 8472,
          "time": 52.42570675,
          "velocity": 1
        },
        {
          "duration": 0.1485147499999968,
          "durationTicks": 24,
          "midi": 47,
          "name": "B2",
          "ticks": 8520,
          "time": 52.722736250000004,
          "velocity": 1
        },
        {
          "duration": 0.1485147499999968,
          "durationTicks": 24,
          "midi": 49,
          "name": "C#3",
          "ticks": 8544,
          "time": 52.871251,
          "velocity": 1
        },
        {
          "duration": 0.14851475000000391,
          "durationTicks": 24,
          "midi": 44,
          "name": "G#2",
          "ticks": 8568,
          "time": 53.01976575,
          "velocity": 0.09448818897637795
        },
        {
          "duration": 0.2970295000000007,
          "durationTicks": 48,
          "midi": 44,
          "name": "G#2",
          "ticks": 8592,
          "time": 53.1682805,
          "velocity": 1
        },
        {
          "duration": 0.2970295000000007,
          "durationTicks": 48,
          "midi": 56,
          "name": "G#3",
          "ticks": 8640,
          "time": 53.46531,
          "velocity": 1
        },
        {
          "duration": 0.2970295000000007,
          "durationTicks": 48,
          "midi": 44,
          "name": "G#2",
          "ticks": 8688,
          "time": 53.7623395,
          "velocity": 1
        },
        {
          "duration": 0.1485147499999968,
          "durationTicks": 24,
          "midi": 47,
          "name": "B2",
          "ticks": 8736,
          "time": 54.059369000000004,
          "velocity": 1
        },
        {
          "duration": 0.2970295000000007,
          "durationTicks": 48,
          "midi": 49,
          "name": "C#3",
          "ticks": 8760,
          "time": 54.20788375,
          "velocity": 1
        },
        {
          "duration": 0.2970295000000007,
          "durationTicks": 48,
          "midi": 44,
          "name": "G#2",
          "ticks": 8808,
          "time": 54.50491325,
          "velocity": 0.09448818897637795
        },
        {
          "duration": 0.2970295000000007,
          "durationTicks": 48,
          "midi": 49,
          "name": "C#3",
          "ticks": 8904,
          "time": 55.09897225,
          "velocity": 1
        },
        {
          "duration": 0.2970295000000007,
          "durationTicks": 48,
          "midi": 47,
          "name": "B2",
          "ticks": 8952,
          "time": 55.39600175,
          "velocity": 1
        },
        {
          "duration": 0.2970294999999936,
          "durationTicks": 48,
          "midi": 44,
          "name": "G#2",
          "ticks": 9000,
          "time": 55.693031250000004,
          "velocity": 1
        },
        {
          "duration": 0.14851475000000391,
          "durationTicks": 24,
          "midi": 56,
          "name": "G#3",
          "ticks": 9048,
          "time": 55.99006075,
          "velocity": 1
        },
        {
          "duration": 0.1485147499999968,
          "durationTicks": 24,
          "midi": 47,
          "name": "B2",
          "ticks": 9072,
          "time": 56.1385755,
          "velocity": 0.09448818897637795
        },
        {
          "duration": 0.14851475000000391,
          "durationTicks": 24,
          "midi": 59,
          "name": "B3",
          "ticks": 9096,
          "time": 56.28709025,
          "velocity": 1
        },
        {
          "duration": 0.1485147499999968,
          "durationTicks": 24,
          "midi": 54,
          "name": "F#3",
          "ticks": 9120,
          "time": 56.435605,
          "velocity": 1
        },
        {
          "duration": 0.14851475000000391,
          "durationTicks": 24,
          "midi": 49,
          "name": "C#3",
          "ticks": 9144,
          "time": 56.58411975,
          "velocity": 1
        },
        {
          "duration": 0.1485147499999968,
          "durationTicks": 24,
          "midi": 59,
          "name": "B3",
          "ticks": 9168,
          "time": 56.7326345,
          "velocity": 0.09448818897637795
        },
        {
          "duration": 0.2970295000000007,
          "durationTicks": 48,
          "midi": 44,
          "name": "G#2",
          "ticks": 9192,
          "time": 56.88114925,
          "velocity": 1
        },
        {
          "duration": 0.1485147499999968,
          "durationTicks": 24,
          "midi": 47,
          "name": "B2",
          "ticks": 9240,
          "time": 57.17817875,
          "velocity": 1
        },
        {
          "duration": 0.14851475000000391,
          "durationTicks": 24,
          "midi": 49,
          "name": "C#3",
          "ticks": 9264,
          "time": 57.3266935,
          "velocity": 1
        },
        {
          "duration": 0.1485147499999968,
          "durationTicks": 24,
          "midi": 44,
          "name": "G#2",
          "ticks": 9288,
          "time": 57.47520825,
          "velocity": 0.09448818897637795
        },
        {
          "duration": 0.2970295000000007,
          "durationTicks": 48,
          "midi": 44,
          "name": "G#2",
          "ticks": 9312,
          "time": 57.623723,
          "velocity": 1
        },
        {
          "duration": 0.2970295000000007,
          "durationTicks": 48,
          "midi": 37,
          "name": "C#2",
          "ticks": 9360,
          "time": 57.9207525,
          "velocity": 1
        },
        {
          "duration": 0.2970295000000007,
          "durationTicks": 48,
          "midi": 49,
          "name": "C#3",
          "ticks": 9408,
          "time": 58.217782,
          "velocity": 1
        },
        {
          "duration": 0.14851475000000391,
          "durationTicks": 24,
          "midi": 37,
          "name": "C#2",
          "ticks": 9456,
          "time": 58.5148115,
          "velocity": 1
        },
        {
          "duration": 0.2970294999999936,
          "durationTicks": 48,
          "midi": 47,
          "name": "B2",
          "ticks": 9480,
          "time": 58.663326250000004,
          "velocity": 1
        },
        {
          "duration": 0.2970295000000007,
          "durationTicks": 48,
          "midi": 44,
          "name": "G#2",
          "ticks": 9528,
          "time": 58.96035575,
          "velocity": 0.09448818897637795
        },
        {
          "duration": 0.14851475000000391,
          "durationTicks": 24,
          "midi": 49,
          "name": "C#3",
          "ticks": 9624,
          "time": 59.55441475,
          "velocity": 1
        },
        {
          "duration": 0.1485147499999968,
          "durationTicks": 24,
          "midi": 44,
          "name": "G#2",
          "ticks": 9648,
          "time": 59.7029295,
          "velocity": 0.047244094488188976
        },
        {
          "duration": 0.2970295000000007,
          "durationTicks": 48,
          "midi": 47,
          "name": "B2",
          "ticks": 9672,
          "time": 59.85144425,
          "velocity": 1
        },
        {
          "duration": 0.2970295000000007,
          "durationTicks": 48,
          "midi": 47,
          "name": "B2",
          "ticks": 9720,
          "time": 60.14847375,
          "velocity": 1
        },
        {
          "duration": 0.1485147499999968,
          "durationTicks": 24,
          "midi": 59,
          "name": "B3",
          "ticks": 9768,
          "time": 60.44550325,
          "velocity": 1
        },
        {
          "duration": 0.14851475000000391,
          "durationTicks": 24,
          "midi": 47,
          "name": "B2",
          "ticks": 9792,
          "time": 60.594018,
          "velocity": 0.09448818897637795
        },
        {
          "duration": 0.1485147499999968,
          "durationTicks": 24,
          "midi": 59,
          "name": "B3",
          "ticks": 9816,
          "time": 60.74253275,
          "velocity": 1
        },
        {
          "duration": 0.14851475000000391,
          "durationTicks": 24,
          "midi": 54,
          "name": "F#3",
          "ticks": 9840,
          "time": 60.8910475,
          "velocity": 1
        },
        {
          "duration": 0.2970295000000007,
          "durationTicks": 48,
          "midi": 49,
          "name": "C#3",
          "ticks": 9864,
          "time": 61.03956225,
          "velocity": 1
        },
        {
          "duration": 0.2970295000000007,
          "durationTicks": 48,
          "midi": 44,
          "name": "G#2",
          "ticks": 9912,
          "time": 61.336591750000004,
          "velocity": 1
        },
        {
          "duration": 0.1485147499999968,
          "durationTicks": 24,
          "midi": 47,
          "name": "B2",
          "ticks": 9960,
          "time": 61.633621250000004,
          "velocity": 1
        },
        {
          "duration": 0.1485147499999968,
          "durationTicks": 24,
          "midi": 49,
          "name": "C#3",
          "ticks": 9984,
          "time": 61.782136,
          "velocity": 1
        },
        {
          "duration": 0.14851475000000391,
          "durationTicks": 24,
          "midi": 44,
          "name": "G#2",
          "ticks": 10008,
          "time": 61.93065075,
          "velocity": 0.09448818897637795
        },
        {
          "duration": 0.2970295000000007,
          "durationTicks": 48,
          "midi": 44,
          "name": "G#2",
          "ticks": 10032,
          "time": 62.0791655,
          "velocity": 1
        },
        {
          "duration": 0.2970295000000007,
          "durationTicks": 48,
          "midi": 56,
          "name": "G#3",
          "ticks": 10080,
          "time": 62.376195,
          "velocity": 1
        },
        {
          "duration": 0.2970295000000007,
          "durationTicks": 48,
          "midi": 44,
          "name": "G#2",
          "ticks": 10128,
          "time": 62.6732245,
          "velocity": 1
        },
        {
          "duration": 0.1485147499999968,
          "durationTicks": 24,
          "midi": 47,
          "name": "B2",
          "ticks": 10176,
          "time": 62.970254000000004,
          "velocity": 1
        },
        {
          "duration": 0.2970295000000007,
          "durationTicks": 48,
          "midi": 49,
          "name": "C#3",
          "ticks": 10200,
          "time": 63.11876875,
          "velocity": 1
        },
        {
          "duration": 0.2970295000000007,
          "durationTicks": 48,
          "midi": 44,
          "name": "G#2",
          "ticks": 10248,
          "time": 63.41579825,
          "velocity": 0.09448818897637795
        },
        {
          "duration": 0.2970294999999936,
          "durationTicks": 48,
          "midi": 49,
          "name": "C#3",
          "ticks": 10344,
          "time": 64.00985725000001,
          "velocity": 1
        },
        {
          "duration": 0.2970294999999936,
          "durationTicks": 48,
          "midi": 47,
          "name": "B2",
          "ticks": 10392,
          "time": 64.30688675,
          "velocity": 1
        },
        {
          "duration": 0.29702950000000783,
          "durationTicks": 48,
          "midi": 59,
          "name": "B3",
          "ticks": 10440,
          "time": 64.60391625,
          "velocity": 1
        },
        {
          "duration": 0.2970294999999936,
          "durationTicks": 48,
          "midi": 56,
          "name": "G#3",
          "ticks": 10488,
          "time": 64.90094575,
          "velocity": 1
        },
        {
          "duration": 0.14851475000000391,
          "durationTicks": 24,
          "midi": 47,
          "name": "B2",
          "ticks": 10536,
          "time": 65.19797525,
          "velocity": 1
        },
        {
          "duration": 0.2970294999999936,
          "durationTicks": 48,
          "midi": 49,
          "name": "C#3",
          "ticks": 10560,
          "time": 65.34649,
          "velocity": 1
        },
        {
          "duration": 0.29702950000000783,
          "durationTicks": 48,
          "midi": 56,
          "name": "G#3",
          "ticks": 10608,
          "time": 65.6435195,
          "velocity": 0.09448818897637795
        },
        {
          "duration": 0.2970294999999936,
          "durationTicks": 48,
          "midi": 49,
          "name": "C#3",
          "ticks": 10704,
          "time": 66.2375785,
          "velocity": 1
        },
        {
          "duration": 0.29702950000000783,
          "durationTicks": 48,
          "midi": 47,
          "name": "B2",
          "ticks": 10752,
          "time": 66.53460799999999,
          "velocity": 1
        },
        {
          "duration": 0.29702950000000783,
          "durationTicks": 48,
          "midi": 37,
          "name": "C#2",
          "ticks": 10800,
          "time": 66.8316375,
          "velocity": 1
        },
        {
          "duration": 0.2970294999999936,
          "durationTicks": 48,
          "midi": 49,
          "name": "C#3",
          "ticks": 10848,
          "time": 67.12866700000001,
          "velocity": 1
        },
        {
          "duration": 0.1485147499999897,
          "durationTicks": 24,
          "midi": 37,
          "name": "C#2",
          "ticks": 10896,
          "time": 67.4256965,
          "velocity": 1
        },
        {
          "duration": 0.29702950000000783,
          "durationTicks": 48,
          "midi": 47,
          "name": "B2",
          "ticks": 10920,
          "time": 67.57421124999999,
          "velocity": 1
        },
        {
          "duration": 0.29702950000000783,
          "durationTicks": 48,
          "midi": 44,
          "name": "G#2",
          "ticks": 10968,
          "time": 67.87124075,
          "velocity": 0.09448818897637795
        },
        {
          "duration": 0.14851475000000391,
          "durationTicks": 24,
          "midi": 49,
          "name": "C#3",
          "ticks": 11064,
          "time": 68.46529975,
          "velocity": 1
        },
        {
          "duration": 0.1485147499999897,
          "durationTicks": 24,
          "midi": 44,
          "name": "G#2",
          "ticks": 11088,
          "time": 68.6138145,
          "velocity": 0.047244094488188976
        },
        {
          "duration": 0.29702950000000783,
          "durationTicks": 48,
          "midi": 47,
          "name": "B2",
          "ticks": 11112,
          "time": 68.76232925,
          "velocity": 1
        },
        {
          "duration": 0.29702950000000783,
          "durationTicks": 48,
          "midi": 47,
          "name": "B2",
          "ticks": 11160,
          "time": 69.05935875,
          "velocity": 1
        },
        {
          "duration": 0.1485147499999897,
          "durationTicks": 24,
          "midi": 59,
          "name": "B3",
          "ticks": 11208,
          "time": 69.35638825000001,
          "velocity": 1
        },
        {
          "duration": 0.14851475000000391,
          "durationTicks": 24,
          "midi": 47,
          "name": "B2",
          "ticks": 11232,
          "time": 69.504903,
          "velocity": 0.09448818897637795
        },
        {
          "duration": 0.1485147499999897,
          "durationTicks": 24,
          "midi": 59,
          "name": "B3",
          "ticks": 11256,
          "time": 69.65341775,
          "velocity": 1
        },
        {
          "duration": 0.14851475000000391,
          "durationTicks": 24,
          "midi": 54,
          "name": "F#3",
          "ticks": 11280,
          "time": 69.80193249999999,
          "velocity": 1
        },
        {
          "duration": 0.29702950000000783,
          "durationTicks": 48,
          "midi": 49,
          "name": "C#3",
          "ticks": 11304,
          "time": 69.95044725,
          "velocity": 1
        },
        {
          "duration": 0.2970294999999936,
          "durationTicks": 48,
          "midi": 44,
          "name": "G#2",
          "ticks": 11352,
          "time": 70.24747675,
          "velocity": 1
        },
        {
          "duration": 0.14851475000000391,
          "durationTicks": 24,
          "midi": 47,
          "name": "B2",
          "ticks": 11400,
          "time": 70.54450625,
          "velocity": 1
        },
        {
          "duration": 0.1485147499999897,
          "durationTicks": 24,
          "midi": 49,
          "name": "C#3",
          "ticks": 11424,
          "time": 70.693021,
          "velocity": 1
        },
        {
          "duration": 0.14851475000000391,
          "durationTicks": 24,
          "midi": 44,
          "name": "G#2",
          "ticks": 11448,
          "time": 70.84153574999999,
          "velocity": 0.09448818897637795
        },
        {
          "duration": 0.29702950000000783,
          "durationTicks": 48,
          "midi": 44,
          "name": "G#2",
          "ticks": 11472,
          "time": 70.9900505,
          "velocity": 1
        },
        {
          "duration": 0.29702950000000783,
          "durationTicks": 48,
          "midi": 56,
          "name": "G#3",
          "ticks": 11520,
          "time": 71.28708,
          "velocity": 1
        },
        {
          "duration": 0.2970294999999936,
          "durationTicks": 48,
          "midi": 44,
          "name": "G#2",
          "ticks": 11568,
          "time": 71.58410950000001,
          "velocity": 1
        },
        {
          "duration": 0.1485147499999897,
          "durationTicks": 24,
          "midi": 47,
          "name": "B2",
          "ticks": 11616,
          "time": 71.881139,
          "velocity": 1
        },
        {
          "duration": 0.29702950000000783,
          "durationTicks": 48,
          "midi": 49,
          "name": "C#3",
          "ticks": 11640,
          "time": 72.02965375,
          "velocity": 1
        },
        {
          "duration": 0.29702950000000783,
          "durationTicks": 48,
          "midi": 44,
          "name": "G#2",
          "ticks": 11688,
          "time": 72.32668325,
          "velocity": 0.09448818897637795
        },
        {
          "duration": 0.2970294999999936,
          "durationTicks": 48,
          "midi": 49,
          "name": "C#3",
          "ticks": 11784,
          "time": 72.92074225,
          "velocity": 1
        },
        {
          "duration": 0.29702950000000783,
          "durationTicks": 48,
          "midi": 47,
          "name": "B2",
          "ticks": 11832,
          "time": 73.21777175,
          "velocity": 1
        },
        {
          "duration": 0.2970294999999936,
          "durationTicks": 48,
          "midi": 59,
          "name": "B3",
          "ticks": 11880,
          "time": 73.51480125,
          "velocity": 1
        },
        {
          "duration": 0.2970294999999936,
          "durationTicks": 48,
          "midi": 56,
          "name": "G#3",
          "ticks": 11928,
          "time": 73.81183075,
          "velocity": 1
        },
        {
          "duration": 0.14851475000000391,
          "durationTicks": 24,
          "midi": 47,
          "name": "B2",
          "ticks": 11976,
          "time": 74.10886024999999,
          "velocity": 1
        },
        {
          "duration": 0.29702950000000783,
          "durationTicks": 48,
          "midi": 49,
          "name": "C#3",
          "ticks": 12000,
          "time": 74.257375,
          "velocity": 1
        },
        {
          "duration": 0.2970294999999936,
          "durationTicks": 48,
          "midi": 56,
          "name": "G#3",
          "ticks": 12048,
          "time": 74.5544045,
          "velocity": 0.09448818897637795
        },
        {
          "duration": 0.29702950000000783,
          "durationTicks": 48,
          "midi": 49,
          "name": "C#3",
          "ticks": 12144,
          "time": 75.14846349999999,
          "velocity": 1
        },
        {
          "duration": 0.29702950000000783,
          "durationTicks": 48,
          "midi": 47,
          "name": "B2",
          "ticks": 12192,
          "time": 75.445493,
          "velocity": 1
        },
        {
          "duration": 0.2970294999999936,
          "durationTicks": 48,
          "midi": 37,
          "name": "C#2",
          "ticks": 12240,
          "time": 75.7425225,
          "velocity": 1
        },
        {
          "duration": 0.2970294999999936,
          "durationTicks": 48,
          "midi": 49,
          "name": "C#3",
          "ticks": 12288,
          "time": 76.039552,
          "velocity": 1
        },
        {
          "duration": 0.14851475000000391,
          "durationTicks": 24,
          "midi": 37,
          "name": "C#2",
          "ticks": 12336,
          "time": 76.3365815,
          "velocity": 1
        },
        {
          "duration": 0.29702950000000783,
          "durationTicks": 48,
          "midi": 47,
          "name": "B2",
          "ticks": 12360,
          "time": 76.48509625,
          "velocity": 1
        },
        {
          "duration": 0.2970294999999936,
          "durationTicks": 48,
          "midi": 44,
          "name": "G#2",
          "ticks": 12408,
          "time": 76.78212575,
          "velocity": 0.09448818897637795
        },
        {
          "duration": 0.14851475000000391,
          "durationTicks": 24,
          "midi": 49,
          "name": "C#3",
          "ticks": 12504,
          "time": 77.37618475,
          "velocity": 1
        },
        {
          "duration": 0.14851475000000391,
          "durationTicks": 24,
          "midi": 44,
          "name": "G#2",
          "ticks": 12528,
          "time": 77.5246995,
          "velocity": 0.047244094488188976
        },
        {
          "duration": 0.29702950000000783,
          "durationTicks": 48,
          "midi": 47,
          "name": "B2",
          "ticks": 12552,
          "time": 77.67321425,
          "velocity": 1
        },
        {
          "duration": 0.2970294999999936,
          "durationTicks": 48,
          "midi": 47,
          "name": "B2",
          "ticks": 12600,
          "time": 77.97024375000001,
          "velocity": 1
        },
        {
          "duration": 0.1485147499999897,
          "durationTicks": 24,
          "midi": 59,
          "name": "B3",
          "ticks": 12648,
          "time": 78.26727325,
          "velocity": 1
        },
        {
          "duration": 0.14851475000000391,
          "durationTicks": 24,
          "midi": 47,
          "name": "B2",
          "ticks": 12672,
          "time": 78.41578799999999,
          "velocity": 0.09448818897637795
        },
        {
          "duration": 0.14851475000000391,
          "durationTicks": 24,
          "midi": 59,
          "name": "B3",
          "ticks": 12696,
          "time": 78.56430275,
          "velocity": 1
        },
        {
          "duration": 0.14851475000000391,
          "durationTicks": 24,
          "midi": 54,
          "name": "F#3",
          "ticks": 12720,
          "time": 78.7128175,
          "velocity": 1
        },
        {
          "duration": 0.29702950000000783,
          "durationTicks": 48,
          "midi": 49,
          "name": "C#3",
          "ticks": 12744,
          "time": 78.86133225,
          "velocity": 1
        },
        {
          "duration": 0.2970294999999794,
          "durationTicks": 48,
          "midi": 44,
          "name": "G#2",
          "ticks": 12792,
          "time": 79.15836175000001,
          "velocity": 1
        },
        {
          "duration": 0.14851475000000391,
          "durationTicks": 24,
          "midi": 47,
          "name": "B2",
          "ticks": 12840,
          "time": 79.45539124999999,
          "velocity": 1
        },
        {
          "duration": 0.14851475000000391,
          "durationTicks": 24,
          "midi": 49,
          "name": "C#3",
          "ticks": 12864,
          "time": 79.603906,
          "velocity": 1
        },
        {
          "duration": 0.14851475000000391,
          "durationTicks": 24,
          "midi": 44,
          "name": "G#2",
          "ticks": 12888,
          "time": 79.75242075,
          "velocity": 0.09448818897637795
        },
        {
          "duration": 0.29702950000000783,
          "durationTicks": 48,
          "midi": 44,
          "name": "G#2",
          "ticks": 12912,
          "time": 79.9009355,
          "velocity": 1
        },
        {
          "duration": 0.2970294999999936,
          "durationTicks": 48,
          "midi": 56,
          "name": "G#3",
          "ticks": 12960,
          "time": 80.19796500000001,
          "velocity": 1
        },
        {
          "duration": 0.29702950000000783,
          "durationTicks": 48,
          "midi": 44,
          "name": "G#2",
          "ticks": 13008,
          "time": 80.4949945,
          "velocity": 1
        },
        {
          "duration": 0.14851475000000391,
          "durationTicks": 24,
          "midi": 47,
          "name": "B2",
          "ticks": 13056,
          "time": 80.79202400000001,
          "velocity": 1
        },
        {
          "duration": 0.2970294999999936,
          "durationTicks": 48,
          "midi": 49,
          "name": "C#3",
          "ticks": 13080,
          "time": 80.94053875000002,
          "velocity": 1
        },
        {
          "duration": 0.29702950000000783,
          "durationTicks": 48,
          "midi": 44,
          "name": "G#2",
          "ticks": 13128,
          "time": 81.23756825000001,
          "velocity": 0.12598425196850394
        },
        {
          "duration": 0.2970294999999936,
          "durationTicks": 48,
          "midi": 44,
          "name": "G#2",
          "ticks": 13320,
          "time": 82.42568625000001,
          "velocity": 1
        },
        {
          "duration": 0.14851475000000391,
          "durationTicks": 24,
          "midi": 56,
          "name": "G#3",
          "ticks": 13368,
          "time": 82.72271575,
          "velocity": 1
        },
        {
          "duration": 0.14851475000000391,
          "durationTicks": 24,
          "midi": 47,
          "name": "B2",
          "ticks": 13392,
          "time": 82.87123050000001,
          "velocity": 0.12598425196850394
        },
        {
          "duration": 0.1485147499999897,
          "durationTicks": 24,
          "midi": 59,
          "name": "B3",
          "ticks": 13416,
          "time": 83.01974525000001,
          "velocity": 1
        },
        {
          "duration": 0.14851475000000391,
          "durationTicks": 24,
          "midi": 54,
          "name": "F#3",
          "ticks": 13440,
          "time": 83.16826,
          "velocity": 1
        },
        {
          "duration": 0.14851475000000391,
          "durationTicks": 24,
          "midi": 49,
          "name": "C#3",
          "ticks": 13464,
          "time": 83.31677475000001,
          "velocity": 1
        },
        {
          "duration": 0.14851475000000391,
          "durationTicks": 24,
          "midi": 59,
          "name": "B3",
          "ticks": 13488,
          "time": 83.46528950000001,
          "velocity": 0.12598425196850394
        },
        {
          "duration": 0.2970294999999936,
          "durationTicks": 48,
          "midi": 44,
          "name": "G#2",
          "ticks": 13512,
          "time": 83.61380425000002,
          "velocity": 1
        },
        {
          "duration": 0.14851475000000391,
          "durationTicks": 24,
          "midi": 47,
          "name": "B2",
          "ticks": 13560,
          "time": 83.91083375000001,
          "velocity": 1
        },
        {
          "duration": 0.14851475000000391,
          "durationTicks": 24,
          "midi": 49,
          "name": "C#3",
          "ticks": 13584,
          "time": 84.05934850000001,
          "velocity": 1
        },
        {
          "duration": 0.1485147499999897,
          "durationTicks": 24,
          "midi": 44,
          "name": "G#2",
          "ticks": 13608,
          "time": 84.20786325000002,
          "velocity": 0.12598425196850394
        },
        {
          "duration": 0.29702950000000783,
          "durationTicks": 48,
          "midi": 44,
          "name": "G#2",
          "ticks": 13632,
          "time": 84.356378,
          "velocity": 1
        },
        {
          "duration": 0.2970294999999936,
          "durationTicks": 48,
          "midi": 56,
          "name": "G#3",
          "ticks": 13680,
          "time": 84.65340750000001,
          "velocity": 1
        },
        {
          "duration": 0.29702950000000783,
          "durationTicks": 48,
          "midi": 44,
          "name": "G#2",
          "ticks": 13728,
          "time": 84.95043700000001,
          "velocity": 1
        },
        {
          "duration": 0.1485147499999897,
          "durationTicks": 24,
          "midi": 44,
          "name": "G#2",
          "ticks": 13776,
          "time": 85.24746650000002,
          "velocity": 1
        },
        {
          "duration": 0.29702950000000783,
          "durationTicks": 48,
          "midi": 47,
          "name": "B2",
          "ticks": 13800,
          "time": 85.39598125,
          "velocity": 1
        },
        {
          "duration": 0.2970294999999936,
          "durationTicks": 48,
          "midi": 44,
          "name": "G#2",
          "ticks": 13848,
          "time": 85.69301075000001,
          "velocity": 0.12598425196850394
        },
        {
          "duration": 0.1485147499999897,
          "durationTicks": 24,
          "midi": 49,
          "name": "C#3",
          "ticks": 13944,
          "time": 86.28706975000001,
          "velocity": 1
        },
        {
          "duration": 0.14851475000000391,
          "durationTicks": 24,
          "midi": 44,
          "name": "G#2",
          "ticks": 13968,
          "time": 86.4355845,
          "velocity": 0.09448818897637795
        },
        {
          "duration": 0.29702950000000783,
          "durationTicks": 48,
          "midi": 47,
          "name": "B2",
          "ticks": 13992,
          "time": 86.58409925000001,
          "velocity": 1
        },
        {
          "duration": 0.2970294999999936,
          "durationTicks": 48,
          "midi": 44,
          "name": "G#2",
          "ticks": 14040,
          "time": 86.88112875000002,
          "velocity": 1
        },
        {
          "duration": 0.14851475000000391,
          "durationTicks": 24,
          "midi": 56,
          "name": "G#3",
          "ticks": 14088,
          "time": 87.17815825000001,
          "velocity": 1
        },
        {
          "duration": 0.1485147499999897,
          "durationTicks": 24,
          "midi": 47,
          "name": "B2",
          "ticks": 14112,
          "time": 87.32667300000001,
          "velocity": 0.12598425196850394
        },
        {
          "duration": 0.14851475000000391,
          "durationTicks": 24,
          "midi": 59,
          "name": "B3",
          "ticks": 14136,
          "time": 87.47518775,
          "velocity": 1
        },
        {
          "duration": 0.14851475000000391,
          "durationTicks": 24,
          "midi": 54,
          "name": "F#3",
          "ticks": 14160,
          "time": 87.62370250000001,
          "velocity": 1
        },
        {
          "duration": 0.2970294999999936,
          "durationTicks": 48,
          "midi": 49,
          "name": "C#3",
          "ticks": 14184,
          "time": 87.77221725000001,
          "velocity": 1
        },
        {
          "duration": 0.29702950000000783,
          "durationTicks": 48,
          "midi": 44,
          "name": "G#2",
          "ticks": 14232,
          "time": 88.06924675,
          "velocity": 1
        },
        {
          "duration": 0.14851475000000391,
          "durationTicks": 24,
          "midi": 47,
          "name": "B2",
          "ticks": 14280,
          "time": 88.36627625000001,
          "velocity": 1
        },
        {
          "duration": 0.1485147499999897,
          "durationTicks": 24,
          "midi": 49,
          "name": "C#3",
          "ticks": 14304,
          "time": 88.51479100000002,
          "velocity": 1
        },
        {
          "duration": 0.14851475000000391,
          "durationTicks": 24,
          "midi": 44,
          "name": "G#2",
          "ticks": 14328,
          "time": 88.66330575,
          "velocity": 0.12598425196850394
        },
        {
          "duration": 0.29702950000000783,
          "durationTicks": 48,
          "midi": 44,
          "name": "G#2",
          "ticks": 14352,
          "time": 88.81182050000001,
          "velocity": 1
        },
        {
          "duration": 0.2970294999999936,
          "durationTicks": 48,
          "midi": 56,
          "name": "G#3",
          "ticks": 14400,
          "time": 89.10885000000002,
          "velocity": 1
        },
        {
          "duration": 0.29702950000000783,
          "durationTicks": 48,
          "midi": 44,
          "name": "G#2",
          "ticks": 14448,
          "time": 89.40587950000001,
          "velocity": 1
        },
        {
          "duration": 0.14851475000000391,
          "durationTicks": 24,
          "midi": 47,
          "name": "B2",
          "ticks": 14496,
          "time": 89.70290900000002,
          "velocity": 1
        },
        {
          "duration": 0.2970294999999936,
          "durationTicks": 48,
          "midi": 49,
          "name": "C#3",
          "ticks": 14520,
          "time": 89.85142375000002,
          "velocity": 1
        },
        {
          "duration": 0.29702950000000783,
          "durationTicks": 48,
          "midi": 44,
          "name": "G#2",
          "ticks": 14568,
          "time": 90.14845325000002,
          "velocity": 0.12598425196850394
        },
        {
          "duration": 0.2970294999999936,
          "durationTicks": 48,
          "midi": 44,
          "name": "G#2",
          "ticks": 14760,
          "time": 91.33657125000002,
          "velocity": 1
        },
        {
          "duration": 0.14851475000000391,
          "durationTicks": 24,
          "midi": 56,
          "name": "G#3",
          "ticks": 14808,
          "time": 91.63360075000001,
          "velocity": 1
        },
        {
          "duration": 0.14851475000000391,
          "durationTicks": 24,
          "midi": 47,
          "name": "B2",
          "ticks": 14832,
          "time": 91.78211550000002,
          "velocity": 0.12598425196850394
        },
        {
          "duration": 0.1485147499999897,
          "durationTicks": 24,
          "midi": 59,
          "name": "B3",
          "ticks": 14856,
          "time": 91.93063025000002,
          "velocity": 1
        },
        {
          "duration": 0.14851475000000391,
          "durationTicks": 24,
          "midi": 54,
          "name": "F#3",
          "ticks": 14880,
          "time": 92.07914500000001,
          "velocity": 1
        },
        {
          "duration": 0.14851475000000391,
          "durationTicks": 24,
          "midi": 49,
          "name": "C#3",
          "ticks": 14904,
          "time": 92.22765975000002,
          "velocity": 1
        },
        {
          "duration": 0.14851475000000391,
          "durationTicks": 24,
          "midi": 59,
          "name": "B3",
          "ticks": 14928,
          "time": 92.37617450000002,
          "velocity": 0.12598425196850394
        },
        {
          "duration": 0.2970294999999936,
          "durationTicks": 48,
          "midi": 44,
          "name": "G#2",
          "ticks": 14952,
          "time": 92.52468925000002,
          "velocity": 1
        },
        {
          "duration": 0.14851475000000391,
          "durationTicks": 24,
          "midi": 47,
          "name": "B2",
          "ticks": 15000,
          "time": 92.82171875000002,
          "velocity": 1
        },
        {
          "duration": 0.14851475000000391,
          "durationTicks": 24,
          "midi": 49,
          "name": "C#3",
          "ticks": 15024,
          "time": 92.97023350000002,
          "velocity": 1
        },
        {
          "duration": 0.1485147499999897,
          "durationTicks": 24,
          "midi": 44,
          "name": "G#2",
          "ticks": 15048,
          "time": 93.11874825000002,
          "velocity": 0.12598425196850394
        },
        {
          "duration": 0.29702950000000783,
          "durationTicks": 48,
          "midi": 44,
          "name": "G#2",
          "ticks": 15072,
          "time": 93.26726300000001,
          "velocity": 1
        },
        {
          "duration": 0.2970294999999936,
          "durationTicks": 48,
          "midi": 42,
          "name": "F#2",
          "ticks": 15120,
          "time": 93.56429250000002,
          "velocity": 1
        },
        {
          "duration": 0.14851475000000391,
          "durationTicks": 24,
          "midi": 47,
          "name": "B2",
          "ticks": 15168,
          "time": 93.86132200000002,
          "velocity": 0.11023622047244094
        },
        {
          "duration": 0.2970294999999794,
          "durationTicks": 48,
          "midi": 55,
          "name": "G3",
          "ticks": 21600,
          "time": 133.66327500000003,
          "velocity": 1
        },
        {
          "duration": 0.29702950000000783,
          "durationTicks": 48,
          "midi": 43,
          "name": "G2",
          "ticks": 21648,
          "time": 133.9603045,
          "velocity": 1
        },
        {
          "duration": 0.14851475000000391,
          "durationTicks": 24,
          "midi": 46,
          "name": "A#2",
          "ticks": 21696,
          "time": 134.25733400000001,
          "velocity": 1
        },
        {
          "duration": 0.29702950000000783,
          "durationTicks": 48,
          "midi": 48,
          "name": "C3",
          "ticks": 21720,
          "time": 134.40584875000002,
          "velocity": 1
        },
        {
          "duration": 0.29702950000000783,
          "durationTicks": 48,
          "midi": 43,
          "name": "G2",
          "ticks": 21768,
          "time": 134.70287825000003,
          "velocity": 0.09448818897637795
        },
        {
          "duration": 0.29702950000000783,
          "durationTicks": 48,
          "midi": 48,
          "name": "C3",
          "ticks": 21864,
          "time": 135.29693725,
          "velocity": 1
        },
        {
          "duration": 0.29702950000000783,
          "durationTicks": 48,
          "midi": 46,
          "name": "A#2",
          "ticks": 21912,
          "time": 135.59396675000002,
          "velocity": 1
        },
        {
          "duration": 0.2970294999999794,
          "durationTicks": 48,
          "midi": 43,
          "name": "G2",
          "ticks": 21960,
          "time": 135.89099625000003,
          "velocity": 1
        },
        {
          "duration": 0.14851475000000391,
          "durationTicks": 24,
          "midi": 55,
          "name": "G3",
          "ticks": 22008,
          "time": 136.18802575,
          "velocity": 1
        },
        {
          "duration": 0.14851475000000391,
          "durationTicks": 24,
          "midi": 46,
          "name": "A#2",
          "ticks": 22032,
          "time": 136.3365405,
          "velocity": 0.09448818897637795
        },
        {
          "duration": 0.14851475000000391,
          "durationTicks": 24,
          "midi": 58,
          "name": "A#3",
          "ticks": 22056,
          "time": 136.48505525000002,
          "velocity": 1
        },
        {
          "duration": 0.14851475000000391,
          "durationTicks": 24,
          "midi": 53,
          "name": "F3",
          "ticks": 22080,
          "time": 136.63357000000002,
          "velocity": 1
        },
        {
          "duration": 0.14851475000000391,
          "durationTicks": 24,
          "midi": 48,
          "name": "C3",
          "ticks": 22104,
          "time": 136.78208475000002,
          "velocity": 1
        },
        {
          "duration": 0.14851475000000391,
          "durationTicks": 24,
          "midi": 58,
          "name": "A#3",
          "ticks": 22128,
          "time": 136.93059950000003,
          "velocity": 0.09448818897637795
        },
        {
          "duration": 0.2970294999999794,
          "durationTicks": 48,
          "midi": 43,
          "name": "G2",
          "ticks": 22152,
          "time": 137.07911425000003,
          "velocity": 1
        },
        {
          "duration": 0.14851475000000391,
          "durationTicks": 24,
          "midi": 46,
          "name": "A#2",
          "ticks": 22200,
          "time": 137.37614375,
          "velocity": 1
        },
        {
          "duration": 0.14851475000000391,
          "durationTicks": 24,
          "midi": 48,
          "name": "C3",
          "ticks": 22224,
          "time": 137.52465850000002,
          "velocity": 1
        },
        {
          "duration": 0.14851475000000391,
          "durationTicks": 24,
          "midi": 43,
          "name": "G2",
          "ticks": 22248,
          "time": 137.67317325000002,
          "velocity": 0.09448818897637795
        },
        {
          "duration": 0.2970294999999794,
          "durationTicks": 48,
          "midi": 43,
          "name": "G2",
          "ticks": 22272,
          "time": 137.82168800000002,
          "velocity": 1
        },
        {
          "duration": 0.29702950000000783,
          "durationTicks": 48,
          "midi": 55,
          "name": "G3",
          "ticks": 22320,
          "time": 138.1187175,
          "velocity": 1
        },
        {
          "duration": 0.29702950000000783,
          "durationTicks": 48,
          "midi": 43,
          "name": "G2",
          "ticks": 22368,
          "time": 138.415747,
          "velocity": 1
        },
        {
          "duration": 0.14851475000000391,
          "durationTicks": 24,
          "midi": 43,
          "name": "G2",
          "ticks": 22416,
          "time": 138.71277650000002,
          "velocity": 1
        },
        {
          "duration": 0.29702950000000783,
          "durationTicks": 48,
          "midi": 46,
          "name": "A#2",
          "ticks": 22440,
          "time": 138.86129125000002,
          "velocity": 1
        },
        {
          "duration": 0.2970294999999794,
          "durationTicks": 48,
          "midi": 43,
          "name": "G2",
          "ticks": 22488,
          "time": 139.15832075000003,
          "velocity": 0.09448818897637795
        },
        {
          "duration": 0.14851475000000391,
          "durationTicks": 24,
          "midi": 48,
          "name": "C3",
          "ticks": 22584,
          "time": 139.75237975000002,
          "velocity": 1
        },
        {
          "duration": 0.14851475000000391,
          "durationTicks": 24,
          "midi": 43,
          "name": "G2",
          "ticks": 22608,
          "time": 139.90089450000002,
          "velocity": 0.047244094488188976
        },
        {
          "duration": 0.2970294999999794,
          "durationTicks": 48,
          "midi": 46,
          "name": "A#2",
          "ticks": 22632,
          "time": 140.04940925000002,
          "velocity": 1
        },
        {
          "duration": 0.29702950000000783,
          "durationTicks": 48,
          "midi": 43,
          "name": "G2",
          "ticks": 22680,
          "time": 140.34643875,
          "velocity": 1
        },
        {
          "duration": 0.14851475000000391,
          "durationTicks": 24,
          "midi": 55,
          "name": "G3",
          "ticks": 22728,
          "time": 140.64346825,
          "velocity": 1
        },
        {
          "duration": 0.14851475000000391,
          "durationTicks": 24,
          "midi": 46,
          "name": "A#2",
          "ticks": 22752,
          "time": 140.79198300000002,
          "velocity": 0.09448818897637795
        },
        {
          "duration": 0.14851475000000391,
          "durationTicks": 24,
          "midi": 58,
          "name": "A#3",
          "ticks": 22776,
          "time": 140.94049775000002,
          "velocity": 1
        },
        {
          "duration": 0.14851475000000391,
          "durationTicks": 24,
          "midi": 53,
          "name": "F3",
          "ticks": 22800,
          "time": 141.08901250000002,
          "velocity": 1
        },
        {
          "duration": 0.29702950000000783,
          "durationTicks": 48,
          "midi": 48,
          "name": "C3",
          "ticks": 22824,
          "time": 141.23752725000003,
          "velocity": 1
        },
        {
          "duration": 0.2970294999999794,
          "durationTicks": 48,
          "midi": 43,
          "name": "G2",
          "ticks": 22872,
          "time": 141.53455675000004,
          "velocity": 1
        },
        {
          "duration": 0.14851475000000391,
          "durationTicks": 24,
          "midi": 46,
          "name": "A#2",
          "ticks": 22920,
          "time": 141.83158625000002,
          "velocity": 1
        },
        {
          "duration": 0.14851475000000391,
          "durationTicks": 24,
          "midi": 48,
          "name": "C3",
          "ticks": 22944,
          "time": 141.98010100000002,
          "velocity": 1
        },
        {
          "duration": 0.14851475000000391,
          "durationTicks": 24,
          "midi": 43,
          "name": "G2",
          "ticks": 22968,
          "time": 142.12861575000002,
          "velocity": 0.09448818897637795
        },
        {
          "duration": 0.3155938437500083,
          "durationTicks": 51,
          "midi": 43,
          "name": "G2",
          "ticks": 22992,
          "time": 142.27713050000003,
          "velocity": 1
        },
        {
          "duration": 0.2784651562499789,
          "durationTicks": 45,
          "midi": 55,
          "name": "G3",
          "ticks": 23043,
          "time": 142.59272434375004,
          "velocity": 1
        },
        {
          "duration": 0.29702950000000783,
          "durationTicks": 48,
          "midi": 43,
          "name": "G2",
          "ticks": 23088,
          "time": 142.8711895,
          "velocity": 1
        },
        {
          "duration": 0.14851475000000391,
          "durationTicks": 24,
          "midi": 46,
          "name": "A#2",
          "ticks": 23136,
          "time": 143.16821900000002,
          "velocity": 1
        },
        {
          "duration": 0.29702950000000783,
          "durationTicks": 48,
          "midi": 48,
          "name": "C3",
          "ticks": 23160,
          "time": 143.31673375000003,
          "velocity": 1
        },
        {
          "duration": 0.2970294999999794,
          "durationTicks": 48,
          "midi": 43,
          "name": "G2",
          "ticks": 23208,
          "time": 143.61376325000003,
          "velocity": 0.09448818897637795
        },
        {
          "duration": 0.29702950000000783,
          "durationTicks": 48,
          "midi": 48,
          "name": "C3",
          "ticks": 23304,
          "time": 144.20782225000002,
          "velocity": 1
        },
        {
          "duration": 0.2970294999999794,
          "durationTicks": 48,
          "midi": 46,
          "name": "A#2",
          "ticks": 23352,
          "time": 144.50485175000003,
          "velocity": 1
        },
        {
          "duration": 0.29702950000000783,
          "durationTicks": 48,
          "midi": 43,
          "name": "G2",
          "ticks": 23400,
          "time": 144.80188125,
          "velocity": 1
        },
        {
          "duration": 0.14851475000000391,
          "durationTicks": 24,
          "midi": 55,
          "name": "G3",
          "ticks": 23448,
          "time": 145.09891075000002,
          "velocity": 1
        },
        {
          "duration": 0.14851475000000391,
          "durationTicks": 24,
          "midi": 46,
          "name": "A#2",
          "ticks": 23472,
          "time": 145.24742550000002,
          "velocity": 0.09448818897637795
        },
        {
          "duration": 0.14851475000000391,
          "durationTicks": 24,
          "midi": 58,
          "name": "A#3",
          "ticks": 23496,
          "time": 145.39594025000002,
          "velocity": 1
        },
        {
          "duration": 0.14851475000000391,
          "durationTicks": 24,
          "midi": 53,
          "name": "F3",
          "ticks": 23520,
          "time": 145.54445500000003,
          "velocity": 1
        },
        {
          "duration": 0.14851475000000391,
          "durationTicks": 24,
          "midi": 48,
          "name": "C3",
          "ticks": 23544,
          "time": 145.69296975000003,
          "velocity": 1
        },
        {
          "duration": 0.1485147499999755,
          "durationTicks": 24,
          "midi": 58,
          "name": "A#3",
          "ticks": 23568,
          "time": 145.84148450000004,
          "velocity": 0.09448818897637795
        },
        {
          "duration": 0.29702950000000783,
          "durationTicks": 48,
          "midi": 43,
          "name": "G2",
          "ticks": 23592,
          "time": 145.98999925,
          "velocity": 1
        },
        {
          "duration": 0.14851475000000391,
          "durationTicks": 24,
          "midi": 46,
          "name": "A#2",
          "ticks": 23640,
          "time": 146.28702875000002,
          "velocity": 1
        },
        {
          "duration": 0.14851475000000391,
          "durationTicks": 24,
          "midi": 48,
          "name": "C3",
          "ticks": 23664,
          "time": 146.43554350000002,
          "velocity": 1
        },
        {
          "duration": 0.1485147499999755,
          "durationTicks": 24,
          "midi": 43,
          "name": "G2",
          "ticks": 23688,
          "time": 146.58405825000003,
          "velocity": 0.09448818897637795
        },
        {
          "duration": 0.29702950000000783,
          "durationTicks": 48,
          "midi": 43,
          "name": "G2",
          "ticks": 23712,
          "time": 146.732573,
          "velocity": 1
        },
        {
          "duration": 0.29702950000000783,
          "durationTicks": 48,
          "midi": 55,
          "name": "G3",
          "ticks": 23760,
          "time": 147.0296025,
          "velocity": 1
        },
        {
          "duration": 0.29702950000000783,
          "durationTicks": 48,
          "midi": 43,
          "name": "G2",
          "ticks": 23808,
          "time": 147.32663200000002,
          "velocity": 1
        },
        {
          "duration": 0.14851475000000391,
          "durationTicks": 24,
          "midi": 43,
          "name": "G2",
          "ticks": 23856,
          "time": 147.62366150000003,
          "velocity": 1
        },
        {
          "duration": 0.2970294999999794,
          "durationTicks": 48,
          "midi": 46,
          "name": "A#2",
          "ticks": 23880,
          "time": 147.77217625000003,
          "velocity": 1
        },
        {
          "duration": 0.29702950000000783,
          "durationTicks": 48,
          "midi": 43,
          "name": "G2",
          "ticks": 23928,
          "time": 148.06920575,
          "velocity": 0.09448818897637795
        },
        {
          "duration": 0.14851475000000391,
          "durationTicks": 24,
          "midi": 48,
          "name": "C3",
          "ticks": 24024,
          "time": 148.66326475000002,
          "velocity": 1
        },
        {
          "duration": 0.1485147499999755,
          "durationTicks": 24,
          "midi": 43,
          "name": "G2",
          "ticks": 24048,
          "time": 148.81177950000003,
          "velocity": 0.047244094488188976
        },
        {
          "duration": 0.29702950000000783,
          "durationTicks": 48,
          "midi": 46,
          "name": "A#2",
          "ticks": 24072,
          "time": 148.96029425,
          "velocity": 1
        },
        {
          "duration": 0.29702950000000783,
          "durationTicks": 48,
          "midi": 43,
          "name": "G2",
          "ticks": 24120,
          "time": 149.25732375,
          "velocity": 1
        },
        {
          "duration": 0.14851475000000391,
          "durationTicks": 24,
          "midi": 55,
          "name": "G3",
          "ticks": 24168,
          "time": 149.55435325000002,
          "velocity": 1
        },
        {
          "duration": 0.14851475000000391,
          "durationTicks": 24,
          "midi": 46,
          "name": "A#2",
          "ticks": 24192,
          "time": 149.70286800000002,
          "velocity": 0.09448818897637795
        },
        {
          "duration": 0.14851475000000391,
          "durationTicks": 24,
          "midi": 58,
          "name": "A#3",
          "ticks": 24216,
          "time": 149.85138275000003,
          "velocity": 1
        },
        {
          "duration": 0.14851475000000391,
          "durationTicks": 24,
          "midi": 53,
          "name": "F3",
          "ticks": 24240,
          "time": 149.99989750000003,
          "velocity": 1
        },
        {
          "duration": 0.2970294999999794,
          "durationTicks": 48,
          "midi": 48,
          "name": "C3",
          "ticks": 24264,
          "time": 150.14841225000004,
          "velocity": 1
        },
        {
          "duration": 0.29702950000000783,
          "durationTicks": 48,
          "midi": 43,
          "name": "G2",
          "ticks": 24312,
          "time": 150.44544175000001,
          "velocity": 1
        },
        {
          "duration": 0.14851475000000391,
          "durationTicks": 24,
          "midi": 46,
          "name": "A#2",
          "ticks": 24360,
          "time": 150.74247125000002,
          "velocity": 1
        },
        {
          "duration": 0.2537126979166544,
          "durationTicks": 41,
          "midi": 48,
          "name": "C3",
          "ticks": 24384,
          "time": 150.89098600000003,
          "velocity": 1
        },
        {
          "duration": 0.043316802083325,
          "durationTicks": 7,
          "midi": 43,
          "name": "G2",
          "ticks": 24425,
          "time": 151.14469869791668,
          "velocity": 0.09448818897637795
        },
        {
          "duration": 0.29702950000000783,
          "durationTicks": 48,
          "midi": 43,
          "name": "G2",
          "ticks": 24432,
          "time": 151.1880155,
          "velocity": 1
        },
        {
          "duration": 0.29702950000000783,
          "durationTicks": 48,
          "midi": 56,
          "name": "G#3",
          "ticks": 24480,
          "time": 151.485045,
          "velocity": 1
        },
        {
          "duration": 0.29702950000000783,
          "durationTicks": 48,
          "midi": 44,
          "name": "G#2",
          "ticks": 24528,
          "time": 151.78207450000002,
          "velocity": 1
        },
        {
          "duration": 0.14851475000000391,
          "durationTicks": 24,
          "midi": 47,
          "name": "B2",
          "ticks": 24576,
          "time": 152.07910400000003,
          "velocity": 1
        },
        {
          "duration": 0.2970294999999794,
          "durationTicks": 48,
          "midi": 49,
          "name": "C#3",
          "ticks": 24600,
          "time": 152.22761875000003,
          "velocity": 1
        },
        {
          "duration": 0.29702950000000783,
          "durationTicks": 48,
          "midi": 44,
          "name": "G#2",
          "ticks": 24648,
          "time": 152.52464825,
          "velocity": 0.09448818897637795
        },
        {
          "duration": 0.29702950000000783,
          "durationTicks": 48,
          "midi": 49,
          "name": "C#3",
          "ticks": 24744,
          "time": 153.11870725,
          "velocity": 1
        },
        {
          "duration": 0.29702950000000783,
          "durationTicks": 48,
          "midi": 47,
          "name": "B2",
          "ticks": 24792,
          "time": 153.41573675,
          "velocity": 1
        },
        {
          "duration": 0.29702950000000783,
          "durationTicks": 48,
          "midi": 44,
          "name": "G#2",
          "ticks": 24840,
          "time": 153.71276625000002,
          "velocity": 1
        },
        {
          "duration": 0.14851475000000391,
          "durationTicks": 24,
          "midi": 56,
          "name": "G#3",
          "ticks": 24888,
          "time": 154.00979575000002,
          "velocity": 1
        },
        {
          "duration": 0.14851475000000391,
          "durationTicks": 24,
          "midi": 47,
          "name": "B2",
          "ticks": 24912,
          "time": 154.15831050000003,
          "velocity": 0.09448818897637795
        },
        {
          "duration": 0.14851475000000391,
          "durationTicks": 24,
          "midi": 59,
          "name": "B3",
          "ticks": 24936,
          "time": 154.30682525000003,
          "velocity": 1
        },
        {
          "duration": 0.14851475000000391,
          "durationTicks": 24,
          "midi": 54,
          "name": "F#3",
          "ticks": 24960,
          "time": 154.45534000000004,
          "velocity": 1
        },
        {
          "duration": 0.1485147499999755,
          "durationTicks": 24,
          "midi": 49,
          "name": "C#3",
          "ticks": 24984,
          "time": 154.60385475000004,
          "velocity": 1
        },
        {
          "duration": 0.14851475000000391,
          "durationTicks": 24,
          "midi": 59,
          "name": "B3",
          "ticks": 25008,
          "time": 154.75236950000001,
          "velocity": 0.09448818897637795
        },
        {
          "duration": 0.2970294999999794,
          "durationTicks": 48,
          "midi": 44,
          "name": "G#2",
          "ticks": 25032,
          "time": 154.90088425000002,
          "velocity": 1
        },
        {
          "duration": 0.14851475000000391,
          "durationTicks": 24,
          "midi": 47,
          "name": "B2",
          "ticks": 25080,
          "time": 155.19791375,
          "velocity": 1
        },
        {
          "duration": 0.14851475000000391,
          "durationTicks": 24,
          "midi": 49,
          "name": "C#3",
          "ticks": 25104,
          "time": 155.3464285,
          "velocity": 1
        },
        {
          "duration": 0.14851475000000391,
          "durationTicks": 24,
          "midi": 44,
          "name": "G#2",
          "ticks": 25128,
          "time": 155.49494325,
          "velocity": 0.09448818897637795
        },
        {
          "duration": 0.29702950000000783,
          "durationTicks": 48,
          "midi": 44,
          "name": "G#2",
          "ticks": 25152,
          "time": 155.643458,
          "velocity": 1
        },
        {
          "duration": 0.29702950000000783,
          "durationTicks": 48,
          "midi": 56,
          "name": "G#3",
          "ticks": 25200,
          "time": 155.94048750000002,
          "velocity": 1
        },
        {
          "duration": 0.29702950000000783,
          "durationTicks": 48,
          "midi": 44,
          "name": "G#2",
          "ticks": 25248,
          "time": 156.23751700000003,
          "velocity": 1
        },
        {
          "duration": 0.14851475000000391,
          "durationTicks": 24,
          "midi": 44,
          "name": "G#2",
          "ticks": 25296,
          "time": 156.53454650000003,
          "velocity": 1
        },
        {
          "duration": 0.2970294999999794,
          "durationTicks": 48,
          "midi": 47,
          "name": "B2",
          "ticks": 25320,
          "time": 156.68306125000004,
          "velocity": 1
        },
        {
          "duration": 0.29702950000000783,
          "durationTicks": 48,
          "midi": 44,
          "name": "G#2",
          "ticks": 25368,
          "time": 156.98009075000002,
          "velocity": 0.09448818897637795
        },
        {
          "duration": 0.14851475000000391,
          "durationTicks": 24,
          "midi": 49,
          "name": "C#3",
          "ticks": 25464,
          "time": 157.57414975,
          "velocity": 1
        },
        {
          "duration": 0.14851475000000391,
          "durationTicks": 24,
          "midi": 44,
          "name": "G#2",
          "ticks": 25488,
          "time": 157.7226645,
          "velocity": 0.047244094488188976
        },
        {
          "duration": 0.29702950000000783,
          "durationTicks": 48,
          "midi": 47,
          "name": "B2",
          "ticks": 25512,
          "time": 157.87117925,
          "velocity": 1
        },
        {
          "duration": 0.29702950000000783,
          "durationTicks": 48,
          "midi": 44,
          "name": "G#2",
          "ticks": 25560,
          "time": 158.16820875000002,
          "velocity": 1
        },
        {
          "duration": 0.14851475000000391,
          "durationTicks": 24,
          "midi": 56,
          "name": "G#3",
          "ticks": 25608,
          "time": 158.46523825000003,
          "velocity": 1
        },
        {
          "duration": 0.14851475000000391,
          "durationTicks": 24,
          "midi": 47,
          "name": "B2",
          "ticks": 25632,
          "time": 158.61375300000003,
          "velocity": 0.09448818897637795
        },
        {
          "duration": 0.14851475000000391,
          "durationTicks": 24,
          "midi": 59,
          "name": "B3",
          "ticks": 25656,
          "time": 158.76226775000003,
          "velocity": 1
        },
        {
          "duration": 0.1485147499999755,
          "durationTicks": 24,
          "midi": 54,
          "name": "F#3",
          "ticks": 25680,
          "time": 158.91078250000004,
          "velocity": 1
        },
        {
          "duration": 0.29702950000000783,
          "durationTicks": 48,
          "midi": 49,
          "name": "C#3",
          "ticks": 25704,
          "time": 159.05929725000001,
          "velocity": 1
        },
        {
          "duration": 0.2970294999999794,
          "durationTicks": 48,
          "midi": 44,
          "name": "G#2",
          "ticks": 25752,
          "time": 159.35632675000002,
          "velocity": 1
        },
        {
          "duration": 0.14851475000000391,
          "durationTicks": 24,
          "midi": 47,
          "name": "B2",
          "ticks": 25800,
          "time": 159.65335625,
          "velocity": 1
        },
        {
          "duration": 0.14851475000000391,
          "durationTicks": 24,
          "midi": 49,
          "name": "C#3",
          "ticks": 25824,
          "time": 159.801871,
          "velocity": 1
        },
        {
          "duration": 0.14851475000000391,
          "durationTicks": 24,
          "midi": 44,
          "name": "G#2",
          "ticks": 25848,
          "time": 159.95038575,
          "velocity": 0.09448818897637795
        },
        {
          "duration": 0.29702950000000783,
          "durationTicks": 48,
          "midi": 44,
          "name": "G#2",
          "ticks": 25872,
          "time": 160.0989005,
          "velocity": 1
        },
        {
          "duration": 0.29702950000000783,
          "durationTicks": 48,
          "midi": 56,
          "name": "G#3",
          "ticks": 25920,
          "time": 160.39593000000002,
          "velocity": 1
        },
        {
          "duration": 0.29702950000000783,
          "durationTicks": 48,
          "midi": 44,
          "name": "G#2",
          "ticks": 25968,
          "time": 160.69295950000003,
          "velocity": 1
        },
        {
          "duration": 0.1485147499999755,
          "durationTicks": 24,
          "midi": 47,
          "name": "B2",
          "ticks": 26016,
          "time": 160.98998900000004,
          "velocity": 1
        },
        {
          "duration": 0.29702950000000783,
          "durationTicks": 48,
          "midi": 49,
          "name": "C#3",
          "ticks": 26040,
          "time": 161.13850375,
          "velocity": 1
        },
        {
          "duration": 0.2970294999999794,
          "durationTicks": 48,
          "midi": 44,
          "name": "G#2",
          "ticks": 26088,
          "time": 161.43553325000002,
          "velocity": 0.09448818897637795
        },
        {
          "duration": 0.29702950000000783,
          "durationTicks": 48,
          "midi": 49,
          "name": "C#3",
          "ticks": 26184,
          "time": 162.02959225,
          "velocity": 1
        },
        {
          "duration": 0.29702950000000783,
          "durationTicks": 48,
          "midi": 47,
          "name": "B2",
          "ticks": 26232,
          "time": 162.32662175000002,
          "velocity": 1
        },
        {
          "duration": 0.29702950000000783,
          "durationTicks": 48,
          "midi": 44,
          "name": "G#2",
          "ticks": 26280,
          "time": 162.62365125000002,
          "velocity": 1
        },
        {
          "duration": 0.14851475000000391,
          "durationTicks": 24,
          "midi": 56,
          "name": "G#3",
          "ticks": 26328,
          "time": 162.92068075000003,
          "velocity": 1
        },
        {
          "duration": 0.14851475000000391,
          "durationTicks": 24,
          "midi": 47,
          "name": "B2",
          "ticks": 26352,
          "time": 163.06919550000003,
          "velocity": 0.09448818897637795
        },
        {
          "duration": 0.1485147499999755,
          "durationTicks": 24,
          "midi": 59,
          "name": "B3",
          "ticks": 26376,
          "time": 163.21771025000004,
          "velocity": 1
        },
        {
          "duration": 0.14851475000000391,
          "durationTicks": 24,
          "midi": 54,
          "name": "F#3",
          "ticks": 26400,
          "time": 163.36622500000001,
          "velocity": 1
        },
        {
          "duration": 0.14851475000000391,
          "durationTicks": 24,
          "midi": 49,
          "name": "C#3",
          "ticks": 26424,
          "time": 163.51473975000002,
          "velocity": 1
        },
        {
          "duration": 0.1485147499999755,
          "durationTicks": 24,
          "midi": 59,
          "name": "B3",
          "ticks": 26448,
          "time": 163.66325450000002,
          "velocity": 0.09448818897637795
        },
        {
          "duration": 0.29702950000000783,
          "durationTicks": 48,
          "midi": 44,
          "name": "G#2",
          "ticks": 26472,
          "time": 163.81176925,
          "velocity": 1
        },
        {
          "duration": 0.14851475000000391,
          "durationTicks": 24,
          "midi": 47,
          "name": "B2",
          "ticks": 26520,
          "time": 164.10879875,
          "velocity": 1
        },
        {
          "duration": 0.14851475000000391,
          "durationTicks": 24,
          "midi": 49,
          "name": "C#3",
          "ticks": 26544,
          "time": 164.2573135,
          "velocity": 1
        },
        {
          "duration": 0.14851475000000391,
          "durationTicks": 24,
          "midi": 44,
          "name": "G#2",
          "ticks": 26568,
          "time": 164.40582825,
          "velocity": 0.09448818897637795
        },
        {
          "duration": 0.29702950000000783,
          "durationTicks": 48,
          "midi": 44,
          "name": "G#2",
          "ticks": 26592,
          "time": 164.55434300000002,
          "velocity": 1
        },
        {
          "duration": 0.29702950000000783,
          "durationTicks": 48,
          "midi": 56,
          "name": "G#3",
          "ticks": 26640,
          "time": 164.85137250000002,
          "velocity": 1
        },
        {
          "duration": 0.2970294999999794,
          "durationTicks": 48,
          "midi": 44,
          "name": "G#2",
          "ticks": 26688,
          "time": 165.14840200000003,
          "velocity": 1
        },
        {
          "duration": 0.14851475000000391,
          "durationTicks": 24,
          "midi": 44,
          "name": "G#2",
          "ticks": 26736,
          "time": 165.4454315,
          "velocity": 1
        },
        {
          "duration": 0.29702950000000783,
          "durationTicks": 48,
          "midi": 47,
          "name": "B2",
          "ticks": 26760,
          "time": 165.59394625000002,
          "velocity": 1
        },
        {
          "duration": 0.2970294999999794,
          "durationTicks": 48,
          "midi": 44,
          "name": "G#2",
          "ticks": 26808,
          "time": 165.89097575000002,
          "velocity": 0.09448818897637795
        },
        {
          "duration": 0.14851475000000391,
          "durationTicks": 24,
          "midi": 49,
          "name": "C#3",
          "ticks": 26904,
          "time": 166.48503475,
          "velocity": 1
        },
        {
          "duration": 0.14851475000000391,
          "durationTicks": 24,
          "midi": 44,
          "name": "G#2",
          "ticks": 26928,
          "time": 166.63354950000002,
          "velocity": 0.047244094488188976
        },
        {
          "duration": 0.29702950000000783,
          "durationTicks": 48,
          "midi": 47,
          "name": "B2",
          "ticks": 26952,
          "time": 166.78206425000002,
          "velocity": 1
        },
        {
          "duration": 0.29702950000000783,
          "durationTicks": 48,
          "midi": 44,
          "name": "G#2",
          "ticks": 27000,
          "time": 167.07909375000003,
          "velocity": 1
        },
        {
          "duration": 0.14851475000000391,
          "durationTicks": 24,
          "midi": 56,
          "name": "G#3",
          "ticks": 27048,
          "time": 167.37612325000003,
          "velocity": 1
        },
        {
          "duration": 0.1485147499999755,
          "durationTicks": 24,
          "midi": 47,
          "name": "B2",
          "ticks": 27072,
          "time": 167.52463800000004,
          "velocity": 0.09448818897637795
        },
        {
          "duration": 0.14851475000000391,
          "durationTicks": 24,
          "midi": 59,
          "name": "B3",
          "ticks": 27096,
          "time": 167.67315275,
          "velocity": 1
        },
        {
          "duration": 0.14851475000000391,
          "durationTicks": 24,
          "midi": 54,
          "name": "F#3",
          "ticks": 27120,
          "time": 167.82166750000002,
          "velocity": 1
        },
        {
          "duration": 0.2970294999999794,
          "durationTicks": 48,
          "midi": 49,
          "name": "C#3",
          "ticks": 27144,
          "time": 167.97018225000002,
          "velocity": 1
        },
        {
          "duration": 0.29702950000000783,
          "durationTicks": 48,
          "midi": 44,
          "name": "G#2",
          "ticks": 27192,
          "time": 168.26721175,
          "velocity": 1
        },
        {
          "duration": 0.14851475000000391,
          "durationTicks": 24,
          "midi": 47,
          "name": "B2",
          "ticks": 27240,
          "time": 168.56424125,
          "velocity": 1
        },
        {
          "duration": 0.14851475000000391,
          "durationTicks": 24,
          "midi": 49,
          "name": "C#3",
          "ticks": 27264,
          "time": 168.712756,
          "velocity": 1
        },
        {
          "duration": 0.14851475000000391,
          "durationTicks": 24,
          "midi": 44,
          "name": "G#2",
          "ticks": 27288,
          "time": 168.86127075000002,
          "velocity": 0.09448818897637795
        },
        {
          "duration": 0.29702950000000783,
          "durationTicks": 48,
          "midi": 44,
          "name": "G#2",
          "ticks": 27312,
          "time": 169.00978550000002,
          "velocity": 1
        },
        {
          "duration": 0.29702950000000783,
          "durationTicks": 48,
          "midi": 56,
          "name": "G#3",
          "ticks": 27360,
          "time": 169.30681500000003,
          "velocity": 1
        },
        {
          "duration": 0.2970294999999794,
          "durationTicks": 48,
          "midi": 44,
          "name": "G#2",
          "ticks": 27408,
          "time": 169.60384450000004,
          "velocity": 1
        },
        {
          "duration": 0.14851475000000391,
          "durationTicks": 24,
          "midi": 47,
          "name": "B2",
          "ticks": 27456,
          "time": 169.90087400000002,
          "velocity": 1
        },
        {
          "duration": 0.2970294999999794,
          "durationTicks": 48,
          "midi": 49,
          "name": "C#3",
          "ticks": 27480,
          "time": 170.04938875000002,
          "velocity": 1
        },
        {
          "duration": 0.29702950000000783,
          "durationTicks": 48,
          "midi": 44,
          "name": "G#2",
          "ticks": 27528,
          "time": 170.34641825,
          "velocity": 0.09448818897637795
        },
        {
          "duration": 0.29702950000000783,
          "durationTicks": 48,
          "midi": 49,
          "name": "C#3",
          "ticks": 27624,
          "time": 170.94047725000001,
          "velocity": 1
        },
        {
          "duration": 0.29702950000000783,
          "durationTicks": 48,
          "midi": 47,
          "name": "B2",
          "ticks": 27672,
          "time": 171.23750675000002,
          "velocity": 1
        },
        {
          "duration": 0.29702950000000783,
          "durationTicks": 48,
          "midi": 44,
          "name": "G#2",
          "ticks": 27720,
          "time": 171.53453625000003,
          "velocity": 1
        },
        {
          "duration": 0.1485147499999755,
          "durationTicks": 24,
          "midi": 56,
          "name": "G#3",
          "ticks": 27768,
          "time": 171.83156575000004,
          "velocity": 1
        },
        {
          "duration": 0.14851475000000391,
          "durationTicks": 24,
          "midi": 47,
          "name": "B2",
          "ticks": 27792,
          "time": 171.9800805,
          "velocity": 0.09448818897637795
        },
        {
          "duration": 0.14851475000000391,
          "durationTicks": 24,
          "midi": 59,
          "name": "B3",
          "ticks": 27816,
          "time": 172.12859525000002,
          "velocity": 1
        },
        {
          "duration": 0.14851475000000391,
          "durationTicks": 24,
          "midi": 54,
          "name": "F#3",
          "ticks": 27840,
          "time": 172.27711000000002,
          "velocity": 1
        },
        {
          "duration": 0.1485147499999755,
          "durationTicks": 24,
          "midi": 49,
          "name": "C#3",
          "ticks": 27864,
          "time": 172.42562475000003,
          "velocity": 1
        },
        {
          "duration": 0.14851475000000391,
          "durationTicks": 24,
          "midi": 59,
          "name": "B3",
          "ticks": 27888,
          "time": 172.5741395,
          "velocity": 0.09448818897637795
        },
        {
          "duration": 0.29702950000000783,
          "durationTicks": 48,
          "midi": 44,
          "name": "G#2",
          "ticks": 27912,
          "time": 172.72265425,
          "velocity": 1
        },
        {
          "duration": 0.14851475000000391,
          "durationTicks": 24,
          "midi": 47,
          "name": "B2",
          "ticks": 27960,
          "time": 173.01968375,
          "velocity": 1
        },
        {
          "duration": 0.14851475000000391,
          "durationTicks": 24,
          "midi": 49,
          "name": "C#3",
          "ticks": 27984,
          "time": 173.16819850000002,
          "velocity": 1
        },
        {
          "duration": 0.14851475000000391,
          "durationTicks": 24,
          "midi": 44,
          "name": "G#2",
          "ticks": 28008,
          "time": 173.31671325000002,
          "velocity": 0.09448818897637795
        },
        {
          "duration": 0.29702950000000783,
          "durationTicks": 48,
          "midi": 44,
          "name": "G#2",
          "ticks": 28032,
          "time": 173.46522800000002,
          "velocity": 1
        },
        {
          "duration": 0.2970294999999794,
          "durationTicks": 48,
          "midi": 56,
          "name": "G#3",
          "ticks": 28080,
          "time": 173.76225750000003,
          "velocity": 1
        },
        {
          "duration": 0.29702950000000783,
          "durationTicks": 48,
          "midi": 44,
          "name": "G#2",
          "ticks": 28128,
          "time": 174.059287,
          "velocity": 1
        },
        {
          "duration": 0.14851475000000391,
          "durationTicks": 24,
          "midi": 44,
          "name": "G#2",
          "ticks": 28176,
          "time": 174.35631650000002,
          "velocity": 1
        },
        {
          "duration": 0.2970294999999794,
          "durationTicks": 48,
          "midi": 47,
          "name": "B2",
          "ticks": 28200,
          "time": 174.50483125000002,
          "velocity": 1
        },
        {
          "duration": 0.29702950000000783,
          "durationTicks": 48,
          "midi": 44,
          "name": "G#2",
          "ticks": 28248,
          "time": 174.80186075,
          "velocity": 0.09448818897637795
        },
        {
          "duration": 0.14851475000000391,
          "durationTicks": 24,
          "midi": 49,
          "name": "C#3",
          "ticks": 28344,
          "time": 175.39591975000002,
          "velocity": 1
        },
        {
          "duration": 0.14851475000000391,
          "durationTicks": 24,
          "midi": 44,
          "name": "G#2",
          "ticks": 28368,
          "time": 175.54443450000002,
          "velocity": 0.047244094488188976
        },
        {
          "duration": 0.29702950000000783,
          "durationTicks": 48,
          "midi": 47,
          "name": "B2",
          "ticks": 28392,
          "time": 175.69294925000003,
          "velocity": 1
        },
        {
          "duration": 0.2970294999999794,
          "durationTicks": 48,
          "midi": 44,
          "name": "G#2",
          "ticks": 28440,
          "time": 175.98997875000003,
          "velocity": 1
        },
        {
          "duration": 0.14851475000000391,
          "durationTicks": 24,
          "midi": 56,
          "name": "G#3",
          "ticks": 28488,
          "time": 176.28700825,
          "velocity": 1
        },
        {
          "duration": 0.14851475000000391,
          "durationTicks": 24,
          "midi": 47,
          "name": "B2",
          "ticks": 28512,
          "time": 176.43552300000002,
          "velocity": 0.09448818897637795
        },
        {
          "duration": 0.14851475000000391,
          "durationTicks": 24,
          "midi": 59,
          "name": "B3",
          "ticks": 28536,
          "time": 176.58403775000002,
          "velocity": 1
        },
        {
          "duration": 0.1485147499999755,
          "durationTicks": 24,
          "midi": 54,
          "name": "F#3",
          "ticks": 28560,
          "time": 176.73255250000003,
          "velocity": 1
        },
        {
          "duration": 0.29702950000000783,
          "durationTicks": 48,
          "midi": 49,
          "name": "C#3",
          "ticks": 28584,
          "time": 176.88106725,
          "velocity": 1
        },
        {
          "duration": 0.29702950000000783,
          "durationTicks": 48,
          "midi": 44,
          "name": "G#2",
          "ticks": 28632,
          "time": 177.17809675,
          "velocity": 1
        },
        {
          "duration": 0.14851475000000391,
          "durationTicks": 24,
          "midi": 47,
          "name": "B2",
          "ticks": 28680,
          "time": 177.47512625000002,
          "velocity": 1
        },
        {
          "duration": 0.14851475000000391,
          "durationTicks": 24,
          "midi": 49,
          "name": "C#3",
          "ticks": 28704,
          "time": 177.62364100000002,
          "velocity": 1
        },
        {
          "duration": 0.14851475000000391,
          "durationTicks": 24,
          "midi": 44,
          "name": "G#2",
          "ticks": 28728,
          "time": 177.77215575000002,
          "velocity": 0.09448818897637795
        },
        {
          "duration": 0.8910884999999951,
          "durationTicks": 144,
          "midi": 44,
          "name": "G#2",
          "ticks": 28752,
          "time": 177.92067050000003,
          "velocity": 1
        },
        {
          "duration": 0.2970294999999794,
          "durationTicks": 48,
          "midi": 56,
          "name": "G#3",
          "ticks": 28800,
          "time": 178.21770000000004,
          "velocity": 1
        },
        {
          "duration": 0.8910884999999951,
          "durationTicks": 144,
          "midi": 44,
          "name": "G#2",
          "ticks": 28848,
          "time": 178.51472950000002,
          "velocity": 1
        },
        {
          "duration": 0.1485147499999755,
          "durationTicks": 24,
          "midi": 47,
          "name": "B2",
          "ticks": 28896,
          "time": 178.81175900000002,
          "velocity": 1
        },
        {
          "duration": 0.29702950000000783,
          "durationTicks": 48,
          "midi": 49,
          "name": "C#3",
          "ticks": 28920,
          "time": 178.96027375,
          "velocity": 1
        },
        {
          "duration": 0.29702950000000783,
          "durationTicks": 48,
          "midi": 44,
          "name": "G#2",
          "ticks": 28968,
          "time": 179.25730325,
          "velocity": 0.09448818897637795
        },
        {
          "duration": 0.29702950000000783,
          "durationTicks": 48,
          "midi": 49,
          "name": "C#3",
          "ticks": 29064,
          "time": 179.85136225000002,
          "velocity": 1
        },
        {
          "duration": 0.29702950000000783,
          "durationTicks": 48,
          "midi": 47,
          "name": "B2",
          "ticks": 29112,
          "time": 180.14839175000003,
          "velocity": 1
        },
        {
          "duration": 0.2970294999999794,
          "durationTicks": 48,
          "midi": 44,
          "name": "G#2",
          "ticks": 29160,
          "time": 180.44542125000004,
          "velocity": 1
        },
        {
          "duration": 0.14851475000000391,
          "durationTicks": 24,
          "midi": 56,
          "name": "G#3",
          "ticks": 29208,
          "time": 180.74245075000002,
          "velocity": 1
        },
        {
          "duration": 0.14851475000000391,
          "durationTicks": 24,
          "midi": 47,
          "name": "B2",
          "ticks": 29232,
          "time": 180.89096550000002,
          "velocity": 0.09448818897637795
        },
        {
          "duration": 0.1485147499999755,
          "durationTicks": 24,
          "midi": 59,
          "name": "B3",
          "ticks": 29256,
          "time": 181.03948025000003,
          "velocity": 1
        },
        {
          "duration": 0.14851475000000391,
          "durationTicks": 24,
          "midi": 54,
          "name": "F#3",
          "ticks": 29280,
          "time": 181.187995,
          "velocity": 1
        },
        {
          "duration": 0.14851475000000391,
          "durationTicks": 24,
          "midi": 49,
          "name": "C#3",
          "ticks": 29304,
          "time": 181.33650975,
          "velocity": 1
        },
        {
          "duration": 0.14851475000000391,
          "durationTicks": 24,
          "midi": 59,
          "name": "B3",
          "ticks": 29328,
          "time": 181.4850245,
          "velocity": 0.09448818897637795
        },
        {
          "duration": 0.29702950000000783,
          "durationTicks": 48,
          "midi": 44,
          "name": "G#2",
          "ticks": 29352,
          "time": 181.63353925,
          "velocity": 1
        },
        {
          "duration": 0.14851475000000391,
          "durationTicks": 24,
          "midi": 47,
          "name": "B2",
          "ticks": 29400,
          "time": 181.93056875000002,
          "velocity": 1
        },
        {
          "duration": 0.14851475000000391,
          "durationTicks": 24,
          "midi": 49,
          "name": "C#3",
          "ticks": 29424,
          "time": 182.07908350000002,
          "velocity": 1
        },
        {
          "duration": 0.14851475000000391,
          "durationTicks": 24,
          "midi": 44,
          "name": "G#2",
          "ticks": 29448,
          "time": 182.22759825000003,
          "velocity": 0.09448818897637795
        },
        {
          "duration": 0.29702950000000783,
          "durationTicks": 48,
          "midi": 44,
          "name": "G#2",
          "ticks": 29472,
          "time": 182.37611300000003,
          "velocity": 1
        },
        {
          "duration": 0.2970294999999794,
          "durationTicks": 48,
          "midi": 37,
          "name": "C#2",
          "ticks": 29520,
          "time": 182.67314250000004,
          "velocity": 1
        },
        {
          "duration": 0.2970294999999794,
          "durationTicks": 48,
          "midi": 49,
          "name": "C#3",
          "ticks": 29568,
          "time": 182.97017200000002,
          "velocity": 1
        },
        {
          "duration": 0.14851475000000391,
          "durationTicks": 24,
          "midi": 37,
          "name": "C#2",
          "ticks": 29616,
          "time": 183.2672015,
          "velocity": 1
        },
        {
          "duration": 0.29702950000000783,
          "durationTicks": 48,
          "midi": 47,
          "name": "B2",
          "ticks": 29640,
          "time": 183.41571625,
          "velocity": 1
        },
        {
          "duration": 0.29702950000000783,
          "durationTicks": 48,
          "midi": 44,
          "name": "G#2",
          "ticks": 29688,
          "time": 183.71274575,
          "velocity": 0.09448818897637795
        },
        {
          "duration": 0.14851475000000391,
          "durationTicks": 24,
          "midi": 49,
          "name": "C#3",
          "ticks": 29784,
          "time": 184.30680475000003,
          "velocity": 1
        },
        {
          "duration": 0.14851475000000391,
          "durationTicks": 24,
          "midi": 44,
          "name": "G#2",
          "ticks": 29808,
          "time": 184.45531950000003,
          "velocity": 0.047244094488188976
        },
        {
          "duration": 0.2970294999999794,
          "durationTicks": 48,
          "midi": 47,
          "name": "B2",
          "ticks": 29832,
          "time": 184.60383425000003,
          "velocity": 1
        },
        {
          "duration": 0.29702950000000783,
          "durationTicks": 48,
          "midi": 44,
          "name": "G#2",
          "ticks": 29880,
          "time": 184.90086375,
          "velocity": 1
        },
        {
          "duration": 0.14851475000000391,
          "durationTicks": 24,
          "midi": 56,
          "name": "G#3",
          "ticks": 29928,
          "time": 185.19789325000002,
          "velocity": 1
        },
        {
          "duration": 0.1485147499999755,
          "durationTicks": 24,
          "midi": 47,
          "name": "B2",
          "ticks": 29952,
          "time": 185.34640800000003,
          "velocity": 0.09448818897637795
        },
        {
          "duration": 0.14851475000000391,
          "durationTicks": 24,
          "midi": 59,
          "name": "B3",
          "ticks": 29976,
          "time": 185.49492275,
          "velocity": 1
        },
        {
          "duration": 0.14851475000000391,
          "durationTicks": 24,
          "midi": 54,
          "name": "F#3",
          "ticks": 30000,
          "time": 185.6434375,
          "velocity": 1
        },
        {
          "duration": 0.29702950000000783,
          "durationTicks": 48,
          "midi": 49,
          "name": "C#3",
          "ticks": 30024,
          "time": 185.79195225,
          "velocity": 1
        },
        {
          "duration": 0.29702950000000783,
          "durationTicks": 48,
          "midi": 44,
          "name": "G#2",
          "ticks": 30072,
          "time": 186.08898175000002,
          "velocity": 1
        },
        {
          "duration": 0.14851475000000391,
          "durationTicks": 24,
          "midi": 47,
          "name": "B2",
          "ticks": 30120,
          "time": 186.38601125000002,
          "velocity": 1
        },
        {
          "duration": 0.14851475000000391,
          "durationTicks": 24,
          "midi": 49,
          "name": "C#3",
          "ticks": 30144,
          "time": 186.53452600000003,
          "velocity": 1
        },
        {
          "duration": 0.14851475000000391,
          "durationTicks": 24,
          "midi": 44,
          "name": "G#2",
          "ticks": 30168,
          "time": 186.68304075000003,
          "velocity": 0.09448818897637795
        },
        {
          "duration": 0.2970294999999794,
          "durationTicks": 48,
          "midi": 44,
          "name": "G#2",
          "ticks": 30192,
          "time": 186.83155550000004,
          "velocity": 1
        },
        {
          "duration": 0.29702950000000783,
          "durationTicks": 48,
          "midi": 56,
          "name": "G#3",
          "ticks": 30240,
          "time": 187.12858500000002,
          "velocity": 1
        },
        {
          "duration": 0.2970294999999794,
          "durationTicks": 48,
          "midi": 44,
          "name": "G#2",
          "ticks": 30288,
          "time": 187.42561450000002,
          "velocity": 1
        },
        {
          "duration": 0.14851475000000391,
          "durationTicks": 24,
          "midi": 47,
          "name": "B2",
          "ticks": 30336,
          "time": 187.722644,
          "velocity": 1
        },
        {
          "duration": 0.29702950000000783,
          "durationTicks": 48,
          "midi": 49,
          "name": "C#3",
          "ticks": 30360,
          "time": 187.87115875,
          "velocity": 1
        },
        {
          "duration": 0.29702950000000783,
          "durationTicks": 48,
          "midi": 44,
          "name": "G#2",
          "ticks": 30408,
          "time": 188.16818825000001,
          "velocity": 0.09448818897637795
        },
        {
          "duration": 0.29702950000000783,
          "durationTicks": 48,
          "midi": 49,
          "name": "C#3",
          "ticks": 30504,
          "time": 188.76224725000003,
          "velocity": 1
        },
        {
          "duration": 0.2970294999999794,
          "durationTicks": 48,
          "midi": 47,
          "name": "B2",
          "ticks": 30552,
          "time": 189.05927675000004,
          "velocity": 1
        },
        {
          "duration": 0.29702950000000783,
          "durationTicks": 48,
          "midi": 44,
          "name": "G#2",
          "ticks": 30600,
          "time": 189.35630625000002,
          "velocity": 1
        },
        {
          "duration": 0.1485147499999755,
          "durationTicks": 24,
          "midi": 56,
          "name": "G#3",
          "ticks": 30648,
          "time": 189.65333575000002,
          "velocity": 1
        },
        {
          "duration": 0.14851475000000391,
          "durationTicks": 24,
          "midi": 47,
          "name": "B2",
          "ticks": 30672,
          "time": 189.8018505,
          "velocity": 0.09448818897637795
        },
        {
          "duration": 0.14851475000000391,
          "durationTicks": 24,
          "midi": 59,
          "name": "B3",
          "ticks": 30696,
          "time": 189.95036525,
          "velocity": 1
        },
        {
          "duration": 0.14851475000000391,
          "durationTicks": 24,
          "midi": 54,
          "name": "F#3",
          "ticks": 30720,
          "time": 190.09888,
          "velocity": 1
        },
        {
          "duration": 0.14851475000000391,
          "durationTicks": 24,
          "midi": 49,
          "name": "C#3",
          "ticks": 30744,
          "time": 190.24739475,
          "velocity": 1
        },
        {
          "duration": 0.14851475000000391,
          "durationTicks": 24,
          "midi": 59,
          "name": "B3",
          "ticks": 30768,
          "time": 190.39590950000002,
          "velocity": 0.09448818897637795
        },
        {
          "duration": 0.29702950000000783,
          "durationTicks": 48,
          "midi": 44,
          "name": "G#2",
          "ticks": 30792,
          "time": 190.54442425000002,
          "velocity": 1
        },
        {
          "duration": 0.14851475000000391,
          "durationTicks": 24,
          "midi": 47,
          "name": "B2",
          "ticks": 30840,
          "time": 190.84145375000003,
          "velocity": 1
        },
        {
          "duration": 0.14851475000000391,
          "durationTicks": 24,
          "midi": 49,
          "name": "C#3",
          "ticks": 30864,
          "time": 190.98996850000003,
          "velocity": 1
        },
        {
          "duration": 0.14851475000000391,
          "durationTicks": 24,
          "midi": 44,
          "name": "G#2",
          "ticks": 30888,
          "time": 191.13848325000004,
          "velocity": 0.09448818897637795
        },
        {
          "duration": 0.2970294999999794,
          "durationTicks": 48,
          "midi": 44,
          "name": "G#2",
          "ticks": 30912,
          "time": 191.28699800000004,
          "velocity": 1
        },
        {
          "duration": 0.2970294999999794,
          "durationTicks": 48,
          "midi": 37,
          "name": "C#2",
          "ticks": 30960,
          "time": 191.58402750000002,
          "velocity": 1
        },
        {
          "duration": 0.29702950000000783,
          "durationTicks": 48,
          "midi": 49,
          "name": "C#3",
          "ticks": 31008,
          "time": 191.881057,
          "velocity": 1
        },
        {
          "duration": 0.14851475000000391,
          "durationTicks": 24,
          "midi": 37,
          "name": "C#2",
          "ticks": 31056,
          "time": 192.1780865,
          "velocity": 1
        },
        {
          "duration": 0.29702950000000783,
          "durationTicks": 48,
          "midi": 47,
          "name": "B2",
          "ticks": 31080,
          "time": 192.32660125,
          "velocity": 1
        },
        {
          "duration": 0.29702950000000783,
          "durationTicks": 48,
          "midi": 44,
          "name": "G#2",
          "ticks": 31128,
          "time": 192.62363075000002,
          "velocity": 0.09448818897637795
        },
        {
          "duration": 0.14851475000000391,
          "durationTicks": 24,
          "midi": 49,
          "name": "C#3",
          "ticks": 31224,
          "time": 193.21768975000003,
          "velocity": 1
        },
        {
          "duration": 0.1485147499999755,
          "durationTicks": 24,
          "midi": 44,
          "name": "G#2",
          "ticks": 31248,
          "time": 193.36620450000004,
          "velocity": 0.047244094488188976
        },
        {
          "duration": 0.29702950000000783,
          "durationTicks": 48,
          "midi": 47,
          "name": "B2",
          "ticks": 31272,
          "time": 193.51471925,
          "velocity": 1
        },
        {
          "duration": 0.2970294999999794,
          "durationTicks": 48,
          "midi": 47,
          "name": "B2",
          "ticks": 31320,
          "time": 193.81174875000002,
          "velocity": 1
        },
        {
          "duration": 0.14851475000000391,
          "durationTicks": 24,
          "midi": 59,
          "name": "B3",
          "ticks": 31368,
          "time": 194.10877825,
          "velocity": 1
        },
        {
          "duration": 0.14851475000000391,
          "durationTicks": 24,
          "midi": 47,
          "name": "B2",
          "ticks": 31392,
          "time": 194.257293,
          "velocity": 0.09448818897637795
        },
        {
          "duration": 0.14851475000000391,
          "durationTicks": 24,
          "midi": 59,
          "name": "B3",
          "ticks": 31416,
          "time": 194.40580775,
          "velocity": 1
        },
        {
          "duration": 0.14851475000000391,
          "durationTicks": 24,
          "midi": 54,
          "name": "F#3",
          "ticks": 31440,
          "time": 194.5543225,
          "velocity": 1
        },
        {
          "duration": 0.29702950000000783,
          "durationTicks": 48,
          "midi": 49,
          "name": "C#3",
          "ticks": 31464,
          "time": 194.70283725000002,
          "velocity": 1
        },
        {
          "duration": 0.29702950000000783,
          "durationTicks": 48,
          "midi": 44,
          "name": "G#2",
          "ticks": 31512,
          "time": 194.99986675000002,
          "velocity": 1
        },
        {
          "duration": 0.14851475000000391,
          "durationTicks": 24,
          "midi": 47,
          "name": "B2",
          "ticks": 31560,
          "time": 195.29689625000003,
          "velocity": 1
        },
        {
          "duration": 0.14851475000000391,
          "durationTicks": 24,
          "midi": 49,
          "name": "C#3",
          "ticks": 31584,
          "time": 195.44541100000004,
          "velocity": 1
        },
        {
          "duration": 0.1485147499999755,
          "durationTicks": 24,
          "midi": 44,
          "name": "G#2",
          "ticks": 31608,
          "time": 195.59392575000004,
          "velocity": 0.09448818897637795
        },
        {
          "duration": 0.29702950000000783,
          "durationTicks": 48,
          "midi": 44,
          "name": "G#2",
          "ticks": 31632,
          "time": 195.74244050000001,
          "velocity": 1
        },
        {
          "duration": 0.2970294999999794,
          "durationTicks": 48,
          "midi": 56,
          "name": "G#3",
          "ticks": 31680,
          "time": 196.03947000000002,
          "velocity": 1
        },
        {
          "duration": 0.29702950000000783,
          "durationTicks": 48,
          "midi": 44,
          "name": "G#2",
          "ticks": 31728,
          "time": 196.3364995,
          "velocity": 1
        },
        {
          "duration": 0.14851475000000391,
          "durationTicks": 24,
          "midi": 47,
          "name": "B2",
          "ticks": 31776,
          "time": 196.633529,
          "velocity": 1
        },
        {
          "duration": 0.29702950000000783,
          "durationTicks": 48,
          "midi": 49,
          "name": "C#3",
          "ticks": 31800,
          "time": 196.78204375,
          "velocity": 1
        },
        {
          "duration": 0.29702950000000783,
          "durationTicks": 48,
          "midi": 44,
          "name": "G#2",
          "ticks": 31848,
          "time": 197.07907325000002,
          "velocity": 0.09448818897637795
        },
        {
          "duration": 0.1485147499999755,
          "durationTicks": 24,
          "midi": 47,
          "name": "B2",
          "ticks": 33000,
          "time": 204.20778125000004,
          "velocity": 1
        },
        {
          "duration": 0.25371269791668283,
          "durationTicks": 41,
          "midi": 49,
          "name": "C#3",
          "ticks": 33024,
          "time": 204.35629600000001,
          "velocity": 1
        },
        {
          "duration": 0.043316802083325,
          "durationTicks": 7,
          "midi": 59,
          "name": "B3",
          "ticks": 33065,
          "time": 204.6100086979167,
          "velocity": 0.09448818897637795
        },
        {
          "duration": 0.2970294999999794,
          "durationTicks": 48,
          "midi": 44,
          "name": "G#2",
          "ticks": 33072,
          "time": 204.65332550000002,
          "velocity": 1
        },
        {
          "duration": 0.29702950000000783,
          "durationTicks": 48,
          "midi": 56,
          "name": "G#3",
          "ticks": 33120,
          "time": 204.950355,
          "velocity": 1
        },
        {
          "duration": 0.2970294999999794,
          "durationTicks": 48,
          "midi": 44,
          "name": "G#2",
          "ticks": 33168,
          "time": 205.2473845,
          "velocity": 1
        },
        {
          "duration": 0.14851475000000391,
          "durationTicks": 24,
          "midi": 47,
          "name": "B2",
          "ticks": 33216,
          "time": 205.544414,
          "velocity": 1
        },
        {
          "duration": 0.29702950000000783,
          "durationTicks": 48,
          "midi": 49,
          "name": "C#3",
          "ticks": 33240,
          "time": 205.69292875,
          "velocity": 1
        },
        {
          "duration": 0.29702950000000783,
          "durationTicks": 48,
          "midi": 44,
          "name": "G#2",
          "ticks": 33288,
          "time": 205.98995825,
          "velocity": 0.12598425196850394
        },
        {
          "duration": 0.29702950000000783,
          "durationTicks": 48,
          "midi": 44,
          "name": "G#2",
          "ticks": 33480,
          "time": 207.17807625,
          "velocity": 1
        },
        {
          "duration": 0.14851475000000391,
          "durationTicks": 24,
          "midi": 56,
          "name": "G#3",
          "ticks": 33528,
          "time": 207.47510575,
          "velocity": 1
        },
        {
          "duration": 0.1485147499999755,
          "durationTicks": 24,
          "midi": 47,
          "name": "B2",
          "ticks": 33552,
          "time": 207.62362050000002,
          "velocity": 0.12598425196850394
        },
        {
          "duration": 0.14851475000000391,
          "durationTicks": 24,
          "midi": 59,
          "name": "B3",
          "ticks": 33576,
          "time": 207.77213525,
          "velocity": 1
        },
        {
          "duration": 0.14851475000000391,
          "durationTicks": 24,
          "midi": 54,
          "name": "F#3",
          "ticks": 33600,
          "time": 207.92065,
          "velocity": 1
        },
        {
          "duration": 0.14851475000000391,
          "durationTicks": 24,
          "midi": 49,
          "name": "C#3",
          "ticks": 33624,
          "time": 208.06916475,
          "velocity": 1
        },
        {
          "duration": 0.14851475000000391,
          "durationTicks": 24,
          "midi": 59,
          "name": "B3",
          "ticks": 33648,
          "time": 208.2176795,
          "velocity": 0.12598425196850394
        },
        {
          "duration": 0.29702950000000783,
          "durationTicks": 48,
          "midi": 44,
          "name": "G#2",
          "ticks": 33672,
          "time": 208.36619425,
          "velocity": 1
        },
        {
          "duration": 0.1485147499999755,
          "durationTicks": 24,
          "midi": 47,
          "name": "B2",
          "ticks": 33720,
          "time": 208.66322375000001,
          "velocity": 1
        },
        {
          "duration": 0.14851475000000391,
          "durationTicks": 24,
          "midi": 49,
          "name": "C#3",
          "ticks": 33744,
          "time": 208.8117385,
          "velocity": 1
        },
        {
          "duration": 0.14851475000000391,
          "durationTicks": 24,
          "midi": 44,
          "name": "G#2",
          "ticks": 33768,
          "time": 208.96025325,
          "velocity": 0.12598425196850394
        },
        {
          "duration": 0.29702950000000783,
          "durationTicks": 48,
          "midi": 44,
          "name": "G#2",
          "ticks": 33792,
          "time": 209.108768,
          "velocity": 1
        },
        {
          "duration": 0.29702950000000783,
          "durationTicks": 48,
          "midi": 56,
          "name": "G#3",
          "ticks": 33840,
          "time": 209.4057975,
          "velocity": 1
        },
        {
          "duration": 0.2970294999999794,
          "durationTicks": 48,
          "midi": 44,
          "name": "G#2",
          "ticks": 33888,
          "time": 209.702827,
          "velocity": 1
        },
        {
          "duration": 0.14851475000000391,
          "durationTicks": 24,
          "midi": 44,
          "name": "G#2",
          "ticks": 33936,
          "time": 209.9998565,
          "velocity": 1
        },
        {
          "duration": 0.29702950000000783,
          "durationTicks": 48,
          "midi": 47,
          "name": "B2",
          "ticks": 33960,
          "time": 210.14837125,
          "velocity": 1
        },
        {
          "duration": 0.29702950000000783,
          "durationTicks": 48,
          "midi": 44,
          "name": "G#2",
          "ticks": 34008,
          "time": 210.44540075,
          "velocity": 0.12598425196850394
        },
        {
          "duration": 0.14851475000000391,
          "durationTicks": 24,
          "midi": 49,
          "name": "C#3",
          "ticks": 34104,
          "time": 211.03945975,
          "velocity": 1
        },
        {
          "duration": 0.14851475000000391,
          "durationTicks": 24,
          "midi": 44,
          "name": "G#2",
          "ticks": 34128,
          "time": 211.1879745,
          "velocity": 0.09448818897637795
        },
        {
          "duration": 0.29702950000000783,
          "durationTicks": 48,
          "midi": 47,
          "name": "B2",
          "ticks": 34152,
          "time": 211.33648925,
          "velocity": 1
        },
        {
          "duration": 0.29702950000000783,
          "durationTicks": 48,
          "midi": 44,
          "name": "G#2",
          "ticks": 34200,
          "time": 211.63351875,
          "velocity": 1
        },
        {
          "duration": 0.1485147499999755,
          "durationTicks": 24,
          "midi": 56,
          "name": "G#3",
          "ticks": 34248,
          "time": 211.93054825000002,
          "velocity": 1
        },
        {
          "duration": 0.14851475000000391,
          "durationTicks": 24,
          "midi": 47,
          "name": "B2",
          "ticks": 34272,
          "time": 212.079063,
          "velocity": 0.12598425196850394
        },
        {
          "duration": 0.14851475000000391,
          "durationTicks": 24,
          "midi": 59,
          "name": "B3",
          "ticks": 34296,
          "time": 212.22757775,
          "velocity": 1
        },
        {
          "duration": 0.14851475000000391,
          "durationTicks": 24,
          "midi": 54,
          "name": "F#3",
          "ticks": 34320,
          "time": 212.3760925,
          "velocity": 1
        },
        {
          "duration": 0.29702950000000783,
          "durationTicks": 48,
          "midi": 49,
          "name": "C#3",
          "ticks": 34344,
          "time": 212.52460725,
          "velocity": 1
        },
        {
          "duration": 0.2970294999999794,
          "durationTicks": 48,
          "midi": 44,
          "name": "G#2",
          "ticks": 34392,
          "time": 212.82163675,
          "velocity": 1
        },
        {
          "duration": 0.14851475000000391,
          "durationTicks": 24,
          "midi": 47,
          "name": "B2",
          "ticks": 34440,
          "time": 213.11866625,
          "velocity": 1
        },
        {
          "duration": 0.14851475000000391,
          "durationTicks": 24,
          "midi": 49,
          "name": "C#3",
          "ticks": 34464,
          "time": 213.267181,
          "velocity": 1
        },
        {
          "duration": 0.14851475000000391,
          "durationTicks": 24,
          "midi": 44,
          "name": "G#2",
          "ticks": 34488,
          "time": 213.41569575,
          "velocity": 0.12598425196850394
        },
        {
          "duration": 0.29702950000000783,
          "durationTicks": 48,
          "midi": 44,
          "name": "G#2",
          "ticks": 34512,
          "time": 213.5642105,
          "velocity": 1
        },
        {
          "duration": 0.2970294999999794,
          "durationTicks": 48,
          "midi": 56,
          "name": "G#3",
          "ticks": 34560,
          "time": 213.86124,
          "velocity": 1
        },
        {
          "duration": 0.29702950000000783,
          "durationTicks": 48,
          "midi": 44,
          "name": "G#2",
          "ticks": 34608,
          "time": 214.1582695,
          "velocity": 1
        },
        {
          "duration": 0.14851475000000391,
          "durationTicks": 24,
          "midi": 47,
          "name": "B2",
          "ticks": 34656,
          "time": 214.455299,
          "velocity": 1
        },
        {
          "duration": 0.29702950000000783,
          "durationTicks": 48,
          "midi": 49,
          "name": "C#3",
          "ticks": 34680,
          "time": 214.60381375,
          "velocity": 1
        },
        {
          "duration": 0.2970294999999794,
          "durationTicks": 48,
          "midi": 44,
          "name": "G#2",
          "ticks": 34728,
          "time": 214.90084325,
          "velocity": 0.12598425196850394
        },
        {
          "duration": 0.29702950000000783,
          "durationTicks": 48,
          "midi": 49,
          "name": "C#3",
          "ticks": 34824,
          "time": 215.49490225,
          "velocity": 1
        },
        {
          "duration": 0.29702950000000783,
          "durationTicks": 48,
          "midi": 47,
          "name": "B2",
          "ticks": 34872,
          "time": 215.79193175,
          "velocity": 1
        },
        {
          "duration": 0.2970294999999794,
          "durationTicks": 48,
          "midi": 44,
          "name": "G#2",
          "ticks": 34920,
          "time": 216.08896125,
          "velocity": 1
        },
        {
          "duration": 0.14851475000000391,
          "durationTicks": 24,
          "midi": 56,
          "name": "G#3",
          "ticks": 34968,
          "time": 216.38599075,
          "velocity": 1
        },
        {
          "duration": 0.14851475000000391,
          "durationTicks": 24,
          "midi": 47,
          "name": "B2",
          "ticks": 34992,
          "time": 216.5345055,
          "velocity": 0.12598425196850394
        },
        {
          "duration": 0.14851475000000391,
          "durationTicks": 24,
          "midi": 59,
          "name": "B3",
          "ticks": 35016,
          "time": 216.68302025,
          "velocity": 1
        },
        {
          "duration": 0.14851475000000391,
          "durationTicks": 24,
          "midi": 54,
          "name": "F#3",
          "ticks": 35040,
          "time": 216.831535,
          "velocity": 1
        },
        {
          "duration": 0.14851475000000391,
          "durationTicks": 24,
          "midi": 49,
          "name": "C#3",
          "ticks": 35064,
          "time": 216.98004975,
          "velocity": 1
        },
        {
          "duration": 0.14851475000000391,
          "durationTicks": 24,
          "midi": 59,
          "name": "B3",
          "ticks": 35088,
          "time": 217.1285645,
          "velocity": 0.12598425196850394
        },
        {
          "duration": 0.2970294999999794,
          "durationTicks": 48,
          "midi": 44,
          "name": "G#2",
          "ticks": 35112,
          "time": 217.27707925,
          "velocity": 1
        },
        {
          "duration": 0.14851475000000391,
          "durationTicks": 24,
          "midi": 47,
          "name": "B2",
          "ticks": 35160,
          "time": 217.57410875,
          "velocity": 1
        },
        {
          "duration": 0.14851475000000391,
          "durationTicks": 24,
          "midi": 49,
          "name": "C#3",
          "ticks": 35184,
          "time": 217.7226235,
          "velocity": 1
        },
        {
          "duration": 0.14851475000000391,
          "durationTicks": 24,
          "midi": 44,
          "name": "G#2",
          "ticks": 35208,
          "time": 217.87113825,
          "velocity": 0.12598425196850394
        },
        {
          "duration": 0.29702950000000783,
          "durationTicks": 48,
          "midi": 44,
          "name": "G#2",
          "ticks": 35232,
          "time": 218.019653,
          "velocity": 1
        },
        {
          "duration": 0.2970294999999794,
          "durationTicks": 48,
          "midi": 56,
          "name": "G#3",
          "ticks": 35280,
          "time": 218.3166825,
          "velocity": 1
        },
        {
          "duration": 0.29702950000000783,
          "durationTicks": 48,
          "midi": 44,
          "name": "G#2",
          "ticks": 35328,
          "time": 218.613712,
          "velocity": 1
        },
        {
          "duration": 0.14851475000000391,
          "durationTicks": 24,
          "midi": 44,
          "name": "G#2",
          "ticks": 35376,
          "time": 218.9107415,
          "velocity": 1
        },
        {
          "duration": 0.29702950000000783,
          "durationTicks": 48,
          "midi": 47,
          "name": "B2",
          "ticks": 35400,
          "time": 219.05925625,
          "velocity": 1
        },
        {
          "duration": 0.2970294999999794,
          "durationTicks": 48,
          "midi": 44,
          "name": "G#2",
          "ticks": 35448,
          "time": 219.35628575,
          "velocity": 0.12598425196850394
        },
        {
          "duration": 0.14851475000000391,
          "durationTicks": 24,
          "midi": 49,
          "name": "C#3",
          "ticks": 35544,
          "time": 219.95034475,
          "velocity": 1
        },
        {
          "duration": 0.14851475000000391,
          "durationTicks": 24,
          "midi": 44,
          "name": "G#2",
          "ticks": 35568,
          "time": 220.0988595,
          "velocity": 0.09448818897637795
        },
        {
          "duration": 0.29702950000000783,
          "durationTicks": 48,
          "midi": 47,
          "name": "B2",
          "ticks": 35592,
          "time": 220.24737425,
          "velocity": 1
        },
        {
          "duration": 0.2970294999999794,
          "durationTicks": 48,
          "midi": 44,
          "name": "G#2",
          "ticks": 35640,
          "time": 220.54440375000001,
          "velocity": 1
        },
        {
          "duration": 0.14851475000000391,
          "durationTicks": 24,
          "midi": 56,
          "name": "G#3",
          "ticks": 35688,
          "time": 220.84143325,
          "velocity": 1
        },
        {
          "duration": 0.14851475000000391,
          "durationTicks": 24,
          "midi": 47,
          "name": "B2",
          "ticks": 35712,
          "time": 220.989948,
          "velocity": 0.12598425196850394
        },
        {
          "duration": 0.14851475000000391,
          "durationTicks": 24,
          "midi": 59,
          "name": "B3",
          "ticks": 35736,
          "time": 221.13846275,
          "velocity": 1
        },
        {
          "duration": 0.14851475000000391,
          "durationTicks": 24,
          "midi": 54,
          "name": "F#3",
          "ticks": 35760,
          "time": 221.2869775,
          "velocity": 1
        },
        {
          "duration": 0.2970294999999794,
          "durationTicks": 48,
          "midi": 49,
          "name": "C#3",
          "ticks": 35784,
          "time": 221.43549225,
          "velocity": 1
        },
        {
          "duration": 0.40222744791668674,
          "durationTicks": 65,
          "midi": 44,
          "name": "G#2",
          "ticks": 35832,
          "time": 221.73252175,
          "velocity": 1
        },
        {
          "duration": 0.043316802083325,
          "durationTicks": 7,
          "midi": 47,
          "name": "B2",
          "ticks": 35897,
          "time": 222.13474919791668,
          "velocity": 1
        },
        {
          "duration": 0.14851475000000391,
          "durationTicks": 24,
          "midi": 49,
          "name": "C#3",
          "ticks": 35904,
          "time": 222.178066,
          "velocity": 1
        },
        {
          "duration": 0.14851475000000391,
          "durationTicks": 24,
          "midi": 44,
          "name": "G#2",
          "ticks": 35928,
          "time": 222.32658075,
          "velocity": 0.12598425196850394
        },
        {
          "duration": 0.29702950000000783,
          "durationTicks": 48,
          "midi": 44,
          "name": "G#2",
          "ticks": 35952,
          "time": 222.4750955,
          "velocity": 1
        },
        {
          "duration": 0.29702950000000783,
          "durationTicks": 48,
          "midi": 56,
          "name": "G#3",
          "ticks": 36000,
          "time": 222.77212500000002,
          "velocity": 1
        },
        {
          "duration": 0.2970294999999794,
          "durationTicks": 48,
          "midi": 44,
          "name": "G#2",
          "ticks": 36048,
          "time": 223.06915450000002,
          "velocity": 1
        },
        {
          "duration": 0.14851475000000391,
          "durationTicks": 24,
          "midi": 47,
          "name": "B2",
          "ticks": 36096,
          "time": 223.366184,
          "velocity": 1
        },
        {
          "duration": 0.29702950000000783,
          "durationTicks": 48,
          "midi": 49,
          "name": "C#3",
          "ticks": 36120,
          "time": 223.51469875,
          "velocity": 1
        },
        {
          "duration": 0.29702950000000783,
          "durationTicks": 48,
          "midi": 44,
          "name": "G#2",
          "ticks": 36168,
          "time": 223.81172825000002,
          "velocity": 0.09448818897637795
        },
        {
          "duration": 0.29702950000000783,
          "durationTicks": 48,
          "midi": 49,
          "name": "C#3",
          "ticks": 36264,
          "time": 224.40578725,
          "velocity": 1
        },
        {
          "duration": 0.29702950000000783,
          "durationTicks": 48,
          "midi": 47,
          "name": "B2",
          "ticks": 36312,
          "time": 224.70281675,
          "velocity": 1
        },
        {
          "duration": 0.29702950000000783,
          "durationTicks": 48,
          "midi": 44,
          "name": "G#2",
          "ticks": 36360,
          "time": 224.99984625000002,
          "velocity": 1
        },
        {
          "duration": 0.14851475000000391,
          "durationTicks": 24,
          "midi": 56,
          "name": "G#3",
          "ticks": 36408,
          "time": 225.29687575000003,
          "velocity": 1
        },
        {
          "duration": 0.1485147499999755,
          "durationTicks": 24,
          "midi": 47,
          "name": "B2",
          "ticks": 36432,
          "time": 225.44539050000003,
          "velocity": 0.09448818897637795
        },
        {
          "duration": 0.14851475000000391,
          "durationTicks": 24,
          "midi": 59,
          "name": "B3",
          "ticks": 36456,
          "time": 225.59390525,
          "velocity": 1
        },
        {
          "duration": 0.14851475000000391,
          "durationTicks": 24,
          "midi": 54,
          "name": "F#3",
          "ticks": 36480,
          "time": 225.74242,
          "velocity": 1
        },
        {
          "duration": 0.14851475000000391,
          "durationTicks": 24,
          "midi": 49,
          "name": "C#3",
          "ticks": 36504,
          "time": 225.89093475,
          "velocity": 1
        },
        {
          "duration": 0.14851475000000391,
          "durationTicks": 24,
          "midi": 59,
          "name": "B3",
          "ticks": 36528,
          "time": 226.03944950000002,
          "velocity": 0.09448818897637795
        },
        {
          "duration": 0.29702950000000783,
          "durationTicks": 48,
          "midi": 44,
          "name": "G#2",
          "ticks": 36552,
          "time": 226.18796425000002,
          "velocity": 1
        },
        {
          "duration": 0.1485147499999755,
          "durationTicks": 24,
          "midi": 47,
          "name": "B2",
          "ticks": 36600,
          "time": 226.48499375000003,
          "velocity": 1
        },
        {
          "duration": 0.14851475000000391,
          "durationTicks": 24,
          "midi": 49,
          "name": "C#3",
          "ticks": 36624,
          "time": 226.6335085,
          "velocity": 1
        },
        {
          "duration": 0.14851475000000391,
          "durationTicks": 24,
          "midi": 44,
          "name": "G#2",
          "ticks": 36648,
          "time": 226.78202325,
          "velocity": 0.09448818897637795
        },
        {
          "duration": 0.29702950000000783,
          "durationTicks": 48,
          "midi": 44,
          "name": "G#2",
          "ticks": 36672,
          "time": 226.930538,
          "velocity": 1
        },
        {
          "duration": 0.29702950000000783,
          "durationTicks": 48,
          "midi": 56,
          "name": "G#3",
          "ticks": 36720,
          "time": 227.22756750000002,
          "velocity": 1
        },
        {
          "duration": 0.2970294999999794,
          "durationTicks": 48,
          "midi": 44,
          "name": "G#2",
          "ticks": 36768,
          "time": 227.52459700000003,
          "velocity": 1
        },
        {
          "duration": 0.14851475000000391,
          "durationTicks": 24,
          "midi": 44,
          "name": "G#2",
          "ticks": 36816,
          "time": 227.8216265,
          "velocity": 1
        },
        {
          "duration": 0.29702950000000783,
          "durationTicks": 48,
          "midi": 47,
          "name": "B2",
          "ticks": 36840,
          "time": 227.97014125,
          "velocity": 1
        },
        {
          "duration": 0.29702950000000783,
          "durationTicks": 48,
          "midi": 44,
          "name": "G#2",
          "ticks": 36888,
          "time": 228.26717075000002,
          "velocity": 0.09448818897637795
        },
        {
          "duration": 0.14851475000000391,
          "durationTicks": 24,
          "midi": 49,
          "name": "C#3",
          "ticks": 36984,
          "time": 228.86122975,
          "velocity": 1
        },
        {
          "duration": 0.14851475000000391,
          "durationTicks": 24,
          "midi": 44,
          "name": "G#2",
          "ticks": 37008,
          "time": 229.0097445,
          "velocity": 0.047244094488188976
        },
        {
          "duration": 0.29702950000000783,
          "durationTicks": 48,
          "midi": 47,
          "name": "B2",
          "ticks": 37032,
          "time": 229.15825925000001,
          "velocity": 1
        },
        {
          "duration": 0.29702950000000783,
          "durationTicks": 48,
          "midi": 44,
          "name": "G#2",
          "ticks": 37080,
          "time": 229.45528875000002,
          "velocity": 1
        },
        {
          "duration": 0.1485147499999755,
          "durationTicks": 24,
          "midi": 56,
          "name": "G#3",
          "ticks": 37128,
          "time": 229.75231825000003,
          "velocity": 1
        },
        {
          "duration": 0.14851475000000391,
          "durationTicks": 24,
          "midi": 47,
          "name": "B2",
          "ticks": 37152,
          "time": 229.900833,
          "velocity": 0.09448818897637795
        },
        {
          "duration": 0.14851475000000391,
          "durationTicks": 24,
          "midi": 59,
          "name": "B3",
          "ticks": 37176,
          "time": 230.04934775,
          "velocity": 1
        },
        {
          "duration": 0.14851475000000391,
          "durationTicks": 24,
          "midi": 54,
          "name": "F#3",
          "ticks": 37200,
          "time": 230.1978625,
          "velocity": 1
        },
        {
          "duration": 0.29702950000000783,
          "durationTicks": 48,
          "midi": 49,
          "name": "C#3",
          "ticks": 37224,
          "time": 230.34637725000002,
          "velocity": 1
        },
        {
          "duration": 0.2970294999999794,
          "durationTicks": 48,
          "midi": 44,
          "name": "G#2",
          "ticks": 37272,
          "time": 230.64340675000003,
          "velocity": 1
        },
        {
          "duration": 0.14851475000000391,
          "durationTicks": 24,
          "midi": 47,
          "name": "B2",
          "ticks": 37320,
          "time": 230.94043625,
          "velocity": 1
        },
        {
          "duration": 0.14851475000000391,
          "durationTicks": 24,
          "midi": 49,
          "name": "C#3",
          "ticks": 37344,
          "time": 231.088951,
          "velocity": 1
        },
        {
          "duration": 0.14851475000000391,
          "durationTicks": 24,
          "midi": 44,
          "name": "G#2",
          "ticks": 37368,
          "time": 231.23746575,
          "velocity": 0.09448818897637795
        },
        {
          "duration": 0.29702950000000783,
          "durationTicks": 48,
          "midi": 44,
          "name": "G#2",
          "ticks": 37392,
          "time": 231.38598050000002,
          "velocity": 1
        },
        {
          "duration": 0.2970294999999794,
          "durationTicks": 48,
          "midi": 56,
          "name": "G#3",
          "ticks": 37440,
          "time": 231.68301000000002,
          "velocity": 1
        },
        {
          "duration": 0.29702950000000783,
          "durationTicks": 48,
          "midi": 44,
          "name": "G#2",
          "ticks": 37488,
          "time": 231.9800395,
          "velocity": 1
        },
        {
          "duration": 0.14851475000000391,
          "durationTicks": 24,
          "midi": 47,
          "name": "B2",
          "ticks": 37536,
          "time": 232.277069,
          "velocity": 1
        },
        {
          "duration": 0.29702950000000783,
          "durationTicks": 48,
          "midi": 49,
          "name": "C#3",
          "ticks": 37560,
          "time": 232.42558375000002,
          "velocity": 1
        },
        {
          "duration": 0.2970294999999794,
          "durationTicks": 48,
          "midi": 44,
          "name": "G#2",
          "ticks": 37608,
          "time": 232.72261325000002,
          "velocity": 0.09448818897637795
        },
        {
          "duration": 0.29702950000000783,
          "durationTicks": 48,
          "midi": 49,
          "name": "C#3",
          "ticks": 37704,
          "time": 233.31667225,
          "velocity": 1
        },
        {
          "duration": 0.29702950000000783,
          "durationTicks": 48,
          "midi": 47,
          "name": "B2",
          "ticks": 37752,
          "time": 233.61370175000002,
          "velocity": 1
        },
        {
          "duration": 0.2970294999999794,
          "durationTicks": 48,
          "midi": 44,
          "name": "G#2",
          "ticks": 37800,
          "time": 233.91073125000003,
          "velocity": 1
        },
        {
          "duration": 0.14851475000000391,
          "durationTicks": 24,
          "midi": 56,
          "name": "G#3",
          "ticks": 37848,
          "time": 234.20776075,
          "velocity": 1
        },
        {
          "duration": 0.14851475000000391,
          "durationTicks": 24,
          "midi": 47,
          "name": "B2",
          "ticks": 37872,
          "time": 234.3562755,
          "velocity": 0.09448818897637795
        },
        {
          "duration": 0.14851475000000391,
          "durationTicks": 24,
          "midi": 59,
          "name": "B3",
          "ticks": 37896,
          "time": 234.50479025,
          "velocity": 1
        },
        {
          "duration": 0.14851475000000391,
          "durationTicks": 24,
          "midi": 54,
          "name": "F#3",
          "ticks": 37920,
          "time": 234.65330500000002,
          "velocity": 1
        },
        {
          "duration": 0.14851475000000391,
          "durationTicks": 24,
          "midi": 49,
          "name": "C#3",
          "ticks": 37944,
          "time": 234.80181975000002,
          "velocity": 1
        },
        {
          "duration": 0.14851475000000391,
          "durationTicks": 24,
          "midi": 59,
          "name": "B3",
          "ticks": 37968,
          "time": 234.95033450000003,
          "velocity": 0.09448818897637795
        },
        {
          "duration": 0.2970294999999794,
          "durationTicks": 48,
          "midi": 44,
          "name": "G#2",
          "ticks": 37992,
          "time": 235.09884925000003,
          "velocity": 1
        },
        {
          "duration": 0.14851475000000391,
          "durationTicks": 24,
          "midi": 47,
          "name": "B2",
          "ticks": 38040,
          "time": 235.39587875,
          "velocity": 1
        },
        {
          "duration": 0.14851475000000391,
          "durationTicks": 24,
          "midi": 49,
          "name": "C#3",
          "ticks": 38064,
          "time": 235.5443935,
          "velocity": 1
        },
        {
          "duration": 0.14851475000000391,
          "durationTicks": 24,
          "midi": 44,
          "name": "G#2",
          "ticks": 38088,
          "time": 235.69290825000002,
          "velocity": 0.09448818897637795
        },
        {
          "duration": 0.29702950000000783,
          "durationTicks": 48,
          "midi": 44,
          "name": "G#2",
          "ticks": 38112,
          "time": 235.84142300000002,
          "velocity": 1
        },
        {
          "duration": 0.2970294999999794,
          "durationTicks": 48,
          "midi": 56,
          "name": "G#3",
          "ticks": 38160,
          "time": 236.13845250000003,
          "velocity": 1
        },
        {
          "duration": 0.29702950000000783,
          "durationTicks": 48,
          "midi": 44,
          "name": "G#2",
          "ticks": 38208,
          "time": 236.435482,
          "velocity": 1
        },
        {
          "duration": 0.14851475000000391,
          "durationTicks": 24,
          "midi": 44,
          "name": "G#2",
          "ticks": 38256,
          "time": 236.73251150000002,
          "velocity": 1
        },
        {
          "duration": 0.29702950000000783,
          "durationTicks": 48,
          "midi": 47,
          "name": "B2",
          "ticks": 38280,
          "time": 236.88102625000002,
          "velocity": 1
        },
        {
          "duration": 0.2970294999999794,
          "durationTicks": 48,
          "midi": 44,
          "name": "G#2",
          "ticks": 38328,
          "time": 237.17805575000003,
          "velocity": 0.09448818897637795
        },
        {
          "duration": 0.14851475000000391,
          "durationTicks": 24,
          "midi": 49,
          "name": "C#3",
          "ticks": 38424,
          "time": 237.77211475000001,
          "velocity": 1
        },
        {
          "duration": 0.14851475000000391,
          "durationTicks": 24,
          "midi": 44,
          "name": "G#2",
          "ticks": 38448,
          "time": 237.92062950000002,
          "velocity": 0.047244094488188976
        },
        {
          "duration": 0.29702950000000783,
          "durationTicks": 48,
          "midi": 47,
          "name": "B2",
          "ticks": 38472,
          "time": 238.06914425000002,
          "velocity": 1
        },
        {
          "duration": 0.2970294999999794,
          "durationTicks": 48,
          "midi": 44,
          "name": "G#2",
          "ticks": 38520,
          "time": 238.36617375000003,
          "velocity": 1
        },
        {
          "duration": 0.14851475000000391,
          "durationTicks": 24,
          "midi": 56,
          "name": "G#3",
          "ticks": 38568,
          "time": 238.66320325,
          "velocity": 1
        },
        {
          "duration": 0.29702950000000783,
          "durationTicks": 48,
          "midi": 47,
          "name": "B2",
          "ticks": 38592,
          "time": 238.811718,
          "velocity": 0.09448818897637795
        },
        {
          "duration": 0.7425737499999912,
          "durationTicks": 120,
          "midi": 44,
          "name": "G#2",
          "ticks": 38832,
          "time": 240.29686550000002,
          "velocity": 1
        }
      ],
      "endOfTrackTicks": 38952
    },
    {
      "channel": 0,
      "controlChanges": {},
      "pitchBends": [],
      "instrument": {
        "family": "piano",
        "number": 0,
        "name": "acoustic grand piano"
      },
      "name": "Track 06 (04:    The Goofy-Mouse)",
      "notes": [
        {
          "duration": 0.2970295000000007,
          "durationTicks": 48,
          "midi": 48,
          "name": "C3",
          "ticks": 1392,
          "time": 8.6138555,
          "velocity": 1
        },
        {
          "duration": 1.9306917499999994,
          "durationTicks": 312,
          "midi": 48,
          "name": "C3",
          "ticks": 1440,
          "time": 8.910885,
          "velocity": 1
        },
        {
          "duration": 0.2970295000000007,
          "durationTicks": 48,
          "midi": 48,
          "name": "C3",
          "ticks": 1752,
          "time": 10.84157675,
          "velocity": 1
        },
        {
          "duration": 1.782176999999999,
          "durationTicks": 288,
          "midi": 48,
          "name": "C3",
          "ticks": 1800,
          "time": 11.13860625,
          "velocity": 1
        },
        {
          "duration": 0.2970295000000007,
          "durationTicks": 48,
          "midi": 48,
          "name": "C3",
          "ticks": 2088,
          "time": 12.92078325,
          "velocity": 1
        },
        {
          "duration": 0.14851475000000036,
          "durationTicks": 24,
          "midi": 48,
          "name": "C3",
          "ticks": 2136,
          "time": 13.21781275,
          "velocity": 0.4566929133858268
        },
        {
          "duration": 0.74257375,
          "durationTicks": 120,
          "midi": 48,
          "name": "C3",
          "ticks": 2160,
          "time": 13.3663275,
          "velocity": 1
        },
        {
          "duration": 0.29702949999999895,
          "durationTicks": 48,
          "midi": 48,
          "name": "C3",
          "ticks": 2280,
          "time": 14.10890125,
          "velocity": 1
        },
        {
          "duration": 0.14851475000000036,
          "durationTicks": 24,
          "midi": 48,
          "name": "C3",
          "ticks": 2376,
          "time": 14.70296025,
          "velocity": 0.4566929133858268
        },
        {
          "duration": 0.4455442499999993,
          "durationTicks": 72,
          "midi": 48,
          "name": "C3",
          "ticks": 2400,
          "time": 14.851475,
          "velocity": 1
        },
        {
          "duration": 1.6336622499999987,
          "durationTicks": 264,
          "midi": 48,
          "name": "C3",
          "ticks": 2520,
          "time": 15.59404875,
          "velocity": 1
        },
        {
          "duration": 0.2970295000000007,
          "durationTicks": 48,
          "midi": 48,
          "name": "C3",
          "ticks": 2784,
          "time": 17.227711,
          "velocity": 1
        },
        {
          "duration": 0.5940590000000014,
          "durationTicks": 96,
          "midi": 48,
          "name": "C3",
          "ticks": 2880,
          "time": 17.82177,
          "velocity": 1
        },
        {
          "duration": 0.2970295000000007,
          "durationTicks": 48,
          "midi": 48,
          "name": "C3",
          "ticks": 3072,
          "time": 19.009888,
          "velocity": 1
        },
        {
          "duration": 0.14851475000000036,
          "durationTicks": 24,
          "midi": 48,
          "name": "C3",
          "ticks": 3168,
          "time": 19.603947,
          "velocity": 1
        },
        {
          "duration": 0.5940589999999979,
          "durationTicks": 96,
          "midi": 48,
          "name": "C3",
          "ticks": 3240,
          "time": 20.049491250000003,
          "velocity": 1
        },
        {
          "duration": 0.29702949999999717,
          "durationTicks": 48,
          "midi": 48,
          "name": "C3",
          "ticks": 3432,
          "time": 21.237609250000002,
          "velocity": 1
        },
        {
          "duration": 0.14851475000000036,
          "durationTicks": 24,
          "midi": 48,
          "name": "C3",
          "ticks": 3528,
          "time": 21.83166825,
          "velocity": 1
        },
        {
          "duration": 0.14851475000000036,
          "durationTicks": 24,
          "midi": 48,
          "name": "C3",
          "ticks": 3576,
          "time": 22.12869775,
          "velocity": 1
        },
        {
          "duration": 0.5940589999999979,
          "durationTicks": 96,
          "midi": 48,
          "name": "C3",
          "ticks": 3600,
          "time": 22.2772125,
          "velocity": 1
        },
        {
          "duration": 0.2970295000000007,
          "durationTicks": 48,
          "midi": 48,
          "name": "C3",
          "ticks": 3792,
          "time": 23.4653305,
          "velocity": 1
        },
        {
          "duration": 0.14851475000000036,
          "durationTicks": 24,
          "midi": 48,
          "name": "C3",
          "ticks": 3888,
          "time": 24.0593895,
          "velocity": 1
        },
        {
          "duration": 0.5940590000000014,
          "durationTicks": 96,
          "midi": 48,
          "name": "C3",
          "ticks": 3960,
          "time": 24.50493375,
          "velocity": 1
        },
        {
          "duration": 0.2970295000000007,
          "durationTicks": 48,
          "midi": 48,
          "name": "C3",
          "ticks": 4152,
          "time": 25.693051750000002,
          "velocity": 1
        },
        {
          "duration": 0.14851475000000036,
          "durationTicks": 24,
          "midi": 48,
          "name": "C3",
          "ticks": 4248,
          "time": 26.28711075,
          "velocity": 1
        },
        {
          "duration": 0.5940590000000014,
          "durationTicks": 96,
          "midi": 48,
          "name": "C3",
          "ticks": 4320,
          "time": 26.732655,
          "velocity": 1
        },
        {
          "duration": 0.2970295000000007,
          "durationTicks": 48,
          "midi": 48,
          "name": "C3",
          "ticks": 4512,
          "time": 27.920773,
          "velocity": 1
        },
        {
          "duration": 0.14851475000000391,
          "durationTicks": 24,
          "midi": 48,
          "name": "C3",
          "ticks": 4608,
          "time": 28.514832,
          "velocity": 1
        },
        {
          "duration": 0.5940589999999979,
          "durationTicks": 96,
          "midi": 48,
          "name": "C3",
          "ticks": 4680,
          "time": 28.960376250000003,
          "velocity": 1
        },
        {
          "duration": 0.2970295000000007,
          "durationTicks": 48,
          "midi": 48,
          "name": "C3",
          "ticks": 4872,
          "time": 30.14849425,
          "velocity": 1
        },
        {
          "duration": 0.14851475000000036,
          "durationTicks": 24,
          "midi": 48,
          "name": "C3",
          "ticks": 4968,
          "time": 30.74255325,
          "velocity": 1
        },
        {
          "duration": 0.14851475000000036,
          "durationTicks": 24,
          "midi": 48,
          "name": "C3",
          "ticks": 5016,
          "time": 31.03958275,
          "velocity": 1
        },
        {
          "duration": 0.5940589999999979,
          "durationTicks": 96,
          "midi": 48,
          "name": "C3",
          "ticks": 5040,
          "time": 31.1880975,
          "velocity": 1
        },
        {
          "duration": 0.2970295000000007,
          "durationTicks": 48,
          "midi": 48,
          "name": "C3",
          "ticks": 5232,
          "time": 32.3762155,
          "velocity": 1
        },
        {
          "duration": 0.1485147499999968,
          "durationTicks": 24,
          "midi": 48,
          "name": "C3",
          "ticks": 5328,
          "time": 32.9702745,
          "velocity": 1
        },
        {
          "duration": 0.5940590000000014,
          "durationTicks": 96,
          "midi": 48,
          "name": "C3",
          "ticks": 5400,
          "time": 33.41581875,
          "velocity": 1
        },
        {
          "duration": 0.2970294999999936,
          "durationTicks": 48,
          "midi": 48,
          "name": "C3",
          "ticks": 5592,
          "time": 34.60393675,
          "velocity": 1
        },
        {
          "duration": 0.1485147499999968,
          "durationTicks": 24,
          "midi": 48,
          "name": "C3",
          "ticks": 5688,
          "time": 35.197995750000004,
          "velocity": 1
        },
        {
          "duration": 0.5940590000000014,
          "durationTicks": 96,
          "midi": 48,
          "name": "C3",
          "ticks": 5760,
          "time": 35.64354,
          "velocity": 1
        },
        {
          "duration": 0.2970294999999936,
          "durationTicks": 48,
          "midi": 48,
          "name": "C3",
          "ticks": 5952,
          "time": 36.831658000000004,
          "velocity": 1
        },
        {
          "duration": 0.1485147499999897,
          "durationTicks": 24,
          "midi": 48,
          "name": "C3",
          "ticks": 6048,
          "time": 37.425717000000006,
          "velocity": 1
        },
        {
          "duration": 0.5940590000000014,
          "durationTicks": 96,
          "midi": 48,
          "name": "C3",
          "ticks": 6120,
          "time": 37.87126125,
          "velocity": 1
        },
        {
          "duration": 0.2970295000000007,
          "durationTicks": 48,
          "midi": 48,
          "name": "C3",
          "ticks": 6312,
          "time": 39.05937925,
          "velocity": 1
        },
        {
          "duration": 0.1485147499999968,
          "durationTicks": 24,
          "midi": 48,
          "name": "C3",
          "ticks": 6408,
          "time": 39.65343825,
          "velocity": 1
        },
        {
          "duration": 0.14851475000000391,
          "durationTicks": 24,
          "midi": 48,
          "name": "C3",
          "ticks": 6456,
          "time": 39.95046775,
          "velocity": 1
        },
        {
          "duration": 0.2970295000000007,
          "durationTicks": 48,
          "midi": 48,
          "name": "C3",
          "ticks": 6672,
          "time": 41.2871005,
          "velocity": 1
        },
        {
          "duration": 0.1485147499999968,
          "durationTicks": 24,
          "midi": 48,
          "name": "C3",
          "ticks": 6768,
          "time": 41.8811595,
          "velocity": 1
        },
        {
          "duration": 0.5940590000000014,
          "durationTicks": 96,
          "midi": 48,
          "name": "C3",
          "ticks": 6840,
          "time": 42.32670375,
          "velocity": 1
        },
        {
          "duration": 0.29702950000000783,
          "durationTicks": 48,
          "midi": 48,
          "name": "C3",
          "ticks": 7032,
          "time": 43.514821749999996,
          "velocity": 1
        },
        {
          "duration": 0.14851475000000391,
          "durationTicks": 24,
          "midi": 48,
          "name": "C3",
          "ticks": 7128,
          "time": 44.10888075,
          "velocity": 1
        },
        {
          "duration": 0.5940589999999943,
          "durationTicks": 96,
          "midi": 48,
          "name": "C3",
          "ticks": 7200,
          "time": 44.554425,
          "velocity": 1
        },
        {
          "duration": 0.29702950000000783,
          "durationTicks": 48,
          "midi": 48,
          "name": "C3",
          "ticks": 7392,
          "time": 45.742543,
          "velocity": 1
        },
        {
          "duration": 0.14851475000000391,
          "durationTicks": 24,
          "midi": 48,
          "name": "C3",
          "ticks": 7488,
          "time": 46.336602,
          "velocity": 1
        },
        {
          "duration": 0.5940590000000014,
          "durationTicks": 96,
          "midi": 48,
          "name": "C3",
          "ticks": 7560,
          "time": 46.78214625,
          "velocity": 1
        },
        {
          "duration": 0.2970295000000007,
          "durationTicks": 48,
          "midi": 48,
          "name": "C3",
          "ticks": 7752,
          "time": 47.97026425,
          "velocity": 1
        },
        {
          "duration": 0.14851475000000391,
          "durationTicks": 24,
          "midi": 48,
          "name": "C3",
          "ticks": 7848,
          "time": 48.56432325,
          "velocity": 1
        },
        {
          "duration": 0.1485147499999968,
          "durationTicks": 24,
          "midi": 48,
          "name": "C3",
          "ticks": 7896,
          "time": 48.86135275,
          "velocity": 1
        },
        {
          "duration": 0.5940590000000014,
          "durationTicks": 96,
          "midi": 48,
          "name": "C3",
          "ticks": 7920,
          "time": 49.0098675,
          "velocity": 1
        },
        {
          "duration": 0.2970295000000007,
          "durationTicks": 48,
          "midi": 48,
          "name": "C3",
          "ticks": 8112,
          "time": 50.1979855,
          "velocity": 1
        },
        {
          "duration": 0.1485147499999968,
          "durationTicks": 24,
          "midi": 48,
          "name": "C3",
          "ticks": 8208,
          "time": 50.7920445,
          "velocity": 1
        },
        {
          "duration": 0.5940590000000014,
          "durationTicks": 96,
          "midi": 48,
          "name": "C3",
          "ticks": 8280,
          "time": 51.23758875,
          "velocity": 1
        },
        {
          "duration": 0.2970295000000007,
          "durationTicks": 48,
          "midi": 48,
          "name": "C3",
          "ticks": 8472,
          "time": 52.42570675,
          "velocity": 1
        },
        {
          "duration": 0.14851475000000391,
          "durationTicks": 24,
          "midi": 48,
          "name": "C3",
          "ticks": 8568,
          "time": 53.01976575,
          "velocity": 1
        },
        {
          "duration": 0.5940590000000014,
          "durationTicks": 96,
          "midi": 48,
          "name": "C3",
          "ticks": 8640,
          "time": 53.46531,
          "velocity": 1
        },
        {
          "duration": 0.2970295000000007,
          "durationTicks": 48,
          "midi": 48,
          "name": "C3",
          "ticks": 8832,
          "time": 54.653428,
          "velocity": 1
        },
        {
          "duration": 0.14851475000000391,
          "durationTicks": 24,
          "midi": 48,
          "name": "C3",
          "ticks": 8928,
          "time": 55.247487,
          "velocity": 1
        },
        {
          "duration": 0.5940589999999943,
          "durationTicks": 96,
          "midi": 48,
          "name": "C3",
          "ticks": 9000,
          "time": 55.693031250000004,
          "velocity": 1
        },
        {
          "duration": 0.2970295000000007,
          "durationTicks": 48,
          "midi": 48,
          "name": "C3",
          "ticks": 9192,
          "time": 56.88114925,
          "velocity": 1
        },
        {
          "duration": 0.1485147499999968,
          "durationTicks": 24,
          "midi": 48,
          "name": "C3",
          "ticks": 9288,
          "time": 57.47520825,
          "velocity": 1
        },
        {
          "duration": 0.1485147499999968,
          "durationTicks": 24,
          "midi": 48,
          "name": "C3",
          "ticks": 9336,
          "time": 57.77223775,
          "velocity": 1
        },
        {
          "duration": 0.5940590000000014,
          "durationTicks": 96,
          "midi": 48,
          "name": "C3",
          "ticks": 9360,
          "time": 57.9207525,
          "velocity": 1
        },
        {
          "duration": 0.2970295000000007,
          "durationTicks": 48,
          "midi": 48,
          "name": "C3",
          "ticks": 9552,
          "time": 59.1088705,
          "velocity": 1
        },
        {
          "duration": 0.1485147499999968,
          "durationTicks": 24,
          "midi": 48,
          "name": "C3",
          "ticks": 9648,
          "time": 59.7029295,
          "velocity": 1
        },
        {
          "duration": 0.5940590000000014,
          "durationTicks": 96,
          "midi": 48,
          "name": "C3",
          "ticks": 9720,
          "time": 60.14847375,
          "velocity": 1
        },
        {
          "duration": 0.2970295000000007,
          "durationTicks": 48,
          "midi": 48,
          "name": "C3",
          "ticks": 9912,
          "time": 61.336591750000004,
          "velocity": 1
        },
        {
          "duration": 0.14851475000000391,
          "durationTicks": 24,
          "midi": 48,
          "name": "C3",
          "ticks": 10008,
          "time": 61.93065075,
          "velocity": 1
        },
        {
          "duration": 0.5940590000000014,
          "durationTicks": 96,
          "midi": 48,
          "name": "C3",
          "ticks": 10080,
          "time": 62.376195,
          "velocity": 1
        },
        {
          "duration": 0.2970295000000007,
          "durationTicks": 48,
          "midi": 48,
          "name": "C3",
          "ticks": 10272,
          "time": 63.564313,
          "velocity": 1
        },
        {
          "duration": 0.14851475000000391,
          "durationTicks": 24,
          "midi": 48,
          "name": "C3",
          "ticks": 10368,
          "time": 64.158372,
          "velocity": 1
        },
        {
          "duration": 0.5940590000000014,
          "durationTicks": 96,
          "midi": 48,
          "name": "C3",
          "ticks": 10440,
          "time": 64.60391625,
          "velocity": 1
        },
        {
          "duration": 0.29702950000000783,
          "durationTicks": 48,
          "midi": 48,
          "name": "C3",
          "ticks": 10632,
          "time": 65.79203425,
          "velocity": 1
        },
        {
          "duration": 0.1485147499999897,
          "durationTicks": 24,
          "midi": 48,
          "name": "C3",
          "ticks": 10728,
          "time": 66.38609325,
          "velocity": 1
        },
        {
          "duration": 0.14851475000000391,
          "durationTicks": 24,
          "midi": 48,
          "name": "C3",
          "ticks": 10776,
          "time": 66.68312275,
          "velocity": 1
        },
        {
          "duration": 0.5940590000000014,
          "durationTicks": 96,
          "midi": 48,
          "name": "C3",
          "ticks": 10800,
          "time": 66.8316375,
          "velocity": 1
        },
        {
          "duration": 0.29702950000000783,
          "durationTicks": 48,
          "midi": 48,
          "name": "C3",
          "ticks": 10992,
          "time": 68.0197555,
          "velocity": 1
        },
        {
          "duration": 0.1485147499999897,
          "durationTicks": 24,
          "midi": 48,
          "name": "C3",
          "ticks": 11088,
          "time": 68.6138145,
          "velocity": 1
        },
        {
          "duration": 0.5940590000000014,
          "durationTicks": 96,
          "midi": 48,
          "name": "C3",
          "ticks": 11160,
          "time": 69.05935875,
          "velocity": 1
        },
        {
          "duration": 0.2970294999999936,
          "durationTicks": 48,
          "midi": 48,
          "name": "C3",
          "ticks": 11352,
          "time": 70.24747675,
          "velocity": 1
        },
        {
          "duration": 0.14851475000000391,
          "durationTicks": 24,
          "midi": 48,
          "name": "C3",
          "ticks": 11448,
          "time": 70.84153574999999,
          "velocity": 1
        },
        {
          "duration": 0.5940590000000014,
          "durationTicks": 96,
          "midi": 48,
          "name": "C3",
          "ticks": 11520,
          "time": 71.28708,
          "velocity": 1
        },
        {
          "duration": 0.2970294999999936,
          "durationTicks": 48,
          "midi": 48,
          "name": "C3",
          "ticks": 11712,
          "time": 72.475198,
          "velocity": 1
        },
        {
          "duration": 0.14851475000000391,
          "durationTicks": 24,
          "midi": 48,
          "name": "C3",
          "ticks": 11808,
          "time": 73.069257,
          "velocity": 1
        },
        {
          "duration": 0.5940589999999872,
          "durationTicks": 96,
          "midi": 48,
          "name": "C3",
          "ticks": 11880,
          "time": 73.51480125,
          "velocity": 1
        },
        {
          "duration": 0.2970294999999936,
          "durationTicks": 48,
          "midi": 48,
          "name": "C3",
          "ticks": 12072,
          "time": 74.70291925000001,
          "velocity": 1
        },
        {
          "duration": 0.14851475000000391,
          "durationTicks": 24,
          "midi": 48,
          "name": "C3",
          "ticks": 12168,
          "time": 75.29697825,
          "velocity": 1
        },
        {
          "duration": 0.14851475000000391,
          "durationTicks": 24,
          "midi": 48,
          "name": "C3",
          "ticks": 12216,
          "time": 75.59400775,
          "velocity": 1
        },
        {
          "duration": 0.14851475000000391,
          "durationTicks": 24,
          "midi": 48,
          "name": "C3",
          "ticks": 12240,
          "time": 75.7425225,
          "velocity": 1
        },
        {
          "duration": 0.2970294999999936,
          "durationTicks": 48,
          "midi": 48,
          "name": "C3",
          "ticks": 12432,
          "time": 76.93064050000001,
          "velocity": 1
        },
        {
          "duration": 0.14851475000000391,
          "durationTicks": 24,
          "midi": 48,
          "name": "C3",
          "ticks": 12528,
          "time": 77.5246995,
          "velocity": 1
        },
        {
          "duration": 0.5940589999999872,
          "durationTicks": 96,
          "midi": 48,
          "name": "C3",
          "ticks": 12600,
          "time": 77.97024375000001,
          "velocity": 1
        },
        {
          "duration": 0.2970294999999794,
          "durationTicks": 48,
          "midi": 48,
          "name": "C3",
          "ticks": 12792,
          "time": 79.15836175000001,
          "velocity": 1
        },
        {
          "duration": 0.14851475000000391,
          "durationTicks": 24,
          "midi": 48,
          "name": "C3",
          "ticks": 12888,
          "time": 79.75242075,
          "velocity": 1
        },
        {
          "duration": 1.930691749999994,
          "durationTicks": 312,
          "midi": 48,
          "name": "C3",
          "ticks": 12960,
          "time": 80.19796500000001,
          "velocity": 1
        },
        {
          "duration": 0.29702950000000783,
          "durationTicks": 48,
          "midi": 48,
          "name": "C3",
          "ticks": 13272,
          "time": 82.12865675,
          "velocity": 1
        },
        {
          "duration": 1.7821770000000043,
          "durationTicks": 288,
          "midi": 48,
          "name": "C3",
          "ticks": 13320,
          "time": 82.42568625000001,
          "velocity": 1
        },
        {
          "duration": 0.2970294999999936,
          "durationTicks": 48,
          "midi": 48,
          "name": "C3",
          "ticks": 13608,
          "time": 84.20786325000002,
          "velocity": 1
        },
        {
          "duration": 0.14851475000000391,
          "durationTicks": 24,
          "midi": 48,
          "name": "C3",
          "ticks": 13656,
          "time": 84.50489275000001,
          "velocity": 0.4566929133858268
        },
        {
          "duration": 0.7425737499999912,
          "durationTicks": 120,
          "midi": 48,
          "name": "C3",
          "ticks": 13680,
          "time": 84.65340750000001,
          "velocity": 1
        },
        {
          "duration": 0.29702950000000783,
          "durationTicks": 48,
          "midi": 48,
          "name": "C3",
          "ticks": 13800,
          "time": 85.39598125,
          "velocity": 1
        },
        {
          "duration": 0.14851475000000391,
          "durationTicks": 24,
          "midi": 48,
          "name": "C3",
          "ticks": 13896,
          "time": 85.99004025,
          "velocity": 0.4566929133858268
        },
        {
          "duration": 0.44554424999999753,
          "durationTicks": 72,
          "midi": 48,
          "name": "C3",
          "ticks": 13920,
          "time": 86.13855500000001,
          "velocity": 1
        },
        {
          "duration": 1.6336622500000004,
          "durationTicks": 264,
          "midi": 48,
          "name": "C3",
          "ticks": 14040,
          "time": 86.88112875000002,
          "velocity": 1
        },
        {
          "duration": 0.2970294999999936,
          "durationTicks": 48,
          "midi": 48,
          "name": "C3",
          "ticks": 14304,
          "time": 88.51479100000002,
          "velocity": 1
        },
        {
          "duration": 1.930691749999994,
          "durationTicks": 312,
          "midi": 48,
          "name": "C3",
          "ticks": 14400,
          "time": 89.10885000000002,
          "velocity": 1
        },
        {
          "duration": 0.29702950000000783,
          "durationTicks": 48,
          "midi": 48,
          "name": "C3",
          "ticks": 14712,
          "time": 91.03954175000001,
          "velocity": 1
        },
        {
          "duration": 1.7821770000000043,
          "durationTicks": 288,
          "midi": 48,
          "name": "C3",
          "ticks": 14760,
          "time": 91.33657125000002,
          "velocity": 1
        },
        {
          "duration": 0.2970294999999936,
          "durationTicks": 48,
          "midi": 48,
          "name": "C3",
          "ticks": 15048,
          "time": 93.11874825000002,
          "velocity": 1
        },
        {
          "duration": 0.14851475000000391,
          "durationTicks": 24,
          "midi": 48,
          "name": "C3",
          "ticks": 15096,
          "time": 93.41577775000002,
          "velocity": 0.4566929133858268
        },
        {
          "duration": 3.8613835000000023,
          "durationTicks": 624,
          "midi": 48,
          "name": "C3",
          "ticks": 15120,
          "time": 93.56429250000002,
          "velocity": 1
        },
        {
          "duration": 0.2970294999999936,
          "durationTicks": 48,
          "midi": 48,
          "name": "C3",
          "ticks": 15744,
          "time": 97.42567600000002,
          "velocity": 1
        },
        {
          "duration": 0.5940589999999872,
          "durationTicks": 96,
          "midi": 48,
          "name": "C3",
          "ticks": 15840,
          "time": 98.01973500000003,
          "velocity": 1
        },
        {
          "duration": 0.29702950000000783,
          "durationTicks": 48,
          "midi": 48,
          "name": "C3",
          "ticks": 16032,
          "time": 99.20785300000001,
          "velocity": 1
        },
        {
          "duration": 0.14851475000000391,
          "durationTicks": 24,
          "midi": 48,
          "name": "C3",
          "ticks": 16128,
          "time": 99.80191200000002,
          "velocity": 1
        },
        {
          "duration": 0.5940590000000014,
          "durationTicks": 96,
          "midi": 48,
          "name": "C3",
          "ticks": 16200,
          "time": 100.24745625000001,
          "velocity": 1
        },
        {
          "duration": 0.29702950000000783,
          "durationTicks": 48,
          "midi": 48,
          "name": "C3",
          "ticks": 16392,
          "time": 101.43557425000002,
          "velocity": 1
        },
        {
          "duration": 0.14851475000000391,
          "durationTicks": 24,
          "midi": 48,
          "name": "C3",
          "ticks": 16488,
          "time": 102.02963325000002,
          "velocity": 1
        },
        {
          "duration": 0.1485147499999897,
          "durationTicks": 24,
          "midi": 48,
          "name": "C3",
          "ticks": 16536,
          "time": 102.32666275000003,
          "velocity": 1
        },
        {
          "duration": 0.5940590000000014,
          "durationTicks": 96,
          "midi": 48,
          "name": "C3",
          "ticks": 16560,
          "time": 102.47517750000002,
          "velocity": 1
        },
        {
          "duration": 0.2970294999999936,
          "durationTicks": 48,
          "midi": 48,
          "name": "C3",
          "ticks": 16752,
          "time": 103.66329550000002,
          "velocity": 1
        },
        {
          "duration": 0.14851475000000391,
          "durationTicks": 24,
          "midi": 48,
          "name": "C3",
          "ticks": 16848,
          "time": 104.25735450000002,
          "velocity": 1
        },
        {
          "duration": 0.5940590000000014,
          "durationTicks": 96,
          "midi": 48,
          "name": "C3",
          "ticks": 16920,
          "time": 104.70289875000002,
          "velocity": 1
        },
        {
          "duration": 0.2970294999999936,
          "durationTicks": 48,
          "midi": 48,
          "name": "C3",
          "ticks": 17112,
          "time": 105.89101675000002,
          "velocity": 1
        },
        {
          "duration": 0.14851475000000391,
          "durationTicks": 24,
          "midi": 48,
          "name": "C3",
          "ticks": 17208,
          "time": 106.48507575000002,
          "velocity": 1
        },
        {
          "duration": 0.5940590000000014,
          "durationTicks": 96,
          "midi": 48,
          "name": "C3",
          "ticks": 17280,
          "time": 106.93062000000002,
          "velocity": 1
        },
        {
          "duration": 0.2970294999999936,
          "durationTicks": 48,
          "midi": 48,
          "name": "C3",
          "ticks": 17472,
          "time": 108.11873800000002,
          "velocity": 1
        },
        {
          "duration": 0.1485147499999897,
          "durationTicks": 24,
          "midi": 48,
          "name": "C3",
          "ticks": 17568,
          "time": 108.71279700000002,
          "velocity": 1
        },
        {
          "duration": 0.5940590000000014,
          "durationTicks": 96,
          "midi": 48,
          "name": "C3",
          "ticks": 17640,
          "time": 109.15834125000002,
          "velocity": 1
        },
        {
          "duration": 0.29702950000000783,
          "durationTicks": 48,
          "midi": 48,
          "name": "C3",
          "ticks": 17832,
          "time": 110.34645925000001,
          "velocity": 1
        },
        {
          "duration": 0.1485147499999897,
          "durationTicks": 24,
          "midi": 48,
          "name": "C3",
          "ticks": 17928,
          "time": 110.94051825000003,
          "velocity": 1
        },
        {
          "duration": 0.14851475000000391,
          "durationTicks": 24,
          "midi": 48,
          "name": "C3",
          "ticks": 17976,
          "time": 111.23754775000002,
          "velocity": 1
        },
        {
          "duration": 0.5940590000000014,
          "durationTicks": 96,
          "midi": 48,
          "name": "C3",
          "ticks": 18000,
          "time": 111.38606250000002,
          "velocity": 1
        },
        {
          "duration": 0.29702950000000783,
          "durationTicks": 48,
          "midi": 48,
          "name": "C3",
          "ticks": 18192,
          "time": 112.57418050000001,
          "velocity": 1
        },
        {
          "duration": 0.1485147499999897,
          "durationTicks": 24,
          "midi": 48,
          "name": "C3",
          "ticks": 18288,
          "time": 113.16823950000003,
          "velocity": 1
        },
        {
          "duration": 0.5940590000000157,
          "durationTicks": 96,
          "midi": 48,
          "name": "C3",
          "ticks": 18360,
          "time": 113.61378375000001,
          "velocity": 1
        },
        {
          "duration": 0.29702950000000783,
          "durationTicks": 48,
          "midi": 48,
          "name": "C3",
          "ticks": 18552,
          "time": 114.80190175000001,
          "velocity": 1
        },
        {
          "duration": 0.14851475000000391,
          "durationTicks": 24,
          "midi": 48,
          "name": "C3",
          "ticks": 18648,
          "time": 115.39596075000001,
          "velocity": 1
        },
        {
          "duration": 0.5940590000000014,
          "durationTicks": 96,
          "midi": 48,
          "name": "C3",
          "ticks": 18720,
          "time": 115.84150500000001,
          "velocity": 1
        },
        {
          "duration": 0.29702950000000783,
          "durationTicks": 48,
          "midi": 48,
          "name": "C3",
          "ticks": 18912,
          "time": 117.02962300000002,
          "velocity": 1
        },
        {
          "duration": 0.14851475000000391,
          "durationTicks": 24,
          "midi": 48,
          "name": "C3",
          "ticks": 19008,
          "time": 117.62368200000002,
          "velocity": 1
        },
        {
          "duration": 0.5940590000000014,
          "durationTicks": 96,
          "midi": 48,
          "name": "C3",
          "ticks": 19080,
          "time": 118.06922625000001,
          "velocity": 1
        },
        {
          "duration": 0.29702950000000783,
          "durationTicks": 48,
          "midi": 48,
          "name": "C3",
          "ticks": 19272,
          "time": 119.25734425000002,
          "velocity": 1
        },
        {
          "duration": 0.14851475000000391,
          "durationTicks": 24,
          "midi": 48,
          "name": "C3",
          "ticks": 19368,
          "time": 119.85140325000002,
          "velocity": 1
        },
        {
          "duration": 0.14851475000000391,
          "durationTicks": 24,
          "midi": 48,
          "name": "C3",
          "ticks": 19416,
          "time": 120.14843275000001,
          "velocity": 1
        },
        {
          "duration": 0.5940590000000014,
          "durationTicks": 96,
          "midi": 48,
          "name": "C3",
          "ticks": 19440,
          "time": 120.29694750000002,
          "velocity": 1
        },
        {
          "duration": 0.29702950000000783,
          "durationTicks": 48,
          "midi": 48,
          "name": "C3",
          "ticks": 19632,
          "time": 121.48506550000002,
          "velocity": 1
        },
        {
          "duration": 0.1485147499999897,
          "durationTicks": 24,
          "midi": 48,
          "name": "C3",
          "ticks": 19728,
          "time": 122.07912450000002,
          "velocity": 1
        },
        {
          "duration": 0.5940590000000014,
          "durationTicks": 96,
          "midi": 48,
          "name": "C3",
          "ticks": 19800,
          "time": 122.52466875000002,
          "velocity": 1
        },
        {
          "duration": 0.29702950000000783,
          "durationTicks": 48,
          "midi": 48,
          "name": "C3",
          "ticks": 19992,
          "time": 123.71278675000002,
          "velocity": 1
        },
        {
          "duration": 0.14851475000000391,
          "durationTicks": 24,
          "midi": 48,
          "name": "C3",
          "ticks": 20088,
          "time": 124.30684575000001,
          "velocity": 1
        },
        {
          "duration": 0.5940590000000014,
          "durationTicks": 96,
          "midi": 48,
          "name": "C3",
          "ticks": 20160,
          "time": 124.75239000000002,
          "velocity": 1
        },
        {
          "duration": 0.2970294999999936,
          "durationTicks": 48,
          "midi": 48,
          "name": "C3",
          "ticks": 20352,
          "time": 125.94050800000002,
          "velocity": 1
        },
        {
          "duration": 0.14851475000000391,
          "durationTicks": 24,
          "midi": 48,
          "name": "C3",
          "ticks": 20448,
          "time": 126.53456700000001,
          "velocity": 1
        },
        {
          "duration": 0.5940589999999872,
          "durationTicks": 96,
          "midi": 48,
          "name": "C3",
          "ticks": 20520,
          "time": 126.98011125000002,
          "velocity": 1
        },
        {
          "duration": 0.29702950000000783,
          "durationTicks": 48,
          "midi": 48,
          "name": "C3",
          "ticks": 20712,
          "time": 128.16822925000002,
          "velocity": 1
        },
        {
          "duration": 0.14851475000000391,
          "durationTicks": 24,
          "midi": 48,
          "name": "C3",
          "ticks": 20808,
          "time": 128.76228825,
          "velocity": 1
        },
        {
          "duration": 0.14851475000000391,
          "durationTicks": 24,
          "midi": 48,
          "name": "C3",
          "ticks": 20856,
          "time": 129.05931775000002,
          "velocity": 1
        },
        {
          "duration": 0.5940589999999872,
          "durationTicks": 96,
          "midi": 48,
          "name": "C3",
          "ticks": 20880,
          "time": 129.20783250000002,
          "velocity": 1
        },
        {
          "duration": 0.29702950000000783,
          "durationTicks": 48,
          "midi": 48,
          "name": "C3",
          "ticks": 21072,
          "time": 130.39595050000003,
          "velocity": 1
        },
        {
          "duration": 0.14851475000000391,
          "durationTicks": 24,
          "midi": 48,
          "name": "C3",
          "ticks": 21168,
          "time": 130.9900095,
          "velocity": 1
        },
        {
          "duration": 0.5940589999999872,
          "durationTicks": 96,
          "midi": 48,
          "name": "C3",
          "ticks": 21240,
          "time": 131.43555375000003,
          "velocity": 1
        },
        {
          "duration": 0.29702950000000783,
          "durationTicks": 48,
          "midi": 48,
          "name": "C3",
          "ticks": 21432,
          "time": 132.62367175000003,
          "velocity": 1
        },
        {
          "duration": 0.14851475000000391,
          "durationTicks": 24,
          "midi": 48,
          "name": "C3",
          "ticks": 21528,
          "time": 133.21773075000002,
          "velocity": 1
        },
        {
          "duration": 0.5940589999999872,
          "durationTicks": 96,
          "midi": 48,
          "name": "C3",
          "ticks": 21600,
          "time": 133.66327500000003,
          "velocity": 1
        },
        {
          "duration": 0.2970294999999794,
          "durationTicks": 48,
          "midi": 48,
          "name": "C3",
          "ticks": 21792,
          "time": 134.85139300000003,
          "velocity": 1
        },
        {
          "duration": 0.14851475000000391,
          "durationTicks": 24,
          "midi": 48,
          "name": "C3",
          "ticks": 21888,
          "time": 135.44545200000002,
          "velocity": 1
        },
        {
          "duration": 0.5940589999999872,
          "durationTicks": 96,
          "midi": 48,
          "name": "C3",
          "ticks": 21960,
          "time": 135.89099625000003,
          "velocity": 1
        },
        {
          "duration": 0.2970294999999794,
          "durationTicks": 48,
          "midi": 48,
          "name": "C3",
          "ticks": 22152,
          "time": 137.07911425000003,
          "velocity": 1
        },
        {
          "duration": 0.14851475000000391,
          "durationTicks": 24,
          "midi": 48,
          "name": "C3",
          "ticks": 22248,
          "time": 137.67317325000002,
          "velocity": 1
        },
        {
          "duration": 0.1485147499999755,
          "durationTicks": 24,
          "midi": 48,
          "name": "C3",
          "ticks": 22296,
          "time": 137.97020275000003,
          "velocity": 1
        },
        {
          "duration": 0.5940590000000157,
          "durationTicks": 96,
          "midi": 48,
          "name": "C3",
          "ticks": 22320,
          "time": 138.1187175,
          "velocity": 1
        },
        {
          "duration": 0.2970294999999794,
          "durationTicks": 48,
          "midi": 48,
          "name": "C3",
          "ticks": 22512,
          "time": 139.30683550000003,
          "velocity": 1
        },
        {
          "duration": 0.14851475000000391,
          "durationTicks": 24,
          "midi": 48,
          "name": "C3",
          "ticks": 22608,
          "time": 139.90089450000002,
          "velocity": 1
        },
        {
          "duration": 0.5940590000000157,
          "durationTicks": 96,
          "midi": 48,
          "name": "C3",
          "ticks": 22680,
          "time": 140.34643875,
          "velocity": 1
        },
        {
          "duration": 0.2970294999999794,
          "durationTicks": 48,
          "midi": 48,
          "name": "C3",
          "ticks": 22872,
          "time": 141.53455675000004,
          "velocity": 1
        },
        {
          "duration": 0.14851475000000391,
          "durationTicks": 24,
          "midi": 48,
          "name": "C3",
          "ticks": 22968,
          "time": 142.12861575000002,
          "velocity": 1
        },
        {
          "duration": 0.2970294999999794,
          "durationTicks": 48,
          "midi": 48,
          "name": "C3",
          "ticks": 24384,
          "time": 150.89098600000003,
          "velocity": 1
        },
        {
          "duration": 0.5940590000000157,
          "durationTicks": 96,
          "midi": 48,
          "name": "C3",
          "ticks": 24480,
          "time": 151.485045,
          "velocity": 1
        },
        {
          "duration": 0.29702950000000783,
          "durationTicks": 48,
          "midi": 48,
          "name": "C3",
          "ticks": 24672,
          "time": 152.67316300000002,
          "velocity": 1
        },
        {
          "duration": 0.14851475000000391,
          "durationTicks": 24,
          "midi": 48,
          "name": "C3",
          "ticks": 24768,
          "time": 153.267222,
          "velocity": 1
        },
        {
          "duration": 0.5940590000000157,
          "durationTicks": 96,
          "midi": 48,
          "name": "C3",
          "ticks": 24840,
          "time": 153.71276625000002,
          "velocity": 1
        },
        {
          "duration": 0.2970294999999794,
          "durationTicks": 48,
          "midi": 48,
          "name": "C3",
          "ticks": 25032,
          "time": 154.90088425000002,
          "velocity": 1
        },
        {
          "duration": 0.14851475000000391,
          "durationTicks": 24,
          "midi": 48,
          "name": "C3",
          "ticks": 25128,
          "time": 155.49494325,
          "velocity": 1
        },
        {
          "duration": 0.14851475000000391,
          "durationTicks": 24,
          "midi": 48,
          "name": "C3",
          "ticks": 25176,
          "time": 155.79197275,
          "velocity": 1
        },
        {
          "duration": 0.5940590000000157,
          "durationTicks": 96,
          "midi": 48,
          "name": "C3",
          "ticks": 25200,
          "time": 155.94048750000002,
          "velocity": 1
        },
        {
          "duration": 0.2970294999999794,
          "durationTicks": 48,
          "midi": 48,
          "name": "C3",
          "ticks": 25392,
          "time": 157.12860550000002,
          "velocity": 1
        },
        {
          "duration": 0.14851475000000391,
          "durationTicks": 24,
          "midi": 48,
          "name": "C3",
          "ticks": 25488,
          "time": 157.7226645,
          "velocity": 1
        },
        {
          "duration": 0.5940590000000157,
          "durationTicks": 96,
          "midi": 48,
          "name": "C3",
          "ticks": 25560,
          "time": 158.16820875000002,
          "velocity": 1
        },
        {
          "duration": 0.2970294999999794,
          "durationTicks": 48,
          "midi": 48,
          "name": "C3",
          "ticks": 25752,
          "time": 159.35632675000002,
          "velocity": 1
        },
        {
          "duration": 0.14851475000000391,
          "durationTicks": 24,
          "midi": 48,
          "name": "C3",
          "ticks": 25848,
          "time": 159.95038575,
          "velocity": 1
        },
        {
          "duration": 0.5940590000000157,
          "durationTicks": 96,
          "midi": 48,
          "name": "C3",
          "ticks": 25920,
          "time": 160.39593000000002,
          "velocity": 1
        },
        {
          "duration": 0.2970294999999794,
          "durationTicks": 48,
          "midi": 48,
          "name": "C3",
          "ticks": 26112,
          "time": 161.58404800000002,
          "velocity": 1
        },
        {
          "duration": 0.14851475000000391,
          "durationTicks": 24,
          "midi": 48,
          "name": "C3",
          "ticks": 26208,
          "time": 162.178107,
          "velocity": 1
        },
        {
          "duration": 0.5940590000000157,
          "durationTicks": 96,
          "midi": 48,
          "name": "C3",
          "ticks": 26280,
          "time": 162.62365125000002,
          "velocity": 1
        },
        {
          "duration": 0.29702950000000783,
          "durationTicks": 48,
          "midi": 48,
          "name": "C3",
          "ticks": 26472,
          "time": 163.81176925,
          "velocity": 1
        },
        {
          "duration": 0.14851475000000391,
          "durationTicks": 24,
          "midi": 48,
          "name": "C3",
          "ticks": 26568,
          "time": 164.40582825,
          "velocity": 1
        },
        {
          "duration": 0.14851475000000391,
          "durationTicks": 24,
          "midi": 48,
          "name": "C3",
          "ticks": 26616,
          "time": 164.70285775000002,
          "velocity": 1
        },
        {
          "duration": 0.29702950000000783,
          "durationTicks": 48,
          "midi": 48,
          "name": "C3",
          "ticks": 26832,
          "time": 166.0394905,
          "velocity": 1
        },
        {
          "duration": 0.14851475000000391,
          "durationTicks": 24,
          "midi": 48,
          "name": "C3",
          "ticks": 26928,
          "time": 166.63354950000002,
          "velocity": 1
        },
        {
          "duration": 0.5940589999999872,
          "durationTicks": 96,
          "midi": 48,
          "name": "C3",
          "ticks": 27000,
          "time": 167.07909375000003,
          "velocity": 1
        },
        {
          "duration": 0.29702950000000783,
          "durationTicks": 48,
          "midi": 48,
          "name": "C3",
          "ticks": 27192,
          "time": 168.26721175,
          "velocity": 1
        },
        {
          "duration": 0.14851475000000391,
          "durationTicks": 24,
          "midi": 48,
          "name": "C3",
          "ticks": 27288,
          "time": 168.86127075000002,
          "velocity": 1
        },
        {
          "duration": 0.5940589999999872,
          "durationTicks": 96,
          "midi": 48,
          "name": "C3",
          "ticks": 27360,
          "time": 169.30681500000003,
          "velocity": 1
        },
        {
          "duration": 0.29702950000000783,
          "durationTicks": 48,
          "midi": 48,
          "name": "C3",
          "ticks": 27552,
          "time": 170.494933,
          "velocity": 1
        },
        {
          "duration": 0.14851475000000391,
          "durationTicks": 24,
          "midi": 48,
          "name": "C3",
          "ticks": 27648,
          "time": 171.08899200000002,
          "velocity": 1
        },
        {
          "duration": 0.5940589999999872,
          "durationTicks": 96,
          "midi": 48,
          "name": "C3",
          "ticks": 27720,
          "time": 171.53453625000003,
          "velocity": 1
        },
        {
          "duration": 0.29702950000000783,
          "durationTicks": 48,
          "midi": 48,
          "name": "C3",
          "ticks": 27912,
          "time": 172.72265425,
          "velocity": 1
        },
        {
          "duration": 0.14851475000000391,
          "durationTicks": 24,
          "midi": 48,
          "name": "C3",
          "ticks": 28008,
          "time": 173.31671325000002,
          "velocity": 1
        },
        {
          "duration": 0.14851475000000391,
          "durationTicks": 24,
          "midi": 48,
          "name": "C3",
          "ticks": 28056,
          "time": 173.61374275000003,
          "velocity": 1
        },
        {
          "duration": 0.29702950000000783,
          "durationTicks": 48,
          "midi": 48,
          "name": "C3",
          "ticks": 28272,
          "time": 174.9503755,
          "velocity": 1
        },
        {
          "duration": 0.14851475000000391,
          "durationTicks": 24,
          "midi": 48,
          "name": "C3",
          "ticks": 28368,
          "time": 175.54443450000002,
          "velocity": 1
        },
        {
          "duration": 0.5940589999999872,
          "durationTicks": 96,
          "midi": 48,
          "name": "C3",
          "ticks": 28440,
          "time": 175.98997875000003,
          "velocity": 1
        },
        {
          "duration": 0.29702950000000783,
          "durationTicks": 48,
          "midi": 48,
          "name": "C3",
          "ticks": 28632,
          "time": 177.17809675,
          "velocity": 1
        },
        {
          "duration": 0.14851475000000391,
          "durationTicks": 24,
          "midi": 48,
          "name": "C3",
          "ticks": 28728,
          "time": 177.77215575000002,
          "velocity": 1
        },
        {
          "duration": 0.5940589999999872,
          "durationTicks": 96,
          "midi": 48,
          "name": "C3",
          "ticks": 28800,
          "time": 178.21770000000004,
          "velocity": 1
        },
        {
          "duration": 0.29702950000000783,
          "durationTicks": 48,
          "midi": 48,
          "name": "C3",
          "ticks": 28992,
          "time": 179.405818,
          "velocity": 1
        },
        {
          "duration": 0.14851475000000391,
          "durationTicks": 24,
          "midi": 48,
          "name": "C3",
          "ticks": 29088,
          "time": 179.99987700000003,
          "velocity": 1
        },
        {
          "duration": 0.5940589999999872,
          "durationTicks": 96,
          "midi": 48,
          "name": "C3",
          "ticks": 29160,
          "time": 180.44542125000004,
          "velocity": 1
        },
        {
          "duration": 0.29702950000000783,
          "durationTicks": 48,
          "midi": 48,
          "name": "C3",
          "ticks": 29352,
          "time": 181.63353925,
          "velocity": 1
        },
        {
          "duration": 0.14851475000000391,
          "durationTicks": 24,
          "midi": 48,
          "name": "C3",
          "ticks": 29448,
          "time": 182.22759825000003,
          "velocity": 1
        },
        {
          "duration": 0.14851475000000391,
          "durationTicks": 24,
          "midi": 48,
          "name": "C3",
          "ticks": 29496,
          "time": 182.52462775000004,
          "velocity": 1
        },
        {
          "duration": 0.5940589999999588,
          "durationTicks": 96,
          "midi": 48,
          "name": "C3",
          "ticks": 29520,
          "time": 182.67314250000004,
          "velocity": 1
        },
        {
          "duration": 0.29702950000000783,
          "durationTicks": 48,
          "midi": 48,
          "name": "C3",
          "ticks": 29712,
          "time": 183.86126050000001,
          "velocity": 1
        },
        {
          "duration": 0.14851475000000391,
          "durationTicks": 24,
          "midi": 48,
          "name": "C3",
          "ticks": 29808,
          "time": 184.45531950000003,
          "velocity": 1
        },
        {
          "duration": 0.5940589999999872,
          "durationTicks": 96,
          "midi": 48,
          "name": "C3",
          "ticks": 29880,
          "time": 184.90086375,
          "velocity": 1
        },
        {
          "duration": 0.29702950000000783,
          "durationTicks": 48,
          "midi": 48,
          "name": "C3",
          "ticks": 30072,
          "time": 186.08898175000002,
          "velocity": 1
        },
        {
          "duration": 0.14851475000000391,
          "durationTicks": 24,
          "midi": 48,
          "name": "C3",
          "ticks": 30168,
          "time": 186.68304075000003,
          "velocity": 1
        },
        {
          "duration": 0.5940589999999872,
          "durationTicks": 96,
          "midi": 48,
          "name": "C3",
          "ticks": 30240,
          "time": 187.12858500000002,
          "velocity": 1
        },
        {
          "duration": 0.29702950000000783,
          "durationTicks": 48,
          "midi": 48,
          "name": "C3",
          "ticks": 30432,
          "time": 188.31670300000002,
          "velocity": 1
        },
        {
          "duration": 0.14851475000000391,
          "durationTicks": 24,
          "midi": 48,
          "name": "C3",
          "ticks": 30528,
          "time": 188.91076200000003,
          "velocity": 1
        },
        {
          "duration": 0.5940589999999872,
          "durationTicks": 96,
          "midi": 48,
          "name": "C3",
          "ticks": 30600,
          "time": 189.35630625000002,
          "velocity": 1
        },
        {
          "duration": 0.29702950000000783,
          "durationTicks": 48,
          "midi": 48,
          "name": "C3",
          "ticks": 30792,
          "time": 190.54442425000002,
          "velocity": 1
        },
        {
          "duration": 0.14851475000000391,
          "durationTicks": 24,
          "midi": 48,
          "name": "C3",
          "ticks": 30888,
          "time": 191.13848325000004,
          "velocity": 1
        },
        {
          "duration": 0.14851475000000391,
          "durationTicks": 24,
          "midi": 48,
          "name": "C3",
          "ticks": 30936,
          "time": 191.43551275000002,
          "velocity": 1
        },
        {
          "duration": 0.5940589999999872,
          "durationTicks": 96,
          "midi": 48,
          "name": "C3",
          "ticks": 30960,
          "time": 191.58402750000002,
          "velocity": 1
        },
        {
          "duration": 0.29702950000000783,
          "durationTicks": 48,
          "midi": 48,
          "name": "C3",
          "ticks": 31152,
          "time": 192.77214550000002,
          "velocity": 1
        },
        {
          "duration": 0.1485147499999755,
          "durationTicks": 24,
          "midi": 48,
          "name": "C3",
          "ticks": 31248,
          "time": 193.36620450000004,
          "velocity": 1
        },
        {
          "duration": 0.5940589999999872,
          "durationTicks": 96,
          "midi": 48,
          "name": "C3",
          "ticks": 31320,
          "time": 193.81174875000002,
          "velocity": 1
        },
        {
          "duration": 0.29702950000000783,
          "durationTicks": 48,
          "midi": 48,
          "name": "C3",
          "ticks": 31512,
          "time": 194.99986675000002,
          "velocity": 1
        },
        {
          "duration": 0.1485147499999755,
          "durationTicks": 24,
          "midi": 48,
          "name": "C3",
          "ticks": 31608,
          "time": 195.59392575000004,
          "velocity": 1
        },
        {
          "duration": 0.5940589999999872,
          "durationTicks": 96,
          "midi": 48,
          "name": "C3",
          "ticks": 31680,
          "time": 196.03947000000002,
          "velocity": 1
        },
        {
          "duration": 0.29702950000000783,
          "durationTicks": 48,
          "midi": 48,
          "name": "C3",
          "ticks": 31872,
          "time": 197.22758800000003,
          "velocity": 1
        },
        {
          "duration": 0.14851475000000391,
          "durationTicks": 24,
          "midi": 48,
          "name": "C3",
          "ticks": 31968,
          "time": 197.821647,
          "velocity": 1
        },
        {
          "duration": 0.5940589999999872,
          "durationTicks": 96,
          "midi": 48,
          "name": "C3",
          "ticks": 32040,
          "time": 198.26719125000002,
          "velocity": 1
        },
        {
          "duration": 0.29702950000000783,
          "durationTicks": 48,
          "midi": 48,
          "name": "C3",
          "ticks": 32232,
          "time": 199.45530925000003,
          "velocity": 1
        },
        {
          "duration": 0.14851475000000391,
          "durationTicks": 24,
          "midi": 48,
          "name": "C3",
          "ticks": 32328,
          "time": 200.04936825000001,
          "velocity": 1
        },
        {
          "duration": 0.1485147499999755,
          "durationTicks": 24,
          "midi": 48,
          "name": "C3",
          "ticks": 32376,
          "time": 200.34639775000002,
          "velocity": 1
        },
        {
          "duration": 0.5940590000000157,
          "durationTicks": 96,
          "midi": 48,
          "name": "C3",
          "ticks": 32400,
          "time": 200.4949125,
          "velocity": 1
        },
        {
          "duration": 0.29702950000000783,
          "durationTicks": 48,
          "midi": 48,
          "name": "C3",
          "ticks": 32592,
          "time": 201.68303050000003,
          "velocity": 1
        },
        {
          "duration": 0.14851475000000391,
          "durationTicks": 24,
          "midi": 48,
          "name": "C3",
          "ticks": 32688,
          "time": 202.27708950000002,
          "velocity": 1
        },
        {
          "duration": 0.5940590000000157,
          "durationTicks": 96,
          "midi": 48,
          "name": "C3",
          "ticks": 32760,
          "time": 202.72263375,
          "velocity": 1
        },
        {
          "duration": 0.29702950000000783,
          "durationTicks": 48,
          "midi": 48,
          "name": "C3",
          "ticks": 32952,
          "time": 203.91075175000003,
          "velocity": 1
        },
        {
          "duration": 0.043316802083325,
          "durationTicks": 7,
          "midi": 48,
          "name": "C3",
          "ticks": 33065,
          "time": 204.6100086979167,
          "velocity": 1
        },
        {
          "duration": 1.930691749999994,
          "durationTicks": 312,
          "midi": 48,
          "name": "C3",
          "ticks": 33120,
          "time": 204.950355,
          "velocity": 1
        },
        {
          "duration": 0.29702950000000783,
          "durationTicks": 48,
          "midi": 48,
          "name": "C3",
          "ticks": 33432,
          "time": 206.88104675,
          "velocity": 1
        },
        {
          "duration": 1.7821769999999901,
          "durationTicks": 288,
          "midi": 48,
          "name": "C3",
          "ticks": 33480,
          "time": 207.17807625,
          "velocity": 1
        },
        {
          "duration": 0.29702950000000783,
          "durationTicks": 48,
          "midi": 48,
          "name": "C3",
          "ticks": 33768,
          "time": 208.96025325,
          "velocity": 1
        },
        {
          "duration": 0.14851475000000391,
          "durationTicks": 24,
          "midi": 48,
          "name": "C3",
          "ticks": 33816,
          "time": 209.25728275,
          "velocity": 0.4566929133858268
        },
        {
          "duration": 0.7425737499999912,
          "durationTicks": 120,
          "midi": 48,
          "name": "C3",
          "ticks": 33840,
          "time": 209.4057975,
          "velocity": 1
        },
        {
          "duration": 0.29702950000000783,
          "durationTicks": 48,
          "midi": 48,
          "name": "C3",
          "ticks": 33960,
          "time": 210.14837125,
          "velocity": 1
        },
        {
          "duration": 0.1485147499999755,
          "durationTicks": 24,
          "midi": 48,
          "name": "C3",
          "ticks": 34056,
          "time": 210.74243025,
          "velocity": 0.4566929133858268
        },
        {
          "duration": 0.44554425000001174,
          "durationTicks": 72,
          "midi": 48,
          "name": "C3",
          "ticks": 34080,
          "time": 210.890945,
          "velocity": 1
        },
        {
          "duration": 1.6336622499999862,
          "durationTicks": 264,
          "midi": 48,
          "name": "C3",
          "ticks": 34200,
          "time": 211.63351875,
          "velocity": 1
        },
        {
          "duration": 0.29702950000000783,
          "durationTicks": 48,
          "midi": 48,
          "name": "C3",
          "ticks": 34464,
          "time": 213.267181,
          "velocity": 1
        },
        {
          "duration": 1.930691749999994,
          "durationTicks": 312,
          "midi": 48,
          "name": "C3",
          "ticks": 34560,
          "time": 213.86124,
          "velocity": 1
        },
        {
          "duration": 0.29702950000000783,
          "durationTicks": 48,
          "midi": 48,
          "name": "C3",
          "ticks": 34872,
          "time": 215.79193175,
          "velocity": 1
        },
        {
          "duration": 1.7821769999999901,
          "durationTicks": 288,
          "midi": 48,
          "name": "C3",
          "ticks": 34920,
          "time": 216.08896125,
          "velocity": 1
        },
        {
          "duration": 0.29702950000000783,
          "durationTicks": 48,
          "midi": 48,
          "name": "C3",
          "ticks": 35208,
          "time": 217.87113825,
          "velocity": 1
        },
        {
          "duration": 0.14851475000000391,
          "durationTicks": 24,
          "midi": 48,
          "name": "C3",
          "ticks": 35256,
          "time": 218.16816775,
          "velocity": 0.4566929133858268
        },
        {
          "duration": 0.7425737499999912,
          "durationTicks": 120,
          "midi": 48,
          "name": "C3",
          "ticks": 35280,
          "time": 218.3166825,
          "velocity": 1
        },
        {
          "duration": 0.29702950000000783,
          "durationTicks": 48,
          "midi": 48,
          "name": "C3",
          "ticks": 35400,
          "time": 219.05925625,
          "velocity": 1
        },
        {
          "duration": 0.14851475000000391,
          "durationTicks": 24,
          "midi": 48,
          "name": "C3",
          "ticks": 35496,
          "time": 219.65331525,
          "velocity": 0.4566929133858268
        },
        {
          "duration": 0.44554425000001174,
          "durationTicks": 72,
          "midi": 48,
          "name": "C3",
          "ticks": 35520,
          "time": 219.80183,
          "velocity": 1
        },
        {
          "duration": 1.3366327499999784,
          "durationTicks": 216,
          "midi": 48,
          "name": "C3",
          "ticks": 35640,
          "time": 220.54440375000001,
          "velocity": 1
        },
        {
          "duration": 0.29702950000000783,
          "durationTicks": 48,
          "midi": 48,
          "name": "C3",
          "ticks": 35856,
          "time": 221.8810365,
          "velocity": 1
        },
        {
          "duration": 0.5940589999999872,
          "durationTicks": 96,
          "midi": 48,
          "name": "C3",
          "ticks": 36000,
          "time": 222.77212500000002,
          "velocity": 1
        },
        {
          "duration": 0.29702950000000783,
          "durationTicks": 48,
          "midi": 48,
          "name": "C3",
          "ticks": 36192,
          "time": 223.96024300000002,
          "velocity": 1
        },
        {
          "duration": 0.14851475000000391,
          "durationTicks": 24,
          "midi": 48,
          "name": "C3",
          "ticks": 36288,
          "time": 224.554302,
          "velocity": 1
        },
        {
          "duration": 0.5940589999999872,
          "durationTicks": 96,
          "midi": 48,
          "name": "C3",
          "ticks": 36360,
          "time": 224.99984625000002,
          "velocity": 1
        },
        {
          "duration": 0.29702950000000783,
          "durationTicks": 48,
          "midi": 48,
          "name": "C3",
          "ticks": 36552,
          "time": 226.18796425000002,
          "velocity": 1
        },
        {
          "duration": 0.14851475000000391,
          "durationTicks": 24,
          "midi": 48,
          "name": "C3",
          "ticks": 36648,
          "time": 226.78202325,
          "velocity": 1
        },
        {
          "duration": 0.14851475000000391,
          "durationTicks": 24,
          "midi": 48,
          "name": "C3",
          "ticks": 36696,
          "time": 227.07905275000002,
          "velocity": 1
        },
        {
          "duration": 0.5940589999999872,
          "durationTicks": 96,
          "midi": 48,
          "name": "C3",
          "ticks": 36720,
          "time": 227.22756750000002,
          "velocity": 1
        },
        {
          "duration": 0.2970294999999794,
          "durationTicks": 48,
          "midi": 48,
          "name": "C3",
          "ticks": 36912,
          "time": 228.41568550000002,
          "velocity": 1
        },
        {
          "duration": 0.14851475000000391,
          "durationTicks": 24,
          "midi": 48,
          "name": "C3",
          "ticks": 37008,
          "time": 229.0097445,
          "velocity": 1
        },
        {
          "duration": 0.5940589999999872,
          "durationTicks": 96,
          "midi": 48,
          "name": "C3",
          "ticks": 37080,
          "time": 229.45528875000002,
          "velocity": 1
        },
        {
          "duration": 0.2970294999999794,
          "durationTicks": 48,
          "midi": 48,
          "name": "C3",
          "ticks": 37272,
          "time": 230.64340675000003,
          "velocity": 1
        },
        {
          "duration": 0.14851475000000391,
          "durationTicks": 24,
          "midi": 48,
          "name": "C3",
          "ticks": 37368,
          "time": 231.23746575,
          "velocity": 1
        },
        {
          "duration": 0.5940589999999872,
          "durationTicks": 96,
          "midi": 48,
          "name": "C3",
          "ticks": 37440,
          "time": 231.68301000000002,
          "velocity": 1
        },
        {
          "duration": 0.2970294999999794,
          "durationTicks": 48,
          "midi": 48,
          "name": "C3",
          "ticks": 37632,
          "time": 232.87112800000003,
          "velocity": 1
        },
        {
          "duration": 0.14851475000000391,
          "durationTicks": 24,
          "midi": 48,
          "name": "C3",
          "ticks": 37728,
          "time": 233.46518700000001,
          "velocity": 1
        },
        {
          "duration": 0.5940589999999872,
          "durationTicks": 96,
          "midi": 48,
          "name": "C3",
          "ticks": 37800,
          "time": 233.91073125000003,
          "velocity": 1
        },
        {
          "duration": 0.2970294999999794,
          "durationTicks": 48,
          "midi": 48,
          "name": "C3",
          "ticks": 37992,
          "time": 235.09884925000003,
          "velocity": 1
        },
        {
          "duration": 0.14851475000000391,
          "durationTicks": 24,
          "midi": 48,
          "name": "C3",
          "ticks": 38088,
          "time": 235.69290825000002,
          "velocity": 1
        },
        {
          "duration": 0.14851475000000391,
          "durationTicks": 24,
          "midi": 48,
          "name": "C3",
          "ticks": 38136,
          "time": 235.98993775000002,
          "velocity": 1
        },
        {
          "duration": 0.5940589999999872,
          "durationTicks": 96,
          "midi": 48,
          "name": "C3",
          "ticks": 38160,
          "time": 236.13845250000003,
          "velocity": 1
        },
        {
          "duration": 0.29702950000000783,
          "durationTicks": 48,
          "midi": 48,
          "name": "C3",
          "ticks": 38352,
          "time": 237.3265705,
          "velocity": 1
        },
        {
          "duration": 0.14851475000000391,
          "durationTicks": 24,
          "midi": 48,
          "name": "C3",
          "ticks": 38448,
          "time": 237.92062950000002,
          "velocity": 1
        },
        {
          "duration": 0.5940589999999872,
          "durationTicks": 96,
          "midi": 48,
          "name": "C3",
          "ticks": 38520,
          "time": 238.36617375000003,
          "velocity": 1
        },
        {
          "duration": 0.29702950000000783,
          "durationTicks": 48,
          "midi": 48,
          "name": "C3",
          "ticks": 38712,
          "time": 239.55429175,
          "velocity": 1
        },
        {
          "duration": 0.04331680208335342,
          "durationTicks": 7,
          "midi": 48,
          "name": "C3",
          "ticks": 38825,
          "time": 240.25354869791667,
          "velocity": 1
        }
      ],
      "endOfTrackTicks": 38832
    },
    {
      "channel": 0,
      "controlChanges": {},
      "pitchBends": [],
      "instrument": {
        "family": "piano",
        "number": 0,
        "name": "acoustic grand piano"
      },
      "name": "Track 15 (05: )",
      "notes": [
        {
          "duration": 1.6336622500000004,
          "durationTicks": 264,
          "midi": 48,
          "name": "C3",
          "ticks": 2112,
          "time": 13.069298,
          "velocity": 1
        },
        {
          "duration": 1.1881180000000011,
          "durationTicks": 192,
          "midi": 48,
          "name": "C3",
          "ticks": 2328,
          "time": 14.40593075,
          "velocity": 1
        },
        {
          "duration": 2.22772125,
          "durationTicks": 360,
          "midi": 48,
          "name": "C3",
          "ticks": 2472,
          "time": 15.29701925,
          "velocity": 1
        },
        {
          "duration": 0.2970295000000007,
          "durationTicks": 48,
          "midi": 48,
          "name": "C3",
          "ticks": 2832,
          "time": 17.5247405,
          "velocity": 1
        },
        {
          "duration": 0.5940589999999979,
          "durationTicks": 96,
          "midi": 48,
          "name": "C3",
          "ticks": 2976,
          "time": 18.415829000000002,
          "velocity": 1
        },
        {
          "duration": 0.2970295000000007,
          "durationTicks": 48,
          "midi": 48,
          "name": "C3",
          "ticks": 3120,
          "time": 19.3069175,
          "velocity": 1
        },
        {
          "duration": 0.2970295000000007,
          "durationTicks": 48,
          "midi": 48,
          "name": "C3",
          "ticks": 3192,
          "time": 19.752461750000002,
          "velocity": 1
        },
        {
          "duration": 0.5940590000000014,
          "durationTicks": 96,
          "midi": 48,
          "name": "C3",
          "ticks": 3336,
          "time": 20.64355025,
          "velocity": 1
        },
        {
          "duration": 0.2970295000000007,
          "durationTicks": 48,
          "midi": 48,
          "name": "C3",
          "ticks": 3480,
          "time": 21.53463875,
          "velocity": 1
        },
        {
          "duration": 0.14851475000000036,
          "durationTicks": 24,
          "midi": 48,
          "name": "C3",
          "ticks": 3552,
          "time": 21.980183,
          "velocity": 1
        },
        {
          "duration": 1.1881179999999993,
          "durationTicks": 192,
          "midi": 48,
          "name": "C3",
          "ticks": 3600,
          "time": 22.2772125,
          "velocity": 1
        },
        {
          "duration": 1.188118000000003,
          "durationTicks": 192,
          "midi": 48,
          "name": "C3",
          "ticks": 3696,
          "time": 22.8712715,
          "velocity": 1
        },
        {
          "duration": 0.7425737499999983,
          "durationTicks": 120,
          "midi": 48,
          "name": "C3",
          "ticks": 3840,
          "time": 23.76236,
          "velocity": 1
        },
        {
          "duration": 1.4851475,
          "durationTicks": 240,
          "midi": 48,
          "name": "C3",
          "ticks": 3912,
          "time": 24.207904250000002,
          "velocity": 1
        },
        {
          "duration": 0.5940590000000014,
          "durationTicks": 96,
          "midi": 48,
          "name": "C3",
          "ticks": 4056,
          "time": 25.09899275,
          "velocity": 1
        },
        {
          "duration": 0.29702949999999717,
          "durationTicks": 48,
          "midi": 48,
          "name": "C3",
          "ticks": 4200,
          "time": 25.990081250000003,
          "velocity": 1
        },
        {
          "duration": 0.2970295000000007,
          "durationTicks": 48,
          "midi": 48,
          "name": "C3",
          "ticks": 4272,
          "time": 26.4356255,
          "velocity": 1
        },
        {
          "duration": 0.5940589999999979,
          "durationTicks": 96,
          "midi": 48,
          "name": "C3",
          "ticks": 4416,
          "time": 27.326714000000003,
          "velocity": 1
        },
        {
          "duration": 0.29702949999999717,
          "durationTicks": 48,
          "midi": 48,
          "name": "C3",
          "ticks": 4560,
          "time": 28.2178025,
          "velocity": 1
        },
        {
          "duration": 0.2970295000000007,
          "durationTicks": 48,
          "midi": 48,
          "name": "C3",
          "ticks": 4632,
          "time": 28.663346750000002,
          "velocity": 1
        },
        {
          "duration": 0.5940589999999979,
          "durationTicks": 96,
          "midi": 48,
          "name": "C3",
          "ticks": 4776,
          "time": 29.55443525,
          "velocity": 1
        },
        {
          "duration": 0.2970295000000007,
          "durationTicks": 48,
          "midi": 48,
          "name": "C3",
          "ticks": 4920,
          "time": 30.44552375,
          "velocity": 1
        },
        {
          "duration": 0.14851475000000036,
          "durationTicks": 24,
          "midi": 48,
          "name": "C3",
          "ticks": 4992,
          "time": 30.891068,
          "velocity": 1
        },
        {
          "duration": 0.5940590000000014,
          "durationTicks": 96,
          "midi": 48,
          "name": "C3",
          "ticks": 5136,
          "time": 31.7821565,
          "velocity": 1
        },
        {
          "duration": 0.2970295000000007,
          "durationTicks": 48,
          "midi": 48,
          "name": "C3",
          "ticks": 5280,
          "time": 32.673245,
          "velocity": 1
        },
        {
          "duration": 0.2970295000000007,
          "durationTicks": 48,
          "midi": 48,
          "name": "C3",
          "ticks": 5352,
          "time": 33.11878925,
          "velocity": 1
        },
        {
          "duration": 0.5940590000000014,
          "durationTicks": 96,
          "midi": 48,
          "name": "C3",
          "ticks": 5496,
          "time": 34.00987775,
          "velocity": 1
        },
        {
          "duration": 0.29702950000000783,
          "durationTicks": 48,
          "midi": 48,
          "name": "C3",
          "ticks": 5640,
          "time": 34.900966249999996,
          "velocity": 1
        },
        {
          "duration": 0.2970295000000007,
          "durationTicks": 48,
          "midi": 48,
          "name": "C3",
          "ticks": 5712,
          "time": 35.3465105,
          "velocity": 1
        },
        {
          "duration": 0.5940590000000014,
          "durationTicks": 96,
          "midi": 48,
          "name": "C3",
          "ticks": 5856,
          "time": 36.237599,
          "velocity": 1
        },
        {
          "duration": 0.29702950000000783,
          "durationTicks": 48,
          "midi": 48,
          "name": "C3",
          "ticks": 6000,
          "time": 37.1286875,
          "velocity": 1
        },
        {
          "duration": 0.29702950000000783,
          "durationTicks": 48,
          "midi": 48,
          "name": "C3",
          "ticks": 6072,
          "time": 37.574231749999996,
          "velocity": 1
        },
        {
          "duration": 0.5940589999999943,
          "durationTicks": 96,
          "midi": 48,
          "name": "C3",
          "ticks": 6216,
          "time": 38.465320250000005,
          "velocity": 1
        },
        {
          "duration": 0.2970295000000007,
          "durationTicks": 48,
          "midi": 48,
          "name": "C3",
          "ticks": 6360,
          "time": 39.35640875,
          "velocity": 1
        },
        {
          "duration": 0.14851475000000391,
          "durationTicks": 24,
          "midi": 48,
          "name": "C3",
          "ticks": 6432,
          "time": 39.801953,
          "velocity": 1
        },
        {
          "duration": 0.5940589999999943,
          "durationTicks": 96,
          "midi": 48,
          "name": "C3",
          "ticks": 6480,
          "time": 40.098982500000005,
          "velocity": 1
        },
        {
          "duration": 0.5940590000000014,
          "durationTicks": 96,
          "midi": 48,
          "name": "C3",
          "ticks": 6576,
          "time": 40.6930415,
          "velocity": 1
        },
        {
          "duration": 0.2970295000000007,
          "durationTicks": 48,
          "midi": 48,
          "name": "C3",
          "ticks": 6720,
          "time": 41.58413,
          "velocity": 1
        },
        {
          "duration": 0.2970295000000007,
          "durationTicks": 48,
          "midi": 48,
          "name": "C3",
          "ticks": 6792,
          "time": 42.02967425,
          "velocity": 1
        },
        {
          "duration": 0.5940589999999943,
          "durationTicks": 96,
          "midi": 48,
          "name": "C3",
          "ticks": 6936,
          "time": 42.92076275,
          "velocity": 1
        },
        {
          "duration": 0.2970294999999936,
          "durationTicks": 48,
          "midi": 48,
          "name": "C3",
          "ticks": 7080,
          "time": 43.811851250000004,
          "velocity": 1
        },
        {
          "duration": 0.2970295000000007,
          "durationTicks": 48,
          "midi": 48,
          "name": "C3",
          "ticks": 7152,
          "time": 44.2573955,
          "velocity": 1
        },
        {
          "duration": 0.5940590000000014,
          "durationTicks": 96,
          "midi": 48,
          "name": "C3",
          "ticks": 7296,
          "time": 45.148483999999996,
          "velocity": 1
        },
        {
          "duration": 0.2970294999999936,
          "durationTicks": 48,
          "midi": 48,
          "name": "C3",
          "ticks": 7440,
          "time": 46.039572500000006,
          "velocity": 1
        },
        {
          "duration": 0.2970294999999936,
          "durationTicks": 48,
          "midi": 48,
          "name": "C3",
          "ticks": 7512,
          "time": 46.48511675,
          "velocity": 1
        },
        {
          "duration": 0.5940590000000014,
          "durationTicks": 96,
          "midi": 48,
          "name": "C3",
          "ticks": 7656,
          "time": 47.37620525,
          "velocity": 1
        },
        {
          "duration": 0.2970295000000007,
          "durationTicks": 48,
          "midi": 48,
          "name": "C3",
          "ticks": 7800,
          "time": 48.26729375,
          "velocity": 1
        },
        {
          "duration": 0.1485147499999968,
          "durationTicks": 24,
          "midi": 48,
          "name": "C3",
          "ticks": 7872,
          "time": 48.712838000000005,
          "velocity": 1
        },
        {
          "duration": 0.5940590000000014,
          "durationTicks": 96,
          "midi": 48,
          "name": "C3",
          "ticks": 8016,
          "time": 49.6039265,
          "velocity": 1
        },
        {
          "duration": 0.2970295000000007,
          "durationTicks": 48,
          "midi": 48,
          "name": "C3",
          "ticks": 8160,
          "time": 50.495015,
          "velocity": 1
        },
        {
          "duration": 0.2970295000000007,
          "durationTicks": 48,
          "midi": 48,
          "name": "C3",
          "ticks": 8232,
          "time": 50.94055925,
          "velocity": 1
        },
        {
          "duration": 0.5940590000000014,
          "durationTicks": 96,
          "midi": 48,
          "name": "C3",
          "ticks": 8376,
          "time": 51.83164775,
          "velocity": 1
        },
        {
          "duration": 0.2970294999999936,
          "durationTicks": 48,
          "midi": 48,
          "name": "C3",
          "ticks": 8520,
          "time": 52.722736250000004,
          "velocity": 1
        },
        {
          "duration": 0.2970295000000007,
          "durationTicks": 48,
          "midi": 48,
          "name": "C3",
          "ticks": 8592,
          "time": 53.1682805,
          "velocity": 1
        },
        {
          "duration": 0.5940589999999943,
          "durationTicks": 96,
          "midi": 48,
          "name": "C3",
          "ticks": 8736,
          "time": 54.059369000000004,
          "velocity": 1
        },
        {
          "duration": 0.2970295000000007,
          "durationTicks": 48,
          "midi": 48,
          "name": "C3",
          "ticks": 8880,
          "time": 54.9504575,
          "velocity": 1
        },
        {
          "duration": 0.2970295000000007,
          "durationTicks": 48,
          "midi": 48,
          "name": "C3",
          "ticks": 8952,
          "time": 55.39600175,
          "velocity": 1
        },
        {
          "duration": 0.5940590000000014,
          "durationTicks": 96,
          "midi": 48,
          "name": "C3",
          "ticks": 9096,
          "time": 56.28709025,
          "velocity": 1
        },
        {
          "duration": 0.2970295000000007,
          "durationTicks": 48,
          "midi": 48,
          "name": "C3",
          "ticks": 9240,
          "time": 57.17817875,
          "velocity": 1
        },
        {
          "duration": 0.14851475000000391,
          "durationTicks": 24,
          "midi": 48,
          "name": "C3",
          "ticks": 9312,
          "time": 57.623723,
          "velocity": 1
        },
        {
          "duration": 0.5940590000000014,
          "durationTicks": 96,
          "midi": 48,
          "name": "C3",
          "ticks": 9456,
          "time": 58.5148115,
          "velocity": 1
        },
        {
          "duration": 0.2970295000000007,
          "durationTicks": 48,
          "midi": 48,
          "name": "C3",
          "ticks": 9600,
          "time": 59.4059,
          "velocity": 1
        },
        {
          "duration": 0.2970295000000007,
          "durationTicks": 48,
          "midi": 48,
          "name": "C3",
          "ticks": 9672,
          "time": 59.85144425,
          "velocity": 1
        },
        {
          "duration": 0.5940590000000014,
          "durationTicks": 96,
          "midi": 48,
          "name": "C3",
          "ticks": 9816,
          "time": 60.74253275,
          "velocity": 1
        },
        {
          "duration": 0.2970294999999936,
          "durationTicks": 48,
          "midi": 48,
          "name": "C3",
          "ticks": 9960,
          "time": 61.633621250000004,
          "velocity": 1
        },
        {
          "duration": 0.2970295000000007,
          "durationTicks": 48,
          "midi": 48,
          "name": "C3",
          "ticks": 10032,
          "time": 62.0791655,
          "velocity": 1
        },
        {
          "duration": 0.5940589999999943,
          "durationTicks": 96,
          "midi": 48,
          "name": "C3",
          "ticks": 10176,
          "time": 62.970254000000004,
          "velocity": 1
        },
        {
          "duration": 0.2970295000000007,
          "durationTicks": 48,
          "midi": 48,
          "name": "C3",
          "ticks": 10320,
          "time": 63.8613425,
          "velocity": 1
        },
        {
          "duration": 0.2970294999999936,
          "durationTicks": 48,
          "midi": 48,
          "name": "C3",
          "ticks": 10392,
          "time": 64.30688675,
          "velocity": 1
        },
        {
          "duration": 0.5940590000000014,
          "durationTicks": 96,
          "midi": 48,
          "name": "C3",
          "ticks": 10536,
          "time": 65.19797525,
          "velocity": 1
        },
        {
          "duration": 0.2970294999999936,
          "durationTicks": 48,
          "midi": 48,
          "name": "C3",
          "ticks": 10680,
          "time": 66.08906375000001,
          "velocity": 1
        },
        {
          "duration": 0.14851475000000391,
          "durationTicks": 24,
          "midi": 48,
          "name": "C3",
          "ticks": 10752,
          "time": 66.53460799999999,
          "velocity": 1
        },
        {
          "duration": 0.5940590000000014,
          "durationTicks": 96,
          "midi": 48,
          "name": "C3",
          "ticks": 10896,
          "time": 67.4256965,
          "velocity": 1
        },
        {
          "duration": 0.2970294999999936,
          "durationTicks": 48,
          "midi": 48,
          "name": "C3",
          "ticks": 11040,
          "time": 68.31678500000001,
          "velocity": 1
        },
        {
          "duration": 0.29702950000000783,
          "durationTicks": 48,
          "midi": 48,
          "name": "C3",
          "ticks": 11112,
          "time": 68.76232925,
          "velocity": 1
        },
        {
          "duration": 0.5940590000000014,
          "durationTicks": 96,
          "midi": 48,
          "name": "C3",
          "ticks": 11256,
          "time": 69.65341775,
          "velocity": 1
        },
        {
          "duration": 0.2970294999999936,
          "durationTicks": 48,
          "midi": 48,
          "name": "C3",
          "ticks": 11400,
          "time": 70.54450625,
          "velocity": 1
        },
        {
          "duration": 0.29702950000000783,
          "durationTicks": 48,
          "midi": 48,
          "name": "C3",
          "ticks": 11472,
          "time": 70.9900505,
          "velocity": 1
        },
        {
          "duration": 0.5940590000000014,
          "durationTicks": 96,
          "midi": 48,
          "name": "C3",
          "ticks": 11616,
          "time": 71.881139,
          "velocity": 1
        },
        {
          "duration": 0.2970294999999936,
          "durationTicks": 48,
          "midi": 48,
          "name": "C3",
          "ticks": 11760,
          "time": 72.7722275,
          "velocity": 1
        },
        {
          "duration": 0.29702950000000783,
          "durationTicks": 48,
          "midi": 48,
          "name": "C3",
          "ticks": 11832,
          "time": 73.21777175,
          "velocity": 1
        },
        {
          "duration": 0.5940590000000157,
          "durationTicks": 96,
          "midi": 48,
          "name": "C3",
          "ticks": 11976,
          "time": 74.10886024999999,
          "velocity": 1
        },
        {
          "duration": 0.2970294999999936,
          "durationTicks": 48,
          "midi": 48,
          "name": "C3",
          "ticks": 12120,
          "time": 74.99994875,
          "velocity": 1
        },
        {
          "duration": 0.14851475000000391,
          "durationTicks": 24,
          "midi": 48,
          "name": "C3",
          "ticks": 12192,
          "time": 75.445493,
          "velocity": 1
        },
        {
          "duration": 0.5940590000000157,
          "durationTicks": 96,
          "midi": 48,
          "name": "C3",
          "ticks": 12336,
          "time": 76.3365815,
          "velocity": 1
        },
        {
          "duration": 0.2970294999999936,
          "durationTicks": 48,
          "midi": 48,
          "name": "C3",
          "ticks": 12480,
          "time": 77.22767,
          "velocity": 1
        },
        {
          "duration": 0.29702950000000783,
          "durationTicks": 48,
          "midi": 48,
          "name": "C3",
          "ticks": 12552,
          "time": 77.67321425,
          "velocity": 1
        },
        {
          "duration": 0.5940590000000157,
          "durationTicks": 96,
          "midi": 48,
          "name": "C3",
          "ticks": 12696,
          "time": 78.56430275,
          "velocity": 1
        },
        {
          "duration": 0.29702950000000783,
          "durationTicks": 48,
          "midi": 48,
          "name": "C3",
          "ticks": 12840,
          "time": 79.45539124999999,
          "velocity": 1
        },
        {
          "duration": 0.29702950000000783,
          "durationTicks": 48,
          "midi": 48,
          "name": "C3",
          "ticks": 12912,
          "time": 79.9009355,
          "velocity": 1
        },
        {
          "duration": 1.6336622500000004,
          "durationTicks": 264,
          "midi": 48,
          "name": "C3",
          "ticks": 13632,
          "time": 84.356378,
          "velocity": 1
        },
        {
          "duration": 0.44554424999999753,
          "durationTicks": 72,
          "midi": 48,
          "name": "C3",
          "ticks": 13848,
          "time": 85.69301075000001,
          "velocity": 1
        },
        {
          "duration": 0.29702950000000783,
          "durationTicks": 48,
          "midi": 48,
          "name": "C3",
          "ticks": 13992,
          "time": 86.58409925000001,
          "velocity": 1
        },
        {
          "duration": 0.29702950000000783,
          "durationTicks": 48,
          "midi": 48,
          "name": "C3",
          "ticks": 14352,
          "time": 88.81182050000001,
          "velocity": 1
        },
        {
          "duration": 1.7821770000000043,
          "durationTicks": 288,
          "midi": 48,
          "name": "C3",
          "ticks": 15072,
          "time": 93.26726300000001,
          "velocity": 1
        },
        {
          "duration": 0.34034630208333283,
          "durationTicks": 55,
          "midi": 49,
          "name": "C#3",
          "ticks": 15785,
          "time": 97.67938869791669,
          "velocity": 0.7086614173228346
        },
        {
          "duration": 0.29702950000000783,
          "durationTicks": 48,
          "midi": 48,
          "name": "C3",
          "ticks": 15792,
          "time": 97.72270550000002,
          "velocity": 1
        },
        {
          "duration": 0.5940590000000014,
          "durationTicks": 96,
          "midi": 48,
          "name": "C3",
          "ticks": 15936,
          "time": 98.61379400000001,
          "velocity": 1
        },
        {
          "duration": 0.2970294999999936,
          "durationTicks": 48,
          "midi": 48,
          "name": "C3",
          "ticks": 16080,
          "time": 99.50488250000002,
          "velocity": 1
        },
        {
          "duration": 0.2970294999999936,
          "durationTicks": 48,
          "midi": 48,
          "name": "C3",
          "ticks": 16152,
          "time": 99.95042675000002,
          "velocity": 1
        },
        {
          "duration": 0.5940590000000014,
          "durationTicks": 96,
          "midi": 48,
          "name": "C3",
          "ticks": 16296,
          "time": 100.84151525000001,
          "velocity": 1
        },
        {
          "duration": 0.2970294999999936,
          "durationTicks": 48,
          "midi": 48,
          "name": "C3",
          "ticks": 16440,
          "time": 101.73260375000002,
          "velocity": 1
        },
        {
          "duration": 0.14851475000000391,
          "durationTicks": 24,
          "midi": 48,
          "name": "C3",
          "ticks": 16512,
          "time": 102.17814800000002,
          "velocity": 1
        },
        {
          "duration": 0.5940590000000014,
          "durationTicks": 96,
          "midi": 48,
          "name": "C3",
          "ticks": 16656,
          "time": 103.06923650000002,
          "velocity": 1
        },
        {
          "duration": 0.29702950000000783,
          "durationTicks": 48,
          "midi": 48,
          "name": "C3",
          "ticks": 16800,
          "time": 103.96032500000001,
          "velocity": 1
        },
        {
          "duration": 0.2970294999999936,
          "durationTicks": 48,
          "midi": 48,
          "name": "C3",
          "ticks": 16872,
          "time": 104.40586925000002,
          "velocity": 1
        },
        {
          "duration": 0.5940590000000014,
          "durationTicks": 96,
          "midi": 48,
          "name": "C3",
          "ticks": 17016,
          "time": 105.29695775000002,
          "velocity": 1
        },
        {
          "duration": 0.29702950000000783,
          "durationTicks": 48,
          "midi": 48,
          "name": "C3",
          "ticks": 17160,
          "time": 106.18804625000001,
          "velocity": 1
        },
        {
          "duration": 0.2970294999999936,
          "durationTicks": 48,
          "midi": 48,
          "name": "C3",
          "ticks": 17232,
          "time": 106.63359050000003,
          "velocity": 1
        },
        {
          "duration": 0.5940590000000014,
          "durationTicks": 96,
          "midi": 48,
          "name": "C3",
          "ticks": 17376,
          "time": 107.52467900000002,
          "velocity": 1
        },
        {
          "duration": 0.29702950000000783,
          "durationTicks": 48,
          "midi": 48,
          "name": "C3",
          "ticks": 17520,
          "time": 108.41576750000002,
          "velocity": 1
        },
        {
          "duration": 0.29702950000000783,
          "durationTicks": 48,
          "midi": 48,
          "name": "C3",
          "ticks": 17592,
          "time": 108.86131175000001,
          "velocity": 1
        },
        {
          "duration": 0.5940589999999872,
          "durationTicks": 96,
          "midi": 48,
          "name": "C3",
          "ticks": 17736,
          "time": 109.75240025000002,
          "velocity": 1
        },
        {
          "duration": 0.29702950000000783,
          "durationTicks": 48,
          "midi": 48,
          "name": "C3",
          "ticks": 17880,
          "time": 110.64348875000002,
          "velocity": 1
        },
        {
          "duration": 0.14851475000000391,
          "durationTicks": 24,
          "midi": 48,
          "name": "C3",
          "ticks": 17952,
          "time": 111.08903300000001,
          "velocity": 1
        },
        {
          "duration": 0.5940589999999872,
          "durationTicks": 96,
          "midi": 48,
          "name": "C3",
          "ticks": 18096,
          "time": 111.98012150000002,
          "velocity": 1
        },
        {
          "duration": 0.29702950000000783,
          "durationTicks": 48,
          "midi": 48,
          "name": "C3",
          "ticks": 18240,
          "time": 112.87121000000002,
          "velocity": 1
        },
        {
          "duration": 0.2970294999999936,
          "durationTicks": 48,
          "midi": 48,
          "name": "C3",
          "ticks": 18312,
          "time": 113.31675425000002,
          "velocity": 1
        },
        {
          "duration": 0.5940589999999872,
          "durationTicks": 96,
          "midi": 48,
          "name": "C3",
          "ticks": 18456,
          "time": 114.20784275000003,
          "velocity": 1
        },
        {
          "duration": 0.2970294999999936,
          "durationTicks": 48,
          "midi": 48,
          "name": "C3",
          "ticks": 18600,
          "time": 115.09893125000002,
          "velocity": 1
        },
        {
          "duration": 0.2970294999999936,
          "durationTicks": 48,
          "midi": 48,
          "name": "C3",
          "ticks": 18672,
          "time": 115.54447550000002,
          "velocity": 1
        },
        {
          "duration": 0.5940590000000014,
          "durationTicks": 96,
          "midi": 48,
          "name": "C3",
          "ticks": 18816,
          "time": 116.43556400000001,
          "velocity": 1
        },
        {
          "duration": 0.2970294999999936,
          "durationTicks": 48,
          "midi": 48,
          "name": "C3",
          "ticks": 18960,
          "time": 117.32665250000002,
          "velocity": 1
        },
        {
          "duration": 0.2970294999999936,
          "durationTicks": 48,
          "midi": 48,
          "name": "C3",
          "ticks": 19032,
          "time": 117.77219675000002,
          "velocity": 1
        },
        {
          "duration": 0.5940590000000014,
          "durationTicks": 96,
          "midi": 48,
          "name": "C3",
          "ticks": 19176,
          "time": 118.66328525000002,
          "velocity": 1
        },
        {
          "duration": 0.2970294999999936,
          "durationTicks": 48,
          "midi": 48,
          "name": "C3",
          "ticks": 19320,
          "time": 119.55437375000002,
          "velocity": 1
        },
        {
          "duration": 0.1485147499999897,
          "durationTicks": 24,
          "midi": 48,
          "name": "C3",
          "ticks": 19392,
          "time": 119.99991800000002,
          "velocity": 1
        },
        {
          "duration": 0.5940590000000014,
          "durationTicks": 96,
          "midi": 48,
          "name": "C3",
          "ticks": 19536,
          "time": 120.89100650000002,
          "velocity": 1
        },
        {
          "duration": 0.2970294999999936,
          "durationTicks": 48,
          "midi": 48,
          "name": "C3",
          "ticks": 19680,
          "time": 121.78209500000003,
          "velocity": 1
        },
        {
          "duration": 0.29702950000000783,
          "durationTicks": 48,
          "midi": 48,
          "name": "C3",
          "ticks": 19752,
          "time": 122.22763925000001,
          "velocity": 1
        },
        {
          "duration": 0.5940590000000014,
          "durationTicks": 96,
          "midi": 48,
          "name": "C3",
          "ticks": 19896,
          "time": 123.11872775000002,
          "velocity": 1
        },
        {
          "duration": 0.2970294999999794,
          "durationTicks": 48,
          "midi": 48,
          "name": "C3",
          "ticks": 20040,
          "time": 124.00981625000003,
          "velocity": 1
        },
        {
          "duration": 0.29702950000000783,
          "durationTicks": 48,
          "midi": 48,
          "name": "C3",
          "ticks": 20112,
          "time": 124.45536050000001,
          "velocity": 1
        },
        {
          "duration": 0.5940590000000014,
          "durationTicks": 96,
          "midi": 48,
          "name": "C3",
          "ticks": 20256,
          "time": 125.34644900000002,
          "velocity": 1
        },
        {
          "duration": 0.2970294999999936,
          "durationTicks": 48,
          "midi": 48,
          "name": "C3",
          "ticks": 20400,
          "time": 126.23753750000002,
          "velocity": 1
        },
        {
          "duration": 0.29702950000000783,
          "durationTicks": 48,
          "midi": 48,
          "name": "C3",
          "ticks": 20472,
          "time": 126.68308175000001,
          "velocity": 1
        },
        {
          "duration": 0.5940590000000157,
          "durationTicks": 96,
          "midi": 48,
          "name": "C3",
          "ticks": 20616,
          "time": 127.57417025000001,
          "velocity": 1
        },
        {
          "duration": 0.2970294999999794,
          "durationTicks": 48,
          "midi": 48,
          "name": "C3",
          "ticks": 20760,
          "time": 128.46525875000003,
          "velocity": 1
        },
        {
          "duration": 0.14851475000000391,
          "durationTicks": 24,
          "midi": 48,
          "name": "C3",
          "ticks": 20832,
          "time": 128.91080300000002,
          "velocity": 1
        },
        {
          "duration": 0.5940590000000157,
          "durationTicks": 96,
          "midi": 48,
          "name": "C3",
          "ticks": 20976,
          "time": 129.8018915,
          "velocity": 1
        },
        {
          "duration": 0.2970294999999794,
          "durationTicks": 48,
          "midi": 48,
          "name": "C3",
          "ticks": 21120,
          "time": 130.69298000000003,
          "velocity": 1
        },
        {
          "duration": 0.29702950000000783,
          "durationTicks": 48,
          "midi": 48,
          "name": "C3",
          "ticks": 21192,
          "time": 131.13852425000002,
          "velocity": 1
        },
        {
          "duration": 0.5940590000000157,
          "durationTicks": 96,
          "midi": 48,
          "name": "C3",
          "ticks": 21336,
          "time": 132.02961275,
          "velocity": 1
        },
        {
          "duration": 0.2970294999999794,
          "durationTicks": 48,
          "midi": 48,
          "name": "C3",
          "ticks": 21480,
          "time": 132.92070125000004,
          "velocity": 1
        },
        {
          "duration": 0.29702950000000783,
          "durationTicks": 48,
          "midi": 48,
          "name": "C3",
          "ticks": 21552,
          "time": 133.36624550000002,
          "velocity": 1
        },
        {
          "duration": 0.5940590000000157,
          "durationTicks": 96,
          "midi": 48,
          "name": "C3",
          "ticks": 21696,
          "time": 134.25733400000001,
          "velocity": 1
        },
        {
          "duration": 0.29702950000000783,
          "durationTicks": 48,
          "midi": 48,
          "name": "C3",
          "ticks": 21840,
          "time": 135.1484225,
          "velocity": 1
        },
        {
          "duration": 0.29702950000000783,
          "durationTicks": 48,
          "midi": 48,
          "name": "C3",
          "ticks": 21912,
          "time": 135.59396675000002,
          "velocity": 1
        },
        {
          "duration": 0.5940590000000157,
          "durationTicks": 96,
          "midi": 48,
          "name": "C3",
          "ticks": 22056,
          "time": 136.48505525000002,
          "velocity": 1
        },
        {
          "duration": 0.29702950000000783,
          "durationTicks": 48,
          "midi": 48,
          "name": "C3",
          "ticks": 22200,
          "time": 137.37614375,
          "velocity": 1
        },
        {
          "duration": 0.14851475000000391,
          "durationTicks": 24,
          "midi": 48,
          "name": "C3",
          "ticks": 22272,
          "time": 137.82168800000002,
          "velocity": 1
        },
        {
          "duration": 0.5940590000000157,
          "durationTicks": 96,
          "midi": 48,
          "name": "C3",
          "ticks": 22416,
          "time": 138.71277650000002,
          "velocity": 1
        },
        {
          "duration": 0.29702950000000783,
          "durationTicks": 48,
          "midi": 48,
          "name": "C3",
          "ticks": 22560,
          "time": 139.603865,
          "velocity": 1
        },
        {
          "duration": 0.2970294999999794,
          "durationTicks": 48,
          "midi": 48,
          "name": "C3",
          "ticks": 22632,
          "time": 140.04940925000002,
          "velocity": 1
        },
        {
          "duration": 0.5940590000000157,
          "durationTicks": 96,
          "midi": 48,
          "name": "C3",
          "ticks": 22776,
          "time": 140.94049775000002,
          "velocity": 1
        },
        {
          "duration": 0.29702950000000783,
          "durationTicks": 48,
          "midi": 48,
          "name": "C3",
          "ticks": 22920,
          "time": 141.83158625000002,
          "velocity": 1
        },
        {
          "duration": 0.3155938437500083,
          "durationTicks": 51,
          "midi": 48,
          "name": "C3",
          "ticks": 22992,
          "time": 142.27713050000003,
          "velocity": 1
        },
        {
          "duration": 8.298261656249991,
          "durationTicks": 1341,
          "midi": 48,
          "name": "C3",
          "ticks": 23043,
          "time": 142.59272434375004,
          "velocity": 1
        },
        {
          "duration": 0.34034630208333283,
          "durationTicks": 55,
          "midi": 49,
          "name": "C#3",
          "ticks": 24425,
          "time": 151.14469869791668,
          "velocity": 0.7086614173228346
        },
        {
          "duration": 0.29702950000000783,
          "durationTicks": 48,
          "midi": 48,
          "name": "C3",
          "ticks": 24432,
          "time": 151.1880155,
          "velocity": 1
        },
        {
          "duration": 0.5940589999999872,
          "durationTicks": 96,
          "midi": 48,
          "name": "C3",
          "ticks": 24576,
          "time": 152.07910400000003,
          "velocity": 1
        },
        {
          "duration": 0.2970294999999794,
          "durationTicks": 48,
          "midi": 48,
          "name": "C3",
          "ticks": 24720,
          "time": 152.97019250000002,
          "velocity": 1
        },
        {
          "duration": 0.29702950000000783,
          "durationTicks": 48,
          "midi": 48,
          "name": "C3",
          "ticks": 24792,
          "time": 153.41573675,
          "velocity": 1
        },
        {
          "duration": 0.5940589999999872,
          "durationTicks": 96,
          "midi": 48,
          "name": "C3",
          "ticks": 24936,
          "time": 154.30682525000003,
          "velocity": 1
        },
        {
          "duration": 0.29702950000000783,
          "durationTicks": 48,
          "midi": 48,
          "name": "C3",
          "ticks": 25080,
          "time": 155.19791375,
          "velocity": 1
        },
        {
          "duration": 0.14851475000000391,
          "durationTicks": 24,
          "midi": 48,
          "name": "C3",
          "ticks": 25152,
          "time": 155.643458,
          "velocity": 1
        },
        {
          "duration": 0.5940589999999872,
          "durationTicks": 96,
          "midi": 48,
          "name": "C3",
          "ticks": 25296,
          "time": 156.53454650000003,
          "velocity": 1
        },
        {
          "duration": 0.29702950000000783,
          "durationTicks": 48,
          "midi": 48,
          "name": "C3",
          "ticks": 25440,
          "time": 157.425635,
          "velocity": 1
        },
        {
          "duration": 0.29702950000000783,
          "durationTicks": 48,
          "midi": 48,
          "name": "C3",
          "ticks": 25512,
          "time": 157.87117925,
          "velocity": 1
        },
        {
          "duration": 0.5940589999999872,
          "durationTicks": 96,
          "midi": 48,
          "name": "C3",
          "ticks": 25656,
          "time": 158.76226775000003,
          "velocity": 1
        },
        {
          "duration": 0.29702950000000783,
          "durationTicks": 48,
          "midi": 48,
          "name": "C3",
          "ticks": 25800,
          "time": 159.65335625,
          "velocity": 1
        },
        {
          "duration": 0.29702950000000783,
          "durationTicks": 48,
          "midi": 48,
          "name": "C3",
          "ticks": 25872,
          "time": 160.0989005,
          "velocity": 1
        },
        {
          "duration": 0.5940589999999872,
          "durationTicks": 96,
          "midi": 48,
          "name": "C3",
          "ticks": 26016,
          "time": 160.98998900000004,
          "velocity": 1
        },
        {
          "duration": 0.29702950000000783,
          "durationTicks": 48,
          "midi": 48,
          "name": "C3",
          "ticks": 26160,
          "time": 161.8810775,
          "velocity": 1
        },
        {
          "duration": 0.29702950000000783,
          "durationTicks": 48,
          "midi": 48,
          "name": "C3",
          "ticks": 26232,
          "time": 162.32662175000002,
          "velocity": 1
        },
        {
          "duration": 0.5940589999999588,
          "durationTicks": 96,
          "midi": 48,
          "name": "C3",
          "ticks": 26376,
          "time": 163.21771025000004,
          "velocity": 1
        },
        {
          "duration": 0.29702950000000783,
          "durationTicks": 48,
          "midi": 48,
          "name": "C3",
          "ticks": 26520,
          "time": 164.10879875,
          "velocity": 1
        },
        {
          "duration": 0.14851475000000391,
          "durationTicks": 24,
          "midi": 48,
          "name": "C3",
          "ticks": 26592,
          "time": 164.55434300000002,
          "velocity": 1
        },
        {
          "duration": 0.5940589999999872,
          "durationTicks": 96,
          "midi": 48,
          "name": "C3",
          "ticks": 26640,
          "time": 164.85137250000002,
          "velocity": 1
        },
        {
          "duration": 0.5940589999999872,
          "durationTicks": 96,
          "midi": 48,
          "name": "C3",
          "ticks": 26736,
          "time": 165.4454315,
          "velocity": 1
        },
        {
          "duration": 0.29702950000000783,
          "durationTicks": 48,
          "midi": 48,
          "name": "C3",
          "ticks": 26880,
          "time": 166.33652,
          "velocity": 1
        },
        {
          "duration": 0.29702950000000783,
          "durationTicks": 48,
          "midi": 48,
          "name": "C3",
          "ticks": 26952,
          "time": 166.78206425000002,
          "velocity": 1
        },
        {
          "duration": 0.5940589999999872,
          "durationTicks": 96,
          "midi": 48,
          "name": "C3",
          "ticks": 27096,
          "time": 167.67315275,
          "velocity": 1
        },
        {
          "duration": 0.29702950000000783,
          "durationTicks": 48,
          "midi": 48,
          "name": "C3",
          "ticks": 27240,
          "time": 168.56424125,
          "velocity": 1
        },
        {
          "duration": 0.29702950000000783,
          "durationTicks": 48,
          "midi": 48,
          "name": "C3",
          "ticks": 27312,
          "time": 169.00978550000002,
          "velocity": 1
        },
        {
          "duration": 0.5940589999999872,
          "durationTicks": 96,
          "midi": 48,
          "name": "C3",
          "ticks": 27456,
          "time": 169.90087400000002,
          "velocity": 1
        },
        {
          "duration": 0.29702950000000783,
          "durationTicks": 48,
          "midi": 48,
          "name": "C3",
          "ticks": 27600,
          "time": 170.7919625,
          "velocity": 1
        },
        {
          "duration": 0.29702950000000783,
          "durationTicks": 48,
          "midi": 48,
          "name": "C3",
          "ticks": 27672,
          "time": 171.23750675000002,
          "velocity": 1
        },
        {
          "duration": 0.5940589999999872,
          "durationTicks": 96,
          "midi": 48,
          "name": "C3",
          "ticks": 27816,
          "time": 172.12859525000002,
          "velocity": 1
        },
        {
          "duration": 0.29702950000000783,
          "durationTicks": 48,
          "midi": 48,
          "name": "C3",
          "ticks": 27960,
          "time": 173.01968375,
          "velocity": 1
        },
        {
          "duration": 0.14851475000000391,
          "durationTicks": 24,
          "midi": 48,
          "name": "C3",
          "ticks": 28032,
          "time": 173.46522800000002,
          "velocity": 1
        },
        {
          "duration": 0.5940589999999872,
          "durationTicks": 96,
          "midi": 48,
          "name": "C3",
          "ticks": 28080,
          "time": 173.76225750000003,
          "velocity": 1
        },
        {
          "duration": 0.5940589999999872,
          "durationTicks": 96,
          "midi": 48,
          "name": "C3",
          "ticks": 28176,
          "time": 174.35631650000002,
          "velocity": 1
        },
        {
          "duration": 0.29702950000000783,
          "durationTicks": 48,
          "midi": 48,
          "name": "C3",
          "ticks": 28320,
          "time": 175.24740500000001,
          "velocity": 1
        },
        {
          "duration": 0.29702950000000783,
          "durationTicks": 48,
          "midi": 48,
          "name": "C3",
          "ticks": 28392,
          "time": 175.69294925000003,
          "velocity": 1
        },
        {
          "duration": 0.5940589999999872,
          "durationTicks": 96,
          "midi": 48,
          "name": "C3",
          "ticks": 28536,
          "time": 176.58403775000002,
          "velocity": 1
        },
        {
          "duration": 0.29702950000000783,
          "durationTicks": 48,
          "midi": 48,
          "name": "C3",
          "ticks": 28680,
          "time": 177.47512625000002,
          "velocity": 1
        },
        {
          "duration": 0.29702950000000783,
          "durationTicks": 48,
          "midi": 48,
          "name": "C3",
          "ticks": 28752,
          "time": 177.92067050000003,
          "velocity": 1
        },
        {
          "duration": 0.5940589999999872,
          "durationTicks": 96,
          "midi": 48,
          "name": "C3",
          "ticks": 28896,
          "time": 178.81175900000002,
          "velocity": 1
        },
        {
          "duration": 0.29702950000000783,
          "durationTicks": 48,
          "midi": 48,
          "name": "C3",
          "ticks": 29040,
          "time": 179.70284750000002,
          "velocity": 1
        },
        {
          "duration": 0.29702950000000783,
          "durationTicks": 48,
          "midi": 48,
          "name": "C3",
          "ticks": 29112,
          "time": 180.14839175000003,
          "velocity": 1
        },
        {
          "duration": 0.5940589999999872,
          "durationTicks": 96,
          "midi": 48,
          "name": "C3",
          "ticks": 29256,
          "time": 181.03948025000003,
          "velocity": 1
        },
        {
          "duration": 0.29702950000000783,
          "durationTicks": 48,
          "midi": 48,
          "name": "C3",
          "ticks": 29400,
          "time": 181.93056875000002,
          "velocity": 1
        },
        {
          "duration": 0.14851475000000391,
          "durationTicks": 24,
          "midi": 48,
          "name": "C3",
          "ticks": 29472,
          "time": 182.37611300000003,
          "velocity": 1
        },
        {
          "duration": 0.5940590000000157,
          "durationTicks": 96,
          "midi": 48,
          "name": "C3",
          "ticks": 29616,
          "time": 183.2672015,
          "velocity": 1
        },
        {
          "duration": 0.29702950000000783,
          "durationTicks": 48,
          "midi": 48,
          "name": "C3",
          "ticks": 29760,
          "time": 184.15829000000002,
          "velocity": 1
        },
        {
          "duration": 0.2970294999999794,
          "durationTicks": 48,
          "midi": 48,
          "name": "C3",
          "ticks": 29832,
          "time": 184.60383425000003,
          "velocity": 1
        },
        {
          "duration": 0.5940590000000157,
          "durationTicks": 96,
          "midi": 48,
          "name": "C3",
          "ticks": 29976,
          "time": 185.49492275,
          "velocity": 1
        },
        {
          "duration": 0.29702950000000783,
          "durationTicks": 48,
          "midi": 48,
          "name": "C3",
          "ticks": 30120,
          "time": 186.38601125000002,
          "velocity": 1
        },
        {
          "duration": 0.2970294999999794,
          "durationTicks": 48,
          "midi": 48,
          "name": "C3",
          "ticks": 30192,
          "time": 186.83155550000004,
          "velocity": 1
        },
        {
          "duration": 0.5940590000000157,
          "durationTicks": 96,
          "midi": 48,
          "name": "C3",
          "ticks": 30336,
          "time": 187.722644,
          "velocity": 1
        },
        {
          "duration": 0.29702950000000783,
          "durationTicks": 48,
          "midi": 48,
          "name": "C3",
          "ticks": 30480,
          "time": 188.61373250000003,
          "velocity": 1
        },
        {
          "duration": 0.2970294999999794,
          "durationTicks": 48,
          "midi": 48,
          "name": "C3",
          "ticks": 30552,
          "time": 189.05927675000004,
          "velocity": 1
        },
        {
          "duration": 0.5940590000000157,
          "durationTicks": 96,
          "midi": 48,
          "name": "C3",
          "ticks": 30696,
          "time": 189.95036525,
          "velocity": 1
        },
        {
          "duration": 0.29702950000000783,
          "durationTicks": 48,
          "midi": 48,
          "name": "C3",
          "ticks": 30840,
          "time": 190.84145375000003,
          "velocity": 1
        },
        {
          "duration": 0.1485147499999755,
          "durationTicks": 24,
          "midi": 48,
          "name": "C3",
          "ticks": 30912,
          "time": 191.28699800000004,
          "velocity": 1
        },
        {
          "duration": 0.5940590000000157,
          "durationTicks": 96,
          "midi": 48,
          "name": "C3",
          "ticks": 31056,
          "time": 192.1780865,
          "velocity": 1
        },
        {
          "duration": 0.29702950000000783,
          "durationTicks": 48,
          "midi": 48,
          "name": "C3",
          "ticks": 31200,
          "time": 193.06917500000003,
          "velocity": 1
        },
        {
          "duration": 0.29702950000000783,
          "durationTicks": 48,
          "midi": 48,
          "name": "C3",
          "ticks": 31272,
          "time": 193.51471925,
          "velocity": 1
        },
        {
          "duration": 0.5940590000000157,
          "durationTicks": 96,
          "midi": 48,
          "name": "C3",
          "ticks": 31416,
          "time": 194.40580775,
          "velocity": 1
        },
        {
          "duration": 0.29702950000000783,
          "durationTicks": 48,
          "midi": 48,
          "name": "C3",
          "ticks": 31560,
          "time": 195.29689625000003,
          "velocity": 1
        },
        {
          "duration": 0.29702950000000783,
          "durationTicks": 48,
          "midi": 48,
          "name": "C3",
          "ticks": 31632,
          "time": 195.74244050000001,
          "velocity": 1
        },
        {
          "duration": 0.5940590000000157,
          "durationTicks": 96,
          "midi": 48,
          "name": "C3",
          "ticks": 31776,
          "time": 196.633529,
          "velocity": 1
        },
        {
          "duration": 0.2970294999999794,
          "durationTicks": 48,
          "midi": 48,
          "name": "C3",
          "ticks": 31920,
          "time": 197.52461750000003,
          "velocity": 1
        },
        {
          "duration": 0.29702950000000783,
          "durationTicks": 48,
          "midi": 48,
          "name": "C3",
          "ticks": 31992,
          "time": 197.97016175000002,
          "velocity": 1
        },
        {
          "duration": 0.5940590000000157,
          "durationTicks": 96,
          "midi": 48,
          "name": "C3",
          "ticks": 32136,
          "time": 198.86125025,
          "velocity": 1
        },
        {
          "duration": 0.2970294999999794,
          "durationTicks": 48,
          "midi": 48,
          "name": "C3",
          "ticks": 32280,
          "time": 199.75233875000004,
          "velocity": 1
        },
        {
          "duration": 0.14851475000000391,
          "durationTicks": 24,
          "midi": 48,
          "name": "C3",
          "ticks": 32352,
          "time": 200.19788300000002,
          "velocity": 1
        },
        {
          "duration": 0.5940590000000157,
          "durationTicks": 96,
          "midi": 48,
          "name": "C3",
          "ticks": 32496,
          "time": 201.0889715,
          "velocity": 1
        },
        {
          "duration": 0.2970294999999794,
          "durationTicks": 48,
          "midi": 48,
          "name": "C3",
          "ticks": 32640,
          "time": 201.98006000000004,
          "velocity": 1
        },
        {
          "duration": 0.2970294999999794,
          "durationTicks": 48,
          "midi": 48,
          "name": "C3",
          "ticks": 32712,
          "time": 202.42560425000002,
          "velocity": 1
        },
        {
          "duration": 0.5940590000000157,
          "durationTicks": 96,
          "midi": 48,
          "name": "C3",
          "ticks": 32856,
          "time": 203.31669275000002,
          "velocity": 1
        },
        {
          "duration": 0.4022274479166583,
          "durationTicks": 65,
          "midi": 48,
          "name": "C3",
          "ticks": 33000,
          "time": 204.20778125000004,
          "velocity": 1
        },
        {
          "duration": 18.16211630208332,
          "durationTicks": 2935,
          "midi": 49,
          "name": "C#3",
          "ticks": 33065,
          "time": 204.6100086979167,
          "velocity": 0.7086614173228346
        },
        {
          "duration": 0.2970294999999794,
          "durationTicks": 48,
          "midi": 48,
          "name": "C3",
          "ticks": 33072,
          "time": 204.65332550000002,
          "velocity": 1
        },
        {
          "duration": 1.6336622500000146,
          "durationTicks": 264,
          "midi": 48,
          "name": "C3",
          "ticks": 33792,
          "time": 209.108768,
          "velocity": 1
        },
        {
          "duration": 0.4455442499999833,
          "durationTicks": 72,
          "midi": 48,
          "name": "C3",
          "ticks": 34008,
          "time": 210.44540075,
          "velocity": 1
        },
        {
          "duration": 0.29702950000000783,
          "durationTicks": 48,
          "midi": 48,
          "name": "C3",
          "ticks": 34152,
          "time": 211.33648925,
          "velocity": 1
        },
        {
          "duration": 0.29702950000000783,
          "durationTicks": 48,
          "midi": 48,
          "name": "C3",
          "ticks": 34512,
          "time": 213.5642105,
          "velocity": 1
        },
        {
          "duration": 1.6336622499999862,
          "durationTicks": 264,
          "midi": 48,
          "name": "C3",
          "ticks": 35232,
          "time": 218.019653,
          "velocity": 1
        },
        {
          "duration": 1.188118000000003,
          "durationTicks": 192,
          "midi": 48,
          "name": "C3",
          "ticks": 35448,
          "time": 219.35628575,
          "velocity": 1
        },
        {
          "duration": 1.930691749999994,
          "durationTicks": 312,
          "midi": 48,
          "name": "C3",
          "ticks": 35592,
          "time": 220.24737425,
          "velocity": 1
        },
        {
          "duration": 18.118799499999994,
          "durationTicks": 2928,
          "midi": 49,
          "name": "C#3",
          "ticks": 35897,
          "time": 222.13474919791668,
          "velocity": 0.7086614173228346
        },
        {
          "duration": 0.5940590000000157,
          "durationTicks": 96,
          "midi": 48,
          "name": "C3",
          "ticks": 35904,
          "time": 222.178066,
          "velocity": 1
        },
        {
          "duration": 0.29702950000000783,
          "durationTicks": 48,
          "midi": 48,
          "name": "C3",
          "ticks": 35952,
          "time": 222.4750955,
          "velocity": 1
        },
        {
          "duration": 1.3366327500000068,
          "durationTicks": 216,
          "midi": 48,
          "name": "C3",
          "ticks": 35976,
          "time": 222.62361025,
          "velocity": 0.4566929133858268
        },
        {
          "duration": 1.188118000000003,
          "durationTicks": 192,
          "midi": 48,
          "name": "C3",
          "ticks": 36096,
          "time": 223.366184,
          "velocity": 1
        },
        {
          "duration": 0.7425737499999912,
          "durationTicks": 120,
          "midi": 48,
          "name": "C3",
          "ticks": 36240,
          "time": 224.25727250000003,
          "velocity": 1
        },
        {
          "duration": 1.4851475000000107,
          "durationTicks": 240,
          "midi": 48,
          "name": "C3",
          "ticks": 36312,
          "time": 224.70281675,
          "velocity": 1
        },
        {
          "duration": 1.188118000000003,
          "durationTicks": 192,
          "midi": 48,
          "name": "C3",
          "ticks": 36456,
          "time": 225.59390525,
          "velocity": 1
        },
        {
          "duration": 0.5940589999999872,
          "durationTicks": 96,
          "midi": 48,
          "name": "C3",
          "ticks": 36600,
          "time": 226.48499375000003,
          "velocity": 1
        },
        {
          "duration": 0.29702950000000783,
          "durationTicks": 48,
          "midi": 48,
          "name": "C3",
          "ticks": 36672,
          "time": 226.930538,
          "velocity": 1
        },
        {
          "duration": 1.188118000000003,
          "durationTicks": 192,
          "midi": 48,
          "name": "C3",
          "ticks": 36720,
          "time": 227.22756750000002,
          "velocity": 1
        },
        {
          "duration": 1.188118000000003,
          "durationTicks": 192,
          "midi": 48,
          "name": "C3",
          "ticks": 36816,
          "time": 227.8216265,
          "velocity": 1
        },
        {
          "duration": 0.7425737500000196,
          "durationTicks": 120,
          "midi": 48,
          "name": "C3",
          "ticks": 36960,
          "time": 228.712715,
          "velocity": 1
        },
        {
          "duration": 1.4851475000000107,
          "durationTicks": 240,
          "midi": 48,
          "name": "C3",
          "ticks": 37032,
          "time": 229.15825925000001,
          "velocity": 1
        },
        {
          "duration": 0.5940590000000157,
          "durationTicks": 96,
          "midi": 48,
          "name": "C3",
          "ticks": 37176,
          "time": 230.04934775,
          "velocity": 1
        },
        {
          "duration": 0.29702950000000783,
          "durationTicks": 48,
          "midi": 48,
          "name": "C3",
          "ticks": 37320,
          "time": 230.94043625,
          "velocity": 1
        },
        {
          "duration": 0.29702950000000783,
          "durationTicks": 48,
          "midi": 48,
          "name": "C3",
          "ticks": 37392,
          "time": 231.38598050000002,
          "velocity": 1
        },
        {
          "duration": 0.5940590000000157,
          "durationTicks": 96,
          "midi": 48,
          "name": "C3",
          "ticks": 37536,
          "time": 232.277069,
          "velocity": 1
        },
        {
          "duration": 0.29702950000000783,
          "durationTicks": 48,
          "midi": 48,
          "name": "C3",
          "ticks": 37680,
          "time": 233.1681575,
          "velocity": 1
        },
        {
          "duration": 0.29702950000000783,
          "durationTicks": 48,
          "midi": 48,
          "name": "C3",
          "ticks": 37752,
          "time": 233.61370175000002,
          "velocity": 1
        },
        {
          "duration": 0.5940590000000157,
          "durationTicks": 96,
          "midi": 48,
          "name": "C3",
          "ticks": 37896,
          "time": 234.50479025,
          "velocity": 1
        },
        {
          "duration": 0.29702950000000783,
          "durationTicks": 48,
          "midi": 48,
          "name": "C3",
          "ticks": 38040,
          "time": 235.39587875,
          "velocity": 1
        },
        {
          "duration": 0.14851475000000391,
          "durationTicks": 24,
          "midi": 48,
          "name": "C3",
          "ticks": 38112,
          "time": 235.84142300000002,
          "velocity": 1
        },
        {
          "duration": 0.5940589999999872,
          "durationTicks": 96,
          "midi": 48,
          "name": "C3",
          "ticks": 38256,
          "time": 236.73251150000002,
          "velocity": 1
        },
        {
          "duration": 0.29702950000000783,
          "durationTicks": 48,
          "midi": 48,
          "name": "C3",
          "ticks": 38400,
          "time": 237.6236,
          "velocity": 1
        },
        {
          "duration": 0.29702950000000783,
          "durationTicks": 48,
          "midi": 48,
          "name": "C3",
          "ticks": 38472,
          "time": 238.06914425000002,
          "velocity": 1
        },
        {
          "duration": 0.5940589999999872,
          "durationTicks": 96,
          "midi": 48,
          "name": "C3",
          "ticks": 38616,
          "time": 238.96023275000002,
          "velocity": 1
        },
        {
          "duration": 1.231434802083328,
          "durationTicks": 199,
          "midi": 49,
          "name": "C#3",
          "ticks": 38753,
          "time": 239.8080044479167,
          "velocity": 0.7086614173228346
        },
        {
          "duration": 0.4022274479166583,
          "durationTicks": 65,
          "midi": 48,
          "name": "C3",
          "ticks": 38760,
          "time": 239.85132125,
          "velocity": 1
        },
        {
          "duration": 0.7858905520833446,
          "durationTicks": 127,
          "midi": 49,
          "name": "C#3",
          "ticks": 38825,
          "time": 240.25354869791667,
          "velocity": 0.7086614173228346
        },
        {
          "duration": 0.7425737499999912,
          "durationTicks": 120,
          "midi": 48,
          "name": "C3",
          "ticks": 38832,
          "time": 240.29686550000002,
          "velocity": 1
        }
      ],
      "endOfTrackTicks": 38952
    },
    {
      "channel": 0,
      "controlChanges": {},
      "pitchBends": [],
      "instrument": {
        "family": "piano",
        "number": 0,
        "name": "acoustic grand piano"
      },
      "name": "Track 06 (06:     June 23rd 2026)",
      "notes": [
        {
          "duration": 0.1485147499999968,
          "durationTicks": 24,
          "midi": 48,
          "name": "C3",
          "ticks": 4152,
          "time": 25.693051750000002,
          "velocity": 0.2992125984251969
        },
        {
          "duration": 0.14851475000000391,
          "durationTicks": 24,
          "midi": 48,
          "name": "C3",
          "ticks": 4176,
          "time": 25.8415665,
          "velocity": 0.5511811023622047
        },
        {
          "duration": 0.29702949999999717,
          "durationTicks": 48,
          "midi": 48,
          "name": "C3",
          "ticks": 4200,
          "time": 25.990081250000003,
          "velocity": 1
        },
        {
          "duration": 0.14851475000000036,
          "durationTicks": 24,
          "midi": 48,
          "name": "C3",
          "ticks": 4248,
          "time": 26.28711075,
          "velocity": 1
        },
        {
          "duration": 0.14851475000000036,
          "durationTicks": 24,
          "midi": 48,
          "name": "C3",
          "ticks": 4272,
          "time": 26.4356255,
          "velocity": 1
        },
        {
          "duration": 0.14851475000000036,
          "durationTicks": 24,
          "midi": 48,
          "name": "C3",
          "ticks": 4296,
          "time": 26.58414025,
          "velocity": 1
        },
        {
          "duration": 0.14851475000000036,
          "durationTicks": 24,
          "midi": 48,
          "name": "C3",
          "ticks": 4320,
          "time": 26.732655,
          "velocity": 1
        },
        {
          "duration": 0.14851475000000036,
          "durationTicks": 24,
          "midi": 48,
          "name": "C3",
          "ticks": 4344,
          "time": 26.88116975,
          "velocity": 1
        },
        {
          "duration": 0.1485147499999968,
          "durationTicks": 24,
          "midi": 48,
          "name": "C3",
          "ticks": 4368,
          "time": 27.029684500000002,
          "velocity": 1
        },
        {
          "duration": 0.14851475000000391,
          "durationTicks": 24,
          "midi": 48,
          "name": "C3",
          "ticks": 4392,
          "time": 27.17819925,
          "velocity": 1
        },
        {
          "duration": 0.1485147499999968,
          "durationTicks": 24,
          "midi": 48,
          "name": "C3",
          "ticks": 4416,
          "time": 27.326714000000003,
          "velocity": 1
        },
        {
          "duration": 0.14851475000000391,
          "durationTicks": 24,
          "midi": 48,
          "name": "C3",
          "ticks": 4440,
          "time": 27.47522875,
          "velocity": 1
        },
        {
          "duration": 0.29702949999999717,
          "durationTicks": 48,
          "midi": 48,
          "name": "C3",
          "ticks": 4464,
          "time": 27.623743500000003,
          "velocity": 1
        },
        {
          "duration": 0.14851475000000036,
          "durationTicks": 24,
          "midi": 48,
          "name": "C3",
          "ticks": 4512,
          "time": 27.920773,
          "velocity": 1
        },
        {
          "duration": 0.14851475000000036,
          "durationTicks": 24,
          "midi": 48,
          "name": "C3",
          "ticks": 4536,
          "time": 28.06928775,
          "velocity": 1
        },
        {
          "duration": 0.29702949999999717,
          "durationTicks": 48,
          "midi": 48,
          "name": "C3",
          "ticks": 4560,
          "time": 28.2178025,
          "velocity": 1
        },
        {
          "duration": 0.14851475000000391,
          "durationTicks": 24,
          "midi": 48,
          "name": "C3",
          "ticks": 4608,
          "time": 28.514832,
          "velocity": 1
        },
        {
          "duration": 0.1485147499999968,
          "durationTicks": 24,
          "midi": 48,
          "name": "C3",
          "ticks": 4632,
          "time": 28.663346750000002,
          "velocity": 1
        },
        {
          "duration": 0.14851475000000391,
          "durationTicks": 24,
          "midi": 48,
          "name": "C3",
          "ticks": 4656,
          "time": 28.8118615,
          "velocity": 1
        },
        {
          "duration": 0.1485147499999968,
          "durationTicks": 24,
          "midi": 48,
          "name": "C3",
          "ticks": 4680,
          "time": 28.960376250000003,
          "velocity": 1
        },
        {
          "duration": 0.14851475000000036,
          "durationTicks": 24,
          "midi": 48,
          "name": "C3",
          "ticks": 4704,
          "time": 29.108891,
          "velocity": 1
        },
        {
          "duration": 0.14851475000000036,
          "durationTicks": 24,
          "midi": 48,
          "name": "C3",
          "ticks": 4728,
          "time": 29.25740575,
          "velocity": 1
        },
        {
          "duration": 0.14851475000000036,
          "durationTicks": 24,
          "midi": 48,
          "name": "C3",
          "ticks": 4752,
          "time": 29.4059205,
          "velocity": 1
        },
        {
          "duration": 0.14851475000000036,
          "durationTicks": 24,
          "midi": 48,
          "name": "C3",
          "ticks": 4776,
          "time": 29.55443525,
          "velocity": 1
        },
        {
          "duration": 0.14851475000000036,
          "durationTicks": 24,
          "midi": 48,
          "name": "C3",
          "ticks": 4800,
          "time": 29.70295,
          "velocity": 1
        },
        {
          "duration": 0.29702949999999717,
          "durationTicks": 48,
          "midi": 48,
          "name": "C3",
          "ticks": 4824,
          "time": 29.85146475,
          "velocity": 1
        },
        {
          "duration": 0.14851475000000391,
          "durationTicks": 24,
          "midi": 48,
          "name": "C3",
          "ticks": 4872,
          "time": 30.14849425,
          "velocity": 1
        },
        {
          "duration": 0.1485147499999968,
          "durationTicks": 24,
          "midi": 48,
          "name": "C3",
          "ticks": 4896,
          "time": 30.297009000000003,
          "velocity": 1
        },
        {
          "duration": 0.2970295000000007,
          "durationTicks": 48,
          "midi": 48,
          "name": "C3",
          "ticks": 4920,
          "time": 30.44552375,
          "velocity": 1
        },
        {
          "duration": 0.14851475000000036,
          "durationTicks": 24,
          "midi": 48,
          "name": "C3",
          "ticks": 4968,
          "time": 30.74255325,
          "velocity": 1
        },
        {
          "duration": 0.14851475000000036,
          "durationTicks": 24,
          "midi": 48,
          "name": "C3",
          "ticks": 4992,
          "time": 30.891068,
          "velocity": 1
        },
        {
          "duration": 0.14851475000000036,
          "durationTicks": 24,
          "midi": 48,
          "name": "C3",
          "ticks": 5016,
          "time": 31.03958275,
          "velocity": 1
        },
        {
          "duration": 0.14851475000000036,
          "durationTicks": 24,
          "midi": 48,
          "name": "C3",
          "ticks": 5040,
          "time": 31.1880975,
          "velocity": 1
        },
        {
          "duration": 0.1485147499999968,
          "durationTicks": 24,
          "midi": 48,
          "name": "C3",
          "ticks": 5064,
          "time": 31.33661225,
          "velocity": 1
        },
        {
          "duration": 0.14851475000000391,
          "durationTicks": 24,
          "midi": 48,
          "name": "C3",
          "ticks": 5088,
          "time": 31.485127,
          "velocity": 1
        },
        {
          "duration": 0.1485147499999968,
          "durationTicks": 24,
          "midi": 48,
          "name": "C3",
          "ticks": 5112,
          "time": 31.633641750000002,
          "velocity": 1
        },
        {
          "duration": 0.14851475000000391,
          "durationTicks": 24,
          "midi": 48,
          "name": "C3",
          "ticks": 5136,
          "time": 31.7821565,
          "velocity": 1
        },
        {
          "duration": 0.1485147499999968,
          "durationTicks": 24,
          "midi": 48,
          "name": "C3",
          "ticks": 5160,
          "time": 31.930671250000003,
          "velocity": 1
        },
        {
          "duration": 0.2970295000000007,
          "durationTicks": 48,
          "midi": 48,
          "name": "C3",
          "ticks": 5184,
          "time": 32.079186,
          "velocity": 1
        },
        {
          "duration": 0.14851475000000391,
          "durationTicks": 24,
          "midi": 48,
          "name": "C3",
          "ticks": 5232,
          "time": 32.3762155,
          "velocity": 1
        },
        {
          "duration": 0.1485147499999968,
          "durationTicks": 24,
          "midi": 48,
          "name": "C3",
          "ticks": 5256,
          "time": 32.524730250000005,
          "velocity": 1
        },
        {
          "duration": 0.2970295000000007,
          "durationTicks": 48,
          "midi": 48,
          "name": "C3",
          "ticks": 5280,
          "time": 32.673245,
          "velocity": 1
        },
        {
          "duration": 0.1485147499999968,
          "durationTicks": 24,
          "midi": 48,
          "name": "C3",
          "ticks": 5328,
          "time": 32.9702745,
          "velocity": 1
        },
        {
          "duration": 0.14851475000000391,
          "durationTicks": 24,
          "midi": 48,
          "name": "C3",
          "ticks": 5352,
          "time": 33.11878925,
          "velocity": 1
        },
        {
          "duration": 0.1485147499999968,
          "durationTicks": 24,
          "midi": 48,
          "name": "C3",
          "ticks": 5376,
          "time": 33.267304,
          "velocity": 1
        },
        {
          "duration": 0.14851475000000391,
          "durationTicks": 24,
          "midi": 48,
          "name": "C3",
          "ticks": 5400,
          "time": 33.41581875,
          "velocity": 1
        },
        {
          "duration": 0.1485147499999968,
          "durationTicks": 24,
          "midi": 48,
          "name": "C3",
          "ticks": 5424,
          "time": 33.564333500000004,
          "velocity": 1
        },
        {
          "duration": 0.1485147499999968,
          "durationTicks": 24,
          "midi": 48,
          "name": "C3",
          "ticks": 5448,
          "time": 33.71284825,
          "velocity": 1
        },
        {
          "duration": 0.14851475000000391,
          "durationTicks": 24,
          "midi": 48,
          "name": "C3",
          "ticks": 5472,
          "time": 33.861363,
          "velocity": 1
        },
        {
          "duration": 0.14851475000000391,
          "durationTicks": 24,
          "midi": 48,
          "name": "C3",
          "ticks": 5496,
          "time": 34.00987775,
          "velocity": 1
        },
        {
          "duration": 0.1485147499999968,
          "durationTicks": 24,
          "midi": 48,
          "name": "C3",
          "ticks": 5520,
          "time": 34.158392500000005,
          "velocity": 1
        },
        {
          "duration": 0.2970295000000007,
          "durationTicks": 48,
          "midi": 48,
          "name": "C3",
          "ticks": 5544,
          "time": 34.30690725,
          "velocity": 1
        },
        {
          "duration": 0.1485147499999968,
          "durationTicks": 24,
          "midi": 48,
          "name": "C3",
          "ticks": 5592,
          "time": 34.60393675,
          "velocity": 1
        },
        {
          "duration": 0.1485147499999968,
          "durationTicks": 24,
          "midi": 48,
          "name": "C3",
          "ticks": 5616,
          "time": 34.7524515,
          "velocity": 1
        },
        {
          "duration": 0.29702950000000783,
          "durationTicks": 48,
          "midi": 48,
          "name": "C3",
          "ticks": 5640,
          "time": 34.900966249999996,
          "velocity": 1
        },
        {
          "duration": 0.1485147499999968,
          "durationTicks": 24,
          "midi": 48,
          "name": "C3",
          "ticks": 5688,
          "time": 35.197995750000004,
          "velocity": 1
        },
        {
          "duration": 0.1485147499999968,
          "durationTicks": 24,
          "midi": 48,
          "name": "C3",
          "ticks": 5712,
          "time": 35.3465105,
          "velocity": 1
        },
        {
          "duration": 0.14851475000000391,
          "durationTicks": 24,
          "midi": 48,
          "name": "C3",
          "ticks": 5736,
          "time": 35.49502525,
          "velocity": 1
        },
        {
          "duration": 0.14851475000000391,
          "durationTicks": 24,
          "midi": 48,
          "name": "C3",
          "ticks": 5760,
          "time": 35.64354,
          "velocity": 1
        },
        {
          "duration": 0.1485147499999968,
          "durationTicks": 24,
          "midi": 48,
          "name": "C3",
          "ticks": 5784,
          "time": 35.792054750000005,
          "velocity": 1
        },
        {
          "duration": 0.1485147499999968,
          "durationTicks": 24,
          "midi": 48,
          "name": "C3",
          "ticks": 5808,
          "time": 35.9405695,
          "velocity": 1
        },
        {
          "duration": 0.14851475000000391,
          "durationTicks": 24,
          "midi": 48,
          "name": "C3",
          "ticks": 5832,
          "time": 36.08908425,
          "velocity": 1
        },
        {
          "duration": 0.1485147499999968,
          "durationTicks": 24,
          "midi": 48,
          "name": "C3",
          "ticks": 5856,
          "time": 36.237599,
          "velocity": 1
        },
        {
          "duration": 0.1485147499999968,
          "durationTicks": 24,
          "midi": 48,
          "name": "C3",
          "ticks": 5880,
          "time": 36.38611375,
          "velocity": 1
        },
        {
          "duration": 0.29702950000000783,
          "durationTicks": 48,
          "midi": 48,
          "name": "C3",
          "ticks": 5904,
          "time": 36.5346285,
          "velocity": 1
        },
        {
          "duration": 0.1485147499999968,
          "durationTicks": 24,
          "midi": 48,
          "name": "C3",
          "ticks": 5952,
          "time": 36.831658000000004,
          "velocity": 1
        },
        {
          "duration": 0.1485147499999968,
          "durationTicks": 24,
          "midi": 48,
          "name": "C3",
          "ticks": 5976,
          "time": 36.98017275,
          "velocity": 1
        },
        {
          "duration": 0.29702950000000783,
          "durationTicks": 48,
          "midi": 48,
          "name": "C3",
          "ticks": 6000,
          "time": 37.1286875,
          "velocity": 1
        },
        {
          "duration": 0.1485147499999897,
          "durationTicks": 24,
          "midi": 48,
          "name": "C3",
          "ticks": 6048,
          "time": 37.425717000000006,
          "velocity": 1
        },
        {
          "duration": 0.14851475000000391,
          "durationTicks": 24,
          "midi": 48,
          "name": "C3",
          "ticks": 6072,
          "time": 37.574231749999996,
          "velocity": 1
        },
        {
          "duration": 0.14851475000000391,
          "durationTicks": 24,
          "midi": 48,
          "name": "C3",
          "ticks": 6096,
          "time": 37.7227465,
          "velocity": 1
        },
        {
          "duration": 0.1485147499999968,
          "durationTicks": 24,
          "midi": 48,
          "name": "C3",
          "ticks": 6120,
          "time": 37.87126125,
          "velocity": 1
        },
        {
          "duration": 0.1485147499999968,
          "durationTicks": 24,
          "midi": 48,
          "name": "C3",
          "ticks": 6144,
          "time": 38.019776,
          "velocity": 1
        },
        {
          "duration": 0.14851475000000391,
          "durationTicks": 24,
          "midi": 48,
          "name": "C3",
          "ticks": 6168,
          "time": 38.16829075,
          "velocity": 1
        },
        {
          "duration": 0.14851475000000391,
          "durationTicks": 24,
          "midi": 48,
          "name": "C3",
          "ticks": 6192,
          "time": 38.3168055,
          "velocity": 1
        },
        {
          "duration": 0.1485147499999968,
          "durationTicks": 24,
          "midi": 48,
          "name": "C3",
          "ticks": 6216,
          "time": 38.465320250000005,
          "velocity": 1
        },
        {
          "duration": 0.1485147499999968,
          "durationTicks": 24,
          "midi": 48,
          "name": "C3",
          "ticks": 6240,
          "time": 38.613835,
          "velocity": 1
        },
        {
          "duration": 0.2970295000000007,
          "durationTicks": 48,
          "midi": 48,
          "name": "C3",
          "ticks": 6264,
          "time": 38.76234975,
          "velocity": 1
        },
        {
          "duration": 0.1485147499999968,
          "durationTicks": 24,
          "midi": 48,
          "name": "C3",
          "ticks": 6312,
          "time": 39.05937925,
          "velocity": 1
        },
        {
          "duration": 0.14851475000000391,
          "durationTicks": 24,
          "midi": 48,
          "name": "C3",
          "ticks": 6336,
          "time": 39.207893999999996,
          "velocity": 1
        },
        {
          "duration": 0.2970295000000007,
          "durationTicks": 48,
          "midi": 48,
          "name": "C3",
          "ticks": 6360,
          "time": 39.35640875,
          "velocity": 1
        },
        {
          "duration": 0.1485147499999968,
          "durationTicks": 24,
          "midi": 48,
          "name": "C3",
          "ticks": 6408,
          "time": 39.65343825,
          "velocity": 1
        },
        {
          "duration": 0.14851475000000391,
          "durationTicks": 24,
          "midi": 48,
          "name": "C3",
          "ticks": 6432,
          "time": 39.801953,
          "velocity": 1
        },
        {
          "duration": 0.14851475000000391,
          "durationTicks": 24,
          "midi": 48,
          "name": "C3",
          "ticks": 6456,
          "time": 39.95046775,
          "velocity": 1
        },
        {
          "duration": 0.1485147499999968,
          "durationTicks": 24,
          "midi": 48,
          "name": "C3",
          "ticks": 6480,
          "time": 40.098982500000005,
          "velocity": 1
        },
        {
          "duration": 0.1485147499999968,
          "durationTicks": 24,
          "midi": 48,
          "name": "C3",
          "ticks": 6504,
          "time": 40.24749725,
          "velocity": 1
        },
        {
          "duration": 0.14851475000000391,
          "durationTicks": 24,
          "midi": 48,
          "name": "C3",
          "ticks": 6528,
          "time": 40.396012,
          "velocity": 1
        },
        {
          "duration": 0.1485147499999968,
          "durationTicks": 24,
          "midi": 48,
          "name": "C3",
          "ticks": 6552,
          "time": 40.54452675,
          "velocity": 1
        },
        {
          "duration": 0.1485147499999968,
          "durationTicks": 24,
          "midi": 48,
          "name": "C3",
          "ticks": 6576,
          "time": 40.6930415,
          "velocity": 1
        },
        {
          "duration": 0.14851475000000391,
          "durationTicks": 24,
          "midi": 48,
          "name": "C3",
          "ticks": 6600,
          "time": 40.84155625,
          "velocity": 1
        },
        {
          "duration": 0.2970295000000007,
          "durationTicks": 48,
          "midi": 48,
          "name": "C3",
          "ticks": 6624,
          "time": 40.990071,
          "velocity": 1
        },
        {
          "duration": 0.1485147499999968,
          "durationTicks": 24,
          "midi": 48,
          "name": "C3",
          "ticks": 6672,
          "time": 41.2871005,
          "velocity": 1
        },
        {
          "duration": 0.14851475000000391,
          "durationTicks": 24,
          "midi": 48,
          "name": "C3",
          "ticks": 6696,
          "time": 41.43561525,
          "velocity": 1
        },
        {
          "duration": 0.2970295000000007,
          "durationTicks": 48,
          "midi": 48,
          "name": "C3",
          "ticks": 6720,
          "time": 41.58413,
          "velocity": 1
        },
        {
          "duration": 0.1485147499999968,
          "durationTicks": 24,
          "midi": 48,
          "name": "C3",
          "ticks": 6768,
          "time": 41.8811595,
          "velocity": 1
        },
        {
          "duration": 0.14851475000000391,
          "durationTicks": 24,
          "midi": 48,
          "name": "C3",
          "ticks": 6792,
          "time": 42.02967425,
          "velocity": 1
        },
        {
          "duration": 0.1485147499999968,
          "durationTicks": 24,
          "midi": 48,
          "name": "C3",
          "ticks": 6816,
          "time": 42.178189,
          "velocity": 1
        },
        {
          "duration": 0.1485147499999968,
          "durationTicks": 24,
          "midi": 48,
          "name": "C3",
          "ticks": 6840,
          "time": 42.32670375,
          "velocity": 1
        },
        {
          "duration": 0.14851475000000391,
          "durationTicks": 24,
          "midi": 48,
          "name": "C3",
          "ticks": 6864,
          "time": 42.4752185,
          "velocity": 1
        },
        {
          "duration": 0.14851475000000391,
          "durationTicks": 24,
          "midi": 48,
          "name": "C3",
          "ticks": 6888,
          "time": 42.62373325,
          "velocity": 1
        },
        {
          "duration": 0.1485147499999968,
          "durationTicks": 24,
          "midi": 48,
          "name": "C3",
          "ticks": 6912,
          "time": 42.772248000000005,
          "velocity": 1
        },
        {
          "duration": 0.1485147499999968,
          "durationTicks": 24,
          "midi": 48,
          "name": "C3",
          "ticks": 6936,
          "time": 42.92076275,
          "velocity": 1
        },
        {
          "duration": 0.14851475000000391,
          "durationTicks": 24,
          "midi": 48,
          "name": "C3",
          "ticks": 6960,
          "time": 43.0692775,
          "velocity": 1
        },
        {
          "duration": 0.2970294999999936,
          "durationTicks": 48,
          "midi": 48,
          "name": "C3",
          "ticks": 6984,
          "time": 43.21779225,
          "velocity": 1
        },
        {
          "duration": 0.14851475000000391,
          "durationTicks": 24,
          "midi": 48,
          "name": "C3",
          "ticks": 7032,
          "time": 43.514821749999996,
          "velocity": 1
        },
        {
          "duration": 0.14851475000000391,
          "durationTicks": 24,
          "midi": 48,
          "name": "C3",
          "ticks": 7056,
          "time": 43.6633365,
          "velocity": 1
        },
        {
          "duration": 0.2970294999999936,
          "durationTicks": 48,
          "midi": 48,
          "name": "C3",
          "ticks": 7080,
          "time": 43.811851250000004,
          "velocity": 1
        },
        {
          "duration": 0.14851475000000391,
          "durationTicks": 24,
          "midi": 48,
          "name": "C3",
          "ticks": 7128,
          "time": 44.10888075,
          "velocity": 1
        },
        {
          "duration": 0.14851475000000391,
          "durationTicks": 24,
          "midi": 48,
          "name": "C3",
          "ticks": 7152,
          "time": 44.2573955,
          "velocity": 1
        },
        {
          "duration": 0.1485147499999968,
          "durationTicks": 24,
          "midi": 48,
          "name": "C3",
          "ticks": 7176,
          "time": 44.405910250000005,
          "velocity": 1
        },
        {
          "duration": 0.1485147499999968,
          "durationTicks": 24,
          "midi": 48,
          "name": "C3",
          "ticks": 7200,
          "time": 44.554425,
          "velocity": 1
        },
        {
          "duration": 0.14851475000000391,
          "durationTicks": 24,
          "midi": 48,
          "name": "C3",
          "ticks": 7224,
          "time": 44.70293975,
          "velocity": 1
        },
        {
          "duration": 0.1485147499999968,
          "durationTicks": 24,
          "midi": 48,
          "name": "C3",
          "ticks": 7248,
          "time": 44.8514545,
          "velocity": 1
        },
        {
          "duration": 0.1485147499999968,
          "durationTicks": 24,
          "midi": 48,
          "name": "C3",
          "ticks": 7272,
          "time": 44.99996925,
          "velocity": 1
        },
        {
          "duration": 0.14851475000000391,
          "durationTicks": 24,
          "midi": 48,
          "name": "C3",
          "ticks": 7296,
          "time": 45.148483999999996,
          "velocity": 1
        },
        {
          "duration": 0.14851475000000391,
          "durationTicks": 24,
          "midi": 48,
          "name": "C3",
          "ticks": 7320,
          "time": 45.29699875,
          "velocity": 1
        },
        {
          "duration": 0.2970294999999936,
          "durationTicks": 48,
          "midi": 48,
          "name": "C3",
          "ticks": 7344,
          "time": 45.445513500000004,
          "velocity": 1
        },
        {
          "duration": 0.14851475000000391,
          "durationTicks": 24,
          "midi": 48,
          "name": "C3",
          "ticks": 7392,
          "time": 45.742543,
          "velocity": 1
        },
        {
          "duration": 0.14851475000000391,
          "durationTicks": 24,
          "midi": 48,
          "name": "C3",
          "ticks": 7416,
          "time": 45.89105775,
          "velocity": 1
        },
        {
          "duration": 0.2970294999999936,
          "durationTicks": 48,
          "midi": 48,
          "name": "C3",
          "ticks": 7440,
          "time": 46.039572500000006,
          "velocity": 1
        },
        {
          "duration": 0.14851475000000391,
          "durationTicks": 24,
          "midi": 48,
          "name": "C3",
          "ticks": 7488,
          "time": 46.336602,
          "velocity": 1
        },
        {
          "duration": 0.1485147499999968,
          "durationTicks": 24,
          "midi": 48,
          "name": "C3",
          "ticks": 7512,
          "time": 46.48511675,
          "velocity": 1
        },
        {
          "duration": 0.1485147499999968,
          "durationTicks": 24,
          "midi": 48,
          "name": "C3",
          "ticks": 7536,
          "time": 46.6336315,
          "velocity": 1
        },
        {
          "duration": 0.14851475000000391,
          "durationTicks": 24,
          "midi": 48,
          "name": "C3",
          "ticks": 7560,
          "time": 46.78214625,
          "velocity": 1
        },
        {
          "duration": 0.14851475000000391,
          "durationTicks": 24,
          "midi": 48,
          "name": "C3",
          "ticks": 7584,
          "time": 46.930661,
          "velocity": 1
        },
        {
          "duration": 0.1485147499999968,
          "durationTicks": 24,
          "midi": 48,
          "name": "C3",
          "ticks": 7608,
          "time": 47.079175750000005,
          "velocity": 1
        },
        {
          "duration": 0.1485147499999968,
          "durationTicks": 24,
          "midi": 48,
          "name": "C3",
          "ticks": 7632,
          "time": 47.2276905,
          "velocity": 1
        },
        {
          "duration": 0.14851475000000391,
          "durationTicks": 24,
          "midi": 48,
          "name": "C3",
          "ticks": 7656,
          "time": 47.37620525,
          "velocity": 1
        },
        {
          "duration": 0.14851475000000391,
          "durationTicks": 24,
          "midi": 48,
          "name": "C3",
          "ticks": 7680,
          "time": 47.52472,
          "velocity": 1
        },
        {
          "duration": 0.2970294999999936,
          "durationTicks": 48,
          "midi": 48,
          "name": "C3",
          "ticks": 7704,
          "time": 47.673234750000006,
          "velocity": 1
        },
        {
          "duration": 0.14851475000000391,
          "durationTicks": 24,
          "midi": 48,
          "name": "C3",
          "ticks": 7752,
          "time": 47.97026425,
          "velocity": 1
        },
        {
          "duration": 0.1485147499999968,
          "durationTicks": 24,
          "midi": 48,
          "name": "C3",
          "ticks": 7776,
          "time": 48.118779,
          "velocity": 1
        },
        {
          "duration": 0.2970295000000007,
          "durationTicks": 48,
          "midi": 48,
          "name": "C3",
          "ticks": 7800,
          "time": 48.26729375,
          "velocity": 1
        },
        {
          "duration": 0.14851475000000391,
          "durationTicks": 24,
          "midi": 48,
          "name": "C3",
          "ticks": 7848,
          "time": 48.56432325,
          "velocity": 1
        },
        {
          "duration": 0.1485147499999968,
          "durationTicks": 24,
          "midi": 48,
          "name": "C3",
          "ticks": 7872,
          "time": 48.712838000000005,
          "velocity": 1
        },
        {
          "duration": 0.1485147499999968,
          "durationTicks": 24,
          "midi": 48,
          "name": "C3",
          "ticks": 7896,
          "time": 48.86135275,
          "velocity": 1
        },
        {
          "duration": 0.14851475000000391,
          "durationTicks": 24,
          "midi": 48,
          "name": "C3",
          "ticks": 7920,
          "time": 49.0098675,
          "velocity": 1
        },
        {
          "duration": 0.1485147499999968,
          "durationTicks": 24,
          "midi": 48,
          "name": "C3",
          "ticks": 7944,
          "time": 49.15838225,
          "velocity": 1
        },
        {
          "duration": 0.1485147499999968,
          "durationTicks": 24,
          "midi": 48,
          "name": "C3",
          "ticks": 7968,
          "time": 49.306897,
          "velocity": 1
        },
        {
          "duration": 0.14851475000000391,
          "durationTicks": 24,
          "midi": 48,
          "name": "C3",
          "ticks": 7992,
          "time": 49.455411749999996,
          "velocity": 1
        },
        {
          "duration": 0.14851475000000391,
          "durationTicks": 24,
          "midi": 48,
          "name": "C3",
          "ticks": 8016,
          "time": 49.6039265,
          "velocity": 1
        },
        {
          "duration": 0.1485147499999968,
          "durationTicks": 24,
          "midi": 48,
          "name": "C3",
          "ticks": 8040,
          "time": 49.752441250000004,
          "velocity": 1
        },
        {
          "duration": 0.2970295000000007,
          "durationTicks": 48,
          "midi": 48,
          "name": "C3",
          "ticks": 8064,
          "time": 49.900956,
          "velocity": 1
        },
        {
          "duration": 0.1485147499999968,
          "durationTicks": 24,
          "midi": 48,
          "name": "C3",
          "ticks": 8112,
          "time": 50.1979855,
          "velocity": 1
        },
        {
          "duration": 0.14851475000000391,
          "durationTicks": 24,
          "midi": 48,
          "name": "C3",
          "ticks": 8136,
          "time": 50.34650025,
          "velocity": 1
        },
        {
          "duration": 0.2970295000000007,
          "durationTicks": 48,
          "midi": 48,
          "name": "C3",
          "ticks": 8160,
          "time": 50.495015,
          "velocity": 1
        },
        {
          "duration": 0.1485147499999968,
          "durationTicks": 24,
          "midi": 48,
          "name": "C3",
          "ticks": 8208,
          "time": 50.7920445,
          "velocity": 1
        },
        {
          "duration": 0.14851475000000391,
          "durationTicks": 24,
          "midi": 48,
          "name": "C3",
          "ticks": 8232,
          "time": 50.94055925,
          "velocity": 1
        },
        {
          "duration": 0.1485147499999968,
          "durationTicks": 24,
          "midi": 48,
          "name": "C3",
          "ticks": 8256,
          "time": 51.089074000000004,
          "velocity": 1
        },
        {
          "duration": 0.14851475000000391,
          "durationTicks": 24,
          "midi": 48,
          "name": "C3",
          "ticks": 8280,
          "time": 51.23758875,
          "velocity": 1
        },
        {
          "duration": 0.1485147499999968,
          "durationTicks": 24,
          "midi": 48,
          "name": "C3",
          "ticks": 8304,
          "time": 51.386103500000004,
          "velocity": 1
        },
        {
          "duration": 0.1485147499999968,
          "durationTicks": 24,
          "midi": 48,
          "name": "C3",
          "ticks": 8328,
          "time": 51.53461825,
          "velocity": 1
        },
        {
          "duration": 0.14851475000000391,
          "durationTicks": 24,
          "midi": 48,
          "name": "C3",
          "ticks": 8352,
          "time": 51.683133,
          "velocity": 1
        },
        {
          "duration": 0.1485147499999968,
          "durationTicks": 24,
          "midi": 48,
          "name": "C3",
          "ticks": 8376,
          "time": 51.83164775,
          "velocity": 1
        },
        {
          "duration": 0.14851475000000391,
          "durationTicks": 24,
          "midi": 48,
          "name": "C3",
          "ticks": 8400,
          "time": 51.9801625,
          "velocity": 1
        },
        {
          "duration": 0.2970295000000007,
          "durationTicks": 48,
          "midi": 48,
          "name": "C3",
          "ticks": 8424,
          "time": 52.12867725,
          "velocity": 1
        },
        {
          "duration": 0.1485147499999968,
          "durationTicks": 24,
          "midi": 48,
          "name": "C3",
          "ticks": 8472,
          "time": 52.42570675,
          "velocity": 1
        },
        {
          "duration": 0.14851475000000391,
          "durationTicks": 24,
          "midi": 48,
          "name": "C3",
          "ticks": 8496,
          "time": 52.5742215,
          "velocity": 1
        },
        {
          "duration": 0.2970294999999936,
          "durationTicks": 48,
          "midi": 48,
          "name": "C3",
          "ticks": 8520,
          "time": 52.722736250000004,
          "velocity": 1
        },
        {
          "duration": 0.14851475000000391,
          "durationTicks": 24,
          "midi": 48,
          "name": "C3",
          "ticks": 8568,
          "time": 53.01976575,
          "velocity": 1
        },
        {
          "duration": 0.1485147499999968,
          "durationTicks": 24,
          "midi": 48,
          "name": "C3",
          "ticks": 8592,
          "time": 53.1682805,
          "velocity": 1
        },
        {
          "duration": 0.14851475000000391,
          "durationTicks": 24,
          "midi": 48,
          "name": "C3",
          "ticks": 8616,
          "time": 53.31679525,
          "velocity": 1
        },
        {
          "duration": 0.1485147499999968,
          "durationTicks": 24,
          "midi": 48,
          "name": "C3",
          "ticks": 8640,
          "time": 53.46531,
          "velocity": 1
        },
        {
          "duration": 0.14851475000000391,
          "durationTicks": 24,
          "midi": 48,
          "name": "C3",
          "ticks": 8664,
          "time": 53.61382475,
          "velocity": 1
        },
        {
          "duration": 0.1485147499999968,
          "durationTicks": 24,
          "midi": 48,
          "name": "C3",
          "ticks": 8688,
          "time": 53.7623395,
          "velocity": 1
        },
        {
          "duration": 0.14851475000000391,
          "durationTicks": 24,
          "midi": 48,
          "name": "C3",
          "ticks": 8712,
          "time": 53.91085425,
          "velocity": 1
        },
        {
          "duration": 0.1485147499999968,
          "durationTicks": 24,
          "midi": 48,
          "name": "C3",
          "ticks": 8736,
          "time": 54.059369000000004,
          "velocity": 1
        },
        {
          "duration": 0.14851475000000391,
          "durationTicks": 24,
          "midi": 48,
          "name": "C3",
          "ticks": 8760,
          "time": 54.20788375,
          "velocity": 1
        },
        {
          "duration": 0.2970294999999936,
          "durationTicks": 48,
          "midi": 48,
          "name": "C3",
          "ticks": 8784,
          "time": 54.356398500000005,
          "velocity": 1
        },
        {
          "duration": 0.14851475000000391,
          "durationTicks": 24,
          "midi": 48,
          "name": "C3",
          "ticks": 8832,
          "time": 54.653428,
          "velocity": 1
        },
        {
          "duration": 0.1485147499999968,
          "durationTicks": 24,
          "midi": 48,
          "name": "C3",
          "ticks": 8856,
          "time": 54.80194275,
          "velocity": 1
        },
        {
          "duration": 0.2970295000000007,
          "durationTicks": 48,
          "midi": 48,
          "name": "C3",
          "ticks": 8880,
          "time": 54.9504575,
          "velocity": 1
        },
        {
          "duration": 0.14851475000000391,
          "durationTicks": 24,
          "midi": 48,
          "name": "C3",
          "ticks": 8928,
          "time": 55.247487,
          "velocity": 1
        },
        {
          "duration": 0.1485147499999968,
          "durationTicks": 24,
          "midi": 48,
          "name": "C3",
          "ticks": 8952,
          "time": 55.39600175,
          "velocity": 1
        },
        {
          "duration": 0.14851475000000391,
          "durationTicks": 24,
          "midi": 48,
          "name": "C3",
          "ticks": 8976,
          "time": 55.5445165,
          "velocity": 1
        },
        {
          "duration": 0.1485147499999968,
          "durationTicks": 24,
          "midi": 48,
          "name": "C3",
          "ticks": 9000,
          "time": 55.693031250000004,
          "velocity": 1
        },
        {
          "duration": 0.1485147499999968,
          "durationTicks": 24,
          "midi": 48,
          "name": "C3",
          "ticks": 9024,
          "time": 55.841546,
          "velocity": 1
        },
        {
          "duration": 0.14851475000000391,
          "durationTicks": 24,
          "midi": 48,
          "name": "C3",
          "ticks": 9048,
          "time": 55.99006075,
          "velocity": 1
        },
        {
          "duration": 0.1485147499999968,
          "durationTicks": 24,
          "midi": 48,
          "name": "C3",
          "ticks": 9072,
          "time": 56.1385755,
          "velocity": 1
        },
        {
          "duration": 0.14851475000000391,
          "durationTicks": 24,
          "midi": 48,
          "name": "C3",
          "ticks": 9096,
          "time": 56.28709025,
          "velocity": 1
        },
        {
          "duration": 0.1485147499999968,
          "durationTicks": 24,
          "midi": 48,
          "name": "C3",
          "ticks": 9120,
          "time": 56.435605,
          "velocity": 1
        },
        {
          "duration": 0.2970295000000007,
          "durationTicks": 48,
          "midi": 48,
          "name": "C3",
          "ticks": 9144,
          "time": 56.58411975,
          "velocity": 1
        },
        {
          "duration": 0.14851475000000391,
          "durationTicks": 24,
          "midi": 48,
          "name": "C3",
          "ticks": 9192,
          "time": 56.88114925,
          "velocity": 1
        },
        {
          "duration": 0.1485147499999968,
          "durationTicks": 24,
          "midi": 48,
          "name": "C3",
          "ticks": 9216,
          "time": 57.029664000000004,
          "velocity": 1
        },
        {
          "duration": 0.2970295000000007,
          "durationTicks": 48,
          "midi": 48,
          "name": "C3",
          "ticks": 9240,
          "time": 57.17817875,
          "velocity": 1
        },
        {
          "duration": 0.1485147499999968,
          "durationTicks": 24,
          "midi": 48,
          "name": "C3",
          "ticks": 9288,
          "time": 57.47520825,
          "velocity": 1
        },
        {
          "duration": 0.14851475000000391,
          "durationTicks": 24,
          "midi": 48,
          "name": "C3",
          "ticks": 9312,
          "time": 57.623723,
          "velocity": 1
        },
        {
          "duration": 0.1485147499999968,
          "durationTicks": 24,
          "midi": 48,
          "name": "C3",
          "ticks": 9336,
          "time": 57.77223775,
          "velocity": 1
        },
        {
          "duration": 0.14851475000000391,
          "durationTicks": 24,
          "midi": 48,
          "name": "C3",
          "ticks": 9360,
          "time": 57.9207525,
          "velocity": 1
        },
        {
          "duration": 0.1485147499999968,
          "durationTicks": 24,
          "midi": 48,
          "name": "C3",
          "ticks": 9384,
          "time": 58.06926725,
          "velocity": 1
        },
        {
          "duration": 0.14851475000000391,
          "durationTicks": 24,
          "midi": 48,
          "name": "C3",
          "ticks": 9408,
          "time": 58.217782,
          "velocity": 1
        },
        {
          "duration": 0.1485147499999968,
          "durationTicks": 24,
          "midi": 48,
          "name": "C3",
          "ticks": 9432,
          "time": 58.366296750000004,
          "velocity": 1
        },
        {
          "duration": 0.14851475000000391,
          "durationTicks": 24,
          "midi": 48,
          "name": "C3",
          "ticks": 9456,
          "time": 58.5148115,
          "velocity": 1
        },
        {
          "duration": 0.1485147499999968,
          "durationTicks": 24,
          "midi": 48,
          "name": "C3",
          "ticks": 9480,
          "time": 58.663326250000004,
          "velocity": 1
        },
        {
          "duration": 0.2970295000000007,
          "durationTicks": 48,
          "midi": 48,
          "name": "C3",
          "ticks": 9504,
          "time": 58.811841,
          "velocity": 1
        },
        {
          "duration": 0.1485147499999968,
          "durationTicks": 24,
          "midi": 48,
          "name": "C3",
          "ticks": 9552,
          "time": 59.1088705,
          "velocity": 1
        },
        {
          "duration": 0.14851475000000391,
          "durationTicks": 24,
          "midi": 48,
          "name": "C3",
          "ticks": 9576,
          "time": 59.25738525,
          "velocity": 1
        },
        {
          "duration": 0.2970295000000007,
          "durationTicks": 48,
          "midi": 48,
          "name": "C3",
          "ticks": 9600,
          "time": 59.4059,
          "velocity": 1
        },
        {
          "duration": 0.1485147499999968,
          "durationTicks": 24,
          "midi": 48,
          "name": "C3",
          "ticks": 9648,
          "time": 59.7029295,
          "velocity": 1
        },
        {
          "duration": 0.14851475000000391,
          "durationTicks": 24,
          "midi": 48,
          "name": "C3",
          "ticks": 9672,
          "time": 59.85144425,
          "velocity": 1
        },
        {
          "duration": 0.1485147499999968,
          "durationTicks": 24,
          "midi": 48,
          "name": "C3",
          "ticks": 9696,
          "time": 59.999959000000004,
          "velocity": 1
        },
        {
          "duration": 0.1485147499999968,
          "durationTicks": 24,
          "midi": 48,
          "name": "C3",
          "ticks": 9720,
          "time": 60.14847375,
          "velocity": 1
        },
        {
          "duration": 0.14851475000000391,
          "durationTicks": 24,
          "midi": 48,
          "name": "C3",
          "ticks": 9744,
          "time": 60.2969885,
          "velocity": 1
        },
        {
          "duration": 0.1485147499999968,
          "durationTicks": 24,
          "midi": 48,
          "name": "C3",
          "ticks": 9768,
          "time": 60.44550325,
          "velocity": 1
        },
        {
          "duration": 0.14851475000000391,
          "durationTicks": 24,
          "midi": 48,
          "name": "C3",
          "ticks": 9792,
          "time": 60.594018,
          "velocity": 1
        },
        {
          "duration": 0.1485147499999968,
          "durationTicks": 24,
          "midi": 48,
          "name": "C3",
          "ticks": 9816,
          "time": 60.74253275,
          "velocity": 1
        },
        {
          "duration": 0.14851475000000391,
          "durationTicks": 24,
          "midi": 48,
          "name": "C3",
          "ticks": 9840,
          "time": 60.8910475,
          "velocity": 1
        },
        {
          "duration": 0.2970295000000007,
          "durationTicks": 48,
          "midi": 48,
          "name": "C3",
          "ticks": 9864,
          "time": 61.03956225,
          "velocity": 1
        },
        {
          "duration": 0.1485147499999968,
          "durationTicks": 24,
          "midi": 48,
          "name": "C3",
          "ticks": 9912,
          "time": 61.336591750000004,
          "velocity": 1
        },
        {
          "duration": 0.14851475000000391,
          "durationTicks": 24,
          "midi": 48,
          "name": "C3",
          "ticks": 9936,
          "time": 61.4851065,
          "velocity": 1
        },
        {
          "duration": 0.2970294999999936,
          "durationTicks": 48,
          "midi": 48,
          "name": "C3",
          "ticks": 9960,
          "time": 61.633621250000004,
          "velocity": 1
        },
        {
          "duration": 0.14851475000000391,
          "durationTicks": 24,
          "midi": 48,
          "name": "C3",
          "ticks": 10008,
          "time": 61.93065075,
          "velocity": 1
        },
        {
          "duration": 0.1485147499999968,
          "durationTicks": 24,
          "midi": 48,
          "name": "C3",
          "ticks": 10032,
          "time": 62.0791655,
          "velocity": 1
        },
        {
          "duration": 0.14851475000000391,
          "durationTicks": 24,
          "midi": 48,
          "name": "C3",
          "ticks": 10056,
          "time": 62.22768025,
          "velocity": 1
        },
        {
          "duration": 0.1485147499999968,
          "durationTicks": 24,
          "midi": 48,
          "name": "C3",
          "ticks": 10080,
          "time": 62.376195,
          "velocity": 1
        },
        {
          "duration": 0.14851475000000391,
          "durationTicks": 24,
          "midi": 48,
          "name": "C3",
          "ticks": 10104,
          "time": 62.52470975,
          "velocity": 1
        },
        {
          "duration": 0.1485147499999968,
          "durationTicks": 24,
          "midi": 48,
          "name": "C3",
          "ticks": 10128,
          "time": 62.6732245,
          "velocity": 1
        },
        {
          "duration": 0.14851475000000391,
          "durationTicks": 24,
          "midi": 48,
          "name": "C3",
          "ticks": 10152,
          "time": 62.82173925,
          "velocity": 1
        },
        {
          "duration": 0.1485147499999968,
          "durationTicks": 24,
          "midi": 48,
          "name": "C3",
          "ticks": 10176,
          "time": 62.970254000000004,
          "velocity": 1
        },
        {
          "duration": 0.1485147499999968,
          "durationTicks": 24,
          "midi": 48,
          "name": "C3",
          "ticks": 10200,
          "time": 63.11876875,
          "velocity": 1
        },
        {
          "duration": 0.2970295000000007,
          "durationTicks": 48,
          "midi": 48,
          "name": "C3",
          "ticks": 10224,
          "time": 63.2672835,
          "velocity": 1
        },
        {
          "duration": 0.14851475000000391,
          "durationTicks": 24,
          "midi": 48,
          "name": "C3",
          "ticks": 10272,
          "time": 63.564313,
          "velocity": 1
        },
        {
          "duration": 0.1485147499999968,
          "durationTicks": 24,
          "midi": 48,
          "name": "C3",
          "ticks": 10296,
          "time": 63.71282775,
          "velocity": 1
        },
        {
          "duration": 0.2970295000000007,
          "durationTicks": 48,
          "midi": 48,
          "name": "C3",
          "ticks": 10320,
          "time": 63.8613425,
          "velocity": 1
        },
        {
          "duration": 0.14851475000000391,
          "durationTicks": 24,
          "midi": 48,
          "name": "C3",
          "ticks": 10368,
          "time": 64.158372,
          "velocity": 1
        },
        {
          "duration": 0.1485147499999897,
          "durationTicks": 24,
          "midi": 48,
          "name": "C3",
          "ticks": 10392,
          "time": 64.30688675,
          "velocity": 1
        },
        {
          "duration": 0.14851475000000391,
          "durationTicks": 24,
          "midi": 48,
          "name": "C3",
          "ticks": 10416,
          "time": 64.4554015,
          "velocity": 1
        },
        {
          "duration": 0.14851475000000391,
          "durationTicks": 24,
          "midi": 48,
          "name": "C3",
          "ticks": 10440,
          "time": 64.60391625,
          "velocity": 1
        },
        {
          "duration": 0.14851475000000391,
          "durationTicks": 24,
          "midi": 48,
          "name": "C3",
          "ticks": 10464,
          "time": 64.752431,
          "velocity": 1
        },
        {
          "duration": 0.14851475000000391,
          "durationTicks": 24,
          "midi": 48,
          "name": "C3",
          "ticks": 10488,
          "time": 64.90094575,
          "velocity": 1
        },
        {
          "duration": 0.1485147499999897,
          "durationTicks": 24,
          "midi": 48,
          "name": "C3",
          "ticks": 10512,
          "time": 65.04946050000001,
          "velocity": 1
        },
        {
          "duration": 0.14851475000000391,
          "durationTicks": 24,
          "midi": 48,
          "name": "C3",
          "ticks": 10536,
          "time": 65.19797525,
          "velocity": 1
        },
        {
          "duration": 0.1485147499999897,
          "durationTicks": 24,
          "midi": 48,
          "name": "C3",
          "ticks": 10560,
          "time": 65.34649,
          "velocity": 1
        },
        {
          "duration": 0.29702950000000783,
          "durationTicks": 48,
          "midi": 48,
          "name": "C3",
          "ticks": 10584,
          "time": 65.49500474999999,
          "velocity": 1
        },
        {
          "duration": 0.14851475000000391,
          "durationTicks": 24,
          "midi": 48,
          "name": "C3",
          "ticks": 10632,
          "time": 65.79203425,
          "velocity": 1
        },
        {
          "duration": 0.14851475000000391,
          "durationTicks": 24,
          "midi": 48,
          "name": "C3",
          "ticks": 10656,
          "time": 65.940549,
          "velocity": 1
        },
        {
          "duration": 0.2970294999999936,
          "durationTicks": 48,
          "midi": 48,
          "name": "C3",
          "ticks": 10680,
          "time": 66.08906375000001,
          "velocity": 1
        },
        {
          "duration": 0.1485147499999897,
          "durationTicks": 24,
          "midi": 48,
          "name": "C3",
          "ticks": 10728,
          "time": 66.38609325,
          "velocity": 1
        },
        {
          "duration": 0.14851475000000391,
          "durationTicks": 24,
          "midi": 48,
          "name": "C3",
          "ticks": 10752,
          "time": 66.53460799999999,
          "velocity": 1
        },
        {
          "duration": 0.14851475000000391,
          "durationTicks": 24,
          "midi": 48,
          "name": "C3",
          "ticks": 10776,
          "time": 66.68312275,
          "velocity": 1
        },
        {
          "duration": 0.14851475000000391,
          "durationTicks": 24,
          "midi": 48,
          "name": "C3",
          "ticks": 10800,
          "time": 66.8316375,
          "velocity": 1
        },
        {
          "duration": 0.14851475000000391,
          "durationTicks": 24,
          "midi": 48,
          "name": "C3",
          "ticks": 10824,
          "time": 66.98015225,
          "velocity": 1
        },
        {
          "duration": 0.14851475000000391,
          "durationTicks": 24,
          "midi": 48,
          "name": "C3",
          "ticks": 10848,
          "time": 67.12866700000001,
          "velocity": 1
        },
        {
          "duration": 0.1485147499999897,
          "durationTicks": 24,
          "midi": 48,
          "name": "C3",
          "ticks": 10872,
          "time": 67.27718175000001,
          "velocity": 1
        },
        {
          "duration": 0.1485147499999897,
          "durationTicks": 24,
          "midi": 48,
          "name": "C3",
          "ticks": 10896,
          "time": 67.4256965,
          "velocity": 1
        },
        {
          "duration": 0.14851475000000391,
          "durationTicks": 24,
          "midi": 48,
          "name": "C3",
          "ticks": 10920,
          "time": 67.57421124999999,
          "velocity": 1
        },
        {
          "duration": 0.29702950000000783,
          "durationTicks": 48,
          "midi": 48,
          "name": "C3",
          "ticks": 10944,
          "time": 67.722726,
          "velocity": 1
        },
        {
          "duration": 0.14851475000000391,
          "durationTicks": 24,
          "midi": 48,
          "name": "C3",
          "ticks": 10992,
          "time": 68.0197555,
          "velocity": 1
        },
        {
          "duration": 0.14851475000000391,
          "durationTicks": 24,
          "midi": 48,
          "name": "C3",
          "ticks": 11016,
          "time": 68.16827025,
          "velocity": 1
        },
        {
          "duration": 0.2970294999999936,
          "durationTicks": 48,
          "midi": 48,
          "name": "C3",
          "ticks": 11040,
          "time": 68.31678500000001,
          "velocity": 1
        },
        {
          "duration": 0.1485147499999897,
          "durationTicks": 24,
          "midi": 48,
          "name": "C3",
          "ticks": 11088,
          "time": 68.6138145,
          "velocity": 1
        },
        {
          "duration": 0.14851475000000391,
          "durationTicks": 24,
          "midi": 48,
          "name": "C3",
          "ticks": 11112,
          "time": 68.76232925,
          "velocity": 1
        },
        {
          "duration": 0.14851475000000391,
          "durationTicks": 24,
          "midi": 48,
          "name": "C3",
          "ticks": 11136,
          "time": 68.910844,
          "velocity": 1
        },
        {
          "duration": 0.14851475000000391,
          "durationTicks": 24,
          "midi": 48,
          "name": "C3",
          "ticks": 11160,
          "time": 69.05935875,
          "velocity": 1
        },
        {
          "duration": 0.14851475000000391,
          "durationTicks": 24,
          "midi": 48,
          "name": "C3",
          "ticks": 11184,
          "time": 69.2078735,
          "velocity": 1
        },
        {
          "duration": 0.1485147499999897,
          "durationTicks": 24,
          "midi": 48,
          "name": "C3",
          "ticks": 11208,
          "time": 69.35638825000001,
          "velocity": 1
        },
        {
          "duration": 0.14851475000000391,
          "durationTicks": 24,
          "midi": 48,
          "name": "C3",
          "ticks": 11232,
          "time": 69.504903,
          "velocity": 1
        },
        {
          "duration": 0.1485147499999897,
          "durationTicks": 24,
          "midi": 48,
          "name": "C3",
          "ticks": 11256,
          "time": 69.65341775,
          "velocity": 1
        },
        {
          "duration": 0.14851475000000391,
          "durationTicks": 24,
          "midi": 48,
          "name": "C3",
          "ticks": 11280,
          "time": 69.80193249999999,
          "velocity": 1
        },
        {
          "duration": 0.29702950000000783,
          "durationTicks": 48,
          "midi": 48,
          "name": "C3",
          "ticks": 11304,
          "time": 69.95044725,
          "velocity": 1
        },
        {
          "duration": 0.14851475000000391,
          "durationTicks": 24,
          "midi": 48,
          "name": "C3",
          "ticks": 11352,
          "time": 70.24747675,
          "velocity": 1
        },
        {
          "duration": 0.1485147499999897,
          "durationTicks": 24,
          "midi": 48,
          "name": "C3",
          "ticks": 11376,
          "time": 70.39599150000001,
          "velocity": 1
        },
        {
          "duration": 0.2970294999999936,
          "durationTicks": 48,
          "midi": 48,
          "name": "C3",
          "ticks": 11400,
          "time": 70.54450625,
          "velocity": 1
        },
        {
          "duration": 0.14851475000000391,
          "durationTicks": 24,
          "midi": 48,
          "name": "C3",
          "ticks": 11448,
          "time": 70.84153574999999,
          "velocity": 1
        },
        {
          "duration": 0.14851475000000391,
          "durationTicks": 24,
          "midi": 48,
          "name": "C3",
          "ticks": 11472,
          "time": 70.9900505,
          "velocity": 1
        },
        {
          "duration": 0.14851475000000391,
          "durationTicks": 24,
          "midi": 48,
          "name": "C3",
          "ticks": 11496,
          "time": 71.13856525,
          "velocity": 1
        },
        {
          "duration": 0.14851475000000391,
          "durationTicks": 24,
          "midi": 48,
          "name": "C3",
          "ticks": 11520,
          "time": 71.28708,
          "velocity": 1
        },
        {
          "duration": 0.14851475000000391,
          "durationTicks": 24,
          "midi": 48,
          "name": "C3",
          "ticks": 11544,
          "time": 71.43559475,
          "velocity": 1
        },
        {
          "duration": 0.1485147499999897,
          "durationTicks": 24,
          "midi": 48,
          "name": "C3",
          "ticks": 11568,
          "time": 71.58410950000001,
          "velocity": 1
        },
        {
          "duration": 0.14851475000000391,
          "durationTicks": 24,
          "midi": 48,
          "name": "C3",
          "ticks": 11592,
          "time": 71.73262425,
          "velocity": 1
        },
        {
          "duration": 0.1485147499999897,
          "durationTicks": 24,
          "midi": 48,
          "name": "C3",
          "ticks": 11616,
          "time": 71.881139,
          "velocity": 1
        },
        {
          "duration": 0.14851475000000391,
          "durationTicks": 24,
          "midi": 48,
          "name": "C3",
          "ticks": 11640,
          "time": 72.02965375,
          "velocity": 1
        },
        {
          "duration": 0.29702950000000783,
          "durationTicks": 48,
          "midi": 48,
          "name": "C3",
          "ticks": 11664,
          "time": 72.1781685,
          "velocity": 1
        },
        {
          "duration": 0.14851475000000391,
          "durationTicks": 24,
          "midi": 48,
          "name": "C3",
          "ticks": 11712,
          "time": 72.475198,
          "velocity": 1
        },
        {
          "duration": 0.1485147499999897,
          "durationTicks": 24,
          "midi": 48,
          "name": "C3",
          "ticks": 11736,
          "time": 72.62371275000001,
          "velocity": 1
        },
        {
          "duration": 0.2970294999999936,
          "durationTicks": 48,
          "midi": 48,
          "name": "C3",
          "ticks": 11760,
          "time": 72.7722275,
          "velocity": 1
        },
        {
          "duration": 0.14851475000000391,
          "durationTicks": 24,
          "midi": 48,
          "name": "C3",
          "ticks": 11808,
          "time": 73.069257,
          "velocity": 1
        },
        {
          "duration": 0.14851475000000391,
          "durationTicks": 24,
          "midi": 48,
          "name": "C3",
          "ticks": 11832,
          "time": 73.21777175,
          "velocity": 1
        },
        {
          "duration": 0.14851475000000391,
          "durationTicks": 24,
          "midi": 48,
          "name": "C3",
          "ticks": 11856,
          "time": 73.3662865,
          "velocity": 1
        },
        {
          "duration": 0.14851475000000391,
          "durationTicks": 24,
          "midi": 48,
          "name": "C3",
          "ticks": 11880,
          "time": 73.51480125,
          "velocity": 1
        },
        {
          "duration": 0.1485147499999897,
          "durationTicks": 24,
          "midi": 48,
          "name": "C3",
          "ticks": 11904,
          "time": 73.66331600000001,
          "velocity": 1
        },
        {
          "duration": 0.14851475000000391,
          "durationTicks": 24,
          "midi": 48,
          "name": "C3",
          "ticks": 11928,
          "time": 73.81183075,
          "velocity": 1
        },
        {
          "duration": 0.1485147499999897,
          "durationTicks": 24,
          "midi": 48,
          "name": "C3",
          "ticks": 11952,
          "time": 73.9603455,
          "velocity": 1
        },
        {
          "duration": 0.14851475000000391,
          "durationTicks": 24,
          "midi": 48,
          "name": "C3",
          "ticks": 11976,
          "time": 74.10886024999999,
          "velocity": 1
        },
        {
          "duration": 0.14851475000000391,
          "durationTicks": 24,
          "midi": 48,
          "name": "C3",
          "ticks": 12000,
          "time": 74.257375,
          "velocity": 1
        },
        {
          "duration": 0.29702950000000783,
          "durationTicks": 48,
          "midi": 48,
          "name": "C3",
          "ticks": 12024,
          "time": 74.40588975,
          "velocity": 1
        },
        {
          "duration": 0.1485147499999897,
          "durationTicks": 24,
          "midi": 48,
          "name": "C3",
          "ticks": 12072,
          "time": 74.70291925000001,
          "velocity": 1
        },
        {
          "duration": 0.14851475000000391,
          "durationTicks": 24,
          "midi": 48,
          "name": "C3",
          "ticks": 12096,
          "time": 74.851434,
          "velocity": 1
        },
        {
          "duration": 0.2970294999999936,
          "durationTicks": 48,
          "midi": 48,
          "name": "C3",
          "ticks": 12120,
          "time": 74.99994875,
          "velocity": 1
        },
        {
          "duration": 0.14851475000000391,
          "durationTicks": 24,
          "midi": 48,
          "name": "C3",
          "ticks": 12168,
          "time": 75.29697825,
          "velocity": 1
        },
        {
          "duration": 0.14851475000000391,
          "durationTicks": 24,
          "midi": 48,
          "name": "C3",
          "ticks": 12192,
          "time": 75.445493,
          "velocity": 1
        },
        {
          "duration": 0.14851475000000391,
          "durationTicks": 24,
          "midi": 48,
          "name": "C3",
          "ticks": 12216,
          "time": 75.59400775,
          "velocity": 1
        },
        {
          "duration": 0.1485147499999897,
          "durationTicks": 24,
          "midi": 48,
          "name": "C3",
          "ticks": 12264,
          "time": 75.89103725000001,
          "velocity": 1
        },
        {
          "duration": 0.14851475000000391,
          "durationTicks": 24,
          "midi": 48,
          "name": "C3",
          "ticks": 12288,
          "time": 76.039552,
          "velocity": 1
        },
        {
          "duration": 0.1485147499999897,
          "durationTicks": 24,
          "midi": 48,
          "name": "C3",
          "ticks": 12312,
          "time": 76.18806675,
          "velocity": 1
        },
        {
          "duration": 0.14851475000000391,
          "durationTicks": 24,
          "midi": 48,
          "name": "C3",
          "ticks": 12336,
          "time": 76.3365815,
          "velocity": 1
        },
        {
          "duration": 0.14851475000000391,
          "durationTicks": 24,
          "midi": 48,
          "name": "C3",
          "ticks": 12360,
          "time": 76.48509625,
          "velocity": 1
        },
        {
          "duration": 0.29702950000000783,
          "durationTicks": 48,
          "midi": 48,
          "name": "C3",
          "ticks": 12384,
          "time": 76.633611,
          "velocity": 1
        },
        {
          "duration": 0.1485147499999897,
          "durationTicks": 24,
          "midi": 48,
          "name": "C3",
          "ticks": 12432,
          "time": 76.93064050000001,
          "velocity": 1
        },
        {
          "duration": 0.14851475000000391,
          "durationTicks": 24,
          "midi": 48,
          "name": "C3",
          "ticks": 12456,
          "time": 77.07915525,
          "velocity": 1
        },
        {
          "duration": 0.2970294999999936,
          "durationTicks": 48,
          "midi": 48,
          "name": "C3",
          "ticks": 12480,
          "time": 77.22767,
          "velocity": 1
        },
        {
          "duration": 0.14851475000000391,
          "durationTicks": 24,
          "midi": 48,
          "name": "C3",
          "ticks": 12528,
          "time": 77.5246995,
          "velocity": 1
        },
        {
          "duration": 0.14851475000000391,
          "durationTicks": 24,
          "midi": 48,
          "name": "C3",
          "ticks": 12552,
          "time": 77.67321425,
          "velocity": 1
        },
        {
          "duration": 0.14851475000000391,
          "durationTicks": 24,
          "midi": 48,
          "name": "C3",
          "ticks": 12576,
          "time": 77.821729,
          "velocity": 1
        },
        {
          "duration": 0.1485147499999897,
          "durationTicks": 24,
          "midi": 48,
          "name": "C3",
          "ticks": 12600,
          "time": 77.97024375000001,
          "velocity": 1
        },
        {
          "duration": 0.14851475000000391,
          "durationTicks": 24,
          "midi": 48,
          "name": "C3",
          "ticks": 12624,
          "time": 78.1187585,
          "velocity": 1
        },
        {
          "duration": 0.1485147499999897,
          "durationTicks": 24,
          "midi": 48,
          "name": "C3",
          "ticks": 12648,
          "time": 78.26727325,
          "velocity": 1
        },
        {
          "duration": 0.14851475000000391,
          "durationTicks": 24,
          "midi": 48,
          "name": "C3",
          "ticks": 12672,
          "time": 78.41578799999999,
          "velocity": 1
        },
        {
          "duration": 0.14851475000000391,
          "durationTicks": 24,
          "midi": 48,
          "name": "C3",
          "ticks": 12696,
          "time": 78.56430275,
          "velocity": 1
        },
        {
          "duration": 0.14851475000000391,
          "durationTicks": 24,
          "midi": 48,
          "name": "C3",
          "ticks": 12720,
          "time": 78.7128175,
          "velocity": 1
        },
        {
          "duration": 0.29702950000000783,
          "durationTicks": 48,
          "midi": 48,
          "name": "C3",
          "ticks": 12744,
          "time": 78.86133225,
          "velocity": 1
        },
        {
          "duration": 0.1485147499999897,
          "durationTicks": 24,
          "midi": 48,
          "name": "C3",
          "ticks": 12792,
          "time": 79.15836175000001,
          "velocity": 1
        },
        {
          "duration": 0.1485147499999897,
          "durationTicks": 24,
          "midi": 48,
          "name": "C3",
          "ticks": 12816,
          "time": 79.3068765,
          "velocity": 1
        },
        {
          "duration": 0.29702950000000783,
          "durationTicks": 48,
          "midi": 48,
          "name": "C3",
          "ticks": 12840,
          "time": 79.45539124999999,
          "velocity": 1
        },
        {
          "duration": 0.14851475000000391,
          "durationTicks": 24,
          "midi": 48,
          "name": "C3",
          "ticks": 12888,
          "time": 79.75242075,
          "velocity": 1
        },
        {
          "duration": 0.14851475000000391,
          "durationTicks": 24,
          "midi": 48,
          "name": "C3",
          "ticks": 12912,
          "time": 79.9009355,
          "velocity": 1
        },
        {
          "duration": 0.14851475000000391,
          "durationTicks": 24,
          "midi": 48,
          "name": "C3",
          "ticks": 12936,
          "time": 80.04945025,
          "velocity": 1
        },
        {
          "duration": 0.1485147499999897,
          "durationTicks": 24,
          "midi": 48,
          "name": "C3",
          "ticks": 15840,
          "time": 98.01973500000003,
          "velocity": 1
        },
        {
          "duration": 0.14851475000000391,
          "durationTicks": 24,
          "midi": 48,
          "name": "C3",
          "ticks": 15864,
          "time": 98.16824975000002,
          "velocity": 1
        },
        {
          "duration": 0.14851475000000391,
          "durationTicks": 24,
          "midi": 48,
          "name": "C3",
          "ticks": 15888,
          "time": 98.31676450000002,
          "velocity": 1
        },
        {
          "duration": 0.1485147499999897,
          "durationTicks": 24,
          "midi": 48,
          "name": "C3",
          "ticks": 15912,
          "time": 98.46527925000002,
          "velocity": 1
        },
        {
          "duration": 0.14851475000000391,
          "durationTicks": 24,
          "midi": 48,
          "name": "C3",
          "ticks": 15936,
          "time": 98.61379400000001,
          "velocity": 1
        },
        {
          "duration": 0.14851475000000391,
          "durationTicks": 24,
          "midi": 48,
          "name": "C3",
          "ticks": 15960,
          "time": 98.76230875000002,
          "velocity": 1
        },
        {
          "duration": 0.2970294999999936,
          "durationTicks": 48,
          "midi": 48,
          "name": "C3",
          "ticks": 15984,
          "time": 98.91082350000002,
          "velocity": 1
        },
        {
          "duration": 0.14851475000000391,
          "durationTicks": 24,
          "midi": 48,
          "name": "C3",
          "ticks": 16032,
          "time": 99.20785300000001,
          "velocity": 1
        },
        {
          "duration": 0.14851475000000391,
          "durationTicks": 24,
          "midi": 48,
          "name": "C3",
          "ticks": 16056,
          "time": 99.35636775000002,
          "velocity": 1
        },
        {
          "duration": 0.2970294999999936,
          "durationTicks": 48,
          "midi": 48,
          "name": "C3",
          "ticks": 16080,
          "time": 99.50488250000002,
          "velocity": 1
        },
        {
          "duration": 0.14851475000000391,
          "durationTicks": 24,
          "midi": 48,
          "name": "C3",
          "ticks": 16128,
          "time": 99.80191200000002,
          "velocity": 1
        },
        {
          "duration": 0.14851475000000391,
          "durationTicks": 24,
          "midi": 48,
          "name": "C3",
          "ticks": 16152,
          "time": 99.95042675000002,
          "velocity": 1
        },
        {
          "duration": 0.1485147499999897,
          "durationTicks": 24,
          "midi": 48,
          "name": "C3",
          "ticks": 16176,
          "time": 100.09894150000002,
          "velocity": 1
        },
        {
          "duration": 0.14851475000000391,
          "durationTicks": 24,
          "midi": 48,
          "name": "C3",
          "ticks": 16200,
          "time": 100.24745625000001,
          "velocity": 1
        },
        {
          "duration": 0.14851475000000391,
          "durationTicks": 24,
          "midi": 48,
          "name": "C3",
          "ticks": 16224,
          "time": 100.39597100000002,
          "velocity": 1
        },
        {
          "duration": 0.1485147499999897,
          "durationTicks": 24,
          "midi": 48,
          "name": "C3",
          "ticks": 16248,
          "time": 100.54448575000002,
          "velocity": 1
        },
        {
          "duration": 0.14851475000000391,
          "durationTicks": 24,
          "midi": 48,
          "name": "C3",
          "ticks": 16272,
          "time": 100.69300050000001,
          "velocity": 1
        },
        {
          "duration": 0.14851475000000391,
          "durationTicks": 24,
          "midi": 48,
          "name": "C3",
          "ticks": 16296,
          "time": 100.84151525000001,
          "velocity": 1
        },
        {
          "duration": 0.14851475000000391,
          "durationTicks": 24,
          "midi": 48,
          "name": "C3",
          "ticks": 16320,
          "time": 100.99003000000002,
          "velocity": 1
        },
        {
          "duration": 0.2970294999999936,
          "durationTicks": 48,
          "midi": 48,
          "name": "C3",
          "ticks": 16344,
          "time": 101.13854475000002,
          "velocity": 1
        },
        {
          "duration": 0.14851475000000391,
          "durationTicks": 24,
          "midi": 48,
          "name": "C3",
          "ticks": 16392,
          "time": 101.43557425000002,
          "velocity": 1
        },
        {
          "duration": 0.14851475000000391,
          "durationTicks": 24,
          "midi": 48,
          "name": "C3",
          "ticks": 16416,
          "time": 101.58408900000002,
          "velocity": 1
        },
        {
          "duration": 0.2970294999999936,
          "durationTicks": 48,
          "midi": 48,
          "name": "C3",
          "ticks": 16440,
          "time": 101.73260375000002,
          "velocity": 1
        },
        {
          "duration": 0.14851475000000391,
          "durationTicks": 24,
          "midi": 48,
          "name": "C3",
          "ticks": 16488,
          "time": 102.02963325000002,
          "velocity": 1
        },
        {
          "duration": 0.14851475000000391,
          "durationTicks": 24,
          "midi": 48,
          "name": "C3",
          "ticks": 16512,
          "time": 102.17814800000002,
          "velocity": 1
        },
        {
          "duration": 0.1485147499999897,
          "durationTicks": 24,
          "midi": 48,
          "name": "C3",
          "ticks": 16536,
          "time": 102.32666275000003,
          "velocity": 1
        },
        {
          "duration": 0.14851475000000391,
          "durationTicks": 24,
          "midi": 48,
          "name": "C3",
          "ticks": 16560,
          "time": 102.47517750000002,
          "velocity": 1
        },
        {
          "duration": 0.14851475000000391,
          "durationTicks": 24,
          "midi": 48,
          "name": "C3",
          "ticks": 16584,
          "time": 102.62369225000002,
          "velocity": 1
        },
        {
          "duration": 0.1485147499999897,
          "durationTicks": 24,
          "midi": 48,
          "name": "C3",
          "ticks": 16608,
          "time": 102.77220700000002,
          "velocity": 1
        },
        {
          "duration": 0.14851475000000391,
          "durationTicks": 24,
          "midi": 48,
          "name": "C3",
          "ticks": 16632,
          "time": 102.92072175000001,
          "velocity": 1
        },
        {
          "duration": 0.14851475000000391,
          "durationTicks": 24,
          "midi": 48,
          "name": "C3",
          "ticks": 16656,
          "time": 103.06923650000002,
          "velocity": 1
        },
        {
          "duration": 0.14851475000000391,
          "durationTicks": 24,
          "midi": 48,
          "name": "C3",
          "ticks": 16680,
          "time": 103.21775125000002,
          "velocity": 1
        },
        {
          "duration": 0.2970294999999936,
          "durationTicks": 48,
          "midi": 48,
          "name": "C3",
          "ticks": 16704,
          "time": 103.36626600000002,
          "velocity": 1
        },
        {
          "duration": 0.14851475000000391,
          "durationTicks": 24,
          "midi": 48,
          "name": "C3",
          "ticks": 16752,
          "time": 103.66329550000002,
          "velocity": 1
        },
        {
          "duration": 0.1485147499999897,
          "durationTicks": 24,
          "midi": 48,
          "name": "C3",
          "ticks": 16776,
          "time": 103.81181025000002,
          "velocity": 1
        },
        {
          "duration": 0.29702950000000783,
          "durationTicks": 48,
          "midi": 48,
          "name": "C3",
          "ticks": 16800,
          "time": 103.96032500000001,
          "velocity": 1
        },
        {
          "duration": 0.14851475000000391,
          "durationTicks": 24,
          "midi": 48,
          "name": "C3",
          "ticks": 16848,
          "time": 104.25735450000002,
          "velocity": 1
        },
        {
          "duration": 0.1485147499999897,
          "durationTicks": 24,
          "midi": 48,
          "name": "C3",
          "ticks": 16872,
          "time": 104.40586925000002,
          "velocity": 1
        },
        {
          "duration": 0.14851475000000391,
          "durationTicks": 24,
          "midi": 48,
          "name": "C3",
          "ticks": 16896,
          "time": 104.55438400000001,
          "velocity": 1
        },
        {
          "duration": 0.14851475000000391,
          "durationTicks": 24,
          "midi": 48,
          "name": "C3",
          "ticks": 16920,
          "time": 104.70289875000002,
          "velocity": 1
        },
        {
          "duration": 0.1485147499999897,
          "durationTicks": 24,
          "midi": 48,
          "name": "C3",
          "ticks": 16944,
          "time": 104.85141350000002,
          "velocity": 1
        },
        {
          "duration": 0.14851475000000391,
          "durationTicks": 24,
          "midi": 48,
          "name": "C3",
          "ticks": 16968,
          "time": 104.99992825000001,
          "velocity": 1
        },
        {
          "duration": 0.14851475000000391,
          "durationTicks": 24,
          "midi": 48,
          "name": "C3",
          "ticks": 16992,
          "time": 105.14844300000001,
          "velocity": 1
        },
        {
          "duration": 0.14851475000000391,
          "durationTicks": 24,
          "midi": 48,
          "name": "C3",
          "ticks": 17016,
          "time": 105.29695775000002,
          "velocity": 1
        },
        {
          "duration": 0.14851475000000391,
          "durationTicks": 24,
          "midi": 48,
          "name": "C3",
          "ticks": 17040,
          "time": 105.44547250000002,
          "velocity": 1
        },
        {
          "duration": 0.2970294999999936,
          "durationTicks": 48,
          "midi": 48,
          "name": "C3",
          "ticks": 17064,
          "time": 105.59398725000003,
          "velocity": 1
        },
        {
          "duration": 0.1485147499999897,
          "durationTicks": 24,
          "midi": 48,
          "name": "C3",
          "ticks": 17112,
          "time": 105.89101675000002,
          "velocity": 1
        },
        {
          "duration": 0.14851475000000391,
          "durationTicks": 24,
          "midi": 48,
          "name": "C3",
          "ticks": 17136,
          "time": 106.03953150000001,
          "velocity": 1
        },
        {
          "duration": 0.29702950000000783,
          "durationTicks": 48,
          "midi": 48,
          "name": "C3",
          "ticks": 17160,
          "time": 106.18804625000001,
          "velocity": 1
        },
        {
          "duration": 0.14851475000000391,
          "durationTicks": 24,
          "midi": 48,
          "name": "C3",
          "ticks": 17208,
          "time": 106.48507575000002,
          "velocity": 1
        },
        {
          "duration": 0.1485147499999897,
          "durationTicks": 24,
          "midi": 48,
          "name": "C3",
          "ticks": 17232,
          "time": 106.63359050000003,
          "velocity": 1
        },
        {
          "duration": 0.14851475000000391,
          "durationTicks": 24,
          "midi": 48,
          "name": "C3",
          "ticks": 17256,
          "time": 106.78210525000001,
          "velocity": 1
        },
        {
          "duration": 0.14851475000000391,
          "durationTicks": 24,
          "midi": 48,
          "name": "C3",
          "ticks": 17280,
          "time": 106.93062000000002,
          "velocity": 1
        },
        {
          "duration": 0.1485147499999897,
          "durationTicks": 24,
          "midi": 48,
          "name": "C3",
          "ticks": 17304,
          "time": 107.07913475000002,
          "velocity": 1
        },
        {
          "duration": 0.14851475000000391,
          "durationTicks": 24,
          "midi": 48,
          "name": "C3",
          "ticks": 17328,
          "time": 107.22764950000001,
          "velocity": 1
        },
        {
          "duration": 0.14851475000000391,
          "durationTicks": 24,
          "midi": 48,
          "name": "C3",
          "ticks": 17352,
          "time": 107.37616425000002,
          "velocity": 1
        },
        {
          "duration": 0.14851475000000391,
          "durationTicks": 24,
          "midi": 48,
          "name": "C3",
          "ticks": 17376,
          "time": 107.52467900000002,
          "velocity": 1
        },
        {
          "duration": 0.1485147499999897,
          "durationTicks": 24,
          "midi": 48,
          "name": "C3",
          "ticks": 17400,
          "time": 107.67319375000002,
          "velocity": 1
        },
        {
          "duration": 0.29702950000000783,
          "durationTicks": 48,
          "midi": 48,
          "name": "C3",
          "ticks": 17424,
          "time": 107.82170850000001,
          "velocity": 1
        },
        {
          "duration": 0.1485147499999897,
          "durationTicks": 24,
          "midi": 48,
          "name": "C3",
          "ticks": 17472,
          "time": 108.11873800000002,
          "velocity": 1
        },
        {
          "duration": 0.14851475000000391,
          "durationTicks": 24,
          "midi": 48,
          "name": "C3",
          "ticks": 17496,
          "time": 108.26725275000001,
          "velocity": 1
        },
        {
          "duration": 0.29702950000000783,
          "durationTicks": 48,
          "midi": 48,
          "name": "C3",
          "ticks": 17520,
          "time": 108.41576750000002,
          "velocity": 1
        },
        {
          "duration": 0.1485147499999897,
          "durationTicks": 24,
          "midi": 48,
          "name": "C3",
          "ticks": 17568,
          "time": 108.71279700000002,
          "velocity": 1
        },
        {
          "duration": 0.14851475000000391,
          "durationTicks": 24,
          "midi": 48,
          "name": "C3",
          "ticks": 17592,
          "time": 108.86131175000001,
          "velocity": 1
        },
        {
          "duration": 0.14851475000000391,
          "durationTicks": 24,
          "midi": 48,
          "name": "C3",
          "ticks": 17616,
          "time": 109.00982650000002,
          "velocity": 1
        },
        {
          "duration": 0.1485147499999897,
          "durationTicks": 24,
          "midi": 48,
          "name": "C3",
          "ticks": 17640,
          "time": 109.15834125000002,
          "velocity": 1
        },
        {
          "duration": 0.14851475000000391,
          "durationTicks": 24,
          "midi": 48,
          "name": "C3",
          "ticks": 17664,
          "time": 109.30685600000001,
          "velocity": 1
        },
        {
          "duration": 0.14851475000000391,
          "durationTicks": 24,
          "midi": 48,
          "name": "C3",
          "ticks": 17688,
          "time": 109.45537075000001,
          "velocity": 1
        },
        {
          "duration": 0.14851475000000391,
          "durationTicks": 24,
          "midi": 48,
          "name": "C3",
          "ticks": 17712,
          "time": 109.60388550000002,
          "velocity": 1
        },
        {
          "duration": 0.14851475000000391,
          "durationTicks": 24,
          "midi": 48,
          "name": "C3",
          "ticks": 17736,
          "time": 109.75240025000002,
          "velocity": 1
        },
        {
          "duration": 0.1485147499999897,
          "durationTicks": 24,
          "midi": 48,
          "name": "C3",
          "ticks": 17760,
          "time": 109.90091500000003,
          "velocity": 1
        },
        {
          "duration": 0.2970294999999936,
          "durationTicks": 48,
          "midi": 48,
          "name": "C3",
          "ticks": 17784,
          "time": 110.04942975000002,
          "velocity": 1
        },
        {
          "duration": 0.14851475000000391,
          "durationTicks": 24,
          "midi": 48,
          "name": "C3",
          "ticks": 17832,
          "time": 110.34645925000001,
          "velocity": 1
        },
        {
          "duration": 0.14851475000000391,
          "durationTicks": 24,
          "midi": 48,
          "name": "C3",
          "ticks": 17856,
          "time": 110.49497400000001,
          "velocity": 1
        },
        {
          "duration": 0.29702950000000783,
          "durationTicks": 48,
          "midi": 48,
          "name": "C3",
          "ticks": 17880,
          "time": 110.64348875000002,
          "velocity": 1
        },
        {
          "duration": 0.1485147499999897,
          "durationTicks": 24,
          "midi": 48,
          "name": "C3",
          "ticks": 17928,
          "time": 110.94051825000003,
          "velocity": 1
        },
        {
          "duration": 0.14851475000000391,
          "durationTicks": 24,
          "midi": 48,
          "name": "C3",
          "ticks": 17952,
          "time": 111.08903300000001,
          "velocity": 1
        },
        {
          "duration": 0.14851475000000391,
          "durationTicks": 24,
          "midi": 48,
          "name": "C3",
          "ticks": 17976,
          "time": 111.23754775000002,
          "velocity": 1
        },
        {
          "duration": 0.1485147499999897,
          "durationTicks": 24,
          "midi": 48,
          "name": "C3",
          "ticks": 18000,
          "time": 111.38606250000002,
          "velocity": 1
        },
        {
          "duration": 0.14851475000000391,
          "durationTicks": 24,
          "midi": 48,
          "name": "C3",
          "ticks": 18024,
          "time": 111.53457725000001,
          "velocity": 1
        },
        {
          "duration": 0.14851475000000391,
          "durationTicks": 24,
          "midi": 48,
          "name": "C3",
          "ticks": 18048,
          "time": 111.68309200000002,
          "velocity": 1
        },
        {
          "duration": 0.14851475000000391,
          "durationTicks": 24,
          "midi": 48,
          "name": "C3",
          "ticks": 18072,
          "time": 111.83160675000002,
          "velocity": 1
        },
        {
          "duration": 0.1485147499999897,
          "durationTicks": 24,
          "midi": 48,
          "name": "C3",
          "ticks": 18096,
          "time": 111.98012150000002,
          "velocity": 1
        },
        {
          "duration": 0.14851475000000391,
          "durationTicks": 24,
          "midi": 48,
          "name": "C3",
          "ticks": 18120,
          "time": 112.12863625000001,
          "velocity": 1
        },
        {
          "duration": 0.2970294999999936,
          "durationTicks": 48,
          "midi": 48,
          "name": "C3",
          "ticks": 18144,
          "time": 112.27715100000002,
          "velocity": 1
        },
        {
          "duration": 0.14851475000000391,
          "durationTicks": 24,
          "midi": 48,
          "name": "C3",
          "ticks": 18192,
          "time": 112.57418050000001,
          "velocity": 1
        },
        {
          "duration": 0.14851475000000391,
          "durationTicks": 24,
          "midi": 48,
          "name": "C3",
          "ticks": 18216,
          "time": 112.72269525000002,
          "velocity": 1
        },
        {
          "duration": 0.29702950000000783,
          "durationTicks": 48,
          "midi": 48,
          "name": "C3",
          "ticks": 18240,
          "time": 112.87121000000002,
          "velocity": 1
        },
        {
          "duration": 0.1485147499999897,
          "durationTicks": 24,
          "midi": 48,
          "name": "C3",
          "ticks": 18288,
          "time": 113.16823950000003,
          "velocity": 1
        },
        {
          "duration": 0.14851475000000391,
          "durationTicks": 24,
          "midi": 48,
          "name": "C3",
          "ticks": 18312,
          "time": 113.31675425000002,
          "velocity": 1
        },
        {
          "duration": 0.1485147499999897,
          "durationTicks": 24,
          "midi": 48,
          "name": "C3",
          "ticks": 18336,
          "time": 113.46526900000002,
          "velocity": 1
        },
        {
          "duration": 0.14851475000000391,
          "durationTicks": 24,
          "midi": 48,
          "name": "C3",
          "ticks": 18360,
          "time": 113.61378375000001,
          "velocity": 1
        },
        {
          "duration": 0.14851475000000391,
          "durationTicks": 24,
          "midi": 48,
          "name": "C3",
          "ticks": 18384,
          "time": 113.76229850000001,
          "velocity": 1
        },
        {
          "duration": 0.14851475000000391,
          "durationTicks": 24,
          "midi": 48,
          "name": "C3",
          "ticks": 18408,
          "time": 113.91081325000002,
          "velocity": 1
        },
        {
          "duration": 0.14851475000000391,
          "durationTicks": 24,
          "midi": 48,
          "name": "C3",
          "ticks": 18432,
          "time": 114.05932800000002,
          "velocity": 1
        },
        {
          "duration": 0.1485147499999897,
          "durationTicks": 24,
          "midi": 48,
          "name": "C3",
          "ticks": 18456,
          "time": 114.20784275000003,
          "velocity": 1
        },
        {
          "duration": 0.14851475000000391,
          "durationTicks": 24,
          "midi": 48,
          "name": "C3",
          "ticks": 18480,
          "time": 114.35635750000002,
          "velocity": 1
        },
        {
          "duration": 0.2970294999999936,
          "durationTicks": 48,
          "midi": 48,
          "name": "C3",
          "ticks": 18504,
          "time": 114.50487225000002,
          "velocity": 1
        },
        {
          "duration": 0.14851475000000391,
          "durationTicks": 24,
          "midi": 48,
          "name": "C3",
          "ticks": 18552,
          "time": 114.80190175000001,
          "velocity": 1
        },
        {
          "duration": 0.14851475000000391,
          "durationTicks": 24,
          "midi": 48,
          "name": "C3",
          "ticks": 18576,
          "time": 114.95041650000002,
          "velocity": 1
        },
        {
          "duration": 0.2970294999999936,
          "durationTicks": 48,
          "midi": 48,
          "name": "C3",
          "ticks": 18600,
          "time": 115.09893125000002,
          "velocity": 1
        },
        {
          "duration": 0.14851475000000391,
          "durationTicks": 24,
          "midi": 48,
          "name": "C3",
          "ticks": 18648,
          "time": 115.39596075000001,
          "velocity": 1
        },
        {
          "duration": 0.14851475000000391,
          "durationTicks": 24,
          "midi": 48,
          "name": "C3",
          "ticks": 18672,
          "time": 115.54447550000002,
          "velocity": 1
        },
        {
          "duration": 0.1485147499999897,
          "durationTicks": 24,
          "midi": 48,
          "name": "C3",
          "ticks": 18696,
          "time": 115.69299025000002,
          "velocity": 1
        },
        {
          "duration": 0.14851475000000391,
          "durationTicks": 24,
          "midi": 48,
          "name": "C3",
          "ticks": 18720,
          "time": 115.84150500000001,
          "velocity": 1
        },
        {
          "duration": 0.14851475000000391,
          "durationTicks": 24,
          "midi": 48,
          "name": "C3",
          "ticks": 18744,
          "time": 115.99001975000002,
          "velocity": 1
        },
        {
          "duration": 0.14851475000000391,
          "durationTicks": 24,
          "midi": 48,
          "name": "C3",
          "ticks": 18768,
          "time": 116.13853450000002,
          "velocity": 1
        },
        {
          "duration": 0.1485147499999897,
          "durationTicks": 24,
          "midi": 48,
          "name": "C3",
          "ticks": 18792,
          "time": 116.28704925000002,
          "velocity": 1
        },
        {
          "duration": 0.14851475000000391,
          "durationTicks": 24,
          "midi": 48,
          "name": "C3",
          "ticks": 18816,
          "time": 116.43556400000001,
          "velocity": 1
        },
        {
          "duration": 0.14851475000000391,
          "durationTicks": 24,
          "midi": 48,
          "name": "C3",
          "ticks": 18840,
          "time": 116.58407875000002,
          "velocity": 1
        },
        {
          "duration": 0.2970294999999936,
          "durationTicks": 48,
          "midi": 48,
          "name": "C3",
          "ticks": 18864,
          "time": 116.73259350000002,
          "velocity": 1
        },
        {
          "duration": 0.14851475000000391,
          "durationTicks": 24,
          "midi": 48,
          "name": "C3",
          "ticks": 18912,
          "time": 117.02962300000002,
          "velocity": 1
        },
        {
          "duration": 0.14851475000000391,
          "durationTicks": 24,
          "midi": 48,
          "name": "C3",
          "ticks": 18936,
          "time": 117.17813775000002,
          "velocity": 1
        },
        {
          "duration": 0.2970294999999936,
          "durationTicks": 48,
          "midi": 48,
          "name": "C3",
          "ticks": 18960,
          "time": 117.32665250000002,
          "velocity": 1
        },
        {
          "duration": 0.14851475000000391,
          "durationTicks": 24,
          "midi": 48,
          "name": "C3",
          "ticks": 19008,
          "time": 117.62368200000002,
          "velocity": 1
        },
        {
          "duration": 0.1485147499999897,
          "durationTicks": 24,
          "midi": 48,
          "name": "C3",
          "ticks": 19032,
          "time": 117.77219675000002,
          "velocity": 1
        },
        {
          "duration": 0.14851475000000391,
          "durationTicks": 24,
          "midi": 48,
          "name": "C3",
          "ticks": 19056,
          "time": 117.92071150000001,
          "velocity": 1
        },
        {
          "duration": 0.14851475000000391,
          "durationTicks": 24,
          "midi": 48,
          "name": "C3",
          "ticks": 19080,
          "time": 118.06922625000001,
          "velocity": 1
        },
        {
          "duration": 0.14851475000000391,
          "durationTicks": 24,
          "midi": 48,
          "name": "C3",
          "ticks": 19104,
          "time": 118.21774100000002,
          "velocity": 1
        },
        {
          "duration": 0.14851475000000391,
          "durationTicks": 24,
          "midi": 48,
          "name": "C3",
          "ticks": 19128,
          "time": 118.36625575000002,
          "velocity": 1
        },
        {
          "duration": 0.1485147499999897,
          "durationTicks": 24,
          "midi": 48,
          "name": "C3",
          "ticks": 19152,
          "time": 118.51477050000003,
          "velocity": 1
        },
        {
          "duration": 0.14851475000000391,
          "durationTicks": 24,
          "midi": 48,
          "name": "C3",
          "ticks": 19176,
          "time": 118.66328525000002,
          "velocity": 1
        },
        {
          "duration": 0.14851475000000391,
          "durationTicks": 24,
          "midi": 48,
          "name": "C3",
          "ticks": 19200,
          "time": 118.81180000000002,
          "velocity": 1
        },
        {
          "duration": 0.2970294999999936,
          "durationTicks": 48,
          "midi": 48,
          "name": "C3",
          "ticks": 19224,
          "time": 118.96031475000002,
          "velocity": 1
        },
        {
          "duration": 0.14851475000000391,
          "durationTicks": 24,
          "midi": 48,
          "name": "C3",
          "ticks": 19272,
          "time": 119.25734425000002,
          "velocity": 1
        },
        {
          "duration": 0.14851475000000391,
          "durationTicks": 24,
          "midi": 48,
          "name": "C3",
          "ticks": 19296,
          "time": 119.40585900000002,
          "velocity": 1
        },
        {
          "duration": 0.2970294999999936,
          "durationTicks": 48,
          "midi": 48,
          "name": "C3",
          "ticks": 19320,
          "time": 119.55437375000002,
          "velocity": 1
        },
        {
          "duration": 0.14851475000000391,
          "durationTicks": 24,
          "midi": 48,
          "name": "C3",
          "ticks": 19368,
          "time": 119.85140325000002,
          "velocity": 1
        },
        {
          "duration": 0.1485147499999897,
          "durationTicks": 24,
          "midi": 48,
          "name": "C3",
          "ticks": 19392,
          "time": 119.99991800000002,
          "velocity": 1
        },
        {
          "duration": 0.14851475000000391,
          "durationTicks": 24,
          "midi": 48,
          "name": "C3",
          "ticks": 19416,
          "time": 120.14843275000001,
          "velocity": 1
        },
        {
          "duration": 0.14851475000000391,
          "durationTicks": 24,
          "midi": 48,
          "name": "C3",
          "ticks": 19440,
          "time": 120.29694750000002,
          "velocity": 1
        },
        {
          "duration": 0.14851475000000391,
          "durationTicks": 24,
          "midi": 48,
          "name": "C3",
          "ticks": 19464,
          "time": 120.44546225000002,
          "velocity": 1
        },
        {
          "duration": 0.1485147499999897,
          "durationTicks": 24,
          "midi": 48,
          "name": "C3",
          "ticks": 19488,
          "time": 120.59397700000002,
          "velocity": 1
        },
        {
          "duration": 0.14851475000000391,
          "durationTicks": 24,
          "midi": 48,
          "name": "C3",
          "ticks": 19512,
          "time": 120.74249175000001,
          "velocity": 1
        },
        {
          "duration": 0.14851475000000391,
          "durationTicks": 24,
          "midi": 48,
          "name": "C3",
          "ticks": 19536,
          "time": 120.89100650000002,
          "velocity": 1
        },
        {
          "duration": 0.1485147499999897,
          "durationTicks": 24,
          "midi": 48,
          "name": "C3",
          "ticks": 19560,
          "time": 121.03952125000002,
          "velocity": 1
        },
        {
          "duration": 0.29702950000000783,
          "durationTicks": 48,
          "midi": 48,
          "name": "C3",
          "ticks": 19584,
          "time": 121.18803600000001,
          "velocity": 1
        },
        {
          "duration": 0.14851475000000391,
          "durationTicks": 24,
          "midi": 48,
          "name": "C3",
          "ticks": 19632,
          "time": 121.48506550000002,
          "velocity": 1
        },
        {
          "duration": 0.14851475000000391,
          "durationTicks": 24,
          "midi": 48,
          "name": "C3",
          "ticks": 19656,
          "time": 121.63358025000002,
          "velocity": 1
        },
        {
          "duration": 0.2970294999999936,
          "durationTicks": 48,
          "midi": 48,
          "name": "C3",
          "ticks": 19680,
          "time": 121.78209500000003,
          "velocity": 1
        },
        {
          "duration": 0.1485147499999897,
          "durationTicks": 24,
          "midi": 48,
          "name": "C3",
          "ticks": 19728,
          "time": 122.07912450000002,
          "velocity": 1
        },
        {
          "duration": 0.14851475000000391,
          "durationTicks": 24,
          "midi": 48,
          "name": "C3",
          "ticks": 19752,
          "time": 122.22763925000001,
          "velocity": 1
        },
        {
          "duration": 0.14851475000000391,
          "durationTicks": 24,
          "midi": 48,
          "name": "C3",
          "ticks": 19776,
          "time": 122.37615400000001,
          "velocity": 1
        },
        {
          "duration": 0.14851475000000391,
          "durationTicks": 24,
          "midi": 48,
          "name": "C3",
          "ticks": 19800,
          "time": 122.52466875000002,
          "velocity": 1
        },
        {
          "duration": 0.14851475000000391,
          "durationTicks": 24,
          "midi": 48,
          "name": "C3",
          "ticks": 19824,
          "time": 122.67318350000002,
          "velocity": 1
        },
        {
          "duration": 0.1485147499999897,
          "durationTicks": 24,
          "midi": 48,
          "name": "C3",
          "ticks": 19848,
          "time": 122.82169825000003,
          "velocity": 1
        },
        {
          "duration": 0.14851475000000391,
          "durationTicks": 24,
          "midi": 48,
          "name": "C3",
          "ticks": 19872,
          "time": 122.97021300000002,
          "velocity": 1
        },
        {
          "duration": 0.1485147499999897,
          "durationTicks": 24,
          "midi": 48,
          "name": "C3",
          "ticks": 19896,
          "time": 123.11872775000002,
          "velocity": 1
        },
        {
          "duration": 0.14851475000000391,
          "durationTicks": 24,
          "midi": 48,
          "name": "C3",
          "ticks": 19920,
          "time": 123.26724250000001,
          "velocity": 1
        },
        {
          "duration": 0.29702950000000783,
          "durationTicks": 48,
          "midi": 48,
          "name": "C3",
          "ticks": 19944,
          "time": 123.41575725000001,
          "velocity": 1
        },
        {
          "duration": 0.14851475000000391,
          "durationTicks": 24,
          "midi": 48,
          "name": "C3",
          "ticks": 19992,
          "time": 123.71278675000002,
          "velocity": 1
        },
        {
          "duration": 0.14851475000000391,
          "durationTicks": 24,
          "midi": 48,
          "name": "C3",
          "ticks": 20016,
          "time": 123.86130150000002,
          "velocity": 1
        },
        {
          "duration": 0.2970294999999794,
          "durationTicks": 48,
          "midi": 48,
          "name": "C3",
          "ticks": 20040,
          "time": 124.00981625000003,
          "velocity": 1
        },
        {
          "duration": 0.14851475000000391,
          "durationTicks": 24,
          "midi": 48,
          "name": "C3",
          "ticks": 20088,
          "time": 124.30684575000001,
          "velocity": 1
        },
        {
          "duration": 0.14851475000000391,
          "durationTicks": 24,
          "midi": 48,
          "name": "C3",
          "ticks": 20112,
          "time": 124.45536050000001,
          "velocity": 1
        },
        {
          "duration": 0.14851475000000391,
          "durationTicks": 24,
          "midi": 48,
          "name": "C3",
          "ticks": 20136,
          "time": 124.60387525000002,
          "velocity": 1
        },
        {
          "duration": 0.14851475000000391,
          "durationTicks": 24,
          "midi": 48,
          "name": "C3",
          "ticks": 20160,
          "time": 124.75239000000002,
          "velocity": 1
        },
        {
          "duration": 0.14851475000000391,
          "durationTicks": 24,
          "midi": 48,
          "name": "C3",
          "ticks": 20184,
          "time": 124.90090475000002,
          "velocity": 1
        },
        {
          "duration": 0.1485147499999897,
          "durationTicks": 24,
          "midi": 48,
          "name": "C3",
          "ticks": 20208,
          "time": 125.04941950000003,
          "velocity": 1
        },
        {
          "duration": 0.14851475000000391,
          "durationTicks": 24,
          "midi": 48,
          "name": "C3",
          "ticks": 20232,
          "time": 125.19793425000002,
          "velocity": 1
        },
        {
          "duration": 0.1485147499999897,
          "durationTicks": 24,
          "midi": 48,
          "name": "C3",
          "ticks": 20256,
          "time": 125.34644900000002,
          "velocity": 1
        },
        {
          "duration": 0.14851475000000391,
          "durationTicks": 24,
          "midi": 48,
          "name": "C3",
          "ticks": 20280,
          "time": 125.49496375000001,
          "velocity": 1
        },
        {
          "duration": 0.29702950000000783,
          "durationTicks": 48,
          "midi": 48,
          "name": "C3",
          "ticks": 20304,
          "time": 125.64347850000001,
          "velocity": 1
        },
        {
          "duration": 0.14851475000000391,
          "durationTicks": 24,
          "midi": 48,
          "name": "C3",
          "ticks": 20352,
          "time": 125.94050800000002,
          "velocity": 1
        },
        {
          "duration": 0.1485147499999897,
          "durationTicks": 24,
          "midi": 48,
          "name": "C3",
          "ticks": 20376,
          "time": 126.08902275000003,
          "velocity": 1
        },
        {
          "duration": 0.2970294999999936,
          "durationTicks": 48,
          "midi": 48,
          "name": "C3",
          "ticks": 20400,
          "time": 126.23753750000002,
          "velocity": 1
        },
        {
          "duration": 0.14851475000000391,
          "durationTicks": 24,
          "midi": 48,
          "name": "C3",
          "ticks": 20448,
          "time": 126.53456700000001,
          "velocity": 1
        },
        {
          "duration": 0.14851475000000391,
          "durationTicks": 24,
          "midi": 48,
          "name": "C3",
          "ticks": 20472,
          "time": 126.68308175000001,
          "velocity": 1
        },
        {
          "duration": 0.14851475000000391,
          "durationTicks": 24,
          "midi": 48,
          "name": "C3",
          "ticks": 20496,
          "time": 126.83159650000002,
          "velocity": 1
        },
        {
          "duration": 0.14851475000000391,
          "durationTicks": 24,
          "midi": 48,
          "name": "C3",
          "ticks": 20520,
          "time": 126.98011125000002,
          "velocity": 1
        },
        {
          "duration": 0.1485147499999897,
          "durationTicks": 24,
          "midi": 48,
          "name": "C3",
          "ticks": 20544,
          "time": 127.12862600000003,
          "velocity": 1
        },
        {
          "duration": 0.14851475000000391,
          "durationTicks": 24,
          "midi": 48,
          "name": "C3",
          "ticks": 20568,
          "time": 127.27714075000002,
          "velocity": 1
        },
        {
          "duration": 0.1485147499999897,
          "durationTicks": 24,
          "midi": 48,
          "name": "C3",
          "ticks": 20592,
          "time": 127.42565550000002,
          "velocity": 1
        },
        {
          "duration": 0.14851475000000391,
          "durationTicks": 24,
          "midi": 48,
          "name": "C3",
          "ticks": 20616,
          "time": 127.57417025000001,
          "velocity": 1
        },
        {
          "duration": 0.14851475000000391,
          "durationTicks": 24,
          "midi": 48,
          "name": "C3",
          "ticks": 20640,
          "time": 127.72268500000001,
          "velocity": 1
        },
        {
          "duration": 0.29702950000000783,
          "durationTicks": 48,
          "midi": 48,
          "name": "C3",
          "ticks": 20664,
          "time": 127.87119975000002,
          "velocity": 1
        },
        {
          "duration": 0.14851475000000391,
          "durationTicks": 24,
          "midi": 48,
          "name": "C3",
          "ticks": 20712,
          "time": 128.16822925000002,
          "velocity": 1
        },
        {
          "duration": 0.14851475000000391,
          "durationTicks": 24,
          "midi": 48,
          "name": "C3",
          "ticks": 20736,
          "time": 128.31674400000003,
          "velocity": 1
        },
        {
          "duration": 0.2970294999999794,
          "durationTicks": 48,
          "midi": 48,
          "name": "C3",
          "ticks": 20760,
          "time": 128.46525875000003,
          "velocity": 1
        },
        {
          "duration": 0.14851475000000391,
          "durationTicks": 24,
          "midi": 48,
          "name": "C3",
          "ticks": 20808,
          "time": 128.76228825,
          "velocity": 1
        },
        {
          "duration": 0.14851475000000391,
          "durationTicks": 24,
          "midi": 48,
          "name": "C3",
          "ticks": 20832,
          "time": 128.91080300000002,
          "velocity": 1
        },
        {
          "duration": 0.14851475000000391,
          "durationTicks": 24,
          "midi": 48,
          "name": "C3",
          "ticks": 20856,
          "time": 129.05931775000002,
          "velocity": 1
        },
        {
          "duration": 0.14851475000000391,
          "durationTicks": 24,
          "midi": 48,
          "name": "C3",
          "ticks": 20880,
          "time": 129.20783250000002,
          "velocity": 1
        },
        {
          "duration": 0.1485147499999755,
          "durationTicks": 24,
          "midi": 48,
          "name": "C3",
          "ticks": 20904,
          "time": 129.35634725000003,
          "velocity": 1
        },
        {
          "duration": 0.14851475000000391,
          "durationTicks": 24,
          "midi": 48,
          "name": "C3",
          "ticks": 20928,
          "time": 129.504862,
          "velocity": 1
        },
        {
          "duration": 0.14851475000000391,
          "durationTicks": 24,
          "midi": 48,
          "name": "C3",
          "ticks": 20952,
          "time": 129.65337675,
          "velocity": 1
        },
        {
          "duration": 0.14851475000000391,
          "durationTicks": 24,
          "midi": 48,
          "name": "C3",
          "ticks": 20976,
          "time": 129.8018915,
          "velocity": 1
        },
        {
          "duration": 0.14851475000000391,
          "durationTicks": 24,
          "midi": 48,
          "name": "C3",
          "ticks": 21000,
          "time": 129.95040625000001,
          "velocity": 1
        },
        {
          "duration": 0.29702950000000783,
          "durationTicks": 48,
          "midi": 48,
          "name": "C3",
          "ticks": 21024,
          "time": 130.09892100000002,
          "velocity": 1
        },
        {
          "duration": 0.14851475000000391,
          "durationTicks": 24,
          "midi": 48,
          "name": "C3",
          "ticks": 21072,
          "time": 130.39595050000003,
          "velocity": 1
        },
        {
          "duration": 0.14851475000000391,
          "durationTicks": 24,
          "midi": 48,
          "name": "C3",
          "ticks": 21096,
          "time": 130.54446525000003,
          "velocity": 1
        },
        {
          "duration": 0.2970294999999794,
          "durationTicks": 48,
          "midi": 48,
          "name": "C3",
          "ticks": 21120,
          "time": 130.69298000000003,
          "velocity": 1
        },
        {
          "duration": 0.14851475000000391,
          "durationTicks": 24,
          "midi": 48,
          "name": "C3",
          "ticks": 21168,
          "time": 130.9900095,
          "velocity": 1
        },
        {
          "duration": 0.14851475000000391,
          "durationTicks": 24,
          "midi": 48,
          "name": "C3",
          "ticks": 21192,
          "time": 131.13852425000002,
          "velocity": 1
        },
        {
          "duration": 0.14851475000000391,
          "durationTicks": 24,
          "midi": 48,
          "name": "C3",
          "ticks": 21216,
          "time": 131.28703900000002,
          "velocity": 1
        },
        {
          "duration": 0.1485147499999755,
          "durationTicks": 24,
          "midi": 48,
          "name": "C3",
          "ticks": 21240,
          "time": 131.43555375000003,
          "velocity": 1
        },
        {
          "duration": 0.14851475000000391,
          "durationTicks": 24,
          "midi": 48,
          "name": "C3",
          "ticks": 21264,
          "time": 131.5840685,
          "velocity": 1
        },
        {
          "duration": 0.14851475000000391,
          "durationTicks": 24,
          "midi": 48,
          "name": "C3",
          "ticks": 21288,
          "time": 131.73258325,
          "velocity": 1
        },
        {
          "duration": 0.14851475000000391,
          "durationTicks": 24,
          "midi": 48,
          "name": "C3",
          "ticks": 21312,
          "time": 131.881098,
          "velocity": 1
        },
        {
          "duration": 0.14851475000000391,
          "durationTicks": 24,
          "midi": 48,
          "name": "C3",
          "ticks": 21336,
          "time": 132.02961275,
          "velocity": 1
        },
        {
          "duration": 0.14851475000000391,
          "durationTicks": 24,
          "midi": 48,
          "name": "C3",
          "ticks": 21360,
          "time": 132.17812750000002,
          "velocity": 1
        },
        {
          "duration": 0.29702950000000783,
          "durationTicks": 48,
          "midi": 48,
          "name": "C3",
          "ticks": 21384,
          "time": 132.32664225000002,
          "velocity": 1
        },
        {
          "duration": 0.14851475000000391,
          "durationTicks": 24,
          "midi": 48,
          "name": "C3",
          "ticks": 21432,
          "time": 132.62367175000003,
          "velocity": 1
        },
        {
          "duration": 0.14851475000000391,
          "durationTicks": 24,
          "midi": 48,
          "name": "C3",
          "ticks": 21456,
          "time": 132.77218650000003,
          "velocity": 1
        },
        {
          "duration": 0.2970294999999794,
          "durationTicks": 48,
          "midi": 48,
          "name": "C3",
          "ticks": 21480,
          "time": 132.92070125000004,
          "velocity": 1
        },
        {
          "duration": 0.14851475000000391,
          "durationTicks": 24,
          "midi": 48,
          "name": "C3",
          "ticks": 21528,
          "time": 133.21773075000002,
          "velocity": 1
        },
        {
          "duration": 0.14851475000000391,
          "durationTicks": 24,
          "midi": 48,
          "name": "C3",
          "ticks": 21552,
          "time": 133.36624550000002,
          "velocity": 1
        },
        {
          "duration": 0.14851475000000391,
          "durationTicks": 24,
          "midi": 48,
          "name": "C3",
          "ticks": 21576,
          "time": 133.51476025000002,
          "velocity": 1
        },
        {
          "duration": 0.1485147499999755,
          "durationTicks": 24,
          "midi": 48,
          "name": "C3",
          "ticks": 21600,
          "time": 133.66327500000003,
          "velocity": 1
        },
        {
          "duration": 0.14851475000000391,
          "durationTicks": 24,
          "midi": 48,
          "name": "C3",
          "ticks": 21624,
          "time": 133.81178975,
          "velocity": 1
        },
        {
          "duration": 0.14851475000000391,
          "durationTicks": 24,
          "midi": 48,
          "name": "C3",
          "ticks": 21648,
          "time": 133.9603045,
          "velocity": 1
        },
        {
          "duration": 0.14851475000000391,
          "durationTicks": 24,
          "midi": 48,
          "name": "C3",
          "ticks": 21672,
          "time": 134.10881925,
          "velocity": 1
        },
        {
          "duration": 0.14851475000000391,
          "durationTicks": 24,
          "midi": 48,
          "name": "C3",
          "ticks": 21696,
          "time": 134.25733400000001,
          "velocity": 1
        },
        {
          "duration": 0.14851475000000391,
          "durationTicks": 24,
          "midi": 48,
          "name": "C3",
          "ticks": 21720,
          "time": 134.40584875000002,
          "velocity": 1
        },
        {
          "duration": 0.29702950000000783,
          "durationTicks": 48,
          "midi": 48,
          "name": "C3",
          "ticks": 21744,
          "time": 134.55436350000002,
          "velocity": 1
        },
        {
          "duration": 0.14851475000000391,
          "durationTicks": 24,
          "midi": 48,
          "name": "C3",
          "ticks": 21792,
          "time": 134.85139300000003,
          "velocity": 1
        },
        {
          "duration": 0.1485147499999755,
          "durationTicks": 24,
          "midi": 48,
          "name": "C3",
          "ticks": 21816,
          "time": 134.99990775000003,
          "velocity": 1
        },
        {
          "duration": 0.29702950000000783,
          "durationTicks": 48,
          "midi": 48,
          "name": "C3",
          "ticks": 21840,
          "time": 135.1484225,
          "velocity": 1
        },
        {
          "duration": 0.14851475000000391,
          "durationTicks": 24,
          "midi": 48,
          "name": "C3",
          "ticks": 21888,
          "time": 135.44545200000002,
          "velocity": 1
        },
        {
          "duration": 0.14851475000000391,
          "durationTicks": 24,
          "midi": 48,
          "name": "C3",
          "ticks": 21912,
          "time": 135.59396675000002,
          "velocity": 1
        },
        {
          "duration": 0.14851475000000391,
          "durationTicks": 24,
          "midi": 48,
          "name": "C3",
          "ticks": 21936,
          "time": 135.74248150000003,
          "velocity": 1
        },
        {
          "duration": 0.1485147499999755,
          "durationTicks": 24,
          "midi": 48,
          "name": "C3",
          "ticks": 21960,
          "time": 135.89099625000003,
          "velocity": 1
        },
        {
          "duration": 0.14851475000000391,
          "durationTicks": 24,
          "midi": 48,
          "name": "C3",
          "ticks": 21984,
          "time": 136.039511,
          "velocity": 1
        },
        {
          "duration": 0.14851475000000391,
          "durationTicks": 24,
          "midi": 48,
          "name": "C3",
          "ticks": 22008,
          "time": 136.18802575,
          "velocity": 1
        },
        {
          "duration": 0.14851475000000391,
          "durationTicks": 24,
          "midi": 48,
          "name": "C3",
          "ticks": 22032,
          "time": 136.3365405,
          "velocity": 1
        },
        {
          "duration": 0.14851475000000391,
          "durationTicks": 24,
          "midi": 48,
          "name": "C3",
          "ticks": 22056,
          "time": 136.48505525000002,
          "velocity": 1
        },
        {
          "duration": 0.14851475000000391,
          "durationTicks": 24,
          "midi": 48,
          "name": "C3",
          "ticks": 22080,
          "time": 136.63357000000002,
          "velocity": 1
        },
        {
          "duration": 0.29702950000000783,
          "durationTicks": 48,
          "midi": 48,
          "name": "C3",
          "ticks": 22104,
          "time": 136.78208475000002,
          "velocity": 1
        },
        {
          "duration": 0.14851475000000391,
          "durationTicks": 24,
          "midi": 48,
          "name": "C3",
          "ticks": 22152,
          "time": 137.07911425000003,
          "velocity": 1
        },
        {
          "duration": 0.1485147499999755,
          "durationTicks": 24,
          "midi": 48,
          "name": "C3",
          "ticks": 22176,
          "time": 137.22762900000004,
          "velocity": 1
        },
        {
          "duration": 0.29702950000000783,
          "durationTicks": 48,
          "midi": 48,
          "name": "C3",
          "ticks": 22200,
          "time": 137.37614375,
          "velocity": 1
        },
        {
          "duration": 0.14851475000000391,
          "durationTicks": 24,
          "midi": 48,
          "name": "C3",
          "ticks": 22248,
          "time": 137.67317325000002,
          "velocity": 1
        },
        {
          "duration": 0.14851475000000391,
          "durationTicks": 24,
          "midi": 48,
          "name": "C3",
          "ticks": 22272,
          "time": 137.82168800000002,
          "velocity": 1
        },
        {
          "duration": 0.1485147499999755,
          "durationTicks": 24,
          "midi": 48,
          "name": "C3",
          "ticks": 22296,
          "time": 137.97020275000003,
          "velocity": 1
        },
        {
          "duration": 0.14851475000000391,
          "durationTicks": 24,
          "midi": 48,
          "name": "C3",
          "ticks": 22320,
          "time": 138.1187175,
          "velocity": 1
        },
        {
          "duration": 0.14851475000000391,
          "durationTicks": 24,
          "midi": 48,
          "name": "C3",
          "ticks": 22344,
          "time": 138.26723225,
          "velocity": 1
        },
        {
          "duration": 0.14851475000000391,
          "durationTicks": 24,
          "midi": 48,
          "name": "C3",
          "ticks": 22368,
          "time": 138.415747,
          "velocity": 1
        },
        {
          "duration": 0.14851475000000391,
          "durationTicks": 24,
          "midi": 48,
          "name": "C3",
          "ticks": 22392,
          "time": 138.56426175000001,
          "velocity": 1
        },
        {
          "duration": 0.14851475000000391,
          "durationTicks": 24,
          "midi": 48,
          "name": "C3",
          "ticks": 22416,
          "time": 138.71277650000002,
          "velocity": 1
        },
        {
          "duration": 0.14851475000000391,
          "durationTicks": 24,
          "midi": 48,
          "name": "C3",
          "ticks": 22440,
          "time": 138.86129125000002,
          "velocity": 1
        },
        {
          "duration": 0.29702950000000783,
          "durationTicks": 48,
          "midi": 48,
          "name": "C3",
          "ticks": 22464,
          "time": 139.00980600000003,
          "velocity": 1
        },
        {
          "duration": 0.1485147499999755,
          "durationTicks": 24,
          "midi": 48,
          "name": "C3",
          "ticks": 22512,
          "time": 139.30683550000003,
          "velocity": 1
        },
        {
          "duration": 0.14851475000000391,
          "durationTicks": 24,
          "midi": 48,
          "name": "C3",
          "ticks": 22536,
          "time": 139.45535025,
          "velocity": 1
        },
        {
          "duration": 0.29702950000000783,
          "durationTicks": 48,
          "midi": 48,
          "name": "C3",
          "ticks": 22560,
          "time": 139.603865,
          "velocity": 1
        },
        {
          "duration": 0.14851475000000391,
          "durationTicks": 24,
          "midi": 48,
          "name": "C3",
          "ticks": 22608,
          "time": 139.90089450000002,
          "velocity": 1
        },
        {
          "duration": 0.14851475000000391,
          "durationTicks": 24,
          "midi": 48,
          "name": "C3",
          "ticks": 22632,
          "time": 140.04940925000002,
          "velocity": 1
        },
        {
          "duration": 0.1485147499999755,
          "durationTicks": 24,
          "midi": 48,
          "name": "C3",
          "ticks": 22656,
          "time": 140.19792400000003,
          "velocity": 1
        },
        {
          "duration": 0.14851475000000391,
          "durationTicks": 24,
          "midi": 48,
          "name": "C3",
          "ticks": 22680,
          "time": 140.34643875,
          "velocity": 1
        },
        {
          "duration": 0.14851475000000391,
          "durationTicks": 24,
          "midi": 48,
          "name": "C3",
          "ticks": 22704,
          "time": 140.4949535,
          "velocity": 1
        },
        {
          "duration": 0.14851475000000391,
          "durationTicks": 24,
          "midi": 48,
          "name": "C3",
          "ticks": 22728,
          "time": 140.64346825,
          "velocity": 1
        },
        {
          "duration": 0.14851475000000391,
          "durationTicks": 24,
          "midi": 48,
          "name": "C3",
          "ticks": 22752,
          "time": 140.79198300000002,
          "velocity": 1
        },
        {
          "duration": 0.14851475000000391,
          "durationTicks": 24,
          "midi": 48,
          "name": "C3",
          "ticks": 22776,
          "time": 140.94049775000002,
          "velocity": 1
        },
        {
          "duration": 0.14851475000000391,
          "durationTicks": 24,
          "midi": 48,
          "name": "C3",
          "ticks": 22800,
          "time": 141.08901250000002,
          "velocity": 1
        },
        {
          "duration": 0.29702950000000783,
          "durationTicks": 48,
          "midi": 48,
          "name": "C3",
          "ticks": 22824,
          "time": 141.23752725000003,
          "velocity": 1
        },
        {
          "duration": 0.1485147499999755,
          "durationTicks": 24,
          "midi": 48,
          "name": "C3",
          "ticks": 22872,
          "time": 141.53455675000004,
          "velocity": 1
        },
        {
          "duration": 0.14851475000000391,
          "durationTicks": 24,
          "midi": 48,
          "name": "C3",
          "ticks": 22896,
          "time": 141.6830715,
          "velocity": 1
        },
        {
          "duration": 0.29702950000000783,
          "durationTicks": 48,
          "midi": 48,
          "name": "C3",
          "ticks": 22920,
          "time": 141.83158625000002,
          "velocity": 1
        },
        {
          "duration": 0.14851475000000391,
          "durationTicks": 24,
          "midi": 48,
          "name": "C3",
          "ticks": 22968,
          "time": 142.12861575000002,
          "velocity": 1
        },
        {
          "duration": 0.1485147499999755,
          "durationTicks": 24,
          "midi": 48,
          "name": "C3",
          "ticks": 22992,
          "time": 142.27713050000003,
          "velocity": 1
        },
        {
          "duration": 0.16707909375003283,
          "durationTicks": 27,
          "midi": 48,
          "name": "C3",
          "ticks": 23016,
          "time": 142.42564525,
          "velocity": 1
        },
        {
          "duration": 0.129950406249975,
          "durationTicks": 21,
          "midi": 48,
          "name": "C3",
          "ticks": 23043,
          "time": 142.59272434375004,
          "velocity": 1
        },
        {
          "duration": 0.14851475000000391,
          "durationTicks": 24,
          "midi": 48,
          "name": "C3",
          "ticks": 23064,
          "time": 142.72267475,
          "velocity": 1
        },
        {
          "duration": 0.14851475000000391,
          "durationTicks": 24,
          "midi": 48,
          "name": "C3",
          "ticks": 23088,
          "time": 142.8711895,
          "velocity": 1
        },
        {
          "duration": 0.14851475000000391,
          "durationTicks": 24,
          "midi": 48,
          "name": "C3",
          "ticks": 23112,
          "time": 143.01970425000002,
          "velocity": 1
        },
        {
          "duration": 0.14851475000000391,
          "durationTicks": 24,
          "midi": 48,
          "name": "C3",
          "ticks": 23136,
          "time": 143.16821900000002,
          "velocity": 1
        },
        {
          "duration": 0.14851475000000391,
          "durationTicks": 24,
          "midi": 48,
          "name": "C3",
          "ticks": 23160,
          "time": 143.31673375000003,
          "velocity": 1
        },
        {
          "duration": 0.2970294999999794,
          "durationTicks": 48,
          "midi": 48,
          "name": "C3",
          "ticks": 23184,
          "time": 143.46524850000003,
          "velocity": 1
        },
        {
          "duration": 0.14851475000000391,
          "durationTicks": 24,
          "midi": 48,
          "name": "C3",
          "ticks": 23232,
          "time": 143.762278,
          "velocity": 1
        },
        {
          "duration": 0.14851475000000391,
          "durationTicks": 24,
          "midi": 48,
          "name": "C3",
          "ticks": 23256,
          "time": 143.91079275,
          "velocity": 1
        },
        {
          "duration": 0.29702950000000783,
          "durationTicks": 48,
          "midi": 48,
          "name": "C3",
          "ticks": 23280,
          "time": 144.05930750000002,
          "velocity": 1
        },
        {
          "duration": 0.14851475000000391,
          "durationTicks": 24,
          "midi": 48,
          "name": "C3",
          "ticks": 23328,
          "time": 144.35633700000002,
          "velocity": 1
        },
        {
          "duration": 0.1485147499999755,
          "durationTicks": 24,
          "midi": 48,
          "name": "C3",
          "ticks": 23352,
          "time": 144.50485175000003,
          "velocity": 1
        },
        {
          "duration": 0.14851475000000391,
          "durationTicks": 24,
          "midi": 48,
          "name": "C3",
          "ticks": 23376,
          "time": 144.6533665,
          "velocity": 1
        },
        {
          "duration": 0.14851475000000391,
          "durationTicks": 24,
          "midi": 48,
          "name": "C3",
          "ticks": 23400,
          "time": 144.80188125,
          "velocity": 1
        },
        {
          "duration": 0.14851475000000391,
          "durationTicks": 24,
          "midi": 48,
          "name": "C3",
          "ticks": 23424,
          "time": 144.950396,
          "velocity": 1
        },
        {
          "duration": 0.14851475000000391,
          "durationTicks": 24,
          "midi": 48,
          "name": "C3",
          "ticks": 23448,
          "time": 145.09891075000002,
          "velocity": 1
        },
        {
          "duration": 0.14851475000000391,
          "durationTicks": 24,
          "midi": 48,
          "name": "C3",
          "ticks": 23472,
          "time": 145.24742550000002,
          "velocity": 1
        },
        {
          "duration": 0.14851475000000391,
          "durationTicks": 24,
          "midi": 48,
          "name": "C3",
          "ticks": 23496,
          "time": 145.39594025000002,
          "velocity": 1
        },
        {
          "duration": 0.14851475000000391,
          "durationTicks": 24,
          "midi": 48,
          "name": "C3",
          "ticks": 23520,
          "time": 145.54445500000003,
          "velocity": 1
        },
        {
          "duration": 0.2970294999999794,
          "durationTicks": 48,
          "midi": 48,
          "name": "C3",
          "ticks": 23544,
          "time": 145.69296975000003,
          "velocity": 1
        },
        {
          "duration": 0.14851475000000391,
          "durationTicks": 24,
          "midi": 48,
          "name": "C3",
          "ticks": 23592,
          "time": 145.98999925,
          "velocity": 1
        },
        {
          "duration": 0.14851475000000391,
          "durationTicks": 24,
          "midi": 48,
          "name": "C3",
          "ticks": 23616,
          "time": 146.13851400000001,
          "velocity": 1
        },
        {
          "duration": 0.29702950000000783,
          "durationTicks": 48,
          "midi": 48,
          "name": "C3",
          "ticks": 23640,
          "time": 146.28702875000002,
          "velocity": 1
        },
        {
          "duration": 0.1485147499999755,
          "durationTicks": 24,
          "midi": 48,
          "name": "C3",
          "ticks": 23688,
          "time": 146.58405825000003,
          "velocity": 1
        },
        {
          "duration": 0.14851475000000391,
          "durationTicks": 24,
          "midi": 48,
          "name": "C3",
          "ticks": 23712,
          "time": 146.732573,
          "velocity": 1
        },
        {
          "duration": 0.14851475000000391,
          "durationTicks": 24,
          "midi": 48,
          "name": "C3",
          "ticks": 23736,
          "time": 146.88108775,
          "velocity": 1
        },
        {
          "duration": 0.14851475000000391,
          "durationTicks": 24,
          "midi": 48,
          "name": "C3",
          "ticks": 23760,
          "time": 147.0296025,
          "velocity": 1
        },
        {
          "duration": 0.14851475000000391,
          "durationTicks": 24,
          "midi": 48,
          "name": "C3",
          "ticks": 23784,
          "time": 147.17811725,
          "velocity": 1
        },
        {
          "duration": 0.14851475000000391,
          "durationTicks": 24,
          "midi": 48,
          "name": "C3",
          "ticks": 23808,
          "time": 147.32663200000002,
          "velocity": 1
        },
        {
          "duration": 0.14851475000000391,
          "durationTicks": 24,
          "midi": 48,
          "name": "C3",
          "ticks": 23832,
          "time": 147.47514675000002,
          "velocity": 1
        },
        {
          "duration": 0.14851475000000391,
          "durationTicks": 24,
          "midi": 48,
          "name": "C3",
          "ticks": 23856,
          "time": 147.62366150000003,
          "velocity": 1
        },
        {
          "duration": 0.14851475000000391,
          "durationTicks": 24,
          "midi": 48,
          "name": "C3",
          "ticks": 23880,
          "time": 147.77217625000003,
          "velocity": 1
        },
        {
          "duration": 0.2970294999999794,
          "durationTicks": 48,
          "midi": 48,
          "name": "C3",
          "ticks": 23904,
          "time": 147.92069100000003,
          "velocity": 1
        },
        {
          "duration": 0.14851475000000391,
          "durationTicks": 24,
          "midi": 48,
          "name": "C3",
          "ticks": 23952,
          "time": 148.2177205,
          "velocity": 1
        },
        {
          "duration": 0.14851475000000391,
          "durationTicks": 24,
          "midi": 48,
          "name": "C3",
          "ticks": 23976,
          "time": 148.36623525000002,
          "velocity": 1
        },
        {
          "duration": 0.29702950000000783,
          "durationTicks": 48,
          "midi": 48,
          "name": "C3",
          "ticks": 24000,
          "time": 148.51475000000002,
          "velocity": 1
        },
        {
          "duration": 0.1485147499999755,
          "durationTicks": 24,
          "midi": 48,
          "name": "C3",
          "ticks": 24048,
          "time": 148.81177950000003,
          "velocity": 1
        },
        {
          "duration": 0.14851475000000391,
          "durationTicks": 24,
          "midi": 48,
          "name": "C3",
          "ticks": 24072,
          "time": 148.96029425,
          "velocity": 1
        },
        {
          "duration": 0.14851475000000391,
          "durationTicks": 24,
          "midi": 48,
          "name": "C3",
          "ticks": 24096,
          "time": 149.108809,
          "velocity": 1
        },
        {
          "duration": 0.14851475000000391,
          "durationTicks": 24,
          "midi": 48,
          "name": "C3",
          "ticks": 24120,
          "time": 149.25732375,
          "velocity": 1
        },
        {
          "duration": 0.14851475000000391,
          "durationTicks": 24,
          "midi": 48,
          "name": "C3",
          "ticks": 24144,
          "time": 149.40583850000002,
          "velocity": 1
        },
        {
          "duration": 0.14851475000000391,
          "durationTicks": 24,
          "midi": 48,
          "name": "C3",
          "ticks": 24168,
          "time": 149.55435325000002,
          "velocity": 1
        },
        {
          "duration": 0.14851475000000391,
          "durationTicks": 24,
          "midi": 48,
          "name": "C3",
          "ticks": 24192,
          "time": 149.70286800000002,
          "velocity": 1
        },
        {
          "duration": 0.14851475000000391,
          "durationTicks": 24,
          "midi": 48,
          "name": "C3",
          "ticks": 24216,
          "time": 149.85138275000003,
          "velocity": 1
        },
        {
          "duration": 0.14851475000000391,
          "durationTicks": 24,
          "midi": 48,
          "name": "C3",
          "ticks": 24240,
          "time": 149.99989750000003,
          "velocity": 1
        },
        {
          "duration": 0.2970294999999794,
          "durationTicks": 48,
          "midi": 48,
          "name": "C3",
          "ticks": 24264,
          "time": 150.14841225000004,
          "velocity": 1
        },
        {
          "duration": 0.14851475000000391,
          "durationTicks": 24,
          "midi": 48,
          "name": "C3",
          "ticks": 24312,
          "time": 150.44544175000001,
          "velocity": 1
        },
        {
          "duration": 0.14851475000000391,
          "durationTicks": 24,
          "midi": 48,
          "name": "C3",
          "ticks": 24336,
          "time": 150.59395650000002,
          "velocity": 1
        },
        {
          "duration": 0.4022274479166583,
          "durationTicks": 65,
          "midi": 48,
          "name": "C3",
          "ticks": 24360,
          "time": 150.74247125000002,
          "velocity": 1
        },
        {
          "duration": 0.043316802083325,
          "durationTicks": 7,
          "midi": 48,
          "name": "C3",
          "ticks": 24425,
          "time": 151.14469869791668,
          "velocity": 1
        },
        {
          "duration": 0.14851475000000391,
          "durationTicks": 24,
          "midi": 48,
          "name": "C3",
          "ticks": 24432,
          "time": 151.1880155,
          "velocity": 1
        },
        {
          "duration": 0.14851475000000391,
          "durationTicks": 24,
          "midi": 48,
          "name": "C3",
          "ticks": 24456,
          "time": 151.33653025,
          "velocity": 1
        },
        {
          "duration": 0.14851475000000391,
          "durationTicks": 24,
          "midi": 48,
          "name": "C3",
          "ticks": 24480,
          "time": 151.485045,
          "velocity": 1
        },
        {
          "duration": 0.14851475000000391,
          "durationTicks": 24,
          "midi": 48,
          "name": "C3",
          "ticks": 24504,
          "time": 151.63355975000002,
          "velocity": 1
        },
        {
          "duration": 0.14851475000000391,
          "durationTicks": 24,
          "midi": 48,
          "name": "C3",
          "ticks": 24528,
          "time": 151.78207450000002,
          "velocity": 1
        },
        {
          "duration": 0.14851475000000391,
          "durationTicks": 24,
          "midi": 48,
          "name": "C3",
          "ticks": 24552,
          "time": 151.93058925000003,
          "velocity": 1
        },
        {
          "duration": 0.14851475000000391,
          "durationTicks": 24,
          "midi": 48,
          "name": "C3",
          "ticks": 24576,
          "time": 152.07910400000003,
          "velocity": 1
        },
        {
          "duration": 0.1485147499999755,
          "durationTicks": 24,
          "midi": 48,
          "name": "C3",
          "ticks": 24600,
          "time": 152.22761875000003,
          "velocity": 1
        },
        {
          "duration": 0.29702950000000783,
          "durationTicks": 48,
          "midi": 48,
          "name": "C3",
          "ticks": 24624,
          "time": 152.3761335,
          "velocity": 1
        },
        {
          "duration": 0.14851475000000391,
          "durationTicks": 24,
          "midi": 48,
          "name": "C3",
          "ticks": 24672,
          "time": 152.67316300000002,
          "velocity": 1
        },
        {
          "duration": 0.14851475000000391,
          "durationTicks": 24,
          "midi": 48,
          "name": "C3",
          "ticks": 24696,
          "time": 152.82167775000002,
          "velocity": 1
        },
        {
          "duration": 0.2970294999999794,
          "durationTicks": 48,
          "midi": 48,
          "name": "C3",
          "ticks": 24720,
          "time": 152.97019250000002,
          "velocity": 1
        },
        {
          "duration": 0.14851475000000391,
          "durationTicks": 24,
          "midi": 48,
          "name": "C3",
          "ticks": 24768,
          "time": 153.267222,
          "velocity": 1
        },
        {
          "duration": 0.14851475000000391,
          "durationTicks": 24,
          "midi": 48,
          "name": "C3",
          "ticks": 24792,
          "time": 153.41573675,
          "velocity": 1
        },
        {
          "duration": 0.14851475000000391,
          "durationTicks": 24,
          "midi": 48,
          "name": "C3",
          "ticks": 24816,
          "time": 153.5642515,
          "velocity": 1
        },
        {
          "duration": 0.14851475000000391,
          "durationTicks": 24,
          "midi": 48,
          "name": "C3",
          "ticks": 24840,
          "time": 153.71276625000002,
          "velocity": 1
        },
        {
          "duration": 0.14851475000000391,
          "durationTicks": 24,
          "midi": 48,
          "name": "C3",
          "ticks": 24864,
          "time": 153.86128100000002,
          "velocity": 1
        },
        {
          "duration": 0.14851475000000391,
          "durationTicks": 24,
          "midi": 48,
          "name": "C3",
          "ticks": 24888,
          "time": 154.00979575000002,
          "velocity": 1
        },
        {
          "duration": 0.14851475000000391,
          "durationTicks": 24,
          "midi": 48,
          "name": "C3",
          "ticks": 24912,
          "time": 154.15831050000003,
          "velocity": 1
        },
        {
          "duration": 0.14851475000000391,
          "durationTicks": 24,
          "midi": 48,
          "name": "C3",
          "ticks": 24936,
          "time": 154.30682525000003,
          "velocity": 1
        },
        {
          "duration": 0.14851475000000391,
          "durationTicks": 24,
          "midi": 48,
          "name": "C3",
          "ticks": 24960,
          "time": 154.45534000000004,
          "velocity": 1
        },
        {
          "duration": 0.2970294999999794,
          "durationTicks": 48,
          "midi": 48,
          "name": "C3",
          "ticks": 24984,
          "time": 154.60385475000004,
          "velocity": 1
        },
        {
          "duration": 0.14851475000000391,
          "durationTicks": 24,
          "midi": 48,
          "name": "C3",
          "ticks": 25032,
          "time": 154.90088425000002,
          "velocity": 1
        },
        {
          "duration": 0.1485147499999755,
          "durationTicks": 24,
          "midi": 48,
          "name": "C3",
          "ticks": 25056,
          "time": 155.04939900000002,
          "velocity": 1
        },
        {
          "duration": 0.29702950000000783,
          "durationTicks": 48,
          "midi": 48,
          "name": "C3",
          "ticks": 25080,
          "time": 155.19791375,
          "velocity": 1
        },
        {
          "duration": 0.14851475000000391,
          "durationTicks": 24,
          "midi": 48,
          "name": "C3",
          "ticks": 25128,
          "time": 155.49494325,
          "velocity": 1
        },
        {
          "duration": 0.14851475000000391,
          "durationTicks": 24,
          "midi": 48,
          "name": "C3",
          "ticks": 25152,
          "time": 155.643458,
          "velocity": 1
        },
        {
          "duration": 0.14851475000000391,
          "durationTicks": 24,
          "midi": 48,
          "name": "C3",
          "ticks": 25176,
          "time": 155.79197275,
          "velocity": 1
        },
        {
          "duration": 0.14851475000000391,
          "durationTicks": 24,
          "midi": 48,
          "name": "C3",
          "ticks": 25200,
          "time": 155.94048750000002,
          "velocity": 1
        },
        {
          "duration": 0.14851475000000391,
          "durationTicks": 24,
          "midi": 48,
          "name": "C3",
          "ticks": 25224,
          "time": 156.08900225000002,
          "velocity": 1
        },
        {
          "duration": 0.14851475000000391,
          "durationTicks": 24,
          "midi": 48,
          "name": "C3",
          "ticks": 25248,
          "time": 156.23751700000003,
          "velocity": 1
        },
        {
          "duration": 0.14851475000000391,
          "durationTicks": 24,
          "midi": 48,
          "name": "C3",
          "ticks": 25272,
          "time": 156.38603175000003,
          "velocity": 1
        },
        {
          "duration": 0.14851475000000391,
          "durationTicks": 24,
          "midi": 48,
          "name": "C3",
          "ticks": 25296,
          "time": 156.53454650000003,
          "velocity": 1
        },
        {
          "duration": 0.1485147499999755,
          "durationTicks": 24,
          "midi": 48,
          "name": "C3",
          "ticks": 25320,
          "time": 156.68306125000004,
          "velocity": 1
        },
        {
          "duration": 0.29702950000000783,
          "durationTicks": 48,
          "midi": 48,
          "name": "C3",
          "ticks": 25344,
          "time": 156.831576,
          "velocity": 1
        },
        {
          "duration": 0.14851475000000391,
          "durationTicks": 24,
          "midi": 48,
          "name": "C3",
          "ticks": 25392,
          "time": 157.12860550000002,
          "velocity": 1
        },
        {
          "duration": 0.1485147499999755,
          "durationTicks": 24,
          "midi": 48,
          "name": "C3",
          "ticks": 25416,
          "time": 157.27712025000002,
          "velocity": 1
        },
        {
          "duration": 0.29702950000000783,
          "durationTicks": 48,
          "midi": 48,
          "name": "C3",
          "ticks": 25440,
          "time": 157.425635,
          "velocity": 1
        },
        {
          "duration": 0.14851475000000391,
          "durationTicks": 24,
          "midi": 48,
          "name": "C3",
          "ticks": 25488,
          "time": 157.7226645,
          "velocity": 1
        },
        {
          "duration": 0.14851475000000391,
          "durationTicks": 24,
          "midi": 48,
          "name": "C3",
          "ticks": 25512,
          "time": 157.87117925,
          "velocity": 1
        },
        {
          "duration": 0.14851475000000391,
          "durationTicks": 24,
          "midi": 48,
          "name": "C3",
          "ticks": 25536,
          "time": 158.01969400000002,
          "velocity": 1
        },
        {
          "duration": 0.14851475000000391,
          "durationTicks": 24,
          "midi": 48,
          "name": "C3",
          "ticks": 25560,
          "time": 158.16820875000002,
          "velocity": 1
        },
        {
          "duration": 0.14851475000000391,
          "durationTicks": 24,
          "midi": 48,
          "name": "C3",
          "ticks": 25584,
          "time": 158.31672350000002,
          "velocity": 1
        },
        {
          "duration": 0.14851475000000391,
          "durationTicks": 24,
          "midi": 48,
          "name": "C3",
          "ticks": 25608,
          "time": 158.46523825000003,
          "velocity": 1
        },
        {
          "duration": 0.14851475000000391,
          "durationTicks": 24,
          "midi": 48,
          "name": "C3",
          "ticks": 25632,
          "time": 158.61375300000003,
          "velocity": 1
        },
        {
          "duration": 0.14851475000000391,
          "durationTicks": 24,
          "midi": 48,
          "name": "C3",
          "ticks": 25656,
          "time": 158.76226775000003,
          "velocity": 1
        },
        {
          "duration": 0.1485147499999755,
          "durationTicks": 24,
          "midi": 48,
          "name": "C3",
          "ticks": 25680,
          "time": 158.91078250000004,
          "velocity": 1
        },
        {
          "duration": 0.29702950000000783,
          "durationTicks": 48,
          "midi": 48,
          "name": "C3",
          "ticks": 25704,
          "time": 159.05929725000001,
          "velocity": 1
        },
        {
          "duration": 0.1485147499999755,
          "durationTicks": 24,
          "midi": 48,
          "name": "C3",
          "ticks": 25752,
          "time": 159.35632675000002,
          "velocity": 1
        },
        {
          "duration": 0.14851475000000391,
          "durationTicks": 24,
          "midi": 48,
          "name": "C3",
          "ticks": 25776,
          "time": 159.5048415,
          "velocity": 1
        },
        {
          "duration": 0.29702950000000783,
          "durationTicks": 48,
          "midi": 48,
          "name": "C3",
          "ticks": 25800,
          "time": 159.65335625,
          "velocity": 1
        },
        {
          "duration": 0.14851475000000391,
          "durationTicks": 24,
          "midi": 48,
          "name": "C3",
          "ticks": 25848,
          "time": 159.95038575,
          "velocity": 1
        },
        {
          "duration": 0.14851475000000391,
          "durationTicks": 24,
          "midi": 48,
          "name": "C3",
          "ticks": 25872,
          "time": 160.0989005,
          "velocity": 1
        },
        {
          "duration": 0.14851475000000391,
          "durationTicks": 24,
          "midi": 48,
          "name": "C3",
          "ticks": 25896,
          "time": 160.24741525000002,
          "velocity": 1
        },
        {
          "duration": 0.14851475000000391,
          "durationTicks": 24,
          "midi": 48,
          "name": "C3",
          "ticks": 25920,
          "time": 160.39593000000002,
          "velocity": 1
        },
        {
          "duration": 0.14851475000000391,
          "durationTicks": 24,
          "midi": 48,
          "name": "C3",
          "ticks": 25944,
          "time": 160.54444475000003,
          "velocity": 1
        },
        {
          "duration": 0.14851475000000391,
          "durationTicks": 24,
          "midi": 48,
          "name": "C3",
          "ticks": 25968,
          "time": 160.69295950000003,
          "velocity": 1
        },
        {
          "duration": 0.14851475000000391,
          "durationTicks": 24,
          "midi": 48,
          "name": "C3",
          "ticks": 25992,
          "time": 160.84147425000003,
          "velocity": 1
        },
        {
          "duration": 0.1485147499999755,
          "durationTicks": 24,
          "midi": 48,
          "name": "C3",
          "ticks": 26016,
          "time": 160.98998900000004,
          "velocity": 1
        },
        {
          "duration": 0.14851475000000391,
          "durationTicks": 24,
          "midi": 48,
          "name": "C3",
          "ticks": 26040,
          "time": 161.13850375,
          "velocity": 1
        },
        {
          "duration": 0.29702950000000783,
          "durationTicks": 48,
          "midi": 48,
          "name": "C3",
          "ticks": 26064,
          "time": 161.28701850000002,
          "velocity": 1
        },
        {
          "duration": 0.1485147499999755,
          "durationTicks": 24,
          "midi": 48,
          "name": "C3",
          "ticks": 26112,
          "time": 161.58404800000002,
          "velocity": 1
        },
        {
          "duration": 0.14851475000000391,
          "durationTicks": 24,
          "midi": 48,
          "name": "C3",
          "ticks": 26136,
          "time": 161.73256275,
          "velocity": 1
        },
        {
          "duration": 0.29702950000000783,
          "durationTicks": 48,
          "midi": 48,
          "name": "C3",
          "ticks": 26160,
          "time": 161.8810775,
          "velocity": 1
        },
        {
          "duration": 0.14851475000000391,
          "durationTicks": 24,
          "midi": 48,
          "name": "C3",
          "ticks": 26208,
          "time": 162.178107,
          "velocity": 1
        },
        {
          "duration": 0.14851475000000391,
          "durationTicks": 24,
          "midi": 48,
          "name": "C3",
          "ticks": 26232,
          "time": 162.32662175000002,
          "velocity": 1
        },
        {
          "duration": 0.14851475000000391,
          "durationTicks": 24,
          "midi": 48,
          "name": "C3",
          "ticks": 26256,
          "time": 162.47513650000002,
          "velocity": 1
        },
        {
          "duration": 0.14851475000000391,
          "durationTicks": 24,
          "midi": 48,
          "name": "C3",
          "ticks": 26280,
          "time": 162.62365125000002,
          "velocity": 1
        },
        {
          "duration": 0.14851475000000391,
          "durationTicks": 24,
          "midi": 48,
          "name": "C3",
          "ticks": 26304,
          "time": 162.77216600000003,
          "velocity": 1
        },
        {
          "duration": 0.14851475000000391,
          "durationTicks": 24,
          "midi": 48,
          "name": "C3",
          "ticks": 26328,
          "time": 162.92068075000003,
          "velocity": 1
        },
        {
          "duration": 0.14851475000000391,
          "durationTicks": 24,
          "midi": 48,
          "name": "C3",
          "ticks": 26352,
          "time": 163.06919550000003,
          "velocity": 1
        },
        {
          "duration": 0.1485147499999755,
          "durationTicks": 24,
          "midi": 48,
          "name": "C3",
          "ticks": 26376,
          "time": 163.21771025000004,
          "velocity": 1
        },
        {
          "duration": 0.14851475000000391,
          "durationTicks": 24,
          "midi": 48,
          "name": "C3",
          "ticks": 26400,
          "time": 163.36622500000001,
          "velocity": 1
        },
        {
          "duration": 0.2970294999999794,
          "durationTicks": 48,
          "midi": 48,
          "name": "C3",
          "ticks": 26424,
          "time": 163.51473975000002,
          "velocity": 1
        },
        {
          "duration": 0.14851475000000391,
          "durationTicks": 24,
          "midi": 48,
          "name": "C3",
          "ticks": 26472,
          "time": 163.81176925,
          "velocity": 1
        },
        {
          "duration": 0.14851475000000391,
          "durationTicks": 24,
          "midi": 48,
          "name": "C3",
          "ticks": 26496,
          "time": 163.960284,
          "velocity": 1
        },
        {
          "duration": 0.29702950000000783,
          "durationTicks": 48,
          "midi": 48,
          "name": "C3",
          "ticks": 26520,
          "time": 164.10879875,
          "velocity": 1
        },
        {
          "duration": 0.14851475000000391,
          "durationTicks": 24,
          "midi": 48,
          "name": "C3",
          "ticks": 26568,
          "time": 164.40582825,
          "velocity": 1
        },
        {
          "duration": 0.14851475000000391,
          "durationTicks": 24,
          "midi": 48,
          "name": "C3",
          "ticks": 26592,
          "time": 164.55434300000002,
          "velocity": 1
        },
        {
          "duration": 0.14851475000000391,
          "durationTicks": 24,
          "midi": 48,
          "name": "C3",
          "ticks": 26616,
          "time": 164.70285775000002,
          "velocity": 1
        },
        {
          "duration": 0.14851475000000391,
          "durationTicks": 24,
          "midi": 48,
          "name": "C3",
          "ticks": 26640,
          "time": 164.85137250000002,
          "velocity": 1
        },
        {
          "duration": 0.14851475000000391,
          "durationTicks": 24,
          "midi": 48,
          "name": "C3",
          "ticks": 26664,
          "time": 164.99988725000003,
          "velocity": 1
        },
        {
          "duration": 0.14851475000000391,
          "durationTicks": 24,
          "midi": 48,
          "name": "C3",
          "ticks": 26688,
          "time": 165.14840200000003,
          "velocity": 1
        },
        {
          "duration": 0.1485147499999755,
          "durationTicks": 24,
          "midi": 48,
          "name": "C3",
          "ticks": 26712,
          "time": 165.29691675000004,
          "velocity": 1
        },
        {
          "duration": 0.14851475000000391,
          "durationTicks": 24,
          "midi": 48,
          "name": "C3",
          "ticks": 26736,
          "time": 165.4454315,
          "velocity": 1
        },
        {
          "duration": 0.14851475000000391,
          "durationTicks": 24,
          "midi": 48,
          "name": "C3",
          "ticks": 26760,
          "time": 165.59394625000002,
          "velocity": 1
        },
        {
          "duration": 0.2970294999999794,
          "durationTicks": 48,
          "midi": 48,
          "name": "C3",
          "ticks": 26784,
          "time": 165.74246100000002,
          "velocity": 1
        },
        {
          "duration": 0.14851475000000391,
          "durationTicks": 24,
          "midi": 48,
          "name": "C3",
          "ticks": 26832,
          "time": 166.0394905,
          "velocity": 1
        },
        {
          "duration": 0.14851475000000391,
          "durationTicks": 24,
          "midi": 48,
          "name": "C3",
          "ticks": 26856,
          "time": 166.18800525,
          "velocity": 1
        },
        {
          "duration": 0.29702950000000783,
          "durationTicks": 48,
          "midi": 48,
          "name": "C3",
          "ticks": 26880,
          "time": 166.33652,
          "velocity": 1
        },
        {
          "duration": 0.14851475000000391,
          "durationTicks": 24,
          "midi": 48,
          "name": "C3",
          "ticks": 26928,
          "time": 166.63354950000002,
          "velocity": 1
        },
        {
          "duration": 0.14851475000000391,
          "durationTicks": 24,
          "midi": 48,
          "name": "C3",
          "ticks": 26952,
          "time": 166.78206425000002,
          "velocity": 1
        },
        {
          "duration": 0.14851475000000391,
          "durationTicks": 24,
          "midi": 48,
          "name": "C3",
          "ticks": 26976,
          "time": 166.93057900000002,
          "velocity": 1
        },
        {
          "duration": 0.14851475000000391,
          "durationTicks": 24,
          "midi": 48,
          "name": "C3",
          "ticks": 27000,
          "time": 167.07909375000003,
          "velocity": 1
        },
        {
          "duration": 0.14851475000000391,
          "durationTicks": 24,
          "midi": 48,
          "name": "C3",
          "ticks": 27024,
          "time": 167.22760850000003,
          "velocity": 1
        },
        {
          "duration": 0.14851475000000391,
          "durationTicks": 24,
          "midi": 48,
          "name": "C3",
          "ticks": 27048,
          "time": 167.37612325000003,
          "velocity": 1
        },
        {
          "duration": 0.1485147499999755,
          "durationTicks": 24,
          "midi": 48,
          "name": "C3",
          "ticks": 27072,
          "time": 167.52463800000004,
          "velocity": 1
        },
        {
          "duration": 0.14851475000000391,
          "durationTicks": 24,
          "midi": 48,
          "name": "C3",
          "ticks": 27096,
          "time": 167.67315275,
          "velocity": 1
        },
        {
          "duration": 0.14851475000000391,
          "durationTicks": 24,
          "midi": 48,
          "name": "C3",
          "ticks": 27120,
          "time": 167.82166750000002,
          "velocity": 1
        },
        {
          "duration": 0.2970294999999794,
          "durationTicks": 48,
          "midi": 48,
          "name": "C3",
          "ticks": 27144,
          "time": 167.97018225000002,
          "velocity": 1
        },
        {
          "duration": 0.14851475000000391,
          "durationTicks": 24,
          "midi": 48,
          "name": "C3",
          "ticks": 27192,
          "time": 168.26721175,
          "velocity": 1
        },
        {
          "duration": 0.14851475000000391,
          "durationTicks": 24,
          "midi": 48,
          "name": "C3",
          "ticks": 27216,
          "time": 168.4157265,
          "velocity": 1
        },
        {
          "duration": 0.29702950000000783,
          "durationTicks": 48,
          "midi": 48,
          "name": "C3",
          "ticks": 27240,
          "time": 168.56424125,
          "velocity": 1
        },
        {
          "duration": 0.14851475000000391,
          "durationTicks": 24,
          "midi": 48,
          "name": "C3",
          "ticks": 27288,
          "time": 168.86127075000002,
          "velocity": 1
        },
        {
          "duration": 0.14851475000000391,
          "durationTicks": 24,
          "midi": 48,
          "name": "C3",
          "ticks": 27312,
          "time": 169.00978550000002,
          "velocity": 1
        },
        {
          "duration": 0.14851475000000391,
          "durationTicks": 24,
          "midi": 48,
          "name": "C3",
          "ticks": 27336,
          "time": 169.15830025000002,
          "velocity": 1
        },
        {
          "duration": 0.14851475000000391,
          "durationTicks": 24,
          "midi": 48,
          "name": "C3",
          "ticks": 27360,
          "time": 169.30681500000003,
          "velocity": 1
        },
        {
          "duration": 0.14851475000000391,
          "durationTicks": 24,
          "midi": 48,
          "name": "C3",
          "ticks": 27384,
          "time": 169.45532975000003,
          "velocity": 1
        },
        {
          "duration": 0.1485147499999755,
          "durationTicks": 24,
          "midi": 48,
          "name": "C3",
          "ticks": 27408,
          "time": 169.60384450000004,
          "velocity": 1
        },
        {
          "duration": 0.14851475000000391,
          "durationTicks": 24,
          "midi": 48,
          "name": "C3",
          "ticks": 27432,
          "time": 169.75235925,
          "velocity": 1
        },
        {
          "duration": 0.14851475000000391,
          "durationTicks": 24,
          "midi": 48,
          "name": "C3",
          "ticks": 27456,
          "time": 169.90087400000002,
          "velocity": 1
        },
        {
          "duration": 0.14851475000000391,
          "durationTicks": 24,
          "midi": 48,
          "name": "C3",
          "ticks": 27480,
          "time": 170.04938875000002,
          "velocity": 1
        },
        {
          "duration": 0.2970294999999794,
          "durationTicks": 48,
          "midi": 48,
          "name": "C3",
          "ticks": 27504,
          "time": 170.19790350000002,
          "velocity": 1
        },
        {
          "duration": 0.14851475000000391,
          "durationTicks": 24,
          "midi": 48,
          "name": "C3",
          "ticks": 27552,
          "time": 170.494933,
          "velocity": 1
        },
        {
          "duration": 0.14851475000000391,
          "durationTicks": 24,
          "midi": 48,
          "name": "C3",
          "ticks": 27576,
          "time": 170.64344775,
          "velocity": 1
        },
        {
          "duration": 0.29702950000000783,
          "durationTicks": 48,
          "midi": 48,
          "name": "C3",
          "ticks": 27600,
          "time": 170.7919625,
          "velocity": 1
        },
        {
          "duration": 0.14851475000000391,
          "durationTicks": 24,
          "midi": 48,
          "name": "C3",
          "ticks": 27648,
          "time": 171.08899200000002,
          "velocity": 1
        },
        {
          "duration": 0.14851475000000391,
          "durationTicks": 24,
          "midi": 48,
          "name": "C3",
          "ticks": 27672,
          "time": 171.23750675000002,
          "velocity": 1
        },
        {
          "duration": 0.14851475000000391,
          "durationTicks": 24,
          "midi": 48,
          "name": "C3",
          "ticks": 27696,
          "time": 171.38602150000003,
          "velocity": 1
        },
        {
          "duration": 0.14851475000000391,
          "durationTicks": 24,
          "midi": 48,
          "name": "C3",
          "ticks": 27720,
          "time": 171.53453625000003,
          "velocity": 1
        },
        {
          "duration": 0.14851475000000391,
          "durationTicks": 24,
          "midi": 48,
          "name": "C3",
          "ticks": 27744,
          "time": 171.68305100000003,
          "velocity": 1
        },
        {
          "duration": 0.1485147499999755,
          "durationTicks": 24,
          "midi": 48,
          "name": "C3",
          "ticks": 27768,
          "time": 171.83156575000004,
          "velocity": 1
        },
        {
          "duration": 0.14851475000000391,
          "durationTicks": 24,
          "midi": 48,
          "name": "C3",
          "ticks": 27792,
          "time": 171.9800805,
          "velocity": 1
        },
        {
          "duration": 0.14851475000000391,
          "durationTicks": 24,
          "midi": 48,
          "name": "C3",
          "ticks": 27816,
          "time": 172.12859525000002,
          "velocity": 1
        },
        {
          "duration": 0.14851475000000391,
          "durationTicks": 24,
          "midi": 48,
          "name": "C3",
          "ticks": 27840,
          "time": 172.27711000000002,
          "velocity": 1
        },
        {
          "duration": 0.2970294999999794,
          "durationTicks": 48,
          "midi": 48,
          "name": "C3",
          "ticks": 27864,
          "time": 172.42562475000003,
          "velocity": 1
        },
        {
          "duration": 0.14851475000000391,
          "durationTicks": 24,
          "midi": 48,
          "name": "C3",
          "ticks": 27912,
          "time": 172.72265425,
          "velocity": 1
        },
        {
          "duration": 0.14851475000000391,
          "durationTicks": 24,
          "midi": 48,
          "name": "C3",
          "ticks": 27936,
          "time": 172.871169,
          "velocity": 1
        },
        {
          "duration": 0.29702950000000783,
          "durationTicks": 48,
          "midi": 48,
          "name": "C3",
          "ticks": 27960,
          "time": 173.01968375,
          "velocity": 1
        },
        {
          "duration": 0.14851475000000391,
          "durationTicks": 24,
          "midi": 48,
          "name": "C3",
          "ticks": 28008,
          "time": 173.31671325000002,
          "velocity": 1
        },
        {
          "duration": 0.14851475000000391,
          "durationTicks": 24,
          "midi": 48,
          "name": "C3",
          "ticks": 28032,
          "time": 173.46522800000002,
          "velocity": 1
        },
        {
          "duration": 0.14851475000000391,
          "durationTicks": 24,
          "midi": 48,
          "name": "C3",
          "ticks": 28056,
          "time": 173.61374275000003,
          "velocity": 1
        },
        {
          "duration": 0.14851475000000391,
          "durationTicks": 24,
          "midi": 48,
          "name": "C3",
          "ticks": 28080,
          "time": 173.76225750000003,
          "velocity": 1
        },
        {
          "duration": 0.1485147499999755,
          "durationTicks": 24,
          "midi": 48,
          "name": "C3",
          "ticks": 28104,
          "time": 173.91077225000004,
          "velocity": 1
        },
        {
          "duration": 0.14851475000000391,
          "durationTicks": 24,
          "midi": 48,
          "name": "C3",
          "ticks": 28128,
          "time": 174.059287,
          "velocity": 1
        },
        {
          "duration": 0.14851475000000391,
          "durationTicks": 24,
          "midi": 48,
          "name": "C3",
          "ticks": 28152,
          "time": 174.20780175000002,
          "velocity": 1
        },
        {
          "duration": 0.14851475000000391,
          "durationTicks": 24,
          "midi": 48,
          "name": "C3",
          "ticks": 28176,
          "time": 174.35631650000002,
          "velocity": 1
        },
        {
          "duration": 0.1485147499999755,
          "durationTicks": 24,
          "midi": 48,
          "name": "C3",
          "ticks": 28200,
          "time": 174.50483125000002,
          "velocity": 1
        },
        {
          "duration": 0.29702950000000783,
          "durationTicks": 48,
          "midi": 48,
          "name": "C3",
          "ticks": 28224,
          "time": 174.653346,
          "velocity": 1
        },
        {
          "duration": 0.14851475000000391,
          "durationTicks": 24,
          "midi": 48,
          "name": "C3",
          "ticks": 28272,
          "time": 174.9503755,
          "velocity": 1
        },
        {
          "duration": 0.14851475000000391,
          "durationTicks": 24,
          "midi": 48,
          "name": "C3",
          "ticks": 28296,
          "time": 175.09889025,
          "velocity": 1
        },
        {
          "duration": 0.29702950000000783,
          "durationTicks": 48,
          "midi": 48,
          "name": "C3",
          "ticks": 28320,
          "time": 175.24740500000001,
          "velocity": 1
        },
        {
          "duration": 0.14851475000000391,
          "durationTicks": 24,
          "midi": 48,
          "name": "C3",
          "ticks": 28368,
          "time": 175.54443450000002,
          "velocity": 1
        },
        {
          "duration": 0.14851475000000391,
          "durationTicks": 24,
          "midi": 48,
          "name": "C3",
          "ticks": 28392,
          "time": 175.69294925000003,
          "velocity": 1
        },
        {
          "duration": 0.14851475000000391,
          "durationTicks": 24,
          "midi": 48,
          "name": "C3",
          "ticks": 28416,
          "time": 175.84146400000003,
          "velocity": 1
        },
        {
          "duration": 0.14851475000000391,
          "durationTicks": 24,
          "midi": 48,
          "name": "C3",
          "ticks": 28440,
          "time": 175.98997875000003,
          "velocity": 1
        },
        {
          "duration": 0.1485147499999755,
          "durationTicks": 24,
          "midi": 48,
          "name": "C3",
          "ticks": 28464,
          "time": 176.13849350000004,
          "velocity": 1
        },
        {
          "duration": 0.14851475000000391,
          "durationTicks": 24,
          "midi": 48,
          "name": "C3",
          "ticks": 28488,
          "time": 176.28700825,
          "velocity": 1
        },
        {
          "duration": 0.14851475000000391,
          "durationTicks": 24,
          "midi": 48,
          "name": "C3",
          "ticks": 28512,
          "time": 176.43552300000002,
          "velocity": 1
        },
        {
          "duration": 0.14851475000000391,
          "durationTicks": 24,
          "midi": 48,
          "name": "C3",
          "ticks": 28536,
          "time": 176.58403775000002,
          "velocity": 1
        },
        {
          "duration": 0.1485147499999755,
          "durationTicks": 24,
          "midi": 48,
          "name": "C3",
          "ticks": 28560,
          "time": 176.73255250000003,
          "velocity": 1
        },
        {
          "duration": 0.29702950000000783,
          "durationTicks": 48,
          "midi": 48,
          "name": "C3",
          "ticks": 28584,
          "time": 176.88106725,
          "velocity": 1
        },
        {
          "duration": 0.14851475000000391,
          "durationTicks": 24,
          "midi": 48,
          "name": "C3",
          "ticks": 28632,
          "time": 177.17809675,
          "velocity": 1
        },
        {
          "duration": 0.14851475000000391,
          "durationTicks": 24,
          "midi": 48,
          "name": "C3",
          "ticks": 28656,
          "time": 177.3266115,
          "velocity": 1
        },
        {
          "duration": 0.29702950000000783,
          "durationTicks": 48,
          "midi": 48,
          "name": "C3",
          "ticks": 28680,
          "time": 177.47512625000002,
          "velocity": 1
        },
        {
          "duration": 0.14851475000000391,
          "durationTicks": 24,
          "midi": 48,
          "name": "C3",
          "ticks": 28728,
          "time": 177.77215575000002,
          "velocity": 1
        },
        {
          "duration": 0.14851475000000391,
          "durationTicks": 24,
          "midi": 48,
          "name": "C3",
          "ticks": 28752,
          "time": 177.92067050000003,
          "velocity": 1
        },
        {
          "duration": 0.14851475000000391,
          "durationTicks": 24,
          "midi": 48,
          "name": "C3",
          "ticks": 28776,
          "time": 178.06918525000003,
          "velocity": 1
        },
        {
          "duration": 0.1485147499999755,
          "durationTicks": 24,
          "midi": 48,
          "name": "C3",
          "ticks": 28800,
          "time": 178.21770000000004,
          "velocity": 1
        },
        {
          "duration": 0.14851475000000391,
          "durationTicks": 24,
          "midi": 48,
          "name": "C3",
          "ticks": 28824,
          "time": 178.36621475,
          "velocity": 1
        },
        {
          "duration": 0.14851475000000391,
          "durationTicks": 24,
          "midi": 48,
          "name": "C3",
          "ticks": 28848,
          "time": 178.51472950000002,
          "velocity": 1
        },
        {
          "duration": 0.14851475000000391,
          "durationTicks": 24,
          "midi": 48,
          "name": "C3",
          "ticks": 28872,
          "time": 178.66324425000002,
          "velocity": 1
        },
        {
          "duration": 0.1485147499999755,
          "durationTicks": 24,
          "midi": 48,
          "name": "C3",
          "ticks": 28896,
          "time": 178.81175900000002,
          "velocity": 1
        },
        {
          "duration": 0.14851475000000391,
          "durationTicks": 24,
          "midi": 48,
          "name": "C3",
          "ticks": 28920,
          "time": 178.96027375,
          "velocity": 1
        },
        {
          "duration": 0.29702950000000783,
          "durationTicks": 48,
          "midi": 48,
          "name": "C3",
          "ticks": 28944,
          "time": 179.1087885,
          "velocity": 1
        },
        {
          "duration": 0.14851475000000391,
          "durationTicks": 24,
          "midi": 48,
          "name": "C3",
          "ticks": 28992,
          "time": 179.405818,
          "velocity": 1
        },
        {
          "duration": 0.14851475000000391,
          "durationTicks": 24,
          "midi": 48,
          "name": "C3",
          "ticks": 29016,
          "time": 179.55433275000001,
          "velocity": 1
        },
        {
          "duration": 0.29702950000000783,
          "durationTicks": 48,
          "midi": 48,
          "name": "C3",
          "ticks": 29040,
          "time": 179.70284750000002,
          "velocity": 1
        },
        {
          "duration": 0.14851475000000391,
          "durationTicks": 24,
          "midi": 48,
          "name": "C3",
          "ticks": 29088,
          "time": 179.99987700000003,
          "velocity": 1
        },
        {
          "duration": 0.14851475000000391,
          "durationTicks": 24,
          "midi": 48,
          "name": "C3",
          "ticks": 29112,
          "time": 180.14839175000003,
          "velocity": 1
        },
        {
          "duration": 0.14851475000000391,
          "durationTicks": 24,
          "midi": 48,
          "name": "C3",
          "ticks": 29136,
          "time": 180.29690650000003,
          "velocity": 1
        },
        {
          "duration": 0.1485147499999755,
          "durationTicks": 24,
          "midi": 48,
          "name": "C3",
          "ticks": 29160,
          "time": 180.44542125000004,
          "velocity": 1
        },
        {
          "duration": 0.14851475000000391,
          "durationTicks": 24,
          "midi": 48,
          "name": "C3",
          "ticks": 29184,
          "time": 180.593936,
          "velocity": 1
        },
        {
          "duration": 0.14851475000000391,
          "durationTicks": 24,
          "midi": 48,
          "name": "C3",
          "ticks": 29208,
          "time": 180.74245075000002,
          "velocity": 1
        },
        {
          "duration": 0.14851475000000391,
          "durationTicks": 24,
          "midi": 48,
          "name": "C3",
          "ticks": 29232,
          "time": 180.89096550000002,
          "velocity": 1
        },
        {
          "duration": 0.1485147499999755,
          "durationTicks": 24,
          "midi": 48,
          "name": "C3",
          "ticks": 29256,
          "time": 181.03948025000003,
          "velocity": 1
        },
        {
          "duration": 0.14851475000000391,
          "durationTicks": 24,
          "midi": 48,
          "name": "C3",
          "ticks": 29280,
          "time": 181.187995,
          "velocity": 1
        },
        {
          "duration": 0.29702950000000783,
          "durationTicks": 48,
          "midi": 48,
          "name": "C3",
          "ticks": 29304,
          "time": 181.33650975,
          "velocity": 1
        },
        {
          "duration": 0.14851475000000391,
          "durationTicks": 24,
          "midi": 48,
          "name": "C3",
          "ticks": 29352,
          "time": 181.63353925,
          "velocity": 1
        },
        {
          "duration": 0.14851475000000391,
          "durationTicks": 24,
          "midi": 48,
          "name": "C3",
          "ticks": 29376,
          "time": 181.78205400000002,
          "velocity": 1
        },
        {
          "duration": 0.29702950000000783,
          "durationTicks": 48,
          "midi": 48,
          "name": "C3",
          "ticks": 29400,
          "time": 181.93056875000002,
          "velocity": 1
        },
        {
          "duration": 0.14851475000000391,
          "durationTicks": 24,
          "midi": 48,
          "name": "C3",
          "ticks": 29448,
          "time": 182.22759825000003,
          "velocity": 1
        },
        {
          "duration": 0.14851475000000391,
          "durationTicks": 24,
          "midi": 48,
          "name": "C3",
          "ticks": 29472,
          "time": 182.37611300000003,
          "velocity": 1
        },
        {
          "duration": 0.14851475000000391,
          "durationTicks": 24,
          "midi": 48,
          "name": "C3",
          "ticks": 29496,
          "time": 182.52462775000004,
          "velocity": 1
        },
        {
          "duration": 0.1485147499999755,
          "durationTicks": 24,
          "midi": 48,
          "name": "C3",
          "ticks": 29520,
          "time": 182.67314250000004,
          "velocity": 1
        },
        {
          "duration": 0.14851475000000391,
          "durationTicks": 24,
          "midi": 48,
          "name": "C3",
          "ticks": 29544,
          "time": 182.82165725000002,
          "velocity": 1
        },
        {
          "duration": 0.14851475000000391,
          "durationTicks": 24,
          "midi": 48,
          "name": "C3",
          "ticks": 29568,
          "time": 182.97017200000002,
          "velocity": 1
        },
        {
          "duration": 0.1485147499999755,
          "durationTicks": 24,
          "midi": 48,
          "name": "C3",
          "ticks": 29592,
          "time": 183.11868675000002,
          "velocity": 1
        },
        {
          "duration": 0.14851475000000391,
          "durationTicks": 24,
          "midi": 48,
          "name": "C3",
          "ticks": 29616,
          "time": 183.2672015,
          "velocity": 1
        },
        {
          "duration": 0.14851475000000391,
          "durationTicks": 24,
          "midi": 48,
          "name": "C3",
          "ticks": 29640,
          "time": 183.41571625,
          "velocity": 1
        },
        {
          "duration": 0.29702950000000783,
          "durationTicks": 48,
          "midi": 48,
          "name": "C3",
          "ticks": 29664,
          "time": 183.564231,
          "velocity": 1
        },
        {
          "duration": 0.14851475000000391,
          "durationTicks": 24,
          "midi": 48,
          "name": "C3",
          "ticks": 29712,
          "time": 183.86126050000001,
          "velocity": 1
        },
        {
          "duration": 0.14851475000000391,
          "durationTicks": 24,
          "midi": 48,
          "name": "C3",
          "ticks": 29736,
          "time": 184.00977525000002,
          "velocity": 1
        },
        {
          "duration": 0.29702950000000783,
          "durationTicks": 48,
          "midi": 48,
          "name": "C3",
          "ticks": 29760,
          "time": 184.15829000000002,
          "velocity": 1
        },
        {
          "duration": 0.14851475000000391,
          "durationTicks": 24,
          "midi": 48,
          "name": "C3",
          "ticks": 29808,
          "time": 184.45531950000003,
          "velocity": 1
        },
        {
          "duration": 0.14851475000000391,
          "durationTicks": 24,
          "midi": 48,
          "name": "C3",
          "ticks": 29832,
          "time": 184.60383425000003,
          "velocity": 1
        },
        {
          "duration": 0.1485147499999755,
          "durationTicks": 24,
          "midi": 48,
          "name": "C3",
          "ticks": 29856,
          "time": 184.75234900000004,
          "velocity": 1
        },
        {
          "duration": 0.14851475000000391,
          "durationTicks": 24,
          "midi": 48,
          "name": "C3",
          "ticks": 29880,
          "time": 184.90086375,
          "velocity": 1
        },
        {
          "duration": 0.14851475000000391,
          "durationTicks": 24,
          "midi": 48,
          "name": "C3",
          "ticks": 29904,
          "time": 185.04937850000002,
          "velocity": 1
        },
        {
          "duration": 0.14851475000000391,
          "durationTicks": 24,
          "midi": 48,
          "name": "C3",
          "ticks": 29928,
          "time": 185.19789325000002,
          "velocity": 1
        },
        {
          "duration": 0.1485147499999755,
          "durationTicks": 24,
          "midi": 48,
          "name": "C3",
          "ticks": 29952,
          "time": 185.34640800000003,
          "velocity": 1
        },
        {
          "duration": 0.14851475000000391,
          "durationTicks": 24,
          "midi": 48,
          "name": "C3",
          "ticks": 29976,
          "time": 185.49492275,
          "velocity": 1
        },
        {
          "duration": 0.14851475000000391,
          "durationTicks": 24,
          "midi": 48,
          "name": "C3",
          "ticks": 30000,
          "time": 185.6434375,
          "velocity": 1
        },
        {
          "duration": 0.29702950000000783,
          "durationTicks": 48,
          "midi": 48,
          "name": "C3",
          "ticks": 30024,
          "time": 185.79195225,
          "velocity": 1
        },
        {
          "duration": 0.14851475000000391,
          "durationTicks": 24,
          "midi": 48,
          "name": "C3",
          "ticks": 30072,
          "time": 186.08898175000002,
          "velocity": 1
        },
        {
          "duration": 0.14851475000000391,
          "durationTicks": 24,
          "midi": 48,
          "name": "C3",
          "ticks": 30096,
          "time": 186.23749650000002,
          "velocity": 1
        },
        {
          "duration": 0.29702950000000783,
          "durationTicks": 48,
          "midi": 48,
          "name": "C3",
          "ticks": 30120,
          "time": 186.38601125000002,
          "velocity": 1
        },
        {
          "duration": 0.14851475000000391,
          "durationTicks": 24,
          "midi": 48,
          "name": "C3",
          "ticks": 30168,
          "time": 186.68304075000003,
          "velocity": 1
        },
        {
          "duration": 0.14851475000000391,
          "durationTicks": 24,
          "midi": 48,
          "name": "C3",
          "ticks": 30192,
          "time": 186.83155550000004,
          "velocity": 1
        },
        {
          "duration": 0.1485147499999755,
          "durationTicks": 24,
          "midi": 48,
          "name": "C3",
          "ticks": 30216,
          "time": 186.98007025000004,
          "velocity": 1
        },
        {
          "duration": 0.14851475000000391,
          "durationTicks": 24,
          "midi": 48,
          "name": "C3",
          "ticks": 30240,
          "time": 187.12858500000002,
          "velocity": 1
        },
        {
          "duration": 0.14851475000000391,
          "durationTicks": 24,
          "midi": 48,
          "name": "C3",
          "ticks": 30264,
          "time": 187.27709975000002,
          "velocity": 1
        },
        {
          "duration": 0.1485147499999755,
          "durationTicks": 24,
          "midi": 48,
          "name": "C3",
          "ticks": 30288,
          "time": 187.42561450000002,
          "velocity": 1
        },
        {
          "duration": 0.14851475000000391,
          "durationTicks": 24,
          "midi": 48,
          "name": "C3",
          "ticks": 30312,
          "time": 187.57412925,
          "velocity": 1
        },
        {
          "duration": 0.14851475000000391,
          "durationTicks": 24,
          "midi": 48,
          "name": "C3",
          "ticks": 30336,
          "time": 187.722644,
          "velocity": 1
        },
        {
          "duration": 0.14851475000000391,
          "durationTicks": 24,
          "midi": 48,
          "name": "C3",
          "ticks": 30360,
          "time": 187.87115875,
          "velocity": 1
        },
        {
          "duration": 0.29702950000000783,
          "durationTicks": 48,
          "midi": 48,
          "name": "C3",
          "ticks": 30384,
          "time": 188.0196735,
          "velocity": 1
        },
        {
          "duration": 0.14851475000000391,
          "durationTicks": 24,
          "midi": 48,
          "name": "C3",
          "ticks": 30432,
          "time": 188.31670300000002,
          "velocity": 1
        },
        {
          "duration": 0.14851475000000391,
          "durationTicks": 24,
          "midi": 48,
          "name": "C3",
          "ticks": 30456,
          "time": 188.46521775000002,
          "velocity": 1
        },
        {
          "duration": 0.29702950000000783,
          "durationTicks": 48,
          "midi": 48,
          "name": "C3",
          "ticks": 30480,
          "time": 188.61373250000003,
          "velocity": 1
        },
        {
          "duration": 0.14851475000000391,
          "durationTicks": 24,
          "midi": 48,
          "name": "C3",
          "ticks": 30528,
          "time": 188.91076200000003,
          "velocity": 1
        },
        {
          "duration": 0.1485147499999755,
          "durationTicks": 24,
          "midi": 48,
          "name": "C3",
          "ticks": 30552,
          "time": 189.05927675000004,
          "velocity": 1
        },
        {
          "duration": 0.14851475000000391,
          "durationTicks": 24,
          "midi": 48,
          "name": "C3",
          "ticks": 30576,
          "time": 189.2077915,
          "velocity": 1
        },
        {
          "duration": 0.14851475000000391,
          "durationTicks": 24,
          "midi": 48,
          "name": "C3",
          "ticks": 30600,
          "time": 189.35630625000002,
          "velocity": 1
        },
        {
          "duration": 0.14851475000000391,
          "durationTicks": 24,
          "midi": 48,
          "name": "C3",
          "ticks": 30624,
          "time": 189.50482100000002,
          "velocity": 1
        },
        {
          "duration": 0.1485147499999755,
          "durationTicks": 24,
          "midi": 48,
          "name": "C3",
          "ticks": 30648,
          "time": 189.65333575000002,
          "velocity": 1
        },
        {
          "duration": 0.14851475000000391,
          "durationTicks": 24,
          "midi": 48,
          "name": "C3",
          "ticks": 30672,
          "time": 189.8018505,
          "velocity": 1
        },
        {
          "duration": 0.14851475000000391,
          "durationTicks": 24,
          "midi": 48,
          "name": "C3",
          "ticks": 30696,
          "time": 189.95036525,
          "velocity": 1
        },
        {
          "duration": 0.14851475000000391,
          "durationTicks": 24,
          "midi": 48,
          "name": "C3",
          "ticks": 30720,
          "time": 190.09888,
          "velocity": 1
        },
        {
          "duration": 0.29702950000000783,
          "durationTicks": 48,
          "midi": 48,
          "name": "C3",
          "ticks": 30744,
          "time": 190.24739475,
          "velocity": 1
        },
        {
          "duration": 0.14851475000000391,
          "durationTicks": 24,
          "midi": 48,
          "name": "C3",
          "ticks": 30792,
          "time": 190.54442425000002,
          "velocity": 1
        },
        {
          "duration": 0.14851475000000391,
          "durationTicks": 24,
          "midi": 48,
          "name": "C3",
          "ticks": 30816,
          "time": 190.69293900000002,
          "velocity": 1
        },
        {
          "duration": 0.29702950000000783,
          "durationTicks": 48,
          "midi": 48,
          "name": "C3",
          "ticks": 30840,
          "time": 190.84145375000003,
          "velocity": 1
        },
        {
          "duration": 0.14851475000000391,
          "durationTicks": 24,
          "midi": 48,
          "name": "C3",
          "ticks": 30888,
          "time": 191.13848325000004,
          "velocity": 1
        },
        {
          "duration": 0.1485147499999755,
          "durationTicks": 24,
          "midi": 48,
          "name": "C3",
          "ticks": 30912,
          "time": 191.28699800000004,
          "velocity": 1
        },
        {
          "duration": 0.14851475000000391,
          "durationTicks": 24,
          "midi": 48,
          "name": "C3",
          "ticks": 30936,
          "time": 191.43551275000002,
          "velocity": 1
        },
        {
          "duration": 0.14851475000000391,
          "durationTicks": 24,
          "midi": 48,
          "name": "C3",
          "ticks": 30960,
          "time": 191.58402750000002,
          "velocity": 1
        },
        {
          "duration": 0.1485147499999755,
          "durationTicks": 24,
          "midi": 48,
          "name": "C3",
          "ticks": 30984,
          "time": 191.73254225000002,
          "velocity": 1
        },
        {
          "duration": 0.14851475000000391,
          "durationTicks": 24,
          "midi": 48,
          "name": "C3",
          "ticks": 31008,
          "time": 191.881057,
          "velocity": 1
        },
        {
          "duration": 0.14851475000000391,
          "durationTicks": 24,
          "midi": 48,
          "name": "C3",
          "ticks": 31032,
          "time": 192.02957175,
          "velocity": 1
        },
        {
          "duration": 0.14851475000000391,
          "durationTicks": 24,
          "midi": 48,
          "name": "C3",
          "ticks": 31056,
          "time": 192.1780865,
          "velocity": 1
        },
        {
          "duration": 0.14851475000000391,
          "durationTicks": 24,
          "midi": 48,
          "name": "C3",
          "ticks": 31080,
          "time": 192.32660125,
          "velocity": 1
        },
        {
          "duration": 0.29702950000000783,
          "durationTicks": 48,
          "midi": 48,
          "name": "C3",
          "ticks": 31104,
          "time": 192.475116,
          "velocity": 1
        },
        {
          "duration": 0.14851475000000391,
          "durationTicks": 24,
          "midi": 48,
          "name": "C3",
          "ticks": 31152,
          "time": 192.77214550000002,
          "velocity": 1
        },
        {
          "duration": 0.14851475000000391,
          "durationTicks": 24,
          "midi": 48,
          "name": "C3",
          "ticks": 31176,
          "time": 192.92066025000003,
          "velocity": 1
        },
        {
          "duration": 0.29702950000000783,
          "durationTicks": 48,
          "midi": 48,
          "name": "C3",
          "ticks": 31200,
          "time": 193.06917500000003,
          "velocity": 1
        },
        {
          "duration": 0.1485147499999755,
          "durationTicks": 24,
          "midi": 48,
          "name": "C3",
          "ticks": 31248,
          "time": 193.36620450000004,
          "velocity": 1
        },
        {
          "duration": 0.14851475000000391,
          "durationTicks": 24,
          "midi": 48,
          "name": "C3",
          "ticks": 31272,
          "time": 193.51471925,
          "velocity": 1
        },
        {
          "duration": 0.14851475000000391,
          "durationTicks": 24,
          "midi": 48,
          "name": "C3",
          "ticks": 31296,
          "time": 193.66323400000002,
          "velocity": 1
        },
        {
          "duration": 0.14851475000000391,
          "durationTicks": 24,
          "midi": 48,
          "name": "C3",
          "ticks": 31320,
          "time": 193.81174875000002,
          "velocity": 1
        },
        {
          "duration": 0.1485147499999755,
          "durationTicks": 24,
          "midi": 48,
          "name": "C3",
          "ticks": 31344,
          "time": 193.96026350000002,
          "velocity": 1
        },
        {
          "duration": 0.14851475000000391,
          "durationTicks": 24,
          "midi": 48,
          "name": "C3",
          "ticks": 31368,
          "time": 194.10877825,
          "velocity": 1
        },
        {
          "duration": 0.14851475000000391,
          "durationTicks": 24,
          "midi": 48,
          "name": "C3",
          "ticks": 31392,
          "time": 194.257293,
          "velocity": 1
        },
        {
          "duration": 0.14851475000000391,
          "durationTicks": 24,
          "midi": 48,
          "name": "C3",
          "ticks": 31416,
          "time": 194.40580775,
          "velocity": 1
        },
        {
          "duration": 0.14851475000000391,
          "durationTicks": 24,
          "midi": 48,
          "name": "C3",
          "ticks": 31440,
          "time": 194.5543225,
          "velocity": 1
        },
        {
          "duration": 0.29702950000000783,
          "durationTicks": 48,
          "midi": 48,
          "name": "C3",
          "ticks": 31464,
          "time": 194.70283725000002,
          "velocity": 1
        },
        {
          "duration": 0.14851475000000391,
          "durationTicks": 24,
          "midi": 48,
          "name": "C3",
          "ticks": 31512,
          "time": 194.99986675000002,
          "velocity": 1
        },
        {
          "duration": 0.14851475000000391,
          "durationTicks": 24,
          "midi": 48,
          "name": "C3",
          "ticks": 31536,
          "time": 195.14838150000003,
          "velocity": 1
        },
        {
          "duration": 0.29702950000000783,
          "durationTicks": 48,
          "midi": 48,
          "name": "C3",
          "ticks": 31560,
          "time": 195.29689625000003,
          "velocity": 1
        },
        {
          "duration": 0.1485147499999755,
          "durationTicks": 24,
          "midi": 48,
          "name": "C3",
          "ticks": 31608,
          "time": 195.59392575000004,
          "velocity": 1
        },
        {
          "duration": 0.14851475000000391,
          "durationTicks": 24,
          "midi": 48,
          "name": "C3",
          "ticks": 31632,
          "time": 195.74244050000001,
          "velocity": 1
        },
        {
          "duration": 0.14851475000000391,
          "durationTicks": 24,
          "midi": 48,
          "name": "C3",
          "ticks": 31656,
          "time": 195.89095525000002,
          "velocity": 1
        },
        {
          "duration": 0.1485147499999755,
          "durationTicks": 24,
          "midi": 48,
          "name": "C3",
          "ticks": 31680,
          "time": 196.03947000000002,
          "velocity": 1
        },
        {
          "duration": 0.14851475000000391,
          "durationTicks": 24,
          "midi": 48,
          "name": "C3",
          "ticks": 31704,
          "time": 196.18798475,
          "velocity": 1
        },
        {
          "duration": 0.14851475000000391,
          "durationTicks": 24,
          "midi": 48,
          "name": "C3",
          "ticks": 31728,
          "time": 196.3364995,
          "velocity": 1
        },
        {
          "duration": 0.14851475000000391,
          "durationTicks": 24,
          "midi": 48,
          "name": "C3",
          "ticks": 31752,
          "time": 196.48501425,
          "velocity": 1
        },
        {
          "duration": 0.14851475000000391,
          "durationTicks": 24,
          "midi": 48,
          "name": "C3",
          "ticks": 31776,
          "time": 196.633529,
          "velocity": 1
        },
        {
          "duration": 0.14851475000000391,
          "durationTicks": 24,
          "midi": 48,
          "name": "C3",
          "ticks": 31800,
          "time": 196.78204375,
          "velocity": 1
        },
        {
          "duration": 0.29702950000000783,
          "durationTicks": 48,
          "midi": 48,
          "name": "C3",
          "ticks": 31824,
          "time": 196.93055850000002,
          "velocity": 1
        },
        {
          "duration": 0.14851475000000391,
          "durationTicks": 24,
          "midi": 48,
          "name": "C3",
          "ticks": 31872,
          "time": 197.22758800000003,
          "velocity": 1
        },
        {
          "duration": 0.14851475000000391,
          "durationTicks": 24,
          "midi": 48,
          "name": "C3",
          "ticks": 31896,
          "time": 197.37610275000003,
          "velocity": 1
        },
        {
          "duration": 0.2970294999999794,
          "durationTicks": 48,
          "midi": 48,
          "name": "C3",
          "ticks": 31920,
          "time": 197.52461750000003,
          "velocity": 1
        },
        {
          "duration": 0.14851475000000391,
          "durationTicks": 24,
          "midi": 48,
          "name": "C3",
          "ticks": 31968,
          "time": 197.821647,
          "velocity": 1
        },
        {
          "duration": 0.14851475000000391,
          "durationTicks": 24,
          "midi": 48,
          "name": "C3",
          "ticks": 31992,
          "time": 197.97016175000002,
          "velocity": 1
        },
        {
          "duration": 0.14851475000000391,
          "durationTicks": 24,
          "midi": 48,
          "name": "C3",
          "ticks": 32016,
          "time": 198.11867650000002,
          "velocity": 1
        },
        {
          "duration": 0.1485147499999755,
          "durationTicks": 24,
          "midi": 48,
          "name": "C3",
          "ticks": 32040,
          "time": 198.26719125000002,
          "velocity": 1
        },
        {
          "duration": 0.14851475000000391,
          "durationTicks": 24,
          "midi": 48,
          "name": "C3",
          "ticks": 32064,
          "time": 198.415706,
          "velocity": 1
        },
        {
          "duration": 0.14851475000000391,
          "durationTicks": 24,
          "midi": 48,
          "name": "C3",
          "ticks": 32088,
          "time": 198.56422075,
          "velocity": 1
        },
        {
          "duration": 0.14851475000000391,
          "durationTicks": 24,
          "midi": 48,
          "name": "C3",
          "ticks": 32112,
          "time": 198.7127355,
          "velocity": 1
        },
        {
          "duration": 0.14851475000000391,
          "durationTicks": 24,
          "midi": 48,
          "name": "C3",
          "ticks": 32136,
          "time": 198.86125025,
          "velocity": 1
        },
        {
          "duration": 0.14851475000000391,
          "durationTicks": 24,
          "midi": 48,
          "name": "C3",
          "ticks": 32160,
          "time": 199.00976500000002,
          "velocity": 1
        },
        {
          "duration": 0.29702950000000783,
          "durationTicks": 48,
          "midi": 48,
          "name": "C3",
          "ticks": 32184,
          "time": 199.15827975000002,
          "velocity": 1
        },
        {
          "duration": 0.14851475000000391,
          "durationTicks": 24,
          "midi": 48,
          "name": "C3",
          "ticks": 32232,
          "time": 199.45530925000003,
          "velocity": 1
        },
        {
          "duration": 0.14851475000000391,
          "durationTicks": 24,
          "midi": 48,
          "name": "C3",
          "ticks": 32256,
          "time": 199.60382400000003,
          "velocity": 1
        },
        {
          "duration": 0.2970294999999794,
          "durationTicks": 48,
          "midi": 48,
          "name": "C3",
          "ticks": 32280,
          "time": 199.75233875000004,
          "velocity": 1
        },
        {
          "duration": 0.14851475000000391,
          "durationTicks": 24,
          "midi": 48,
          "name": "C3",
          "ticks": 32328,
          "time": 200.04936825000001,
          "velocity": 1
        },
        {
          "duration": 0.14851475000000391,
          "durationTicks": 24,
          "midi": 48,
          "name": "C3",
          "ticks": 32352,
          "time": 200.19788300000002,
          "velocity": 1
        },
        {
          "duration": 0.1485147499999755,
          "durationTicks": 24,
          "midi": 48,
          "name": "C3",
          "ticks": 32376,
          "time": 200.34639775000002,
          "velocity": 1
        },
        {
          "duration": 0.14851475000000391,
          "durationTicks": 24,
          "midi": 48,
          "name": "C3",
          "ticks": 32400,
          "time": 200.4949125,
          "velocity": 1
        },
        {
          "duration": 0.14851475000000391,
          "durationTicks": 24,
          "midi": 48,
          "name": "C3",
          "ticks": 32424,
          "time": 200.64342725,
          "velocity": 1
        },
        {
          "duration": 0.14851475000000391,
          "durationTicks": 24,
          "midi": 48,
          "name": "C3",
          "ticks": 32448,
          "time": 200.791942,
          "velocity": 1
        },
        {
          "duration": 0.14851475000000391,
          "durationTicks": 24,
          "midi": 48,
          "name": "C3",
          "ticks": 32472,
          "time": 200.94045675,
          "velocity": 1
        },
        {
          "duration": 0.14851475000000391,
          "durationTicks": 24,
          "midi": 48,
          "name": "C3",
          "ticks": 32496,
          "time": 201.0889715,
          "velocity": 1
        },
        {
          "duration": 0.14851475000000391,
          "durationTicks": 24,
          "midi": 48,
          "name": "C3",
          "ticks": 32520,
          "time": 201.23748625000002,
          "velocity": 1
        },
        {
          "duration": 0.29702950000000783,
          "durationTicks": 48,
          "midi": 48,
          "name": "C3",
          "ticks": 32544,
          "time": 201.38600100000002,
          "velocity": 1
        },
        {
          "duration": 0.14851475000000391,
          "durationTicks": 24,
          "midi": 48,
          "name": "C3",
          "ticks": 32592,
          "time": 201.68303050000003,
          "velocity": 1
        },
        {
          "duration": 0.14851475000000391,
          "durationTicks": 24,
          "midi": 48,
          "name": "C3",
          "ticks": 32616,
          "time": 201.83154525000003,
          "velocity": 1
        },
        {
          "duration": 0.2970294999999794,
          "durationTicks": 48,
          "midi": 48,
          "name": "C3",
          "ticks": 32640,
          "time": 201.98006000000004,
          "velocity": 1
        },
        {
          "duration": 0.14851475000000391,
          "durationTicks": 24,
          "midi": 48,
          "name": "C3",
          "ticks": 32688,
          "time": 202.27708950000002,
          "velocity": 1
        },
        {
          "duration": 0.14851475000000391,
          "durationTicks": 24,
          "midi": 48,
          "name": "C3",
          "ticks": 32712,
          "time": 202.42560425000002,
          "velocity": 1
        },
        {
          "duration": 0.1485147499999755,
          "durationTicks": 24,
          "midi": 48,
          "name": "C3",
          "ticks": 32736,
          "time": 202.57411900000002,
          "velocity": 1
        },
        {
          "duration": 0.14851475000000391,
          "durationTicks": 24,
          "midi": 48,
          "name": "C3",
          "ticks": 32760,
          "time": 202.72263375,
          "velocity": 1
        },
        {
          "duration": 0.14851475000000391,
          "durationTicks": 24,
          "midi": 48,
          "name": "C3",
          "ticks": 32784,
          "time": 202.8711485,
          "velocity": 1
        },
        {
          "duration": 0.14851475000000391,
          "durationTicks": 24,
          "midi": 48,
          "name": "C3",
          "ticks": 32808,
          "time": 203.01966325,
          "velocity": 1
        },
        {
          "duration": 0.14851475000000391,
          "durationTicks": 24,
          "midi": 48,
          "name": "C3",
          "ticks": 32832,
          "time": 203.168178,
          "velocity": 1
        },
        {
          "duration": 0.14851475000000391,
          "durationTicks": 24,
          "midi": 48,
          "name": "C3",
          "ticks": 32856,
          "time": 203.31669275000002,
          "velocity": 1
        },
        {
          "duration": 0.14851475000000391,
          "durationTicks": 24,
          "midi": 48,
          "name": "C3",
          "ticks": 32880,
          "time": 203.46520750000002,
          "velocity": 1
        },
        {
          "duration": 0.29702950000000783,
          "durationTicks": 48,
          "midi": 48,
          "name": "C3",
          "ticks": 32904,
          "time": 203.61372225000002,
          "velocity": 1
        },
        {
          "duration": 0.14851475000000391,
          "durationTicks": 24,
          "midi": 48,
          "name": "C3",
          "ticks": 32952,
          "time": 203.91075175000003,
          "velocity": 1
        },
        {
          "duration": 0.14851475000000391,
          "durationTicks": 24,
          "midi": 48,
          "name": "C3",
          "ticks": 32976,
          "time": 204.05926650000004,
          "velocity": 1
        },
        {
          "duration": 0.4022274479166583,
          "durationTicks": 65,
          "midi": 48,
          "name": "C3",
          "ticks": 33000,
          "time": 204.20778125000004,
          "velocity": 1
        },
        {
          "duration": 0.043316802083325,
          "durationTicks": 7,
          "midi": 48,
          "name": "C3",
          "ticks": 33065,
          "time": 204.6100086979167,
          "velocity": 1
        },
        {
          "duration": 0.1485147499999755,
          "durationTicks": 24,
          "midi": 48,
          "name": "C3",
          "ticks": 33072,
          "time": 204.65332550000002,
          "velocity": 1
        },
        {
          "duration": 0.14851475000000391,
          "durationTicks": 24,
          "midi": 48,
          "name": "C3",
          "ticks": 33096,
          "time": 204.80184025,
          "velocity": 1
        },
        {
          "duration": 0.14851475000000391,
          "durationTicks": 24,
          "midi": 48,
          "name": "C3",
          "ticks": 37272,
          "time": 230.64340675000003,
          "velocity": 0.2992125984251969
        },
        {
          "duration": 0.1485147499999755,
          "durationTicks": 24,
          "midi": 48,
          "name": "C3",
          "ticks": 37296,
          "time": 230.79192150000003,
          "velocity": 0.5511811023622047
        },
        {
          "duration": 0.29702950000000783,
          "durationTicks": 48,
          "midi": 48,
          "name": "C3",
          "ticks": 37320,
          "time": 230.94043625,
          "velocity": 1
        },
        {
          "duration": 0.14851475000000391,
          "durationTicks": 24,
          "midi": 48,
          "name": "C3",
          "ticks": 37368,
          "time": 231.23746575,
          "velocity": 1
        },
        {
          "duration": 0.14851475000000391,
          "durationTicks": 24,
          "midi": 48,
          "name": "C3",
          "ticks": 37392,
          "time": 231.38598050000002,
          "velocity": 1
        },
        {
          "duration": 0.14851475000000391,
          "durationTicks": 24,
          "midi": 48,
          "name": "C3",
          "ticks": 37416,
          "time": 231.53449525000002,
          "velocity": 1
        },
        {
          "duration": 0.14851475000000391,
          "durationTicks": 24,
          "midi": 48,
          "name": "C3",
          "ticks": 37440,
          "time": 231.68301000000002,
          "velocity": 1
        },
        {
          "duration": 0.1485147499999755,
          "durationTicks": 24,
          "midi": 48,
          "name": "C3",
          "ticks": 37464,
          "time": 231.83152475000003,
          "velocity": 1
        },
        {
          "duration": 0.14851475000000391,
          "durationTicks": 24,
          "midi": 48,
          "name": "C3",
          "ticks": 37488,
          "time": 231.9800395,
          "velocity": 1
        },
        {
          "duration": 0.14851475000000391,
          "durationTicks": 24,
          "midi": 48,
          "name": "C3",
          "ticks": 37512,
          "time": 232.12855425,
          "velocity": 1
        },
        {
          "duration": 0.14851475000000391,
          "durationTicks": 24,
          "midi": 48,
          "name": "C3",
          "ticks": 37536,
          "time": 232.277069,
          "velocity": 1
        },
        {
          "duration": 0.14851475000000391,
          "durationTicks": 24,
          "midi": 48,
          "name": "C3",
          "ticks": 37560,
          "time": 232.42558375000002,
          "velocity": 1
        },
        {
          "duration": 0.29702950000000783,
          "durationTicks": 48,
          "midi": 48,
          "name": "C3",
          "ticks": 37584,
          "time": 232.57409850000002,
          "velocity": 1
        },
        {
          "duration": 0.1485147499999755,
          "durationTicks": 24,
          "midi": 48,
          "name": "C3",
          "ticks": 37632,
          "time": 232.87112800000003,
          "velocity": 1
        },
        {
          "duration": 0.14851475000000391,
          "durationTicks": 24,
          "midi": 48,
          "name": "C3",
          "ticks": 37656,
          "time": 233.01964275,
          "velocity": 1
        },
        {
          "duration": 0.29702950000000783,
          "durationTicks": 48,
          "midi": 48,
          "name": "C3",
          "ticks": 37680,
          "time": 233.1681575,
          "velocity": 1
        },
        {
          "duration": 0.14851475000000391,
          "durationTicks": 24,
          "midi": 48,
          "name": "C3",
          "ticks": 37728,
          "time": 233.46518700000001,
          "velocity": 1
        },
        {
          "duration": 0.14851475000000391,
          "durationTicks": 24,
          "midi": 48,
          "name": "C3",
          "ticks": 37752,
          "time": 233.61370175000002,
          "velocity": 1
        },
        {
          "duration": 0.14851475000000391,
          "durationTicks": 24,
          "midi": 48,
          "name": "C3",
          "ticks": 37776,
          "time": 233.76221650000002,
          "velocity": 1
        },
        {
          "duration": 0.14851475000000391,
          "durationTicks": 24,
          "midi": 48,
          "name": "C3",
          "ticks": 37800,
          "time": 233.91073125000003,
          "velocity": 1
        },
        {
          "duration": 0.1485147499999755,
          "durationTicks": 24,
          "midi": 48,
          "name": "C3",
          "ticks": 37824,
          "time": 234.05924600000003,
          "velocity": 1
        },
        {
          "duration": 0.14851475000000391,
          "durationTicks": 24,
          "midi": 48,
          "name": "C3",
          "ticks": 37848,
          "time": 234.20776075,
          "velocity": 1
        },
        {
          "duration": 0.14851475000000391,
          "durationTicks": 24,
          "midi": 48,
          "name": "C3",
          "ticks": 37872,
          "time": 234.3562755,
          "velocity": 1
        },
        {
          "duration": 0.14851475000000391,
          "durationTicks": 24,
          "midi": 48,
          "name": "C3",
          "ticks": 37896,
          "time": 234.50479025,
          "velocity": 1
        },
        {
          "duration": 0.14851475000000391,
          "durationTicks": 24,
          "midi": 48,
          "name": "C3",
          "ticks": 37920,
          "time": 234.65330500000002,
          "velocity": 1
        },
        {
          "duration": 0.29702950000000783,
          "durationTicks": 48,
          "midi": 48,
          "name": "C3",
          "ticks": 37944,
          "time": 234.80181975000002,
          "velocity": 1
        },
        {
          "duration": 0.1485147499999755,
          "durationTicks": 24,
          "midi": 48,
          "name": "C3",
          "ticks": 37992,
          "time": 235.09884925000003,
          "velocity": 1
        },
        {
          "duration": 0.14851475000000391,
          "durationTicks": 24,
          "midi": 48,
          "name": "C3",
          "ticks": 38016,
          "time": 235.247364,
          "velocity": 1
        },
        {
          "duration": 0.29702950000000783,
          "durationTicks": 48,
          "midi": 48,
          "name": "C3",
          "ticks": 38040,
          "time": 235.39587875,
          "velocity": 1
        },
        {
          "duration": 0.14851475000000391,
          "durationTicks": 24,
          "midi": 48,
          "name": "C3",
          "ticks": 38088,
          "time": 235.69290825000002,
          "velocity": 1
        },
        {
          "duration": 0.14851475000000391,
          "durationTicks": 24,
          "midi": 48,
          "name": "C3",
          "ticks": 38112,
          "time": 235.84142300000002,
          "velocity": 1
        },
        {
          "duration": 0.14851475000000391,
          "durationTicks": 24,
          "midi": 48,
          "name": "C3",
          "ticks": 38136,
          "time": 235.98993775000002,
          "velocity": 1
        },
        {
          "duration": 0.14851475000000391,
          "durationTicks": 24,
          "midi": 48,
          "name": "C3",
          "ticks": 38160,
          "time": 236.13845250000003,
          "velocity": 1
        },
        {
          "duration": 0.1485147499999755,
          "durationTicks": 24,
          "midi": 48,
          "name": "C3",
          "ticks": 38184,
          "time": 236.28696725000003,
          "velocity": 1
        },
        {
          "duration": 0.14851475000000391,
          "durationTicks": 24,
          "midi": 48,
          "name": "C3",
          "ticks": 38208,
          "time": 236.435482,
          "velocity": 1
        },
        {
          "duration": 0.14851475000000391,
          "durationTicks": 24,
          "midi": 48,
          "name": "C3",
          "ticks": 38232,
          "time": 236.58399675,
          "velocity": 1
        },
        {
          "duration": 0.14851475000000391,
          "durationTicks": 24,
          "midi": 48,
          "name": "C3",
          "ticks": 38256,
          "time": 236.73251150000002,
          "velocity": 1
        },
        {
          "duration": 0.14851475000000391,
          "durationTicks": 24,
          "midi": 48,
          "name": "C3",
          "ticks": 38280,
          "time": 236.88102625000002,
          "velocity": 1
        },
        {
          "duration": 0.2970294999999794,
          "durationTicks": 48,
          "midi": 48,
          "name": "C3",
          "ticks": 38304,
          "time": 237.02954100000002,
          "velocity": 1
        },
        {
          "duration": 0.14851475000000391,
          "durationTicks": 24,
          "midi": 48,
          "name": "C3",
          "ticks": 38352,
          "time": 237.3265705,
          "velocity": 1
        },
        {
          "duration": 0.14851475000000391,
          "durationTicks": 24,
          "midi": 48,
          "name": "C3",
          "ticks": 38376,
          "time": 237.47508525,
          "velocity": 1
        },
        {
          "duration": 0.29702950000000783,
          "durationTicks": 48,
          "midi": 48,
          "name": "C3",
          "ticks": 38400,
          "time": 237.6236,
          "velocity": 1
        },
        {
          "duration": 0.14851475000000391,
          "durationTicks": 24,
          "midi": 48,
          "name": "C3",
          "ticks": 38448,
          "time": 237.92062950000002,
          "velocity": 1
        },
        {
          "duration": 0.14851475000000391,
          "durationTicks": 24,
          "midi": 48,
          "name": "C3",
          "ticks": 38472,
          "time": 238.06914425000002,
          "velocity": 1
        },
        {
          "duration": 0.14851475000000391,
          "durationTicks": 24,
          "midi": 48,
          "name": "C3",
          "ticks": 38496,
          "time": 238.21765900000003,
          "velocity": 1
        },
        {
          "duration": 0.1485147499999755,
          "durationTicks": 24,
          "midi": 48,
          "name": "C3",
          "ticks": 38520,
          "time": 238.36617375000003,
          "velocity": 1
        },
        {
          "duration": 0.14851475000000391,
          "durationTicks": 24,
          "midi": 48,
          "name": "C3",
          "ticks": 38544,
          "time": 238.5146885,
          "velocity": 1
        },
        {
          "duration": 0.14851475000000391,
          "durationTicks": 24,
          "midi": 48,
          "name": "C3",
          "ticks": 38568,
          "time": 238.66320325,
          "velocity": 1
        },
        {
          "duration": 0.14851475000000391,
          "durationTicks": 24,
          "midi": 48,
          "name": "C3",
          "ticks": 38592,
          "time": 238.811718,
          "velocity": 1
        },
        {
          "duration": 0.14851475000000391,
          "durationTicks": 24,
          "midi": 48,
          "name": "C3",
          "ticks": 38616,
          "time": 238.96023275000002,
          "velocity": 1
        },
        {
          "duration": 0.14851475000000391,
          "durationTicks": 24,
          "midi": 48,
          "name": "C3",
          "ticks": 38640,
          "time": 239.10874750000002,
          "velocity": 1
        },
        {
          "duration": 0.2970294999999794,
          "durationTicks": 48,
          "midi": 48,
          "name": "C3",
          "ticks": 38664,
          "time": 239.25726225000003,
          "velocity": 1
        },
        {
          "duration": 0.25371269791668283,
          "durationTicks": 41,
          "midi": 48,
          "name": "C3",
          "ticks": 38712,
          "time": 239.55429175,
          "velocity": 1
        },
        {
          "duration": 0.043316802083325,
          "durationTicks": 7,
          "midi": 48,
          "name": "C3",
          "ticks": 38753,
          "time": 239.8080044479167,
          "velocity": 1
        },
        {
          "duration": 0.4022274479166583,
          "durationTicks": 65,
          "midi": 48,
          "name": "C3",
          "ticks": 38760,
          "time": 239.85132125,
          "velocity": 1
        },
        {
          "duration": 0.04331680208335342,
          "durationTicks": 7,
          "midi": 48,
          "name": "C3",
          "ticks": 38825,
          "time": 240.25354869791667,
          "velocity": 1
        },
        {
          "duration": 0.14851475000000391,
          "durationTicks": 24,
          "midi": 48,
          "name": "C3",
          "ticks": 38832,
          "time": 240.29686550000002,
          "velocity": 1
        },
        {
          "duration": 0.5940589999999872,
          "durationTicks": 96,
          "midi": 48,
          "name": "C3",
          "ticks": 38856,
          "time": 240.44538025000003,
          "velocity": 1
        }
      ],
      "endOfTrackTicks": 38952
    },
    {
      "channel": 0,
      "controlChanges": {},
      "pitchBends": [],
      "instrument": {
        "family": "piano",
        "number": 0,
        "name": "acoustic grand piano"
      },
      "name": "Track 08 (07:    MilkyTracker 1.04)",
      "notes": [
        {
          "duration": 0.2970295000000007,
          "durationTicks": 48,
          "midi": 48,
          "name": "C3",
          "ticks": 1392,
          "time": 8.6138555,
          "velocity": 1
        },
        {
          "duration": 1.9306917499999994,
          "durationTicks": 312,
          "midi": 48,
          "name": "C3",
          "ticks": 1440,
          "time": 8.910885,
          "velocity": 1
        },
        {
          "duration": 0.2970295000000007,
          "durationTicks": 48,
          "midi": 48,
          "name": "C3",
          "ticks": 1752,
          "time": 10.84157675,
          "velocity": 1
        },
        {
          "duration": 1.9306917499999994,
          "durationTicks": 312,
          "midi": 48,
          "name": "C3",
          "ticks": 1800,
          "time": 11.13860625,
          "velocity": 1
        },
        {
          "duration": 0.2970295000000007,
          "durationTicks": 48,
          "midi": 48,
          "name": "C3",
          "ticks": 2112,
          "time": 13.069298,
          "velocity": 1
        },
        {
          "duration": 1.9306917499999994,
          "durationTicks": 312,
          "midi": 48,
          "name": "C3",
          "ticks": 2160,
          "time": 13.3663275,
          "velocity": 1
        },
        {
          "duration": 0.2970295000000007,
          "durationTicks": 48,
          "midi": 48,
          "name": "C3",
          "ticks": 2472,
          "time": 15.29701925,
          "velocity": 1
        },
        {
          "duration": 1.6336622499999987,
          "durationTicks": 264,
          "midi": 48,
          "name": "C3",
          "ticks": 2520,
          "time": 15.59404875,
          "velocity": 1
        },
        {
          "duration": 0.5940590000000014,
          "durationTicks": 96,
          "midi": 48,
          "name": "C3",
          "ticks": 2784,
          "time": 17.227711,
          "velocity": 1
        },
        {
          "duration": 0.7425737500000018,
          "durationTicks": 120,
          "midi": 48,
          "name": "C3",
          "ticks": 2832,
          "time": 17.5247405,
          "velocity": 1
        },
        {
          "duration": 0.8910884999999986,
          "durationTicks": 144,
          "midi": 48,
          "name": "C3",
          "ticks": 2880,
          "time": 17.82177,
          "velocity": 1
        },
        {
          "duration": 1.039603249999999,
          "durationTicks": 168,
          "midi": 48,
          "name": "C3",
          "ticks": 2952,
          "time": 18.267314250000002,
          "velocity": 0.5039370078740157
        },
        {
          "duration": 1.0396032500000025,
          "durationTicks": 168,
          "midi": 48,
          "name": "C3",
          "ticks": 3024,
          "time": 18.7128585,
          "velocity": 1
        },
        {
          "duration": 0.7425737500000018,
          "durationTicks": 120,
          "midi": 48,
          "name": "C3",
          "ticks": 3120,
          "time": 19.3069175,
          "velocity": 1
        },
        {
          "duration": 1.1881179999999993,
          "durationTicks": 192,
          "midi": 48,
          "name": "C3",
          "ticks": 3192,
          "time": 19.752461750000002,
          "velocity": 1
        },
        {
          "duration": 1.4851474999999965,
          "durationTicks": 240,
          "midi": 48,
          "name": "C3",
          "ticks": 3240,
          "time": 20.049491250000003,
          "velocity": 1
        },
        {
          "duration": 1.039603249999999,
          "durationTicks": 168,
          "midi": 48,
          "name": "C3",
          "ticks": 3384,
          "time": 20.94057975,
          "velocity": 1
        },
        {
          "duration": 0.7425737500000018,
          "durationTicks": 120,
          "midi": 48,
          "name": "C3",
          "ticks": 3480,
          "time": 21.53463875,
          "velocity": 1
        },
        {
          "duration": 0.2970295000000007,
          "durationTicks": 48,
          "midi": 48,
          "name": "C3",
          "ticks": 3552,
          "time": 21.980183,
          "velocity": 1
        },
        {
          "duration": 0.8910884999999986,
          "durationTicks": 144,
          "midi": 48,
          "name": "C3",
          "ticks": 3600,
          "time": 22.2772125,
          "velocity": 1
        },
        {
          "duration": 0.7425737499999983,
          "durationTicks": 120,
          "midi": 49,
          "name": "C#3",
          "ticks": 3720,
          "time": 23.019786250000003,
          "velocity": 0.5039370078740157
        },
        {
          "duration": 0.5940590000000014,
          "durationTicks": 96,
          "midi": 48,
          "name": "C3",
          "ticks": 3744,
          "time": 23.168301,
          "velocity": 1
        },
        {
          "duration": 0.4455442500000011,
          "durationTicks": 72,
          "midi": 48,
          "name": "C3",
          "ticks": 3840,
          "time": 23.76236,
          "velocity": 1
        },
        {
          "duration": 0.29702949999999717,
          "durationTicks": 48,
          "midi": 48,
          "name": "C3",
          "ticks": 3912,
          "time": 24.207904250000002,
          "velocity": 1
        },
        {
          "duration": 0.8910885000000022,
          "durationTicks": 144,
          "midi": 48,
          "name": "C3",
          "ticks": 3960,
          "time": 24.50493375,
          "velocity": 1
        },
        {
          "duration": 0.5940590000000014,
          "durationTicks": 96,
          "midi": 48,
          "name": "C3",
          "ticks": 4104,
          "time": 25.39602225,
          "velocity": 1
        },
        {
          "duration": 0.44554424999999753,
          "durationTicks": 72,
          "midi": 48,
          "name": "C3",
          "ticks": 4200,
          "time": 25.990081250000003,
          "velocity": 1
        },
        {
          "duration": 0.2970295000000007,
          "durationTicks": 48,
          "midi": 48,
          "name": "C3",
          "ticks": 4272,
          "time": 26.4356255,
          "velocity": 1
        },
        {
          "duration": 0.8910885000000022,
          "durationTicks": 144,
          "midi": 48,
          "name": "C3",
          "ticks": 4320,
          "time": 26.732655,
          "velocity": 1
        },
        {
          "duration": 0.5940589999999979,
          "durationTicks": 96,
          "midi": 48,
          "name": "C3",
          "ticks": 4464,
          "time": 27.623743500000003,
          "velocity": 1
        },
        {
          "duration": 0.4455442500000011,
          "durationTicks": 72,
          "midi": 48,
          "name": "C3",
          "ticks": 4560,
          "time": 28.2178025,
          "velocity": 1
        },
        {
          "duration": 0.2970295000000007,
          "durationTicks": 48,
          "midi": 48,
          "name": "C3",
          "ticks": 4632,
          "time": 28.663346750000002,
          "velocity": 1
        },
        {
          "duration": 0.8910884999999986,
          "durationTicks": 144,
          "midi": 48,
          "name": "C3",
          "ticks": 4680,
          "time": 28.960376250000003,
          "velocity": 1
        },
        {
          "duration": 0.5940589999999979,
          "durationTicks": 96,
          "midi": 48,
          "name": "C3",
          "ticks": 4824,
          "time": 29.85146475,
          "velocity": 1
        },
        {
          "duration": 0.4455442500000011,
          "durationTicks": 72,
          "midi": 48,
          "name": "C3",
          "ticks": 4920,
          "time": 30.44552375,
          "velocity": 1
        },
        {
          "duration": 0.2970295000000007,
          "durationTicks": 48,
          "midi": 48,
          "name": "C3",
          "ticks": 4992,
          "time": 30.891068,
          "velocity": 1
        },
        {
          "duration": 0.8910884999999986,
          "durationTicks": 144,
          "midi": 48,
          "name": "C3",
          "ticks": 5040,
          "time": 31.1880975,
          "velocity": 1
        },
        {
          "duration": 0.5940590000000014,
          "durationTicks": 96,
          "midi": 48,
          "name": "C3",
          "ticks": 5184,
          "time": 32.079186,
          "velocity": 1
        },
        {
          "duration": 0.44554424999999753,
          "durationTicks": 72,
          "midi": 48,
          "name": "C3",
          "ticks": 5280,
          "time": 32.673245,
          "velocity": 1
        },
        {
          "duration": 0.2970295000000007,
          "durationTicks": 48,
          "midi": 48,
          "name": "C3",
          "ticks": 5352,
          "time": 33.11878925,
          "velocity": 1
        },
        {
          "duration": 0.8910885000000022,
          "durationTicks": 144,
          "midi": 48,
          "name": "C3",
          "ticks": 5400,
          "time": 33.41581875,
          "velocity": 1
        },
        {
          "duration": 0.5940589999999943,
          "durationTicks": 96,
          "midi": 48,
          "name": "C3",
          "ticks": 5544,
          "time": 34.30690725,
          "velocity": 1
        },
        {
          "duration": 0.44554425000000464,
          "durationTicks": 72,
          "midi": 48,
          "name": "C3",
          "ticks": 5640,
          "time": 34.900966249999996,
          "velocity": 1
        },
        {
          "duration": 0.2970295000000007,
          "durationTicks": 48,
          "midi": 48,
          "name": "C3",
          "ticks": 5712,
          "time": 35.3465105,
          "velocity": 1
        },
        {
          "duration": 0.8910884999999951,
          "durationTicks": 144,
          "midi": 48,
          "name": "C3",
          "ticks": 5760,
          "time": 35.64354,
          "velocity": 1
        },
        {
          "duration": 0.5940590000000014,
          "durationTicks": 96,
          "midi": 48,
          "name": "C3",
          "ticks": 5904,
          "time": 36.5346285,
          "velocity": 1
        },
        {
          "duration": 0.44554424999999753,
          "durationTicks": 72,
          "midi": 48,
          "name": "C3",
          "ticks": 6000,
          "time": 37.1286875,
          "velocity": 1
        },
        {
          "duration": 0.29702950000000783,
          "durationTicks": 48,
          "midi": 48,
          "name": "C3",
          "ticks": 6072,
          "time": 37.574231749999996,
          "velocity": 1
        },
        {
          "duration": 0.8910884999999951,
          "durationTicks": 144,
          "midi": 48,
          "name": "C3",
          "ticks": 6120,
          "time": 37.87126125,
          "velocity": 1
        },
        {
          "duration": 0.5940590000000014,
          "durationTicks": 96,
          "midi": 48,
          "name": "C3",
          "ticks": 6264,
          "time": 38.76234975,
          "velocity": 1
        },
        {
          "duration": 0.44554424999999753,
          "durationTicks": 72,
          "midi": 48,
          "name": "C3",
          "ticks": 6360,
          "time": 39.35640875,
          "velocity": 1
        },
        {
          "duration": 0.29702950000000783,
          "durationTicks": 48,
          "midi": 48,
          "name": "C3",
          "ticks": 6432,
          "time": 39.801953,
          "velocity": 1
        },
        {
          "duration": 0.5940590000000014,
          "durationTicks": 96,
          "midi": 48,
          "name": "C3",
          "ticks": 6624,
          "time": 40.990071,
          "velocity": 1
        },
        {
          "duration": 0.44554424999999753,
          "durationTicks": 72,
          "midi": 48,
          "name": "C3",
          "ticks": 6720,
          "time": 41.58413,
          "velocity": 1
        },
        {
          "duration": 0.2970295000000007,
          "durationTicks": 48,
          "midi": 48,
          "name": "C3",
          "ticks": 6792,
          "time": 42.02967425,
          "velocity": 1
        },
        {
          "duration": 0.8910885000000022,
          "durationTicks": 144,
          "midi": 48,
          "name": "C3",
          "ticks": 6840,
          "time": 42.32670375,
          "velocity": 1
        },
        {
          "duration": 0.5940590000000014,
          "durationTicks": 96,
          "midi": 48,
          "name": "C3",
          "ticks": 6984,
          "time": 43.21779225,
          "velocity": 1
        },
        {
          "duration": 0.44554424999999753,
          "durationTicks": 72,
          "midi": 48,
          "name": "C3",
          "ticks": 7080,
          "time": 43.811851250000004,
          "velocity": 1
        },
        {
          "duration": 0.2970295000000007,
          "durationTicks": 48,
          "midi": 48,
          "name": "C3",
          "ticks": 7152,
          "time": 44.2573955,
          "velocity": 1
        },
        {
          "duration": 0.8910885000000022,
          "durationTicks": 144,
          "midi": 48,
          "name": "C3",
          "ticks": 7200,
          "time": 44.554425,
          "velocity": 1
        },
        {
          "duration": 0.5940590000000014,
          "durationTicks": 96,
          "midi": 48,
          "name": "C3",
          "ticks": 7344,
          "time": 45.445513500000004,
          "velocity": 1
        },
        {
          "duration": 0.44554424999999753,
          "durationTicks": 72,
          "midi": 48,
          "name": "C3",
          "ticks": 7440,
          "time": 46.039572500000006,
          "velocity": 1
        },
        {
          "duration": 0.2970294999999936,
          "durationTicks": 48,
          "midi": 48,
          "name": "C3",
          "ticks": 7512,
          "time": 46.48511675,
          "velocity": 1
        },
        {
          "duration": 0.8910885000000093,
          "durationTicks": 144,
          "midi": 48,
          "name": "C3",
          "ticks": 7560,
          "time": 46.78214625,
          "velocity": 1
        },
        {
          "duration": 0.5940589999999943,
          "durationTicks": 96,
          "midi": 48,
          "name": "C3",
          "ticks": 7704,
          "time": 47.673234750000006,
          "velocity": 1
        },
        {
          "duration": 0.44554425000000464,
          "durationTicks": 72,
          "midi": 48,
          "name": "C3",
          "ticks": 7800,
          "time": 48.26729375,
          "velocity": 1
        },
        {
          "duration": 0.2970294999999936,
          "durationTicks": 48,
          "midi": 48,
          "name": "C3",
          "ticks": 7872,
          "time": 48.712838000000005,
          "velocity": 1
        },
        {
          "duration": 0.8910885000000022,
          "durationTicks": 144,
          "midi": 48,
          "name": "C3",
          "ticks": 7920,
          "time": 49.0098675,
          "velocity": 1
        },
        {
          "duration": 0.5940590000000014,
          "durationTicks": 96,
          "midi": 48,
          "name": "C3",
          "ticks": 8064,
          "time": 49.900956,
          "velocity": 1
        },
        {
          "duration": 0.44554424999999753,
          "durationTicks": 72,
          "midi": 48,
          "name": "C3",
          "ticks": 8160,
          "time": 50.495015,
          "velocity": 1
        },
        {
          "duration": 0.2970295000000007,
          "durationTicks": 48,
          "midi": 48,
          "name": "C3",
          "ticks": 8232,
          "time": 50.94055925,
          "velocity": 1
        },
        {
          "duration": 0.8910885000000022,
          "durationTicks": 144,
          "midi": 48,
          "name": "C3",
          "ticks": 8280,
          "time": 51.23758875,
          "velocity": 1
        },
        {
          "duration": 0.5940590000000014,
          "durationTicks": 96,
          "midi": 48,
          "name": "C3",
          "ticks": 8424,
          "time": 52.12867725,
          "velocity": 1
        },
        {
          "duration": 0.44554424999999753,
          "durationTicks": 72,
          "midi": 48,
          "name": "C3",
          "ticks": 8520,
          "time": 52.722736250000004,
          "velocity": 1
        },
        {
          "duration": 0.2970295000000007,
          "durationTicks": 48,
          "midi": 48,
          "name": "C3",
          "ticks": 8592,
          "time": 53.1682805,
          "velocity": 1
        },
        {
          "duration": 0.8910885000000022,
          "durationTicks": 144,
          "midi": 48,
          "name": "C3",
          "ticks": 8640,
          "time": 53.46531,
          "velocity": 1
        },
        {
          "duration": 0.5940589999999943,
          "durationTicks": 96,
          "midi": 48,
          "name": "C3",
          "ticks": 8784,
          "time": 54.356398500000005,
          "velocity": 1
        },
        {
          "duration": 0.44554425000000464,
          "durationTicks": 72,
          "midi": 48,
          "name": "C3",
          "ticks": 8880,
          "time": 54.9504575,
          "velocity": 1
        },
        {
          "duration": 0.2970295000000007,
          "durationTicks": 48,
          "midi": 48,
          "name": "C3",
          "ticks": 8952,
          "time": 55.39600175,
          "velocity": 1
        },
        {
          "duration": 0.8910884999999951,
          "durationTicks": 144,
          "midi": 48,
          "name": "C3",
          "ticks": 9000,
          "time": 55.693031250000004,
          "velocity": 1
        },
        {
          "duration": 0.5940590000000014,
          "durationTicks": 96,
          "midi": 48,
          "name": "C3",
          "ticks": 9144,
          "time": 56.58411975,
          "velocity": 1
        },
        {
          "duration": 0.44554424999999753,
          "durationTicks": 72,
          "midi": 48,
          "name": "C3",
          "ticks": 9240,
          "time": 57.17817875,
          "velocity": 1
        },
        {
          "duration": 0.2970295000000007,
          "durationTicks": 48,
          "midi": 48,
          "name": "C3",
          "ticks": 9312,
          "time": 57.623723,
          "velocity": 1
        },
        {
          "duration": 0.8910885000000022,
          "durationTicks": 144,
          "midi": 48,
          "name": "C3",
          "ticks": 9360,
          "time": 57.9207525,
          "velocity": 1
        },
        {
          "duration": 0.5940590000000014,
          "durationTicks": 96,
          "midi": 48,
          "name": "C3",
          "ticks": 9504,
          "time": 58.811841,
          "velocity": 1
        },
        {
          "duration": 0.44554424999999753,
          "durationTicks": 72,
          "midi": 48,
          "name": "C3",
          "ticks": 9600,
          "time": 59.4059,
          "velocity": 1
        },
        {
          "duration": 0.2970295000000007,
          "durationTicks": 48,
          "midi": 48,
          "name": "C3",
          "ticks": 9672,
          "time": 59.85144425,
          "velocity": 1
        },
        {
          "duration": 0.8910885000000022,
          "durationTicks": 144,
          "midi": 48,
          "name": "C3",
          "ticks": 9720,
          "time": 60.14847375,
          "velocity": 1
        },
        {
          "duration": 0.5940590000000014,
          "durationTicks": 96,
          "midi": 48,
          "name": "C3",
          "ticks": 9864,
          "time": 61.03956225,
          "velocity": 1
        },
        {
          "duration": 0.44554424999999753,
          "durationTicks": 72,
          "midi": 48,
          "name": "C3",
          "ticks": 9960,
          "time": 61.633621250000004,
          "velocity": 1
        },
        {
          "duration": 0.2970295000000007,
          "durationTicks": 48,
          "midi": 48,
          "name": "C3",
          "ticks": 10032,
          "time": 62.0791655,
          "velocity": 1
        },
        {
          "duration": 0.8910884999999951,
          "durationTicks": 144,
          "midi": 48,
          "name": "C3",
          "ticks": 10080,
          "time": 62.376195,
          "velocity": 1
        },
        {
          "duration": 0.5940590000000014,
          "durationTicks": 96,
          "midi": 48,
          "name": "C3",
          "ticks": 10224,
          "time": 63.2672835,
          "velocity": 1
        },
        {
          "duration": 0.44554425000000464,
          "durationTicks": 72,
          "midi": 48,
          "name": "C3",
          "ticks": 10320,
          "time": 63.8613425,
          "velocity": 1
        },
        {
          "duration": 0.2970294999999936,
          "durationTicks": 48,
          "midi": 48,
          "name": "C3",
          "ticks": 10392,
          "time": 64.30688675,
          "velocity": 1
        },
        {
          "duration": 0.8910884999999951,
          "durationTicks": 144,
          "midi": 48,
          "name": "C3",
          "ticks": 10440,
          "time": 64.60391625,
          "velocity": 1
        },
        {
          "duration": 0.5940590000000157,
          "durationTicks": 96,
          "midi": 48,
          "name": "C3",
          "ticks": 10584,
          "time": 65.49500474999999,
          "velocity": 1
        },
        {
          "duration": 0.4455442499999833,
          "durationTicks": 72,
          "midi": 48,
          "name": "C3",
          "ticks": 10680,
          "time": 66.08906375000001,
          "velocity": 1
        },
        {
          "duration": 0.29702950000000783,
          "durationTicks": 48,
          "midi": 48,
          "name": "C3",
          "ticks": 10752,
          "time": 66.53460799999999,
          "velocity": 1
        },
        {
          "duration": 0.8910884999999951,
          "durationTicks": 144,
          "midi": 48,
          "name": "C3",
          "ticks": 10800,
          "time": 66.8316375,
          "velocity": 1
        },
        {
          "duration": 0.5940590000000157,
          "durationTicks": 96,
          "midi": 48,
          "name": "C3",
          "ticks": 10944,
          "time": 67.722726,
          "velocity": 1
        },
        {
          "duration": 0.4455442499999833,
          "durationTicks": 72,
          "midi": 48,
          "name": "C3",
          "ticks": 11040,
          "time": 68.31678500000001,
          "velocity": 1
        },
        {
          "duration": 0.29702950000000783,
          "durationTicks": 48,
          "midi": 48,
          "name": "C3",
          "ticks": 11112,
          "time": 68.76232925,
          "velocity": 1
        },
        {
          "duration": 0.8910884999999951,
          "durationTicks": 144,
          "midi": 48,
          "name": "C3",
          "ticks": 11160,
          "time": 69.05935875,
          "velocity": 1
        },
        {
          "duration": 0.5940590000000014,
          "durationTicks": 96,
          "midi": 48,
          "name": "C3",
          "ticks": 11304,
          "time": 69.95044725,
          "velocity": 1
        },
        {
          "duration": 0.44554424999999753,
          "durationTicks": 72,
          "midi": 48,
          "name": "C3",
          "ticks": 11400,
          "time": 70.54450625,
          "velocity": 1
        },
        {
          "duration": 0.29702950000000783,
          "durationTicks": 48,
          "midi": 48,
          "name": "C3",
          "ticks": 11472,
          "time": 70.9900505,
          "velocity": 1
        },
        {
          "duration": 0.8910884999999951,
          "durationTicks": 144,
          "midi": 48,
          "name": "C3",
          "ticks": 11520,
          "time": 71.28708,
          "velocity": 1
        },
        {
          "duration": 0.5940590000000014,
          "durationTicks": 96,
          "midi": 48,
          "name": "C3",
          "ticks": 11664,
          "time": 72.1781685,
          "velocity": 1
        },
        {
          "duration": 0.44554424999999753,
          "durationTicks": 72,
          "midi": 48,
          "name": "C3",
          "ticks": 11760,
          "time": 72.7722275,
          "velocity": 1
        },
        {
          "duration": 0.29702950000000783,
          "durationTicks": 48,
          "midi": 48,
          "name": "C3",
          "ticks": 11832,
          "time": 73.21777175,
          "velocity": 1
        },
        {
          "duration": 0.8910884999999951,
          "durationTicks": 144,
          "midi": 48,
          "name": "C3",
          "ticks": 11880,
          "time": 73.51480125,
          "velocity": 1
        },
        {
          "duration": 0.5940590000000014,
          "durationTicks": 96,
          "midi": 48,
          "name": "C3",
          "ticks": 12024,
          "time": 74.40588975,
          "velocity": 1
        },
        {
          "duration": 0.44554424999999753,
          "durationTicks": 72,
          "midi": 48,
          "name": "C3",
          "ticks": 12120,
          "time": 74.99994875,
          "velocity": 1
        },
        {
          "duration": 0.29702950000000783,
          "durationTicks": 48,
          "midi": 48,
          "name": "C3",
          "ticks": 12192,
          "time": 75.445493,
          "velocity": 1
        },
        {
          "duration": 0.8910884999999951,
          "durationTicks": 144,
          "midi": 48,
          "name": "C3",
          "ticks": 12240,
          "time": 75.7425225,
          "velocity": 1
        },
        {
          "duration": 0.5940590000000014,
          "durationTicks": 96,
          "midi": 48,
          "name": "C3",
          "ticks": 12384,
          "time": 76.633611,
          "velocity": 1
        },
        {
          "duration": 0.44554424999999753,
          "durationTicks": 72,
          "midi": 48,
          "name": "C3",
          "ticks": 12480,
          "time": 77.22767,
          "velocity": 1
        },
        {
          "duration": 0.29702950000000783,
          "durationTicks": 48,
          "midi": 48,
          "name": "C3",
          "ticks": 12552,
          "time": 77.67321425,
          "velocity": 1
        },
        {
          "duration": 0.8910884999999951,
          "durationTicks": 144,
          "midi": 48,
          "name": "C3",
          "ticks": 12600,
          "time": 77.97024375000001,
          "velocity": 1
        },
        {
          "duration": 0.5940589999999872,
          "durationTicks": 96,
          "midi": 48,
          "name": "C3",
          "ticks": 12744,
          "time": 78.86133225,
          "velocity": 1
        },
        {
          "duration": 0.44554425000001174,
          "durationTicks": 72,
          "midi": 48,
          "name": "C3",
          "ticks": 12840,
          "time": 79.45539124999999,
          "velocity": 1
        },
        {
          "duration": 0.29702950000000783,
          "durationTicks": 48,
          "midi": 48,
          "name": "C3",
          "ticks": 12912,
          "time": 79.9009355,
          "velocity": 1
        },
        {
          "duration": 1.930691749999994,
          "durationTicks": 312,
          "midi": 48,
          "name": "C3",
          "ticks": 12960,
          "time": 80.19796500000001,
          "velocity": 1
        },
        {
          "duration": 0.29702950000000783,
          "durationTicks": 48,
          "midi": 48,
          "name": "C3",
          "ticks": 13272,
          "time": 82.12865675,
          "velocity": 1
        },
        {
          "duration": 1.930691749999994,
          "durationTicks": 312,
          "midi": 48,
          "name": "C3",
          "ticks": 13320,
          "time": 82.42568625000001,
          "velocity": 1
        },
        {
          "duration": 0.29702950000000783,
          "durationTicks": 48,
          "midi": 48,
          "name": "C3",
          "ticks": 13632,
          "time": 84.356378,
          "velocity": 1
        },
        {
          "duration": 1.930691749999994,
          "durationTicks": 312,
          "midi": 48,
          "name": "C3",
          "ticks": 13680,
          "time": 84.65340750000001,
          "velocity": 1
        },
        {
          "duration": 0.29702950000000783,
          "durationTicks": 48,
          "midi": 48,
          "name": "C3",
          "ticks": 13992,
          "time": 86.58409925000001,
          "velocity": 1
        },
        {
          "duration": 1.6336622500000004,
          "durationTicks": 264,
          "midi": 48,
          "name": "C3",
          "ticks": 14040,
          "time": 86.88112875000002,
          "velocity": 1
        },
        {
          "duration": 0.5940590000000014,
          "durationTicks": 96,
          "midi": 48,
          "name": "C3",
          "ticks": 14304,
          "time": 88.51479100000002,
          "velocity": 1
        },
        {
          "duration": 1.7821770000000043,
          "durationTicks": 288,
          "midi": 48,
          "name": "C3",
          "ticks": 14352,
          "time": 88.81182050000001,
          "velocity": 1
        },
        {
          "duration": 1.930691749999994,
          "durationTicks": 312,
          "midi": 48,
          "name": "C3",
          "ticks": 14400,
          "time": 89.10885000000002,
          "velocity": 1
        },
        {
          "duration": 0.29702950000000783,
          "durationTicks": 48,
          "midi": 48,
          "name": "C3",
          "ticks": 14712,
          "time": 91.03954175000001,
          "velocity": 1
        },
        {
          "duration": 1.930691749999994,
          "durationTicks": 312,
          "midi": 48,
          "name": "C3",
          "ticks": 14760,
          "time": 91.33657125000002,
          "velocity": 1
        },
        {
          "duration": 0.29702950000000783,
          "durationTicks": 48,
          "midi": 48,
          "name": "C3",
          "ticks": 15072,
          "time": 93.26726300000001,
          "velocity": 1
        },
        {
          "duration": 3.8613835000000023,
          "durationTicks": 624,
          "midi": 48,
          "name": "C3",
          "ticks": 15120,
          "time": 93.56429250000002,
          "velocity": 1
        },
        {
          "duration": 0.44554424999999753,
          "durationTicks": 72,
          "midi": 48,
          "name": "C3",
          "ticks": 15720,
          "time": 97.27716125000002,
          "velocity": 0.4566929133858268
        },
        {
          "duration": 0.5940590000000014,
          "durationTicks": 96,
          "midi": 48,
          "name": "C3",
          "ticks": 15744,
          "time": 97.42567600000002,
          "velocity": 1
        },
        {
          "duration": 0.29702950000000783,
          "durationTicks": 48,
          "midi": 48,
          "name": "C3",
          "ticks": 15792,
          "time": 97.72270550000002,
          "velocity": 1
        },
        {
          "duration": 0.8910884999999951,
          "durationTicks": 144,
          "midi": 48,
          "name": "C3",
          "ticks": 15840,
          "time": 98.01973500000003,
          "velocity": 1
        },
        {
          "duration": 0.5940590000000014,
          "durationTicks": 96,
          "midi": 48,
          "name": "C3",
          "ticks": 15984,
          "time": 98.91082350000002,
          "velocity": 1
        },
        {
          "duration": 0.44554424999999753,
          "durationTicks": 72,
          "midi": 48,
          "name": "C3",
          "ticks": 16080,
          "time": 99.50488250000002,
          "velocity": 1
        },
        {
          "duration": 0.2970294999999936,
          "durationTicks": 48,
          "midi": 48,
          "name": "C3",
          "ticks": 16152,
          "time": 99.95042675000002,
          "velocity": 1
        },
        {
          "duration": 0.8910885000000093,
          "durationTicks": 144,
          "midi": 48,
          "name": "C3",
          "ticks": 16200,
          "time": 100.24745625000001,
          "velocity": 1
        },
        {
          "duration": 0.5940590000000014,
          "durationTicks": 96,
          "midi": 48,
          "name": "C3",
          "ticks": 16344,
          "time": 101.13854475000002,
          "velocity": 1
        },
        {
          "duration": 0.44554424999999753,
          "durationTicks": 72,
          "midi": 48,
          "name": "C3",
          "ticks": 16440,
          "time": 101.73260375000002,
          "velocity": 1
        },
        {
          "duration": 0.2970294999999936,
          "durationTicks": 48,
          "midi": 48,
          "name": "C3",
          "ticks": 16512,
          "time": 102.17814800000002,
          "velocity": 1
        },
        {
          "duration": 0.8910885000000093,
          "durationTicks": 144,
          "midi": 48,
          "name": "C3",
          "ticks": 16560,
          "time": 102.47517750000002,
          "velocity": 1
        },
        {
          "duration": 0.5940589999999872,
          "durationTicks": 96,
          "midi": 48,
          "name": "C3",
          "ticks": 16704,
          "time": 103.36626600000002,
          "velocity": 1
        },
        {
          "duration": 0.44554425000001174,
          "durationTicks": 72,
          "midi": 48,
          "name": "C3",
          "ticks": 16800,
          "time": 103.96032500000001,
          "velocity": 1
        },
        {
          "duration": 0.2970294999999936,
          "durationTicks": 48,
          "midi": 48,
          "name": "C3",
          "ticks": 16872,
          "time": 104.40586925000002,
          "velocity": 1
        },
        {
          "duration": 0.8910885000000093,
          "durationTicks": 144,
          "midi": 48,
          "name": "C3",
          "ticks": 16920,
          "time": 104.70289875000002,
          "velocity": 1
        },
        {
          "duration": 0.5940589999999872,
          "durationTicks": 96,
          "midi": 48,
          "name": "C3",
          "ticks": 17064,
          "time": 105.59398725000003,
          "velocity": 1
        },
        {
          "duration": 0.44554425000001174,
          "durationTicks": 72,
          "midi": 48,
          "name": "C3",
          "ticks": 17160,
          "time": 106.18804625000001,
          "velocity": 1
        },
        {
          "duration": 0.2970294999999936,
          "durationTicks": 48,
          "midi": 48,
          "name": "C3",
          "ticks": 17232,
          "time": 106.63359050000003,
          "velocity": 1
        },
        {
          "duration": 0.8910884999999951,
          "durationTicks": 144,
          "midi": 48,
          "name": "C3",
          "ticks": 17280,
          "time": 106.93062000000002,
          "velocity": 1
        },
        {
          "duration": 0.5940590000000014,
          "durationTicks": 96,
          "midi": 48,
          "name": "C3",
          "ticks": 17424,
          "time": 107.82170850000001,
          "velocity": 1
        },
        {
          "duration": 0.44554424999999753,
          "durationTicks": 72,
          "midi": 48,
          "name": "C3",
          "ticks": 17520,
          "time": 108.41576750000002,
          "velocity": 1
        },
        {
          "duration": 0.29702950000000783,
          "durationTicks": 48,
          "midi": 48,
          "name": "C3",
          "ticks": 17592,
          "time": 108.86131175000001,
          "velocity": 1
        },
        {
          "duration": 0.8910884999999951,
          "durationTicks": 144,
          "midi": 48,
          "name": "C3",
          "ticks": 17640,
          "time": 109.15834125000002,
          "velocity": 1
        },
        {
          "duration": 0.5940590000000014,
          "durationTicks": 96,
          "midi": 48,
          "name": "C3",
          "ticks": 17784,
          "time": 110.04942975000002,
          "velocity": 1
        },
        {
          "duration": 0.44554424999999753,
          "durationTicks": 72,
          "midi": 48,
          "name": "C3",
          "ticks": 17880,
          "time": 110.64348875000002,
          "velocity": 1
        },
        {
          "duration": 0.29702950000000783,
          "durationTicks": 48,
          "midi": 48,
          "name": "C3",
          "ticks": 17952,
          "time": 111.08903300000001,
          "velocity": 1
        },
        {
          "duration": 0.8910884999999951,
          "durationTicks": 144,
          "midi": 48,
          "name": "C3",
          "ticks": 18000,
          "time": 111.38606250000002,
          "velocity": 1
        },
        {
          "duration": 0.5940590000000014,
          "durationTicks": 96,
          "midi": 48,
          "name": "C3",
          "ticks": 18144,
          "time": 112.27715100000002,
          "velocity": 1
        },
        {
          "duration": 0.44554424999999753,
          "durationTicks": 72,
          "midi": 48,
          "name": "C3",
          "ticks": 18240,
          "time": 112.87121000000002,
          "velocity": 1
        },
        {
          "duration": 0.2970294999999936,
          "durationTicks": 48,
          "midi": 48,
          "name": "C3",
          "ticks": 18312,
          "time": 113.31675425000002,
          "velocity": 1
        },
        {
          "duration": 0.8910885000000093,
          "durationTicks": 144,
          "midi": 48,
          "name": "C3",
          "ticks": 18360,
          "time": 113.61378375000001,
          "velocity": 1
        },
        {
          "duration": 0.5940590000000014,
          "durationTicks": 96,
          "midi": 48,
          "name": "C3",
          "ticks": 18504,
          "time": 114.50487225000002,
          "velocity": 1
        },
        {
          "duration": 0.44554424999999753,
          "durationTicks": 72,
          "midi": 48,
          "name": "C3",
          "ticks": 18600,
          "time": 115.09893125000002,
          "velocity": 1
        },
        {
          "duration": 0.2970294999999936,
          "durationTicks": 48,
          "midi": 48,
          "name": "C3",
          "ticks": 18672,
          "time": 115.54447550000002,
          "velocity": 1
        },
        {
          "duration": 0.8910885000000093,
          "durationTicks": 144,
          "midi": 48,
          "name": "C3",
          "ticks": 18720,
          "time": 115.84150500000001,
          "velocity": 1
        },
        {
          "duration": 0.5940590000000014,
          "durationTicks": 96,
          "midi": 48,
          "name": "C3",
          "ticks": 18864,
          "time": 116.73259350000002,
          "velocity": 1
        },
        {
          "duration": 0.44554424999999753,
          "durationTicks": 72,
          "midi": 48,
          "name": "C3",
          "ticks": 18960,
          "time": 117.32665250000002,
          "velocity": 1
        },
        {
          "duration": 0.2970294999999936,
          "durationTicks": 48,
          "midi": 48,
          "name": "C3",
          "ticks": 19032,
          "time": 117.77219675000002,
          "velocity": 1
        },
        {
          "duration": 0.8910885000000093,
          "durationTicks": 144,
          "midi": 48,
          "name": "C3",
          "ticks": 19080,
          "time": 118.06922625000001,
          "velocity": 1
        },
        {
          "duration": 0.5940590000000014,
          "durationTicks": 96,
          "midi": 48,
          "name": "C3",
          "ticks": 19224,
          "time": 118.96031475000002,
          "velocity": 1
        },
        {
          "duration": 0.44554424999999753,
          "durationTicks": 72,
          "midi": 48,
          "name": "C3",
          "ticks": 19320,
          "time": 119.55437375000002,
          "velocity": 1
        },
        {
          "duration": 0.2970294999999936,
          "durationTicks": 48,
          "midi": 48,
          "name": "C3",
          "ticks": 19392,
          "time": 119.99991800000002,
          "velocity": 1
        },
        {
          "duration": 0.8910884999999951,
          "durationTicks": 144,
          "midi": 48,
          "name": "C3",
          "ticks": 19440,
          "time": 120.29694750000002,
          "velocity": 1
        },
        {
          "duration": 0.5940590000000157,
          "durationTicks": 96,
          "midi": 48,
          "name": "C3",
          "ticks": 19584,
          "time": 121.18803600000001,
          "velocity": 1
        },
        {
          "duration": 0.4455442499999833,
          "durationTicks": 72,
          "midi": 48,
          "name": "C3",
          "ticks": 19680,
          "time": 121.78209500000003,
          "velocity": 1
        },
        {
          "duration": 0.29702950000000783,
          "durationTicks": 48,
          "midi": 48,
          "name": "C3",
          "ticks": 19752,
          "time": 122.22763925000001,
          "velocity": 1
        },
        {
          "duration": 0.8910884999999951,
          "durationTicks": 144,
          "midi": 48,
          "name": "C3",
          "ticks": 19800,
          "time": 122.52466875000002,
          "velocity": 1
        },
        {
          "duration": 0.5940590000000157,
          "durationTicks": 96,
          "midi": 48,
          "name": "C3",
          "ticks": 19944,
          "time": 123.41575725000001,
          "velocity": 1
        },
        {
          "duration": 0.4455442499999833,
          "durationTicks": 72,
          "midi": 48,
          "name": "C3",
          "ticks": 20040,
          "time": 124.00981625000003,
          "velocity": 1
        },
        {
          "duration": 0.29702950000000783,
          "durationTicks": 48,
          "midi": 48,
          "name": "C3",
          "ticks": 20112,
          "time": 124.45536050000001,
          "velocity": 1
        },
        {
          "duration": 0.8910884999999951,
          "durationTicks": 144,
          "midi": 48,
          "name": "C3",
          "ticks": 20160,
          "time": 124.75239000000002,
          "velocity": 1
        },
        {
          "duration": 0.5940590000000014,
          "durationTicks": 96,
          "midi": 48,
          "name": "C3",
          "ticks": 20304,
          "time": 125.64347850000001,
          "velocity": 1
        },
        {
          "duration": 0.44554424999999753,
          "durationTicks": 72,
          "midi": 48,
          "name": "C3",
          "ticks": 20400,
          "time": 126.23753750000002,
          "velocity": 1
        },
        {
          "duration": 0.29702950000000783,
          "durationTicks": 48,
          "midi": 48,
          "name": "C3",
          "ticks": 20472,
          "time": 126.68308175000001,
          "velocity": 1
        },
        {
          "duration": 0.8910884999999951,
          "durationTicks": 144,
          "midi": 48,
          "name": "C3",
          "ticks": 20520,
          "time": 126.98011125000002,
          "velocity": 1
        },
        {
          "duration": 0.5940590000000157,
          "durationTicks": 96,
          "midi": 48,
          "name": "C3",
          "ticks": 20664,
          "time": 127.87119975000002,
          "velocity": 1
        },
        {
          "duration": 0.4455442499999833,
          "durationTicks": 72,
          "midi": 48,
          "name": "C3",
          "ticks": 20760,
          "time": 128.46525875000003,
          "velocity": 1
        },
        {
          "duration": 0.29702950000000783,
          "durationTicks": 48,
          "midi": 48,
          "name": "C3",
          "ticks": 20832,
          "time": 128.91080300000002,
          "velocity": 1
        },
        {
          "duration": 0.8910884999999951,
          "durationTicks": 144,
          "midi": 48,
          "name": "C3",
          "ticks": 20880,
          "time": 129.20783250000002,
          "velocity": 1
        },
        {
          "duration": 0.5940590000000157,
          "durationTicks": 96,
          "midi": 48,
          "name": "C3",
          "ticks": 21024,
          "time": 130.09892100000002,
          "velocity": 1
        },
        {
          "duration": 0.4455442499999833,
          "durationTicks": 72,
          "midi": 48,
          "name": "C3",
          "ticks": 21120,
          "time": 130.69298000000003,
          "velocity": 1
        },
        {
          "duration": 0.29702950000000783,
          "durationTicks": 48,
          "midi": 48,
          "name": "C3",
          "ticks": 21192,
          "time": 131.13852425000002,
          "velocity": 1
        },
        {
          "duration": 0.8910884999999951,
          "durationTicks": 144,
          "midi": 48,
          "name": "C3",
          "ticks": 21240,
          "time": 131.43555375000003,
          "velocity": 1
        },
        {
          "duration": 0.5940590000000157,
          "durationTicks": 96,
          "midi": 48,
          "name": "C3",
          "ticks": 21384,
          "time": 132.32664225000002,
          "velocity": 1
        },
        {
          "duration": 0.4455442499999833,
          "durationTicks": 72,
          "midi": 48,
          "name": "C3",
          "ticks": 21480,
          "time": 132.92070125000004,
          "velocity": 1
        },
        {
          "duration": 0.29702950000000783,
          "durationTicks": 48,
          "midi": 48,
          "name": "C3",
          "ticks": 21552,
          "time": 133.36624550000002,
          "velocity": 1
        },
        {
          "duration": 0.8910884999999951,
          "durationTicks": 144,
          "midi": 48,
          "name": "C3",
          "ticks": 21600,
          "time": 133.66327500000003,
          "velocity": 1
        },
        {
          "duration": 0.5940589999999872,
          "durationTicks": 96,
          "midi": 48,
          "name": "C3",
          "ticks": 21744,
          "time": 134.55436350000002,
          "velocity": 1
        },
        {
          "duration": 0.44554425000001174,
          "durationTicks": 72,
          "midi": 48,
          "name": "C3",
          "ticks": 21840,
          "time": 135.1484225,
          "velocity": 1
        },
        {
          "duration": 0.29702950000000783,
          "durationTicks": 48,
          "midi": 48,
          "name": "C3",
          "ticks": 21912,
          "time": 135.59396675000002,
          "velocity": 1
        },
        {
          "duration": 0.8910884999999951,
          "durationTicks": 144,
          "midi": 48,
          "name": "C3",
          "ticks": 21960,
          "time": 135.89099625000003,
          "velocity": 1
        },
        {
          "duration": 0.5940589999999872,
          "durationTicks": 96,
          "midi": 48,
          "name": "C3",
          "ticks": 22104,
          "time": 136.78208475000002,
          "velocity": 1
        },
        {
          "duration": 0.44554425000001174,
          "durationTicks": 72,
          "midi": 48,
          "name": "C3",
          "ticks": 22200,
          "time": 137.37614375,
          "velocity": 1
        },
        {
          "duration": 0.2970294999999794,
          "durationTicks": 48,
          "midi": 48,
          "name": "C3",
          "ticks": 22272,
          "time": 137.82168800000002,
          "velocity": 1
        },
        {
          "duration": 0.8910885000000235,
          "durationTicks": 144,
          "midi": 48,
          "name": "C3",
          "ticks": 22320,
          "time": 138.1187175,
          "velocity": 1
        },
        {
          "duration": 0.5940589999999872,
          "durationTicks": 96,
          "midi": 48,
          "name": "C3",
          "ticks": 22464,
          "time": 139.00980600000003,
          "velocity": 1
        },
        {
          "duration": 0.44554425000001174,
          "durationTicks": 72,
          "midi": 48,
          "name": "C3",
          "ticks": 22560,
          "time": 139.603865,
          "velocity": 1
        },
        {
          "duration": 0.2970294999999794,
          "durationTicks": 48,
          "midi": 48,
          "name": "C3",
          "ticks": 22632,
          "time": 140.04940925000002,
          "velocity": 1
        },
        {
          "duration": 0.8910885000000235,
          "durationTicks": 144,
          "midi": 48,
          "name": "C3",
          "ticks": 22680,
          "time": 140.34643875,
          "velocity": 1
        },
        {
          "duration": 0.5940589999999872,
          "durationTicks": 96,
          "midi": 48,
          "name": "C3",
          "ticks": 22824,
          "time": 141.23752725000003,
          "velocity": 1
        },
        {
          "duration": 0.44554425000001174,
          "durationTicks": 72,
          "midi": 48,
          "name": "C3",
          "ticks": 22920,
          "time": 141.83158625000002,
          "velocity": 1
        },
        {
          "duration": 0.3155938437500083,
          "durationTicks": 51,
          "midi": 48,
          "name": "C3",
          "ticks": 22992,
          "time": 142.27713050000003,
          "velocity": 1
        },
        {
          "duration": 0.8725241562499946,
          "durationTicks": 141,
          "midi": 48,
          "name": "C3",
          "ticks": 23043,
          "time": 142.59272434375004,
          "velocity": 1
        },
        {
          "duration": 7.722766999999976,
          "durationTicks": 1248,
          "midi": 48,
          "name": "C3",
          "ticks": 23184,
          "time": 143.46524850000003,
          "velocity": 1
        },
        {
          "duration": 0.8910884999999951,
          "durationTicks": 144,
          "midi": 48,
          "name": "C3",
          "ticks": 24480,
          "time": 151.485045,
          "velocity": 1
        },
        {
          "duration": 0.5940590000000157,
          "durationTicks": 96,
          "midi": 48,
          "name": "C3",
          "ticks": 24624,
          "time": 152.3761335,
          "velocity": 1
        },
        {
          "duration": 0.4455442499999833,
          "durationTicks": 72,
          "midi": 48,
          "name": "C3",
          "ticks": 24720,
          "time": 152.97019250000002,
          "velocity": 1
        },
        {
          "duration": 0.29702950000000783,
          "durationTicks": 48,
          "midi": 48,
          "name": "C3",
          "ticks": 24792,
          "time": 153.41573675,
          "velocity": 1
        },
        {
          "duration": 0.8910885000000235,
          "durationTicks": 144,
          "midi": 48,
          "name": "C3",
          "ticks": 24840,
          "time": 153.71276625000002,
          "velocity": 1
        },
        {
          "duration": 0.5940589999999588,
          "durationTicks": 96,
          "midi": 48,
          "name": "C3",
          "ticks": 24984,
          "time": 154.60385475000004,
          "velocity": 1
        },
        {
          "duration": 0.44554425000001174,
          "durationTicks": 72,
          "midi": 48,
          "name": "C3",
          "ticks": 25080,
          "time": 155.19791375,
          "velocity": 1
        },
        {
          "duration": 0.29702950000000783,
          "durationTicks": 48,
          "midi": 48,
          "name": "C3",
          "ticks": 25152,
          "time": 155.643458,
          "velocity": 1
        },
        {
          "duration": 0.8910884999999951,
          "durationTicks": 144,
          "midi": 48,
          "name": "C3",
          "ticks": 25200,
          "time": 155.94048750000002,
          "velocity": 1
        },
        {
          "duration": 0.5940589999999872,
          "durationTicks": 96,
          "midi": 48,
          "name": "C3",
          "ticks": 25344,
          "time": 156.831576,
          "velocity": 1
        },
        {
          "duration": 0.44554425000001174,
          "durationTicks": 72,
          "midi": 48,
          "name": "C3",
          "ticks": 25440,
          "time": 157.425635,
          "velocity": 1
        },
        {
          "duration": 0.29702950000000783,
          "durationTicks": 48,
          "midi": 48,
          "name": "C3",
          "ticks": 25512,
          "time": 157.87117925,
          "velocity": 1
        },
        {
          "duration": 0.8910884999999951,
          "durationTicks": 144,
          "midi": 48,
          "name": "C3",
          "ticks": 25560,
          "time": 158.16820875000002,
          "velocity": 1
        },
        {
          "duration": 0.5940589999999872,
          "durationTicks": 96,
          "midi": 48,
          "name": "C3",
          "ticks": 25704,
          "time": 159.05929725000001,
          "velocity": 1
        },
        {
          "duration": 0.44554425000001174,
          "durationTicks": 72,
          "midi": 48,
          "name": "C3",
          "ticks": 25800,
          "time": 159.65335625,
          "velocity": 1
        },
        {
          "duration": 0.29702950000000783,
          "durationTicks": 48,
          "midi": 48,
          "name": "C3",
          "ticks": 25872,
          "time": 160.0989005,
          "velocity": 1
        },
        {
          "duration": 0.8910884999999951,
          "durationTicks": 144,
          "midi": 48,
          "name": "C3",
          "ticks": 25920,
          "time": 160.39593000000002,
          "velocity": 1
        },
        {
          "duration": 0.5940589999999872,
          "durationTicks": 96,
          "midi": 48,
          "name": "C3",
          "ticks": 26064,
          "time": 161.28701850000002,
          "velocity": 1
        },
        {
          "duration": 0.44554425000001174,
          "durationTicks": 72,
          "midi": 48,
          "name": "C3",
          "ticks": 26160,
          "time": 161.8810775,
          "velocity": 1
        },
        {
          "duration": 0.29702950000000783,
          "durationTicks": 48,
          "midi": 48,
          "name": "C3",
          "ticks": 26232,
          "time": 162.32662175000002,
          "velocity": 1
        },
        {
          "duration": 0.8910884999999951,
          "durationTicks": 144,
          "midi": 48,
          "name": "C3",
          "ticks": 26280,
          "time": 162.62365125000002,
          "velocity": 1
        },
        {
          "duration": 0.5940589999999872,
          "durationTicks": 96,
          "midi": 48,
          "name": "C3",
          "ticks": 26424,
          "time": 163.51473975000002,
          "velocity": 1
        },
        {
          "duration": 0.44554425000001174,
          "durationTicks": 72,
          "midi": 48,
          "name": "C3",
          "ticks": 26520,
          "time": 164.10879875,
          "velocity": 1
        },
        {
          "duration": 0.29702950000000783,
          "durationTicks": 48,
          "midi": 48,
          "name": "C3",
          "ticks": 26592,
          "time": 164.55434300000002,
          "velocity": 1
        },
        {
          "duration": 0.5940589999999872,
          "durationTicks": 96,
          "midi": 48,
          "name": "C3",
          "ticks": 26784,
          "time": 165.74246100000002,
          "velocity": 1
        },
        {
          "duration": 0.44554425000001174,
          "durationTicks": 72,
          "midi": 48,
          "name": "C3",
          "ticks": 26880,
          "time": 166.33652,
          "velocity": 1
        },
        {
          "duration": 0.29702950000000783,
          "durationTicks": 48,
          "midi": 48,
          "name": "C3",
          "ticks": 26952,
          "time": 166.78206425000002,
          "velocity": 1
        },
        {
          "duration": 0.8910884999999951,
          "durationTicks": 144,
          "midi": 48,
          "name": "C3",
          "ticks": 27000,
          "time": 167.07909375000003,
          "velocity": 1
        },
        {
          "duration": 0.5940589999999872,
          "durationTicks": 96,
          "midi": 48,
          "name": "C3",
          "ticks": 27144,
          "time": 167.97018225000002,
          "velocity": 1
        },
        {
          "duration": 0.44554425000001174,
          "durationTicks": 72,
          "midi": 48,
          "name": "C3",
          "ticks": 27240,
          "time": 168.56424125,
          "velocity": 1
        },
        {
          "duration": 0.29702950000000783,
          "durationTicks": 48,
          "midi": 48,
          "name": "C3",
          "ticks": 27312,
          "time": 169.00978550000002,
          "velocity": 1
        },
        {
          "duration": 0.8910884999999951,
          "durationTicks": 144,
          "midi": 48,
          "name": "C3",
          "ticks": 27360,
          "time": 169.30681500000003,
          "velocity": 1
        },
        {
          "duration": 0.5940589999999872,
          "durationTicks": 96,
          "midi": 48,
          "name": "C3",
          "ticks": 27504,
          "time": 170.19790350000002,
          "velocity": 1
        },
        {
          "duration": 0.44554425000001174,
          "durationTicks": 72,
          "midi": 48,
          "name": "C3",
          "ticks": 27600,
          "time": 170.7919625,
          "velocity": 1
        },
        {
          "duration": 0.29702950000000783,
          "durationTicks": 48,
          "midi": 48,
          "name": "C3",
          "ticks": 27672,
          "time": 171.23750675000002,
          "velocity": 1
        },
        {
          "duration": 0.8910884999999951,
          "durationTicks": 144,
          "midi": 48,
          "name": "C3",
          "ticks": 27720,
          "time": 171.53453625000003,
          "velocity": 1
        },
        {
          "duration": 0.5940589999999872,
          "durationTicks": 96,
          "midi": 48,
          "name": "C3",
          "ticks": 27864,
          "time": 172.42562475000003,
          "velocity": 1
        },
        {
          "duration": 0.44554425000001174,
          "durationTicks": 72,
          "midi": 48,
          "name": "C3",
          "ticks": 27960,
          "time": 173.01968375,
          "velocity": 1
        },
        {
          "duration": 0.29702950000000783,
          "durationTicks": 48,
          "midi": 48,
          "name": "C3",
          "ticks": 28032,
          "time": 173.46522800000002,
          "velocity": 1
        },
        {
          "duration": 0.5940590000000157,
          "durationTicks": 96,
          "midi": 48,
          "name": "C3",
          "ticks": 28224,
          "time": 174.653346,
          "velocity": 1
        },
        {
          "duration": 0.44554425000001174,
          "durationTicks": 72,
          "midi": 48,
          "name": "C3",
          "ticks": 28320,
          "time": 175.24740500000001,
          "velocity": 1
        },
        {
          "duration": 0.29702950000000783,
          "durationTicks": 48,
          "midi": 48,
          "name": "C3",
          "ticks": 28392,
          "time": 175.69294925000003,
          "velocity": 1
        },
        {
          "duration": 0.8910884999999666,
          "durationTicks": 144,
          "midi": 48,
          "name": "C3",
          "ticks": 28440,
          "time": 175.98997875000003,
          "velocity": 1
        },
        {
          "duration": 0.5940590000000157,
          "durationTicks": 96,
          "midi": 48,
          "name": "C3",
          "ticks": 28584,
          "time": 176.88106725,
          "velocity": 1
        },
        {
          "duration": 0.44554425000001174,
          "durationTicks": 72,
          "midi": 48,
          "name": "C3",
          "ticks": 28680,
          "time": 177.47512625000002,
          "velocity": 1
        },
        {
          "duration": 0.29702950000000783,
          "durationTicks": 48,
          "midi": 48,
          "name": "C3",
          "ticks": 28752,
          "time": 177.92067050000003,
          "velocity": 1
        },
        {
          "duration": 0.8910884999999666,
          "durationTicks": 144,
          "midi": 48,
          "name": "C3",
          "ticks": 28800,
          "time": 178.21770000000004,
          "velocity": 1
        },
        {
          "duration": 0.5940590000000157,
          "durationTicks": 96,
          "midi": 48,
          "name": "C3",
          "ticks": 28944,
          "time": 179.1087885,
          "velocity": 1
        },
        {
          "duration": 0.44554425000001174,
          "durationTicks": 72,
          "midi": 48,
          "name": "C3",
          "ticks": 29040,
          "time": 179.70284750000002,
          "velocity": 1
        },
        {
          "duration": 0.29702950000000783,
          "durationTicks": 48,
          "midi": 48,
          "name": "C3",
          "ticks": 29112,
          "time": 180.14839175000003,
          "velocity": 1
        },
        {
          "duration": 0.8910884999999666,
          "durationTicks": 144,
          "midi": 48,
          "name": "C3",
          "ticks": 29160,
          "time": 180.44542125000004,
          "velocity": 1
        },
        {
          "duration": 0.5940590000000157,
          "durationTicks": 96,
          "midi": 48,
          "name": "C3",
          "ticks": 29304,
          "time": 181.33650975,
          "velocity": 1
        },
        {
          "duration": 0.44554425000001174,
          "durationTicks": 72,
          "midi": 48,
          "name": "C3",
          "ticks": 29400,
          "time": 181.93056875000002,
          "velocity": 1
        },
        {
          "duration": 0.29702950000000783,
          "durationTicks": 48,
          "midi": 48,
          "name": "C3",
          "ticks": 29472,
          "time": 182.37611300000003,
          "velocity": 1
        },
        {
          "duration": 0.8910884999999666,
          "durationTicks": 144,
          "midi": 48,
          "name": "C3",
          "ticks": 29520,
          "time": 182.67314250000004,
          "velocity": 1
        },
        {
          "duration": 0.5940590000000157,
          "durationTicks": 96,
          "midi": 48,
          "name": "C3",
          "ticks": 29664,
          "time": 183.564231,
          "velocity": 1
        },
        {
          "duration": 0.44554425000001174,
          "durationTicks": 72,
          "midi": 48,
          "name": "C3",
          "ticks": 29760,
          "time": 184.15829000000002,
          "velocity": 1
        },
        {
          "duration": 0.2970294999999794,
          "durationTicks": 48,
          "midi": 48,
          "name": "C3",
          "ticks": 29832,
          "time": 184.60383425000003,
          "velocity": 1
        },
        {
          "duration": 0.8910884999999951,
          "durationTicks": 144,
          "midi": 48,
          "name": "C3",
          "ticks": 29880,
          "time": 184.90086375,
          "velocity": 1
        },
        {
          "duration": 0.5940590000000157,
          "durationTicks": 96,
          "midi": 48,
          "name": "C3",
          "ticks": 30024,
          "time": 185.79195225,
          "velocity": 1
        },
        {
          "duration": 0.44554425000001174,
          "durationTicks": 72,
          "midi": 48,
          "name": "C3",
          "ticks": 30120,
          "time": 186.38601125000002,
          "velocity": 1
        },
        {
          "duration": 0.2970294999999794,
          "durationTicks": 48,
          "midi": 48,
          "name": "C3",
          "ticks": 30192,
          "time": 186.83155550000004,
          "velocity": 1
        },
        {
          "duration": 0.8910884999999951,
          "durationTicks": 144,
          "midi": 48,
          "name": "C3",
          "ticks": 30240,
          "time": 187.12858500000002,
          "velocity": 1
        },
        {
          "duration": 0.5940590000000157,
          "durationTicks": 96,
          "midi": 48,
          "name": "C3",
          "ticks": 30384,
          "time": 188.0196735,
          "velocity": 1
        },
        {
          "duration": 0.44554425000001174,
          "durationTicks": 72,
          "midi": 48,
          "name": "C3",
          "ticks": 30480,
          "time": 188.61373250000003,
          "velocity": 1
        },
        {
          "duration": 0.2970294999999794,
          "durationTicks": 48,
          "midi": 48,
          "name": "C3",
          "ticks": 30552,
          "time": 189.05927675000004,
          "velocity": 1
        },
        {
          "duration": 0.8910884999999951,
          "durationTicks": 144,
          "midi": 48,
          "name": "C3",
          "ticks": 30600,
          "time": 189.35630625000002,
          "velocity": 1
        },
        {
          "duration": 0.5940590000000157,
          "durationTicks": 96,
          "midi": 48,
          "name": "C3",
          "ticks": 30744,
          "time": 190.24739475,
          "velocity": 1
        },
        {
          "duration": 0.44554425000001174,
          "durationTicks": 72,
          "midi": 48,
          "name": "C3",
          "ticks": 30840,
          "time": 190.84145375000003,
          "velocity": 1
        },
        {
          "duration": 0.2970294999999794,
          "durationTicks": 48,
          "midi": 48,
          "name": "C3",
          "ticks": 30912,
          "time": 191.28699800000004,
          "velocity": 1
        },
        {
          "duration": 0.8910884999999951,
          "durationTicks": 144,
          "midi": 48,
          "name": "C3",
          "ticks": 30960,
          "time": 191.58402750000002,
          "velocity": 1
        },
        {
          "duration": 0.5940590000000157,
          "durationTicks": 96,
          "midi": 48,
          "name": "C3",
          "ticks": 31104,
          "time": 192.475116,
          "velocity": 1
        },
        {
          "duration": 0.4455442499999833,
          "durationTicks": 72,
          "midi": 48,
          "name": "C3",
          "ticks": 31200,
          "time": 193.06917500000003,
          "velocity": 1
        },
        {
          "duration": 0.29702950000000783,
          "durationTicks": 48,
          "midi": 48,
          "name": "C3",
          "ticks": 31272,
          "time": 193.51471925,
          "velocity": 1
        },
        {
          "duration": 0.8910884999999951,
          "durationTicks": 144,
          "midi": 48,
          "name": "C3",
          "ticks": 31320,
          "time": 193.81174875000002,
          "velocity": 1
        },
        {
          "duration": 0.5940590000000157,
          "durationTicks": 96,
          "midi": 48,
          "name": "C3",
          "ticks": 31464,
          "time": 194.70283725000002,
          "velocity": 1
        },
        {
          "duration": 0.4455442499999833,
          "durationTicks": 72,
          "midi": 48,
          "name": "C3",
          "ticks": 31560,
          "time": 195.29689625000003,
          "velocity": 1
        },
        {
          "duration": 0.29702950000000783,
          "durationTicks": 48,
          "midi": 48,
          "name": "C3",
          "ticks": 31632,
          "time": 195.74244050000001,
          "velocity": 1
        },
        {
          "duration": 0.8910884999999951,
          "durationTicks": 144,
          "midi": 48,
          "name": "C3",
          "ticks": 31680,
          "time": 196.03947000000002,
          "velocity": 1
        },
        {
          "duration": 0.5940590000000157,
          "durationTicks": 96,
          "midi": 48,
          "name": "C3",
          "ticks": 31824,
          "time": 196.93055850000002,
          "velocity": 1
        },
        {
          "duration": 0.4455442499999833,
          "durationTicks": 72,
          "midi": 48,
          "name": "C3",
          "ticks": 31920,
          "time": 197.52461750000003,
          "velocity": 1
        },
        {
          "duration": 0.29702950000000783,
          "durationTicks": 48,
          "midi": 48,
          "name": "C3",
          "ticks": 31992,
          "time": 197.97016175000002,
          "velocity": 1
        },
        {
          "duration": 0.8910884999999951,
          "durationTicks": 144,
          "midi": 48,
          "name": "C3",
          "ticks": 32040,
          "time": 198.26719125000002,
          "velocity": 1
        },
        {
          "duration": 0.5940590000000157,
          "durationTicks": 96,
          "midi": 48,
          "name": "C3",
          "ticks": 32184,
          "time": 199.15827975000002,
          "velocity": 1
        },
        {
          "duration": 0.4455442499999833,
          "durationTicks": 72,
          "midi": 48,
          "name": "C3",
          "ticks": 32280,
          "time": 199.75233875000004,
          "velocity": 1
        },
        {
          "duration": 0.2970294999999794,
          "durationTicks": 48,
          "midi": 48,
          "name": "C3",
          "ticks": 32352,
          "time": 200.19788300000002,
          "velocity": 1
        },
        {
          "duration": 0.8910885000000235,
          "durationTicks": 144,
          "midi": 48,
          "name": "C3",
          "ticks": 32400,
          "time": 200.4949125,
          "velocity": 1
        },
        {
          "duration": 0.5940590000000157,
          "durationTicks": 96,
          "midi": 48,
          "name": "C3",
          "ticks": 32544,
          "time": 201.38600100000002,
          "velocity": 1
        },
        {
          "duration": 0.4455442499999833,
          "durationTicks": 72,
          "midi": 48,
          "name": "C3",
          "ticks": 32640,
          "time": 201.98006000000004,
          "velocity": 1
        },
        {
          "duration": 0.2970294999999794,
          "durationTicks": 48,
          "midi": 48,
          "name": "C3",
          "ticks": 32712,
          "time": 202.42560425000002,
          "velocity": 1
        },
        {
          "duration": 0.8910885000000235,
          "durationTicks": 144,
          "midi": 48,
          "name": "C3",
          "ticks": 32760,
          "time": 202.72263375,
          "velocity": 1
        },
        {
          "duration": 0.5940590000000157,
          "durationTicks": 96,
          "midi": 48,
          "name": "C3",
          "ticks": 32904,
          "time": 203.61372225000002,
          "velocity": 1
        },
        {
          "duration": 0.4455442499999833,
          "durationTicks": 72,
          "midi": 48,
          "name": "C3",
          "ticks": 33000,
          "time": 204.20778125000004,
          "velocity": 1
        },
        {
          "duration": 0.2970294999999794,
          "durationTicks": 48,
          "midi": 48,
          "name": "C3",
          "ticks": 33072,
          "time": 204.65332550000002,
          "velocity": 1
        },
        {
          "duration": 1.930691749999994,
          "durationTicks": 312,
          "midi": 48,
          "name": "C3",
          "ticks": 33120,
          "time": 204.950355,
          "velocity": 1
        },
        {
          "duration": 0.29702950000000783,
          "durationTicks": 48,
          "midi": 48,
          "name": "C3",
          "ticks": 33432,
          "time": 206.88104675,
          "velocity": 1
        },
        {
          "duration": 1.930691749999994,
          "durationTicks": 312,
          "midi": 48,
          "name": "C3",
          "ticks": 33480,
          "time": 207.17807625,
          "velocity": 1
        },
        {
          "duration": 0.29702950000000783,
          "durationTicks": 48,
          "midi": 48,
          "name": "C3",
          "ticks": 33792,
          "time": 209.108768,
          "velocity": 1
        },
        {
          "duration": 1.930691749999994,
          "durationTicks": 312,
          "midi": 48,
          "name": "C3",
          "ticks": 33840,
          "time": 209.4057975,
          "velocity": 1
        },
        {
          "duration": 0.29702950000000783,
          "durationTicks": 48,
          "midi": 48,
          "name": "C3",
          "ticks": 34152,
          "time": 211.33648925,
          "velocity": 1
        },
        {
          "duration": 1.6336622499999862,
          "durationTicks": 264,
          "midi": 48,
          "name": "C3",
          "ticks": 34200,
          "time": 211.63351875,
          "velocity": 1
        },
        {
          "duration": 0.5940590000000157,
          "durationTicks": 96,
          "midi": 48,
          "name": "C3",
          "ticks": 34464,
          "time": 213.267181,
          "velocity": 1
        },
        {
          "duration": 2.227721250000002,
          "durationTicks": 360,
          "midi": 48,
          "name": "C3",
          "ticks": 34512,
          "time": 213.5642105,
          "velocity": 1
        },
        {
          "duration": 2.227721250000002,
          "durationTicks": 360,
          "midi": 48,
          "name": "C3",
          "ticks": 34560,
          "time": 213.86124,
          "velocity": 1
        },
        {
          "duration": 2.227721250000002,
          "durationTicks": 360,
          "midi": 48,
          "name": "C3",
          "ticks": 34872,
          "time": 215.79193175,
          "velocity": 1
        },
        {
          "duration": 1.930691749999994,
          "durationTicks": 312,
          "midi": 48,
          "name": "C3",
          "ticks": 34920,
          "time": 216.08896125,
          "velocity": 1
        },
        {
          "duration": 0.29702950000000783,
          "durationTicks": 48,
          "midi": 48,
          "name": "C3",
          "ticks": 35232,
          "time": 218.019653,
          "velocity": 1
        },
        {
          "duration": 1.930691749999994,
          "durationTicks": 312,
          "midi": 48,
          "name": "C3",
          "ticks": 35280,
          "time": 218.3166825,
          "velocity": 1
        },
        {
          "duration": 0.29702950000000783,
          "durationTicks": 48,
          "midi": 48,
          "name": "C3",
          "ticks": 35592,
          "time": 220.24737425,
          "velocity": 1
        },
        {
          "duration": 1.3366327499999784,
          "durationTicks": 216,
          "midi": 48,
          "name": "C3",
          "ticks": 35640,
          "time": 220.54440375000001,
          "velocity": 1
        },
        {
          "duration": 0.5940590000000157,
          "durationTicks": 96,
          "midi": 48,
          "name": "C3",
          "ticks": 35856,
          "time": 221.8810365,
          "velocity": 1
        },
        {
          "duration": 0.44554425000001174,
          "durationTicks": 72,
          "midi": 48,
          "name": "C3",
          "ticks": 35904,
          "time": 222.178066,
          "velocity": 1
        },
        {
          "duration": 0.44554425000001174,
          "durationTicks": 72,
          "midi": 48,
          "name": "C3",
          "ticks": 36000,
          "time": 222.77212500000002,
          "velocity": 1
        },
        {
          "duration": 0.4455442499999833,
          "durationTicks": 72,
          "midi": 48,
          "name": "C3",
          "ticks": 36072,
          "time": 223.21766925000003,
          "velocity": 0.5039370078740157
        },
        {
          "duration": 0.5940590000000157,
          "durationTicks": 96,
          "midi": 48,
          "name": "C3",
          "ticks": 36144,
          "time": 223.6632135,
          "velocity": 1
        },
        {
          "duration": 0.4455442499999833,
          "durationTicks": 72,
          "midi": 48,
          "name": "C3",
          "ticks": 36240,
          "time": 224.25727250000003,
          "velocity": 1
        },
        {
          "duration": 0.29702950000000783,
          "durationTicks": 48,
          "midi": 48,
          "name": "C3",
          "ticks": 36312,
          "time": 224.70281675,
          "velocity": 1
        },
        {
          "duration": 0.8910884999999951,
          "durationTicks": 144,
          "midi": 48,
          "name": "C3",
          "ticks": 36360,
          "time": 224.99984625000002,
          "velocity": 1
        },
        {
          "duration": 0.5940590000000157,
          "durationTicks": 96,
          "midi": 48,
          "name": "C3",
          "ticks": 36504,
          "time": 225.89093475,
          "velocity": 1
        },
        {
          "duration": 0.4455442499999833,
          "durationTicks": 72,
          "midi": 48,
          "name": "C3",
          "ticks": 36600,
          "time": 226.48499375000003,
          "velocity": 1
        },
        {
          "duration": 0.29702950000000783,
          "durationTicks": 48,
          "midi": 48,
          "name": "C3",
          "ticks": 36672,
          "time": 226.930538,
          "velocity": 1
        },
        {
          "duration": 0.8910884999999951,
          "durationTicks": 144,
          "midi": 48,
          "name": "C3",
          "ticks": 36720,
          "time": 227.22756750000002,
          "velocity": 1
        },
        {
          "duration": 0.7425737499999912,
          "durationTicks": 120,
          "midi": 49,
          "name": "C#3",
          "ticks": 36840,
          "time": 227.97014125,
          "velocity": 0.5039370078740157
        },
        {
          "duration": 0.5940589999999872,
          "durationTicks": 96,
          "midi": 48,
          "name": "C3",
          "ticks": 36864,
          "time": 228.11865600000002,
          "velocity": 1
        },
        {
          "duration": 0.44554425000001174,
          "durationTicks": 72,
          "midi": 48,
          "name": "C3",
          "ticks": 36960,
          "time": 228.712715,
          "velocity": 1
        },
        {
          "duration": 0.29702950000000783,
          "durationTicks": 48,
          "midi": 48,
          "name": "C3",
          "ticks": 37032,
          "time": 229.15825925000001,
          "velocity": 1
        },
        {
          "duration": 0.8910884999999951,
          "durationTicks": 144,
          "midi": 48,
          "name": "C3",
          "ticks": 37080,
          "time": 229.45528875000002,
          "velocity": 1
        },
        {
          "duration": 0.5940589999999872,
          "durationTicks": 96,
          "midi": 48,
          "name": "C3",
          "ticks": 37224,
          "time": 230.34637725000002,
          "velocity": 1
        },
        {
          "duration": 0.44554425000001174,
          "durationTicks": 72,
          "midi": 48,
          "name": "C3",
          "ticks": 37320,
          "time": 230.94043625,
          "velocity": 1
        },
        {
          "duration": 0.29702950000000783,
          "durationTicks": 48,
          "midi": 48,
          "name": "C3",
          "ticks": 37392,
          "time": 231.38598050000002,
          "velocity": 1
        },
        {
          "duration": 0.8910884999999951,
          "durationTicks": 144,
          "midi": 48,
          "name": "C3",
          "ticks": 37440,
          "time": 231.68301000000002,
          "velocity": 1
        },
        {
          "duration": 0.5940589999999872,
          "durationTicks": 96,
          "midi": 48,
          "name": "C3",
          "ticks": 37584,
          "time": 232.57409850000002,
          "velocity": 1
        },
        {
          "duration": 0.44554425000001174,
          "durationTicks": 72,
          "midi": 48,
          "name": "C3",
          "ticks": 37680,
          "time": 233.1681575,
          "velocity": 1
        },
        {
          "duration": 0.29702950000000783,
          "durationTicks": 48,
          "midi": 48,
          "name": "C3",
          "ticks": 37752,
          "time": 233.61370175000002,
          "velocity": 1
        },
        {
          "duration": 0.8910884999999951,
          "durationTicks": 144,
          "midi": 48,
          "name": "C3",
          "ticks": 37800,
          "time": 233.91073125000003,
          "velocity": 1
        },
        {
          "duration": 0.5940589999999872,
          "durationTicks": 96,
          "midi": 48,
          "name": "C3",
          "ticks": 37944,
          "time": 234.80181975000002,
          "velocity": 1
        },
        {
          "duration": 0.44554425000001174,
          "durationTicks": 72,
          "midi": 48,
          "name": "C3",
          "ticks": 38040,
          "time": 235.39587875,
          "velocity": 1
        },
        {
          "duration": 0.29702950000000783,
          "durationTicks": 48,
          "midi": 48,
          "name": "C3",
          "ticks": 38112,
          "time": 235.84142300000002,
          "velocity": 1
        },
        {
          "duration": 0.8910884999999951,
          "durationTicks": 144,
          "midi": 48,
          "name": "C3",
          "ticks": 38160,
          "time": 236.13845250000003,
          "velocity": 1
        },
        {
          "duration": 0.5940589999999872,
          "durationTicks": 96,
          "midi": 48,
          "name": "C3",
          "ticks": 38304,
          "time": 237.02954100000002,
          "velocity": 1
        },
        {
          "duration": 0.44554425000001174,
          "durationTicks": 72,
          "midi": 48,
          "name": "C3",
          "ticks": 38400,
          "time": 237.6236,
          "velocity": 1
        },
        {
          "duration": 0.29702950000000783,
          "durationTicks": 48,
          "midi": 48,
          "name": "C3",
          "ticks": 38472,
          "time": 238.06914425000002,
          "velocity": 1
        },
        {
          "duration": 0.8910884999999951,
          "durationTicks": 144,
          "midi": 48,
          "name": "C3",
          "ticks": 38520,
          "time": 238.36617375000003,
          "velocity": 1
        },
        {
          "duration": 0.5940589999999872,
          "durationTicks": 96,
          "midi": 48,
          "name": "C3",
          "ticks": 38664,
          "time": 239.25726225000003,
          "velocity": 1
        },
        {
          "duration": 0.44554425000001174,
          "durationTicks": 72,
          "midi": 48,
          "name": "C3",
          "ticks": 38760,
          "time": 239.85132125,
          "velocity": 1
        },
        {
          "duration": 0.7425737499999912,
          "durationTicks": 120,
          "midi": 48,
          "name": "C3",
          "ticks": 38832,
          "time": 240.29686550000002,
          "velocity": 1
        }
      ],
      "endOfTrackTicks": 38952
    },
    {
      "channel": 0,
      "controlChanges": {},
      "pitchBends": [],
      "instrument": {
        "family": "piano",
        "number": 0,
        "name": "acoustic grand piano"
      },
      "name": "Track 12 (08: )",
      "notes": [
        {
          "duration": 1.9306917500000012,
          "durationTicks": 312,
          "midi": 46,
          "name": "A#2",
          "ticks": 2880,
          "time": 17.82177,
          "velocity": 1
        },
        {
          "duration": 1.9306917500000012,
          "durationTicks": 312,
          "midi": 46,
          "name": "A#2",
          "ticks": 4320,
          "time": 26.732655,
          "velocity": 1
        },
        {
          "duration": 1.930691749999994,
          "durationTicks": 312,
          "midi": 46,
          "name": "A#2",
          "ticks": 5760,
          "time": 35.64354,
          "velocity": 1
        },
        {
          "duration": 0.8910884999999951,
          "durationTicks": 144,
          "midi": 46,
          "name": "A#2",
          "ticks": 6480,
          "time": 40.098982500000005,
          "velocity": 1
        },
        {
          "duration": 0.5940590000000014,
          "durationTicks": 96,
          "midi": 46,
          "name": "A#2",
          "ticks": 6840,
          "time": 42.32670375,
          "velocity": 1
        },
        {
          "duration": 1.9306917500000012,
          "durationTicks": 312,
          "midi": 46,
          "name": "A#2",
          "ticks": 7200,
          "time": 44.554425,
          "velocity": 1
        },
        {
          "duration": 1.930691749999994,
          "durationTicks": 312,
          "midi": 46,
          "name": "A#2",
          "ticks": 11520,
          "time": 71.28708,
          "velocity": 1
        },
        {
          "duration": 1.930691749999994,
          "durationTicks": 312,
          "midi": 46,
          "name": "A#2",
          "ticks": 11880,
          "time": 73.51480125,
          "velocity": 1
        },
        {
          "duration": 0.5940589999999872,
          "durationTicks": 96,
          "midi": 46,
          "name": "A#2",
          "ticks": 12240,
          "time": 75.7425225,
          "velocity": 1
        },
        {
          "duration": 0.5940589999999872,
          "durationTicks": 96,
          "midi": 46,
          "name": "A#2",
          "ticks": 12600,
          "time": 77.97024375000001,
          "velocity": 1
        },
        {
          "duration": 1.4851474999999965,
          "durationTicks": 240,
          "midi": 46,
          "name": "A#2",
          "ticks": 12960,
          "time": 80.19796500000001,
          "velocity": 1
        },
        {
          "duration": 1.4851474999999965,
          "durationTicks": 240,
          "midi": 46,
          "name": "A#2",
          "ticks": 14400,
          "time": 89.10885000000002,
          "velocity": 1
        },
        {
          "duration": 0.29702950000000783,
          "durationTicks": 48,
          "midi": 46,
          "name": "A#2",
          "ticks": 15792,
          "time": 97.72270550000002,
          "velocity": 0.7559055118110236
        },
        {
          "duration": 1.930691749999994,
          "durationTicks": 312,
          "midi": 46,
          "name": "A#2",
          "ticks": 15840,
          "time": 98.01973500000003,
          "velocity": 1
        },
        {
          "duration": 1.930691749999994,
          "durationTicks": 312,
          "midi": 46,
          "name": "A#2",
          "ticks": 17280,
          "time": 106.93062000000002,
          "velocity": 1
        },
        {
          "duration": 1.9306917500000083,
          "durationTicks": 312,
          "midi": 46,
          "name": "A#2",
          "ticks": 18720,
          "time": 115.84150500000001,
          "velocity": 1
        },
        {
          "duration": 1.930691749999994,
          "durationTicks": 312,
          "midi": 46,
          "name": "A#2",
          "ticks": 20160,
          "time": 124.75239000000002,
          "velocity": 1
        },
        {
          "duration": 1.930691749999994,
          "durationTicks": 312,
          "midi": 46,
          "name": "A#2",
          "ticks": 21600,
          "time": 133.66327500000003,
          "velocity": 1
        },
        {
          "duration": 8.551974354166646,
          "durationTicks": 1382,
          "midi": 46,
          "name": "A#2",
          "ticks": 23043,
          "time": 142.59272434375004,
          "velocity": 1
        },
        {
          "duration": 1.930691749999994,
          "durationTicks": 312,
          "midi": 46,
          "name": "A#2",
          "ticks": 24480,
          "time": 151.485045,
          "velocity": 1
        },
        {
          "duration": 1.930691749999994,
          "durationTicks": 312,
          "midi": 46,
          "name": "A#2",
          "ticks": 25920,
          "time": 160.39593000000002,
          "velocity": 1
        },
        {
          "duration": 0.8910884999999951,
          "durationTicks": 144,
          "midi": 46,
          "name": "A#2",
          "ticks": 26640,
          "time": 164.85137250000002,
          "velocity": 1
        },
        {
          "duration": 0.5940589999999872,
          "durationTicks": 96,
          "midi": 46,
          "name": "A#2",
          "ticks": 27000,
          "time": 167.07909375000003,
          "velocity": 1
        },
        {
          "duration": 1.930691749999994,
          "durationTicks": 312,
          "midi": 46,
          "name": "A#2",
          "ticks": 27360,
          "time": 169.30681500000003,
          "velocity": 1
        },
        {
          "duration": 0.8910884999999666,
          "durationTicks": 144,
          "midi": 46,
          "name": "A#2",
          "ticks": 28080,
          "time": 173.76225750000003,
          "velocity": 1
        },
        {
          "duration": 0.5940589999999872,
          "durationTicks": 96,
          "midi": 46,
          "name": "A#2",
          "ticks": 28440,
          "time": 175.98997875000003,
          "velocity": 1
        },
        {
          "duration": 1.930691749999994,
          "durationTicks": 312,
          "midi": 46,
          "name": "A#2",
          "ticks": 28800,
          "time": 178.21770000000004,
          "velocity": 1
        },
        {
          "duration": 1.930691749999994,
          "durationTicks": 312,
          "midi": 46,
          "name": "A#2",
          "ticks": 31680,
          "time": 196.03947000000002,
          "velocity": 1
        },
        {
          "duration": 1.4851475000000107,
          "durationTicks": 240,
          "midi": 46,
          "name": "A#2",
          "ticks": 33120,
          "time": 204.950355,
          "velocity": 1
        },
        {
          "duration": 2.227721250000002,
          "durationTicks": 360,
          "midi": 46,
          "name": "A#2",
          "ticks": 35952,
          "time": 222.4750955,
          "velocity": 1
        },
        {
          "duration": 10.841576750000002,
          "durationTicks": 1752,
          "midi": 46,
          "name": "A#2",
          "ticks": 36000,
          "time": 222.77212500000002,
          "velocity": 1
        },
        {
          "duration": 8.168311249999988,
          "durationTicks": 1320,
          "midi": 46,
          "name": "A#2",
          "ticks": 37440,
          "time": 231.68301000000002,
          "velocity": 1
        },
        {
          "duration": 0.44554425000001174,
          "durationTicks": 72,
          "midi": 46,
          "name": "A#2",
          "ticks": 38760,
          "time": 239.85132125,
          "velocity": 1
        },
        {
          "duration": 0.7425737499999912,
          "durationTicks": 120,
          "midi": 46,
          "name": "A#2",
          "ticks": 38832,
          "time": 240.29686550000002,
          "velocity": 1
        }
      ],
      "endOfTrackTicks": 38952
    },
    {
      "channel": 0,
      "controlChanges": {},
      "pitchBends": [],
      "instrument": {
        "family": "piano",
        "number": 0,
        "name": "acoustic grand piano"
      },
      "name": "Track 08 (09: )",
      "notes": [
        {
          "duration": 2.2277212499999983,
          "durationTicks": 360,
          "midi": 48,
          "name": "C3",
          "ticks": 3192,
          "time": 19.752461750000002,
          "velocity": 1
        },
        {
          "duration": 0.2970295000000007,
          "durationTicks": 48,
          "midi": 48,
          "name": "C3",
          "ticks": 3552,
          "time": 21.980183,
          "velocity": 1
        },
        {
          "duration": 0.7425737500000018,
          "durationTicks": 120,
          "midi": 48,
          "name": "C3",
          "ticks": 3600,
          "time": 22.2772125,
          "velocity": 1
        },
        {
          "duration": 0.4455442500000011,
          "durationTicks": 72,
          "midi": 48,
          "name": "C3",
          "ticks": 3840,
          "time": 23.76236,
          "velocity": 0.4094488188976378
        },
        {
          "duration": 0.8910884999999986,
          "durationTicks": 144,
          "midi": 48,
          "name": "C3",
          "ticks": 3912,
          "time": 24.207904250000002,
          "velocity": 1
        },
        {
          "duration": 0.8910885000000022,
          "durationTicks": 144,
          "midi": 48,
          "name": "C3",
          "ticks": 4056,
          "time": 25.09899275,
          "velocity": 0.4094488188976378
        },
        {
          "duration": 0.44554424999999753,
          "durationTicks": 72,
          "midi": 48,
          "name": "C3",
          "ticks": 4200,
          "time": 25.990081250000003,
          "velocity": 0.5039370078740157
        },
        {
          "duration": 0.2970295000000007,
          "durationTicks": 48,
          "midi": 48,
          "name": "C3",
          "ticks": 4272,
          "time": 26.4356255,
          "velocity": 1
        },
        {
          "duration": 2.2277212499999983,
          "durationTicks": 360,
          "midi": 48,
          "name": "C3",
          "ticks": 4632,
          "time": 28.663346750000002,
          "velocity": 1
        },
        {
          "duration": 0.2970295000000007,
          "durationTicks": 48,
          "midi": 48,
          "name": "C3",
          "ticks": 4992,
          "time": 30.891068,
          "velocity": 1
        },
        {
          "duration": 1.4851475,
          "durationTicks": 240,
          "midi": 48,
          "name": "C3",
          "ticks": 5040,
          "time": 31.1880975,
          "velocity": 1
        },
        {
          "duration": 0.44554424999999753,
          "durationTicks": 72,
          "midi": 48,
          "name": "C3",
          "ticks": 5280,
          "time": 32.673245,
          "velocity": 0.4094488188976378
        },
        {
          "duration": 0.8910885000000022,
          "durationTicks": 144,
          "midi": 48,
          "name": "C3",
          "ticks": 5352,
          "time": 33.11878925,
          "velocity": 1
        },
        {
          "duration": 0.8910884999999951,
          "durationTicks": 144,
          "midi": 48,
          "name": "C3",
          "ticks": 5496,
          "time": 34.00987775,
          "velocity": 0.4094488188976378
        },
        {
          "duration": 0.44554425000000464,
          "durationTicks": 72,
          "midi": 48,
          "name": "C3",
          "ticks": 5640,
          "time": 34.900966249999996,
          "velocity": 0.5039370078740157
        },
        {
          "duration": 0.2970295000000007,
          "durationTicks": 48,
          "midi": 48,
          "name": "C3",
          "ticks": 5712,
          "time": 35.3465105,
          "velocity": 1
        },
        {
          "duration": 2.227721250000002,
          "durationTicks": 360,
          "midi": 48,
          "name": "C3",
          "ticks": 6072,
          "time": 37.574231749999996,
          "velocity": 1
        },
        {
          "duration": 0.29702950000000783,
          "durationTicks": 48,
          "midi": 48,
          "name": "C3",
          "ticks": 6432,
          "time": 39.801953,
          "velocity": 1
        },
        {
          "duration": 1.4851474999999965,
          "durationTicks": 240,
          "midi": 48,
          "name": "C3",
          "ticks": 6480,
          "time": 40.098982500000005,
          "velocity": 1
        },
        {
          "duration": 0.44554424999999753,
          "durationTicks": 72,
          "midi": 48,
          "name": "C3",
          "ticks": 6720,
          "time": 41.58413,
          "velocity": 0.4094488188976378
        },
        {
          "duration": 0.2970295000000007,
          "durationTicks": 48,
          "midi": 48,
          "name": "C3",
          "ticks": 6792,
          "time": 42.02967425,
          "velocity": 1
        },
        {
          "duration": 0.8910885000000022,
          "durationTicks": 144,
          "midi": 48,
          "name": "C3",
          "ticks": 6936,
          "time": 42.92076275,
          "velocity": 0.4094488188976378
        },
        {
          "duration": 0.44554424999999753,
          "durationTicks": 72,
          "midi": 48,
          "name": "C3",
          "ticks": 7080,
          "time": 43.811851250000004,
          "velocity": 0.5039370078740157
        },
        {
          "duration": 0.2970295000000007,
          "durationTicks": 48,
          "midi": 48,
          "name": "C3",
          "ticks": 7152,
          "time": 44.2573955,
          "velocity": 1
        },
        {
          "duration": 2.227721250000002,
          "durationTicks": 360,
          "midi": 48,
          "name": "C3",
          "ticks": 7512,
          "time": 46.48511675,
          "velocity": 1
        },
        {
          "duration": 0.2970294999999936,
          "durationTicks": 48,
          "midi": 48,
          "name": "C3",
          "ticks": 7872,
          "time": 48.712838000000005,
          "velocity": 1
        },
        {
          "duration": 1.4851475000000036,
          "durationTicks": 240,
          "midi": 48,
          "name": "C3",
          "ticks": 7920,
          "time": 49.0098675,
          "velocity": 1
        },
        {
          "duration": 0.44554424999999753,
          "durationTicks": 72,
          "midi": 48,
          "name": "C3",
          "ticks": 8160,
          "time": 50.495015,
          "velocity": 0.4094488188976378
        },
        {
          "duration": 0.8910885000000022,
          "durationTicks": 144,
          "midi": 48,
          "name": "C3",
          "ticks": 8232,
          "time": 50.94055925,
          "velocity": 1
        },
        {
          "duration": 0.8910885000000022,
          "durationTicks": 144,
          "midi": 48,
          "name": "C3",
          "ticks": 8376,
          "time": 51.83164775,
          "velocity": 0.4094488188976378
        },
        {
          "duration": 0.44554424999999753,
          "durationTicks": 72,
          "midi": 48,
          "name": "C3",
          "ticks": 8520,
          "time": 52.722736250000004,
          "velocity": 0.5039370078740157
        },
        {
          "duration": 2.227721250000002,
          "durationTicks": 360,
          "midi": 48,
          "name": "C3",
          "ticks": 8592,
          "time": 53.1682805,
          "velocity": 1
        },
        {
          "duration": 2.2277212499999948,
          "durationTicks": 360,
          "midi": 48,
          "name": "C3",
          "ticks": 8952,
          "time": 55.39600175,
          "velocity": 1
        },
        {
          "duration": 0.2970295000000007,
          "durationTicks": 48,
          "midi": 48,
          "name": "C3",
          "ticks": 9312,
          "time": 57.623723,
          "velocity": 1
        },
        {
          "duration": 1.4851475000000036,
          "durationTicks": 240,
          "midi": 48,
          "name": "C3",
          "ticks": 9360,
          "time": 57.9207525,
          "velocity": 1
        },
        {
          "duration": 0.44554424999999753,
          "durationTicks": 72,
          "midi": 48,
          "name": "C3",
          "ticks": 9600,
          "time": 59.4059,
          "velocity": 0.4094488188976378
        },
        {
          "duration": 0.8910885000000022,
          "durationTicks": 144,
          "midi": 48,
          "name": "C3",
          "ticks": 9672,
          "time": 59.85144425,
          "velocity": 1
        },
        {
          "duration": 0.8910885000000022,
          "durationTicks": 144,
          "midi": 48,
          "name": "C3",
          "ticks": 9816,
          "time": 60.74253275,
          "velocity": 0.4094488188976378
        },
        {
          "duration": 0.44554424999999753,
          "durationTicks": 72,
          "midi": 48,
          "name": "C3",
          "ticks": 9960,
          "time": 61.633621250000004,
          "velocity": 0.5039370078740157
        },
        {
          "duration": 2.227721250000002,
          "durationTicks": 360,
          "midi": 48,
          "name": "C3",
          "ticks": 10032,
          "time": 62.0791655,
          "velocity": 1
        },
        {
          "duration": 2.2277212499999877,
          "durationTicks": 360,
          "midi": 48,
          "name": "C3",
          "ticks": 10392,
          "time": 64.30688675,
          "velocity": 1
        },
        {
          "duration": 0.29702950000000783,
          "durationTicks": 48,
          "midi": 48,
          "name": "C3",
          "ticks": 10752,
          "time": 66.53460799999999,
          "velocity": 1
        },
        {
          "duration": 1.4851475000000107,
          "durationTicks": 240,
          "midi": 48,
          "name": "C3",
          "ticks": 10800,
          "time": 66.8316375,
          "velocity": 1
        },
        {
          "duration": 0.4455442499999833,
          "durationTicks": 72,
          "midi": 48,
          "name": "C3",
          "ticks": 11040,
          "time": 68.31678500000001,
          "velocity": 0.4094488188976378
        },
        {
          "duration": 0.8910885000000093,
          "durationTicks": 144,
          "midi": 48,
          "name": "C3",
          "ticks": 11112,
          "time": 68.76232925,
          "velocity": 1
        },
        {
          "duration": 0.8910884999999951,
          "durationTicks": 144,
          "midi": 48,
          "name": "C3",
          "ticks": 11256,
          "time": 69.65341775,
          "velocity": 0.4094488188976378
        },
        {
          "duration": 0.44554424999999753,
          "durationTicks": 72,
          "midi": 48,
          "name": "C3",
          "ticks": 11400,
          "time": 70.54450625,
          "velocity": 0.5039370078740157
        },
        {
          "duration": 0.29702950000000783,
          "durationTicks": 48,
          "midi": 48,
          "name": "C3",
          "ticks": 11472,
          "time": 70.9900505,
          "velocity": 1
        },
        {
          "duration": 0.29702950000000783,
          "durationTicks": 48,
          "midi": 48,
          "name": "C3",
          "ticks": 11832,
          "time": 73.21777175,
          "velocity": 1
        },
        {
          "duration": 0.29702950000000783,
          "durationTicks": 48,
          "midi": 48,
          "name": "C3",
          "ticks": 12192,
          "time": 75.445493,
          "velocity": 1
        },
        {
          "duration": 1.4851474999999965,
          "durationTicks": 240,
          "midi": 48,
          "name": "C3",
          "ticks": 12240,
          "time": 75.7425225,
          "velocity": 1
        },
        {
          "duration": 0.44554424999999753,
          "durationTicks": 72,
          "midi": 48,
          "name": "C3",
          "ticks": 12480,
          "time": 77.22767,
          "velocity": 0.4094488188976378
        },
        {
          "duration": 0.29702950000000783,
          "durationTicks": 48,
          "midi": 48,
          "name": "C3",
          "ticks": 12552,
          "time": 77.67321425,
          "velocity": 1
        },
        {
          "duration": 0.8910884999999951,
          "durationTicks": 144,
          "midi": 48,
          "name": "C3",
          "ticks": 12696,
          "time": 78.56430275,
          "velocity": 0.4094488188976378
        },
        {
          "duration": 0.44554425000001174,
          "durationTicks": 72,
          "midi": 48,
          "name": "C3",
          "ticks": 12840,
          "time": 79.45539124999999,
          "velocity": 0.5039370078740157
        },
        {
          "duration": 0.29702950000000783,
          "durationTicks": 48,
          "midi": 48,
          "name": "C3",
          "ticks": 12912,
          "time": 79.9009355,
          "velocity": 1
        },
        {
          "duration": 1.4851474999999965,
          "durationTicks": 240,
          "midi": 47,
          "name": "B2",
          "ticks": 12960,
          "time": 80.19796500000001,
          "velocity": 1
        },
        {
          "duration": 2.227721250000002,
          "durationTicks": 360,
          "midi": 48,
          "name": "C3",
          "ticks": 16152,
          "time": 99.95042675000002,
          "velocity": 1
        },
        {
          "duration": 0.2970294999999936,
          "durationTicks": 48,
          "midi": 48,
          "name": "C3",
          "ticks": 16512,
          "time": 102.17814800000002,
          "velocity": 1
        },
        {
          "duration": 1.4851474999999965,
          "durationTicks": 240,
          "midi": 48,
          "name": "C3",
          "ticks": 16560,
          "time": 102.47517750000002,
          "velocity": 1
        },
        {
          "duration": 0.44554425000001174,
          "durationTicks": 72,
          "midi": 48,
          "name": "C3",
          "ticks": 16800,
          "time": 103.96032500000001,
          "velocity": 0.4094488188976378
        },
        {
          "duration": 0.8910884999999951,
          "durationTicks": 144,
          "midi": 48,
          "name": "C3",
          "ticks": 16872,
          "time": 104.40586925000002,
          "velocity": 1
        },
        {
          "duration": 0.8910884999999951,
          "durationTicks": 144,
          "midi": 48,
          "name": "C3",
          "ticks": 17016,
          "time": 105.29695775000002,
          "velocity": 0.4094488188976378
        },
        {
          "duration": 0.44554425000001174,
          "durationTicks": 72,
          "midi": 48,
          "name": "C3",
          "ticks": 17160,
          "time": 106.18804625000001,
          "velocity": 0.5039370078740157
        },
        {
          "duration": 0.2970294999999936,
          "durationTicks": 48,
          "midi": 48,
          "name": "C3",
          "ticks": 17232,
          "time": 106.63359050000003,
          "velocity": 1
        },
        {
          "duration": 2.227721250000002,
          "durationTicks": 360,
          "midi": 48,
          "name": "C3",
          "ticks": 17592,
          "time": 108.86131175000001,
          "velocity": 1
        },
        {
          "duration": 0.29702950000000783,
          "durationTicks": 48,
          "midi": 48,
          "name": "C3",
          "ticks": 17952,
          "time": 111.08903300000001,
          "velocity": 1
        },
        {
          "duration": 1.4851474999999965,
          "durationTicks": 240,
          "midi": 48,
          "name": "C3",
          "ticks": 18000,
          "time": 111.38606250000002,
          "velocity": 1
        },
        {
          "duration": 0.44554424999999753,
          "durationTicks": 72,
          "midi": 48,
          "name": "C3",
          "ticks": 18240,
          "time": 112.87121000000002,
          "velocity": 0.4094488188976378
        },
        {
          "duration": 0.8910885000000093,
          "durationTicks": 144,
          "midi": 48,
          "name": "C3",
          "ticks": 18312,
          "time": 113.31675425000002,
          "velocity": 1
        },
        {
          "duration": 0.8910884999999951,
          "durationTicks": 144,
          "midi": 48,
          "name": "C3",
          "ticks": 18456,
          "time": 114.20784275000003,
          "velocity": 0.4094488188976378
        },
        {
          "duration": 0.44554424999999753,
          "durationTicks": 72,
          "midi": 48,
          "name": "C3",
          "ticks": 18600,
          "time": 115.09893125000002,
          "velocity": 0.5039370078740157
        },
        {
          "duration": 0.2970294999999936,
          "durationTicks": 48,
          "midi": 48,
          "name": "C3",
          "ticks": 18672,
          "time": 115.54447550000002,
          "velocity": 1
        },
        {
          "duration": 2.227721250000002,
          "durationTicks": 360,
          "midi": 48,
          "name": "C3",
          "ticks": 19032,
          "time": 117.77219675000002,
          "velocity": 1
        },
        {
          "duration": 0.2970294999999936,
          "durationTicks": 48,
          "midi": 48,
          "name": "C3",
          "ticks": 19392,
          "time": 119.99991800000002,
          "velocity": 1
        },
        {
          "duration": 1.4851475000000107,
          "durationTicks": 240,
          "midi": 48,
          "name": "C3",
          "ticks": 19440,
          "time": 120.29694750000002,
          "velocity": 1
        },
        {
          "duration": 0.4455442499999833,
          "durationTicks": 72,
          "midi": 48,
          "name": "C3",
          "ticks": 19680,
          "time": 121.78209500000003,
          "velocity": 0.4094488188976378
        },
        {
          "duration": 0.8910885000000093,
          "durationTicks": 144,
          "midi": 48,
          "name": "C3",
          "ticks": 19752,
          "time": 122.22763925000001,
          "velocity": 1
        },
        {
          "duration": 0.8910885000000093,
          "durationTicks": 144,
          "midi": 48,
          "name": "C3",
          "ticks": 19896,
          "time": 123.11872775000002,
          "velocity": 0.4094488188976378
        },
        {
          "duration": 0.4455442499999833,
          "durationTicks": 72,
          "midi": 48,
          "name": "C3",
          "ticks": 20040,
          "time": 124.00981625000003,
          "velocity": 0.5039370078740157
        },
        {
          "duration": 0.29702950000000783,
          "durationTicks": 48,
          "midi": 48,
          "name": "C3",
          "ticks": 20112,
          "time": 124.45536050000001,
          "velocity": 1
        },
        {
          "duration": 2.227721250000002,
          "durationTicks": 360,
          "midi": 48,
          "name": "C3",
          "ticks": 20472,
          "time": 126.68308175000001,
          "velocity": 1
        },
        {
          "duration": 0.29702950000000783,
          "durationTicks": 48,
          "midi": 48,
          "name": "C3",
          "ticks": 20832,
          "time": 128.91080300000002,
          "velocity": 1
        },
        {
          "duration": 1.4851475000000107,
          "durationTicks": 240,
          "midi": 48,
          "name": "C3",
          "ticks": 20880,
          "time": 129.20783250000002,
          "velocity": 1
        },
        {
          "duration": 0.4455442499999833,
          "durationTicks": 72,
          "midi": 48,
          "name": "C3",
          "ticks": 21120,
          "time": 130.69298000000003,
          "velocity": 0.4094488188976378
        },
        {
          "duration": 0.8910884999999951,
          "durationTicks": 144,
          "midi": 48,
          "name": "C3",
          "ticks": 21192,
          "time": 131.13852425000002,
          "velocity": 1
        },
        {
          "duration": 0.8910885000000235,
          "durationTicks": 144,
          "midi": 48,
          "name": "C3",
          "ticks": 21336,
          "time": 132.02961275,
          "velocity": 0.4094488188976378
        },
        {
          "duration": 0.4455442499999833,
          "durationTicks": 72,
          "midi": 48,
          "name": "C3",
          "ticks": 21480,
          "time": 132.92070125000004,
          "velocity": 0.5039370078740157
        },
        {
          "duration": 0.29702950000000783,
          "durationTicks": 48,
          "midi": 48,
          "name": "C3",
          "ticks": 21552,
          "time": 133.36624550000002,
          "velocity": 1
        },
        {
          "duration": 2.227721250000002,
          "durationTicks": 360,
          "midi": 48,
          "name": "C3",
          "ticks": 21912,
          "time": 135.59396675000002,
          "velocity": 1
        },
        {
          "duration": 0.2970294999999794,
          "durationTicks": 48,
          "midi": 48,
          "name": "C3",
          "ticks": 22272,
          "time": 137.82168800000002,
          "velocity": 1
        },
        {
          "duration": 1.4851475000000107,
          "durationTicks": 240,
          "midi": 48,
          "name": "C3",
          "ticks": 22320,
          "time": 138.1187175,
          "velocity": 1
        },
        {
          "duration": 0.44554425000001174,
          "durationTicks": 72,
          "midi": 48,
          "name": "C3",
          "ticks": 22560,
          "time": 139.603865,
          "velocity": 0.4094488188976378
        },
        {
          "duration": 0.8910884999999951,
          "durationTicks": 144,
          "midi": 48,
          "name": "C3",
          "ticks": 22632,
          "time": 140.04940925000002,
          "velocity": 1
        },
        {
          "duration": 0.8910884999999951,
          "durationTicks": 144,
          "midi": 48,
          "name": "C3",
          "ticks": 22776,
          "time": 140.94049775000002,
          "velocity": 0.4094488188976378
        },
        {
          "duration": 0.44554425000001174,
          "durationTicks": 72,
          "midi": 48,
          "name": "C3",
          "ticks": 22920,
          "time": 141.83158625000002,
          "velocity": 0.5039370078740157
        },
        {
          "duration": 0.3155938437500083,
          "durationTicks": 51,
          "midi": 48,
          "name": "C3",
          "ticks": 22992,
          "time": 142.27713050000003,
          "velocity": 1
        },
        {
          "duration": 0.29702950000000783,
          "durationTicks": 48,
          "midi": 48,
          "name": "C3",
          "ticks": 24432,
          "time": 151.1880155,
          "velocity": 1
        },
        {
          "duration": 2.227721250000002,
          "durationTicks": 360,
          "midi": 48,
          "name": "C3",
          "ticks": 24792,
          "time": 153.41573675,
          "velocity": 1
        },
        {
          "duration": 0.29702950000000783,
          "durationTicks": 48,
          "midi": 48,
          "name": "C3",
          "ticks": 25152,
          "time": 155.643458,
          "velocity": 1
        },
        {
          "duration": 1.4851474999999823,
          "durationTicks": 240,
          "midi": 48,
          "name": "C3",
          "ticks": 25200,
          "time": 155.94048750000002,
          "velocity": 1
        },
        {
          "duration": 0.44554425000001174,
          "durationTicks": 72,
          "midi": 48,
          "name": "C3",
          "ticks": 25440,
          "time": 157.425635,
          "velocity": 0.4094488188976378
        },
        {
          "duration": 0.8910885000000235,
          "durationTicks": 144,
          "midi": 48,
          "name": "C3",
          "ticks": 25512,
          "time": 157.87117925,
          "velocity": 1
        },
        {
          "duration": 0.8910884999999666,
          "durationTicks": 144,
          "midi": 48,
          "name": "C3",
          "ticks": 25656,
          "time": 158.76226775000003,
          "velocity": 0.4094488188976378
        },
        {
          "duration": 0.44554425000001174,
          "durationTicks": 72,
          "midi": 48,
          "name": "C3",
          "ticks": 25800,
          "time": 159.65335625,
          "velocity": 0.5039370078740157
        },
        {
          "duration": 0.29702950000000783,
          "durationTicks": 48,
          "midi": 48,
          "name": "C3",
          "ticks": 25872,
          "time": 160.0989005,
          "velocity": 1
        },
        {
          "duration": 2.227721250000002,
          "durationTicks": 360,
          "midi": 48,
          "name": "C3",
          "ticks": 26232,
          "time": 162.32662175000002,
          "velocity": 1
        },
        {
          "duration": 0.29702950000000783,
          "durationTicks": 48,
          "midi": 48,
          "name": "C3",
          "ticks": 26592,
          "time": 164.55434300000002,
          "velocity": 1
        },
        {
          "duration": 1.4851474999999823,
          "durationTicks": 240,
          "midi": 48,
          "name": "C3",
          "ticks": 26640,
          "time": 164.85137250000002,
          "velocity": 1
        },
        {
          "duration": 0.44554425000001174,
          "durationTicks": 72,
          "midi": 48,
          "name": "C3",
          "ticks": 26880,
          "time": 166.33652,
          "velocity": 0.4094488188976378
        },
        {
          "duration": 0.29702950000000783,
          "durationTicks": 48,
          "midi": 48,
          "name": "C3",
          "ticks": 26952,
          "time": 166.78206425000002,
          "velocity": 1
        },
        {
          "duration": 0.8910884999999951,
          "durationTicks": 144,
          "midi": 48,
          "name": "C3",
          "ticks": 27096,
          "time": 167.67315275,
          "velocity": 0.4094488188976378
        },
        {
          "duration": 0.44554425000001174,
          "durationTicks": 72,
          "midi": 48,
          "name": "C3",
          "ticks": 27240,
          "time": 168.56424125,
          "velocity": 0.5039370078740157
        },
        {
          "duration": 0.29702950000000783,
          "durationTicks": 48,
          "midi": 48,
          "name": "C3",
          "ticks": 27312,
          "time": 169.00978550000002,
          "velocity": 1
        },
        {
          "duration": 2.227721250000002,
          "durationTicks": 360,
          "midi": 48,
          "name": "C3",
          "ticks": 27672,
          "time": 171.23750675000002,
          "velocity": 1
        },
        {
          "duration": 0.29702950000000783,
          "durationTicks": 48,
          "midi": 48,
          "name": "C3",
          "ticks": 28032,
          "time": 173.46522800000002,
          "velocity": 1
        },
        {
          "duration": 1.4851474999999823,
          "durationTicks": 240,
          "midi": 48,
          "name": "C3",
          "ticks": 28080,
          "time": 173.76225750000003,
          "velocity": 1
        },
        {
          "duration": 0.44554425000001174,
          "durationTicks": 72,
          "midi": 48,
          "name": "C3",
          "ticks": 28320,
          "time": 175.24740500000001,
          "velocity": 0.4094488188976378
        },
        {
          "duration": 0.29702950000000783,
          "durationTicks": 48,
          "midi": 48,
          "name": "C3",
          "ticks": 28392,
          "time": 175.69294925000003,
          "velocity": 1
        },
        {
          "duration": 0.8910884999999951,
          "durationTicks": 144,
          "midi": 48,
          "name": "C3",
          "ticks": 28536,
          "time": 176.58403775000002,
          "velocity": 0.4094488188976378
        },
        {
          "duration": 0.44554425000001174,
          "durationTicks": 72,
          "midi": 48,
          "name": "C3",
          "ticks": 28680,
          "time": 177.47512625000002,
          "velocity": 0.5039370078740157
        },
        {
          "duration": 0.29702950000000783,
          "durationTicks": 48,
          "midi": 48,
          "name": "C3",
          "ticks": 28752,
          "time": 177.92067050000003,
          "velocity": 1
        },
        {
          "duration": 2.227721250000002,
          "durationTicks": 360,
          "midi": 48,
          "name": "C3",
          "ticks": 29112,
          "time": 180.14839175000003,
          "velocity": 1
        },
        {
          "duration": 0.29702950000000783,
          "durationTicks": 48,
          "midi": 48,
          "name": "C3",
          "ticks": 29472,
          "time": 182.37611300000003,
          "velocity": 1
        },
        {
          "duration": 1.4851474999999823,
          "durationTicks": 240,
          "midi": 48,
          "name": "C3",
          "ticks": 29520,
          "time": 182.67314250000004,
          "velocity": 1
        },
        {
          "duration": 0.44554425000001174,
          "durationTicks": 72,
          "midi": 48,
          "name": "C3",
          "ticks": 29760,
          "time": 184.15829000000002,
          "velocity": 0.4094488188976378
        },
        {
          "duration": 0.8910884999999666,
          "durationTicks": 144,
          "midi": 48,
          "name": "C3",
          "ticks": 29832,
          "time": 184.60383425000003,
          "velocity": 1
        },
        {
          "duration": 0.8910885000000235,
          "durationTicks": 144,
          "midi": 48,
          "name": "C3",
          "ticks": 29976,
          "time": 185.49492275,
          "velocity": 0.4094488188976378
        },
        {
          "duration": 0.44554425000001174,
          "durationTicks": 72,
          "midi": 48,
          "name": "C3",
          "ticks": 30120,
          "time": 186.38601125000002,
          "velocity": 0.5039370078740157
        },
        {
          "duration": 2.227721250000002,
          "durationTicks": 360,
          "midi": 48,
          "name": "C3",
          "ticks": 30192,
          "time": 186.83155550000004,
          "velocity": 1
        },
        {
          "duration": 2.227721250000002,
          "durationTicks": 360,
          "midi": 48,
          "name": "C3",
          "ticks": 30552,
          "time": 189.05927675000004,
          "velocity": 1
        },
        {
          "duration": 0.2970294999999794,
          "durationTicks": 48,
          "midi": 48,
          "name": "C3",
          "ticks": 30912,
          "time": 191.28699800000004,
          "velocity": 1
        },
        {
          "duration": 1.4851475000000107,
          "durationTicks": 240,
          "midi": 48,
          "name": "C3",
          "ticks": 30960,
          "time": 191.58402750000002,
          "velocity": 1
        },
        {
          "duration": 0.4455442499999833,
          "durationTicks": 72,
          "midi": 48,
          "name": "C3",
          "ticks": 31200,
          "time": 193.06917500000003,
          "velocity": 0.4094488188976378
        },
        {
          "duration": 0.8910884999999951,
          "durationTicks": 144,
          "midi": 48,
          "name": "C3",
          "ticks": 31272,
          "time": 193.51471925,
          "velocity": 1
        },
        {
          "duration": 0.8910885000000235,
          "durationTicks": 144,
          "midi": 48,
          "name": "C3",
          "ticks": 31416,
          "time": 194.40580775,
          "velocity": 0.4094488188976378
        },
        {
          "duration": 0.4455442499999833,
          "durationTicks": 72,
          "midi": 48,
          "name": "C3",
          "ticks": 31560,
          "time": 195.29689625000003,
          "velocity": 0.5039370078740157
        },
        {
          "duration": 0.29702950000000783,
          "durationTicks": 48,
          "midi": 48,
          "name": "C3",
          "ticks": 31632,
          "time": 195.74244050000001,
          "velocity": 1
        },
        {
          "duration": 2.227721250000002,
          "durationTicks": 360,
          "midi": 48,
          "name": "C3",
          "ticks": 31992,
          "time": 197.97016175000002,
          "velocity": 1
        },
        {
          "duration": 0.2970294999999794,
          "durationTicks": 48,
          "midi": 48,
          "name": "C3",
          "ticks": 32352,
          "time": 200.19788300000002,
          "velocity": 1
        },
        {
          "duration": 1.4851475000000391,
          "durationTicks": 240,
          "midi": 48,
          "name": "C3",
          "ticks": 32400,
          "time": 200.4949125,
          "velocity": 1
        },
        {
          "duration": 0.4455442499999833,
          "durationTicks": 72,
          "midi": 48,
          "name": "C3",
          "ticks": 32640,
          "time": 201.98006000000004,
          "velocity": 0.4094488188976378
        },
        {
          "duration": 0.8910884999999951,
          "durationTicks": 144,
          "midi": 48,
          "name": "C3",
          "ticks": 32712,
          "time": 202.42560425000002,
          "velocity": 1
        },
        {
          "duration": 0.8910885000000235,
          "durationTicks": 144,
          "midi": 48,
          "name": "C3",
          "ticks": 32856,
          "time": 203.31669275000002,
          "velocity": 0.4094488188976378
        },
        {
          "duration": 0.4455442499999833,
          "durationTicks": 72,
          "midi": 48,
          "name": "C3",
          "ticks": 33000,
          "time": 204.20778125000004,
          "velocity": 0.5039370078740157
        },
        {
          "duration": 0.2970294999999794,
          "durationTicks": 48,
          "midi": 48,
          "name": "C3",
          "ticks": 33072,
          "time": 204.65332550000002,
          "velocity": 1
        },
        {
          "duration": 1.4851475000000107,
          "durationTicks": 240,
          "midi": 47,
          "name": "B2",
          "ticks": 33120,
          "time": 204.950355,
          "velocity": 1
        },
        {
          "duration": 2.227721250000002,
          "durationTicks": 360,
          "midi": 48,
          "name": "C3",
          "ticks": 36312,
          "time": 224.70281675,
          "velocity": 1
        },
        {
          "duration": 0.29702950000000783,
          "durationTicks": 48,
          "midi": 48,
          "name": "C3",
          "ticks": 36672,
          "time": 226.930538,
          "velocity": 1
        },
        {
          "duration": 0.7425737499999912,
          "durationTicks": 120,
          "midi": 48,
          "name": "C3",
          "ticks": 36720,
          "time": 227.22756750000002,
          "velocity": 1
        },
        {
          "duration": 0.44554425000001174,
          "durationTicks": 72,
          "midi": 48,
          "name": "C3",
          "ticks": 36960,
          "time": 228.712715,
          "velocity": 0.4094488188976378
        },
        {
          "duration": 0.8910884999999951,
          "durationTicks": 144,
          "midi": 48,
          "name": "C3",
          "ticks": 37032,
          "time": 229.15825925000001,
          "velocity": 1
        },
        {
          "duration": 0.8910884999999951,
          "durationTicks": 144,
          "midi": 48,
          "name": "C3",
          "ticks": 37176,
          "time": 230.04934775,
          "velocity": 0.4094488188976378
        },
        {
          "duration": 0.44554425000001174,
          "durationTicks": 72,
          "midi": 48,
          "name": "C3",
          "ticks": 37320,
          "time": 230.94043625,
          "velocity": 0.5039370078740157
        },
        {
          "duration": 0.29702950000000783,
          "durationTicks": 48,
          "midi": 48,
          "name": "C3",
          "ticks": 37392,
          "time": 231.38598050000002,
          "velocity": 1
        },
        {
          "duration": 2.227721250000002,
          "durationTicks": 360,
          "midi": 48,
          "name": "C3",
          "ticks": 37752,
          "time": 233.61370175000002,
          "velocity": 1
        },
        {
          "duration": 0.29702950000000783,
          "durationTicks": 48,
          "midi": 48,
          "name": "C3",
          "ticks": 38112,
          "time": 235.84142300000002,
          "velocity": 1
        },
        {
          "duration": 1.4851474999999823,
          "durationTicks": 240,
          "midi": 48,
          "name": "C3",
          "ticks": 38160,
          "time": 236.13845250000003,
          "velocity": 1
        },
        {
          "duration": 0.44554425000001174,
          "durationTicks": 72,
          "midi": 48,
          "name": "C3",
          "ticks": 38400,
          "time": 237.6236,
          "velocity": 0.4094488188976378
        },
        {
          "duration": 0.8910884999999951,
          "durationTicks": 144,
          "midi": 48,
          "name": "C3",
          "ticks": 38472,
          "time": 238.06914425000002,
          "velocity": 1
        },
        {
          "duration": 0.8910884999999951,
          "durationTicks": 144,
          "midi": 48,
          "name": "C3",
          "ticks": 38616,
          "time": 238.96023275000002,
          "velocity": 0.4094488188976378
        },
        {
          "duration": 0.44554425000001174,
          "durationTicks": 72,
          "midi": 48,
          "name": "C3",
          "ticks": 38760,
          "time": 239.85132125,
          "velocity": 0.5039370078740157
        },
        {
          "duration": 0.7425737499999912,
          "durationTicks": 120,
          "midi": 48,
          "name": "C3",
          "ticks": 38832,
          "time": 240.29686550000002,
          "velocity": 1
        }
      ],
      "endOfTrackTicks": 38952
    },
    {
      "channel": 0,
      "controlChanges": {},
      "pitchBends": [],
      "instrument": {
        "family": "piano",
        "number": 0,
        "name": "acoustic grand piano"
      },
      "name": "Track 12 (0A: )",
      "notes": [
        {
          "duration": 0.7425737499999983,
          "durationTicks": 120,
          "midi": 49,
          "name": "C#3",
          "ticks": 4200,
          "time": 25.990081250000003,
          "velocity": 1
        },
        {
          "duration": 0.7425737499999983,
          "durationTicks": 120,
          "midi": 54,
          "name": "F#3",
          "ticks": 4200,
          "time": 25.990081250000003,
          "velocity": 1
        },
        {
          "duration": 0.7425737499999983,
          "durationTicks": 120,
          "midi": 56,
          "name": "G#3",
          "ticks": 4200,
          "time": 25.990081250000003,
          "velocity": 1
        },
        {
          "duration": 1.1881179999999993,
          "durationTicks": 192,
          "midi": 44,
          "name": "G#2",
          "ticks": 4320,
          "time": 26.732655,
          "velocity": 0.3937007874015748
        },
        {
          "duration": 1.1881179999999993,
          "durationTicks": 192,
          "midi": 49,
          "name": "C#3",
          "ticks": 4320,
          "time": 26.732655,
          "velocity": 1
        },
        {
          "duration": 1.1881179999999993,
          "durationTicks": 192,
          "midi": 54,
          "name": "F#3",
          "ticks": 4320,
          "time": 26.732655,
          "velocity": 1
        },
        {
          "duration": 1.1881179999999993,
          "durationTicks": 192,
          "midi": 56,
          "name": "G#3",
          "ticks": 4320,
          "time": 26.732655,
          "velocity": 1
        },
        {
          "duration": 0.7425737500000018,
          "durationTicks": 120,
          "midi": 44,
          "name": "G#2",
          "ticks": 4512,
          "time": 27.920773,
          "velocity": 0.3937007874015748
        },
        {
          "duration": 0.7425737500000018,
          "durationTicks": 120,
          "midi": 49,
          "name": "C#3",
          "ticks": 4512,
          "time": 27.920773,
          "velocity": 1
        },
        {
          "duration": 0.7425737500000018,
          "durationTicks": 120,
          "midi": 51,
          "name": "D#3",
          "ticks": 4512,
          "time": 27.920773,
          "velocity": 1
        },
        {
          "duration": 0.7425737500000018,
          "durationTicks": 120,
          "midi": 56,
          "name": "G#3",
          "ticks": 4512,
          "time": 27.920773,
          "velocity": 1
        },
        {
          "duration": 0.2970295000000007,
          "durationTicks": 48,
          "midi": 39,
          "name": "D#2",
          "ticks": 4632,
          "time": 28.663346750000002,
          "velocity": 0.3937007874015748
        },
        {
          "duration": 0.2970295000000007,
          "durationTicks": 48,
          "midi": 44,
          "name": "G#2",
          "ticks": 4632,
          "time": 28.663346750000002,
          "velocity": 1
        },
        {
          "duration": 0.2970295000000007,
          "durationTicks": 48,
          "midi": 49,
          "name": "C#3",
          "ticks": 4632,
          "time": 28.663346750000002,
          "velocity": 1
        },
        {
          "duration": 0.2970295000000007,
          "durationTicks": 48,
          "midi": 51,
          "name": "D#3",
          "ticks": 4632,
          "time": 28.663346750000002,
          "velocity": 1
        },
        {
          "duration": 1.1881179999999958,
          "durationTicks": 192,
          "midi": 42,
          "name": "F#2",
          "ticks": 4680,
          "time": 28.960376250000003,
          "velocity": 0.3937007874015748
        },
        {
          "duration": 1.1881179999999958,
          "durationTicks": 192,
          "midi": 44,
          "name": "G#2",
          "ticks": 4680,
          "time": 28.960376250000003,
          "velocity": 1
        },
        {
          "duration": 1.1881179999999958,
          "durationTicks": 192,
          "midi": 51,
          "name": "D#3",
          "ticks": 4680,
          "time": 28.960376250000003,
          "velocity": 1
        },
        {
          "duration": 1.1881179999999958,
          "durationTicks": 192,
          "midi": 54,
          "name": "F#3",
          "ticks": 4680,
          "time": 28.960376250000003,
          "velocity": 1
        },
        {
          "duration": 0.7425737500000018,
          "durationTicks": 120,
          "midi": 44,
          "name": "G#2",
          "ticks": 4872,
          "time": 30.14849425,
          "velocity": 0.3937007874015748
        },
        {
          "duration": 0.7425737500000018,
          "durationTicks": 120,
          "midi": 49,
          "name": "C#3",
          "ticks": 4872,
          "time": 30.14849425,
          "velocity": 1
        },
        {
          "duration": 0.7425737500000018,
          "durationTicks": 120,
          "midi": 51,
          "name": "D#3",
          "ticks": 4872,
          "time": 30.14849425,
          "velocity": 1
        },
        {
          "duration": 0.7425737500000018,
          "durationTicks": 120,
          "midi": 56,
          "name": "G#3",
          "ticks": 4872,
          "time": 30.14849425,
          "velocity": 1
        },
        {
          "duration": 0.2970295000000007,
          "durationTicks": 48,
          "midi": 42,
          "name": "F#2",
          "ticks": 4992,
          "time": 30.891068,
          "velocity": 0.3937007874015748
        },
        {
          "duration": 0.2970295000000007,
          "durationTicks": 48,
          "midi": 47,
          "name": "B2",
          "ticks": 4992,
          "time": 30.891068,
          "velocity": 1
        },
        {
          "duration": 0.2970295000000007,
          "durationTicks": 48,
          "midi": 51,
          "name": "D#3",
          "ticks": 4992,
          "time": 30.891068,
          "velocity": 1
        },
        {
          "duration": 0.2970295000000007,
          "durationTicks": 48,
          "midi": 54,
          "name": "F#3",
          "ticks": 4992,
          "time": 30.891068,
          "velocity": 1
        },
        {
          "duration": 1.1881179999999993,
          "durationTicks": 192,
          "midi": 44,
          "name": "G#2",
          "ticks": 5040,
          "time": 31.1880975,
          "velocity": 0.3937007874015748
        },
        {
          "duration": 1.1881179999999993,
          "durationTicks": 192,
          "midi": 49,
          "name": "C#3",
          "ticks": 5040,
          "time": 31.1880975,
          "velocity": 1
        },
        {
          "duration": 1.1881179999999993,
          "durationTicks": 192,
          "midi": 54,
          "name": "F#3",
          "ticks": 5040,
          "time": 31.1880975,
          "velocity": 1
        },
        {
          "duration": 1.1881179999999993,
          "durationTicks": 192,
          "midi": 56,
          "name": "G#3",
          "ticks": 5040,
          "time": 31.1880975,
          "velocity": 1
        },
        {
          "duration": 0.7425737499999983,
          "durationTicks": 120,
          "midi": 44,
          "name": "G#2",
          "ticks": 5232,
          "time": 32.3762155,
          "velocity": 0.3937007874015748
        },
        {
          "duration": 0.7425737499999983,
          "durationTicks": 120,
          "midi": 49,
          "name": "C#3",
          "ticks": 5232,
          "time": 32.3762155,
          "velocity": 1
        },
        {
          "duration": 0.7425737499999983,
          "durationTicks": 120,
          "midi": 51,
          "name": "D#3",
          "ticks": 5232,
          "time": 32.3762155,
          "velocity": 1
        },
        {
          "duration": 0.7425737499999983,
          "durationTicks": 120,
          "midi": 56,
          "name": "G#3",
          "ticks": 5232,
          "time": 32.3762155,
          "velocity": 1
        },
        {
          "duration": 0.2970295000000007,
          "durationTicks": 48,
          "midi": 39,
          "name": "D#2",
          "ticks": 5352,
          "time": 33.11878925,
          "velocity": 0.3937007874015748
        },
        {
          "duration": 0.2970295000000007,
          "durationTicks": 48,
          "midi": 44,
          "name": "G#2",
          "ticks": 5352,
          "time": 33.11878925,
          "velocity": 1
        },
        {
          "duration": 0.2970295000000007,
          "durationTicks": 48,
          "midi": 49,
          "name": "C#3",
          "ticks": 5352,
          "time": 33.11878925,
          "velocity": 1
        },
        {
          "duration": 0.2970295000000007,
          "durationTicks": 48,
          "midi": 51,
          "name": "D#3",
          "ticks": 5352,
          "time": 33.11878925,
          "velocity": 1
        },
        {
          "duration": 1.188118000000003,
          "durationTicks": 192,
          "midi": 42,
          "name": "F#2",
          "ticks": 5400,
          "time": 33.41581875,
          "velocity": 0.3937007874015748
        },
        {
          "duration": 1.188118000000003,
          "durationTicks": 192,
          "midi": 44,
          "name": "G#2",
          "ticks": 5400,
          "time": 33.41581875,
          "velocity": 1
        },
        {
          "duration": 1.188118000000003,
          "durationTicks": 192,
          "midi": 51,
          "name": "D#3",
          "ticks": 5400,
          "time": 33.41581875,
          "velocity": 1
        },
        {
          "duration": 1.188118000000003,
          "durationTicks": 192,
          "midi": 54,
          "name": "F#3",
          "ticks": 5400,
          "time": 33.41581875,
          "velocity": 1
        },
        {
          "duration": 0.7425737499999983,
          "durationTicks": 120,
          "midi": 44,
          "name": "G#2",
          "ticks": 5592,
          "time": 34.60393675,
          "velocity": 0.3937007874015748
        },
        {
          "duration": 0.7425737499999983,
          "durationTicks": 120,
          "midi": 49,
          "name": "C#3",
          "ticks": 5592,
          "time": 34.60393675,
          "velocity": 1
        },
        {
          "duration": 0.7425737499999983,
          "durationTicks": 120,
          "midi": 51,
          "name": "D#3",
          "ticks": 5592,
          "time": 34.60393675,
          "velocity": 1
        },
        {
          "duration": 0.7425737499999983,
          "durationTicks": 120,
          "midi": 56,
          "name": "G#3",
          "ticks": 5592,
          "time": 34.60393675,
          "velocity": 1
        },
        {
          "duration": 0.2970295000000007,
          "durationTicks": 48,
          "midi": 42,
          "name": "F#2",
          "ticks": 5712,
          "time": 35.3465105,
          "velocity": 0.3937007874015748
        },
        {
          "duration": 0.2970295000000007,
          "durationTicks": 48,
          "midi": 47,
          "name": "B2",
          "ticks": 5712,
          "time": 35.3465105,
          "velocity": 1
        },
        {
          "duration": 0.2970295000000007,
          "durationTicks": 48,
          "midi": 51,
          "name": "D#3",
          "ticks": 5712,
          "time": 35.3465105,
          "velocity": 1
        },
        {
          "duration": 0.2970295000000007,
          "durationTicks": 48,
          "midi": 54,
          "name": "F#3",
          "ticks": 5712,
          "time": 35.3465105,
          "velocity": 1
        },
        {
          "duration": 1.188118000000003,
          "durationTicks": 192,
          "midi": 44,
          "name": "G#2",
          "ticks": 5760,
          "time": 35.64354,
          "velocity": 0.3937007874015748
        },
        {
          "duration": 1.188118000000003,
          "durationTicks": 192,
          "midi": 49,
          "name": "C#3",
          "ticks": 5760,
          "time": 35.64354,
          "velocity": 1
        },
        {
          "duration": 1.188118000000003,
          "durationTicks": 192,
          "midi": 54,
          "name": "F#3",
          "ticks": 5760,
          "time": 35.64354,
          "velocity": 1
        },
        {
          "duration": 1.188118000000003,
          "durationTicks": 192,
          "midi": 56,
          "name": "G#3",
          "ticks": 5760,
          "time": 35.64354,
          "velocity": 1
        },
        {
          "duration": 0.7425737499999912,
          "durationTicks": 120,
          "midi": 44,
          "name": "G#2",
          "ticks": 5952,
          "time": 36.831658000000004,
          "velocity": 0.3937007874015748
        },
        {
          "duration": 0.7425737499999912,
          "durationTicks": 120,
          "midi": 49,
          "name": "C#3",
          "ticks": 5952,
          "time": 36.831658000000004,
          "velocity": 1
        },
        {
          "duration": 0.7425737499999912,
          "durationTicks": 120,
          "midi": 51,
          "name": "D#3",
          "ticks": 5952,
          "time": 36.831658000000004,
          "velocity": 1
        },
        {
          "duration": 0.7425737499999912,
          "durationTicks": 120,
          "midi": 56,
          "name": "G#3",
          "ticks": 5952,
          "time": 36.831658000000004,
          "velocity": 1
        },
        {
          "duration": 0.29702950000000783,
          "durationTicks": 48,
          "midi": 39,
          "name": "D#2",
          "ticks": 6072,
          "time": 37.574231749999996,
          "velocity": 0.3937007874015748
        },
        {
          "duration": 0.29702950000000783,
          "durationTicks": 48,
          "midi": 44,
          "name": "G#2",
          "ticks": 6072,
          "time": 37.574231749999996,
          "velocity": 1
        },
        {
          "duration": 0.29702950000000783,
          "durationTicks": 48,
          "midi": 49,
          "name": "C#3",
          "ticks": 6072,
          "time": 37.574231749999996,
          "velocity": 1
        },
        {
          "duration": 0.29702950000000783,
          "durationTicks": 48,
          "midi": 51,
          "name": "D#3",
          "ticks": 6072,
          "time": 37.574231749999996,
          "velocity": 1
        },
        {
          "duration": 1.1881179999999958,
          "durationTicks": 192,
          "midi": 42,
          "name": "F#2",
          "ticks": 6120,
          "time": 37.87126125,
          "velocity": 0.3937007874015748
        },
        {
          "duration": 1.1881179999999958,
          "durationTicks": 192,
          "midi": 44,
          "name": "G#2",
          "ticks": 6120,
          "time": 37.87126125,
          "velocity": 1
        },
        {
          "duration": 1.1881179999999958,
          "durationTicks": 192,
          "midi": 51,
          "name": "D#3",
          "ticks": 6120,
          "time": 37.87126125,
          "velocity": 1
        },
        {
          "duration": 1.1881179999999958,
          "durationTicks": 192,
          "midi": 54,
          "name": "F#3",
          "ticks": 6120,
          "time": 37.87126125,
          "velocity": 1
        },
        {
          "duration": 0.7425737499999983,
          "durationTicks": 120,
          "midi": 44,
          "name": "G#2",
          "ticks": 6312,
          "time": 39.05937925,
          "velocity": 0.3937007874015748
        },
        {
          "duration": 0.7425737499999983,
          "durationTicks": 120,
          "midi": 49,
          "name": "C#3",
          "ticks": 6312,
          "time": 39.05937925,
          "velocity": 1
        },
        {
          "duration": 0.7425737499999983,
          "durationTicks": 120,
          "midi": 51,
          "name": "D#3",
          "ticks": 6312,
          "time": 39.05937925,
          "velocity": 1
        },
        {
          "duration": 0.7425737499999983,
          "durationTicks": 120,
          "midi": 56,
          "name": "G#3",
          "ticks": 6312,
          "time": 39.05937925,
          "velocity": 1
        },
        {
          "duration": 0.29702950000000783,
          "durationTicks": 48,
          "midi": 42,
          "name": "F#2",
          "ticks": 6432,
          "time": 39.801953,
          "velocity": 0.3937007874015748
        },
        {
          "duration": 0.29702950000000783,
          "durationTicks": 48,
          "midi": 47,
          "name": "B2",
          "ticks": 6432,
          "time": 39.801953,
          "velocity": 1
        },
        {
          "duration": 0.29702950000000783,
          "durationTicks": 48,
          "midi": 51,
          "name": "D#3",
          "ticks": 6432,
          "time": 39.801953,
          "velocity": 1
        },
        {
          "duration": 0.29702950000000783,
          "durationTicks": 48,
          "midi": 54,
          "name": "F#3",
          "ticks": 6432,
          "time": 39.801953,
          "velocity": 1
        },
        {
          "duration": 1.1881179999999958,
          "durationTicks": 192,
          "midi": 44,
          "name": "G#2",
          "ticks": 6480,
          "time": 40.098982500000005,
          "velocity": 0.3937007874015748
        },
        {
          "duration": 1.1881179999999958,
          "durationTicks": 192,
          "midi": 49,
          "name": "C#3",
          "ticks": 6480,
          "time": 40.098982500000005,
          "velocity": 1
        },
        {
          "duration": 1.1881179999999958,
          "durationTicks": 192,
          "midi": 54,
          "name": "F#3",
          "ticks": 6480,
          "time": 40.098982500000005,
          "velocity": 1
        },
        {
          "duration": 1.1881179999999958,
          "durationTicks": 192,
          "midi": 56,
          "name": "G#3",
          "ticks": 6480,
          "time": 40.098982500000005,
          "velocity": 1
        },
        {
          "duration": 0.7425737499999983,
          "durationTicks": 120,
          "midi": 44,
          "name": "G#2",
          "ticks": 6672,
          "time": 41.2871005,
          "velocity": 0.3937007874015748
        },
        {
          "duration": 0.7425737499999983,
          "durationTicks": 120,
          "midi": 49,
          "name": "C#3",
          "ticks": 6672,
          "time": 41.2871005,
          "velocity": 1
        },
        {
          "duration": 0.7425737499999983,
          "durationTicks": 120,
          "midi": 51,
          "name": "D#3",
          "ticks": 6672,
          "time": 41.2871005,
          "velocity": 1
        },
        {
          "duration": 0.7425737499999983,
          "durationTicks": 120,
          "midi": 56,
          "name": "G#3",
          "ticks": 6672,
          "time": 41.2871005,
          "velocity": 1
        },
        {
          "duration": 0.2970295000000007,
          "durationTicks": 48,
          "midi": 39,
          "name": "D#2",
          "ticks": 6792,
          "time": 42.02967425,
          "velocity": 0.3937007874015748
        },
        {
          "duration": 0.2970295000000007,
          "durationTicks": 48,
          "midi": 44,
          "name": "G#2",
          "ticks": 6792,
          "time": 42.02967425,
          "velocity": 1
        },
        {
          "duration": 0.2970295000000007,
          "durationTicks": 48,
          "midi": 49,
          "name": "C#3",
          "ticks": 6792,
          "time": 42.02967425,
          "velocity": 1
        },
        {
          "duration": 0.2970295000000007,
          "durationTicks": 48,
          "midi": 51,
          "name": "D#3",
          "ticks": 6792,
          "time": 42.02967425,
          "velocity": 1
        },
        {
          "duration": 1.1881179999999958,
          "durationTicks": 192,
          "midi": 42,
          "name": "F#2",
          "ticks": 6840,
          "time": 42.32670375,
          "velocity": 0.3937007874015748
        },
        {
          "duration": 1.1881179999999958,
          "durationTicks": 192,
          "midi": 44,
          "name": "G#2",
          "ticks": 6840,
          "time": 42.32670375,
          "velocity": 1
        },
        {
          "duration": 1.1881179999999958,
          "durationTicks": 192,
          "midi": 51,
          "name": "D#3",
          "ticks": 6840,
          "time": 42.32670375,
          "velocity": 1
        },
        {
          "duration": 1.1881179999999958,
          "durationTicks": 192,
          "midi": 54,
          "name": "F#3",
          "ticks": 6840,
          "time": 42.32670375,
          "velocity": 1
        },
        {
          "duration": 0.7425737500000054,
          "durationTicks": 120,
          "midi": 44,
          "name": "G#2",
          "ticks": 7032,
          "time": 43.514821749999996,
          "velocity": 0.3937007874015748
        },
        {
          "duration": 0.7425737500000054,
          "durationTicks": 120,
          "midi": 49,
          "name": "C#3",
          "ticks": 7032,
          "time": 43.514821749999996,
          "velocity": 1
        },
        {
          "duration": 0.7425737500000054,
          "durationTicks": 120,
          "midi": 51,
          "name": "D#3",
          "ticks": 7032,
          "time": 43.514821749999996,
          "velocity": 1
        },
        {
          "duration": 0.7425737500000054,
          "durationTicks": 120,
          "midi": 56,
          "name": "G#3",
          "ticks": 7032,
          "time": 43.514821749999996,
          "velocity": 1
        },
        {
          "duration": 0.2970295000000007,
          "durationTicks": 48,
          "midi": 42,
          "name": "F#2",
          "ticks": 7152,
          "time": 44.2573955,
          "velocity": 0.3937007874015748
        },
        {
          "duration": 0.2970295000000007,
          "durationTicks": 48,
          "midi": 47,
          "name": "B2",
          "ticks": 7152,
          "time": 44.2573955,
          "velocity": 1
        },
        {
          "duration": 0.2970295000000007,
          "durationTicks": 48,
          "midi": 51,
          "name": "D#3",
          "ticks": 7152,
          "time": 44.2573955,
          "velocity": 1
        },
        {
          "duration": 0.2970295000000007,
          "durationTicks": 48,
          "midi": 54,
          "name": "F#3",
          "ticks": 7152,
          "time": 44.2573955,
          "velocity": 1
        },
        {
          "duration": 1.1881179999999958,
          "durationTicks": 192,
          "midi": 44,
          "name": "G#2",
          "ticks": 7200,
          "time": 44.554425,
          "velocity": 0.3937007874015748
        },
        {
          "duration": 1.1881179999999958,
          "durationTicks": 192,
          "midi": 49,
          "name": "C#3",
          "ticks": 7200,
          "time": 44.554425,
          "velocity": 1
        },
        {
          "duration": 1.1881179999999958,
          "durationTicks": 192,
          "midi": 54,
          "name": "F#3",
          "ticks": 7200,
          "time": 44.554425,
          "velocity": 1
        },
        {
          "duration": 1.1881179999999958,
          "durationTicks": 192,
          "midi": 56,
          "name": "G#3",
          "ticks": 7200,
          "time": 44.554425,
          "velocity": 1
        },
        {
          "duration": 0.7425737500000054,
          "durationTicks": 120,
          "midi": 44,
          "name": "G#2",
          "ticks": 7392,
          "time": 45.742543,
          "velocity": 0.3937007874015748
        },
        {
          "duration": 0.7425737500000054,
          "durationTicks": 120,
          "midi": 49,
          "name": "C#3",
          "ticks": 7392,
          "time": 45.742543,
          "velocity": 1
        },
        {
          "duration": 0.7425737500000054,
          "durationTicks": 120,
          "midi": 51,
          "name": "D#3",
          "ticks": 7392,
          "time": 45.742543,
          "velocity": 1
        },
        {
          "duration": 0.7425737500000054,
          "durationTicks": 120,
          "midi": 56,
          "name": "G#3",
          "ticks": 7392,
          "time": 45.742543,
          "velocity": 1
        },
        {
          "duration": 0.2970294999999936,
          "durationTicks": 48,
          "midi": 39,
          "name": "D#2",
          "ticks": 7512,
          "time": 46.48511675,
          "velocity": 0.3937007874015748
        },
        {
          "duration": 0.2970294999999936,
          "durationTicks": 48,
          "midi": 44,
          "name": "G#2",
          "ticks": 7512,
          "time": 46.48511675,
          "velocity": 1
        },
        {
          "duration": 0.2970294999999936,
          "durationTicks": 48,
          "midi": 49,
          "name": "C#3",
          "ticks": 7512,
          "time": 46.48511675,
          "velocity": 1
        },
        {
          "duration": 0.2970294999999936,
          "durationTicks": 48,
          "midi": 51,
          "name": "D#3",
          "ticks": 7512,
          "time": 46.48511675,
          "velocity": 1
        },
        {
          "duration": 1.188118000000003,
          "durationTicks": 192,
          "midi": 42,
          "name": "F#2",
          "ticks": 7560,
          "time": 46.78214625,
          "velocity": 0.3937007874015748
        },
        {
          "duration": 1.188118000000003,
          "durationTicks": 192,
          "midi": 44,
          "name": "G#2",
          "ticks": 7560,
          "time": 46.78214625,
          "velocity": 1
        },
        {
          "duration": 1.188118000000003,
          "durationTicks": 192,
          "midi": 51,
          "name": "D#3",
          "ticks": 7560,
          "time": 46.78214625,
          "velocity": 1
        },
        {
          "duration": 1.188118000000003,
          "durationTicks": 192,
          "midi": 54,
          "name": "F#3",
          "ticks": 7560,
          "time": 46.78214625,
          "velocity": 1
        },
        {
          "duration": 0.7425737500000054,
          "durationTicks": 120,
          "midi": 44,
          "name": "G#2",
          "ticks": 7752,
          "time": 47.97026425,
          "velocity": 0.3937007874015748
        },
        {
          "duration": 0.7425737500000054,
          "durationTicks": 120,
          "midi": 49,
          "name": "C#3",
          "ticks": 7752,
          "time": 47.97026425,
          "velocity": 1
        },
        {
          "duration": 0.7425737500000054,
          "durationTicks": 120,
          "midi": 51,
          "name": "D#3",
          "ticks": 7752,
          "time": 47.97026425,
          "velocity": 1
        },
        {
          "duration": 0.7425737500000054,
          "durationTicks": 120,
          "midi": 56,
          "name": "G#3",
          "ticks": 7752,
          "time": 47.97026425,
          "velocity": 1
        },
        {
          "duration": 0.2970294999999936,
          "durationTicks": 48,
          "midi": 42,
          "name": "F#2",
          "ticks": 7872,
          "time": 48.712838000000005,
          "velocity": 0.3937007874015748
        },
        {
          "duration": 0.2970294999999936,
          "durationTicks": 48,
          "midi": 47,
          "name": "B2",
          "ticks": 7872,
          "time": 48.712838000000005,
          "velocity": 1
        },
        {
          "duration": 0.2970294999999936,
          "durationTicks": 48,
          "midi": 51,
          "name": "D#3",
          "ticks": 7872,
          "time": 48.712838000000005,
          "velocity": 1
        },
        {
          "duration": 0.2970294999999936,
          "durationTicks": 48,
          "midi": 54,
          "name": "F#3",
          "ticks": 7872,
          "time": 48.712838000000005,
          "velocity": 1
        },
        {
          "duration": 1.188118000000003,
          "durationTicks": 192,
          "midi": 44,
          "name": "G#2",
          "ticks": 7920,
          "time": 49.0098675,
          "velocity": 0.3937007874015748
        },
        {
          "duration": 1.188118000000003,
          "durationTicks": 192,
          "midi": 49,
          "name": "C#3",
          "ticks": 7920,
          "time": 49.0098675,
          "velocity": 1
        },
        {
          "duration": 1.188118000000003,
          "durationTicks": 192,
          "midi": 54,
          "name": "F#3",
          "ticks": 7920,
          "time": 49.0098675,
          "velocity": 1
        },
        {
          "duration": 1.188118000000003,
          "durationTicks": 192,
          "midi": 56,
          "name": "G#3",
          "ticks": 7920,
          "time": 49.0098675,
          "velocity": 1
        },
        {
          "duration": 0.7425737499999983,
          "durationTicks": 120,
          "midi": 44,
          "name": "G#2",
          "ticks": 8112,
          "time": 50.1979855,
          "velocity": 0.3937007874015748
        },
        {
          "duration": 0.7425737499999983,
          "durationTicks": 120,
          "midi": 49,
          "name": "C#3",
          "ticks": 8112,
          "time": 50.1979855,
          "velocity": 1
        },
        {
          "duration": 0.7425737499999983,
          "durationTicks": 120,
          "midi": 51,
          "name": "D#3",
          "ticks": 8112,
          "time": 50.1979855,
          "velocity": 1
        },
        {
          "duration": 0.7425737499999983,
          "durationTicks": 120,
          "midi": 56,
          "name": "G#3",
          "ticks": 8112,
          "time": 50.1979855,
          "velocity": 1
        },
        {
          "duration": 0.2970295000000007,
          "durationTicks": 48,
          "midi": 39,
          "name": "D#2",
          "ticks": 8232,
          "time": 50.94055925,
          "velocity": 0.3937007874015748
        },
        {
          "duration": 0.2970295000000007,
          "durationTicks": 48,
          "midi": 44,
          "name": "G#2",
          "ticks": 8232,
          "time": 50.94055925,
          "velocity": 1
        },
        {
          "duration": 0.2970295000000007,
          "durationTicks": 48,
          "midi": 49,
          "name": "C#3",
          "ticks": 8232,
          "time": 50.94055925,
          "velocity": 1
        },
        {
          "duration": 0.2970295000000007,
          "durationTicks": 48,
          "midi": 51,
          "name": "D#3",
          "ticks": 8232,
          "time": 50.94055925,
          "velocity": 1
        },
        {
          "duration": 1.188118000000003,
          "durationTicks": 192,
          "midi": 42,
          "name": "F#2",
          "ticks": 8280,
          "time": 51.23758875,
          "velocity": 0.3937007874015748
        },
        {
          "duration": 1.188118000000003,
          "durationTicks": 192,
          "midi": 44,
          "name": "G#2",
          "ticks": 8280,
          "time": 51.23758875,
          "velocity": 1
        },
        {
          "duration": 1.188118000000003,
          "durationTicks": 192,
          "midi": 51,
          "name": "D#3",
          "ticks": 8280,
          "time": 51.23758875,
          "velocity": 1
        },
        {
          "duration": 1.188118000000003,
          "durationTicks": 192,
          "midi": 54,
          "name": "F#3",
          "ticks": 8280,
          "time": 51.23758875,
          "velocity": 1
        },
        {
          "duration": 0.7425737499999983,
          "durationTicks": 120,
          "midi": 44,
          "name": "G#2",
          "ticks": 8472,
          "time": 52.42570675,
          "velocity": 0.3937007874015748
        },
        {
          "duration": 0.7425737499999983,
          "durationTicks": 120,
          "midi": 49,
          "name": "C#3",
          "ticks": 8472,
          "time": 52.42570675,
          "velocity": 1
        },
        {
          "duration": 0.7425737499999983,
          "durationTicks": 120,
          "midi": 51,
          "name": "D#3",
          "ticks": 8472,
          "time": 52.42570675,
          "velocity": 1
        },
        {
          "duration": 0.7425737499999983,
          "durationTicks": 120,
          "midi": 56,
          "name": "G#3",
          "ticks": 8472,
          "time": 52.42570675,
          "velocity": 1
        },
        {
          "duration": 0.2970295000000007,
          "durationTicks": 48,
          "midi": 42,
          "name": "F#2",
          "ticks": 8592,
          "time": 53.1682805,
          "velocity": 0.3937007874015748
        },
        {
          "duration": 0.2970295000000007,
          "durationTicks": 48,
          "midi": 47,
          "name": "B2",
          "ticks": 8592,
          "time": 53.1682805,
          "velocity": 1
        },
        {
          "duration": 0.2970295000000007,
          "durationTicks": 48,
          "midi": 51,
          "name": "D#3",
          "ticks": 8592,
          "time": 53.1682805,
          "velocity": 1
        },
        {
          "duration": 0.2970295000000007,
          "durationTicks": 48,
          "midi": 54,
          "name": "F#3",
          "ticks": 8592,
          "time": 53.1682805,
          "velocity": 1
        },
        {
          "duration": 1.1881179999999958,
          "durationTicks": 192,
          "midi": 44,
          "name": "G#2",
          "ticks": 8640,
          "time": 53.46531,
          "velocity": 0.3937007874015748
        },
        {
          "duration": 1.1881179999999958,
          "durationTicks": 192,
          "midi": 49,
          "name": "C#3",
          "ticks": 8640,
          "time": 53.46531,
          "velocity": 1
        },
        {
          "duration": 1.1881179999999958,
          "durationTicks": 192,
          "midi": 54,
          "name": "F#3",
          "ticks": 8640,
          "time": 53.46531,
          "velocity": 1
        },
        {
          "duration": 1.1881179999999958,
          "durationTicks": 192,
          "midi": 56,
          "name": "G#3",
          "ticks": 8640,
          "time": 53.46531,
          "velocity": 1
        },
        {
          "duration": 0.7425737500000054,
          "durationTicks": 120,
          "midi": 44,
          "name": "G#2",
          "ticks": 8832,
          "time": 54.653428,
          "velocity": 0.3937007874015748
        },
        {
          "duration": 0.7425737500000054,
          "durationTicks": 120,
          "midi": 49,
          "name": "C#3",
          "ticks": 8832,
          "time": 54.653428,
          "velocity": 1
        },
        {
          "duration": 0.7425737500000054,
          "durationTicks": 120,
          "midi": 51,
          "name": "D#3",
          "ticks": 8832,
          "time": 54.653428,
          "velocity": 1
        },
        {
          "duration": 0.7425737500000054,
          "durationTicks": 120,
          "midi": 56,
          "name": "G#3",
          "ticks": 8832,
          "time": 54.653428,
          "velocity": 1
        },
        {
          "duration": 0.2970295000000007,
          "durationTicks": 48,
          "midi": 39,
          "name": "D#2",
          "ticks": 8952,
          "time": 55.39600175,
          "velocity": 0.3937007874015748
        },
        {
          "duration": 0.2970295000000007,
          "durationTicks": 48,
          "midi": 44,
          "name": "G#2",
          "ticks": 8952,
          "time": 55.39600175,
          "velocity": 1
        },
        {
          "duration": 0.2970295000000007,
          "durationTicks": 48,
          "midi": 49,
          "name": "C#3",
          "ticks": 8952,
          "time": 55.39600175,
          "velocity": 1
        },
        {
          "duration": 0.2970295000000007,
          "durationTicks": 48,
          "midi": 51,
          "name": "D#3",
          "ticks": 8952,
          "time": 55.39600175,
          "velocity": 1
        },
        {
          "duration": 1.1881179999999958,
          "durationTicks": 192,
          "midi": 42,
          "name": "F#2",
          "ticks": 9000,
          "time": 55.693031250000004,
          "velocity": 0.3937007874015748
        },
        {
          "duration": 1.1881179999999958,
          "durationTicks": 192,
          "midi": 44,
          "name": "G#2",
          "ticks": 9000,
          "time": 55.693031250000004,
          "velocity": 1
        },
        {
          "duration": 1.1881179999999958,
          "durationTicks": 192,
          "midi": 51,
          "name": "D#3",
          "ticks": 9000,
          "time": 55.693031250000004,
          "velocity": 1
        },
        {
          "duration": 1.1881179999999958,
          "durationTicks": 192,
          "midi": 54,
          "name": "F#3",
          "ticks": 9000,
          "time": 55.693031250000004,
          "velocity": 1
        },
        {
          "duration": 0.7425737499999983,
          "durationTicks": 120,
          "midi": 44,
          "name": "G#2",
          "ticks": 9192,
          "time": 56.88114925,
          "velocity": 0.3937007874015748
        },
        {
          "duration": 0.7425737499999983,
          "durationTicks": 120,
          "midi": 49,
          "name": "C#3",
          "ticks": 9192,
          "time": 56.88114925,
          "velocity": 1
        },
        {
          "duration": 0.7425737499999983,
          "durationTicks": 120,
          "midi": 51,
          "name": "D#3",
          "ticks": 9192,
          "time": 56.88114925,
          "velocity": 1
        },
        {
          "duration": 0.7425737499999983,
          "durationTicks": 120,
          "midi": 56,
          "name": "G#3",
          "ticks": 9192,
          "time": 56.88114925,
          "velocity": 1
        },
        {
          "duration": 0.2970295000000007,
          "durationTicks": 48,
          "midi": 42,
          "name": "F#2",
          "ticks": 9312,
          "time": 57.623723,
          "velocity": 0.3937007874015748
        },
        {
          "duration": 0.2970295000000007,
          "durationTicks": 48,
          "midi": 47,
          "name": "B2",
          "ticks": 9312,
          "time": 57.623723,
          "velocity": 1
        },
        {
          "duration": 0.2970295000000007,
          "durationTicks": 48,
          "midi": 51,
          "name": "D#3",
          "ticks": 9312,
          "time": 57.623723,
          "velocity": 1
        },
        {
          "duration": 0.2970295000000007,
          "durationTicks": 48,
          "midi": 54,
          "name": "F#3",
          "ticks": 9312,
          "time": 57.623723,
          "velocity": 1
        },
        {
          "duration": 1.188118000000003,
          "durationTicks": 192,
          "midi": 44,
          "name": "G#2",
          "ticks": 9360,
          "time": 57.9207525,
          "velocity": 0.3937007874015748
        },
        {
          "duration": 1.188118000000003,
          "durationTicks": 192,
          "midi": 49,
          "name": "C#3",
          "ticks": 9360,
          "time": 57.9207525,
          "velocity": 1
        },
        {
          "duration": 1.188118000000003,
          "durationTicks": 192,
          "midi": 54,
          "name": "F#3",
          "ticks": 9360,
          "time": 57.9207525,
          "velocity": 1
        },
        {
          "duration": 1.188118000000003,
          "durationTicks": 192,
          "midi": 56,
          "name": "G#3",
          "ticks": 9360,
          "time": 57.9207525,
          "velocity": 1
        },
        {
          "duration": 0.7425737499999983,
          "durationTicks": 120,
          "midi": 44,
          "name": "G#2",
          "ticks": 9552,
          "time": 59.1088705,
          "velocity": 0.3937007874015748
        },
        {
          "duration": 0.7425737499999983,
          "durationTicks": 120,
          "midi": 49,
          "name": "C#3",
          "ticks": 9552,
          "time": 59.1088705,
          "velocity": 1
        },
        {
          "duration": 0.7425737499999983,
          "durationTicks": 120,
          "midi": 51,
          "name": "D#3",
          "ticks": 9552,
          "time": 59.1088705,
          "velocity": 1
        },
        {
          "duration": 0.7425737499999983,
          "durationTicks": 120,
          "midi": 56,
          "name": "G#3",
          "ticks": 9552,
          "time": 59.1088705,
          "velocity": 1
        },
        {
          "duration": 0.2970295000000007,
          "durationTicks": 48,
          "midi": 39,
          "name": "D#2",
          "ticks": 9672,
          "time": 59.85144425,
          "velocity": 0.3937007874015748
        },
        {
          "duration": 0.2970295000000007,
          "durationTicks": 48,
          "midi": 44,
          "name": "G#2",
          "ticks": 9672,
          "time": 59.85144425,
          "velocity": 1
        },
        {
          "duration": 0.2970295000000007,
          "durationTicks": 48,
          "midi": 49,
          "name": "C#3",
          "ticks": 9672,
          "time": 59.85144425,
          "velocity": 1
        },
        {
          "duration": 0.2970295000000007,
          "durationTicks": 48,
          "midi": 51,
          "name": "D#3",
          "ticks": 9672,
          "time": 59.85144425,
          "velocity": 1
        },
        {
          "duration": 1.188118000000003,
          "durationTicks": 192,
          "midi": 42,
          "name": "F#2",
          "ticks": 9720,
          "time": 60.14847375,
          "velocity": 0.3937007874015748
        },
        {
          "duration": 1.188118000000003,
          "durationTicks": 192,
          "midi": 47,
          "name": "B2",
          "ticks": 9720,
          "time": 60.14847375,
          "velocity": 1
        },
        {
          "duration": 1.188118000000003,
          "durationTicks": 192,
          "midi": 51,
          "name": "D#3",
          "ticks": 9720,
          "time": 60.14847375,
          "velocity": 1
        },
        {
          "duration": 1.188118000000003,
          "durationTicks": 192,
          "midi": 54,
          "name": "F#3",
          "ticks": 9720,
          "time": 60.14847375,
          "velocity": 1
        },
        {
          "duration": 0.7425737499999983,
          "durationTicks": 120,
          "midi": 44,
          "name": "G#2",
          "ticks": 9912,
          "time": 61.336591750000004,
          "velocity": 0.3937007874015748
        },
        {
          "duration": 0.7425737499999983,
          "durationTicks": 120,
          "midi": 47,
          "name": "B2",
          "ticks": 9912,
          "time": 61.336591750000004,
          "velocity": 1
        },
        {
          "duration": 0.7425737499999983,
          "durationTicks": 120,
          "midi": 51,
          "name": "D#3",
          "ticks": 9912,
          "time": 61.336591750000004,
          "velocity": 1
        },
        {
          "duration": 0.7425737499999983,
          "durationTicks": 120,
          "midi": 56,
          "name": "G#3",
          "ticks": 9912,
          "time": 61.336591750000004,
          "velocity": 1
        },
        {
          "duration": 0.2970295000000007,
          "durationTicks": 48,
          "midi": 42,
          "name": "F#2",
          "ticks": 10032,
          "time": 62.0791655,
          "velocity": 0.3937007874015748
        },
        {
          "duration": 0.2970295000000007,
          "durationTicks": 48,
          "midi": 47,
          "name": "B2",
          "ticks": 10032,
          "time": 62.0791655,
          "velocity": 1
        },
        {
          "duration": 0.2970295000000007,
          "durationTicks": 48,
          "midi": 51,
          "name": "D#3",
          "ticks": 10032,
          "time": 62.0791655,
          "velocity": 1
        },
        {
          "duration": 0.2970295000000007,
          "durationTicks": 48,
          "midi": 54,
          "name": "F#3",
          "ticks": 10032,
          "time": 62.0791655,
          "velocity": 1
        },
        {
          "duration": 1.1881179999999958,
          "durationTicks": 192,
          "midi": 44,
          "name": "G#2",
          "ticks": 10080,
          "time": 62.376195,
          "velocity": 0.3937007874015748
        },
        {
          "duration": 1.1881179999999958,
          "durationTicks": 192,
          "midi": 49,
          "name": "C#3",
          "ticks": 10080,
          "time": 62.376195,
          "velocity": 1
        },
        {
          "duration": 1.1881179999999958,
          "durationTicks": 192,
          "midi": 54,
          "name": "F#3",
          "ticks": 10080,
          "time": 62.376195,
          "velocity": 1
        },
        {
          "duration": 1.1881179999999958,
          "durationTicks": 192,
          "midi": 56,
          "name": "G#3",
          "ticks": 10080,
          "time": 62.376195,
          "velocity": 1
        },
        {
          "duration": 0.7425737500000054,
          "durationTicks": 120,
          "midi": 44,
          "name": "G#2",
          "ticks": 10272,
          "time": 63.564313,
          "velocity": 0.3937007874015748
        },
        {
          "duration": 0.7425737500000054,
          "durationTicks": 120,
          "midi": 49,
          "name": "C#3",
          "ticks": 10272,
          "time": 63.564313,
          "velocity": 1
        },
        {
          "duration": 0.7425737500000054,
          "durationTicks": 120,
          "midi": 51,
          "name": "D#3",
          "ticks": 10272,
          "time": 63.564313,
          "velocity": 1
        },
        {
          "duration": 0.7425737500000054,
          "durationTicks": 120,
          "midi": 56,
          "name": "G#3",
          "ticks": 10272,
          "time": 63.564313,
          "velocity": 1
        },
        {
          "duration": 0.2970294999999936,
          "durationTicks": 48,
          "midi": 39,
          "name": "D#2",
          "ticks": 10392,
          "time": 64.30688675,
          "velocity": 0.3937007874015748
        },
        {
          "duration": 0.2970294999999936,
          "durationTicks": 48,
          "midi": 44,
          "name": "G#2",
          "ticks": 10392,
          "time": 64.30688675,
          "velocity": 1
        },
        {
          "duration": 0.2970294999999936,
          "durationTicks": 48,
          "midi": 49,
          "name": "C#3",
          "ticks": 10392,
          "time": 64.30688675,
          "velocity": 1
        },
        {
          "duration": 0.2970294999999936,
          "durationTicks": 48,
          "midi": 51,
          "name": "D#3",
          "ticks": 10392,
          "time": 64.30688675,
          "velocity": 1
        },
        {
          "duration": 1.188118000000003,
          "durationTicks": 192,
          "midi": 42,
          "name": "F#2",
          "ticks": 10440,
          "time": 64.60391625,
          "velocity": 0.3937007874015748
        },
        {
          "duration": 1.188118000000003,
          "durationTicks": 192,
          "midi": 47,
          "name": "B2",
          "ticks": 10440,
          "time": 64.60391625,
          "velocity": 1
        },
        {
          "duration": 1.188118000000003,
          "durationTicks": 192,
          "midi": 51,
          "name": "D#3",
          "ticks": 10440,
          "time": 64.60391625,
          "velocity": 1
        },
        {
          "duration": 1.188118000000003,
          "durationTicks": 192,
          "midi": 54,
          "name": "F#3",
          "ticks": 10440,
          "time": 64.60391625,
          "velocity": 1
        },
        {
          "duration": 0.7425737499999912,
          "durationTicks": 120,
          "midi": 44,
          "name": "G#2",
          "ticks": 10632,
          "time": 65.79203425,
          "velocity": 0.3937007874015748
        },
        {
          "duration": 0.7425737499999912,
          "durationTicks": 120,
          "midi": 49,
          "name": "C#3",
          "ticks": 10632,
          "time": 65.79203425,
          "velocity": 1
        },
        {
          "duration": 0.7425737499999912,
          "durationTicks": 120,
          "midi": 51,
          "name": "D#3",
          "ticks": 10632,
          "time": 65.79203425,
          "velocity": 1
        },
        {
          "duration": 0.7425737499999912,
          "durationTicks": 120,
          "midi": 56,
          "name": "G#3",
          "ticks": 10632,
          "time": 65.79203425,
          "velocity": 1
        },
        {
          "duration": 0.29702950000000783,
          "durationTicks": 48,
          "midi": 42,
          "name": "F#2",
          "ticks": 10752,
          "time": 66.53460799999999,
          "velocity": 0.3937007874015748
        },
        {
          "duration": 0.29702950000000783,
          "durationTicks": 48,
          "midi": 44,
          "name": "G#2",
          "ticks": 10752,
          "time": 66.53460799999999,
          "velocity": 1
        },
        {
          "duration": 0.29702950000000783,
          "durationTicks": 48,
          "midi": 51,
          "name": "D#3",
          "ticks": 10752,
          "time": 66.53460799999999,
          "velocity": 1
        },
        {
          "duration": 0.29702950000000783,
          "durationTicks": 48,
          "midi": 54,
          "name": "F#3",
          "ticks": 10752,
          "time": 66.53460799999999,
          "velocity": 1
        },
        {
          "duration": 1.188118000000003,
          "durationTicks": 192,
          "midi": 39,
          "name": "D#2",
          "ticks": 10800,
          "time": 66.8316375,
          "velocity": 0.3937007874015748
        },
        {
          "duration": 1.188118000000003,
          "durationTicks": 192,
          "midi": 42,
          "name": "F#2",
          "ticks": 10800,
          "time": 66.8316375,
          "velocity": 1
        },
        {
          "duration": 1.188118000000003,
          "durationTicks": 192,
          "midi": 49,
          "name": "C#3",
          "ticks": 10800,
          "time": 66.8316375,
          "velocity": 1
        },
        {
          "duration": 1.188118000000003,
          "durationTicks": 192,
          "midi": 51,
          "name": "D#3",
          "ticks": 10800,
          "time": 66.8316375,
          "velocity": 1
        },
        {
          "duration": 0.7425737499999912,
          "durationTicks": 120,
          "midi": 39,
          "name": "D#2",
          "ticks": 10992,
          "time": 68.0197555,
          "velocity": 0.3937007874015748
        },
        {
          "duration": 0.7425737499999912,
          "durationTicks": 120,
          "midi": 42,
          "name": "F#2",
          "ticks": 10992,
          "time": 68.0197555,
          "velocity": 1
        },
        {
          "duration": 0.7425737499999912,
          "durationTicks": 120,
          "midi": 44,
          "name": "G#2",
          "ticks": 10992,
          "time": 68.0197555,
          "velocity": 1
        },
        {
          "duration": 0.7425737499999912,
          "durationTicks": 120,
          "midi": 51,
          "name": "D#3",
          "ticks": 10992,
          "time": 68.0197555,
          "velocity": 1
        },
        {
          "duration": 0.29702950000000783,
          "durationTicks": 48,
          "midi": 39,
          "name": "D#2",
          "ticks": 11112,
          "time": 68.76232925,
          "velocity": 0.3937007874015748
        },
        {
          "duration": 0.29702950000000783,
          "durationTicks": 48,
          "midi": 44,
          "name": "G#2",
          "ticks": 11112,
          "time": 68.76232925,
          "velocity": 1
        },
        {
          "duration": 0.29702950000000783,
          "durationTicks": 48,
          "midi": 44,
          "name": "G#2",
          "ticks": 11112,
          "time": 68.76232925,
          "velocity": 1
        },
        {
          "duration": 0.29702950000000783,
          "durationTicks": 48,
          "midi": 51,
          "name": "D#3",
          "ticks": 11112,
          "time": 68.76232925,
          "velocity": 1
        },
        {
          "duration": 1.188118000000003,
          "durationTicks": 192,
          "midi": 42,
          "name": "F#2",
          "ticks": 11160,
          "time": 69.05935875,
          "velocity": 0.3937007874015748
        },
        {
          "duration": 1.188118000000003,
          "durationTicks": 192,
          "midi": 47,
          "name": "B2",
          "ticks": 11160,
          "time": 69.05935875,
          "velocity": 1
        },
        {
          "duration": 1.188118000000003,
          "durationTicks": 192,
          "midi": 51,
          "name": "D#3",
          "ticks": 11160,
          "time": 69.05935875,
          "velocity": 1
        },
        {
          "duration": 1.188118000000003,
          "durationTicks": 192,
          "midi": 54,
          "name": "F#3",
          "ticks": 11160,
          "time": 69.05935875,
          "velocity": 1
        },
        {
          "duration": 0.7425737499999912,
          "durationTicks": 120,
          "midi": 44,
          "name": "G#2",
          "ticks": 11352,
          "time": 70.24747675,
          "velocity": 0.3937007874015748
        },
        {
          "duration": 0.7425737499999912,
          "durationTicks": 120,
          "midi": 47,
          "name": "B2",
          "ticks": 11352,
          "time": 70.24747675,
          "velocity": 1
        },
        {
          "duration": 0.7425737499999912,
          "durationTicks": 120,
          "midi": 51,
          "name": "D#3",
          "ticks": 11352,
          "time": 70.24747675,
          "velocity": 1
        },
        {
          "duration": 0.7425737499999912,
          "durationTicks": 120,
          "midi": 56,
          "name": "G#3",
          "ticks": 11352,
          "time": 70.24747675,
          "velocity": 1
        },
        {
          "duration": 0.29702950000000783,
          "durationTicks": 48,
          "midi": 42,
          "name": "F#2",
          "ticks": 11472,
          "time": 70.9900505,
          "velocity": 0.3937007874015748
        },
        {
          "duration": 0.29702950000000783,
          "durationTicks": 48,
          "midi": 47,
          "name": "B2",
          "ticks": 11472,
          "time": 70.9900505,
          "velocity": 1
        },
        {
          "duration": 0.29702950000000783,
          "durationTicks": 48,
          "midi": 51,
          "name": "D#3",
          "ticks": 11472,
          "time": 70.9900505,
          "velocity": 1
        },
        {
          "duration": 0.29702950000000783,
          "durationTicks": 48,
          "midi": 54,
          "name": "F#3",
          "ticks": 11472,
          "time": 70.9900505,
          "velocity": 1
        },
        {
          "duration": 1.188118000000003,
          "durationTicks": 192,
          "midi": 44,
          "name": "G#2",
          "ticks": 11520,
          "time": 71.28708,
          "velocity": 0.3937007874015748
        },
        {
          "duration": 1.188118000000003,
          "durationTicks": 192,
          "midi": 49,
          "name": "C#3",
          "ticks": 11520,
          "time": 71.28708,
          "velocity": 1
        },
        {
          "duration": 1.188118000000003,
          "durationTicks": 192,
          "midi": 54,
          "name": "F#3",
          "ticks": 11520,
          "time": 71.28708,
          "velocity": 1
        },
        {
          "duration": 1.188118000000003,
          "durationTicks": 192,
          "midi": 56,
          "name": "G#3",
          "ticks": 11520,
          "time": 71.28708,
          "velocity": 1
        },
        {
          "duration": 0.7425737499999912,
          "durationTicks": 120,
          "midi": 44,
          "name": "G#2",
          "ticks": 11712,
          "time": 72.475198,
          "velocity": 0.3937007874015748
        },
        {
          "duration": 0.7425737499999912,
          "durationTicks": 120,
          "midi": 49,
          "name": "C#3",
          "ticks": 11712,
          "time": 72.475198,
          "velocity": 1
        },
        {
          "duration": 0.7425737499999912,
          "durationTicks": 120,
          "midi": 51,
          "name": "D#3",
          "ticks": 11712,
          "time": 72.475198,
          "velocity": 1
        },
        {
          "duration": 0.7425737499999912,
          "durationTicks": 120,
          "midi": 56,
          "name": "G#3",
          "ticks": 11712,
          "time": 72.475198,
          "velocity": 1
        },
        {
          "duration": 0.29702950000000783,
          "durationTicks": 48,
          "midi": 39,
          "name": "D#2",
          "ticks": 11832,
          "time": 73.21777175,
          "velocity": 0.3937007874015748
        },
        {
          "duration": 0.29702950000000783,
          "durationTicks": 48,
          "midi": 44,
          "name": "G#2",
          "ticks": 11832,
          "time": 73.21777175,
          "velocity": 1
        },
        {
          "duration": 0.29702950000000783,
          "durationTicks": 48,
          "midi": 49,
          "name": "C#3",
          "ticks": 11832,
          "time": 73.21777175,
          "velocity": 1
        },
        {
          "duration": 0.29702950000000783,
          "durationTicks": 48,
          "midi": 51,
          "name": "D#3",
          "ticks": 11832,
          "time": 73.21777175,
          "velocity": 1
        },
        {
          "duration": 1.188118000000003,
          "durationTicks": 192,
          "midi": 42,
          "name": "F#2",
          "ticks": 11880,
          "time": 73.51480125,
          "velocity": 0.3937007874015748
        },
        {
          "duration": 1.188118000000003,
          "durationTicks": 192,
          "midi": 47,
          "name": "B2",
          "ticks": 11880,
          "time": 73.51480125,
          "velocity": 1
        },
        {
          "duration": 1.188118000000003,
          "durationTicks": 192,
          "midi": 51,
          "name": "D#3",
          "ticks": 11880,
          "time": 73.51480125,
          "velocity": 1
        },
        {
          "duration": 1.188118000000003,
          "durationTicks": 192,
          "midi": 54,
          "name": "F#3",
          "ticks": 11880,
          "time": 73.51480125,
          "velocity": 1
        },
        {
          "duration": 0.7425737499999912,
          "durationTicks": 120,
          "midi": 44,
          "name": "G#2",
          "ticks": 12072,
          "time": 74.70291925000001,
          "velocity": 0.3937007874015748
        },
        {
          "duration": 0.7425737499999912,
          "durationTicks": 120,
          "midi": 49,
          "name": "C#3",
          "ticks": 12072,
          "time": 74.70291925000001,
          "velocity": 1
        },
        {
          "duration": 0.7425737499999912,
          "durationTicks": 120,
          "midi": 51,
          "name": "D#3",
          "ticks": 12072,
          "time": 74.70291925000001,
          "velocity": 1
        },
        {
          "duration": 0.7425737499999912,
          "durationTicks": 120,
          "midi": 56,
          "name": "G#3",
          "ticks": 12072,
          "time": 74.70291925000001,
          "velocity": 1
        },
        {
          "duration": 0.29702950000000783,
          "durationTicks": 48,
          "midi": 42,
          "name": "F#2",
          "ticks": 12192,
          "time": 75.445493,
          "velocity": 0.3937007874015748
        },
        {
          "duration": 0.29702950000000783,
          "durationTicks": 48,
          "midi": 44,
          "name": "G#2",
          "ticks": 12192,
          "time": 75.445493,
          "velocity": 1
        },
        {
          "duration": 0.29702950000000783,
          "durationTicks": 48,
          "midi": 51,
          "name": "D#3",
          "ticks": 12192,
          "time": 75.445493,
          "velocity": 1
        },
        {
          "duration": 0.29702950000000783,
          "durationTicks": 48,
          "midi": 54,
          "name": "F#3",
          "ticks": 12192,
          "time": 75.445493,
          "velocity": 1
        },
        {
          "duration": 1.188118000000003,
          "durationTicks": 192,
          "midi": 39,
          "name": "D#2",
          "ticks": 12240,
          "time": 75.7425225,
          "velocity": 0.3937007874015748
        },
        {
          "duration": 1.188118000000003,
          "durationTicks": 192,
          "midi": 42,
          "name": "F#2",
          "ticks": 12240,
          "time": 75.7425225,
          "velocity": 1
        },
        {
          "duration": 1.188118000000003,
          "durationTicks": 192,
          "midi": 49,
          "name": "C#3",
          "ticks": 12240,
          "time": 75.7425225,
          "velocity": 1
        },
        {
          "duration": 1.188118000000003,
          "durationTicks": 192,
          "midi": 51,
          "name": "D#3",
          "ticks": 12240,
          "time": 75.7425225,
          "velocity": 1
        },
        {
          "duration": 0.7425737499999912,
          "durationTicks": 120,
          "midi": 39,
          "name": "D#2",
          "ticks": 12432,
          "time": 76.93064050000001,
          "velocity": 0.3937007874015748
        },
        {
          "duration": 0.7425737499999912,
          "durationTicks": 120,
          "midi": 42,
          "name": "F#2",
          "ticks": 12432,
          "time": 76.93064050000001,
          "velocity": 1
        },
        {
          "duration": 0.7425737499999912,
          "durationTicks": 120,
          "midi": 44,
          "name": "G#2",
          "ticks": 12432,
          "time": 76.93064050000001,
          "velocity": 1
        },
        {
          "duration": 0.7425737499999912,
          "durationTicks": 120,
          "midi": 51,
          "name": "D#3",
          "ticks": 12432,
          "time": 76.93064050000001,
          "velocity": 1
        },
        {
          "duration": 0.29702950000000783,
          "durationTicks": 48,
          "midi": 39,
          "name": "D#2",
          "ticks": 12552,
          "time": 77.67321425,
          "velocity": 0.3937007874015748
        },
        {
          "duration": 0.29702950000000783,
          "durationTicks": 48,
          "midi": 44,
          "name": "G#2",
          "ticks": 12552,
          "time": 77.67321425,
          "velocity": 1
        },
        {
          "duration": 0.29702950000000783,
          "durationTicks": 48,
          "midi": 44,
          "name": "G#2",
          "ticks": 12552,
          "time": 77.67321425,
          "velocity": 1
        },
        {
          "duration": 0.29702950000000783,
          "durationTicks": 48,
          "midi": 51,
          "name": "D#3",
          "ticks": 12552,
          "time": 77.67321425,
          "velocity": 1
        },
        {
          "duration": 1.188118000000003,
          "durationTicks": 192,
          "midi": 42,
          "name": "F#2",
          "ticks": 12600,
          "time": 77.97024375000001,
          "velocity": 0.3937007874015748
        },
        {
          "duration": 1.188118000000003,
          "durationTicks": 192,
          "midi": 47,
          "name": "B2",
          "ticks": 12600,
          "time": 77.97024375000001,
          "velocity": 1
        },
        {
          "duration": 1.188118000000003,
          "durationTicks": 192,
          "midi": 51,
          "name": "D#3",
          "ticks": 12600,
          "time": 77.97024375000001,
          "velocity": 1
        },
        {
          "duration": 1.188118000000003,
          "durationTicks": 192,
          "midi": 54,
          "name": "F#3",
          "ticks": 12600,
          "time": 77.97024375000001,
          "velocity": 1
        },
        {
          "duration": 0.7425737499999912,
          "durationTicks": 120,
          "midi": 44,
          "name": "G#2",
          "ticks": 12792,
          "time": 79.15836175000001,
          "velocity": 0.3937007874015748
        },
        {
          "duration": 0.7425737499999912,
          "durationTicks": 120,
          "midi": 47,
          "name": "B2",
          "ticks": 12792,
          "time": 79.15836175000001,
          "velocity": 1
        },
        {
          "duration": 0.7425737499999912,
          "durationTicks": 120,
          "midi": 51,
          "name": "D#3",
          "ticks": 12792,
          "time": 79.15836175000001,
          "velocity": 1
        },
        {
          "duration": 0.7425737499999912,
          "durationTicks": 120,
          "midi": 56,
          "name": "G#3",
          "ticks": 12792,
          "time": 79.15836175000001,
          "velocity": 1
        },
        {
          "duration": 0.29702950000000783,
          "durationTicks": 48,
          "midi": 42,
          "name": "F#2",
          "ticks": 12912,
          "time": 79.9009355,
          "velocity": 0.3937007874015748
        },
        {
          "duration": 0.29702950000000783,
          "durationTicks": 48,
          "midi": 47,
          "name": "B2",
          "ticks": 12912,
          "time": 79.9009355,
          "velocity": 1
        },
        {
          "duration": 0.29702950000000783,
          "durationTicks": 48,
          "midi": 51,
          "name": "D#3",
          "ticks": 12912,
          "time": 79.9009355,
          "velocity": 1
        },
        {
          "duration": 0.29702950000000783,
          "durationTicks": 48,
          "midi": 54,
          "name": "F#3",
          "ticks": 12912,
          "time": 79.9009355,
          "velocity": 1
        },
        {
          "duration": 3.4158392500000048,
          "durationTicks": 552,
          "midi": 44,
          "name": "G#2",
          "ticks": 12960,
          "time": 80.19796500000001,
          "velocity": 0.3937007874015748
        },
        {
          "duration": 3.4158392500000048,
          "durationTicks": 552,
          "midi": 49,
          "name": "C#3",
          "ticks": 12960,
          "time": 80.19796500000001,
          "velocity": 1
        },
        {
          "duration": 3.4158392500000048,
          "durationTicks": 552,
          "midi": 54,
          "name": "F#3",
          "ticks": 12960,
          "time": 80.19796500000001,
          "velocity": 1
        },
        {
          "duration": 3.4158392500000048,
          "durationTicks": 552,
          "midi": 56,
          "name": "G#3",
          "ticks": 12960,
          "time": 80.19796500000001,
          "velocity": 1
        },
        {
          "duration": 1.188118000000003,
          "durationTicks": 192,
          "midi": 44,
          "name": "G#2",
          "ticks": 14400,
          "time": 89.10885000000002,
          "velocity": 0.3937007874015748
        },
        {
          "duration": 1.188118000000003,
          "durationTicks": 192,
          "midi": 49,
          "name": "C#3",
          "ticks": 14400,
          "time": 89.10885000000002,
          "velocity": 1
        },
        {
          "duration": 1.188118000000003,
          "durationTicks": 192,
          "midi": 54,
          "name": "F#3",
          "ticks": 14400,
          "time": 89.10885000000002,
          "velocity": 1
        },
        {
          "duration": 1.188118000000003,
          "durationTicks": 192,
          "midi": 56,
          "name": "G#3",
          "ticks": 14400,
          "time": 89.10885000000002,
          "velocity": 1
        },
        {
          "duration": 2.227721250000002,
          "durationTicks": 360,
          "midi": 42,
          "name": "F#2",
          "ticks": 14592,
          "time": 90.29696800000002,
          "velocity": 0.28346456692913385
        },
        {
          "duration": 2.227721250000002,
          "durationTicks": 360,
          "midi": 49,
          "name": "C#3",
          "ticks": 14592,
          "time": 90.29696800000002,
          "velocity": 0.2677165354330709
        },
        {
          "duration": 2.227721250000002,
          "durationTicks": 360,
          "midi": 51,
          "name": "D#3",
          "ticks": 14592,
          "time": 90.29696800000002,
          "velocity": 0.2677165354330709
        },
        {
          "duration": 2.227721250000002,
          "durationTicks": 360,
          "midi": 54,
          "name": "F#3",
          "ticks": 14592,
          "time": 90.29696800000002,
          "velocity": 0.2677165354330709
        },
        {
          "duration": 1.188118000000003,
          "durationTicks": 192,
          "midi": 44,
          "name": "G#2",
          "ticks": 15120,
          "time": 93.56429250000002,
          "velocity": 0.3937007874015748
        },
        {
          "duration": 1.188118000000003,
          "durationTicks": 192,
          "midi": 49,
          "name": "C#3",
          "ticks": 15120,
          "time": 93.56429250000002,
          "velocity": 1
        },
        {
          "duration": 1.188118000000003,
          "durationTicks": 192,
          "midi": 54,
          "name": "F#3",
          "ticks": 15120,
          "time": 93.56429250000002,
          "velocity": 1
        },
        {
          "duration": 1.188118000000003,
          "durationTicks": 192,
          "midi": 56,
          "name": "G#3",
          "ticks": 15120,
          "time": 93.56429250000002,
          "velocity": 1
        },
        {
          "duration": 3.267324500000001,
          "durationTicks": 528,
          "midi": 44,
          "name": "G#2",
          "ticks": 15312,
          "time": 94.75241050000002,
          "velocity": 0.28346456692913385
        },
        {
          "duration": 3.267324500000001,
          "durationTicks": 528,
          "midi": 47,
          "name": "B2",
          "ticks": 15312,
          "time": 94.75241050000002,
          "velocity": 0.2677165354330709
        },
        {
          "duration": 3.267324500000001,
          "durationTicks": 528,
          "midi": 49,
          "name": "C#3",
          "ticks": 15312,
          "time": 94.75241050000002,
          "velocity": 0.2677165354330709
        },
        {
          "duration": 3.267324500000001,
          "durationTicks": 528,
          "midi": 56,
          "name": "G#3",
          "ticks": 15312,
          "time": 94.75241050000002,
          "velocity": 0.2677165354330709
        },
        {
          "duration": 1.1881179999999887,
          "durationTicks": 192,
          "midi": 44,
          "name": "G#2",
          "ticks": 15840,
          "time": 98.01973500000003,
          "velocity": 0.3937007874015748
        },
        {
          "duration": 1.1881179999999887,
          "durationTicks": 192,
          "midi": 49,
          "name": "C#3",
          "ticks": 15840,
          "time": 98.01973500000003,
          "velocity": 1
        },
        {
          "duration": 1.1881179999999887,
          "durationTicks": 192,
          "midi": 54,
          "name": "F#3",
          "ticks": 15840,
          "time": 98.01973500000003,
          "velocity": 1
        },
        {
          "duration": 1.1881179999999887,
          "durationTicks": 192,
          "midi": 56,
          "name": "G#3",
          "ticks": 15840,
          "time": 98.01973500000003,
          "velocity": 1
        },
        {
          "duration": 0.7425737500000054,
          "durationTicks": 120,
          "midi": 44,
          "name": "G#2",
          "ticks": 16032,
          "time": 99.20785300000001,
          "velocity": 0.3937007874015748
        },
        {
          "duration": 0.7425737500000054,
          "durationTicks": 120,
          "midi": 49,
          "name": "C#3",
          "ticks": 16032,
          "time": 99.20785300000001,
          "velocity": 1
        },
        {
          "duration": 0.7425737500000054,
          "durationTicks": 120,
          "midi": 51,
          "name": "D#3",
          "ticks": 16032,
          "time": 99.20785300000001,
          "velocity": 1
        },
        {
          "duration": 0.7425737500000054,
          "durationTicks": 120,
          "midi": 56,
          "name": "G#3",
          "ticks": 16032,
          "time": 99.20785300000001,
          "velocity": 1
        },
        {
          "duration": 0.2970294999999936,
          "durationTicks": 48,
          "midi": 39,
          "name": "D#2",
          "ticks": 16152,
          "time": 99.95042675000002,
          "velocity": 0.3937007874015748
        },
        {
          "duration": 0.2970294999999936,
          "durationTicks": 48,
          "midi": 44,
          "name": "G#2",
          "ticks": 16152,
          "time": 99.95042675000002,
          "velocity": 1
        },
        {
          "duration": 0.2970294999999936,
          "durationTicks": 48,
          "midi": 49,
          "name": "C#3",
          "ticks": 16152,
          "time": 99.95042675000002,
          "velocity": 1
        },
        {
          "duration": 0.2970294999999936,
          "durationTicks": 48,
          "midi": 51,
          "name": "D#3",
          "ticks": 16152,
          "time": 99.95042675000002,
          "velocity": 1
        },
        {
          "duration": 1.188118000000003,
          "durationTicks": 192,
          "midi": 42,
          "name": "F#2",
          "ticks": 16200,
          "time": 100.24745625000001,
          "velocity": 0.3937007874015748
        },
        {
          "duration": 1.188118000000003,
          "durationTicks": 192,
          "midi": 44,
          "name": "G#2",
          "ticks": 16200,
          "time": 100.24745625000001,
          "velocity": 1
        },
        {
          "duration": 1.188118000000003,
          "durationTicks": 192,
          "midi": 51,
          "name": "D#3",
          "ticks": 16200,
          "time": 100.24745625000001,
          "velocity": 1
        },
        {
          "duration": 1.188118000000003,
          "durationTicks": 192,
          "midi": 54,
          "name": "F#3",
          "ticks": 16200,
          "time": 100.24745625000001,
          "velocity": 1
        },
        {
          "duration": 0.7425737500000054,
          "durationTicks": 120,
          "midi": 44,
          "name": "G#2",
          "ticks": 16392,
          "time": 101.43557425000002,
          "velocity": 0.3937007874015748
        },
        {
          "duration": 0.7425737500000054,
          "durationTicks": 120,
          "midi": 49,
          "name": "C#3",
          "ticks": 16392,
          "time": 101.43557425000002,
          "velocity": 1
        },
        {
          "duration": 0.7425737500000054,
          "durationTicks": 120,
          "midi": 51,
          "name": "D#3",
          "ticks": 16392,
          "time": 101.43557425000002,
          "velocity": 1
        },
        {
          "duration": 0.7425737500000054,
          "durationTicks": 120,
          "midi": 56,
          "name": "G#3",
          "ticks": 16392,
          "time": 101.43557425000002,
          "velocity": 1
        },
        {
          "duration": 0.2970294999999936,
          "durationTicks": 48,
          "midi": 42,
          "name": "F#2",
          "ticks": 16512,
          "time": 102.17814800000002,
          "velocity": 0.3937007874015748
        },
        {
          "duration": 0.2970294999999936,
          "durationTicks": 48,
          "midi": 47,
          "name": "B2",
          "ticks": 16512,
          "time": 102.17814800000002,
          "velocity": 1
        },
        {
          "duration": 0.2970294999999936,
          "durationTicks": 48,
          "midi": 51,
          "name": "D#3",
          "ticks": 16512,
          "time": 102.17814800000002,
          "velocity": 1
        },
        {
          "duration": 0.2970294999999936,
          "durationTicks": 48,
          "midi": 54,
          "name": "F#3",
          "ticks": 16512,
          "time": 102.17814800000002,
          "velocity": 1
        },
        {
          "duration": 1.188118000000003,
          "durationTicks": 192,
          "midi": 44,
          "name": "G#2",
          "ticks": 16560,
          "time": 102.47517750000002,
          "velocity": 0.3937007874015748
        },
        {
          "duration": 1.188118000000003,
          "durationTicks": 192,
          "midi": 49,
          "name": "C#3",
          "ticks": 16560,
          "time": 102.47517750000002,
          "velocity": 1
        },
        {
          "duration": 1.188118000000003,
          "durationTicks": 192,
          "midi": 54,
          "name": "F#3",
          "ticks": 16560,
          "time": 102.47517750000002,
          "velocity": 1
        },
        {
          "duration": 1.188118000000003,
          "durationTicks": 192,
          "midi": 56,
          "name": "G#3",
          "ticks": 16560,
          "time": 102.47517750000002,
          "velocity": 1
        },
        {
          "duration": 0.7425737500000054,
          "durationTicks": 120,
          "midi": 44,
          "name": "G#2",
          "ticks": 16752,
          "time": 103.66329550000002,
          "velocity": 0.3937007874015748
        },
        {
          "duration": 0.7425737500000054,
          "durationTicks": 120,
          "midi": 49,
          "name": "C#3",
          "ticks": 16752,
          "time": 103.66329550000002,
          "velocity": 1
        },
        {
          "duration": 0.7425737500000054,
          "durationTicks": 120,
          "midi": 51,
          "name": "D#3",
          "ticks": 16752,
          "time": 103.66329550000002,
          "velocity": 1
        },
        {
          "duration": 0.7425737500000054,
          "durationTicks": 120,
          "midi": 56,
          "name": "G#3",
          "ticks": 16752,
          "time": 103.66329550000002,
          "velocity": 1
        },
        {
          "duration": 0.2970294999999936,
          "durationTicks": 48,
          "midi": 39,
          "name": "D#2",
          "ticks": 16872,
          "time": 104.40586925000002,
          "velocity": 0.3937007874015748
        },
        {
          "duration": 0.2970294999999936,
          "durationTicks": 48,
          "midi": 44,
          "name": "G#2",
          "ticks": 16872,
          "time": 104.40586925000002,
          "velocity": 1
        },
        {
          "duration": 0.2970294999999936,
          "durationTicks": 48,
          "midi": 49,
          "name": "C#3",
          "ticks": 16872,
          "time": 104.40586925000002,
          "velocity": 1
        },
        {
          "duration": 0.2970294999999936,
          "durationTicks": 48,
          "midi": 51,
          "name": "D#3",
          "ticks": 16872,
          "time": 104.40586925000002,
          "velocity": 1
        },
        {
          "duration": 1.188118000000003,
          "durationTicks": 192,
          "midi": 42,
          "name": "F#2",
          "ticks": 16920,
          "time": 104.70289875000002,
          "velocity": 0.3937007874015748
        },
        {
          "duration": 1.188118000000003,
          "durationTicks": 192,
          "midi": 44,
          "name": "G#2",
          "ticks": 16920,
          "time": 104.70289875000002,
          "velocity": 1
        },
        {
          "duration": 1.188118000000003,
          "durationTicks": 192,
          "midi": 51,
          "name": "D#3",
          "ticks": 16920,
          "time": 104.70289875000002,
          "velocity": 1
        },
        {
          "duration": 1.188118000000003,
          "durationTicks": 192,
          "midi": 54,
          "name": "F#3",
          "ticks": 16920,
          "time": 104.70289875000002,
          "velocity": 1
        },
        {
          "duration": 0.7425737500000054,
          "durationTicks": 120,
          "midi": 44,
          "name": "G#2",
          "ticks": 17112,
          "time": 105.89101675000002,
          "velocity": 0.3937007874015748
        },
        {
          "duration": 0.7425737500000054,
          "durationTicks": 120,
          "midi": 49,
          "name": "C#3",
          "ticks": 17112,
          "time": 105.89101675000002,
          "velocity": 1
        },
        {
          "duration": 0.7425737500000054,
          "durationTicks": 120,
          "midi": 51,
          "name": "D#3",
          "ticks": 17112,
          "time": 105.89101675000002,
          "velocity": 1
        },
        {
          "duration": 0.7425737500000054,
          "durationTicks": 120,
          "midi": 56,
          "name": "G#3",
          "ticks": 17112,
          "time": 105.89101675000002,
          "velocity": 1
        },
        {
          "duration": 0.2970294999999936,
          "durationTicks": 48,
          "midi": 42,
          "name": "F#2",
          "ticks": 17232,
          "time": 106.63359050000003,
          "velocity": 0.3937007874015748
        },
        {
          "duration": 0.2970294999999936,
          "durationTicks": 48,
          "midi": 47,
          "name": "B2",
          "ticks": 17232,
          "time": 106.63359050000003,
          "velocity": 1
        },
        {
          "duration": 0.2970294999999936,
          "durationTicks": 48,
          "midi": 51,
          "name": "D#3",
          "ticks": 17232,
          "time": 106.63359050000003,
          "velocity": 1
        },
        {
          "duration": 0.2970294999999936,
          "durationTicks": 48,
          "midi": 54,
          "name": "F#3",
          "ticks": 17232,
          "time": 106.63359050000003,
          "velocity": 1
        },
        {
          "duration": 1.188118000000003,
          "durationTicks": 192,
          "midi": 44,
          "name": "G#2",
          "ticks": 17280,
          "time": 106.93062000000002,
          "velocity": 0.3937007874015748
        },
        {
          "duration": 1.188118000000003,
          "durationTicks": 192,
          "midi": 49,
          "name": "C#3",
          "ticks": 17280,
          "time": 106.93062000000002,
          "velocity": 1
        },
        {
          "duration": 1.188118000000003,
          "durationTicks": 192,
          "midi": 54,
          "name": "F#3",
          "ticks": 17280,
          "time": 106.93062000000002,
          "velocity": 1
        },
        {
          "duration": 1.188118000000003,
          "durationTicks": 192,
          "midi": 56,
          "name": "G#3",
          "ticks": 17280,
          "time": 106.93062000000002,
          "velocity": 1
        },
        {
          "duration": 0.7425737499999912,
          "durationTicks": 120,
          "midi": 44,
          "name": "G#2",
          "ticks": 17472,
          "time": 108.11873800000002,
          "velocity": 0.3937007874015748
        },
        {
          "duration": 0.7425737499999912,
          "durationTicks": 120,
          "midi": 49,
          "name": "C#3",
          "ticks": 17472,
          "time": 108.11873800000002,
          "velocity": 1
        },
        {
          "duration": 0.7425737499999912,
          "durationTicks": 120,
          "midi": 51,
          "name": "D#3",
          "ticks": 17472,
          "time": 108.11873800000002,
          "velocity": 1
        },
        {
          "duration": 0.7425737499999912,
          "durationTicks": 120,
          "midi": 56,
          "name": "G#3",
          "ticks": 17472,
          "time": 108.11873800000002,
          "velocity": 1
        },
        {
          "duration": 0.29702950000000783,
          "durationTicks": 48,
          "midi": 38,
          "name": "D2",
          "ticks": 17592,
          "time": 108.86131175000001,
          "velocity": 0.3937007874015748
        },
        {
          "duration": 0.29702950000000783,
          "durationTicks": 48,
          "midi": 43,
          "name": "G2",
          "ticks": 17592,
          "time": 108.86131175000001,
          "velocity": 1
        },
        {
          "duration": 0.29702950000000783,
          "durationTicks": 48,
          "midi": 48,
          "name": "C3",
          "ticks": 17592,
          "time": 108.86131175000001,
          "velocity": 1
        },
        {
          "duration": 0.29702950000000783,
          "durationTicks": 48,
          "midi": 50,
          "name": "D3",
          "ticks": 17592,
          "time": 108.86131175000001,
          "velocity": 1
        },
        {
          "duration": 1.1881179999999887,
          "durationTicks": 192,
          "midi": 41,
          "name": "F2",
          "ticks": 17640,
          "time": 109.15834125000002,
          "velocity": 0.3937007874015748
        },
        {
          "duration": 1.1881179999999887,
          "durationTicks": 192,
          "midi": 43,
          "name": "G2",
          "ticks": 17640,
          "time": 109.15834125000002,
          "velocity": 1
        },
        {
          "duration": 1.1881179999999887,
          "durationTicks": 192,
          "midi": 50,
          "name": "D3",
          "ticks": 17640,
          "time": 109.15834125000002,
          "velocity": 1
        },
        {
          "duration": 1.1881179999999887,
          "durationTicks": 192,
          "midi": 53,
          "name": "F3",
          "ticks": 17640,
          "time": 109.15834125000002,
          "velocity": 1
        },
        {
          "duration": 0.7425737500000054,
          "durationTicks": 120,
          "midi": 43,
          "name": "G2",
          "ticks": 17832,
          "time": 110.34645925000001,
          "velocity": 0.3937007874015748
        },
        {
          "duration": 0.7425737500000054,
          "durationTicks": 120,
          "midi": 48,
          "name": "C3",
          "ticks": 17832,
          "time": 110.34645925000001,
          "velocity": 1
        },
        {
          "duration": 0.7425737500000054,
          "durationTicks": 120,
          "midi": 50,
          "name": "D3",
          "ticks": 17832,
          "time": 110.34645925000001,
          "velocity": 1
        },
        {
          "duration": 0.7425737500000054,
          "durationTicks": 120,
          "midi": 55,
          "name": "G3",
          "ticks": 17832,
          "time": 110.34645925000001,
          "velocity": 1
        },
        {
          "duration": 0.29702950000000783,
          "durationTicks": 48,
          "midi": 41,
          "name": "F2",
          "ticks": 17952,
          "time": 111.08903300000001,
          "velocity": 0.3937007874015748
        },
        {
          "duration": 0.29702950000000783,
          "durationTicks": 48,
          "midi": 46,
          "name": "A#2",
          "ticks": 17952,
          "time": 111.08903300000001,
          "velocity": 1
        },
        {
          "duration": 0.29702950000000783,
          "durationTicks": 48,
          "midi": 50,
          "name": "D3",
          "ticks": 17952,
          "time": 111.08903300000001,
          "velocity": 1
        },
        {
          "duration": 0.29702950000000783,
          "durationTicks": 48,
          "midi": 53,
          "name": "F3",
          "ticks": 17952,
          "time": 111.08903300000001,
          "velocity": 1
        },
        {
          "duration": 1.1881179999999887,
          "durationTicks": 192,
          "midi": 44,
          "name": "G#2",
          "ticks": 18000,
          "time": 111.38606250000002,
          "velocity": 0.3937007874015748
        },
        {
          "duration": 1.1881179999999887,
          "durationTicks": 192,
          "midi": 49,
          "name": "C#3",
          "ticks": 18000,
          "time": 111.38606250000002,
          "velocity": 1
        },
        {
          "duration": 1.1881179999999887,
          "durationTicks": 192,
          "midi": 54,
          "name": "F#3",
          "ticks": 18000,
          "time": 111.38606250000002,
          "velocity": 1
        },
        {
          "duration": 1.1881179999999887,
          "durationTicks": 192,
          "midi": 56,
          "name": "G#3",
          "ticks": 18000,
          "time": 111.38606250000002,
          "velocity": 1
        },
        {
          "duration": 0.7425737500000054,
          "durationTicks": 120,
          "midi": 44,
          "name": "G#2",
          "ticks": 18192,
          "time": 112.57418050000001,
          "velocity": 0.3937007874015748
        },
        {
          "duration": 0.7425737500000054,
          "durationTicks": 120,
          "midi": 49,
          "name": "C#3",
          "ticks": 18192,
          "time": 112.57418050000001,
          "velocity": 1
        },
        {
          "duration": 0.7425737500000054,
          "durationTicks": 120,
          "midi": 51,
          "name": "D#3",
          "ticks": 18192,
          "time": 112.57418050000001,
          "velocity": 1
        },
        {
          "duration": 0.7425737500000054,
          "durationTicks": 120,
          "midi": 56,
          "name": "G#3",
          "ticks": 18192,
          "time": 112.57418050000001,
          "velocity": 1
        },
        {
          "duration": 0.2970294999999936,
          "durationTicks": 48,
          "midi": 39,
          "name": "D#2",
          "ticks": 18312,
          "time": 113.31675425000002,
          "velocity": 0.3937007874015748
        },
        {
          "duration": 0.2970294999999936,
          "durationTicks": 48,
          "midi": 44,
          "name": "G#2",
          "ticks": 18312,
          "time": 113.31675425000002,
          "velocity": 1
        },
        {
          "duration": 0.2970294999999936,
          "durationTicks": 48,
          "midi": 49,
          "name": "C#3",
          "ticks": 18312,
          "time": 113.31675425000002,
          "velocity": 1
        },
        {
          "duration": 0.2970294999999936,
          "durationTicks": 48,
          "midi": 51,
          "name": "D#3",
          "ticks": 18312,
          "time": 113.31675425000002,
          "velocity": 1
        },
        {
          "duration": 1.188118000000003,
          "durationTicks": 192,
          "midi": 42,
          "name": "F#2",
          "ticks": 18360,
          "time": 113.61378375000001,
          "velocity": 0.3937007874015748
        },
        {
          "duration": 1.188118000000003,
          "durationTicks": 192,
          "midi": 44,
          "name": "G#2",
          "ticks": 18360,
          "time": 113.61378375000001,
          "velocity": 1
        },
        {
          "duration": 1.188118000000003,
          "durationTicks": 192,
          "midi": 51,
          "name": "D#3",
          "ticks": 18360,
          "time": 113.61378375000001,
          "velocity": 1
        },
        {
          "duration": 1.188118000000003,
          "durationTicks": 192,
          "midi": 54,
          "name": "F#3",
          "ticks": 18360,
          "time": 113.61378375000001,
          "velocity": 1
        },
        {
          "duration": 0.7425737500000054,
          "durationTicks": 120,
          "midi": 44,
          "name": "G#2",
          "ticks": 18552,
          "time": 114.80190175000001,
          "velocity": 0.3937007874015748
        },
        {
          "duration": 0.7425737500000054,
          "durationTicks": 120,
          "midi": 49,
          "name": "C#3",
          "ticks": 18552,
          "time": 114.80190175000001,
          "velocity": 1
        },
        {
          "duration": 0.7425737500000054,
          "durationTicks": 120,
          "midi": 51,
          "name": "D#3",
          "ticks": 18552,
          "time": 114.80190175000001,
          "velocity": 1
        },
        {
          "duration": 0.7425737500000054,
          "durationTicks": 120,
          "midi": 56,
          "name": "G#3",
          "ticks": 18552,
          "time": 114.80190175000001,
          "velocity": 1
        },
        {
          "duration": 0.2970294999999936,
          "durationTicks": 48,
          "midi": 42,
          "name": "F#2",
          "ticks": 18672,
          "time": 115.54447550000002,
          "velocity": 0.3937007874015748
        },
        {
          "duration": 0.2970294999999936,
          "durationTicks": 48,
          "midi": 47,
          "name": "B2",
          "ticks": 18672,
          "time": 115.54447550000002,
          "velocity": 1
        },
        {
          "duration": 0.2970294999999936,
          "durationTicks": 48,
          "midi": 51,
          "name": "D#3",
          "ticks": 18672,
          "time": 115.54447550000002,
          "velocity": 1
        },
        {
          "duration": 0.2970294999999936,
          "durationTicks": 48,
          "midi": 54,
          "name": "F#3",
          "ticks": 18672,
          "time": 115.54447550000002,
          "velocity": 1
        },
        {
          "duration": 1.188118000000003,
          "durationTicks": 192,
          "midi": 44,
          "name": "G#2",
          "ticks": 18720,
          "time": 115.84150500000001,
          "velocity": 0.3937007874015748
        },
        {
          "duration": 1.188118000000003,
          "durationTicks": 192,
          "midi": 49,
          "name": "C#3",
          "ticks": 18720,
          "time": 115.84150500000001,
          "velocity": 1
        },
        {
          "duration": 1.188118000000003,
          "durationTicks": 192,
          "midi": 54,
          "name": "F#3",
          "ticks": 18720,
          "time": 115.84150500000001,
          "velocity": 1
        },
        {
          "duration": 1.188118000000003,
          "durationTicks": 192,
          "midi": 56,
          "name": "G#3",
          "ticks": 18720,
          "time": 115.84150500000001,
          "velocity": 1
        },
        {
          "duration": 0.7425737500000054,
          "durationTicks": 120,
          "midi": 44,
          "name": "G#2",
          "ticks": 18912,
          "time": 117.02962300000002,
          "velocity": 0.3937007874015748
        },
        {
          "duration": 0.7425737500000054,
          "durationTicks": 120,
          "midi": 49,
          "name": "C#3",
          "ticks": 18912,
          "time": 117.02962300000002,
          "velocity": 1
        },
        {
          "duration": 0.7425737500000054,
          "durationTicks": 120,
          "midi": 51,
          "name": "D#3",
          "ticks": 18912,
          "time": 117.02962300000002,
          "velocity": 1
        },
        {
          "duration": 0.7425737500000054,
          "durationTicks": 120,
          "midi": 56,
          "name": "G#3",
          "ticks": 18912,
          "time": 117.02962300000002,
          "velocity": 1
        },
        {
          "duration": 0.2970294999999936,
          "durationTicks": 48,
          "midi": 38,
          "name": "D2",
          "ticks": 19032,
          "time": 117.77219675000002,
          "velocity": 0.3937007874015748
        },
        {
          "duration": 0.2970294999999936,
          "durationTicks": 48,
          "midi": 43,
          "name": "G2",
          "ticks": 19032,
          "time": 117.77219675000002,
          "velocity": 1
        },
        {
          "duration": 0.2970294999999936,
          "durationTicks": 48,
          "midi": 48,
          "name": "C3",
          "ticks": 19032,
          "time": 117.77219675000002,
          "velocity": 1
        },
        {
          "duration": 0.2970294999999936,
          "durationTicks": 48,
          "midi": 50,
          "name": "D3",
          "ticks": 19032,
          "time": 117.77219675000002,
          "velocity": 1
        },
        {
          "duration": 1.188118000000003,
          "durationTicks": 192,
          "midi": 42,
          "name": "F#2",
          "ticks": 19080,
          "time": 118.06922625000001,
          "velocity": 0.3937007874015748
        },
        {
          "duration": 1.188118000000003,
          "durationTicks": 192,
          "midi": 44,
          "name": "G#2",
          "ticks": 19080,
          "time": 118.06922625000001,
          "velocity": 1
        },
        {
          "duration": 1.188118000000003,
          "durationTicks": 192,
          "midi": 51,
          "name": "D#3",
          "ticks": 19080,
          "time": 118.06922625000001,
          "velocity": 1
        },
        {
          "duration": 1.188118000000003,
          "durationTicks": 192,
          "midi": 54,
          "name": "F#3",
          "ticks": 19080,
          "time": 118.06922625000001,
          "velocity": 1
        },
        {
          "duration": 0.7425737500000054,
          "durationTicks": 120,
          "midi": 44,
          "name": "G#2",
          "ticks": 19272,
          "time": 119.25734425000002,
          "velocity": 0.3937007874015748
        },
        {
          "duration": 0.7425737500000054,
          "durationTicks": 120,
          "midi": 49,
          "name": "C#3",
          "ticks": 19272,
          "time": 119.25734425000002,
          "velocity": 1
        },
        {
          "duration": 0.7425737500000054,
          "durationTicks": 120,
          "midi": 51,
          "name": "D#3",
          "ticks": 19272,
          "time": 119.25734425000002,
          "velocity": 1
        },
        {
          "duration": 0.7425737500000054,
          "durationTicks": 120,
          "midi": 56,
          "name": "G#3",
          "ticks": 19272,
          "time": 119.25734425000002,
          "velocity": 1
        },
        {
          "duration": 0.2970294999999936,
          "durationTicks": 48,
          "midi": 42,
          "name": "F#2",
          "ticks": 19392,
          "time": 119.99991800000002,
          "velocity": 0.3937007874015748
        },
        {
          "duration": 0.2970294999999936,
          "durationTicks": 48,
          "midi": 47,
          "name": "B2",
          "ticks": 19392,
          "time": 119.99991800000002,
          "velocity": 1
        },
        {
          "duration": 0.2970294999999936,
          "durationTicks": 48,
          "midi": 51,
          "name": "D#3",
          "ticks": 19392,
          "time": 119.99991800000002,
          "velocity": 1
        },
        {
          "duration": 0.2970294999999936,
          "durationTicks": 48,
          "midi": 54,
          "name": "F#3",
          "ticks": 19392,
          "time": 119.99991800000002,
          "velocity": 1
        },
        {
          "duration": 1.188118000000003,
          "durationTicks": 192,
          "midi": 44,
          "name": "G#2",
          "ticks": 19440,
          "time": 120.29694750000002,
          "velocity": 0.3937007874015748
        },
        {
          "duration": 1.188118000000003,
          "durationTicks": 192,
          "midi": 49,
          "name": "C#3",
          "ticks": 19440,
          "time": 120.29694750000002,
          "velocity": 1
        },
        {
          "duration": 1.188118000000003,
          "durationTicks": 192,
          "midi": 54,
          "name": "F#3",
          "ticks": 19440,
          "time": 120.29694750000002,
          "velocity": 1
        },
        {
          "duration": 1.188118000000003,
          "durationTicks": 192,
          "midi": 56,
          "name": "G#3",
          "ticks": 19440,
          "time": 120.29694750000002,
          "velocity": 1
        },
        {
          "duration": 0.7425737499999912,
          "durationTicks": 120,
          "midi": 44,
          "name": "G#2",
          "ticks": 19632,
          "time": 121.48506550000002,
          "velocity": 0.3937007874015748
        },
        {
          "duration": 0.7425737499999912,
          "durationTicks": 120,
          "midi": 49,
          "name": "C#3",
          "ticks": 19632,
          "time": 121.48506550000002,
          "velocity": 1
        },
        {
          "duration": 0.7425737499999912,
          "durationTicks": 120,
          "midi": 51,
          "name": "D#3",
          "ticks": 19632,
          "time": 121.48506550000002,
          "velocity": 1
        },
        {
          "duration": 0.7425737499999912,
          "durationTicks": 120,
          "midi": 56,
          "name": "G#3",
          "ticks": 19632,
          "time": 121.48506550000002,
          "velocity": 1
        },
        {
          "duration": 0.29702950000000783,
          "durationTicks": 48,
          "midi": 39,
          "name": "D#2",
          "ticks": 19752,
          "time": 122.22763925000001,
          "velocity": 0.3937007874015748
        },
        {
          "duration": 0.29702950000000783,
          "durationTicks": 48,
          "midi": 44,
          "name": "G#2",
          "ticks": 19752,
          "time": 122.22763925000001,
          "velocity": 1
        },
        {
          "duration": 0.29702950000000783,
          "durationTicks": 48,
          "midi": 49,
          "name": "C#3",
          "ticks": 19752,
          "time": 122.22763925000001,
          "velocity": 1
        },
        {
          "duration": 0.29702950000000783,
          "durationTicks": 48,
          "midi": 51,
          "name": "D#3",
          "ticks": 19752,
          "time": 122.22763925000001,
          "velocity": 1
        },
        {
          "duration": 1.188118000000003,
          "durationTicks": 192,
          "midi": 42,
          "name": "F#2",
          "ticks": 19800,
          "time": 122.52466875000002,
          "velocity": 0.3937007874015748
        },
        {
          "duration": 1.188118000000003,
          "durationTicks": 192,
          "midi": 44,
          "name": "G#2",
          "ticks": 19800,
          "time": 122.52466875000002,
          "velocity": 1
        },
        {
          "duration": 1.188118000000003,
          "durationTicks": 192,
          "midi": 51,
          "name": "D#3",
          "ticks": 19800,
          "time": 122.52466875000002,
          "velocity": 1
        },
        {
          "duration": 1.188118000000003,
          "durationTicks": 192,
          "midi": 54,
          "name": "F#3",
          "ticks": 19800,
          "time": 122.52466875000002,
          "velocity": 1
        },
        {
          "duration": 0.7425737499999912,
          "durationTicks": 120,
          "midi": 44,
          "name": "G#2",
          "ticks": 19992,
          "time": 123.71278675000002,
          "velocity": 0.3937007874015748
        },
        {
          "duration": 0.7425737499999912,
          "durationTicks": 120,
          "midi": 49,
          "name": "C#3",
          "ticks": 19992,
          "time": 123.71278675000002,
          "velocity": 1
        },
        {
          "duration": 0.7425737499999912,
          "durationTicks": 120,
          "midi": 51,
          "name": "D#3",
          "ticks": 19992,
          "time": 123.71278675000002,
          "velocity": 1
        },
        {
          "duration": 0.7425737499999912,
          "durationTicks": 120,
          "midi": 56,
          "name": "G#3",
          "ticks": 19992,
          "time": 123.71278675000002,
          "velocity": 1
        },
        {
          "duration": 0.29702950000000783,
          "durationTicks": 48,
          "midi": 42,
          "name": "F#2",
          "ticks": 20112,
          "time": 124.45536050000001,
          "velocity": 0.3937007874015748
        },
        {
          "duration": 0.29702950000000783,
          "durationTicks": 48,
          "midi": 47,
          "name": "B2",
          "ticks": 20112,
          "time": 124.45536050000001,
          "velocity": 1
        },
        {
          "duration": 0.29702950000000783,
          "durationTicks": 48,
          "midi": 51,
          "name": "D#3",
          "ticks": 20112,
          "time": 124.45536050000001,
          "velocity": 1
        },
        {
          "duration": 0.29702950000000783,
          "durationTicks": 48,
          "midi": 54,
          "name": "F#3",
          "ticks": 20112,
          "time": 124.45536050000001,
          "velocity": 1
        },
        {
          "duration": 1.188118000000003,
          "durationTicks": 192,
          "midi": 43,
          "name": "G2",
          "ticks": 20160,
          "time": 124.75239000000002,
          "velocity": 0.3937007874015748
        },
        {
          "duration": 1.188118000000003,
          "durationTicks": 192,
          "midi": 48,
          "name": "C3",
          "ticks": 20160,
          "time": 124.75239000000002,
          "velocity": 1
        },
        {
          "duration": 1.188118000000003,
          "durationTicks": 192,
          "midi": 53,
          "name": "F3",
          "ticks": 20160,
          "time": 124.75239000000002,
          "velocity": 1
        },
        {
          "duration": 1.188118000000003,
          "durationTicks": 192,
          "midi": 55,
          "name": "G3",
          "ticks": 20160,
          "time": 124.75239000000002,
          "velocity": 1
        },
        {
          "duration": 0.7425737499999912,
          "durationTicks": 120,
          "midi": 43,
          "name": "G2",
          "ticks": 20352,
          "time": 125.94050800000002,
          "velocity": 0.3937007874015748
        },
        {
          "duration": 0.7425737499999912,
          "durationTicks": 120,
          "midi": 48,
          "name": "C3",
          "ticks": 20352,
          "time": 125.94050800000002,
          "velocity": 1
        },
        {
          "duration": 0.7425737499999912,
          "durationTicks": 120,
          "midi": 50,
          "name": "D3",
          "ticks": 20352,
          "time": 125.94050800000002,
          "velocity": 1
        },
        {
          "duration": 0.7425737499999912,
          "durationTicks": 120,
          "midi": 55,
          "name": "G3",
          "ticks": 20352,
          "time": 125.94050800000002,
          "velocity": 1
        },
        {
          "duration": 0.29702950000000783,
          "durationTicks": 48,
          "midi": 38,
          "name": "D2",
          "ticks": 20472,
          "time": 126.68308175000001,
          "velocity": 0.3937007874015748
        },
        {
          "duration": 0.29702950000000783,
          "durationTicks": 48,
          "midi": 43,
          "name": "G2",
          "ticks": 20472,
          "time": 126.68308175000001,
          "velocity": 1
        },
        {
          "duration": 0.29702950000000783,
          "durationTicks": 48,
          "midi": 48,
          "name": "C3",
          "ticks": 20472,
          "time": 126.68308175000001,
          "velocity": 1
        },
        {
          "duration": 0.29702950000000783,
          "durationTicks": 48,
          "midi": 50,
          "name": "D3",
          "ticks": 20472,
          "time": 126.68308175000001,
          "velocity": 1
        },
        {
          "duration": 1.188118000000003,
          "durationTicks": 192,
          "midi": 41,
          "name": "F2",
          "ticks": 20520,
          "time": 126.98011125000002,
          "velocity": 0.3937007874015748
        },
        {
          "duration": 1.188118000000003,
          "durationTicks": 192,
          "midi": 43,
          "name": "G2",
          "ticks": 20520,
          "time": 126.98011125000002,
          "velocity": 1
        },
        {
          "duration": 1.188118000000003,
          "durationTicks": 192,
          "midi": 50,
          "name": "D3",
          "ticks": 20520,
          "time": 126.98011125000002,
          "velocity": 1
        },
        {
          "duration": 1.188118000000003,
          "durationTicks": 192,
          "midi": 53,
          "name": "F3",
          "ticks": 20520,
          "time": 126.98011125000002,
          "velocity": 1
        },
        {
          "duration": 0.7425737499999912,
          "durationTicks": 120,
          "midi": 43,
          "name": "G2",
          "ticks": 20712,
          "time": 128.16822925000002,
          "velocity": 0.3937007874015748
        },
        {
          "duration": 0.7425737499999912,
          "durationTicks": 120,
          "midi": 48,
          "name": "C3",
          "ticks": 20712,
          "time": 128.16822925000002,
          "velocity": 1
        },
        {
          "duration": 0.7425737499999912,
          "durationTicks": 120,
          "midi": 50,
          "name": "D3",
          "ticks": 20712,
          "time": 128.16822925000002,
          "velocity": 1
        },
        {
          "duration": 0.7425737499999912,
          "durationTicks": 120,
          "midi": 55,
          "name": "G3",
          "ticks": 20712,
          "time": 128.16822925000002,
          "velocity": 1
        },
        {
          "duration": 0.29702950000000783,
          "durationTicks": 48,
          "midi": 41,
          "name": "F2",
          "ticks": 20832,
          "time": 128.91080300000002,
          "velocity": 0.3937007874015748
        },
        {
          "duration": 0.29702950000000783,
          "durationTicks": 48,
          "midi": 46,
          "name": "A#2",
          "ticks": 20832,
          "time": 128.91080300000002,
          "velocity": 1
        },
        {
          "duration": 0.29702950000000783,
          "durationTicks": 48,
          "midi": 50,
          "name": "D3",
          "ticks": 20832,
          "time": 128.91080300000002,
          "velocity": 1
        },
        {
          "duration": 0.29702950000000783,
          "durationTicks": 48,
          "midi": 53,
          "name": "F3",
          "ticks": 20832,
          "time": 128.91080300000002,
          "velocity": 1
        },
        {
          "duration": 1.188118000000003,
          "durationTicks": 192,
          "midi": 43,
          "name": "G2",
          "ticks": 20880,
          "time": 129.20783250000002,
          "velocity": 0.3937007874015748
        },
        {
          "duration": 1.188118000000003,
          "durationTicks": 192,
          "midi": 48,
          "name": "C3",
          "ticks": 20880,
          "time": 129.20783250000002,
          "velocity": 1
        },
        {
          "duration": 1.188118000000003,
          "durationTicks": 192,
          "midi": 53,
          "name": "F3",
          "ticks": 20880,
          "time": 129.20783250000002,
          "velocity": 1
        },
        {
          "duration": 1.188118000000003,
          "durationTicks": 192,
          "midi": 55,
          "name": "G3",
          "ticks": 20880,
          "time": 129.20783250000002,
          "velocity": 1
        },
        {
          "duration": 0.7425737499999912,
          "durationTicks": 120,
          "midi": 43,
          "name": "G2",
          "ticks": 21072,
          "time": 130.39595050000003,
          "velocity": 0.3937007874015748
        },
        {
          "duration": 0.7425737499999912,
          "durationTicks": 120,
          "midi": 48,
          "name": "C3",
          "ticks": 21072,
          "time": 130.39595050000003,
          "velocity": 1
        },
        {
          "duration": 0.7425737499999912,
          "durationTicks": 120,
          "midi": 50,
          "name": "D3",
          "ticks": 21072,
          "time": 130.39595050000003,
          "velocity": 1
        },
        {
          "duration": 0.7425737499999912,
          "durationTicks": 120,
          "midi": 55,
          "name": "G3",
          "ticks": 21072,
          "time": 130.39595050000003,
          "velocity": 1
        },
        {
          "duration": 0.29702950000000783,
          "durationTicks": 48,
          "midi": 38,
          "name": "D2",
          "ticks": 21192,
          "time": 131.13852425000002,
          "velocity": 0.3937007874015748
        },
        {
          "duration": 0.29702950000000783,
          "durationTicks": 48,
          "midi": 43,
          "name": "G2",
          "ticks": 21192,
          "time": 131.13852425000002,
          "velocity": 1
        },
        {
          "duration": 0.29702950000000783,
          "durationTicks": 48,
          "midi": 48,
          "name": "C3",
          "ticks": 21192,
          "time": 131.13852425000002,
          "velocity": 1
        },
        {
          "duration": 0.29702950000000783,
          "durationTicks": 48,
          "midi": 50,
          "name": "D3",
          "ticks": 21192,
          "time": 131.13852425000002,
          "velocity": 1
        },
        {
          "duration": 1.188118000000003,
          "durationTicks": 192,
          "midi": 41,
          "name": "F2",
          "ticks": 21240,
          "time": 131.43555375000003,
          "velocity": 0.3937007874015748
        },
        {
          "duration": 1.188118000000003,
          "durationTicks": 192,
          "midi": 43,
          "name": "G2",
          "ticks": 21240,
          "time": 131.43555375000003,
          "velocity": 1
        },
        {
          "duration": 1.188118000000003,
          "durationTicks": 192,
          "midi": 50,
          "name": "D3",
          "ticks": 21240,
          "time": 131.43555375000003,
          "velocity": 1
        },
        {
          "duration": 1.188118000000003,
          "durationTicks": 192,
          "midi": 53,
          "name": "F3",
          "ticks": 21240,
          "time": 131.43555375000003,
          "velocity": 1
        },
        {
          "duration": 0.7425737499999912,
          "durationTicks": 120,
          "midi": 43,
          "name": "G2",
          "ticks": 21432,
          "time": 132.62367175000003,
          "velocity": 0.3937007874015748
        },
        {
          "duration": 0.7425737499999912,
          "durationTicks": 120,
          "midi": 48,
          "name": "C3",
          "ticks": 21432,
          "time": 132.62367175000003,
          "velocity": 1
        },
        {
          "duration": 0.7425737499999912,
          "durationTicks": 120,
          "midi": 50,
          "name": "D3",
          "ticks": 21432,
          "time": 132.62367175000003,
          "velocity": 1
        },
        {
          "duration": 0.7425737499999912,
          "durationTicks": 120,
          "midi": 55,
          "name": "G3",
          "ticks": 21432,
          "time": 132.62367175000003,
          "velocity": 1
        },
        {
          "duration": 0.29702950000000783,
          "durationTicks": 48,
          "midi": 41,
          "name": "F2",
          "ticks": 21552,
          "time": 133.36624550000002,
          "velocity": 0.3937007874015748
        },
        {
          "duration": 0.29702950000000783,
          "durationTicks": 48,
          "midi": 46,
          "name": "A#2",
          "ticks": 21552,
          "time": 133.36624550000002,
          "velocity": 1
        },
        {
          "duration": 0.29702950000000783,
          "durationTicks": 48,
          "midi": 50,
          "name": "D3",
          "ticks": 21552,
          "time": 133.36624550000002,
          "velocity": 1
        },
        {
          "duration": 0.29702950000000783,
          "durationTicks": 48,
          "midi": 53,
          "name": "F3",
          "ticks": 21552,
          "time": 133.36624550000002,
          "velocity": 1
        },
        {
          "duration": 1.188118000000003,
          "durationTicks": 192,
          "midi": 43,
          "name": "G2",
          "ticks": 21600,
          "time": 133.66327500000003,
          "velocity": 0.3937007874015748
        },
        {
          "duration": 1.188118000000003,
          "durationTicks": 192,
          "midi": 48,
          "name": "C3",
          "ticks": 21600,
          "time": 133.66327500000003,
          "velocity": 1
        },
        {
          "duration": 1.188118000000003,
          "durationTicks": 192,
          "midi": 53,
          "name": "F3",
          "ticks": 21600,
          "time": 133.66327500000003,
          "velocity": 1
        },
        {
          "duration": 1.188118000000003,
          "durationTicks": 192,
          "midi": 55,
          "name": "G3",
          "ticks": 21600,
          "time": 133.66327500000003,
          "velocity": 1
        },
        {
          "duration": 0.7425737499999912,
          "durationTicks": 120,
          "midi": 43,
          "name": "G2",
          "ticks": 21792,
          "time": 134.85139300000003,
          "velocity": 0.3937007874015748
        },
        {
          "duration": 0.7425737499999912,
          "durationTicks": 120,
          "midi": 48,
          "name": "C3",
          "ticks": 21792,
          "time": 134.85139300000003,
          "velocity": 1
        },
        {
          "duration": 0.7425737499999912,
          "durationTicks": 120,
          "midi": 50,
          "name": "D3",
          "ticks": 21792,
          "time": 134.85139300000003,
          "velocity": 1
        },
        {
          "duration": 0.7425737499999912,
          "durationTicks": 120,
          "midi": 55,
          "name": "G3",
          "ticks": 21792,
          "time": 134.85139300000003,
          "velocity": 1
        },
        {
          "duration": 0.29702950000000783,
          "durationTicks": 48,
          "midi": 38,
          "name": "D2",
          "ticks": 21912,
          "time": 135.59396675000002,
          "velocity": 0.3937007874015748
        },
        {
          "duration": 0.29702950000000783,
          "durationTicks": 48,
          "midi": 43,
          "name": "G2",
          "ticks": 21912,
          "time": 135.59396675000002,
          "velocity": 1
        },
        {
          "duration": 0.29702950000000783,
          "durationTicks": 48,
          "midi": 48,
          "name": "C3",
          "ticks": 21912,
          "time": 135.59396675000002,
          "velocity": 1
        },
        {
          "duration": 0.29702950000000783,
          "durationTicks": 48,
          "midi": 50,
          "name": "D3",
          "ticks": 21912,
          "time": 135.59396675000002,
          "velocity": 1
        },
        {
          "duration": 1.188118000000003,
          "durationTicks": 192,
          "midi": 41,
          "name": "F2",
          "ticks": 21960,
          "time": 135.89099625000003,
          "velocity": 0.3937007874015748
        },
        {
          "duration": 1.188118000000003,
          "durationTicks": 192,
          "midi": 43,
          "name": "G2",
          "ticks": 21960,
          "time": 135.89099625000003,
          "velocity": 1
        },
        {
          "duration": 1.188118000000003,
          "durationTicks": 192,
          "midi": 50,
          "name": "D3",
          "ticks": 21960,
          "time": 135.89099625000003,
          "velocity": 1
        },
        {
          "duration": 1.188118000000003,
          "durationTicks": 192,
          "midi": 53,
          "name": "F3",
          "ticks": 21960,
          "time": 135.89099625000003,
          "velocity": 1
        },
        {
          "duration": 0.7425737499999912,
          "durationTicks": 120,
          "midi": 43,
          "name": "G2",
          "ticks": 22152,
          "time": 137.07911425000003,
          "velocity": 0.3937007874015748
        },
        {
          "duration": 0.7425737499999912,
          "durationTicks": 120,
          "midi": 48,
          "name": "C3",
          "ticks": 22152,
          "time": 137.07911425000003,
          "velocity": 1
        },
        {
          "duration": 0.7425737499999912,
          "durationTicks": 120,
          "midi": 50,
          "name": "D3",
          "ticks": 22152,
          "time": 137.07911425000003,
          "velocity": 1
        },
        {
          "duration": 0.7425737499999912,
          "durationTicks": 120,
          "midi": 55,
          "name": "G3",
          "ticks": 22152,
          "time": 137.07911425000003,
          "velocity": 1
        },
        {
          "duration": 0.2970294999999794,
          "durationTicks": 48,
          "midi": 41,
          "name": "F2",
          "ticks": 22272,
          "time": 137.82168800000002,
          "velocity": 0.3937007874015748
        },
        {
          "duration": 0.2970294999999794,
          "durationTicks": 48,
          "midi": 46,
          "name": "A#2",
          "ticks": 22272,
          "time": 137.82168800000002,
          "velocity": 1
        },
        {
          "duration": 0.2970294999999794,
          "durationTicks": 48,
          "midi": 50,
          "name": "D3",
          "ticks": 22272,
          "time": 137.82168800000002,
          "velocity": 1
        },
        {
          "duration": 0.2970294999999794,
          "durationTicks": 48,
          "midi": 53,
          "name": "F3",
          "ticks": 22272,
          "time": 137.82168800000002,
          "velocity": 1
        },
        {
          "duration": 1.1881180000000313,
          "durationTicks": 192,
          "midi": 43,
          "name": "G2",
          "ticks": 22320,
          "time": 138.1187175,
          "velocity": 0.3937007874015748
        },
        {
          "duration": 1.1881180000000313,
          "durationTicks": 192,
          "midi": 48,
          "name": "C3",
          "ticks": 22320,
          "time": 138.1187175,
          "velocity": 1
        },
        {
          "duration": 1.1881180000000313,
          "durationTicks": 192,
          "midi": 53,
          "name": "F3",
          "ticks": 22320,
          "time": 138.1187175,
          "velocity": 1
        },
        {
          "duration": 1.1881180000000313,
          "durationTicks": 192,
          "midi": 55,
          "name": "G3",
          "ticks": 22320,
          "time": 138.1187175,
          "velocity": 1
        },
        {
          "duration": 0.7425737499999912,
          "durationTicks": 120,
          "midi": 43,
          "name": "G2",
          "ticks": 22512,
          "time": 139.30683550000003,
          "velocity": 0.3937007874015748
        },
        {
          "duration": 0.7425737499999912,
          "durationTicks": 120,
          "midi": 48,
          "name": "C3",
          "ticks": 22512,
          "time": 139.30683550000003,
          "velocity": 1
        },
        {
          "duration": 0.7425737499999912,
          "durationTicks": 120,
          "midi": 50,
          "name": "D3",
          "ticks": 22512,
          "time": 139.30683550000003,
          "velocity": 1
        },
        {
          "duration": 0.7425737499999912,
          "durationTicks": 120,
          "midi": 55,
          "name": "G3",
          "ticks": 22512,
          "time": 139.30683550000003,
          "velocity": 1
        },
        {
          "duration": 0.2970294999999794,
          "durationTicks": 48,
          "midi": 38,
          "name": "D2",
          "ticks": 22632,
          "time": 140.04940925000002,
          "velocity": 0.3937007874015748
        },
        {
          "duration": 0.2970294999999794,
          "durationTicks": 48,
          "midi": 43,
          "name": "G2",
          "ticks": 22632,
          "time": 140.04940925000002,
          "velocity": 1
        },
        {
          "duration": 0.2970294999999794,
          "durationTicks": 48,
          "midi": 48,
          "name": "C3",
          "ticks": 22632,
          "time": 140.04940925000002,
          "velocity": 1
        },
        {
          "duration": 0.2970294999999794,
          "durationTicks": 48,
          "midi": 50,
          "name": "D3",
          "ticks": 22632,
          "time": 140.04940925000002,
          "velocity": 1
        },
        {
          "duration": 1.1881180000000313,
          "durationTicks": 192,
          "midi": 41,
          "name": "F2",
          "ticks": 22680,
          "time": 140.34643875,
          "velocity": 0.3937007874015748
        },
        {
          "duration": 1.1881180000000313,
          "durationTicks": 192,
          "midi": 43,
          "name": "G2",
          "ticks": 22680,
          "time": 140.34643875,
          "velocity": 1
        },
        {
          "duration": 1.1881180000000313,
          "durationTicks": 192,
          "midi": 50,
          "name": "D3",
          "ticks": 22680,
          "time": 140.34643875,
          "velocity": 1
        },
        {
          "duration": 1.1881180000000313,
          "durationTicks": 192,
          "midi": 53,
          "name": "F3",
          "ticks": 22680,
          "time": 140.34643875,
          "velocity": 1
        },
        {
          "duration": 0.7425737499999912,
          "durationTicks": 120,
          "midi": 43,
          "name": "G2",
          "ticks": 22872,
          "time": 141.53455675000004,
          "velocity": 0.3937007874015748
        },
        {
          "duration": 0.7425737499999912,
          "durationTicks": 120,
          "midi": 48,
          "name": "C3",
          "ticks": 22872,
          "time": 141.53455675000004,
          "velocity": 1
        },
        {
          "duration": 0.7425737499999912,
          "durationTicks": 120,
          "midi": 50,
          "name": "D3",
          "ticks": 22872,
          "time": 141.53455675000004,
          "velocity": 1
        },
        {
          "duration": 0.7425737499999912,
          "durationTicks": 120,
          "midi": 55,
          "name": "G3",
          "ticks": 22872,
          "time": 141.53455675000004,
          "velocity": 1
        },
        {
          "duration": 0.3155938437500083,
          "durationTicks": 51,
          "midi": 41,
          "name": "F2",
          "ticks": 22992,
          "time": 142.27713050000003,
          "velocity": 0.3937007874015748
        },
        {
          "duration": 0.3155938437500083,
          "durationTicks": 51,
          "midi": 46,
          "name": "A#2",
          "ticks": 22992,
          "time": 142.27713050000003,
          "velocity": 1
        },
        {
          "duration": 0.3155938437500083,
          "durationTicks": 51,
          "midi": 50,
          "name": "D3",
          "ticks": 22992,
          "time": 142.27713050000003,
          "velocity": 1
        },
        {
          "duration": 0.3155938437500083,
          "durationTicks": 51,
          "midi": 53,
          "name": "F3",
          "ticks": 22992,
          "time": 142.27713050000003,
          "velocity": 1
        },
        {
          "duration": 1.169553656249974,
          "durationTicks": 189,
          "midi": 43,
          "name": "G2",
          "ticks": 23043,
          "time": 142.59272434375004,
          "velocity": 0.3937007874015748
        },
        {
          "duration": 1.169553656249974,
          "durationTicks": 189,
          "midi": 48,
          "name": "C3",
          "ticks": 23043,
          "time": 142.59272434375004,
          "velocity": 1
        },
        {
          "duration": 1.169553656249974,
          "durationTicks": 189,
          "midi": 53,
          "name": "F3",
          "ticks": 23043,
          "time": 142.59272434375004,
          "velocity": 1
        },
        {
          "duration": 1.169553656249974,
          "durationTicks": 189,
          "midi": 55,
          "name": "G3",
          "ticks": 23043,
          "time": 142.59272434375004,
          "velocity": 1
        },
        {
          "duration": 0.7425737500000196,
          "durationTicks": 120,
          "midi": 43,
          "name": "G2",
          "ticks": 23232,
          "time": 143.762278,
          "velocity": 0.3937007874015748
        },
        {
          "duration": 0.7425737500000196,
          "durationTicks": 120,
          "midi": 48,
          "name": "C3",
          "ticks": 23232,
          "time": 143.762278,
          "velocity": 1
        },
        {
          "duration": 0.7425737500000196,
          "durationTicks": 120,
          "midi": 50,
          "name": "D3",
          "ticks": 23232,
          "time": 143.762278,
          "velocity": 1
        },
        {
          "duration": 0.7425737500000196,
          "durationTicks": 120,
          "midi": 55,
          "name": "G3",
          "ticks": 23232,
          "time": 143.762278,
          "velocity": 1
        },
        {
          "duration": 0.2970294999999794,
          "durationTicks": 48,
          "midi": 38,
          "name": "D2",
          "ticks": 23352,
          "time": 144.50485175000003,
          "velocity": 0.3937007874015748
        },
        {
          "duration": 0.2970294999999794,
          "durationTicks": 48,
          "midi": 43,
          "name": "G2",
          "ticks": 23352,
          "time": 144.50485175000003,
          "velocity": 1
        },
        {
          "duration": 0.2970294999999794,
          "durationTicks": 48,
          "midi": 48,
          "name": "C3",
          "ticks": 23352,
          "time": 144.50485175000003,
          "velocity": 1
        },
        {
          "duration": 0.2970294999999794,
          "durationTicks": 48,
          "midi": 50,
          "name": "D3",
          "ticks": 23352,
          "time": 144.50485175000003,
          "velocity": 1
        },
        {
          "duration": 1.188118000000003,
          "durationTicks": 192,
          "midi": 41,
          "name": "F2",
          "ticks": 23400,
          "time": 144.80188125,
          "velocity": 0.3937007874015748
        },
        {
          "duration": 1.188118000000003,
          "durationTicks": 192,
          "midi": 43,
          "name": "G2",
          "ticks": 23400,
          "time": 144.80188125,
          "velocity": 1
        },
        {
          "duration": 1.188118000000003,
          "durationTicks": 192,
          "midi": 50,
          "name": "D3",
          "ticks": 23400,
          "time": 144.80188125,
          "velocity": 1
        },
        {
          "duration": 1.188118000000003,
          "durationTicks": 192,
          "midi": 53,
          "name": "F3",
          "ticks": 23400,
          "time": 144.80188125,
          "velocity": 1
        },
        {
          "duration": 0.7425737499999912,
          "durationTicks": 120,
          "midi": 43,
          "name": "G2",
          "ticks": 23592,
          "time": 145.98999925,
          "velocity": 0.3937007874015748
        },
        {
          "duration": 0.7425737499999912,
          "durationTicks": 120,
          "midi": 48,
          "name": "C3",
          "ticks": 23592,
          "time": 145.98999925,
          "velocity": 1
        },
        {
          "duration": 0.7425737499999912,
          "durationTicks": 120,
          "midi": 50,
          "name": "D3",
          "ticks": 23592,
          "time": 145.98999925,
          "velocity": 1
        },
        {
          "duration": 0.7425737499999912,
          "durationTicks": 120,
          "midi": 55,
          "name": "G3",
          "ticks": 23592,
          "time": 145.98999925,
          "velocity": 1
        },
        {
          "duration": 0.29702950000000783,
          "durationTicks": 48,
          "midi": 41,
          "name": "F2",
          "ticks": 23712,
          "time": 146.732573,
          "velocity": 0.3937007874015748
        },
        {
          "duration": 0.29702950000000783,
          "durationTicks": 48,
          "midi": 46,
          "name": "A#2",
          "ticks": 23712,
          "time": 146.732573,
          "velocity": 1
        },
        {
          "duration": 0.29702950000000783,
          "durationTicks": 48,
          "midi": 50,
          "name": "D3",
          "ticks": 23712,
          "time": 146.732573,
          "velocity": 1
        },
        {
          "duration": 0.29702950000000783,
          "durationTicks": 48,
          "midi": 53,
          "name": "F3",
          "ticks": 23712,
          "time": 146.732573,
          "velocity": 1
        },
        {
          "duration": 1.188118000000003,
          "durationTicks": 192,
          "midi": 43,
          "name": "G2",
          "ticks": 23760,
          "time": 147.0296025,
          "velocity": 0.3937007874015748
        },
        {
          "duration": 1.188118000000003,
          "durationTicks": 192,
          "midi": 48,
          "name": "C3",
          "ticks": 23760,
          "time": 147.0296025,
          "velocity": 1
        },
        {
          "duration": 1.188118000000003,
          "durationTicks": 192,
          "midi": 53,
          "name": "F3",
          "ticks": 23760,
          "time": 147.0296025,
          "velocity": 1
        },
        {
          "duration": 1.188118000000003,
          "durationTicks": 192,
          "midi": 55,
          "name": "G3",
          "ticks": 23760,
          "time": 147.0296025,
          "velocity": 1
        },
        {
          "duration": 0.7425737499999912,
          "durationTicks": 120,
          "midi": 43,
          "name": "G2",
          "ticks": 23952,
          "time": 148.2177205,
          "velocity": 0.3937007874015748
        },
        {
          "duration": 0.7425737499999912,
          "durationTicks": 120,
          "midi": 48,
          "name": "C3",
          "ticks": 23952,
          "time": 148.2177205,
          "velocity": 1
        },
        {
          "duration": 0.7425737499999912,
          "durationTicks": 120,
          "midi": 50,
          "name": "D3",
          "ticks": 23952,
          "time": 148.2177205,
          "velocity": 1
        },
        {
          "duration": 0.7425737499999912,
          "durationTicks": 120,
          "midi": 55,
          "name": "G3",
          "ticks": 23952,
          "time": 148.2177205,
          "velocity": 1
        },
        {
          "duration": 0.29702950000000783,
          "durationTicks": 48,
          "midi": 38,
          "name": "D2",
          "ticks": 24072,
          "time": 148.96029425,
          "velocity": 0.3937007874015748
        },
        {
          "duration": 0.29702950000000783,
          "durationTicks": 48,
          "midi": 43,
          "name": "G2",
          "ticks": 24072,
          "time": 148.96029425,
          "velocity": 1
        },
        {
          "duration": 0.29702950000000783,
          "durationTicks": 48,
          "midi": 48,
          "name": "C3",
          "ticks": 24072,
          "time": 148.96029425,
          "velocity": 1
        },
        {
          "duration": 0.29702950000000783,
          "durationTicks": 48,
          "midi": 50,
          "name": "D3",
          "ticks": 24072,
          "time": 148.96029425,
          "velocity": 1
        },
        {
          "duration": 1.188118000000003,
          "durationTicks": 192,
          "midi": 41,
          "name": "F2",
          "ticks": 24120,
          "time": 149.25732375,
          "velocity": 0.3937007874015748
        },
        {
          "duration": 1.188118000000003,
          "durationTicks": 192,
          "midi": 43,
          "name": "G2",
          "ticks": 24120,
          "time": 149.25732375,
          "velocity": 1
        },
        {
          "duration": 1.188118000000003,
          "durationTicks": 192,
          "midi": 50,
          "name": "D3",
          "ticks": 24120,
          "time": 149.25732375,
          "velocity": 1
        },
        {
          "duration": 1.188118000000003,
          "durationTicks": 192,
          "midi": 53,
          "name": "F3",
          "ticks": 24120,
          "time": 149.25732375,
          "velocity": 1
        },
        {
          "duration": 0.7425737499999912,
          "durationTicks": 120,
          "midi": 43,
          "name": "G2",
          "ticks": 24312,
          "time": 150.44544175000001,
          "velocity": 0.3937007874015748
        },
        {
          "duration": 0.7425737499999912,
          "durationTicks": 120,
          "midi": 48,
          "name": "C3",
          "ticks": 24312,
          "time": 150.44544175000001,
          "velocity": 1
        },
        {
          "duration": 0.7425737499999912,
          "durationTicks": 120,
          "midi": 50,
          "name": "D3",
          "ticks": 24312,
          "time": 150.44544175000001,
          "velocity": 1
        },
        {
          "duration": 0.7425737499999912,
          "durationTicks": 120,
          "midi": 55,
          "name": "G3",
          "ticks": 24312,
          "time": 150.44544175000001,
          "velocity": 1
        },
        {
          "duration": 0.29702950000000783,
          "durationTicks": 48,
          "midi": 41,
          "name": "F2",
          "ticks": 24432,
          "time": 151.1880155,
          "velocity": 0.3937007874015748
        },
        {
          "duration": 0.29702950000000783,
          "durationTicks": 48,
          "midi": 46,
          "name": "A#2",
          "ticks": 24432,
          "time": 151.1880155,
          "velocity": 1
        },
        {
          "duration": 0.29702950000000783,
          "durationTicks": 48,
          "midi": 50,
          "name": "D3",
          "ticks": 24432,
          "time": 151.1880155,
          "velocity": 1
        },
        {
          "duration": 0.29702950000000783,
          "durationTicks": 48,
          "midi": 53,
          "name": "F3",
          "ticks": 24432,
          "time": 151.1880155,
          "velocity": 1
        },
        {
          "duration": 1.188118000000003,
          "durationTicks": 192,
          "midi": 44,
          "name": "G#2",
          "ticks": 24480,
          "time": 151.485045,
          "velocity": 0.3937007874015748
        },
        {
          "duration": 1.188118000000003,
          "durationTicks": 192,
          "midi": 49,
          "name": "C#3",
          "ticks": 24480,
          "time": 151.485045,
          "velocity": 1
        },
        {
          "duration": 1.188118000000003,
          "durationTicks": 192,
          "midi": 54,
          "name": "F#3",
          "ticks": 24480,
          "time": 151.485045,
          "velocity": 1
        },
        {
          "duration": 1.188118000000003,
          "durationTicks": 192,
          "midi": 56,
          "name": "G#3",
          "ticks": 24480,
          "time": 151.485045,
          "velocity": 1
        },
        {
          "duration": 0.7425737499999912,
          "durationTicks": 120,
          "midi": 44,
          "name": "G#2",
          "ticks": 24672,
          "time": 152.67316300000002,
          "velocity": 0.3937007874015748
        },
        {
          "duration": 0.7425737499999912,
          "durationTicks": 120,
          "midi": 49,
          "name": "C#3",
          "ticks": 24672,
          "time": 152.67316300000002,
          "velocity": 1
        },
        {
          "duration": 0.7425737499999912,
          "durationTicks": 120,
          "midi": 51,
          "name": "D#3",
          "ticks": 24672,
          "time": 152.67316300000002,
          "velocity": 1
        },
        {
          "duration": 0.7425737499999912,
          "durationTicks": 120,
          "midi": 56,
          "name": "G#3",
          "ticks": 24672,
          "time": 152.67316300000002,
          "velocity": 1
        },
        {
          "duration": 0.29702950000000783,
          "durationTicks": 48,
          "midi": 39,
          "name": "D#2",
          "ticks": 24792,
          "time": 153.41573675,
          "velocity": 0.3937007874015748
        },
        {
          "duration": 0.29702950000000783,
          "durationTicks": 48,
          "midi": 44,
          "name": "G#2",
          "ticks": 24792,
          "time": 153.41573675,
          "velocity": 1
        },
        {
          "duration": 0.29702950000000783,
          "durationTicks": 48,
          "midi": 49,
          "name": "C#3",
          "ticks": 24792,
          "time": 153.41573675,
          "velocity": 1
        },
        {
          "duration": 0.29702950000000783,
          "durationTicks": 48,
          "midi": 51,
          "name": "D#3",
          "ticks": 24792,
          "time": 153.41573675,
          "velocity": 1
        },
        {
          "duration": 1.188118000000003,
          "durationTicks": 192,
          "midi": 42,
          "name": "F#2",
          "ticks": 24840,
          "time": 153.71276625000002,
          "velocity": 0.3937007874015748
        },
        {
          "duration": 1.188118000000003,
          "durationTicks": 192,
          "midi": 44,
          "name": "G#2",
          "ticks": 24840,
          "time": 153.71276625000002,
          "velocity": 1
        },
        {
          "duration": 1.188118000000003,
          "durationTicks": 192,
          "midi": 51,
          "name": "D#3",
          "ticks": 24840,
          "time": 153.71276625000002,
          "velocity": 1
        },
        {
          "duration": 1.188118000000003,
          "durationTicks": 192,
          "midi": 54,
          "name": "F#3",
          "ticks": 24840,
          "time": 153.71276625000002,
          "velocity": 1
        },
        {
          "duration": 0.7425737499999912,
          "durationTicks": 120,
          "midi": 44,
          "name": "G#2",
          "ticks": 25032,
          "time": 154.90088425000002,
          "velocity": 0.3937007874015748
        },
        {
          "duration": 0.7425737499999912,
          "durationTicks": 120,
          "midi": 49,
          "name": "C#3",
          "ticks": 25032,
          "time": 154.90088425000002,
          "velocity": 1
        },
        {
          "duration": 0.7425737499999912,
          "durationTicks": 120,
          "midi": 51,
          "name": "D#3",
          "ticks": 25032,
          "time": 154.90088425000002,
          "velocity": 1
        },
        {
          "duration": 0.7425737499999912,
          "durationTicks": 120,
          "midi": 56,
          "name": "G#3",
          "ticks": 25032,
          "time": 154.90088425000002,
          "velocity": 1
        },
        {
          "duration": 0.29702950000000783,
          "durationTicks": 48,
          "midi": 42,
          "name": "F#2",
          "ticks": 25152,
          "time": 155.643458,
          "velocity": 0.3937007874015748
        },
        {
          "duration": 0.29702950000000783,
          "durationTicks": 48,
          "midi": 47,
          "name": "B2",
          "ticks": 25152,
          "time": 155.643458,
          "velocity": 1
        },
        {
          "duration": 0.29702950000000783,
          "durationTicks": 48,
          "midi": 51,
          "name": "D#3",
          "ticks": 25152,
          "time": 155.643458,
          "velocity": 1
        },
        {
          "duration": 0.29702950000000783,
          "durationTicks": 48,
          "midi": 54,
          "name": "F#3",
          "ticks": 25152,
          "time": 155.643458,
          "velocity": 1
        },
        {
          "duration": 1.188118000000003,
          "durationTicks": 192,
          "midi": 44,
          "name": "G#2",
          "ticks": 25200,
          "time": 155.94048750000002,
          "velocity": 0.3937007874015748
        },
        {
          "duration": 1.188118000000003,
          "durationTicks": 192,
          "midi": 49,
          "name": "C#3",
          "ticks": 25200,
          "time": 155.94048750000002,
          "velocity": 1
        },
        {
          "duration": 1.188118000000003,
          "durationTicks": 192,
          "midi": 54,
          "name": "F#3",
          "ticks": 25200,
          "time": 155.94048750000002,
          "velocity": 1
        },
        {
          "duration": 1.188118000000003,
          "durationTicks": 192,
          "midi": 56,
          "name": "G#3",
          "ticks": 25200,
          "time": 155.94048750000002,
          "velocity": 1
        },
        {
          "duration": 0.7425737499999912,
          "durationTicks": 120,
          "midi": 44,
          "name": "G#2",
          "ticks": 25392,
          "time": 157.12860550000002,
          "velocity": 0.3937007874015748
        },
        {
          "duration": 0.7425737499999912,
          "durationTicks": 120,
          "midi": 49,
          "name": "C#3",
          "ticks": 25392,
          "time": 157.12860550000002,
          "velocity": 1
        },
        {
          "duration": 0.7425737499999912,
          "durationTicks": 120,
          "midi": 51,
          "name": "D#3",
          "ticks": 25392,
          "time": 157.12860550000002,
          "velocity": 1
        },
        {
          "duration": 0.7425737499999912,
          "durationTicks": 120,
          "midi": 56,
          "name": "G#3",
          "ticks": 25392,
          "time": 157.12860550000002,
          "velocity": 1
        },
        {
          "duration": 0.29702950000000783,
          "durationTicks": 48,
          "midi": 39,
          "name": "D#2",
          "ticks": 25512,
          "time": 157.87117925,
          "velocity": 0.3937007874015748
        },
        {
          "duration": 0.29702950000000783,
          "durationTicks": 48,
          "midi": 44,
          "name": "G#2",
          "ticks": 25512,
          "time": 157.87117925,
          "velocity": 1
        },
        {
          "duration": 0.29702950000000783,
          "durationTicks": 48,
          "midi": 49,
          "name": "C#3",
          "ticks": 25512,
          "time": 157.87117925,
          "velocity": 1
        },
        {
          "duration": 0.29702950000000783,
          "durationTicks": 48,
          "midi": 51,
          "name": "D#3",
          "ticks": 25512,
          "time": 157.87117925,
          "velocity": 1
        },
        {
          "duration": 1.188118000000003,
          "durationTicks": 192,
          "midi": 42,
          "name": "F#2",
          "ticks": 25560,
          "time": 158.16820875000002,
          "velocity": 0.3937007874015748
        },
        {
          "duration": 1.188118000000003,
          "durationTicks": 192,
          "midi": 44,
          "name": "G#2",
          "ticks": 25560,
          "time": 158.16820875000002,
          "velocity": 1
        },
        {
          "duration": 1.188118000000003,
          "durationTicks": 192,
          "midi": 51,
          "name": "D#3",
          "ticks": 25560,
          "time": 158.16820875000002,
          "velocity": 1
        },
        {
          "duration": 1.188118000000003,
          "durationTicks": 192,
          "midi": 54,
          "name": "F#3",
          "ticks": 25560,
          "time": 158.16820875000002,
          "velocity": 1
        },
        {
          "duration": 0.7425737499999912,
          "durationTicks": 120,
          "midi": 44,
          "name": "G#2",
          "ticks": 25752,
          "time": 159.35632675000002,
          "velocity": 0.3937007874015748
        },
        {
          "duration": 0.7425737499999912,
          "durationTicks": 120,
          "midi": 49,
          "name": "C#3",
          "ticks": 25752,
          "time": 159.35632675000002,
          "velocity": 1
        },
        {
          "duration": 0.7425737499999912,
          "durationTicks": 120,
          "midi": 51,
          "name": "D#3",
          "ticks": 25752,
          "time": 159.35632675000002,
          "velocity": 1
        },
        {
          "duration": 0.7425737499999912,
          "durationTicks": 120,
          "midi": 56,
          "name": "G#3",
          "ticks": 25752,
          "time": 159.35632675000002,
          "velocity": 1
        },
        {
          "duration": 0.29702950000000783,
          "durationTicks": 48,
          "midi": 42,
          "name": "F#2",
          "ticks": 25872,
          "time": 160.0989005,
          "velocity": 0.3937007874015748
        },
        {
          "duration": 0.29702950000000783,
          "durationTicks": 48,
          "midi": 47,
          "name": "B2",
          "ticks": 25872,
          "time": 160.0989005,
          "velocity": 1
        },
        {
          "duration": 0.29702950000000783,
          "durationTicks": 48,
          "midi": 51,
          "name": "D#3",
          "ticks": 25872,
          "time": 160.0989005,
          "velocity": 1
        },
        {
          "duration": 0.29702950000000783,
          "durationTicks": 48,
          "midi": 54,
          "name": "F#3",
          "ticks": 25872,
          "time": 160.0989005,
          "velocity": 1
        },
        {
          "duration": 1.188118000000003,
          "durationTicks": 192,
          "midi": 44,
          "name": "G#2",
          "ticks": 25920,
          "time": 160.39593000000002,
          "velocity": 0.3937007874015748
        },
        {
          "duration": 1.188118000000003,
          "durationTicks": 192,
          "midi": 49,
          "name": "C#3",
          "ticks": 25920,
          "time": 160.39593000000002,
          "velocity": 1
        },
        {
          "duration": 1.188118000000003,
          "durationTicks": 192,
          "midi": 54,
          "name": "F#3",
          "ticks": 25920,
          "time": 160.39593000000002,
          "velocity": 1
        },
        {
          "duration": 1.188118000000003,
          "durationTicks": 192,
          "midi": 56,
          "name": "G#3",
          "ticks": 25920,
          "time": 160.39593000000002,
          "velocity": 1
        },
        {
          "duration": 0.7425737499999912,
          "durationTicks": 120,
          "midi": 44,
          "name": "G#2",
          "ticks": 26112,
          "time": 161.58404800000002,
          "velocity": 0.3937007874015748
        },
        {
          "duration": 0.7425737499999912,
          "durationTicks": 120,
          "midi": 49,
          "name": "C#3",
          "ticks": 26112,
          "time": 161.58404800000002,
          "velocity": 1
        },
        {
          "duration": 0.7425737499999912,
          "durationTicks": 120,
          "midi": 51,
          "name": "D#3",
          "ticks": 26112,
          "time": 161.58404800000002,
          "velocity": 1
        },
        {
          "duration": 0.7425737499999912,
          "durationTicks": 120,
          "midi": 56,
          "name": "G#3",
          "ticks": 26112,
          "time": 161.58404800000002,
          "velocity": 1
        },
        {
          "duration": 0.29702950000000783,
          "durationTicks": 48,
          "midi": 39,
          "name": "D#2",
          "ticks": 26232,
          "time": 162.32662175000002,
          "velocity": 0.3937007874015748
        },
        {
          "duration": 0.29702950000000783,
          "durationTicks": 48,
          "midi": 44,
          "name": "G#2",
          "ticks": 26232,
          "time": 162.32662175000002,
          "velocity": 1
        },
        {
          "duration": 0.29702950000000783,
          "durationTicks": 48,
          "midi": 49,
          "name": "C#3",
          "ticks": 26232,
          "time": 162.32662175000002,
          "velocity": 1
        },
        {
          "duration": 0.29702950000000783,
          "durationTicks": 48,
          "midi": 51,
          "name": "D#3",
          "ticks": 26232,
          "time": 162.32662175000002,
          "velocity": 1
        },
        {
          "duration": 1.1881179999999745,
          "durationTicks": 192,
          "midi": 42,
          "name": "F#2",
          "ticks": 26280,
          "time": 162.62365125000002,
          "velocity": 0.3937007874015748
        },
        {
          "duration": 1.1881179999999745,
          "durationTicks": 192,
          "midi": 44,
          "name": "G#2",
          "ticks": 26280,
          "time": 162.62365125000002,
          "velocity": 1
        },
        {
          "duration": 1.1881179999999745,
          "durationTicks": 192,
          "midi": 51,
          "name": "D#3",
          "ticks": 26280,
          "time": 162.62365125000002,
          "velocity": 1
        },
        {
          "duration": 1.1881179999999745,
          "durationTicks": 192,
          "midi": 54,
          "name": "F#3",
          "ticks": 26280,
          "time": 162.62365125000002,
          "velocity": 1
        },
        {
          "duration": 0.7425737500000196,
          "durationTicks": 120,
          "midi": 44,
          "name": "G#2",
          "ticks": 26472,
          "time": 163.81176925,
          "velocity": 0.3937007874015748
        },
        {
          "duration": 0.7425737500000196,
          "durationTicks": 120,
          "midi": 49,
          "name": "C#3",
          "ticks": 26472,
          "time": 163.81176925,
          "velocity": 1
        },
        {
          "duration": 0.7425737500000196,
          "durationTicks": 120,
          "midi": 51,
          "name": "D#3",
          "ticks": 26472,
          "time": 163.81176925,
          "velocity": 1
        },
        {
          "duration": 0.7425737500000196,
          "durationTicks": 120,
          "midi": 56,
          "name": "G#3",
          "ticks": 26472,
          "time": 163.81176925,
          "velocity": 1
        },
        {
          "duration": 0.29702950000000783,
          "durationTicks": 48,
          "midi": 42,
          "name": "F#2",
          "ticks": 26592,
          "time": 164.55434300000002,
          "velocity": 0.3937007874015748
        },
        {
          "duration": 0.29702950000000783,
          "durationTicks": 48,
          "midi": 47,
          "name": "B2",
          "ticks": 26592,
          "time": 164.55434300000002,
          "velocity": 1
        },
        {
          "duration": 0.29702950000000783,
          "durationTicks": 48,
          "midi": 51,
          "name": "D#3",
          "ticks": 26592,
          "time": 164.55434300000002,
          "velocity": 1
        },
        {
          "duration": 0.29702950000000783,
          "durationTicks": 48,
          "midi": 54,
          "name": "F#3",
          "ticks": 26592,
          "time": 164.55434300000002,
          "velocity": 1
        },
        {
          "duration": 1.1881179999999745,
          "durationTicks": 192,
          "midi": 44,
          "name": "G#2",
          "ticks": 26640,
          "time": 164.85137250000002,
          "velocity": 0.3937007874015748
        },
        {
          "duration": 1.1881179999999745,
          "durationTicks": 192,
          "midi": 49,
          "name": "C#3",
          "ticks": 26640,
          "time": 164.85137250000002,
          "velocity": 1
        },
        {
          "duration": 1.1881179999999745,
          "durationTicks": 192,
          "midi": 54,
          "name": "F#3",
          "ticks": 26640,
          "time": 164.85137250000002,
          "velocity": 1
        },
        {
          "duration": 1.1881179999999745,
          "durationTicks": 192,
          "midi": 56,
          "name": "G#3",
          "ticks": 26640,
          "time": 164.85137250000002,
          "velocity": 1
        },
        {
          "duration": 0.7425737500000196,
          "durationTicks": 120,
          "midi": 44,
          "name": "G#2",
          "ticks": 26832,
          "time": 166.0394905,
          "velocity": 0.3937007874015748
        },
        {
          "duration": 0.7425737500000196,
          "durationTicks": 120,
          "midi": 49,
          "name": "C#3",
          "ticks": 26832,
          "time": 166.0394905,
          "velocity": 1
        },
        {
          "duration": 0.7425737500000196,
          "durationTicks": 120,
          "midi": 51,
          "name": "D#3",
          "ticks": 26832,
          "time": 166.0394905,
          "velocity": 1
        },
        {
          "duration": 0.7425737500000196,
          "durationTicks": 120,
          "midi": 56,
          "name": "G#3",
          "ticks": 26832,
          "time": 166.0394905,
          "velocity": 1
        },
        {
          "duration": 0.29702950000000783,
          "durationTicks": 48,
          "midi": 39,
          "name": "D#2",
          "ticks": 26952,
          "time": 166.78206425000002,
          "velocity": 0.3937007874015748
        },
        {
          "duration": 0.29702950000000783,
          "durationTicks": 48,
          "midi": 44,
          "name": "G#2",
          "ticks": 26952,
          "time": 166.78206425000002,
          "velocity": 1
        },
        {
          "duration": 0.29702950000000783,
          "durationTicks": 48,
          "midi": 49,
          "name": "C#3",
          "ticks": 26952,
          "time": 166.78206425000002,
          "velocity": 1
        },
        {
          "duration": 0.29702950000000783,
          "durationTicks": 48,
          "midi": 51,
          "name": "D#3",
          "ticks": 26952,
          "time": 166.78206425000002,
          "velocity": 1
        },
        {
          "duration": 1.1881179999999745,
          "durationTicks": 192,
          "midi": 42,
          "name": "F#2",
          "ticks": 27000,
          "time": 167.07909375000003,
          "velocity": 0.3937007874015748
        },
        {
          "duration": 1.1881179999999745,
          "durationTicks": 192,
          "midi": 44,
          "name": "G#2",
          "ticks": 27000,
          "time": 167.07909375000003,
          "velocity": 1
        },
        {
          "duration": 1.1881179999999745,
          "durationTicks": 192,
          "midi": 51,
          "name": "D#3",
          "ticks": 27000,
          "time": 167.07909375000003,
          "velocity": 1
        },
        {
          "duration": 1.1881179999999745,
          "durationTicks": 192,
          "midi": 54,
          "name": "F#3",
          "ticks": 27000,
          "time": 167.07909375000003,
          "velocity": 1
        },
        {
          "duration": 0.7425737500000196,
          "durationTicks": 120,
          "midi": 44,
          "name": "G#2",
          "ticks": 27192,
          "time": 168.26721175,
          "velocity": 0.3937007874015748
        },
        {
          "duration": 0.7425737500000196,
          "durationTicks": 120,
          "midi": 49,
          "name": "C#3",
          "ticks": 27192,
          "time": 168.26721175,
          "velocity": 1
        },
        {
          "duration": 0.7425737500000196,
          "durationTicks": 120,
          "midi": 51,
          "name": "D#3",
          "ticks": 27192,
          "time": 168.26721175,
          "velocity": 1
        },
        {
          "duration": 0.7425737500000196,
          "durationTicks": 120,
          "midi": 56,
          "name": "G#3",
          "ticks": 27192,
          "time": 168.26721175,
          "velocity": 1
        },
        {
          "duration": 0.29702950000000783,
          "durationTicks": 48,
          "midi": 42,
          "name": "F#2",
          "ticks": 27312,
          "time": 169.00978550000002,
          "velocity": 0.3937007874015748
        },
        {
          "duration": 0.29702950000000783,
          "durationTicks": 48,
          "midi": 47,
          "name": "B2",
          "ticks": 27312,
          "time": 169.00978550000002,
          "velocity": 1
        },
        {
          "duration": 0.29702950000000783,
          "durationTicks": 48,
          "midi": 51,
          "name": "D#3",
          "ticks": 27312,
          "time": 169.00978550000002,
          "velocity": 1
        },
        {
          "duration": 0.29702950000000783,
          "durationTicks": 48,
          "midi": 54,
          "name": "F#3",
          "ticks": 27312,
          "time": 169.00978550000002,
          "velocity": 1
        },
        {
          "duration": 1.1881179999999745,
          "durationTicks": 192,
          "midi": 44,
          "name": "G#2",
          "ticks": 27360,
          "time": 169.30681500000003,
          "velocity": 0.3937007874015748
        },
        {
          "duration": 1.1881179999999745,
          "durationTicks": 192,
          "midi": 49,
          "name": "C#3",
          "ticks": 27360,
          "time": 169.30681500000003,
          "velocity": 1
        },
        {
          "duration": 1.1881179999999745,
          "durationTicks": 192,
          "midi": 54,
          "name": "F#3",
          "ticks": 27360,
          "time": 169.30681500000003,
          "velocity": 1
        },
        {
          "duration": 1.1881179999999745,
          "durationTicks": 192,
          "midi": 56,
          "name": "G#3",
          "ticks": 27360,
          "time": 169.30681500000003,
          "velocity": 1
        },
        {
          "duration": 0.7425737500000196,
          "durationTicks": 120,
          "midi": 44,
          "name": "G#2",
          "ticks": 27552,
          "time": 170.494933,
          "velocity": 0.3937007874015748
        },
        {
          "duration": 0.7425737500000196,
          "durationTicks": 120,
          "midi": 49,
          "name": "C#3",
          "ticks": 27552,
          "time": 170.494933,
          "velocity": 1
        },
        {
          "duration": 0.7425737500000196,
          "durationTicks": 120,
          "midi": 51,
          "name": "D#3",
          "ticks": 27552,
          "time": 170.494933,
          "velocity": 1
        },
        {
          "duration": 0.7425737500000196,
          "durationTicks": 120,
          "midi": 56,
          "name": "G#3",
          "ticks": 27552,
          "time": 170.494933,
          "velocity": 1
        },
        {
          "duration": 0.29702950000000783,
          "durationTicks": 48,
          "midi": 39,
          "name": "D#2",
          "ticks": 27672,
          "time": 171.23750675000002,
          "velocity": 0.3937007874015748
        },
        {
          "duration": 0.29702950000000783,
          "durationTicks": 48,
          "midi": 44,
          "name": "G#2",
          "ticks": 27672,
          "time": 171.23750675000002,
          "velocity": 1
        },
        {
          "duration": 0.29702950000000783,
          "durationTicks": 48,
          "midi": 49,
          "name": "C#3",
          "ticks": 27672,
          "time": 171.23750675000002,
          "velocity": 1
        },
        {
          "duration": 0.29702950000000783,
          "durationTicks": 48,
          "midi": 51,
          "name": "D#3",
          "ticks": 27672,
          "time": 171.23750675000002,
          "velocity": 1
        },
        {
          "duration": 1.1881179999999745,
          "durationTicks": 192,
          "midi": 42,
          "name": "F#2",
          "ticks": 27720,
          "time": 171.53453625000003,
          "velocity": 0.3937007874015748
        },
        {
          "duration": 1.1881179999999745,
          "durationTicks": 192,
          "midi": 44,
          "name": "G#2",
          "ticks": 27720,
          "time": 171.53453625000003,
          "velocity": 1
        },
        {
          "duration": 1.1881179999999745,
          "durationTicks": 192,
          "midi": 51,
          "name": "D#3",
          "ticks": 27720,
          "time": 171.53453625000003,
          "velocity": 1
        },
        {
          "duration": 1.1881179999999745,
          "durationTicks": 192,
          "midi": 54,
          "name": "F#3",
          "ticks": 27720,
          "time": 171.53453625000003,
          "velocity": 1
        },
        {
          "duration": 0.7425737500000196,
          "durationTicks": 120,
          "midi": 44,
          "name": "G#2",
          "ticks": 27912,
          "time": 172.72265425,
          "velocity": 0.3937007874015748
        },
        {
          "duration": 0.7425737500000196,
          "durationTicks": 120,
          "midi": 49,
          "name": "C#3",
          "ticks": 27912,
          "time": 172.72265425,
          "velocity": 1
        },
        {
          "duration": 0.7425737500000196,
          "durationTicks": 120,
          "midi": 51,
          "name": "D#3",
          "ticks": 27912,
          "time": 172.72265425,
          "velocity": 1
        },
        {
          "duration": 0.7425737500000196,
          "durationTicks": 120,
          "midi": 56,
          "name": "G#3",
          "ticks": 27912,
          "time": 172.72265425,
          "velocity": 1
        },
        {
          "duration": 0.29702950000000783,
          "durationTicks": 48,
          "midi": 42,
          "name": "F#2",
          "ticks": 28032,
          "time": 173.46522800000002,
          "velocity": 0.3937007874015748
        },
        {
          "duration": 0.29702950000000783,
          "durationTicks": 48,
          "midi": 47,
          "name": "B2",
          "ticks": 28032,
          "time": 173.46522800000002,
          "velocity": 1
        },
        {
          "duration": 0.29702950000000783,
          "durationTicks": 48,
          "midi": 51,
          "name": "D#3",
          "ticks": 28032,
          "time": 173.46522800000002,
          "velocity": 1
        },
        {
          "duration": 0.29702950000000783,
          "durationTicks": 48,
          "midi": 54,
          "name": "F#3",
          "ticks": 28032,
          "time": 173.46522800000002,
          "velocity": 1
        },
        {
          "duration": 1.1881179999999745,
          "durationTicks": 192,
          "midi": 44,
          "name": "G#2",
          "ticks": 28080,
          "time": 173.76225750000003,
          "velocity": 0.3937007874015748
        },
        {
          "duration": 1.1881179999999745,
          "durationTicks": 192,
          "midi": 49,
          "name": "C#3",
          "ticks": 28080,
          "time": 173.76225750000003,
          "velocity": 1
        },
        {
          "duration": 1.1881179999999745,
          "durationTicks": 192,
          "midi": 54,
          "name": "F#3",
          "ticks": 28080,
          "time": 173.76225750000003,
          "velocity": 1
        },
        {
          "duration": 1.1881179999999745,
          "durationTicks": 192,
          "midi": 56,
          "name": "G#3",
          "ticks": 28080,
          "time": 173.76225750000003,
          "velocity": 1
        },
        {
          "duration": 0.7425737500000196,
          "durationTicks": 120,
          "midi": 44,
          "name": "G#2",
          "ticks": 28272,
          "time": 174.9503755,
          "velocity": 0.3937007874015748
        },
        {
          "duration": 0.7425737500000196,
          "durationTicks": 120,
          "midi": 49,
          "name": "C#3",
          "ticks": 28272,
          "time": 174.9503755,
          "velocity": 1
        },
        {
          "duration": 0.7425737500000196,
          "durationTicks": 120,
          "midi": 51,
          "name": "D#3",
          "ticks": 28272,
          "time": 174.9503755,
          "velocity": 1
        },
        {
          "duration": 0.7425737500000196,
          "durationTicks": 120,
          "midi": 56,
          "name": "G#3",
          "ticks": 28272,
          "time": 174.9503755,
          "velocity": 1
        },
        {
          "duration": 0.29702950000000783,
          "durationTicks": 48,
          "midi": 39,
          "name": "D#2",
          "ticks": 28392,
          "time": 175.69294925000003,
          "velocity": 0.3937007874015748
        },
        {
          "duration": 0.29702950000000783,
          "durationTicks": 48,
          "midi": 44,
          "name": "G#2",
          "ticks": 28392,
          "time": 175.69294925000003,
          "velocity": 1
        },
        {
          "duration": 0.29702950000000783,
          "durationTicks": 48,
          "midi": 49,
          "name": "C#3",
          "ticks": 28392,
          "time": 175.69294925000003,
          "velocity": 1
        },
        {
          "duration": 0.29702950000000783,
          "durationTicks": 48,
          "midi": 51,
          "name": "D#3",
          "ticks": 28392,
          "time": 175.69294925000003,
          "velocity": 1
        },
        {
          "duration": 1.1881179999999745,
          "durationTicks": 192,
          "midi": 42,
          "name": "F#2",
          "ticks": 28440,
          "time": 175.98997875000003,
          "velocity": 0.3937007874015748
        },
        {
          "duration": 1.1881179999999745,
          "durationTicks": 192,
          "midi": 44,
          "name": "G#2",
          "ticks": 28440,
          "time": 175.98997875000003,
          "velocity": 1
        },
        {
          "duration": 1.1881179999999745,
          "durationTicks": 192,
          "midi": 51,
          "name": "D#3",
          "ticks": 28440,
          "time": 175.98997875000003,
          "velocity": 1
        },
        {
          "duration": 1.1881179999999745,
          "durationTicks": 192,
          "midi": 54,
          "name": "F#3",
          "ticks": 28440,
          "time": 175.98997875000003,
          "velocity": 1
        },
        {
          "duration": 0.7425737500000196,
          "durationTicks": 120,
          "midi": 44,
          "name": "G#2",
          "ticks": 28632,
          "time": 177.17809675,
          "velocity": 0.3937007874015748
        },
        {
          "duration": 0.7425737500000196,
          "durationTicks": 120,
          "midi": 49,
          "name": "C#3",
          "ticks": 28632,
          "time": 177.17809675,
          "velocity": 1
        },
        {
          "duration": 0.7425737500000196,
          "durationTicks": 120,
          "midi": 51,
          "name": "D#3",
          "ticks": 28632,
          "time": 177.17809675,
          "velocity": 1
        },
        {
          "duration": 0.7425737500000196,
          "durationTicks": 120,
          "midi": 56,
          "name": "G#3",
          "ticks": 28632,
          "time": 177.17809675,
          "velocity": 1
        },
        {
          "duration": 0.29702950000000783,
          "durationTicks": 48,
          "midi": 42,
          "name": "F#2",
          "ticks": 28752,
          "time": 177.92067050000003,
          "velocity": 0.3937007874015748
        },
        {
          "duration": 0.29702950000000783,
          "durationTicks": 48,
          "midi": 47,
          "name": "B2",
          "ticks": 28752,
          "time": 177.92067050000003,
          "velocity": 1
        },
        {
          "duration": 0.29702950000000783,
          "durationTicks": 48,
          "midi": 51,
          "name": "D#3",
          "ticks": 28752,
          "time": 177.92067050000003,
          "velocity": 1
        },
        {
          "duration": 0.29702950000000783,
          "durationTicks": 48,
          "midi": 54,
          "name": "F#3",
          "ticks": 28752,
          "time": 177.92067050000003,
          "velocity": 1
        },
        {
          "duration": 1.1881179999999745,
          "durationTicks": 192,
          "midi": 44,
          "name": "G#2",
          "ticks": 28800,
          "time": 178.21770000000004,
          "velocity": 0.3937007874015748
        },
        {
          "duration": 1.1881179999999745,
          "durationTicks": 192,
          "midi": 49,
          "name": "C#3",
          "ticks": 28800,
          "time": 178.21770000000004,
          "velocity": 1
        },
        {
          "duration": 1.1881179999999745,
          "durationTicks": 192,
          "midi": 54,
          "name": "F#3",
          "ticks": 28800,
          "time": 178.21770000000004,
          "velocity": 1
        },
        {
          "duration": 1.1881179999999745,
          "durationTicks": 192,
          "midi": 56,
          "name": "G#3",
          "ticks": 28800,
          "time": 178.21770000000004,
          "velocity": 1
        },
        {
          "duration": 0.7425737500000196,
          "durationTicks": 120,
          "midi": 44,
          "name": "G#2",
          "ticks": 28992,
          "time": 179.405818,
          "velocity": 0.3937007874015748
        },
        {
          "duration": 0.7425737500000196,
          "durationTicks": 120,
          "midi": 49,
          "name": "C#3",
          "ticks": 28992,
          "time": 179.405818,
          "velocity": 1
        },
        {
          "duration": 0.7425737500000196,
          "durationTicks": 120,
          "midi": 51,
          "name": "D#3",
          "ticks": 28992,
          "time": 179.405818,
          "velocity": 1
        },
        {
          "duration": 0.7425737500000196,
          "durationTicks": 120,
          "midi": 56,
          "name": "G#3",
          "ticks": 28992,
          "time": 179.405818,
          "velocity": 1
        },
        {
          "duration": 0.29702950000000783,
          "durationTicks": 48,
          "midi": 39,
          "name": "D#2",
          "ticks": 29112,
          "time": 180.14839175000003,
          "velocity": 0.3937007874015748
        },
        {
          "duration": 0.29702950000000783,
          "durationTicks": 48,
          "midi": 44,
          "name": "G#2",
          "ticks": 29112,
          "time": 180.14839175000003,
          "velocity": 1
        },
        {
          "duration": 0.29702950000000783,
          "durationTicks": 48,
          "midi": 49,
          "name": "C#3",
          "ticks": 29112,
          "time": 180.14839175000003,
          "velocity": 1
        },
        {
          "duration": 0.29702950000000783,
          "durationTicks": 48,
          "midi": 51,
          "name": "D#3",
          "ticks": 29112,
          "time": 180.14839175000003,
          "velocity": 1
        },
        {
          "duration": 1.1881179999999745,
          "durationTicks": 192,
          "midi": 42,
          "name": "F#2",
          "ticks": 29160,
          "time": 180.44542125000004,
          "velocity": 0.3937007874015748
        },
        {
          "duration": 1.1881179999999745,
          "durationTicks": 192,
          "midi": 44,
          "name": "G#2",
          "ticks": 29160,
          "time": 180.44542125000004,
          "velocity": 1
        },
        {
          "duration": 1.1881179999999745,
          "durationTicks": 192,
          "midi": 51,
          "name": "D#3",
          "ticks": 29160,
          "time": 180.44542125000004,
          "velocity": 1
        },
        {
          "duration": 1.1881179999999745,
          "durationTicks": 192,
          "midi": 54,
          "name": "F#3",
          "ticks": 29160,
          "time": 180.44542125000004,
          "velocity": 1
        },
        {
          "duration": 0.7425737500000196,
          "durationTicks": 120,
          "midi": 44,
          "name": "G#2",
          "ticks": 29352,
          "time": 181.63353925,
          "velocity": 0.3937007874015748
        },
        {
          "duration": 0.7425737500000196,
          "durationTicks": 120,
          "midi": 49,
          "name": "C#3",
          "ticks": 29352,
          "time": 181.63353925,
          "velocity": 1
        },
        {
          "duration": 0.7425737500000196,
          "durationTicks": 120,
          "midi": 51,
          "name": "D#3",
          "ticks": 29352,
          "time": 181.63353925,
          "velocity": 1
        },
        {
          "duration": 0.7425737500000196,
          "durationTicks": 120,
          "midi": 56,
          "name": "G#3",
          "ticks": 29352,
          "time": 181.63353925,
          "velocity": 1
        },
        {
          "duration": 0.29702950000000783,
          "durationTicks": 48,
          "midi": 42,
          "name": "F#2",
          "ticks": 29472,
          "time": 182.37611300000003,
          "velocity": 0.3937007874015748
        },
        {
          "duration": 0.29702950000000783,
          "durationTicks": 48,
          "midi": 47,
          "name": "B2",
          "ticks": 29472,
          "time": 182.37611300000003,
          "velocity": 1
        },
        {
          "duration": 0.29702950000000783,
          "durationTicks": 48,
          "midi": 51,
          "name": "D#3",
          "ticks": 29472,
          "time": 182.37611300000003,
          "velocity": 1
        },
        {
          "duration": 0.29702950000000783,
          "durationTicks": 48,
          "midi": 54,
          "name": "F#3",
          "ticks": 29472,
          "time": 182.37611300000003,
          "velocity": 1
        },
        {
          "duration": 1.1881179999999745,
          "durationTicks": 192,
          "midi": 44,
          "name": "G#2",
          "ticks": 29520,
          "time": 182.67314250000004,
          "velocity": 0.3937007874015748
        },
        {
          "duration": 1.1881179999999745,
          "durationTicks": 192,
          "midi": 49,
          "name": "C#3",
          "ticks": 29520,
          "time": 182.67314250000004,
          "velocity": 1
        },
        {
          "duration": 1.1881179999999745,
          "durationTicks": 192,
          "midi": 54,
          "name": "F#3",
          "ticks": 29520,
          "time": 182.67314250000004,
          "velocity": 1
        },
        {
          "duration": 1.1881179999999745,
          "durationTicks": 192,
          "midi": 56,
          "name": "G#3",
          "ticks": 29520,
          "time": 182.67314250000004,
          "velocity": 1
        },
        {
          "duration": 0.7425737500000196,
          "durationTicks": 120,
          "midi": 44,
          "name": "G#2",
          "ticks": 29712,
          "time": 183.86126050000001,
          "velocity": 0.3937007874015748
        },
        {
          "duration": 0.7425737500000196,
          "durationTicks": 120,
          "midi": 49,
          "name": "C#3",
          "ticks": 29712,
          "time": 183.86126050000001,
          "velocity": 1
        },
        {
          "duration": 0.7425737500000196,
          "durationTicks": 120,
          "midi": 51,
          "name": "D#3",
          "ticks": 29712,
          "time": 183.86126050000001,
          "velocity": 1
        },
        {
          "duration": 0.7425737500000196,
          "durationTicks": 120,
          "midi": 56,
          "name": "G#3",
          "ticks": 29712,
          "time": 183.86126050000001,
          "velocity": 1
        },
        {
          "duration": 0.2970294999999794,
          "durationTicks": 48,
          "midi": 39,
          "name": "D#2",
          "ticks": 29832,
          "time": 184.60383425000003,
          "velocity": 0.3937007874015748
        },
        {
          "duration": 0.2970294999999794,
          "durationTicks": 48,
          "midi": 44,
          "name": "G#2",
          "ticks": 29832,
          "time": 184.60383425000003,
          "velocity": 1
        },
        {
          "duration": 0.2970294999999794,
          "durationTicks": 48,
          "midi": 49,
          "name": "C#3",
          "ticks": 29832,
          "time": 184.60383425000003,
          "velocity": 1
        },
        {
          "duration": 0.2970294999999794,
          "durationTicks": 48,
          "midi": 51,
          "name": "D#3",
          "ticks": 29832,
          "time": 184.60383425000003,
          "velocity": 1
        },
        {
          "duration": 1.188118000000003,
          "durationTicks": 192,
          "midi": 42,
          "name": "F#2",
          "ticks": 29880,
          "time": 184.90086375,
          "velocity": 0.3937007874015748
        },
        {
          "duration": 1.188118000000003,
          "durationTicks": 192,
          "midi": 44,
          "name": "G#2",
          "ticks": 29880,
          "time": 184.90086375,
          "velocity": 1
        },
        {
          "duration": 1.188118000000003,
          "durationTicks": 192,
          "midi": 51,
          "name": "D#3",
          "ticks": 29880,
          "time": 184.90086375,
          "velocity": 1
        },
        {
          "duration": 1.188118000000003,
          "durationTicks": 192,
          "midi": 54,
          "name": "F#3",
          "ticks": 29880,
          "time": 184.90086375,
          "velocity": 1
        },
        {
          "duration": 0.7425737500000196,
          "durationTicks": 120,
          "midi": 44,
          "name": "G#2",
          "ticks": 30072,
          "time": 186.08898175000002,
          "velocity": 0.3937007874015748
        },
        {
          "duration": 0.7425737500000196,
          "durationTicks": 120,
          "midi": 49,
          "name": "C#3",
          "ticks": 30072,
          "time": 186.08898175000002,
          "velocity": 1
        },
        {
          "duration": 0.7425737500000196,
          "durationTicks": 120,
          "midi": 51,
          "name": "D#3",
          "ticks": 30072,
          "time": 186.08898175000002,
          "velocity": 1
        },
        {
          "duration": 0.7425737500000196,
          "durationTicks": 120,
          "midi": 56,
          "name": "G#3",
          "ticks": 30072,
          "time": 186.08898175000002,
          "velocity": 1
        },
        {
          "duration": 0.2970294999999794,
          "durationTicks": 48,
          "midi": 42,
          "name": "F#2",
          "ticks": 30192,
          "time": 186.83155550000004,
          "velocity": 0.3937007874015748
        },
        {
          "duration": 0.2970294999999794,
          "durationTicks": 48,
          "midi": 47,
          "name": "B2",
          "ticks": 30192,
          "time": 186.83155550000004,
          "velocity": 1
        },
        {
          "duration": 0.2970294999999794,
          "durationTicks": 48,
          "midi": 51,
          "name": "D#3",
          "ticks": 30192,
          "time": 186.83155550000004,
          "velocity": 1
        },
        {
          "duration": 0.2970294999999794,
          "durationTicks": 48,
          "midi": 54,
          "name": "F#3",
          "ticks": 30192,
          "time": 186.83155550000004,
          "velocity": 1
        },
        {
          "duration": 1.188118000000003,
          "durationTicks": 192,
          "midi": 44,
          "name": "G#2",
          "ticks": 30240,
          "time": 187.12858500000002,
          "velocity": 0.3937007874015748
        },
        {
          "duration": 1.188118000000003,
          "durationTicks": 192,
          "midi": 49,
          "name": "C#3",
          "ticks": 30240,
          "time": 187.12858500000002,
          "velocity": 1
        },
        {
          "duration": 1.188118000000003,
          "durationTicks": 192,
          "midi": 54,
          "name": "F#3",
          "ticks": 30240,
          "time": 187.12858500000002,
          "velocity": 1
        },
        {
          "duration": 1.188118000000003,
          "durationTicks": 192,
          "midi": 56,
          "name": "G#3",
          "ticks": 30240,
          "time": 187.12858500000002,
          "velocity": 1
        },
        {
          "duration": 0.7425737500000196,
          "durationTicks": 120,
          "midi": 44,
          "name": "G#2",
          "ticks": 30432,
          "time": 188.31670300000002,
          "velocity": 0.3937007874015748
        },
        {
          "duration": 0.7425737500000196,
          "durationTicks": 120,
          "midi": 49,
          "name": "C#3",
          "ticks": 30432,
          "time": 188.31670300000002,
          "velocity": 1
        },
        {
          "duration": 0.7425737500000196,
          "durationTicks": 120,
          "midi": 51,
          "name": "D#3",
          "ticks": 30432,
          "time": 188.31670300000002,
          "velocity": 1
        },
        {
          "duration": 0.7425737500000196,
          "durationTicks": 120,
          "midi": 56,
          "name": "G#3",
          "ticks": 30432,
          "time": 188.31670300000002,
          "velocity": 1
        },
        {
          "duration": 0.2970294999999794,
          "durationTicks": 48,
          "midi": 39,
          "name": "D#2",
          "ticks": 30552,
          "time": 189.05927675000004,
          "velocity": 0.3937007874015748
        },
        {
          "duration": 0.2970294999999794,
          "durationTicks": 48,
          "midi": 44,
          "name": "G#2",
          "ticks": 30552,
          "time": 189.05927675000004,
          "velocity": 1
        },
        {
          "duration": 0.2970294999999794,
          "durationTicks": 48,
          "midi": 49,
          "name": "C#3",
          "ticks": 30552,
          "time": 189.05927675000004,
          "velocity": 1
        },
        {
          "duration": 0.2970294999999794,
          "durationTicks": 48,
          "midi": 51,
          "name": "D#3",
          "ticks": 30552,
          "time": 189.05927675000004,
          "velocity": 1
        },
        {
          "duration": 1.188118000000003,
          "durationTicks": 192,
          "midi": 42,
          "name": "F#2",
          "ticks": 30600,
          "time": 189.35630625000002,
          "velocity": 0.3937007874015748
        },
        {
          "duration": 1.188118000000003,
          "durationTicks": 192,
          "midi": 44,
          "name": "G#2",
          "ticks": 30600,
          "time": 189.35630625000002,
          "velocity": 1
        },
        {
          "duration": 1.188118000000003,
          "durationTicks": 192,
          "midi": 51,
          "name": "D#3",
          "ticks": 30600,
          "time": 189.35630625000002,
          "velocity": 1
        },
        {
          "duration": 1.188118000000003,
          "durationTicks": 192,
          "midi": 54,
          "name": "F#3",
          "ticks": 30600,
          "time": 189.35630625000002,
          "velocity": 1
        },
        {
          "duration": 0.7425737500000196,
          "durationTicks": 120,
          "midi": 44,
          "name": "G#2",
          "ticks": 30792,
          "time": 190.54442425000002,
          "velocity": 0.3937007874015748
        },
        {
          "duration": 0.7425737500000196,
          "durationTicks": 120,
          "midi": 49,
          "name": "C#3",
          "ticks": 30792,
          "time": 190.54442425000002,
          "velocity": 1
        },
        {
          "duration": 0.7425737500000196,
          "durationTicks": 120,
          "midi": 51,
          "name": "D#3",
          "ticks": 30792,
          "time": 190.54442425000002,
          "velocity": 1
        },
        {
          "duration": 0.7425737500000196,
          "durationTicks": 120,
          "midi": 56,
          "name": "G#3",
          "ticks": 30792,
          "time": 190.54442425000002,
          "velocity": 1
        },
        {
          "duration": 0.2970294999999794,
          "durationTicks": 48,
          "midi": 42,
          "name": "F#2",
          "ticks": 30912,
          "time": 191.28699800000004,
          "velocity": 0.3937007874015748
        },
        {
          "duration": 0.2970294999999794,
          "durationTicks": 48,
          "midi": 47,
          "name": "B2",
          "ticks": 30912,
          "time": 191.28699800000004,
          "velocity": 1
        },
        {
          "duration": 0.2970294999999794,
          "durationTicks": 48,
          "midi": 51,
          "name": "D#3",
          "ticks": 30912,
          "time": 191.28699800000004,
          "velocity": 1
        },
        {
          "duration": 0.2970294999999794,
          "durationTicks": 48,
          "midi": 54,
          "name": "F#3",
          "ticks": 30912,
          "time": 191.28699800000004,
          "velocity": 1
        },
        {
          "duration": 1.188118000000003,
          "durationTicks": 192,
          "midi": 44,
          "name": "G#2",
          "ticks": 30960,
          "time": 191.58402750000002,
          "velocity": 0.3937007874015748
        },
        {
          "duration": 1.188118000000003,
          "durationTicks": 192,
          "midi": 49,
          "name": "C#3",
          "ticks": 30960,
          "time": 191.58402750000002,
          "velocity": 1
        },
        {
          "duration": 1.188118000000003,
          "durationTicks": 192,
          "midi": 54,
          "name": "F#3",
          "ticks": 30960,
          "time": 191.58402750000002,
          "velocity": 1
        },
        {
          "duration": 1.188118000000003,
          "durationTicks": 192,
          "midi": 56,
          "name": "G#3",
          "ticks": 30960,
          "time": 191.58402750000002,
          "velocity": 1
        },
        {
          "duration": 0.7425737499999912,
          "durationTicks": 120,
          "midi": 44,
          "name": "G#2",
          "ticks": 31152,
          "time": 192.77214550000002,
          "velocity": 0.3937007874015748
        },
        {
          "duration": 0.7425737499999912,
          "durationTicks": 120,
          "midi": 49,
          "name": "C#3",
          "ticks": 31152,
          "time": 192.77214550000002,
          "velocity": 1
        },
        {
          "duration": 0.7425737499999912,
          "durationTicks": 120,
          "midi": 51,
          "name": "D#3",
          "ticks": 31152,
          "time": 192.77214550000002,
          "velocity": 1
        },
        {
          "duration": 0.7425737499999912,
          "durationTicks": 120,
          "midi": 56,
          "name": "G#3",
          "ticks": 31152,
          "time": 192.77214550000002,
          "velocity": 1
        },
        {
          "duration": 0.29702950000000783,
          "durationTicks": 48,
          "midi": 39,
          "name": "D#2",
          "ticks": 31272,
          "time": 193.51471925,
          "velocity": 0.3937007874015748
        },
        {
          "duration": 0.29702950000000783,
          "durationTicks": 48,
          "midi": 44,
          "name": "G#2",
          "ticks": 31272,
          "time": 193.51471925,
          "velocity": 1
        },
        {
          "duration": 0.29702950000000783,
          "durationTicks": 48,
          "midi": 49,
          "name": "C#3",
          "ticks": 31272,
          "time": 193.51471925,
          "velocity": 1
        },
        {
          "duration": 0.29702950000000783,
          "durationTicks": 48,
          "midi": 51,
          "name": "D#3",
          "ticks": 31272,
          "time": 193.51471925,
          "velocity": 1
        },
        {
          "duration": 1.188118000000003,
          "durationTicks": 192,
          "midi": 42,
          "name": "F#2",
          "ticks": 31320,
          "time": 193.81174875000002,
          "velocity": 0.3937007874015748
        },
        {
          "duration": 1.188118000000003,
          "durationTicks": 192,
          "midi": 47,
          "name": "B2",
          "ticks": 31320,
          "time": 193.81174875000002,
          "velocity": 1
        },
        {
          "duration": 1.188118000000003,
          "durationTicks": 192,
          "midi": 51,
          "name": "D#3",
          "ticks": 31320,
          "time": 193.81174875000002,
          "velocity": 1
        },
        {
          "duration": 1.188118000000003,
          "durationTicks": 192,
          "midi": 54,
          "name": "F#3",
          "ticks": 31320,
          "time": 193.81174875000002,
          "velocity": 1
        },
        {
          "duration": 0.7425737499999912,
          "durationTicks": 120,
          "midi": 44,
          "name": "G#2",
          "ticks": 31512,
          "time": 194.99986675000002,
          "velocity": 0.3937007874015748
        },
        {
          "duration": 0.7425737499999912,
          "durationTicks": 120,
          "midi": 47,
          "name": "B2",
          "ticks": 31512,
          "time": 194.99986675000002,
          "velocity": 1
        },
        {
          "duration": 0.7425737499999912,
          "durationTicks": 120,
          "midi": 51,
          "name": "D#3",
          "ticks": 31512,
          "time": 194.99986675000002,
          "velocity": 1
        },
        {
          "duration": 0.7425737499999912,
          "durationTicks": 120,
          "midi": 56,
          "name": "G#3",
          "ticks": 31512,
          "time": 194.99986675000002,
          "velocity": 1
        },
        {
          "duration": 0.29702950000000783,
          "durationTicks": 48,
          "midi": 42,
          "name": "F#2",
          "ticks": 31632,
          "time": 195.74244050000001,
          "velocity": 0.3937007874015748
        },
        {
          "duration": 0.29702950000000783,
          "durationTicks": 48,
          "midi": 47,
          "name": "B2",
          "ticks": 31632,
          "time": 195.74244050000001,
          "velocity": 1
        },
        {
          "duration": 0.29702950000000783,
          "durationTicks": 48,
          "midi": 51,
          "name": "D#3",
          "ticks": 31632,
          "time": 195.74244050000001,
          "velocity": 1
        },
        {
          "duration": 0.29702950000000783,
          "durationTicks": 48,
          "midi": 54,
          "name": "F#3",
          "ticks": 31632,
          "time": 195.74244050000001,
          "velocity": 1
        },
        {
          "duration": 1.188118000000003,
          "durationTicks": 192,
          "midi": 44,
          "name": "G#2",
          "ticks": 31680,
          "time": 196.03947000000002,
          "velocity": 0.3937007874015748
        },
        {
          "duration": 1.188118000000003,
          "durationTicks": 192,
          "midi": 49,
          "name": "C#3",
          "ticks": 31680,
          "time": 196.03947000000002,
          "velocity": 1
        },
        {
          "duration": 1.188118000000003,
          "durationTicks": 192,
          "midi": 54,
          "name": "F#3",
          "ticks": 31680,
          "time": 196.03947000000002,
          "velocity": 1
        },
        {
          "duration": 1.188118000000003,
          "durationTicks": 192,
          "midi": 56,
          "name": "G#3",
          "ticks": 31680,
          "time": 196.03947000000002,
          "velocity": 1
        },
        {
          "duration": 0.7425737499999912,
          "durationTicks": 120,
          "midi": 44,
          "name": "G#2",
          "ticks": 31872,
          "time": 197.22758800000003,
          "velocity": 0.3937007874015748
        },
        {
          "duration": 0.7425737499999912,
          "durationTicks": 120,
          "midi": 49,
          "name": "C#3",
          "ticks": 31872,
          "time": 197.22758800000003,
          "velocity": 1
        },
        {
          "duration": 0.7425737499999912,
          "durationTicks": 120,
          "midi": 51,
          "name": "D#3",
          "ticks": 31872,
          "time": 197.22758800000003,
          "velocity": 1
        },
        {
          "duration": 0.7425737499999912,
          "durationTicks": 120,
          "midi": 56,
          "name": "G#3",
          "ticks": 31872,
          "time": 197.22758800000003,
          "velocity": 1
        },
        {
          "duration": 0.29702950000000783,
          "durationTicks": 48,
          "midi": 39,
          "name": "D#2",
          "ticks": 31992,
          "time": 197.97016175000002,
          "velocity": 0.3937007874015748
        },
        {
          "duration": 0.29702950000000783,
          "durationTicks": 48,
          "midi": 44,
          "name": "G#2",
          "ticks": 31992,
          "time": 197.97016175000002,
          "velocity": 1
        },
        {
          "duration": 0.29702950000000783,
          "durationTicks": 48,
          "midi": 49,
          "name": "C#3",
          "ticks": 31992,
          "time": 197.97016175000002,
          "velocity": 1
        },
        {
          "duration": 0.29702950000000783,
          "durationTicks": 48,
          "midi": 51,
          "name": "D#3",
          "ticks": 31992,
          "time": 197.97016175000002,
          "velocity": 1
        },
        {
          "duration": 1.188118000000003,
          "durationTicks": 192,
          "midi": 42,
          "name": "F#2",
          "ticks": 32040,
          "time": 198.26719125000002,
          "velocity": 0.3937007874015748
        },
        {
          "duration": 1.188118000000003,
          "durationTicks": 192,
          "midi": 47,
          "name": "B2",
          "ticks": 32040,
          "time": 198.26719125000002,
          "velocity": 1
        },
        {
          "duration": 1.188118000000003,
          "durationTicks": 192,
          "midi": 51,
          "name": "D#3",
          "ticks": 32040,
          "time": 198.26719125000002,
          "velocity": 1
        },
        {
          "duration": 1.188118000000003,
          "durationTicks": 192,
          "midi": 54,
          "name": "F#3",
          "ticks": 32040,
          "time": 198.26719125000002,
          "velocity": 1
        },
        {
          "duration": 0.7425737499999912,
          "durationTicks": 120,
          "midi": 44,
          "name": "G#2",
          "ticks": 32232,
          "time": 199.45530925000003,
          "velocity": 0.3937007874015748
        },
        {
          "duration": 0.7425737499999912,
          "durationTicks": 120,
          "midi": 49,
          "name": "C#3",
          "ticks": 32232,
          "time": 199.45530925000003,
          "velocity": 1
        },
        {
          "duration": 0.7425737499999912,
          "durationTicks": 120,
          "midi": 51,
          "name": "D#3",
          "ticks": 32232,
          "time": 199.45530925000003,
          "velocity": 1
        },
        {
          "duration": 0.7425737499999912,
          "durationTicks": 120,
          "midi": 56,
          "name": "G#3",
          "ticks": 32232,
          "time": 199.45530925000003,
          "velocity": 1
        },
        {
          "duration": 0.2970294999999794,
          "durationTicks": 48,
          "midi": 42,
          "name": "F#2",
          "ticks": 32352,
          "time": 200.19788300000002,
          "velocity": 0.3937007874015748
        },
        {
          "duration": 0.2970294999999794,
          "durationTicks": 48,
          "midi": 44,
          "name": "G#2",
          "ticks": 32352,
          "time": 200.19788300000002,
          "velocity": 1
        },
        {
          "duration": 0.2970294999999794,
          "durationTicks": 48,
          "midi": 51,
          "name": "D#3",
          "ticks": 32352,
          "time": 200.19788300000002,
          "velocity": 1
        },
        {
          "duration": 0.2970294999999794,
          "durationTicks": 48,
          "midi": 54,
          "name": "F#3",
          "ticks": 32352,
          "time": 200.19788300000002,
          "velocity": 1
        },
        {
          "duration": 1.1881180000000313,
          "durationTicks": 192,
          "midi": 39,
          "name": "D#2",
          "ticks": 32400,
          "time": 200.4949125,
          "velocity": 0.3937007874015748
        },
        {
          "duration": 1.1881180000000313,
          "durationTicks": 192,
          "midi": 42,
          "name": "F#2",
          "ticks": 32400,
          "time": 200.4949125,
          "velocity": 1
        },
        {
          "duration": 1.1881180000000313,
          "durationTicks": 192,
          "midi": 49,
          "name": "C#3",
          "ticks": 32400,
          "time": 200.4949125,
          "velocity": 1
        },
        {
          "duration": 1.1881180000000313,
          "durationTicks": 192,
          "midi": 51,
          "name": "D#3",
          "ticks": 32400,
          "time": 200.4949125,
          "velocity": 1
        },
        {
          "duration": 0.7425737499999912,
          "durationTicks": 120,
          "midi": 39,
          "name": "D#2",
          "ticks": 32592,
          "time": 201.68303050000003,
          "velocity": 0.3937007874015748
        },
        {
          "duration": 0.7425737499999912,
          "durationTicks": 120,
          "midi": 42,
          "name": "F#2",
          "ticks": 32592,
          "time": 201.68303050000003,
          "velocity": 1
        },
        {
          "duration": 0.7425737499999912,
          "durationTicks": 120,
          "midi": 44,
          "name": "G#2",
          "ticks": 32592,
          "time": 201.68303050000003,
          "velocity": 1
        },
        {
          "duration": 0.7425737499999912,
          "durationTicks": 120,
          "midi": 51,
          "name": "D#3",
          "ticks": 32592,
          "time": 201.68303050000003,
          "velocity": 1
        },
        {
          "duration": 0.2970294999999794,
          "durationTicks": 48,
          "midi": 39,
          "name": "D#2",
          "ticks": 32712,
          "time": 202.42560425000002,
          "velocity": 0.3937007874015748
        },
        {
          "duration": 0.2970294999999794,
          "durationTicks": 48,
          "midi": 44,
          "name": "G#2",
          "ticks": 32712,
          "time": 202.42560425000002,
          "velocity": 1
        },
        {
          "duration": 0.2970294999999794,
          "durationTicks": 48,
          "midi": 44,
          "name": "G#2",
          "ticks": 32712,
          "time": 202.42560425000002,
          "velocity": 1
        },
        {
          "duration": 0.2970294999999794,
          "durationTicks": 48,
          "midi": 51,
          "name": "D#3",
          "ticks": 32712,
          "time": 202.42560425000002,
          "velocity": 1
        },
        {
          "duration": 1.1881180000000313,
          "durationTicks": 192,
          "midi": 42,
          "name": "F#2",
          "ticks": 32760,
          "time": 202.72263375,
          "velocity": 0.3937007874015748
        },
        {
          "duration": 1.1881180000000313,
          "durationTicks": 192,
          "midi": 47,
          "name": "B2",
          "ticks": 32760,
          "time": 202.72263375,
          "velocity": 1
        },
        {
          "duration": 1.1881180000000313,
          "durationTicks": 192,
          "midi": 51,
          "name": "D#3",
          "ticks": 32760,
          "time": 202.72263375,
          "velocity": 1
        },
        {
          "duration": 1.1881180000000313,
          "durationTicks": 192,
          "midi": 54,
          "name": "F#3",
          "ticks": 32760,
          "time": 202.72263375,
          "velocity": 1
        },
        {
          "duration": 0.7425737499999912,
          "durationTicks": 120,
          "midi": 44,
          "name": "G#2",
          "ticks": 32952,
          "time": 203.91075175000003,
          "velocity": 0.3937007874015748
        },
        {
          "duration": 0.7425737499999912,
          "durationTicks": 120,
          "midi": 47,
          "name": "B2",
          "ticks": 32952,
          "time": 203.91075175000003,
          "velocity": 1
        },
        {
          "duration": 0.7425737499999912,
          "durationTicks": 120,
          "midi": 51,
          "name": "D#3",
          "ticks": 32952,
          "time": 203.91075175000003,
          "velocity": 1
        },
        {
          "duration": 0.7425737499999912,
          "durationTicks": 120,
          "midi": 56,
          "name": "G#3",
          "ticks": 32952,
          "time": 203.91075175000003,
          "velocity": 1
        },
        {
          "duration": 0.2970294999999794,
          "durationTicks": 48,
          "midi": 42,
          "name": "F#2",
          "ticks": 33072,
          "time": 204.65332550000002,
          "velocity": 0.3937007874015748
        },
        {
          "duration": 0.2970294999999794,
          "durationTicks": 48,
          "midi": 47,
          "name": "B2",
          "ticks": 33072,
          "time": 204.65332550000002,
          "velocity": 1
        },
        {
          "duration": 0.2970294999999794,
          "durationTicks": 48,
          "midi": 51,
          "name": "D#3",
          "ticks": 33072,
          "time": 204.65332550000002,
          "velocity": 1
        },
        {
          "duration": 0.2970294999999794,
          "durationTicks": 48,
          "midi": 54,
          "name": "F#3",
          "ticks": 33072,
          "time": 204.65332550000002,
          "velocity": 1
        },
        {
          "duration": 2.227721250000002,
          "durationTicks": 360,
          "midi": 44,
          "name": "G#2",
          "ticks": 33120,
          "time": 204.950355,
          "velocity": 0.3937007874015748
        },
        {
          "duration": 2.227721250000002,
          "durationTicks": 360,
          "midi": 49,
          "name": "C#3",
          "ticks": 33120,
          "time": 204.950355,
          "velocity": 1
        },
        {
          "duration": 2.227721250000002,
          "durationTicks": 360,
          "midi": 54,
          "name": "F#3",
          "ticks": 33120,
          "time": 204.950355,
          "velocity": 1
        },
        {
          "duration": 2.227721250000002,
          "durationTicks": 360,
          "midi": 56,
          "name": "G#3",
          "ticks": 33120,
          "time": 204.950355,
          "velocity": 1
        },
        {
          "duration": 2.970294999999993,
          "durationTicks": 480,
          "midi": 44,
          "name": "G#2",
          "ticks": 33480,
          "time": 207.17807625,
          "velocity": 0.1889763779527559
        },
        {
          "duration": 2.970294999999993,
          "durationTicks": 480,
          "midi": 49,
          "name": "C#3",
          "ticks": 33480,
          "time": 207.17807625,
          "velocity": 0.1732283464566929
        },
        {
          "duration": 2.970294999999993,
          "durationTicks": 480,
          "midi": 54,
          "name": "F#3",
          "ticks": 33480,
          "time": 207.17807625,
          "velocity": 0.1732283464566929
        },
        {
          "duration": 2.970294999999993,
          "durationTicks": 480,
          "midi": 56,
          "name": "G#3",
          "ticks": 33480,
          "time": 207.17807625,
          "velocity": 0.1732283464566929
        },
        {
          "duration": 1.188118000000003,
          "durationTicks": 192,
          "midi": 49,
          "name": "C#3",
          "ticks": 38760,
          "time": 239.85132125,
          "velocity": 1
        },
        {
          "duration": 1.188118000000003,
          "durationTicks": 192,
          "midi": 54,
          "name": "F#3",
          "ticks": 38760,
          "time": 239.85132125,
          "velocity": 1
        },
        {
          "duration": 1.188118000000003,
          "durationTicks": 192,
          "midi": 56,
          "name": "G#3",
          "ticks": 38760,
          "time": 239.85132125,
          "velocity": 1
        }
      ],
      "endOfTrackTicks": 38952
    },
    {
      "channel": 0,
      "controlChanges": {},
      "pitchBends": [],
      "instrument": {
        "family": "piano",
        "number": 0,
        "name": "acoustic grand piano"
      },
      "name": "Track 14 (0B:    Comin' back to my)",
      "notes": [
        {
          "duration": 4.158412999999996,
          "durationTicks": 672,
          "midi": 44,
          "name": "G#2",
          "ticks": 5952,
          "time": 36.831658000000004,
          "velocity": 0.2992125984251969
        },
        {
          "duration": 0.2970295000000007,
          "durationTicks": 48,
          "midi": 51,
          "name": "D#3",
          "ticks": 7272,
          "time": 44.99996925,
          "velocity": 1
        },
        {
          "duration": 0.2970295000000007,
          "durationTicks": 48,
          "midi": 51,
          "name": "D#3",
          "ticks": 7320,
          "time": 45.29699875,
          "velocity": 0.1732283464566929
        },
        {
          "duration": 0.44554424999999753,
          "durationTicks": 72,
          "midi": 54,
          "name": "F#3",
          "ticks": 7320,
          "time": 45.29699875,
          "velocity": 1
        },
        {
          "duration": 0.7425737500000054,
          "durationTicks": 120,
          "midi": 49,
          "name": "C#3",
          "ticks": 7392,
          "time": 45.742543,
          "velocity": 1
        },
        {
          "duration": 0.29702950000000783,
          "durationTicks": 48,
          "midi": 51,
          "name": "D#3",
          "ticks": 7392,
          "time": 45.742543,
          "velocity": 0.09448818897637795
        },
        {
          "duration": 0.2970294999999936,
          "durationTicks": 48,
          "midi": 51,
          "name": "D#3",
          "ticks": 7512,
          "time": 46.48511675,
          "velocity": 1
        },
        {
          "duration": 0.7425737500000054,
          "durationTicks": 120,
          "midi": 56,
          "name": "G#3",
          "ticks": 7560,
          "time": 46.78214625,
          "velocity": 1
        },
        {
          "duration": 0.14851475000000391,
          "durationTicks": 24,
          "midi": 54,
          "name": "F#3",
          "ticks": 7680,
          "time": 47.52472,
          "velocity": 1
        },
        {
          "duration": 0.1485147499999897,
          "durationTicks": 24,
          "midi": 51,
          "name": "D#3",
          "ticks": 7704,
          "time": 47.673234750000006,
          "velocity": 1
        },
        {
          "duration": 0.29702950000000783,
          "durationTicks": 48,
          "midi": 54,
          "name": "F#3",
          "ticks": 7728,
          "time": 47.821749499999996,
          "velocity": 1
        },
        {
          "duration": 0.44554424999999753,
          "durationTicks": 72,
          "midi": 49,
          "name": "C#3",
          "ticks": 7776,
          "time": 48.118779,
          "velocity": 1
        },
        {
          "duration": 0.2970295000000007,
          "durationTicks": 48,
          "midi": 47,
          "name": "B2",
          "ticks": 7848,
          "time": 48.56432325,
          "velocity": 1
        },
        {
          "duration": 0.1485147499999968,
          "durationTicks": 24,
          "midi": 44,
          "name": "G#2",
          "ticks": 7896,
          "time": 48.86135275,
          "velocity": 1
        },
        {
          "duration": 1.188118000000003,
          "durationTicks": 192,
          "midi": 49,
          "name": "C#3",
          "ticks": 7920,
          "time": 49.0098675,
          "velocity": 1
        },
        {
          "duration": 0.2970295000000007,
          "durationTicks": 48,
          "midi": 47,
          "name": "B2",
          "ticks": 8112,
          "time": 50.1979855,
          "velocity": 1
        },
        {
          "duration": 0.44554424999999753,
          "durationTicks": 72,
          "midi": 46,
          "name": "A#2",
          "ticks": 8160,
          "time": 50.495015,
          "velocity": 1
        },
        {
          "duration": 0.2970295000000007,
          "durationTicks": 48,
          "midi": 42,
          "name": "F#2",
          "ticks": 8232,
          "time": 50.94055925,
          "velocity": 1
        },
        {
          "duration": 1.7821769999999972,
          "durationTicks": 288,
          "midi": 44,
          "name": "G#2",
          "ticks": 8280,
          "time": 51.23758875,
          "velocity": 1
        },
        {
          "duration": 0.2970295000000007,
          "durationTicks": 48,
          "midi": 51,
          "name": "D#3",
          "ticks": 8712,
          "time": 53.91085425,
          "velocity": 1
        },
        {
          "duration": 0.2970295000000007,
          "durationTicks": 48,
          "midi": 51,
          "name": "D#3",
          "ticks": 8760,
          "time": 54.20788375,
          "velocity": 0.1732283464566929
        },
        {
          "duration": 0.44554424999999753,
          "durationTicks": 72,
          "midi": 54,
          "name": "F#3",
          "ticks": 8760,
          "time": 54.20788375,
          "velocity": 1
        },
        {
          "duration": 0.7425737500000054,
          "durationTicks": 120,
          "midi": 49,
          "name": "C#3",
          "ticks": 8832,
          "time": 54.653428,
          "velocity": 1
        },
        {
          "duration": 0.2970295000000007,
          "durationTicks": 48,
          "midi": 51,
          "name": "D#3",
          "ticks": 8832,
          "time": 54.653428,
          "velocity": 0.09448818897637795
        },
        {
          "duration": 0.2970295000000007,
          "durationTicks": 48,
          "midi": 51,
          "name": "D#3",
          "ticks": 8952,
          "time": 55.39600175,
          "velocity": 1
        },
        {
          "duration": 0.7425737499999983,
          "durationTicks": 120,
          "midi": 56,
          "name": "G#3",
          "ticks": 9000,
          "time": 55.693031250000004,
          "velocity": 1
        },
        {
          "duration": 0.1485147499999968,
          "durationTicks": 24,
          "midi": 54,
          "name": "F#3",
          "ticks": 9120,
          "time": 56.435605,
          "velocity": 1
        },
        {
          "duration": 0.14851475000000391,
          "durationTicks": 24,
          "midi": 51,
          "name": "D#3",
          "ticks": 9144,
          "time": 56.58411975,
          "velocity": 1
        },
        {
          "duration": 0.2970295000000007,
          "durationTicks": 48,
          "midi": 56,
          "name": "G#3",
          "ticks": 9168,
          "time": 56.7326345,
          "velocity": 1
        },
        {
          "duration": 0.44554424999999753,
          "durationTicks": 72,
          "midi": 51,
          "name": "D#3",
          "ticks": 9216,
          "time": 57.029664000000004,
          "velocity": 1
        },
        {
          "duration": 0.2970295000000007,
          "durationTicks": 48,
          "midi": 49,
          "name": "C#3",
          "ticks": 9288,
          "time": 57.47520825,
          "velocity": 1
        },
        {
          "duration": 0.1485147499999968,
          "durationTicks": 24,
          "midi": 47,
          "name": "B2",
          "ticks": 9336,
          "time": 57.77223775,
          "velocity": 1
        },
        {
          "duration": 1.188118000000003,
          "durationTicks": 192,
          "midi": 49,
          "name": "C#3",
          "ticks": 9360,
          "time": 57.9207525,
          "velocity": 1
        },
        {
          "duration": 0.2970295000000007,
          "durationTicks": 48,
          "midi": 47,
          "name": "B2",
          "ticks": 9552,
          "time": 59.1088705,
          "velocity": 1
        },
        {
          "duration": 0.44554424999999753,
          "durationTicks": 72,
          "midi": 46,
          "name": "A#2",
          "ticks": 9600,
          "time": 59.4059,
          "velocity": 1
        },
        {
          "duration": 0.2970295000000007,
          "durationTicks": 48,
          "midi": 42,
          "name": "F#2",
          "ticks": 9672,
          "time": 59.85144425,
          "velocity": 1
        },
        {
          "duration": 1.6336622500000004,
          "durationTicks": 264,
          "midi": 47,
          "name": "B2",
          "ticks": 9720,
          "time": 60.14847375,
          "velocity": 1
        },
        {
          "duration": 0.2970295000000007,
          "durationTicks": 48,
          "midi": 42,
          "name": "F#2",
          "ticks": 10032,
          "time": 62.0791655,
          "velocity": 1
        },
        {
          "duration": 0.2970295000000007,
          "durationTicks": 48,
          "midi": 42,
          "name": "F#2",
          "ticks": 10080,
          "time": 62.376195,
          "velocity": 0.1732283464566929
        },
        {
          "duration": 2.3762359999999987,
          "durationTicks": 384,
          "midi": 44,
          "name": "G#2",
          "ticks": 10080,
          "time": 62.376195,
          "velocity": 1
        },
        {
          "duration": 0.2970295000000007,
          "durationTicks": 48,
          "midi": 42,
          "name": "F#2",
          "ticks": 10152,
          "time": 62.82173925,
          "velocity": 0.09448818897637795
        },
        {
          "duration": 2.376236000000006,
          "durationTicks": 384,
          "midi": 44,
          "name": "G#2",
          "ticks": 11520,
          "time": 71.28708,
          "velocity": 1
        },
        {
          "duration": 2.5247507499999813,
          "durationTicks": 408,
          "midi": 44,
          "name": "G#2",
          "ticks": 11568,
          "time": 71.58410950000001,
          "velocity": 0.1732283464566929
        },
        {
          "duration": 2.5247507500000097,
          "durationTicks": 408,
          "midi": 44,
          "name": "G#2",
          "ticks": 11640,
          "time": 72.02965375,
          "velocity": 0.09448818897637795
        },
        {
          "duration": 4.158412999999996,
          "durationTicks": 672,
          "midi": 44,
          "name": "G#2",
          "ticks": 26112,
          "time": 161.58404800000002,
          "velocity": 0.2992125984251969
        },
        {
          "duration": 4.158412999999996,
          "durationTicks": 672,
          "midi": 44,
          "name": "G#2",
          "ticks": 27552,
          "time": 170.494933,
          "velocity": 1
        },
        {
          "duration": 0.2970294999999794,
          "durationTicks": 48,
          "midi": 51,
          "name": "D#3",
          "ticks": 28872,
          "time": 178.66324425000002,
          "velocity": 1
        },
        {
          "duration": 0.29702950000000783,
          "durationTicks": 48,
          "midi": 51,
          "name": "D#3",
          "ticks": 28920,
          "time": 178.96027375,
          "velocity": 0.1732283464566929
        },
        {
          "duration": 0.44554425000001174,
          "durationTicks": 72,
          "midi": 54,
          "name": "F#3",
          "ticks": 28920,
          "time": 178.96027375,
          "velocity": 1
        },
        {
          "duration": 0.7425737500000196,
          "durationTicks": 120,
          "midi": 49,
          "name": "C#3",
          "ticks": 28992,
          "time": 179.405818,
          "velocity": 1
        },
        {
          "duration": 0.29702950000000783,
          "durationTicks": 48,
          "midi": 51,
          "name": "D#3",
          "ticks": 28992,
          "time": 179.405818,
          "velocity": 0.09448818897637795
        },
        {
          "duration": 0.29702950000000783,
          "durationTicks": 48,
          "midi": 51,
          "name": "D#3",
          "ticks": 29112,
          "time": 180.14839175000003,
          "velocity": 1
        },
        {
          "duration": 0.7425737499999627,
          "durationTicks": 120,
          "midi": 56,
          "name": "G#3",
          "ticks": 29160,
          "time": 180.44542125000004,
          "velocity": 1
        },
        {
          "duration": 0.14851475000000391,
          "durationTicks": 24,
          "midi": 54,
          "name": "F#3",
          "ticks": 29280,
          "time": 181.187995,
          "velocity": 1
        },
        {
          "duration": 0.14851475000000391,
          "durationTicks": 24,
          "midi": 51,
          "name": "D#3",
          "ticks": 29304,
          "time": 181.33650975,
          "velocity": 1
        },
        {
          "duration": 0.29702950000000783,
          "durationTicks": 48,
          "midi": 54,
          "name": "F#3",
          "ticks": 29328,
          "time": 181.4850245,
          "velocity": 1
        },
        {
          "duration": 0.44554425000001174,
          "durationTicks": 72,
          "midi": 49,
          "name": "C#3",
          "ticks": 29376,
          "time": 181.78205400000002,
          "velocity": 1
        },
        {
          "duration": 0.29702950000000783,
          "durationTicks": 48,
          "midi": 47,
          "name": "B2",
          "ticks": 29448,
          "time": 182.22759825000003,
          "velocity": 1
        },
        {
          "duration": 0.14851475000000391,
          "durationTicks": 24,
          "midi": 44,
          "name": "G#2",
          "ticks": 29496,
          "time": 182.52462775000004,
          "velocity": 1
        },
        {
          "duration": 1.1881179999999745,
          "durationTicks": 192,
          "midi": 49,
          "name": "C#3",
          "ticks": 29520,
          "time": 182.67314250000004,
          "velocity": 1
        },
        {
          "duration": 0.29702950000000783,
          "durationTicks": 48,
          "midi": 47,
          "name": "B2",
          "ticks": 29712,
          "time": 183.86126050000001,
          "velocity": 1
        },
        {
          "duration": 0.44554425000001174,
          "durationTicks": 72,
          "midi": 46,
          "name": "A#2",
          "ticks": 29760,
          "time": 184.15829000000002,
          "velocity": 1
        },
        {
          "duration": 0.2970294999999794,
          "durationTicks": 48,
          "midi": 42,
          "name": "F#2",
          "ticks": 29832,
          "time": 184.60383425000003,
          "velocity": 1
        },
        {
          "duration": 1.7821770000000186,
          "durationTicks": 288,
          "midi": 44,
          "name": "G#2",
          "ticks": 29880,
          "time": 184.90086375,
          "velocity": 1
        },
        {
          "duration": 0.29702950000000783,
          "durationTicks": 48,
          "midi": 51,
          "name": "D#3",
          "ticks": 30312,
          "time": 187.57412925,
          "velocity": 1
        },
        {
          "duration": 0.29702950000000783,
          "durationTicks": 48,
          "midi": 51,
          "name": "D#3",
          "ticks": 30360,
          "time": 187.87115875,
          "velocity": 0.1732283464566929
        },
        {
          "duration": 0.44554425000001174,
          "durationTicks": 72,
          "midi": 54,
          "name": "F#3",
          "ticks": 30360,
          "time": 187.87115875,
          "velocity": 1
        },
        {
          "duration": 0.7425737500000196,
          "durationTicks": 120,
          "midi": 49,
          "name": "C#3",
          "ticks": 30432,
          "time": 188.31670300000002,
          "velocity": 1
        },
        {
          "duration": 0.29702950000000783,
          "durationTicks": 48,
          "midi": 51,
          "name": "D#3",
          "ticks": 30432,
          "time": 188.31670300000002,
          "velocity": 0.09448818897637795
        },
        {
          "duration": 0.2970294999999794,
          "durationTicks": 48,
          "midi": 51,
          "name": "D#3",
          "ticks": 30552,
          "time": 189.05927675000004,
          "velocity": 1
        },
        {
          "duration": 0.7425737499999912,
          "durationTicks": 120,
          "midi": 56,
          "name": "G#3",
          "ticks": 30600,
          "time": 189.35630625000002,
          "velocity": 1
        },
        {
          "duration": 0.14851475000000391,
          "durationTicks": 24,
          "midi": 54,
          "name": "F#3",
          "ticks": 30720,
          "time": 190.09888,
          "velocity": 1
        },
        {
          "duration": 0.14851475000000391,
          "durationTicks": 24,
          "midi": 51,
          "name": "D#3",
          "ticks": 30744,
          "time": 190.24739475,
          "velocity": 1
        },
        {
          "duration": 0.29702950000000783,
          "durationTicks": 48,
          "midi": 56,
          "name": "G#3",
          "ticks": 30768,
          "time": 190.39590950000002,
          "velocity": 1
        },
        {
          "duration": 0.44554425000001174,
          "durationTicks": 72,
          "midi": 51,
          "name": "D#3",
          "ticks": 30816,
          "time": 190.69293900000002,
          "velocity": 1
        },
        {
          "duration": 0.2970294999999794,
          "durationTicks": 48,
          "midi": 49,
          "name": "C#3",
          "ticks": 30888,
          "time": 191.13848325000004,
          "velocity": 1
        },
        {
          "duration": 0.14851475000000391,
          "durationTicks": 24,
          "midi": 47,
          "name": "B2",
          "ticks": 30936,
          "time": 191.43551275000002,
          "velocity": 1
        },
        {
          "duration": 1.188118000000003,
          "durationTicks": 192,
          "midi": 49,
          "name": "C#3",
          "ticks": 30960,
          "time": 191.58402750000002,
          "velocity": 1
        },
        {
          "duration": 0.29702950000000783,
          "durationTicks": 48,
          "midi": 47,
          "name": "B2",
          "ticks": 31152,
          "time": 192.77214550000002,
          "velocity": 1
        },
        {
          "duration": 0.4455442499999833,
          "durationTicks": 72,
          "midi": 46,
          "name": "A#2",
          "ticks": 31200,
          "time": 193.06917500000003,
          "velocity": 1
        },
        {
          "duration": 0.29702950000000783,
          "durationTicks": 48,
          "midi": 42,
          "name": "F#2",
          "ticks": 31272,
          "time": 193.51471925,
          "velocity": 1
        },
        {
          "duration": 1.6336622500000146,
          "durationTicks": 264,
          "midi": 44,
          "name": "G#2",
          "ticks": 31320,
          "time": 193.81174875000002,
          "velocity": 1
        },
        {
          "duration": 0.29702950000000783,
          "durationTicks": 48,
          "midi": 42,
          "name": "F#2",
          "ticks": 31632,
          "time": 195.74244050000001,
          "velocity": 1
        },
        {
          "duration": 0.2970294999999794,
          "durationTicks": 48,
          "midi": 42,
          "name": "F#2",
          "ticks": 31680,
          "time": 196.03947000000002,
          "velocity": 0.1732283464566929
        },
        {
          "duration": 1.7821769999999901,
          "durationTicks": 288,
          "midi": 44,
          "name": "G#2",
          "ticks": 31680,
          "time": 196.03947000000002,
          "velocity": 1
        },
        {
          "duration": 0.29702950000000783,
          "durationTicks": 48,
          "midi": 42,
          "name": "F#2",
          "ticks": 31752,
          "time": 196.48501425,
          "velocity": 0.09448818897637795
        }
      ],
      "endOfTrackTicks": 31968
    },
    {
      "channel": 0,
      "controlChanges": {},
      "pitchBends": [],
      "instrument": {
        "family": "piano",
        "number": 0,
        "name": "acoustic grand piano"
      },
      "name": "Track 16 (0C:         roots...)",
      "notes": [
        {
          "duration": 0.5940590000000014,
          "durationTicks": 96,
          "midi": 52,
          "name": "E3",
          "ticks": 8544,
          "time": 52.871251,
          "velocity": 0.047244094488188976
        },
        {
          "duration": 2.227721250000002,
          "durationTicks": 360,
          "midi": 52,
          "name": "E3",
          "ticks": 8640,
          "time": 53.46531,
          "velocity": 1
        },
        {
          "duration": 2.227721250000002,
          "durationTicks": 360,
          "midi": 52,
          "name": "E3",
          "ticks": 8712,
          "time": 53.91085425,
          "velocity": 0.1889763779527559
        },
        {
          "duration": 2.2277212499999948,
          "durationTicks": 360,
          "midi": 52,
          "name": "E3",
          "ticks": 10080,
          "time": 62.376195,
          "velocity": 1
        },
        {
          "duration": 2.227721250000009,
          "durationTicks": 360,
          "midi": 52,
          "name": "E3",
          "ticks": 10152,
          "time": 62.82173925,
          "velocity": 0.1889763779527559
        },
        {
          "duration": 2.227721250000002,
          "durationTicks": 360,
          "midi": 52,
          "name": "E3",
          "ticks": 11520,
          "time": 71.28708,
          "velocity": 1
        },
        {
          "duration": 2.227721250000002,
          "durationTicks": 360,
          "midi": 52,
          "name": "E3",
          "ticks": 11592,
          "time": 71.73262425,
          "velocity": 0.1889763779527559
        },
        {
          "duration": 2.227721250000002,
          "durationTicks": 360,
          "midi": 53,
          "name": "F3",
          "ticks": 20160,
          "time": 124.75239000000002,
          "velocity": 1
        },
        {
          "duration": 2.227721250000002,
          "durationTicks": 360,
          "midi": 53,
          "name": "F3",
          "ticks": 20232,
          "time": 125.19793425000002,
          "velocity": 0.1889763779527559
        },
        {
          "duration": 2.227721250000002,
          "durationTicks": 360,
          "midi": 53,
          "name": "F3",
          "ticks": 21600,
          "time": 133.66327500000003,
          "velocity": 1
        },
        {
          "duration": 2.227721250000002,
          "durationTicks": 360,
          "midi": 53,
          "name": "F3",
          "ticks": 21672,
          "time": 134.10881925,
          "velocity": 0.1889763779527559
        },
        {
          "duration": 2.209156906249973,
          "durationTicks": 357,
          "midi": 53,
          "name": "F3",
          "ticks": 23043,
          "time": 142.59272434375004,
          "velocity": 1
        },
        {
          "duration": 2.227721250000002,
          "durationTicks": 360,
          "midi": 53,
          "name": "F3",
          "ticks": 23112,
          "time": 143.01970425000002,
          "velocity": 0.1889763779527559
        },
        {
          "duration": 2.227721250000002,
          "durationTicks": 360,
          "midi": 52,
          "name": "E3",
          "ticks": 24480,
          "time": 151.485045,
          "velocity": 1
        },
        {
          "duration": 2.227721250000002,
          "durationTicks": 360,
          "midi": 52,
          "name": "E3",
          "ticks": 24552,
          "time": 151.93058925000003,
          "velocity": 0.1889763779527559
        },
        {
          "duration": 2.227721250000002,
          "durationTicks": 360,
          "midi": 52,
          "name": "E3",
          "ticks": 25920,
          "time": 160.39593000000002,
          "velocity": 1
        },
        {
          "duration": 2.227721250000002,
          "durationTicks": 360,
          "midi": 52,
          "name": "E3",
          "ticks": 25992,
          "time": 160.84147425000003,
          "velocity": 0.1889763779527559
        },
        {
          "duration": 2.227721250000002,
          "durationTicks": 360,
          "midi": 52,
          "name": "E3",
          "ticks": 27360,
          "time": 169.30681500000003,
          "velocity": 1
        },
        {
          "duration": 2.227721250000002,
          "durationTicks": 360,
          "midi": 52,
          "name": "E3",
          "ticks": 27432,
          "time": 169.75235925,
          "velocity": 0.1889763779527559
        },
        {
          "duration": 0.5940589999999872,
          "durationTicks": 96,
          "midi": 52,
          "name": "E3",
          "ticks": 30144,
          "time": 186.53452600000003,
          "velocity": 0.047244094488188976
        },
        {
          "duration": 2.227721250000002,
          "durationTicks": 360,
          "midi": 52,
          "name": "E3",
          "ticks": 30240,
          "time": 187.12858500000002,
          "velocity": 1
        },
        {
          "duration": 2.227721250000002,
          "durationTicks": 360,
          "midi": 52,
          "name": "E3",
          "ticks": 30312,
          "time": 187.57412925,
          "velocity": 0.1889763779527559
        },
        {
          "duration": 2.227721250000002,
          "durationTicks": 360,
          "midi": 52,
          "name": "E3",
          "ticks": 31680,
          "time": 196.03947000000002,
          "velocity": 1
        },
        {
          "duration": 2.227721250000002,
          "durationTicks": 360,
          "midi": 52,
          "name": "E3",
          "ticks": 31752,
          "time": 196.48501425,
          "velocity": 0.1889763779527559
        }
      ],
      "endOfTrackTicks": 32112
    },
    {
      "channel": 0,
      "controlChanges": {},
      "pitchBends": [],
      "instrument": {
        "family": "piano",
        "number": 0,
        "name": "acoustic grand piano"
      },
      "name": "Track 16 (0D:     now unstoppable!)",
      "notes": [
        {
          "duration": 3.8613835000000023,
          "durationTicks": 624,
          "midi": 51,
          "name": "D#3",
          "ticks": 4056,
          "time": 25.09899275,
          "velocity": 1
        },
        {
          "duration": 2.079206499999998,
          "durationTicks": 336,
          "midi": 54,
          "name": "F#3",
          "ticks": 4464,
          "time": 27.623743500000003,
          "velocity": 1
        },
        {
          "duration": 2.2277212499999983,
          "durationTicks": 360,
          "midi": 49,
          "name": "C#3",
          "ticks": 4680,
          "time": 28.960376250000003,
          "velocity": 1
        },
        {
          "duration": 2.970295,
          "durationTicks": 480,
          "midi": 54,
          "name": "F#3",
          "ticks": 4800,
          "time": 29.70295,
          "velocity": 1
        },
        {
          "duration": 2.9702950000000037,
          "durationTicks": 480,
          "midi": 47,
          "name": "B2",
          "ticks": 5040,
          "time": 31.1880975,
          "velocity": 1
        },
        {
          "duration": 4.158413000000003,
          "durationTicks": 672,
          "midi": 44,
          "name": "G#2",
          "ticks": 5280,
          "time": 32.673245,
          "velocity": 1
        },
        {
          "duration": 7.574252250000001,
          "durationTicks": 1224,
          "midi": 42,
          "name": "F#2",
          "ticks": 5520,
          "time": 34.158392500000005,
          "velocity": 1
        },
        {
          "duration": 11.138606249999995,
          "durationTicks": 1800,
          "midi": 56,
          "name": "G#3",
          "ticks": 6744,
          "time": 41.732644750000006,
          "velocity": 0.5039370078740157
        },
        {
          "duration": 4.752471999999983,
          "durationTicks": 768,
          "midi": 44,
          "name": "G#2",
          "ticks": 10344,
          "time": 64.00985725000001,
          "velocity": 1
        },
        {
          "duration": 2.8217802500000033,
          "durationTicks": 456,
          "midi": 42,
          "name": "F#2",
          "ticks": 10800,
          "time": 66.8316375,
          "velocity": 1
        },
        {
          "duration": 4.15841300000001,
          "durationTicks": 672,
          "midi": 39,
          "name": "D#2",
          "ticks": 11112,
          "time": 68.76232925,
          "velocity": 1
        },
        {
          "duration": 6.089104750000004,
          "durationTicks": 984,
          "midi": 42,
          "name": "F#2",
          "ticks": 11256,
          "time": 69.65341775,
          "velocity": 1
        },
        {
          "duration": 4.752471999999997,
          "durationTicks": 768,
          "midi": 44,
          "name": "G#2",
          "ticks": 11784,
          "time": 72.92074225,
          "velocity": 1
        },
        {
          "duration": 8.6138555,
          "durationTicks": 1392,
          "midi": 42,
          "name": "F#2",
          "ticks": 12240,
          "time": 75.7425225,
          "velocity": 1
        },
        {
          "duration": 6.683163750000006,
          "durationTicks": 1080,
          "midi": 39,
          "name": "D#2",
          "ticks": 12552,
          "time": 77.67321425,
          "velocity": 1
        },
        {
          "duration": 40.84155625000001,
          "durationTicks": 6600,
          "midi": 39,
          "name": "D#2",
          "ticks": 13632,
          "time": 84.356378,
          "velocity": 0.31496062992125984
        },
        {
          "duration": 12.326724250000012,
          "durationTicks": 1992,
          "midi": 44,
          "name": "G#2",
          "ticks": 13632,
          "time": 84.356378,
          "velocity": 0.4094488188976378
        },
        {
          "duration": 2.079206499999998,
          "durationTicks": 336,
          "midi": 54,
          "name": "F#3",
          "ticks": 15984,
          "time": 98.91082350000002,
          "velocity": 1
        },
        {
          "duration": 2.227721250000002,
          "durationTicks": 360,
          "midi": 49,
          "name": "C#3",
          "ticks": 16200,
          "time": 100.24745625000001,
          "velocity": 1
        },
        {
          "duration": 2.970294999999993,
          "durationTicks": 480,
          "midi": 54,
          "name": "F#3",
          "ticks": 16320,
          "time": 100.99003000000002,
          "velocity": 1
        },
        {
          "duration": 2.9702950000000072,
          "durationTicks": 480,
          "midi": 47,
          "name": "B2",
          "ticks": 16560,
          "time": 102.47517750000002,
          "velocity": 1
        },
        {
          "duration": 3.8613835000000023,
          "durationTicks": 624,
          "midi": 44,
          "name": "G#2",
          "ticks": 16800,
          "time": 103.96032500000001,
          "velocity": 1
        },
        {
          "duration": 3.7128687499999984,
          "durationTicks": 600,
          "midi": 42,
          "name": "F#2",
          "ticks": 17040,
          "time": 105.44547250000002,
          "velocity": 1
        },
        {
          "duration": 2.079206500000012,
          "durationTicks": 336,
          "midi": 54,
          "name": "F#3",
          "ticks": 17424,
          "time": 107.82170850000001,
          "velocity": 1
        },
        {
          "duration": 2.227721250000002,
          "durationTicks": 360,
          "midi": 48,
          "name": "C3",
          "ticks": 17640,
          "time": 109.15834125000002,
          "velocity": 1
        },
        {
          "duration": 2.970294999999993,
          "durationTicks": 480,
          "midi": 53,
          "name": "F3",
          "ticks": 17760,
          "time": 109.90091500000003,
          "velocity": 1
        },
        {
          "duration": 2.970294999999993,
          "durationTicks": 480,
          "midi": 47,
          "name": "B2",
          "ticks": 18000,
          "time": 111.38606250000002,
          "velocity": 1
        },
        {
          "duration": 3.8613835000000023,
          "durationTicks": 624,
          "midi": 44,
          "name": "G#2",
          "ticks": 18240,
          "time": 112.87121000000002,
          "velocity": 1
        },
        {
          "duration": 3.7128687499999984,
          "durationTicks": 600,
          "midi": 42,
          "name": "F#2",
          "ticks": 18480,
          "time": 114.35635750000002,
          "velocity": 1
        },
        {
          "duration": 2.079206499999998,
          "durationTicks": 336,
          "midi": 54,
          "name": "F#3",
          "ticks": 18864,
          "time": 116.73259350000002,
          "velocity": 1
        },
        {
          "duration": 2.227721250000002,
          "durationTicks": 360,
          "midi": 49,
          "name": "C#3",
          "ticks": 19080,
          "time": 118.06922625000001,
          "velocity": 1
        },
        {
          "duration": 2.9702950000000072,
          "durationTicks": 480,
          "midi": 54,
          "name": "F#3",
          "ticks": 19200,
          "time": 118.81180000000002,
          "velocity": 1
        },
        {
          "duration": 2.970294999999993,
          "durationTicks": 480,
          "midi": 47,
          "name": "B2",
          "ticks": 19440,
          "time": 120.29694750000002,
          "velocity": 1
        },
        {
          "duration": 3.861383499999988,
          "durationTicks": 624,
          "midi": 44,
          "name": "G#2",
          "ticks": 19680,
          "time": 121.78209500000003,
          "velocity": 1
        },
        {
          "duration": 3.7128687500000126,
          "durationTicks": 600,
          "midi": 42,
          "name": "F#2",
          "ticks": 19920,
          "time": 123.26724250000001,
          "velocity": 1
        },
        {
          "duration": 2.079206499999998,
          "durationTicks": 336,
          "midi": 53,
          "name": "F3",
          "ticks": 20304,
          "time": 125.64347850000001,
          "velocity": 1
        },
        {
          "duration": 2.227721250000002,
          "durationTicks": 360,
          "midi": 48,
          "name": "C3",
          "ticks": 20520,
          "time": 126.98011125000002,
          "velocity": 1
        },
        {
          "duration": 2.9702950000000214,
          "durationTicks": 480,
          "midi": 53,
          "name": "F3",
          "ticks": 20640,
          "time": 127.72268500000001,
          "velocity": 1
        },
        {
          "duration": 2.970294999999993,
          "durationTicks": 480,
          "midi": 46,
          "name": "A#2",
          "ticks": 20880,
          "time": 129.20783250000002,
          "velocity": 1
        },
        {
          "duration": 30.89106799999999,
          "durationTicks": 4992,
          "midi": 43,
          "name": "G2",
          "ticks": 21120,
          "time": 130.69298000000003,
          "velocity": 1
        },
        {
          "duration": 43.21779225,
          "durationTicks": 6984,
          "midi": 41,
          "name": "F2",
          "ticks": 21360,
          "time": 132.17812750000002,
          "velocity": 1
        },
        {
          "duration": 11.13860625000001,
          "durationTicks": 1800,
          "midi": 56,
          "name": "G#3",
          "ticks": 28344,
          "time": 175.39591975000002,
          "velocity": 0.5039370078740157
        },
        {
          "duration": 2.079206499999998,
          "durationTicks": 336,
          "midi": 51,
          "name": "D#3",
          "ticks": 38616,
          "time": 238.96023275000002,
          "velocity": 1
        }
      ],
      "endOfTrackTicks": 38952
    },
    {
      "channel": 0,
      "controlChanges": {},
      "pitchBends": [],
      "instrument": {
        "family": "piano",
        "number": 0,
        "name": "acoustic grand piano"
      },
      "name": "Track 16 (0E: )",
      "notes": [
        {
          "duration": 0.14851475000000391,
          "durationTicks": 24,
          "midi": 61,
          "name": "C#4",
          "ticks": 13200,
          "time": 81.68311250000001,
          "velocity": 1
        },
        {
          "duration": 0.14851475000000391,
          "durationTicks": 24,
          "midi": 61,
          "name": "C#4",
          "ticks": 13200,
          "time": 81.68311250000001,
          "velocity": 1
        },
        {
          "duration": 0.14851475000000391,
          "durationTicks": 24,
          "midi": 61,
          "name": "C#4",
          "ticks": 13920,
          "time": 86.13855500000001,
          "velocity": 1
        },
        {
          "duration": 0.14851475000000391,
          "durationTicks": 24,
          "midi": 61,
          "name": "C#4",
          "ticks": 13920,
          "time": 86.13855500000001,
          "velocity": 1
        },
        {
          "duration": 0.14851475000000391,
          "durationTicks": 24,
          "midi": 44,
          "name": "G#2",
          "ticks": 14640,
          "time": 90.59399750000001,
          "velocity": 1
        },
        {
          "duration": 0.14851475000000391,
          "durationTicks": 24,
          "midi": 44,
          "name": "G#2",
          "ticks": 14640,
          "time": 90.59399750000001,
          "velocity": 1
        },
        {
          "duration": 0.14851475000000391,
          "durationTicks": 24,
          "midi": 44,
          "name": "G#2",
          "ticks": 15360,
          "time": 95.04944000000002,
          "velocity": 1
        },
        {
          "duration": 0.14851475000000391,
          "durationTicks": 24,
          "midi": 44,
          "name": "G#2",
          "ticks": 15360,
          "time": 95.04944000000002,
          "velocity": 1
        },
        {
          "duration": 0.2970294999999936,
          "durationTicks": 48,
          "midi": 56,
          "name": "G#3",
          "ticks": 15840,
          "time": 98.01973500000003,
          "velocity": 1
        },
        {
          "duration": 0.2970294999999936,
          "durationTicks": 48,
          "midi": 44,
          "name": "G#2",
          "ticks": 15888,
          "time": 98.31676450000002,
          "velocity": 1
        },
        {
          "duration": 0.14851475000000391,
          "durationTicks": 24,
          "midi": 47,
          "name": "B2",
          "ticks": 15936,
          "time": 98.61379400000001,
          "velocity": 1
        },
        {
          "duration": 0.29702950000000783,
          "durationTicks": 48,
          "midi": 49,
          "name": "C#3",
          "ticks": 15960,
          "time": 98.76230875000002,
          "velocity": 1
        },
        {
          "duration": 0.2970294999999936,
          "durationTicks": 48,
          "midi": 44,
          "name": "G#2",
          "ticks": 16008,
          "time": 99.05933825000002,
          "velocity": 0.09448818897637795
        },
        {
          "duration": 0.29702950000000783,
          "durationTicks": 48,
          "midi": 49,
          "name": "C#3",
          "ticks": 16104,
          "time": 99.65339725000001,
          "velocity": 1
        },
        {
          "duration": 0.2970294999999936,
          "durationTicks": 48,
          "midi": 47,
          "name": "B2",
          "ticks": 16152,
          "time": 99.95042675000002,
          "velocity": 1
        },
        {
          "duration": 0.29702950000000783,
          "durationTicks": 48,
          "midi": 44,
          "name": "G#2",
          "ticks": 16200,
          "time": 100.24745625000001,
          "velocity": 1
        },
        {
          "duration": 0.1485147499999897,
          "durationTicks": 24,
          "midi": 56,
          "name": "G#3",
          "ticks": 16248,
          "time": 100.54448575000002,
          "velocity": 1
        },
        {
          "duration": 0.14851475000000391,
          "durationTicks": 24,
          "midi": 47,
          "name": "B2",
          "ticks": 16272,
          "time": 100.69300050000001,
          "velocity": 0.09448818897637795
        },
        {
          "duration": 0.14851475000000391,
          "durationTicks": 24,
          "midi": 59,
          "name": "B3",
          "ticks": 16296,
          "time": 100.84151525000001,
          "velocity": 1
        },
        {
          "duration": 0.14851475000000391,
          "durationTicks": 24,
          "midi": 54,
          "name": "F#3",
          "ticks": 16320,
          "time": 100.99003000000002,
          "velocity": 1
        },
        {
          "duration": 0.1485147499999897,
          "durationTicks": 24,
          "midi": 49,
          "name": "C#3",
          "ticks": 16344,
          "time": 101.13854475000002,
          "velocity": 1
        },
        {
          "duration": 0.14851475000000391,
          "durationTicks": 24,
          "midi": 59,
          "name": "B3",
          "ticks": 16368,
          "time": 101.28705950000001,
          "velocity": 0.09448818897637795
        },
        {
          "duration": 0.29702950000000783,
          "durationTicks": 48,
          "midi": 44,
          "name": "G#2",
          "ticks": 16392,
          "time": 101.43557425000002,
          "velocity": 1
        },
        {
          "duration": 0.1485147499999897,
          "durationTicks": 24,
          "midi": 47,
          "name": "B2",
          "ticks": 16440,
          "time": 101.73260375000002,
          "velocity": 1
        },
        {
          "duration": 0.14851475000000391,
          "durationTicks": 24,
          "midi": 49,
          "name": "C#3",
          "ticks": 16464,
          "time": 101.88111850000001,
          "velocity": 1
        },
        {
          "duration": 0.14851475000000391,
          "durationTicks": 24,
          "midi": 44,
          "name": "G#2",
          "ticks": 16488,
          "time": 102.02963325000002,
          "velocity": 0.09448818897637795
        },
        {
          "duration": 0.2970294999999936,
          "durationTicks": 48,
          "midi": 44,
          "name": "G#2",
          "ticks": 16512,
          "time": 102.17814800000002,
          "velocity": 1
        },
        {
          "duration": 0.29702950000000783,
          "durationTicks": 48,
          "midi": 56,
          "name": "G#3",
          "ticks": 16560,
          "time": 102.47517750000002,
          "velocity": 1
        },
        {
          "duration": 0.2970294999999936,
          "durationTicks": 48,
          "midi": 44,
          "name": "G#2",
          "ticks": 16608,
          "time": 102.77220700000002,
          "velocity": 1
        },
        {
          "duration": 0.14851475000000391,
          "durationTicks": 24,
          "midi": 44,
          "name": "G#2",
          "ticks": 16656,
          "time": 103.06923650000002,
          "velocity": 1
        },
        {
          "duration": 0.2970294999999936,
          "durationTicks": 48,
          "midi": 47,
          "name": "B2",
          "ticks": 16680,
          "time": 103.21775125000002,
          "velocity": 1
        },
        {
          "duration": 0.29702950000000783,
          "durationTicks": 48,
          "midi": 44,
          "name": "G#2",
          "ticks": 16728,
          "time": 103.51478075000001,
          "velocity": 0.09448818897637795
        },
        {
          "duration": 0.14851475000000391,
          "durationTicks": 24,
          "midi": 49,
          "name": "C#3",
          "ticks": 16824,
          "time": 104.10883975000002,
          "velocity": 1
        },
        {
          "duration": 0.14851475000000391,
          "durationTicks": 24,
          "midi": 44,
          "name": "G#2",
          "ticks": 16848,
          "time": 104.25735450000002,
          "velocity": 0.047244094488188976
        },
        {
          "duration": 0.2970294999999936,
          "durationTicks": 48,
          "midi": 47,
          "name": "B2",
          "ticks": 16872,
          "time": 104.40586925000002,
          "velocity": 1
        },
        {
          "duration": 0.2970294999999936,
          "durationTicks": 48,
          "midi": 44,
          "name": "G#2",
          "ticks": 16920,
          "time": 104.70289875000002,
          "velocity": 1
        },
        {
          "duration": 0.14851475000000391,
          "durationTicks": 24,
          "midi": 56,
          "name": "G#3",
          "ticks": 16968,
          "time": 104.99992825000001,
          "velocity": 1
        },
        {
          "duration": 0.14851475000000391,
          "durationTicks": 24,
          "midi": 47,
          "name": "B2",
          "ticks": 16992,
          "time": 105.14844300000001,
          "velocity": 0.09448818897637795
        },
        {
          "duration": 0.14851475000000391,
          "durationTicks": 24,
          "midi": 59,
          "name": "B3",
          "ticks": 17016,
          "time": 105.29695775000002,
          "velocity": 1
        },
        {
          "duration": 0.14851475000000391,
          "durationTicks": 24,
          "midi": 54,
          "name": "F#3",
          "ticks": 17040,
          "time": 105.44547250000002,
          "velocity": 1
        },
        {
          "duration": 0.2970294999999936,
          "durationTicks": 48,
          "midi": 49,
          "name": "C#3",
          "ticks": 17064,
          "time": 105.59398725000003,
          "velocity": 1
        },
        {
          "duration": 0.2970294999999936,
          "durationTicks": 48,
          "midi": 44,
          "name": "G#2",
          "ticks": 17112,
          "time": 105.89101675000002,
          "velocity": 1
        },
        {
          "duration": 0.14851475000000391,
          "durationTicks": 24,
          "midi": 47,
          "name": "B2",
          "ticks": 17160,
          "time": 106.18804625000001,
          "velocity": 1
        },
        {
          "duration": 0.14851475000000391,
          "durationTicks": 24,
          "midi": 49,
          "name": "C#3",
          "ticks": 17184,
          "time": 106.33656100000002,
          "velocity": 1
        },
        {
          "duration": 0.14851475000000391,
          "durationTicks": 24,
          "midi": 44,
          "name": "G#2",
          "ticks": 17208,
          "time": 106.48507575000002,
          "velocity": 0.09448818897637795
        },
        {
          "duration": 0.2970294999999936,
          "durationTicks": 48,
          "midi": 44,
          "name": "G#2",
          "ticks": 17232,
          "time": 106.63359050000003,
          "velocity": 1
        },
        {
          "duration": 0.2970294999999936,
          "durationTicks": 48,
          "midi": 56,
          "name": "G#3",
          "ticks": 17280,
          "time": 106.93062000000002,
          "velocity": 1
        },
        {
          "duration": 0.29702950000000783,
          "durationTicks": 48,
          "midi": 44,
          "name": "G#2",
          "ticks": 17328,
          "time": 107.22764950000001,
          "velocity": 1
        },
        {
          "duration": 0.14851475000000391,
          "durationTicks": 24,
          "midi": 47,
          "name": "B2",
          "ticks": 17376,
          "time": 107.52467900000002,
          "velocity": 1
        },
        {
          "duration": 0.2970294999999936,
          "durationTicks": 48,
          "midi": 49,
          "name": "C#3",
          "ticks": 17400,
          "time": 107.67319375000002,
          "velocity": 1
        },
        {
          "duration": 0.2970294999999936,
          "durationTicks": 48,
          "midi": 44,
          "name": "G#2",
          "ticks": 17448,
          "time": 107.97022325000002,
          "velocity": 0.09448818897637795
        },
        {
          "duration": 0.2970294999999936,
          "durationTicks": 48,
          "midi": 49,
          "name": "C#3",
          "ticks": 17544,
          "time": 108.56428225000002,
          "velocity": 1
        },
        {
          "duration": 0.29702950000000783,
          "durationTicks": 48,
          "midi": 47,
          "name": "B2",
          "ticks": 17592,
          "time": 108.86131175000001,
          "velocity": 1
        },
        {
          "duration": 0.2970294999999936,
          "durationTicks": 48,
          "midi": 43,
          "name": "G2",
          "ticks": 17640,
          "time": 109.15834125000002,
          "velocity": 1
        },
        {
          "duration": 0.14851475000000391,
          "durationTicks": 24,
          "midi": 55,
          "name": "G3",
          "ticks": 17688,
          "time": 109.45537075000001,
          "velocity": 1
        },
        {
          "duration": 0.14851475000000391,
          "durationTicks": 24,
          "midi": 46,
          "name": "A#2",
          "ticks": 17712,
          "time": 109.60388550000002,
          "velocity": 0.09448818897637795
        },
        {
          "duration": 0.14851475000000391,
          "durationTicks": 24,
          "midi": 58,
          "name": "A#3",
          "ticks": 17736,
          "time": 109.75240025000002,
          "velocity": 1
        },
        {
          "duration": 0.1485147499999897,
          "durationTicks": 24,
          "midi": 53,
          "name": "F3",
          "ticks": 17760,
          "time": 109.90091500000003,
          "velocity": 1
        },
        {
          "duration": 0.14851475000000391,
          "durationTicks": 24,
          "midi": 48,
          "name": "C3",
          "ticks": 17784,
          "time": 110.04942975000002,
          "velocity": 1
        },
        {
          "duration": 0.1485147499999897,
          "durationTicks": 24,
          "midi": 58,
          "name": "A#3",
          "ticks": 17808,
          "time": 110.19794450000002,
          "velocity": 0.09448818897637795
        },
        {
          "duration": 0.29702950000000783,
          "durationTicks": 48,
          "midi": 43,
          "name": "G2",
          "ticks": 17832,
          "time": 110.34645925000001,
          "velocity": 1
        },
        {
          "duration": 0.14851475000000391,
          "durationTicks": 24,
          "midi": 46,
          "name": "A#2",
          "ticks": 17880,
          "time": 110.64348875000002,
          "velocity": 1
        },
        {
          "duration": 0.14851475000000391,
          "durationTicks": 24,
          "midi": 48,
          "name": "C3",
          "ticks": 17904,
          "time": 110.79200350000002,
          "velocity": 1
        },
        {
          "duration": 0.1485147499999897,
          "durationTicks": 24,
          "midi": 43,
          "name": "G2",
          "ticks": 17928,
          "time": 110.94051825000003,
          "velocity": 0.09448818897637795
        },
        {
          "duration": 0.29702950000000783,
          "durationTicks": 48,
          "midi": 43,
          "name": "G2",
          "ticks": 17952,
          "time": 111.08903300000001,
          "velocity": 1
        },
        {
          "duration": 0.2970294999999936,
          "durationTicks": 48,
          "midi": 56,
          "name": "G#3",
          "ticks": 18000,
          "time": 111.38606250000002,
          "velocity": 1
        },
        {
          "duration": 0.29702950000000783,
          "durationTicks": 48,
          "midi": 44,
          "name": "G#2",
          "ticks": 18048,
          "time": 111.68309200000002,
          "velocity": 1
        },
        {
          "duration": 0.1485147499999897,
          "durationTicks": 24,
          "midi": 44,
          "name": "G#2",
          "ticks": 18096,
          "time": 111.98012150000002,
          "velocity": 1
        },
        {
          "duration": 0.29702950000000783,
          "durationTicks": 48,
          "midi": 47,
          "name": "B2",
          "ticks": 18120,
          "time": 112.12863625000001,
          "velocity": 1
        },
        {
          "duration": 0.2970294999999936,
          "durationTicks": 48,
          "midi": 44,
          "name": "G#2",
          "ticks": 18168,
          "time": 112.42566575000002,
          "velocity": 0.09448818897637795
        },
        {
          "duration": 0.14851475000000391,
          "durationTicks": 24,
          "midi": 49,
          "name": "C#3",
          "ticks": 18264,
          "time": 113.01972475000002,
          "velocity": 1
        },
        {
          "duration": 0.1485147499999897,
          "durationTicks": 24,
          "midi": 44,
          "name": "G#2",
          "ticks": 18288,
          "time": 113.16823950000003,
          "velocity": 0.047244094488188976
        },
        {
          "duration": 0.2970294999999936,
          "durationTicks": 48,
          "midi": 47,
          "name": "B2",
          "ticks": 18312,
          "time": 113.31675425000002,
          "velocity": 1
        },
        {
          "duration": 0.29702950000000783,
          "durationTicks": 48,
          "midi": 44,
          "name": "G#2",
          "ticks": 18360,
          "time": 113.61378375000001,
          "velocity": 1
        },
        {
          "duration": 0.14851475000000391,
          "durationTicks": 24,
          "midi": 56,
          "name": "G#3",
          "ticks": 18408,
          "time": 113.91081325000002,
          "velocity": 1
        },
        {
          "duration": 0.14851475000000391,
          "durationTicks": 24,
          "midi": 47,
          "name": "B2",
          "ticks": 18432,
          "time": 114.05932800000002,
          "velocity": 0.09448818897637795
        },
        {
          "duration": 0.1485147499999897,
          "durationTicks": 24,
          "midi": 59,
          "name": "B3",
          "ticks": 18456,
          "time": 114.20784275000003,
          "velocity": 1
        },
        {
          "duration": 0.14851475000000391,
          "durationTicks": 24,
          "midi": 54,
          "name": "F#3",
          "ticks": 18480,
          "time": 114.35635750000002,
          "velocity": 1
        },
        {
          "duration": 0.2970294999999936,
          "durationTicks": 48,
          "midi": 49,
          "name": "C#3",
          "ticks": 18504,
          "time": 114.50487225000002,
          "velocity": 1
        },
        {
          "duration": 0.29702950000000783,
          "durationTicks": 48,
          "midi": 44,
          "name": "G#2",
          "ticks": 18552,
          "time": 114.80190175000001,
          "velocity": 1
        },
        {
          "duration": 0.14851475000000391,
          "durationTicks": 24,
          "midi": 47,
          "name": "B2",
          "ticks": 18600,
          "time": 115.09893125000002,
          "velocity": 1
        },
        {
          "duration": 0.1485147499999897,
          "durationTicks": 24,
          "midi": 49,
          "name": "C#3",
          "ticks": 18624,
          "time": 115.24744600000002,
          "velocity": 1
        },
        {
          "duration": 0.14851475000000391,
          "durationTicks": 24,
          "midi": 44,
          "name": "G#2",
          "ticks": 18648,
          "time": 115.39596075000001,
          "velocity": 0.09448818897637795
        },
        {
          "duration": 0.2970294999999936,
          "durationTicks": 48,
          "midi": 44,
          "name": "G#2",
          "ticks": 18672,
          "time": 115.54447550000002,
          "velocity": 1
        },
        {
          "duration": 0.29702950000000783,
          "durationTicks": 48,
          "midi": 59,
          "name": "B3",
          "ticks": 18720,
          "time": 115.84150500000001,
          "velocity": 1
        },
        {
          "duration": 0.2970294999999936,
          "durationTicks": 48,
          "midi": 47,
          "name": "B2",
          "ticks": 18768,
          "time": 116.13853450000002,
          "velocity": 1
        },
        {
          "duration": 0.14851475000000391,
          "durationTicks": 24,
          "midi": 59,
          "name": "B3",
          "ticks": 18816,
          "time": 116.43556400000001,
          "velocity": 1
        },
        {
          "duration": 0.2970294999999936,
          "durationTicks": 48,
          "midi": 49,
          "name": "C#3",
          "ticks": 18840,
          "time": 116.58407875000002,
          "velocity": 1
        },
        {
          "duration": 0.29702950000000783,
          "durationTicks": 48,
          "midi": 59,
          "name": "B3",
          "ticks": 18888,
          "time": 116.88110825000001,
          "velocity": 0.09448818897637795
        },
        {
          "duration": 0.2970294999999936,
          "durationTicks": 48,
          "midi": 49,
          "name": "C#3",
          "ticks": 18984,
          "time": 117.47516725000003,
          "velocity": 1
        },
        {
          "duration": 0.2970294999999936,
          "durationTicks": 48,
          "midi": 47,
          "name": "B2",
          "ticks": 19032,
          "time": 117.77219675000002,
          "velocity": 1
        },
        {
          "duration": 0.29702950000000783,
          "durationTicks": 48,
          "midi": 44,
          "name": "G#2",
          "ticks": 19080,
          "time": 118.06922625000001,
          "velocity": 1
        },
        {
          "duration": 0.14851475000000391,
          "durationTicks": 24,
          "midi": 56,
          "name": "G#3",
          "ticks": 19128,
          "time": 118.36625575000002,
          "velocity": 1
        },
        {
          "duration": 0.1485147499999897,
          "durationTicks": 24,
          "midi": 47,
          "name": "B2",
          "ticks": 19152,
          "time": 118.51477050000003,
          "velocity": 0.09448818897637795
        },
        {
          "duration": 0.14851475000000391,
          "durationTicks": 24,
          "midi": 59,
          "name": "B3",
          "ticks": 19176,
          "time": 118.66328525000002,
          "velocity": 1
        },
        {
          "duration": 0.14851475000000391,
          "durationTicks": 24,
          "midi": 54,
          "name": "F#3",
          "ticks": 19200,
          "time": 118.81180000000002,
          "velocity": 1
        },
        {
          "duration": 0.1485147499999897,
          "durationTicks": 24,
          "midi": 49,
          "name": "C#3",
          "ticks": 19224,
          "time": 118.96031475000002,
          "velocity": 1
        },
        {
          "duration": 0.14851475000000391,
          "durationTicks": 24,
          "midi": 59,
          "name": "B3",
          "ticks": 19248,
          "time": 119.10882950000001,
          "velocity": 0.09448818897637795
        },
        {
          "duration": 0.29702950000000783,
          "durationTicks": 48,
          "midi": 44,
          "name": "G#2",
          "ticks": 19272,
          "time": 119.25734425000002,
          "velocity": 1
        },
        {
          "duration": 0.1485147499999897,
          "durationTicks": 24,
          "midi": 47,
          "name": "B2",
          "ticks": 19320,
          "time": 119.55437375000002,
          "velocity": 1
        },
        {
          "duration": 0.14851475000000391,
          "durationTicks": 24,
          "midi": 49,
          "name": "C#3",
          "ticks": 19344,
          "time": 119.70288850000001,
          "velocity": 1
        },
        {
          "duration": 0.14851475000000391,
          "durationTicks": 24,
          "midi": 44,
          "name": "G#2",
          "ticks": 19368,
          "time": 119.85140325000002,
          "velocity": 0.09448818897637795
        },
        {
          "duration": 0.2970294999999936,
          "durationTicks": 48,
          "midi": 44,
          "name": "G#2",
          "ticks": 19392,
          "time": 119.99991800000002,
          "velocity": 1
        },
        {
          "duration": 0.29702950000000783,
          "durationTicks": 48,
          "midi": 56,
          "name": "G#3",
          "ticks": 19440,
          "time": 120.29694750000002,
          "velocity": 1
        },
        {
          "duration": 0.2970294999999936,
          "durationTicks": 48,
          "midi": 44,
          "name": "G#2",
          "ticks": 19488,
          "time": 120.59397700000002,
          "velocity": 1
        },
        {
          "duration": 0.14851475000000391,
          "durationTicks": 24,
          "midi": 44,
          "name": "G#2",
          "ticks": 19536,
          "time": 120.89100650000002,
          "velocity": 1
        },
        {
          "duration": 0.2970294999999936,
          "durationTicks": 48,
          "midi": 47,
          "name": "B2",
          "ticks": 19560,
          "time": 121.03952125000002,
          "velocity": 1
        },
        {
          "duration": 0.29702950000000783,
          "durationTicks": 48,
          "midi": 44,
          "name": "G#2",
          "ticks": 19608,
          "time": 121.33655075000001,
          "velocity": 0.09448818897637795
        },
        {
          "duration": 0.14851475000000391,
          "durationTicks": 24,
          "midi": 49,
          "name": "C#3",
          "ticks": 19704,
          "time": 121.93060975000002,
          "velocity": 1
        },
        {
          "duration": 0.1485147499999897,
          "durationTicks": 24,
          "midi": 44,
          "name": "G#2",
          "ticks": 19728,
          "time": 122.07912450000002,
          "velocity": 0.047244094488188976
        },
        {
          "duration": 0.29702950000000783,
          "durationTicks": 48,
          "midi": 47,
          "name": "B2",
          "ticks": 19752,
          "time": 122.22763925000001,
          "velocity": 1
        },
        {
          "duration": 0.29702950000000783,
          "durationTicks": 48,
          "midi": 44,
          "name": "G#2",
          "ticks": 19800,
          "time": 122.52466875000002,
          "velocity": 1
        },
        {
          "duration": 0.1485147499999897,
          "durationTicks": 24,
          "midi": 56,
          "name": "G#3",
          "ticks": 19848,
          "time": 122.82169825000003,
          "velocity": 1
        },
        {
          "duration": 0.14851475000000391,
          "durationTicks": 24,
          "midi": 47,
          "name": "B2",
          "ticks": 19872,
          "time": 122.97021300000002,
          "velocity": 0.09448818897637795
        },
        {
          "duration": 0.1485147499999897,
          "durationTicks": 24,
          "midi": 59,
          "name": "B3",
          "ticks": 19896,
          "time": 123.11872775000002,
          "velocity": 1
        },
        {
          "duration": 0.14851475000000391,
          "durationTicks": 24,
          "midi": 54,
          "name": "F#3",
          "ticks": 19920,
          "time": 123.26724250000001,
          "velocity": 1
        },
        {
          "duration": 0.29702950000000783,
          "durationTicks": 48,
          "midi": 49,
          "name": "C#3",
          "ticks": 19944,
          "time": 123.41575725000001,
          "velocity": 1
        },
        {
          "duration": 0.29702950000000783,
          "durationTicks": 48,
          "midi": 44,
          "name": "G#2",
          "ticks": 19992,
          "time": 123.71278675000002,
          "velocity": 1
        },
        {
          "duration": 0.1485147499999897,
          "durationTicks": 24,
          "midi": 47,
          "name": "B2",
          "ticks": 20040,
          "time": 124.00981625000003,
          "velocity": 1
        },
        {
          "duration": 0.1485147499999897,
          "durationTicks": 24,
          "midi": 49,
          "name": "C#3",
          "ticks": 20064,
          "time": 124.15833100000002,
          "velocity": 1
        },
        {
          "duration": 0.14851475000000391,
          "durationTicks": 24,
          "midi": 44,
          "name": "G#2",
          "ticks": 20088,
          "time": 124.30684575000001,
          "velocity": 0.09448818897637795
        },
        {
          "duration": 0.29702950000000783,
          "durationTicks": 48,
          "midi": 44,
          "name": "G#2",
          "ticks": 20112,
          "time": 124.45536050000001,
          "velocity": 1
        },
        {
          "duration": 0.29702950000000783,
          "durationTicks": 48,
          "midi": 55,
          "name": "G3",
          "ticks": 20160,
          "time": 124.75239000000002,
          "velocity": 1
        },
        {
          "duration": 0.2970294999999936,
          "durationTicks": 48,
          "midi": 43,
          "name": "G2",
          "ticks": 20208,
          "time": 125.04941950000003,
          "velocity": 1
        },
        {
          "duration": 0.1485147499999897,
          "durationTicks": 24,
          "midi": 46,
          "name": "A#2",
          "ticks": 20256,
          "time": 125.34644900000002,
          "velocity": 1
        },
        {
          "duration": 0.29702950000000783,
          "durationTicks": 48,
          "midi": 48,
          "name": "C3",
          "ticks": 20280,
          "time": 125.49496375000001,
          "velocity": 1
        },
        {
          "duration": 0.29702950000000783,
          "durationTicks": 48,
          "midi": 43,
          "name": "G2",
          "ticks": 20328,
          "time": 125.79199325000002,
          "velocity": 0.09448818897637795
        },
        {
          "duration": 0.2970294999999936,
          "durationTicks": 48,
          "midi": 48,
          "name": "C3",
          "ticks": 20424,
          "time": 126.38605225000002,
          "velocity": 1
        },
        {
          "duration": 0.29702950000000783,
          "durationTicks": 48,
          "midi": 46,
          "name": "A#2",
          "ticks": 20472,
          "time": 126.68308175000001,
          "velocity": 1
        },
        {
          "duration": 0.2970294999999936,
          "durationTicks": 48,
          "midi": 43,
          "name": "G2",
          "ticks": 20520,
          "time": 126.98011125000002,
          "velocity": 1
        },
        {
          "duration": 0.14851475000000391,
          "durationTicks": 24,
          "midi": 55,
          "name": "G3",
          "ticks": 20568,
          "time": 127.27714075000002,
          "velocity": 1
        },
        {
          "duration": 0.1485147499999897,
          "durationTicks": 24,
          "midi": 46,
          "name": "A#2",
          "ticks": 20592,
          "time": 127.42565550000002,
          "velocity": 0.09448818897637795
        },
        {
          "duration": 0.14851475000000391,
          "durationTicks": 24,
          "midi": 58,
          "name": "A#3",
          "ticks": 20616,
          "time": 127.57417025000001,
          "velocity": 1
        },
        {
          "duration": 0.14851475000000391,
          "durationTicks": 24,
          "midi": 53,
          "name": "F3",
          "ticks": 20640,
          "time": 127.72268500000001,
          "velocity": 1
        },
        {
          "duration": 0.14851475000000391,
          "durationTicks": 24,
          "midi": 48,
          "name": "C3",
          "ticks": 20664,
          "time": 127.87119975000002,
          "velocity": 1
        },
        {
          "duration": 0.14851475000000391,
          "durationTicks": 24,
          "midi": 58,
          "name": "A#3",
          "ticks": 20688,
          "time": 128.01971450000002,
          "velocity": 0.09448818897637795
        },
        {
          "duration": 0.29702950000000783,
          "durationTicks": 48,
          "midi": 43,
          "name": "G2",
          "ticks": 20712,
          "time": 128.16822925000002,
          "velocity": 1
        },
        {
          "duration": 0.1485147499999755,
          "durationTicks": 24,
          "midi": 46,
          "name": "A#2",
          "ticks": 20760,
          "time": 128.46525875000003,
          "velocity": 1
        },
        {
          "duration": 0.14851475000000391,
          "durationTicks": 24,
          "midi": 48,
          "name": "C3",
          "ticks": 20784,
          "time": 128.6137735,
          "velocity": 1
        },
        {
          "duration": 0.14851475000000391,
          "durationTicks": 24,
          "midi": 43,
          "name": "G2",
          "ticks": 20808,
          "time": 128.76228825,
          "velocity": 0.09448818897637795
        },
        {
          "duration": 0.29702950000000783,
          "durationTicks": 48,
          "midi": 43,
          "name": "G2",
          "ticks": 20832,
          "time": 128.91080300000002,
          "velocity": 1
        },
        {
          "duration": 0.2970294999999794,
          "durationTicks": 48,
          "midi": 55,
          "name": "G3",
          "ticks": 20880,
          "time": 129.20783250000002,
          "velocity": 1
        },
        {
          "duration": 0.29702950000000783,
          "durationTicks": 48,
          "midi": 43,
          "name": "G2",
          "ticks": 20928,
          "time": 129.504862,
          "velocity": 1
        },
        {
          "duration": 0.14851475000000391,
          "durationTicks": 24,
          "midi": 43,
          "name": "G2",
          "ticks": 20976,
          "time": 129.8018915,
          "velocity": 1
        },
        {
          "duration": 0.29702950000000783,
          "durationTicks": 48,
          "midi": 46,
          "name": "A#2",
          "ticks": 21000,
          "time": 129.95040625000001,
          "velocity": 1
        },
        {
          "duration": 0.29702950000000783,
          "durationTicks": 48,
          "midi": 43,
          "name": "G2",
          "ticks": 21048,
          "time": 130.24743575000002,
          "velocity": 0.09448818897637795
        },
        {
          "duration": 0.14851475000000391,
          "durationTicks": 24,
          "midi": 48,
          "name": "C3",
          "ticks": 21144,
          "time": 130.84149475,
          "velocity": 1
        },
        {
          "duration": 0.14851475000000391,
          "durationTicks": 24,
          "midi": 43,
          "name": "G2",
          "ticks": 21168,
          "time": 130.9900095,
          "velocity": 0.047244094488188976
        },
        {
          "duration": 0.29702950000000783,
          "durationTicks": 48,
          "midi": 46,
          "name": "A#2",
          "ticks": 21192,
          "time": 131.13852425000002,
          "velocity": 1
        },
        {
          "duration": 0.2970294999999794,
          "durationTicks": 48,
          "midi": 43,
          "name": "G2",
          "ticks": 21240,
          "time": 131.43555375000003,
          "velocity": 1
        },
        {
          "duration": 0.14851475000000391,
          "durationTicks": 24,
          "midi": 55,
          "name": "G3",
          "ticks": 21288,
          "time": 131.73258325,
          "velocity": 1
        },
        {
          "duration": 0.14851475000000391,
          "durationTicks": 24,
          "midi": 46,
          "name": "A#2",
          "ticks": 21312,
          "time": 131.881098,
          "velocity": 0.09448818897637795
        },
        {
          "duration": 0.14851475000000391,
          "durationTicks": 24,
          "midi": 58,
          "name": "A#3",
          "ticks": 21336,
          "time": 132.02961275,
          "velocity": 1
        },
        {
          "duration": 0.14851475000000391,
          "durationTicks": 24,
          "midi": 53,
          "name": "F3",
          "ticks": 21360,
          "time": 132.17812750000002,
          "velocity": 1
        },
        {
          "duration": 0.29702950000000783,
          "durationTicks": 48,
          "midi": 48,
          "name": "C3",
          "ticks": 21384,
          "time": 132.32664225000002,
          "velocity": 1
        },
        {
          "duration": 0.29702950000000783,
          "durationTicks": 48,
          "midi": 43,
          "name": "G2",
          "ticks": 21432,
          "time": 132.62367175000003,
          "velocity": 1
        },
        {
          "duration": 0.1485147499999755,
          "durationTicks": 24,
          "midi": 46,
          "name": "A#2",
          "ticks": 21480,
          "time": 132.92070125000004,
          "velocity": 1
        },
        {
          "duration": 0.14851475000000391,
          "durationTicks": 24,
          "midi": 48,
          "name": "C3",
          "ticks": 21504,
          "time": 133.069216,
          "velocity": 1
        },
        {
          "duration": 0.14851475000000391,
          "durationTicks": 24,
          "midi": 43,
          "name": "G2",
          "ticks": 21528,
          "time": 133.21773075000002,
          "velocity": 0.09448818897637795
        },
        {
          "duration": 0.29702950000000783,
          "durationTicks": 48,
          "midi": 43,
          "name": "G2",
          "ticks": 21552,
          "time": 133.36624550000002,
          "velocity": 1
        },
        {
          "duration": 0.2970294999999794,
          "durationTicks": 48,
          "midi": 55,
          "name": "G3",
          "ticks": 21600,
          "time": 133.66327500000003,
          "velocity": 1
        },
        {
          "duration": 0.29702950000000783,
          "durationTicks": 48,
          "midi": 43,
          "name": "G2",
          "ticks": 21648,
          "time": 133.9603045,
          "velocity": 1
        },
        {
          "duration": 0.14851475000000391,
          "durationTicks": 24,
          "midi": 46,
          "name": "A#2",
          "ticks": 21696,
          "time": 134.25733400000001,
          "velocity": 1
        },
        {
          "duration": 0.29702950000000783,
          "durationTicks": 48,
          "midi": 48,
          "name": "C3",
          "ticks": 21720,
          "time": 134.40584875000002,
          "velocity": 1
        },
        {
          "duration": 0.29702950000000783,
          "durationTicks": 48,
          "midi": 43,
          "name": "G2",
          "ticks": 21768,
          "time": 134.70287825000003,
          "velocity": 0.09448818897637795
        },
        {
          "duration": 0.29702950000000783,
          "durationTicks": 48,
          "midi": 48,
          "name": "C3",
          "ticks": 21864,
          "time": 135.29693725,
          "velocity": 1
        },
        {
          "duration": 0.29702950000000783,
          "durationTicks": 48,
          "midi": 46,
          "name": "A#2",
          "ticks": 21912,
          "time": 135.59396675000002,
          "velocity": 1
        },
        {
          "duration": 0.2970294999999794,
          "durationTicks": 48,
          "midi": 43,
          "name": "G2",
          "ticks": 21960,
          "time": 135.89099625000003,
          "velocity": 1
        },
        {
          "duration": 0.14851475000000391,
          "durationTicks": 24,
          "midi": 55,
          "name": "G3",
          "ticks": 22008,
          "time": 136.18802575,
          "velocity": 1
        },
        {
          "duration": 0.14851475000000391,
          "durationTicks": 24,
          "midi": 46,
          "name": "A#2",
          "ticks": 22032,
          "time": 136.3365405,
          "velocity": 0.09448818897637795
        },
        {
          "duration": 0.14851475000000391,
          "durationTicks": 24,
          "midi": 58,
          "name": "A#3",
          "ticks": 22056,
          "time": 136.48505525000002,
          "velocity": 1
        },
        {
          "duration": 0.14851475000000391,
          "durationTicks": 24,
          "midi": 53,
          "name": "F3",
          "ticks": 22080,
          "time": 136.63357000000002,
          "velocity": 1
        },
        {
          "duration": 0.14851475000000391,
          "durationTicks": 24,
          "midi": 48,
          "name": "C3",
          "ticks": 22104,
          "time": 136.78208475000002,
          "velocity": 1
        },
        {
          "duration": 0.14851475000000391,
          "durationTicks": 24,
          "midi": 58,
          "name": "A#3",
          "ticks": 22128,
          "time": 136.93059950000003,
          "velocity": 0.09448818897637795
        },
        {
          "duration": 0.2970294999999794,
          "durationTicks": 48,
          "midi": 43,
          "name": "G2",
          "ticks": 22152,
          "time": 137.07911425000003,
          "velocity": 1
        },
        {
          "duration": 0.14851475000000391,
          "durationTicks": 24,
          "midi": 46,
          "name": "A#2",
          "ticks": 22200,
          "time": 137.37614375,
          "velocity": 1
        },
        {
          "duration": 0.14851475000000391,
          "durationTicks": 24,
          "midi": 48,
          "name": "C3",
          "ticks": 22224,
          "time": 137.52465850000002,
          "velocity": 1
        },
        {
          "duration": 0.14851475000000391,
          "durationTicks": 24,
          "midi": 43,
          "name": "G2",
          "ticks": 22248,
          "time": 137.67317325000002,
          "velocity": 0.09448818897637795
        },
        {
          "duration": 0.2970294999999794,
          "durationTicks": 48,
          "midi": 43,
          "name": "G2",
          "ticks": 22272,
          "time": 137.82168800000002,
          "velocity": 1
        },
        {
          "duration": 0.29702950000000783,
          "durationTicks": 48,
          "midi": 55,
          "name": "G3",
          "ticks": 22320,
          "time": 138.1187175,
          "velocity": 1
        },
        {
          "duration": 0.29702950000000783,
          "durationTicks": 48,
          "midi": 43,
          "name": "G2",
          "ticks": 22368,
          "time": 138.415747,
          "velocity": 1
        },
        {
          "duration": 0.14851475000000391,
          "durationTicks": 24,
          "midi": 43,
          "name": "G2",
          "ticks": 22416,
          "time": 138.71277650000002,
          "velocity": 1
        },
        {
          "duration": 0.29702950000000783,
          "durationTicks": 48,
          "midi": 46,
          "name": "A#2",
          "ticks": 22440,
          "time": 138.86129125000002,
          "velocity": 1
        },
        {
          "duration": 0.2970294999999794,
          "durationTicks": 48,
          "midi": 43,
          "name": "G2",
          "ticks": 22488,
          "time": 139.15832075000003,
          "velocity": 0.09448818897637795
        },
        {
          "duration": 0.14851475000000391,
          "durationTicks": 24,
          "midi": 48,
          "name": "C3",
          "ticks": 22584,
          "time": 139.75237975000002,
          "velocity": 1
        },
        {
          "duration": 0.14851475000000391,
          "durationTicks": 24,
          "midi": 43,
          "name": "G2",
          "ticks": 22608,
          "time": 139.90089450000002,
          "velocity": 0.047244094488188976
        },
        {
          "duration": 0.2970294999999794,
          "durationTicks": 48,
          "midi": 46,
          "name": "A#2",
          "ticks": 22632,
          "time": 140.04940925000002,
          "velocity": 1
        },
        {
          "duration": 0.29702950000000783,
          "durationTicks": 48,
          "midi": 43,
          "name": "G2",
          "ticks": 22680,
          "time": 140.34643875,
          "velocity": 1
        },
        {
          "duration": 0.14851475000000391,
          "durationTicks": 24,
          "midi": 55,
          "name": "G3",
          "ticks": 22728,
          "time": 140.64346825,
          "velocity": 1
        },
        {
          "duration": 0.14851475000000391,
          "durationTicks": 24,
          "midi": 46,
          "name": "A#2",
          "ticks": 22752,
          "time": 140.79198300000002,
          "velocity": 0.09448818897637795
        },
        {
          "duration": 0.14851475000000391,
          "durationTicks": 24,
          "midi": 58,
          "name": "A#3",
          "ticks": 22776,
          "time": 140.94049775000002,
          "velocity": 1
        },
        {
          "duration": 0.14851475000000391,
          "durationTicks": 24,
          "midi": 53,
          "name": "F3",
          "ticks": 22800,
          "time": 141.08901250000002,
          "velocity": 1
        },
        {
          "duration": 0.29702950000000783,
          "durationTicks": 48,
          "midi": 48,
          "name": "C3",
          "ticks": 22824,
          "time": 141.23752725000003,
          "velocity": 1
        },
        {
          "duration": 0.2970294999999794,
          "durationTicks": 48,
          "midi": 43,
          "name": "G2",
          "ticks": 22872,
          "time": 141.53455675000004,
          "velocity": 1
        },
        {
          "duration": 0.14851475000000391,
          "durationTicks": 24,
          "midi": 46,
          "name": "A#2",
          "ticks": 22920,
          "time": 141.83158625000002,
          "velocity": 1
        },
        {
          "duration": 0.14851475000000391,
          "durationTicks": 24,
          "midi": 48,
          "name": "C3",
          "ticks": 22944,
          "time": 141.98010100000002,
          "velocity": 1
        },
        {
          "duration": 0.14851475000000391,
          "durationTicks": 24,
          "midi": 43,
          "name": "G2",
          "ticks": 22968,
          "time": 142.12861575000002,
          "velocity": 0.09448818897637795
        },
        {
          "duration": 0.3155938437500083,
          "durationTicks": 51,
          "midi": 43,
          "name": "G2",
          "ticks": 22992,
          "time": 142.27713050000003,
          "velocity": 1
        },
        {
          "duration": 0.2784651562499789,
          "durationTicks": 45,
          "midi": 55,
          "name": "G3",
          "ticks": 23043,
          "time": 142.59272434375004,
          "velocity": 1
        },
        {
          "duration": 0.29702950000000783,
          "durationTicks": 48,
          "midi": 43,
          "name": "G2",
          "ticks": 23088,
          "time": 142.8711895,
          "velocity": 1
        },
        {
          "duration": 0.14851475000000391,
          "durationTicks": 24,
          "midi": 46,
          "name": "A#2",
          "ticks": 23136,
          "time": 143.16821900000002,
          "velocity": 1
        },
        {
          "duration": 0.29702950000000783,
          "durationTicks": 48,
          "midi": 48,
          "name": "C3",
          "ticks": 23160,
          "time": 143.31673375000003,
          "velocity": 1
        },
        {
          "duration": 0.2970294999999794,
          "durationTicks": 48,
          "midi": 43,
          "name": "G2",
          "ticks": 23208,
          "time": 143.61376325000003,
          "velocity": 0.09448818897637795
        },
        {
          "duration": 0.29702950000000783,
          "durationTicks": 48,
          "midi": 48,
          "name": "C3",
          "ticks": 23304,
          "time": 144.20782225000002,
          "velocity": 1
        },
        {
          "duration": 0.2970294999999794,
          "durationTicks": 48,
          "midi": 46,
          "name": "A#2",
          "ticks": 23352,
          "time": 144.50485175000003,
          "velocity": 1
        },
        {
          "duration": 0.29702950000000783,
          "durationTicks": 48,
          "midi": 43,
          "name": "G2",
          "ticks": 23400,
          "time": 144.80188125,
          "velocity": 1
        },
        {
          "duration": 0.14851475000000391,
          "durationTicks": 24,
          "midi": 55,
          "name": "G3",
          "ticks": 23448,
          "time": 145.09891075000002,
          "velocity": 1
        },
        {
          "duration": 0.14851475000000391,
          "durationTicks": 24,
          "midi": 46,
          "name": "A#2",
          "ticks": 23472,
          "time": 145.24742550000002,
          "velocity": 0.09448818897637795
        },
        {
          "duration": 0.14851475000000391,
          "durationTicks": 24,
          "midi": 58,
          "name": "A#3",
          "ticks": 23496,
          "time": 145.39594025000002,
          "velocity": 1
        },
        {
          "duration": 0.14851475000000391,
          "durationTicks": 24,
          "midi": 53,
          "name": "F3",
          "ticks": 23520,
          "time": 145.54445500000003,
          "velocity": 1
        },
        {
          "duration": 0.14851475000000391,
          "durationTicks": 24,
          "midi": 48,
          "name": "C3",
          "ticks": 23544,
          "time": 145.69296975000003,
          "velocity": 1
        },
        {
          "duration": 0.1485147499999755,
          "durationTicks": 24,
          "midi": 58,
          "name": "A#3",
          "ticks": 23568,
          "time": 145.84148450000004,
          "velocity": 0.09448818897637795
        },
        {
          "duration": 0.29702950000000783,
          "durationTicks": 48,
          "midi": 43,
          "name": "G2",
          "ticks": 23592,
          "time": 145.98999925,
          "velocity": 1
        },
        {
          "duration": 0.14851475000000391,
          "durationTicks": 24,
          "midi": 46,
          "name": "A#2",
          "ticks": 23640,
          "time": 146.28702875000002,
          "velocity": 1
        },
        {
          "duration": 0.14851475000000391,
          "durationTicks": 24,
          "midi": 48,
          "name": "C3",
          "ticks": 23664,
          "time": 146.43554350000002,
          "velocity": 1
        },
        {
          "duration": 0.1485147499999755,
          "durationTicks": 24,
          "midi": 43,
          "name": "G2",
          "ticks": 23688,
          "time": 146.58405825000003,
          "velocity": 0.09448818897637795
        },
        {
          "duration": 0.29702950000000783,
          "durationTicks": 48,
          "midi": 43,
          "name": "G2",
          "ticks": 23712,
          "time": 146.732573,
          "velocity": 1
        },
        {
          "duration": 0.29702950000000783,
          "durationTicks": 48,
          "midi": 55,
          "name": "G3",
          "ticks": 23760,
          "time": 147.0296025,
          "velocity": 1
        },
        {
          "duration": 0.29702950000000783,
          "durationTicks": 48,
          "midi": 43,
          "name": "G2",
          "ticks": 23808,
          "time": 147.32663200000002,
          "velocity": 1
        },
        {
          "duration": 0.14851475000000391,
          "durationTicks": 24,
          "midi": 43,
          "name": "G2",
          "ticks": 23856,
          "time": 147.62366150000003,
          "velocity": 1
        },
        {
          "duration": 0.2970294999999794,
          "durationTicks": 48,
          "midi": 46,
          "name": "A#2",
          "ticks": 23880,
          "time": 147.77217625000003,
          "velocity": 1
        },
        {
          "duration": 0.29702950000000783,
          "durationTicks": 48,
          "midi": 43,
          "name": "G2",
          "ticks": 23928,
          "time": 148.06920575,
          "velocity": 0.09448818897637795
        },
        {
          "duration": 0.14851475000000391,
          "durationTicks": 24,
          "midi": 48,
          "name": "C3",
          "ticks": 24024,
          "time": 148.66326475000002,
          "velocity": 1
        },
        {
          "duration": 0.1485147499999755,
          "durationTicks": 24,
          "midi": 43,
          "name": "G2",
          "ticks": 24048,
          "time": 148.81177950000003,
          "velocity": 0.047244094488188976
        },
        {
          "duration": 0.29702950000000783,
          "durationTicks": 48,
          "midi": 46,
          "name": "A#2",
          "ticks": 24072,
          "time": 148.96029425,
          "velocity": 1
        },
        {
          "duration": 0.29702950000000783,
          "durationTicks": 48,
          "midi": 43,
          "name": "G2",
          "ticks": 24120,
          "time": 149.25732375,
          "velocity": 1
        },
        {
          "duration": 0.14851475000000391,
          "durationTicks": 24,
          "midi": 55,
          "name": "G3",
          "ticks": 24168,
          "time": 149.55435325000002,
          "velocity": 1
        },
        {
          "duration": 0.14851475000000391,
          "durationTicks": 24,
          "midi": 46,
          "name": "A#2",
          "ticks": 24192,
          "time": 149.70286800000002,
          "velocity": 0.09448818897637795
        },
        {
          "duration": 0.14851475000000391,
          "durationTicks": 24,
          "midi": 58,
          "name": "A#3",
          "ticks": 24216,
          "time": 149.85138275000003,
          "velocity": 1
        },
        {
          "duration": 0.14851475000000391,
          "durationTicks": 24,
          "midi": 53,
          "name": "F3",
          "ticks": 24240,
          "time": 149.99989750000003,
          "velocity": 1
        },
        {
          "duration": 0.2970294999999794,
          "durationTicks": 48,
          "midi": 48,
          "name": "C3",
          "ticks": 24264,
          "time": 150.14841225000004,
          "velocity": 1
        },
        {
          "duration": 0.29702950000000783,
          "durationTicks": 48,
          "midi": 43,
          "name": "G2",
          "ticks": 24312,
          "time": 150.44544175000001,
          "velocity": 1
        },
        {
          "duration": 0.14851475000000391,
          "durationTicks": 24,
          "midi": 46,
          "name": "A#2",
          "ticks": 24360,
          "time": 150.74247125000002,
          "velocity": 1
        },
        {
          "duration": 0.2537126979166544,
          "durationTicks": 41,
          "midi": 48,
          "name": "C3",
          "ticks": 24384,
          "time": 150.89098600000003,
          "velocity": 1
        },
        {
          "duration": 0.043316802083325,
          "durationTicks": 7,
          "midi": 43,
          "name": "G2",
          "ticks": 24425,
          "time": 151.14469869791668,
          "velocity": 0.09448818897637795
        },
        {
          "duration": 0.29702950000000783,
          "durationTicks": 48,
          "midi": 43,
          "name": "G2",
          "ticks": 24432,
          "time": 151.1880155,
          "velocity": 1
        },
        {
          "duration": 0.29702950000000783,
          "durationTicks": 48,
          "midi": 56,
          "name": "G#3",
          "ticks": 24480,
          "time": 151.485045,
          "velocity": 1
        },
        {
          "duration": 0.29702950000000783,
          "durationTicks": 48,
          "midi": 44,
          "name": "G#2",
          "ticks": 24528,
          "time": 151.78207450000002,
          "velocity": 1
        },
        {
          "duration": 0.14851475000000391,
          "durationTicks": 24,
          "midi": 47,
          "name": "B2",
          "ticks": 24576,
          "time": 152.07910400000003,
          "velocity": 1
        },
        {
          "duration": 0.2970294999999794,
          "durationTicks": 48,
          "midi": 49,
          "name": "C#3",
          "ticks": 24600,
          "time": 152.22761875000003,
          "velocity": 1
        },
        {
          "duration": 0.29702950000000783,
          "durationTicks": 48,
          "midi": 44,
          "name": "G#2",
          "ticks": 24648,
          "time": 152.52464825,
          "velocity": 0.09448818897637795
        },
        {
          "duration": 0.29702950000000783,
          "durationTicks": 48,
          "midi": 49,
          "name": "C#3",
          "ticks": 24744,
          "time": 153.11870725,
          "velocity": 1
        },
        {
          "duration": 0.29702950000000783,
          "durationTicks": 48,
          "midi": 47,
          "name": "B2",
          "ticks": 24792,
          "time": 153.41573675,
          "velocity": 1
        },
        {
          "duration": 0.29702950000000783,
          "durationTicks": 48,
          "midi": 44,
          "name": "G#2",
          "ticks": 24840,
          "time": 153.71276625000002,
          "velocity": 1
        },
        {
          "duration": 0.14851475000000391,
          "durationTicks": 24,
          "midi": 56,
          "name": "G#3",
          "ticks": 24888,
          "time": 154.00979575000002,
          "velocity": 1
        },
        {
          "duration": 0.14851475000000391,
          "durationTicks": 24,
          "midi": 47,
          "name": "B2",
          "ticks": 24912,
          "time": 154.15831050000003,
          "velocity": 0.09448818897637795
        },
        {
          "duration": 0.14851475000000391,
          "durationTicks": 24,
          "midi": 59,
          "name": "B3",
          "ticks": 24936,
          "time": 154.30682525000003,
          "velocity": 1
        },
        {
          "duration": 0.14851475000000391,
          "durationTicks": 24,
          "midi": 54,
          "name": "F#3",
          "ticks": 24960,
          "time": 154.45534000000004,
          "velocity": 1
        },
        {
          "duration": 0.1485147499999755,
          "durationTicks": 24,
          "midi": 49,
          "name": "C#3",
          "ticks": 24984,
          "time": 154.60385475000004,
          "velocity": 1
        },
        {
          "duration": 0.14851475000000391,
          "durationTicks": 24,
          "midi": 59,
          "name": "B3",
          "ticks": 25008,
          "time": 154.75236950000001,
          "velocity": 0.09448818897637795
        },
        {
          "duration": 0.2970294999999794,
          "durationTicks": 48,
          "midi": 44,
          "name": "G#2",
          "ticks": 25032,
          "time": 154.90088425000002,
          "velocity": 1
        },
        {
          "duration": 0.14851475000000391,
          "durationTicks": 24,
          "midi": 47,
          "name": "B2",
          "ticks": 25080,
          "time": 155.19791375,
          "velocity": 1
        },
        {
          "duration": 0.14851475000000391,
          "durationTicks": 24,
          "midi": 49,
          "name": "C#3",
          "ticks": 25104,
          "time": 155.3464285,
          "velocity": 1
        },
        {
          "duration": 0.14851475000000391,
          "durationTicks": 24,
          "midi": 44,
          "name": "G#2",
          "ticks": 25128,
          "time": 155.49494325,
          "velocity": 0.09448818897637795
        },
        {
          "duration": 0.29702950000000783,
          "durationTicks": 48,
          "midi": 44,
          "name": "G#2",
          "ticks": 25152,
          "time": 155.643458,
          "velocity": 1
        },
        {
          "duration": 0.29702950000000783,
          "durationTicks": 48,
          "midi": 56,
          "name": "G#3",
          "ticks": 25200,
          "time": 155.94048750000002,
          "velocity": 1
        },
        {
          "duration": 0.29702950000000783,
          "durationTicks": 48,
          "midi": 44,
          "name": "G#2",
          "ticks": 25248,
          "time": 156.23751700000003,
          "velocity": 1
        },
        {
          "duration": 0.14851475000000391,
          "durationTicks": 24,
          "midi": 44,
          "name": "G#2",
          "ticks": 25296,
          "time": 156.53454650000003,
          "velocity": 1
        },
        {
          "duration": 0.2970294999999794,
          "durationTicks": 48,
          "midi": 47,
          "name": "B2",
          "ticks": 25320,
          "time": 156.68306125000004,
          "velocity": 1
        },
        {
          "duration": 0.29702950000000783,
          "durationTicks": 48,
          "midi": 44,
          "name": "G#2",
          "ticks": 25368,
          "time": 156.98009075000002,
          "velocity": 0.09448818897637795
        },
        {
          "duration": 0.14851475000000391,
          "durationTicks": 24,
          "midi": 49,
          "name": "C#3",
          "ticks": 25464,
          "time": 157.57414975,
          "velocity": 1
        },
        {
          "duration": 0.14851475000000391,
          "durationTicks": 24,
          "midi": 44,
          "name": "G#2",
          "ticks": 25488,
          "time": 157.7226645,
          "velocity": 0.047244094488188976
        },
        {
          "duration": 0.29702950000000783,
          "durationTicks": 48,
          "midi": 47,
          "name": "B2",
          "ticks": 25512,
          "time": 157.87117925,
          "velocity": 1
        },
        {
          "duration": 0.29702950000000783,
          "durationTicks": 48,
          "midi": 44,
          "name": "G#2",
          "ticks": 25560,
          "time": 158.16820875000002,
          "velocity": 1
        },
        {
          "duration": 0.14851475000000391,
          "durationTicks": 24,
          "midi": 56,
          "name": "G#3",
          "ticks": 25608,
          "time": 158.46523825000003,
          "velocity": 1
        },
        {
          "duration": 0.14851475000000391,
          "durationTicks": 24,
          "midi": 47,
          "name": "B2",
          "ticks": 25632,
          "time": 158.61375300000003,
          "velocity": 0.09448818897637795
        },
        {
          "duration": 0.14851475000000391,
          "durationTicks": 24,
          "midi": 59,
          "name": "B3",
          "ticks": 25656,
          "time": 158.76226775000003,
          "velocity": 1
        },
        {
          "duration": 0.1485147499999755,
          "durationTicks": 24,
          "midi": 54,
          "name": "F#3",
          "ticks": 25680,
          "time": 158.91078250000004,
          "velocity": 1
        },
        {
          "duration": 0.29702950000000783,
          "durationTicks": 48,
          "midi": 49,
          "name": "C#3",
          "ticks": 25704,
          "time": 159.05929725000001,
          "velocity": 1
        },
        {
          "duration": 0.2970294999999794,
          "durationTicks": 48,
          "midi": 44,
          "name": "G#2",
          "ticks": 25752,
          "time": 159.35632675000002,
          "velocity": 1
        },
        {
          "duration": 0.14851475000000391,
          "durationTicks": 24,
          "midi": 47,
          "name": "B2",
          "ticks": 25800,
          "time": 159.65335625,
          "velocity": 1
        },
        {
          "duration": 0.14851475000000391,
          "durationTicks": 24,
          "midi": 49,
          "name": "C#3",
          "ticks": 25824,
          "time": 159.801871,
          "velocity": 1
        },
        {
          "duration": 0.14851475000000391,
          "durationTicks": 24,
          "midi": 44,
          "name": "G#2",
          "ticks": 25848,
          "time": 159.95038575,
          "velocity": 0.09448818897637795
        },
        {
          "duration": 0.29702950000000783,
          "durationTicks": 48,
          "midi": 44,
          "name": "G#2",
          "ticks": 25872,
          "time": 160.0989005,
          "velocity": 1
        },
        {
          "duration": 0.29702950000000783,
          "durationTicks": 48,
          "midi": 56,
          "name": "G#3",
          "ticks": 25920,
          "time": 160.39593000000002,
          "velocity": 1
        },
        {
          "duration": 0.29702950000000783,
          "durationTicks": 48,
          "midi": 44,
          "name": "G#2",
          "ticks": 25968,
          "time": 160.69295950000003,
          "velocity": 1
        },
        {
          "duration": 0.1485147499999755,
          "durationTicks": 24,
          "midi": 47,
          "name": "B2",
          "ticks": 26016,
          "time": 160.98998900000004,
          "velocity": 1
        },
        {
          "duration": 0.29702950000000783,
          "durationTicks": 48,
          "midi": 49,
          "name": "C#3",
          "ticks": 26040,
          "time": 161.13850375,
          "velocity": 1
        },
        {
          "duration": 0.2970294999999794,
          "durationTicks": 48,
          "midi": 44,
          "name": "G#2",
          "ticks": 26088,
          "time": 161.43553325000002,
          "velocity": 0.09448818897637795
        },
        {
          "duration": 0.29702950000000783,
          "durationTicks": 48,
          "midi": 49,
          "name": "C#3",
          "ticks": 26184,
          "time": 162.02959225,
          "velocity": 1
        },
        {
          "duration": 0.29702950000000783,
          "durationTicks": 48,
          "midi": 47,
          "name": "B2",
          "ticks": 26232,
          "time": 162.32662175000002,
          "velocity": 1
        },
        {
          "duration": 0.29702950000000783,
          "durationTicks": 48,
          "midi": 44,
          "name": "G#2",
          "ticks": 26280,
          "time": 162.62365125000002,
          "velocity": 1
        },
        {
          "duration": 0.14851475000000391,
          "durationTicks": 24,
          "midi": 56,
          "name": "G#3",
          "ticks": 26328,
          "time": 162.92068075000003,
          "velocity": 1
        },
        {
          "duration": 0.14851475000000391,
          "durationTicks": 24,
          "midi": 47,
          "name": "B2",
          "ticks": 26352,
          "time": 163.06919550000003,
          "velocity": 0.09448818897637795
        },
        {
          "duration": 0.1485147499999755,
          "durationTicks": 24,
          "midi": 59,
          "name": "B3",
          "ticks": 26376,
          "time": 163.21771025000004,
          "velocity": 1
        },
        {
          "duration": 0.14851475000000391,
          "durationTicks": 24,
          "midi": 54,
          "name": "F#3",
          "ticks": 26400,
          "time": 163.36622500000001,
          "velocity": 1
        },
        {
          "duration": 0.14851475000000391,
          "durationTicks": 24,
          "midi": 49,
          "name": "C#3",
          "ticks": 26424,
          "time": 163.51473975000002,
          "velocity": 1
        },
        {
          "duration": 0.1485147499999755,
          "durationTicks": 24,
          "midi": 59,
          "name": "B3",
          "ticks": 26448,
          "time": 163.66325450000002,
          "velocity": 0.09448818897637795
        },
        {
          "duration": 0.29702950000000783,
          "durationTicks": 48,
          "midi": 44,
          "name": "G#2",
          "ticks": 26472,
          "time": 163.81176925,
          "velocity": 1
        },
        {
          "duration": 0.14851475000000391,
          "durationTicks": 24,
          "midi": 47,
          "name": "B2",
          "ticks": 26520,
          "time": 164.10879875,
          "velocity": 1
        },
        {
          "duration": 0.14851475000000391,
          "durationTicks": 24,
          "midi": 49,
          "name": "C#3",
          "ticks": 26544,
          "time": 164.2573135,
          "velocity": 1
        },
        {
          "duration": 0.14851475000000391,
          "durationTicks": 24,
          "midi": 44,
          "name": "G#2",
          "ticks": 26568,
          "time": 164.40582825,
          "velocity": 0.09448818897637795
        },
        {
          "duration": 0.29702950000000783,
          "durationTicks": 48,
          "midi": 44,
          "name": "G#2",
          "ticks": 26592,
          "time": 164.55434300000002,
          "velocity": 1
        },
        {
          "duration": 0.29702950000000783,
          "durationTicks": 48,
          "midi": 56,
          "name": "G#3",
          "ticks": 26640,
          "time": 164.85137250000002,
          "velocity": 1
        },
        {
          "duration": 0.2970294999999794,
          "durationTicks": 48,
          "midi": 44,
          "name": "G#2",
          "ticks": 26688,
          "time": 165.14840200000003,
          "velocity": 1
        },
        {
          "duration": 0.14851475000000391,
          "durationTicks": 24,
          "midi": 44,
          "name": "G#2",
          "ticks": 26736,
          "time": 165.4454315,
          "velocity": 1
        },
        {
          "duration": 0.29702950000000783,
          "durationTicks": 48,
          "midi": 47,
          "name": "B2",
          "ticks": 26760,
          "time": 165.59394625000002,
          "velocity": 1
        },
        {
          "duration": 0.2970294999999794,
          "durationTicks": 48,
          "midi": 44,
          "name": "G#2",
          "ticks": 26808,
          "time": 165.89097575000002,
          "velocity": 0.09448818897637795
        },
        {
          "duration": 0.14851475000000391,
          "durationTicks": 24,
          "midi": 49,
          "name": "C#3",
          "ticks": 26904,
          "time": 166.48503475,
          "velocity": 1
        },
        {
          "duration": 0.14851475000000391,
          "durationTicks": 24,
          "midi": 44,
          "name": "G#2",
          "ticks": 26928,
          "time": 166.63354950000002,
          "velocity": 0.047244094488188976
        },
        {
          "duration": 0.29702950000000783,
          "durationTicks": 48,
          "midi": 47,
          "name": "B2",
          "ticks": 26952,
          "time": 166.78206425000002,
          "velocity": 1
        },
        {
          "duration": 0.29702950000000783,
          "durationTicks": 48,
          "midi": 44,
          "name": "G#2",
          "ticks": 27000,
          "time": 167.07909375000003,
          "velocity": 1
        },
        {
          "duration": 0.14851475000000391,
          "durationTicks": 24,
          "midi": 56,
          "name": "G#3",
          "ticks": 27048,
          "time": 167.37612325000003,
          "velocity": 1
        },
        {
          "duration": 0.1485147499999755,
          "durationTicks": 24,
          "midi": 47,
          "name": "B2",
          "ticks": 27072,
          "time": 167.52463800000004,
          "velocity": 0.09448818897637795
        },
        {
          "duration": 0.14851475000000391,
          "durationTicks": 24,
          "midi": 59,
          "name": "B3",
          "ticks": 27096,
          "time": 167.67315275,
          "velocity": 1
        },
        {
          "duration": 0.14851475000000391,
          "durationTicks": 24,
          "midi": 54,
          "name": "F#3",
          "ticks": 27120,
          "time": 167.82166750000002,
          "velocity": 1
        },
        {
          "duration": 0.2970294999999794,
          "durationTicks": 48,
          "midi": 49,
          "name": "C#3",
          "ticks": 27144,
          "time": 167.97018225000002,
          "velocity": 1
        },
        {
          "duration": 0.29702950000000783,
          "durationTicks": 48,
          "midi": 44,
          "name": "G#2",
          "ticks": 27192,
          "time": 168.26721175,
          "velocity": 1
        },
        {
          "duration": 0.14851475000000391,
          "durationTicks": 24,
          "midi": 47,
          "name": "B2",
          "ticks": 27240,
          "time": 168.56424125,
          "velocity": 1
        },
        {
          "duration": 0.14851475000000391,
          "durationTicks": 24,
          "midi": 49,
          "name": "C#3",
          "ticks": 27264,
          "time": 168.712756,
          "velocity": 1
        },
        {
          "duration": 0.14851475000000391,
          "durationTicks": 24,
          "midi": 44,
          "name": "G#2",
          "ticks": 27288,
          "time": 168.86127075000002,
          "velocity": 0.09448818897637795
        },
        {
          "duration": 0.29702950000000783,
          "durationTicks": 48,
          "midi": 44,
          "name": "G#2",
          "ticks": 27312,
          "time": 169.00978550000002,
          "velocity": 1
        },
        {
          "duration": 0.29702950000000783,
          "durationTicks": 48,
          "midi": 56,
          "name": "G#3",
          "ticks": 27360,
          "time": 169.30681500000003,
          "velocity": 1
        },
        {
          "duration": 0.2970294999999794,
          "durationTicks": 48,
          "midi": 44,
          "name": "G#2",
          "ticks": 27408,
          "time": 169.60384450000004,
          "velocity": 1
        },
        {
          "duration": 0.14851475000000391,
          "durationTicks": 24,
          "midi": 47,
          "name": "B2",
          "ticks": 27456,
          "time": 169.90087400000002,
          "velocity": 1
        },
        {
          "duration": 0.2970294999999794,
          "durationTicks": 48,
          "midi": 49,
          "name": "C#3",
          "ticks": 27480,
          "time": 170.04938875000002,
          "velocity": 1
        },
        {
          "duration": 0.29702950000000783,
          "durationTicks": 48,
          "midi": 44,
          "name": "G#2",
          "ticks": 27528,
          "time": 170.34641825,
          "velocity": 0.09448818897637795
        },
        {
          "duration": 0.29702950000000783,
          "durationTicks": 48,
          "midi": 49,
          "name": "C#3",
          "ticks": 27624,
          "time": 170.94047725000001,
          "velocity": 1
        },
        {
          "duration": 0.29702950000000783,
          "durationTicks": 48,
          "midi": 47,
          "name": "B2",
          "ticks": 27672,
          "time": 171.23750675000002,
          "velocity": 1
        },
        {
          "duration": 0.29702950000000783,
          "durationTicks": 48,
          "midi": 44,
          "name": "G#2",
          "ticks": 27720,
          "time": 171.53453625000003,
          "velocity": 1
        },
        {
          "duration": 0.1485147499999755,
          "durationTicks": 24,
          "midi": 56,
          "name": "G#3",
          "ticks": 27768,
          "time": 171.83156575000004,
          "velocity": 1
        },
        {
          "duration": 0.14851475000000391,
          "durationTicks": 24,
          "midi": 47,
          "name": "B2",
          "ticks": 27792,
          "time": 171.9800805,
          "velocity": 0.09448818897637795
        },
        {
          "duration": 0.14851475000000391,
          "durationTicks": 24,
          "midi": 59,
          "name": "B3",
          "ticks": 27816,
          "time": 172.12859525000002,
          "velocity": 1
        },
        {
          "duration": 0.14851475000000391,
          "durationTicks": 24,
          "midi": 54,
          "name": "F#3",
          "ticks": 27840,
          "time": 172.27711000000002,
          "velocity": 1
        },
        {
          "duration": 0.1485147499999755,
          "durationTicks": 24,
          "midi": 49,
          "name": "C#3",
          "ticks": 27864,
          "time": 172.42562475000003,
          "velocity": 1
        },
        {
          "duration": 0.14851475000000391,
          "durationTicks": 24,
          "midi": 59,
          "name": "B3",
          "ticks": 27888,
          "time": 172.5741395,
          "velocity": 0.09448818897637795
        },
        {
          "duration": 0.29702950000000783,
          "durationTicks": 48,
          "midi": 44,
          "name": "G#2",
          "ticks": 27912,
          "time": 172.72265425,
          "velocity": 1
        },
        {
          "duration": 0.14851475000000391,
          "durationTicks": 24,
          "midi": 47,
          "name": "B2",
          "ticks": 27960,
          "time": 173.01968375,
          "velocity": 1
        },
        {
          "duration": 0.14851475000000391,
          "durationTicks": 24,
          "midi": 49,
          "name": "C#3",
          "ticks": 27984,
          "time": 173.16819850000002,
          "velocity": 1
        },
        {
          "duration": 0.14851475000000391,
          "durationTicks": 24,
          "midi": 44,
          "name": "G#2",
          "ticks": 28008,
          "time": 173.31671325000002,
          "velocity": 0.09448818897637795
        },
        {
          "duration": 0.29702950000000783,
          "durationTicks": 48,
          "midi": 44,
          "name": "G#2",
          "ticks": 28032,
          "time": 173.46522800000002,
          "velocity": 1
        },
        {
          "duration": 0.2970294999999794,
          "durationTicks": 48,
          "midi": 56,
          "name": "G#3",
          "ticks": 28080,
          "time": 173.76225750000003,
          "velocity": 1
        },
        {
          "duration": 0.29702950000000783,
          "durationTicks": 48,
          "midi": 44,
          "name": "G#2",
          "ticks": 28128,
          "time": 174.059287,
          "velocity": 1
        },
        {
          "duration": 0.14851475000000391,
          "durationTicks": 24,
          "midi": 44,
          "name": "G#2",
          "ticks": 28176,
          "time": 174.35631650000002,
          "velocity": 1
        },
        {
          "duration": 0.2970294999999794,
          "durationTicks": 48,
          "midi": 47,
          "name": "B2",
          "ticks": 28200,
          "time": 174.50483125000002,
          "velocity": 1
        },
        {
          "duration": 0.29702950000000783,
          "durationTicks": 48,
          "midi": 44,
          "name": "G#2",
          "ticks": 28248,
          "time": 174.80186075,
          "velocity": 0.09448818897637795
        },
        {
          "duration": 0.14851475000000391,
          "durationTicks": 24,
          "midi": 49,
          "name": "C#3",
          "ticks": 28344,
          "time": 175.39591975000002,
          "velocity": 1
        },
        {
          "duration": 0.14851475000000391,
          "durationTicks": 24,
          "midi": 44,
          "name": "G#2",
          "ticks": 28368,
          "time": 175.54443450000002,
          "velocity": 0.047244094488188976
        },
        {
          "duration": 0.29702950000000783,
          "durationTicks": 48,
          "midi": 47,
          "name": "B2",
          "ticks": 28392,
          "time": 175.69294925000003,
          "velocity": 1
        },
        {
          "duration": 0.2970294999999794,
          "durationTicks": 48,
          "midi": 44,
          "name": "G#2",
          "ticks": 28440,
          "time": 175.98997875000003,
          "velocity": 1
        },
        {
          "duration": 0.14851475000000391,
          "durationTicks": 24,
          "midi": 56,
          "name": "G#3",
          "ticks": 28488,
          "time": 176.28700825,
          "velocity": 1
        },
        {
          "duration": 0.14851475000000391,
          "durationTicks": 24,
          "midi": 47,
          "name": "B2",
          "ticks": 28512,
          "time": 176.43552300000002,
          "velocity": 0.09448818897637795
        },
        {
          "duration": 0.14851475000000391,
          "durationTicks": 24,
          "midi": 59,
          "name": "B3",
          "ticks": 28536,
          "time": 176.58403775000002,
          "velocity": 1
        },
        {
          "duration": 0.1485147499999755,
          "durationTicks": 24,
          "midi": 54,
          "name": "F#3",
          "ticks": 28560,
          "time": 176.73255250000003,
          "velocity": 1
        },
        {
          "duration": 0.29702950000000783,
          "durationTicks": 48,
          "midi": 49,
          "name": "C#3",
          "ticks": 28584,
          "time": 176.88106725,
          "velocity": 1
        },
        {
          "duration": 0.29702950000000783,
          "durationTicks": 48,
          "midi": 44,
          "name": "G#2",
          "ticks": 28632,
          "time": 177.17809675,
          "velocity": 1
        },
        {
          "duration": 0.14851475000000391,
          "durationTicks": 24,
          "midi": 47,
          "name": "B2",
          "ticks": 28680,
          "time": 177.47512625000002,
          "velocity": 1
        },
        {
          "duration": 0.14851475000000391,
          "durationTicks": 24,
          "midi": 49,
          "name": "C#3",
          "ticks": 28704,
          "time": 177.62364100000002,
          "velocity": 1
        },
        {
          "duration": 0.14851475000000391,
          "durationTicks": 24,
          "midi": 44,
          "name": "G#2",
          "ticks": 28728,
          "time": 177.77215575000002,
          "velocity": 0.09448818897637795
        },
        {
          "duration": 0.29702950000000783,
          "durationTicks": 48,
          "midi": 44,
          "name": "G#2",
          "ticks": 28752,
          "time": 177.92067050000003,
          "velocity": 1
        },
        {
          "duration": 0.2970294999999794,
          "durationTicks": 48,
          "midi": 56,
          "name": "G#3",
          "ticks": 28800,
          "time": 178.21770000000004,
          "velocity": 1
        },
        {
          "duration": 0.29702950000000783,
          "durationTicks": 48,
          "midi": 44,
          "name": "G#2",
          "ticks": 28848,
          "time": 178.51472950000002,
          "velocity": 1
        },
        {
          "duration": 0.1485147499999755,
          "durationTicks": 24,
          "midi": 47,
          "name": "B2",
          "ticks": 28896,
          "time": 178.81175900000002,
          "velocity": 1
        },
        {
          "duration": 0.29702950000000783,
          "durationTicks": 48,
          "midi": 49,
          "name": "C#3",
          "ticks": 28920,
          "time": 178.96027375,
          "velocity": 1
        },
        {
          "duration": 0.29702950000000783,
          "durationTicks": 48,
          "midi": 44,
          "name": "G#2",
          "ticks": 28968,
          "time": 179.25730325,
          "velocity": 0.09448818897637795
        },
        {
          "duration": 0.29702950000000783,
          "durationTicks": 48,
          "midi": 49,
          "name": "C#3",
          "ticks": 29064,
          "time": 179.85136225000002,
          "velocity": 1
        },
        {
          "duration": 0.29702950000000783,
          "durationTicks": 48,
          "midi": 47,
          "name": "B2",
          "ticks": 29112,
          "time": 180.14839175000003,
          "velocity": 1
        },
        {
          "duration": 0.2970294999999794,
          "durationTicks": 48,
          "midi": 44,
          "name": "G#2",
          "ticks": 29160,
          "time": 180.44542125000004,
          "velocity": 1
        },
        {
          "duration": 0.14851475000000391,
          "durationTicks": 24,
          "midi": 56,
          "name": "G#3",
          "ticks": 29208,
          "time": 180.74245075000002,
          "velocity": 1
        },
        {
          "duration": 0.14851475000000391,
          "durationTicks": 24,
          "midi": 47,
          "name": "B2",
          "ticks": 29232,
          "time": 180.89096550000002,
          "velocity": 0.09448818897637795
        },
        {
          "duration": 0.1485147499999755,
          "durationTicks": 24,
          "midi": 59,
          "name": "B3",
          "ticks": 29256,
          "time": 181.03948025000003,
          "velocity": 1
        },
        {
          "duration": 0.14851475000000391,
          "durationTicks": 24,
          "midi": 54,
          "name": "F#3",
          "ticks": 29280,
          "time": 181.187995,
          "velocity": 1
        },
        {
          "duration": 0.14851475000000391,
          "durationTicks": 24,
          "midi": 49,
          "name": "C#3",
          "ticks": 29304,
          "time": 181.33650975,
          "velocity": 1
        },
        {
          "duration": 0.14851475000000391,
          "durationTicks": 24,
          "midi": 59,
          "name": "B3",
          "ticks": 29328,
          "time": 181.4850245,
          "velocity": 0.09448818897637795
        },
        {
          "duration": 0.29702950000000783,
          "durationTicks": 48,
          "midi": 44,
          "name": "G#2",
          "ticks": 29352,
          "time": 181.63353925,
          "velocity": 1
        },
        {
          "duration": 0.14851475000000391,
          "durationTicks": 24,
          "midi": 47,
          "name": "B2",
          "ticks": 29400,
          "time": 181.93056875000002,
          "velocity": 1
        },
        {
          "duration": 0.14851475000000391,
          "durationTicks": 24,
          "midi": 49,
          "name": "C#3",
          "ticks": 29424,
          "time": 182.07908350000002,
          "velocity": 1
        },
        {
          "duration": 0.14851475000000391,
          "durationTicks": 24,
          "midi": 44,
          "name": "G#2",
          "ticks": 29448,
          "time": 182.22759825000003,
          "velocity": 0.09448818897637795
        },
        {
          "duration": 0.29702950000000783,
          "durationTicks": 48,
          "midi": 44,
          "name": "G#2",
          "ticks": 29472,
          "time": 182.37611300000003,
          "velocity": 1
        },
        {
          "duration": 0.2970294999999794,
          "durationTicks": 48,
          "midi": 37,
          "name": "C#2",
          "ticks": 29520,
          "time": 182.67314250000004,
          "velocity": 1
        },
        {
          "duration": 0.2970294999999794,
          "durationTicks": 48,
          "midi": 49,
          "name": "C#3",
          "ticks": 29568,
          "time": 182.97017200000002,
          "velocity": 1
        },
        {
          "duration": 0.14851475000000391,
          "durationTicks": 24,
          "midi": 37,
          "name": "C#2",
          "ticks": 29616,
          "time": 183.2672015,
          "velocity": 1
        },
        {
          "duration": 0.29702950000000783,
          "durationTicks": 48,
          "midi": 47,
          "name": "B2",
          "ticks": 29640,
          "time": 183.41571625,
          "velocity": 1
        },
        {
          "duration": 0.29702950000000783,
          "durationTicks": 48,
          "midi": 44,
          "name": "G#2",
          "ticks": 29688,
          "time": 183.71274575,
          "velocity": 0.09448818897637795
        },
        {
          "duration": 0.14851475000000391,
          "durationTicks": 24,
          "midi": 49,
          "name": "C#3",
          "ticks": 29784,
          "time": 184.30680475000003,
          "velocity": 1
        },
        {
          "duration": 0.14851475000000391,
          "durationTicks": 24,
          "midi": 44,
          "name": "G#2",
          "ticks": 29808,
          "time": 184.45531950000003,
          "velocity": 0.047244094488188976
        },
        {
          "duration": 0.2970294999999794,
          "durationTicks": 48,
          "midi": 47,
          "name": "B2",
          "ticks": 29832,
          "time": 184.60383425000003,
          "velocity": 1
        },
        {
          "duration": 0.29702950000000783,
          "durationTicks": 48,
          "midi": 44,
          "name": "G#2",
          "ticks": 29880,
          "time": 184.90086375,
          "velocity": 1
        },
        {
          "duration": 0.14851475000000391,
          "durationTicks": 24,
          "midi": 56,
          "name": "G#3",
          "ticks": 29928,
          "time": 185.19789325000002,
          "velocity": 1
        },
        {
          "duration": 0.1485147499999755,
          "durationTicks": 24,
          "midi": 47,
          "name": "B2",
          "ticks": 29952,
          "time": 185.34640800000003,
          "velocity": 0.09448818897637795
        },
        {
          "duration": 0.14851475000000391,
          "durationTicks": 24,
          "midi": 59,
          "name": "B3",
          "ticks": 29976,
          "time": 185.49492275,
          "velocity": 1
        },
        {
          "duration": 0.14851475000000391,
          "durationTicks": 24,
          "midi": 54,
          "name": "F#3",
          "ticks": 30000,
          "time": 185.6434375,
          "velocity": 1
        },
        {
          "duration": 0.29702950000000783,
          "durationTicks": 48,
          "midi": 49,
          "name": "C#3",
          "ticks": 30024,
          "time": 185.79195225,
          "velocity": 1
        },
        {
          "duration": 0.29702950000000783,
          "durationTicks": 48,
          "midi": 44,
          "name": "G#2",
          "ticks": 30072,
          "time": 186.08898175000002,
          "velocity": 1
        },
        {
          "duration": 0.14851475000000391,
          "durationTicks": 24,
          "midi": 47,
          "name": "B2",
          "ticks": 30120,
          "time": 186.38601125000002,
          "velocity": 1
        },
        {
          "duration": 0.14851475000000391,
          "durationTicks": 24,
          "midi": 49,
          "name": "C#3",
          "ticks": 30144,
          "time": 186.53452600000003,
          "velocity": 1
        },
        {
          "duration": 0.14851475000000391,
          "durationTicks": 24,
          "midi": 44,
          "name": "G#2",
          "ticks": 30168,
          "time": 186.68304075000003,
          "velocity": 0.09448818897637795
        },
        {
          "duration": 0.2970294999999794,
          "durationTicks": 48,
          "midi": 44,
          "name": "G#2",
          "ticks": 30192,
          "time": 186.83155550000004,
          "velocity": 1
        },
        {
          "duration": 0.29702950000000783,
          "durationTicks": 48,
          "midi": 56,
          "name": "G#3",
          "ticks": 30240,
          "time": 187.12858500000002,
          "velocity": 1
        },
        {
          "duration": 0.2970294999999794,
          "durationTicks": 48,
          "midi": 44,
          "name": "G#2",
          "ticks": 30288,
          "time": 187.42561450000002,
          "velocity": 1
        },
        {
          "duration": 0.14851475000000391,
          "durationTicks": 24,
          "midi": 47,
          "name": "B2",
          "ticks": 30336,
          "time": 187.722644,
          "velocity": 1
        },
        {
          "duration": 0.29702950000000783,
          "durationTicks": 48,
          "midi": 49,
          "name": "C#3",
          "ticks": 30360,
          "time": 187.87115875,
          "velocity": 1
        },
        {
          "duration": 0.29702950000000783,
          "durationTicks": 48,
          "midi": 44,
          "name": "G#2",
          "ticks": 30408,
          "time": 188.16818825000001,
          "velocity": 0.09448818897637795
        },
        {
          "duration": 0.29702950000000783,
          "durationTicks": 48,
          "midi": 49,
          "name": "C#3",
          "ticks": 30504,
          "time": 188.76224725000003,
          "velocity": 1
        },
        {
          "duration": 0.2970294999999794,
          "durationTicks": 48,
          "midi": 47,
          "name": "B2",
          "ticks": 30552,
          "time": 189.05927675000004,
          "velocity": 1
        },
        {
          "duration": 0.29702950000000783,
          "durationTicks": 48,
          "midi": 44,
          "name": "G#2",
          "ticks": 30600,
          "time": 189.35630625000002,
          "velocity": 1
        },
        {
          "duration": 0.1485147499999755,
          "durationTicks": 24,
          "midi": 56,
          "name": "G#3",
          "ticks": 30648,
          "time": 189.65333575000002,
          "velocity": 1
        },
        {
          "duration": 0.14851475000000391,
          "durationTicks": 24,
          "midi": 47,
          "name": "B2",
          "ticks": 30672,
          "time": 189.8018505,
          "velocity": 0.09448818897637795
        },
        {
          "duration": 0.14851475000000391,
          "durationTicks": 24,
          "midi": 59,
          "name": "B3",
          "ticks": 30696,
          "time": 189.95036525,
          "velocity": 1
        },
        {
          "duration": 0.14851475000000391,
          "durationTicks": 24,
          "midi": 54,
          "name": "F#3",
          "ticks": 30720,
          "time": 190.09888,
          "velocity": 1
        },
        {
          "duration": 0.14851475000000391,
          "durationTicks": 24,
          "midi": 49,
          "name": "C#3",
          "ticks": 30744,
          "time": 190.24739475,
          "velocity": 1
        },
        {
          "duration": 0.14851475000000391,
          "durationTicks": 24,
          "midi": 59,
          "name": "B3",
          "ticks": 30768,
          "time": 190.39590950000002,
          "velocity": 0.09448818897637795
        },
        {
          "duration": 0.29702950000000783,
          "durationTicks": 48,
          "midi": 44,
          "name": "G#2",
          "ticks": 30792,
          "time": 190.54442425000002,
          "velocity": 1
        },
        {
          "duration": 0.14851475000000391,
          "durationTicks": 24,
          "midi": 47,
          "name": "B2",
          "ticks": 30840,
          "time": 190.84145375000003,
          "velocity": 1
        },
        {
          "duration": 0.14851475000000391,
          "durationTicks": 24,
          "midi": 49,
          "name": "C#3",
          "ticks": 30864,
          "time": 190.98996850000003,
          "velocity": 1
        },
        {
          "duration": 0.14851475000000391,
          "durationTicks": 24,
          "midi": 44,
          "name": "G#2",
          "ticks": 30888,
          "time": 191.13848325000004,
          "velocity": 0.09448818897637795
        },
        {
          "duration": 0.2970294999999794,
          "durationTicks": 48,
          "midi": 44,
          "name": "G#2",
          "ticks": 30912,
          "time": 191.28699800000004,
          "velocity": 1
        },
        {
          "duration": 0.2970294999999794,
          "durationTicks": 48,
          "midi": 37,
          "name": "C#2",
          "ticks": 30960,
          "time": 191.58402750000002,
          "velocity": 1
        },
        {
          "duration": 0.29702950000000783,
          "durationTicks": 48,
          "midi": 49,
          "name": "C#3",
          "ticks": 31008,
          "time": 191.881057,
          "velocity": 1
        },
        {
          "duration": 0.14851475000000391,
          "durationTicks": 24,
          "midi": 37,
          "name": "C#2",
          "ticks": 31056,
          "time": 192.1780865,
          "velocity": 1
        },
        {
          "duration": 0.29702950000000783,
          "durationTicks": 48,
          "midi": 47,
          "name": "B2",
          "ticks": 31080,
          "time": 192.32660125,
          "velocity": 1
        },
        {
          "duration": 0.29702950000000783,
          "durationTicks": 48,
          "midi": 44,
          "name": "G#2",
          "ticks": 31128,
          "time": 192.62363075000002,
          "velocity": 0.09448818897637795
        },
        {
          "duration": 0.14851475000000391,
          "durationTicks": 24,
          "midi": 49,
          "name": "C#3",
          "ticks": 31224,
          "time": 193.21768975000003,
          "velocity": 1
        },
        {
          "duration": 0.1485147499999755,
          "durationTicks": 24,
          "midi": 44,
          "name": "G#2",
          "ticks": 31248,
          "time": 193.36620450000004,
          "velocity": 0.047244094488188976
        },
        {
          "duration": 0.29702950000000783,
          "durationTicks": 48,
          "midi": 47,
          "name": "B2",
          "ticks": 31272,
          "time": 193.51471925,
          "velocity": 1
        },
        {
          "duration": 0.2970294999999794,
          "durationTicks": 48,
          "midi": 47,
          "name": "B2",
          "ticks": 31320,
          "time": 193.81174875000002,
          "velocity": 1
        },
        {
          "duration": 0.14851475000000391,
          "durationTicks": 24,
          "midi": 59,
          "name": "B3",
          "ticks": 31368,
          "time": 194.10877825,
          "velocity": 1
        },
        {
          "duration": 0.14851475000000391,
          "durationTicks": 24,
          "midi": 47,
          "name": "B2",
          "ticks": 31392,
          "time": 194.257293,
          "velocity": 0.09448818897637795
        },
        {
          "duration": 0.14851475000000391,
          "durationTicks": 24,
          "midi": 59,
          "name": "B3",
          "ticks": 31416,
          "time": 194.40580775,
          "velocity": 1
        },
        {
          "duration": 0.14851475000000391,
          "durationTicks": 24,
          "midi": 54,
          "name": "F#3",
          "ticks": 31440,
          "time": 194.5543225,
          "velocity": 1
        },
        {
          "duration": 0.29702950000000783,
          "durationTicks": 48,
          "midi": 49,
          "name": "C#3",
          "ticks": 31464,
          "time": 194.70283725000002,
          "velocity": 1
        },
        {
          "duration": 0.29702950000000783,
          "durationTicks": 48,
          "midi": 44,
          "name": "G#2",
          "ticks": 31512,
          "time": 194.99986675000002,
          "velocity": 1
        },
        {
          "duration": 0.14851475000000391,
          "durationTicks": 24,
          "midi": 47,
          "name": "B2",
          "ticks": 31560,
          "time": 195.29689625000003,
          "velocity": 1
        },
        {
          "duration": 0.14851475000000391,
          "durationTicks": 24,
          "midi": 49,
          "name": "C#3",
          "ticks": 31584,
          "time": 195.44541100000004,
          "velocity": 1
        },
        {
          "duration": 0.1485147499999755,
          "durationTicks": 24,
          "midi": 44,
          "name": "G#2",
          "ticks": 31608,
          "time": 195.59392575000004,
          "velocity": 0.09448818897637795
        },
        {
          "duration": 0.29702950000000783,
          "durationTicks": 48,
          "midi": 44,
          "name": "G#2",
          "ticks": 31632,
          "time": 195.74244050000001,
          "velocity": 1
        },
        {
          "duration": 0.2970294999999794,
          "durationTicks": 48,
          "midi": 56,
          "name": "G#3",
          "ticks": 31680,
          "time": 196.03947000000002,
          "velocity": 1
        },
        {
          "duration": 0.29702950000000783,
          "durationTicks": 48,
          "midi": 44,
          "name": "G#2",
          "ticks": 31728,
          "time": 196.3364995,
          "velocity": 1
        },
        {
          "duration": 0.14851475000000391,
          "durationTicks": 24,
          "midi": 47,
          "name": "B2",
          "ticks": 31776,
          "time": 196.633529,
          "velocity": 1
        },
        {
          "duration": 0.29702950000000783,
          "durationTicks": 48,
          "midi": 49,
          "name": "C#3",
          "ticks": 31800,
          "time": 196.78204375,
          "velocity": 1
        },
        {
          "duration": 0.29702950000000783,
          "durationTicks": 48,
          "midi": 44,
          "name": "G#2",
          "ticks": 31848,
          "time": 197.07907325000002,
          "velocity": 0.09448818897637795
        },
        {
          "duration": 0.1485147499999755,
          "durationTicks": 24,
          "midi": 61,
          "name": "C#4",
          "ticks": 33360,
          "time": 206.4355025,
          "velocity": 1
        },
        {
          "duration": 0.1485147499999755,
          "durationTicks": 24,
          "midi": 61,
          "name": "C#4",
          "ticks": 33360,
          "time": 206.4355025,
          "velocity": 1
        },
        {
          "duration": 0.14851475000000391,
          "durationTicks": 24,
          "midi": 61,
          "name": "C#4",
          "ticks": 34080,
          "time": 210.890945,
          "velocity": 1
        },
        {
          "duration": 0.14851475000000391,
          "durationTicks": 24,
          "midi": 61,
          "name": "C#4",
          "ticks": 34080,
          "time": 210.890945,
          "velocity": 1
        }
      ],
      "endOfTrackTicks": 34104
    },
    {
      "channel": 0,
      "controlChanges": {},
      "pitchBends": [],
      "instrument": {
        "family": "piano",
        "number": 0,
        "name": "acoustic grand piano"
      },
      "name": "Track 03 (0F:   Greetz to my fellas)",
      "notes": [
        {
          "duration": 0.2970294999999936,
          "durationTicks": 48,
          "midi": 44,
          "name": "G#2",
          "ticks": 15744,
          "time": 97.42567600000002,
          "velocity": 0.015748031496062992
        },
        {
          "duration": 0.1485147499999897,
          "durationTicks": 24,
          "midi": 47,
          "name": "B2",
          "ticks": 15840,
          "time": 98.01973500000003,
          "velocity": 1
        },
        {
          "duration": 0.5940590000000014,
          "durationTicks": 96,
          "midi": 49,
          "name": "C#3",
          "ticks": 15864,
          "time": 98.16824975000002,
          "velocity": 1
        },
        {
          "duration": 0.44554424999999753,
          "durationTicks": 72,
          "midi": 51,
          "name": "D#3",
          "ticks": 15960,
          "time": 98.76230875000002,
          "velocity": 1
        },
        {
          "duration": 0.29702950000000783,
          "durationTicks": 48,
          "midi": 56,
          "name": "G#3",
          "ticks": 16032,
          "time": 99.20785300000001,
          "velocity": 1
        },
        {
          "duration": 0.2970294999999936,
          "durationTicks": 48,
          "midi": 54,
          "name": "F#3",
          "ticks": 16080,
          "time": 99.50488250000002,
          "velocity": 1
        },
        {
          "duration": 0.14851475000000391,
          "durationTicks": 24,
          "midi": 56,
          "name": "G#3",
          "ticks": 16128,
          "time": 99.80191200000002,
          "velocity": 1
        },
        {
          "duration": 0.14851475000000391,
          "durationTicks": 24,
          "midi": 54,
          "name": "F#3",
          "ticks": 16152,
          "time": 99.95042675000002,
          "velocity": 1
        },
        {
          "duration": 0.1485147499999897,
          "durationTicks": 24,
          "midi": 56,
          "name": "G#3",
          "ticks": 16176,
          "time": 100.09894150000002,
          "velocity": 1
        },
        {
          "duration": 1.3366327500000068,
          "durationTicks": 216,
          "midi": 51,
          "name": "D#3",
          "ticks": 16200,
          "time": 100.24745625000001,
          "velocity": 1
        },
        {
          "duration": 0.8910884999999951,
          "durationTicks": 144,
          "midi": 56,
          "name": "G#3",
          "ticks": 16416,
          "time": 101.58408900000002,
          "velocity": 1
        },
        {
          "duration": 1.3366327500000068,
          "durationTicks": 216,
          "midi": 54,
          "name": "F#3",
          "ticks": 16560,
          "time": 102.47517750000002,
          "velocity": 1
        },
        {
          "duration": 0.8910884999999951,
          "durationTicks": 144,
          "midi": 51,
          "name": "D#3",
          "ticks": 16776,
          "time": 103.81181025000002,
          "velocity": 1
        },
        {
          "duration": 1.188118000000003,
          "durationTicks": 192,
          "midi": 51,
          "name": "D#3",
          "ticks": 16920,
          "time": 104.70289875000002,
          "velocity": 1
        },
        {
          "duration": 1.039603249999999,
          "durationTicks": 168,
          "midi": 49,
          "name": "C#3",
          "ticks": 17112,
          "time": 105.89101675000002,
          "velocity": 1
        },
        {
          "duration": 1.7821770000000043,
          "durationTicks": 288,
          "midi": 44,
          "name": "G#2",
          "ticks": 17280,
          "time": 106.93062000000002,
          "velocity": 1
        },
        {
          "duration": 0.44554424999999753,
          "durationTicks": 72,
          "midi": 46,
          "name": "A#2",
          "ticks": 17568,
          "time": 108.71279700000002,
          "velocity": 1
        },
        {
          "duration": 1.3366327499999926,
          "durationTicks": 216,
          "midi": 48,
          "name": "C3",
          "ticks": 17640,
          "time": 109.15834125000002,
          "velocity": 1
        },
        {
          "duration": 0.8910885000000093,
          "durationTicks": 144,
          "midi": 56,
          "name": "G#3",
          "ticks": 17856,
          "time": 110.49497400000001,
          "velocity": 1
        },
        {
          "duration": 1.3366327499999926,
          "durationTicks": 216,
          "midi": 51,
          "name": "D#3",
          "ticks": 18000,
          "time": 111.38606250000002,
          "velocity": 1
        },
        {
          "duration": 0.8910884999999951,
          "durationTicks": 144,
          "midi": 54,
          "name": "F#3",
          "ticks": 18216,
          "time": 112.72269525000002,
          "velocity": 1
        },
        {
          "duration": 1.188118000000003,
          "durationTicks": 192,
          "midi": 51,
          "name": "D#3",
          "ticks": 18360,
          "time": 113.61378375000001,
          "velocity": 1
        },
        {
          "duration": 1.039603249999999,
          "durationTicks": 168,
          "midi": 47,
          "name": "B2",
          "ticks": 18552,
          "time": 114.80190175000001,
          "velocity": 1
        },
        {
          "duration": 0.8910885000000093,
          "durationTicks": 144,
          "midi": 56,
          "name": "G#3",
          "ticks": 18720,
          "time": 115.84150500000001,
          "velocity": 1
        },
        {
          "duration": 0.5940590000000014,
          "durationTicks": 96,
          "midi": 61,
          "name": "C#4",
          "ticks": 18864,
          "time": 116.73259350000002,
          "velocity": 1
        },
        {
          "duration": 0.44554424999999753,
          "durationTicks": 72,
          "midi": 59,
          "name": "B3",
          "ticks": 18960,
          "time": 117.32665250000002,
          "velocity": 1
        },
        {
          "duration": 0.2970294999999936,
          "durationTicks": 48,
          "midi": 56,
          "name": "G#3",
          "ticks": 19032,
          "time": 117.77219675000002,
          "velocity": 1
        },
        {
          "duration": 0.29702950000000783,
          "durationTicks": 48,
          "midi": 59,
          "name": "B3",
          "ticks": 19080,
          "time": 118.06922625000001,
          "velocity": 1
        },
        {
          "duration": 0.5940590000000014,
          "durationTicks": 96,
          "midi": 56,
          "name": "G#3",
          "ticks": 19128,
          "time": 118.36625575000002,
          "velocity": 1
        },
        {
          "duration": 0.44554424999999753,
          "durationTicks": 72,
          "midi": 54,
          "name": "F#3",
          "ticks": 19224,
          "time": 118.96031475000002,
          "velocity": 1
        },
        {
          "duration": 0.2970294999999936,
          "durationTicks": 48,
          "midi": 56,
          "name": "G#3",
          "ticks": 19296,
          "time": 119.40585900000002,
          "velocity": 1
        },
        {
          "duration": 0.5940590000000014,
          "durationTicks": 96,
          "midi": 54,
          "name": "F#3",
          "ticks": 19344,
          "time": 119.70288850000001,
          "velocity": 1
        },
        {
          "duration": 0.5940590000000014,
          "durationTicks": 96,
          "midi": 51,
          "name": "D#3",
          "ticks": 19440,
          "time": 120.29694750000002,
          "velocity": 1
        },
        {
          "duration": 0.2970294999999936,
          "durationTicks": 48,
          "midi": 54,
          "name": "F#3",
          "ticks": 19536,
          "time": 120.89100650000002,
          "velocity": 1
        },
        {
          "duration": 0.7425737500000054,
          "durationTicks": 120,
          "midi": 51,
          "name": "D#3",
          "ticks": 19584,
          "time": 121.18803600000001,
          "velocity": 1
        },
        {
          "duration": 0.2970294999999936,
          "durationTicks": 48,
          "midi": 47,
          "name": "B2",
          "ticks": 19704,
          "time": 121.93060975000002,
          "velocity": 1
        },
        {
          "duration": 0.5940590000000157,
          "durationTicks": 96,
          "midi": 49,
          "name": "C#3",
          "ticks": 19752,
          "time": 122.22763925000001,
          "velocity": 1
        },
        {
          "duration": 1.930691749999994,
          "durationTicks": 312,
          "midi": 44,
          "name": "G#2",
          "ticks": 19848,
          "time": 122.82169825000003,
          "velocity": 1
        },
        {
          "duration": 2.227721250000002,
          "durationTicks": 360,
          "midi": 43,
          "name": "G2",
          "ticks": 20160,
          "time": 124.75239000000002,
          "velocity": 1
        },
        {
          "duration": 4.455442499999975,
          "durationTicks": 720,
          "midi": 43,
          "name": "G2",
          "ticks": 20208,
          "time": 125.04941950000003,
          "velocity": 0.2204724409448819
        }
      ],
      "endOfTrackTicks": 20928
    },
    {
      "channel": 0,
      "controlChanges": {},
      "pitchBends": [],
      "instrument": {
        "family": "piano",
        "number": 0,
        "name": "acoustic grand piano"
      },
      "name": "Track 03 (11:      Y'all welcome)",
      "notes": [
        {
          "duration": 8.465340749999996,
          "durationTicks": 1368,
          "midi": 43,
          "name": "G2",
          "ticks": 20160,
          "time": 124.75239000000002,
          "velocity": 0.047244094488188976
        }
      ],
      "endOfTrackTicks": 21528
    }
  ]
}
